#N canvas 588 131 713 339 12;
#X declare -path Pof;
#X declare -lib zexy -path ../tools/AutoPreset;
#X obj 533 52 bng 40 250 50 0 draw_clear draw_clear draw_clear 0 -8
0 10 -258113 -1 -1;
#X obj 16 177 vradio 30 1 0 4 VIEWMODE VIEWMODE VIEWMODE 0 -8 0 10
-262144 -1 -1 1;
#X text 48 181 projs-fullscreen;
#X text 49 212 projs-window;
#X text 49 243 3d-cameras;
#X text 48 272 3d-projs;
#N canvas 1 81 845 422 CONFIG 0;
#X obj 101 34 cnv 15 200 60 empty \$0-configfile-namecan CND 2 53 2
15 -233017 -45076 0;
#X obj 337 35 apmaster CONFIG;
#X obj 66 260 s CONFIG-apmaster-rcv;
#X obj 285 367 s CONFIG-apmaster-rcv;
#X obj 336 66 apmasterfile CONFIG CONFIGS/;
#X obj 66 176 openpanel;
#X obj 66 126 getdir;
#X msg 66 150 symbol \$1/CONFIGS;
#X obj 66 98 bng 15 250 50 0 empty empty empty 17 7 0 10 -262144 -1
-1;
#X obj 362 156 getdir;
#X msg 362 180 symbol \$1/CONFIGS;
#X obj 362 128 bng 15 250 50 0 empty empty empty 17 7 0 10 -262144
-1 -1;
#X obj 362 206 savepanel;
#X obj 80 206 s \$0-configfile;
#X obj 324 292 r \$0-configfile;
#X obj 285 317 symbol;
#X obj 285 251 bng 15 250 50 0 empty empty empty 17 7 0 10 -262144
-1 -1;
#X msg 285 341 savefile \$1;
#X obj 103 46 bng 30 250 50 0 empty empty LOAD 0 -6 0 10 -4034 -1 -1
;
#X obj 178 46 bng 30 250 50 0 empty empty SAVE 0 -6 0 10 -258113 -1
-1;
#X obj 257 46 bng 30 250 50 0 empty empty SAVE_AS 0 -6 0 10 -260097
-1 -1;
#X obj 100 365 s \$0-configfile-namecan;
#X obj 74 314 hcs/split_path;
#X msg 169 336 label \$1;
#X obj 74 290 r \$0-configfile;
#X obj 394 255 s \$0-configfile;
#X obj 362 230 t b s;
#X msg 66 234 loadfile \$1;
#X obj 24 355 loadbang;
#X msg 24 379 label;
#X obj 555 66 apf CONFIG roomLength roomLength 2;
#X obj 555 90 apf CONFIG roomWidth roomWidth 2;
#X obj 555 112 apf CONFIG roomHeight roomHeight 2;
#X obj 563 244 t b f;
#X obj 612 244 t b f;
#X obj 539 299 s drawSize;
#X obj 539 170 r roomLength-snd;
#X obj 563 194 r roomWidth-snd;
#X obj 612 221 r roomHeight-snd;
#X obj 539 273 pack 10 6 4, f 16;
#X connect 5 0 13 0;
#X connect 5 0 27 0;
#X connect 6 0 7 0;
#X connect 7 0 5 0;
#X connect 8 0 6 0;
#X connect 9 0 10 0;
#X connect 10 0 12 0;
#X connect 11 0 9 0;
#X connect 12 0 26 0;
#X connect 14 0 15 1;
#X connect 15 0 17 0;
#X connect 16 0 15 0;
#X connect 17 0 3 0;
#X connect 18 0 8 0;
#X connect 19 0 16 0;
#X connect 20 0 11 0;
#X connect 22 1 23 0;
#X connect 23 0 21 0;
#X connect 24 0 22 0;
#X connect 26 0 15 0;
#X connect 26 1 25 0;
#X connect 27 0 2 0;
#X connect 28 0 29 0;
#X connect 29 0 21 0;
#X connect 33 0 39 0;
#X connect 33 1 39 1;
#X connect 34 0 39 0;
#X connect 34 1 39 2;
#X connect 36 0 39 0;
#X connect 37 0 33 0;
#X connect 38 0 34 0;
#X connect 39 0 35 0;
#X coords 0 -1 1 1 202 80 1 100 15;
#X restore 151 18 pd CONFIG;
#X obj 17 67 nbx 5 14 -1e+37 1e+37 0 0 empty FRAMERATE-REAL FRAMERATE-REAL
0 -8 0 10 -262144 -1 -1 50.2513 256;
#X obj 368 29 nbx 5 20 1 20 0 0 roomLength-snd roomLength-rcv Length(m)
70 10 0 12 -228856 -1 -1 10 256;
#X obj 368 53 nbx 5 20 1 20 0 0 roomWidth-snd roomWidth-rcv Width(m)
70 10 0 12 -228856 -1 -1 6 256;
#X obj 368 77 nbx 5 20 1 20 0 0 roomHeight-snd roomHeight-rcv Height(m)
70 10 0 12 -228856 -1 -1 4 256;
#X text 368 11 ROOM SIZE:;
#N canvas 77 168 636 438 stuff 0;
#X obj 28 148 list prepend testGem/testGem;
#X obj 292 50 tgl 40 0 draw-quads-edit draw-quads-edit draw-quads-edit
0 -8 0 10 -262144 -1 -1 0 1;
#N canvas 247 81 588 662 connect-server 0;
#X obj 83 397 tgl 15 0 empty empty empty 17 7 0 10 -262144 -1 -1 1
1;
#X obj 51 168 list fromsymbol;
#X obj 51 192 list prepend 92;
#X obj 51 216 list append 59;
#X text 165 194 antislash;
#X text 160 215 semi;
#X obj 51 263 list append 59;
#X obj 51 238 list append 51;
#X text 161 237 '3';
#X obj 51 74 t b b;
#X text 159 260 semi;
#X obj 83 365 netsend -b;
#X obj 51 287 list prepend send;
#X msg 83 101 disconnect \, connect localhost 8080;
#X obj 51 52 bng 15 250 50 0 empty empty empty 17 7 0 10 -262144 -1
-1;
#X obj 51 312 list trim;
#X msg 51 144 symbol headsetId;
#X msg 252 450 add2 \$1;
#X obj 150 523 textfile;
#X msg 150 489 rewind \, bang \, clear;
#X obj 150 551 fudiparse;
#X obj 150 393 sel 59 40 41 44;
#X msg 221 419 32;
#X obj 300 580 t b b;
#X obj 300 604 timer;
#X obj 300 628 mavg 10;
#X floatatom 300 652 5 0 0 0 - - -;
#X obj 150 577 s headsets-data;
#X obj 83 417 outlet;
#X obj 51 27 inlet;
#X msg 383 124 eraseDraw \; 0 \;;
#X obj 307 184 list fromsymbol;
#X obj 307 208 list prepend 92;
#X obj 307 232 list append 59;
#X text 421 210 antislash;
#X text 416 231 semi;
#X obj 307 279 list append 59;
#X text 415 276 semi;
#X obj 398 61 metro 5000;
#X obj 403 24 tgl 15 0 empty empty empty 17 7 0 10 -262144 -1 -1 0
1;
#X text 417 253 '0';
#X obj 307 254 list append 48;
#X msg 307 162 symbol erasedraw;
#X obj 302 34 r draw_clear;
#X obj 43 530 == 0;
#X obj 10 318 b;
#X obj 77 473 loadbang;
#X msg 77 497 0;
#X obj 16 638 metro 2000;
#N canvas 1 81 450 300 debounce 0;
#X obj 69 18 inlet;
#X obj 69 189 change -1;
#X obj 69 46 sel 0 1, f 27;
#X msg 69 152 0;
#X obj 162 131 del 100;
#X obj 69 131 del 100;
#X msg 81 81 stop;
#X msg 123 83 stop;
#X msg 162 155 1;
#X obj 69 214 outlet;
#X connect 0 0 2 0;
#X connect 1 0 9 0;
#X connect 2 0 5 0;
#X connect 2 0 6 0;
#X connect 2 1 4 0;
#X connect 2 1 7 0;
#X connect 3 0 1 0;
#X connect 4 0 8 0;
#X connect 5 0 3 0;
#X connect 6 0 4 0;
#X connect 7 0 5 0;
#X connect 8 0 1 0;
#X restore 43 556 pd debounce;
#X obj 99 638 sel 0;
#X msg 44 604 0;
#X connect 0 0 28 0;
#X connect 1 0 2 0;
#X connect 2 0 3 0;
#X connect 3 0 7 0;
#X connect 6 0 12 0;
#X connect 7 0 6 0;
#X connect 9 1 13 0;
#X connect 11 0 0 0;
#X connect 11 0 44 0;
#X connect 11 1 21 0;
#X connect 12 0 15 0;
#X connect 13 0 11 0;
#X connect 14 0 9 0;
#X connect 15 0 11 0;
#X connect 16 0 1 0;
#X connect 17 0 18 0;
#X connect 18 0 20 0;
#X connect 19 0 18 0;
#X connect 20 0 27 0;
#X connect 21 0 19 0;
#X connect 21 3 22 0;
#X connect 21 4 17 0;
#X connect 22 0 17 0;
#X connect 23 0 24 0;
#X connect 23 1 24 1;
#X connect 24 0 25 0;
#X connect 25 0 26 0;
#X connect 29 0 14 0;
#X connect 31 0 32 0;
#X connect 32 0 33 0;
#X connect 33 0 41 0;
#X connect 36 0 12 0;
#X connect 38 0 42 0;
#X connect 39 0 38 0;
#X connect 41 0 36 0;
#X connect 42 0 31 0;
#X connect 43 0 42 0;
#X connect 44 0 49 0;
#X connect 45 0 14 0;
#X connect 46 0 47 0;
#X connect 47 0 44 0;
#X connect 48 0 45 0;
#X connect 49 0 48 0;
#X connect 49 0 50 0;
#X connect 50 0 16 0;
#X connect 51 0 48 0;
#X restore 31 66 pd connect-server;
#X obj 31 45 bng 15 250 50 0 empty empty connect 17 7 0 10 -257985
-1 -1;
#X obj 31 92 tgl 15 0 empty empty connected 17 7 0 10 -4034 -1 -1 1
1;
#X obj 292 114 tgl 40 0 draw_showspheres draw_showspheres draw_showspheres
0 -8 0 10 -262144 -1 -1 0 1;
#X obj 29 171 l testPof-25juin/testPof;
#X obj 29 231 testdrawer;
#X obj 29 195 Pof/0main;
#X obj 292 176 tgl 40 0 projectors_colored projectors_colored projectors_colored
0 -8 0 10 -262144 -1 -1 0 1;
#X obj 291 239 tgl 40 0 cameras-bg-on cameras-bg-on cameras-bg-on 0
-8 0 10 -262144 -1 -1 0 1;
#X obj 471 122 r global-edit-mode;
#X obj 486 156 s draw-quads-edit;
#X obj 477 195 s draw_showspheres;
#X obj 456 233 s projectors_colored;
#X obj 419 269 s cameras-bg-on;
#X obj 290 296 tgl 40 0 camera_draw_labels camera_draw_labels camera_draw_labels
0 -8 0 10 -262144 -1 -1 0 1;
#X obj 288 358 tgl 40 0 camera_draw_grid camera_draw_grid camera_draw_grid
0 -8 0 10 -262144 -1 -1 0 1;
#X obj 420 336 s camera_draw_grid;
#X obj 431 366 s camera_draw_labels;
#X obj 31 278 declare -path Pof;
#X obj 25 4 declare -lib zexy -path ../tools/AutoPreset;
#X connect 2 0 4 0;
#X connect 3 0 2 0;
#X connect 11 0 12 0;
#X connect 11 0 13 0;
#X connect 11 0 14 0;
#X connect 11 0 15 0;
#X connect 11 0 18 0;
#X connect 11 0 19 0;
#X restore 17 28 pd stuff;
#X obj 16 111 tgl 40 0 global-edit-mode global-edit-mode DEBUGVIEW
0 -8 0 10 -262144 -1 -1 0 1;
#X obj 301 179 projector FRONT 1;
#X obj 194 179 projector LEFT 1;
#X obj 412 179 projector RIGHT 1;
#X obj 523 179 projector BACK 1;
#X obj 328 227 projector FLOOR 1;
#X obj 373 132 projector TOP 1;
#X obj 438 227 projector FLOOR 2;
#N canvas 1 81 564 281 cameras 0;
#X obj 104 122 tgl 15 0 camera-FRONT-on-snd camera-FRONT-on-rcv FRONT
17 7 0 10 -260097 -1 -1 1 1;
#X obj 203 109 apf CONFIG camera-FRONT-on camera-FRONT-on 2;
#X obj 104 139 tgl 15 0 camera-BACK-on-snd camera-BACK-on-rcv BACK
17 7 0 10 -260097 -1 -1 0 1;
#X obj 204 130 apf CONFIG camera-BACK-on camera-BACK-on 2;
#X obj 104 156 tgl 15 0 camera-LEFT-on-snd camera-LEFT-on-rcv LEFT
17 7 0 10 -260097 -1 -1 1 1;
#X obj 205 151 apf CONFIG camera-LEFT-on camera-LEFT-on 2;
#X obj 205 173 apf CONFIG camera-RIGHT-on camera-RIGHT-on 2;
#X obj 206 194 apf CONFIG camera-TOP-on camera-TOP-on 2;
#X obj 207 215 apf CONFIG camera-FLOOR-on camera-FLOOR-on 2;
#X obj 104 173 tgl 15 0 camera-RIGHT-on-snd camera-RIGHT-on-rcv RIGHT
17 7 0 10 -260097 -1 -1 0 1;
#X obj 104 190 tgl 15 0 camera-TOP-on-snd camera-TOP-on-rcv TOP 17
7 0 10 -260097 -1 -1 0 1;
#X obj 104 207 tgl 15 0 camera-FLOOR-on-snd camera-FLOOR-on-rcv FLOOR
17 7 0 10 -260097 -1 -1 1 1;
#X coords 0 -1 1 1 60 125 1 100 100;
#X restore 604 21 pd cameras;
#X obj 82 11 tgl 15 0 head1-sig head1-sig sig1 17 7 0 10 -257985 -1
-1 0 1;
#X obj 82 29 tgl 15 0 head2-sig head2-sig sig2 17 7 0 10 -257985 -1
-1 0 1;
#X obj 81 112 tgl 40 0 ALL_WHITE ALL_WHITE ALL_WHITE 0 -8 0 10 -262144
-1 -1 0 1;
#X obj 16 302 cnv 15 170 30 empty window_size_canvas window_size=8000x2000
5 12 0 12 -233017 -66577 0;
