#N canvas 44 269 880 486 10;
#X obj 78 22 metro 20;
#X obj 178 437 s headsets-data;
#X obj 178 410 list prepend 1;
#X obj 178 337 t a a, f 15;
#X obj 178 362 list append 0;
#X obj 178 386 list append, f 15;
#X obj 306 354 tgl 15 0 empty empty empty 17 7 0 10 -262144 -1 -1 0
1;
#X obj 177 139 t f f, f 9;
#X obj 177 116 * 6.2832;
#X obj 177 163 cos;
#X obj 237 163 sin;
#X obj 177 211 + 0;
#X obj 180 88 hsl 128 15 0 1 0 0 empty empty empty -2 -8 0 10 -262144
-1 -1 11430 1;
#X obj 335 449 print;
#X msg 352 244 \$1 0 4;
#X floatatom 352 219 5 0 0 0 - - -;
#X msg 50 235 \$1 0.2 \$2;
#X floatatom 105 143 5 0 0 0 - - -;
#X floatatom 114 200 5 0 0 0 - - -;
#X floatatom 287 196 5 0 0 0 - - -;
#X obj 78 46 f;
#X obj 78 94 wrap;
#X obj 34 22 tgl 15 0 empty empty empty 17 7 0 10 -262144 -1 -1 0 1
;
#X obj 78 70 + 0.02;
#X floatatom 293 163 5 0 0 0 - - -;
#X msg 156 21 0.005;
#X msg 201 20 0.02;
#X floatatom 156 45 5 0 0 0 - - -;
#X msg 65 266 \$3 \$2 \$1;
#X msg 124 311 \$1 \$2 \$3;
#X msg 65 325 \$2 \$3 \$1;
#X msg 258 309 \$2 \$3 \$1;
#X obj 177 262 list prepend 0;
#X obj 177 284 route 0 1 2;
#X msg 193 311 \$3 \$1 \$2;
#X obj 276 270 hradio 15 1 0 3 empty empty empty 0 -8 0 10 -262144
-1 -1 1;
#X obj 177 235 pack f f 2.7;
#X obj 237 211 + 1.5;
#X obj 177 187 * 1.3;
#X obj 237 187 * 1.3;
#X obj 457 80 random 2e+06;
#X obj 457 101 - 1e+06;
#X obj 457 122 / 1e+06;
#X obj 457 58 t b b b, f 42;
#X obj 457 143 pack f 500;
#X obj 457 261 *;
#X obj 457 282 +;
#X obj 457 303 pack f f f, f 42;
#X obj 415 25 tgl 15 0 empty empty empty 17 7 0 10 -262144 -1 -1 1
1;
#X obj 487 263 hsl 80 15 0 3 0 1 empty empty empty -2 -8 0 10 -262144
-1 -1 7700 1;
#X obj 488 281 hsl 80 15 -3 3 0 1 empty empty empty -2 -8 0 10 -262144
-1 -1 3900 1;
#X obj 581 78 random 2e+06;
#X obj 581 99 - 1e+06;
#X obj 581 120 / 1e+06;
#X obj 581 141 pack f 500;
#X obj 581 259 *;
#X obj 581 280 +;
#X obj 611 261 hsl 80 15 0 3 0 1 empty empty empty -2 -8 0 10 -262144
-1 -1 7500 1;
#X obj 612 279 hsl 80 15 -3 3 0 1 empty empty empty -2 -8 0 10 -262144
-1 -1 5401 1;
#X obj 706 78 random 2e+06;
#X obj 706 99 - 1e+06;
#X obj 706 120 / 1e+06;
#X obj 706 141 pack f 500;
#X obj 706 259 *;
#X obj 706 280 +;
#X obj 736 261 hsl 80 15 0 3 0 1 empty empty empty -2 -8 0 10 -262144
-1 -1 2997 1;
#X obj 737 279 hsl 80 15 -3 3 0 1 empty empty empty -2 -8 0 10 -262144
-1 -1 7299 1;
#X obj 457 170 line;
#X obj 581 168 line;
#X obj 706 168 line;
#X obj 457 33 metro 200;
#X floatatom 621 38 5 0 0 0 - - -;
#X msg 624 14 1500;
#X obj 457 189 * 0.1;
#X obj 457 210 +;
#X obj 457 231 clip -10 10;
#X obj 487 211 * 0.9;
#X obj 580 187 * 0.1;
#X obj 580 208 +;
#X obj 580 229 clip -10 10;
#X obj 610 209 * 0.9;
#X obj 706 188 * 0.1;
#X obj 706 209 +;
#X obj 706 230 clip -10 10;
#X obj 736 210 * 0.9;
#X floatatom 606 406 5 0 0 0 - - -;
#X msg 588 18 500;
#X connect 0 0 20 0;
#X connect 2 0 1 0;
#X connect 3 0 4 0;
#X connect 3 1 5 1;
#X connect 4 0 5 0;
#X connect 5 0 2 0;
#X connect 6 0 4 1;
#X connect 7 0 9 0;
#X connect 7 1 10 0;
#X connect 8 0 7 0;
#X connect 9 0 38 0;
#X connect 10 0 39 0;
#X connect 11 0 36 0;
#X connect 12 0 8 0;
#X connect 15 0 14 0;
#X connect 17 0 38 1;
#X connect 17 0 39 1;
#X connect 18 0 11 1;
#X connect 19 0 36 2;
#X connect 20 0 23 0;
#X connect 21 0 20 1;
#X connect 21 0 12 0;
#X connect 22 0 0 0;
#X connect 23 0 21 0;
#X connect 24 0 37 1;
#X connect 25 0 27 0;
#X connect 26 0 27 0;
#X connect 27 0 23 1;
#X connect 29 0 3 0;
#X connect 31 0 3 0;
#X connect 32 0 33 0;
#X connect 33 0 29 0;
#X connect 33 1 34 0;
#X connect 33 2 31 0;
#X connect 34 0 3 0;
#X connect 35 0 32 1;
#X connect 36 0 32 0;
#X connect 37 0 36 1;
#X connect 38 0 11 0;
#X connect 39 0 37 0;
#X connect 40 0 41 0;
#X connect 41 0 42 0;
#X connect 42 0 44 0;
#X connect 43 0 40 0;
#X connect 43 1 51 0;
#X connect 43 2 59 0;
#X connect 44 0 67 0;
#X connect 45 0 46 0;
#X connect 46 0 47 0;
#X connect 47 0 3 0;
#X connect 48 0 70 0;
#X connect 49 0 45 1;
#X connect 50 0 46 1;
#X connect 51 0 52 0;
#X connect 52 0 53 0;
#X connect 53 0 54 0;
#X connect 54 0 68 0;
#X connect 55 0 56 0;
#X connect 56 0 47 1;
#X connect 57 0 55 1;
#X connect 58 0 56 1;
#X connect 59 0 60 0;
#X connect 60 0 61 0;
#X connect 61 0 62 0;
#X connect 62 0 69 0;
#X connect 63 0 64 0;
#X connect 64 0 47 2;
#X connect 65 0 63 1;
#X connect 66 0 64 1;
#X connect 67 0 73 0;
#X connect 68 0 77 0;
#X connect 69 0 81 0;
#X connect 70 0 43 0;
#X connect 71 0 44 1;
#X connect 71 0 54 1;
#X connect 71 0 62 1;
#X connect 72 0 71 0;
#X connect 73 0 74 0;
#X connect 74 0 75 0;
#X connect 75 0 76 0;
#X connect 75 0 45 0;
#X connect 76 0 74 1;
#X connect 77 0 78 0;
#X connect 78 0 79 0;
#X connect 79 0 80 0;
#X connect 79 0 55 0;
#X connect 80 0 78 1;
#X connect 81 0 82 0;
#X connect 82 0 83 0;
#X connect 83 0 84 0;
#X connect 83 0 63 0;
#X connect 84 0 82 1;
#X connect 86 0 71 0;
