#N canvas 247 44 1262 566 10;
#X obj 78 22 metro 20;
#X obj 178 437 s headsets-data;
#X obj 178 410 list prepend 1;
#X obj 178 337 t a a, f 15;
#X obj 178 362 list append 0;
#X obj 178 386 list append, f 15;
#X obj 324 337 tgl 30 0 empty empty draw 4 7 0 10 #00ff04 #000000 #000000 0 1;
#X obj 177 139 t f f, f 9;
#X obj 177 116 * 6.2832;
#X obj 177 163 cos;
#X obj 237 163 sin;
#X obj 177 211 + 0;
#X obj 180 88 hsl 128 15 0 1 0 0 empty empty empty -2 -8 0 10 #fcfcfc #000000 #000000 0 1;
#X msg 352 244 \$1 0 4;
#X floatatom 352 219 5 0 0 0 - - - 0;
#X msg 50 235 \$1 0.2 \$2;
#X floatatom 105 143 5 0 0 0 - - - 0;
#X floatatom 114 200 5 0 0 0 - - - 0;
#X floatatom 287 196 5 0 0 0 - - - 0;
#X obj 78 46 f;
#X obj 78 94 wrap;
#X obj 34 22 tgl 15 0 empty empty empty 17 7 0 10 #fcfcfc #000000 #000000 0 1;
#X obj 78 70 + 0.02;
#X floatatom 293 163 5 0 0 0 - - - 0;
#X msg 156 21 0.005;
#X msg 201 20 0.02;
#X floatatom 156 45 5 0 0 0 - - - 0;
#X msg 65 266 \$3 \$2 \$1;
#X msg 124 311 \$1 \$2 \$3;
#X msg 65 325 \$2 \$3 \$1;
#X msg 258 309 \$2 \$3 \$1;
#X obj 177 262 list prepend 0;
#X obj 177 284 route 0 1 2;
#X msg 193 311 \$3 \$1 \$2;
#X obj 276 270 hradio 15 1 0 3 empty empty empty 0 -8 0 10 #fcfcfc #000000 #000000 0;
#X obj 177 235 pack f f 2.7;
#X obj 237 211 + 1.5;
#X obj 177 187 * 1.3;
#X obj 237 187 * 1.3;
#X obj 457 88 random 2e+06;
#X obj 457 109 - 1e+06;
#X obj 457 130 / 1e+06;
#X obj 457 66 t b b b, f 42;
#X obj 457 269 *;
#X obj 457 290 +;
#X obj 457 311 pack f f f, f 42;
#X obj 457 23 tgl 15 0 empty empty empty 17 7 0 10 #fcfcfc #000000 #000000 0 1;
#X obj 487 271 hsl 80 15 0 3 0 1 empty empty empty -2 -8 0 10 #fcfcfc #000000 #000000 4900 1;
#X obj 488 289 hsl 80 15 -3 3 0 1 empty empty empty -2 -8 0 10 #fcfcfc #000000 #000000 2300 1;
#X obj 581 86 random 2e+06;
#X obj 581 107 - 1e+06;
#X obj 581 128 / 1e+06;
#X obj 581 267 *;
#X obj 581 288 +;
#X obj 611 269 hsl 80 15 0 3 0 1 empty empty empty -2 -8 0 10 #fcfcfc #000000 #000000 3200 1;
#X obj 612 287 hsl 80 15 -3 3 0 1 empty empty empty -2 -8 0 10 #fcfcfc #000000 #000000 6300 1;
#X obj 706 86 random 2e+06;
#X obj 706 107 - 1e+06;
#X obj 706 128 / 1e+06;
#X obj 706 267 *;
#X obj 706 288 +;
#X obj 736 269 hsl 80 15 0 3 0 1 empty empty empty -2 -8 0 10 #fcfcfc #000000 #000000 5800 1;
#X obj 737 287 hsl 80 15 -3.5 3.5 0 1 empty empty empty -2 -8 0 10 #fcfcfc #000000 #000000 5800 1;
#X obj 457 176 line;
#X obj 581 176 line;
#X obj 706 176 line;
#X obj 457 41 metro 200;
#X floatatom 621 46 5 0 0 0 - - - 0;
#X msg 624 22 1500;
#X obj 457 197 * 0.1;
#X obj 457 218 +;
#X obj 457 239 clip -10 10;
#X obj 487 219 * 0.9;
#X obj 580 195 * 0.1;
#X obj 580 216 +;
#X obj 580 237 clip -10 10;
#X obj 610 217 * 0.9;
#X obj 706 196 * 0.1;
#X obj 706 217 +;
#X obj 706 238 clip -10 10;
#X obj 736 218 * 0.9;
#X msg 588 26 500;
#X obj 49 80 bng 18 250 50 0 empty empty empty 0 -9 0 10 #fcfcfc #000000 #000000;
#X obj 426 23 bng 18 250 50 0 empty empty empty 0 -9 0 10 #fcfcfc #000000 #000000;
#X obj 363 402 print;
#X msg 660 23 0;
#X msg 524 7 50;
#X msg 495 8 200;
#X floatatom 523 41 5 0 0 0 - - - 0;
#X msg 550 14 500;
#X obj 320 42 bng 40 250 50 0 draw_clear draw_clear draw_clear 0 -8 0 14 #fc0400 #000000 #000000;
#X obj 289 397 tgl 18 0 empty empty empty 0 -9 0 10 #fcfcfc #000000 #000000 0 1;
#X obj 289 420 + 1;
#N canvas 735 420 450 300 head 0;
#X obj 66 23 inlet;
#X obj 66 46 unpack f f f, f 26;
#X obj 66 216 outlet;
#X obj 142 114 - 1.7;
#X obj 142 134 * 0.2;
#X obj 142 157 + 1.7;
#X obj 219 68 * 0.1;
#X obj 219 91 +;
#X obj 248 91 * 0.9;
#X obj 142 69 * 0.1;
#X obj 142 92 +;
#X obj 171 92 * 0.9;
#X obj 66 70 * 0.1;
#X obj 66 93 +;
#X obj 95 93 * 0.9;
#X obj 66 193 pack f f f, f 26;
#X connect 0 0 1 0;
#X connect 1 0 12 0;
#X connect 1 1 9 0;
#X connect 1 2 6 0;
#X connect 3 0 4 0;
#X connect 4 0 5 0;
#X connect 5 0 15 1;
#X connect 6 0 7 0;
#X connect 7 0 8 0;
#X connect 7 0 15 2;
#X connect 8 0 7 1;
#X connect 9 0 10 0;
#X connect 10 0 11 0;
#X connect 10 0 3 0;
#X connect 11 0 10 1;
#X connect 12 0 13 0;
#X connect 13 0 14 0;
#X connect 13 0 15 0;
#X connect 14 0 13 1;
#X connect 15 0 2 0;
#X restore 265 362 pd head;
#X obj 876 96 random 2e+06;
#X obj 876 117 - 1e+06;
#X obj 876 138 / 1e+06;
#X obj 876 74 t b b b, f 42;
#X obj 876 277 *;
#X obj 876 298 +;
#X obj 876 319 pack f f f, f 42;
#X obj 876 31 tgl 15 0 empty empty empty 17 7 0 10 #fcfcfc #000000 #000000 0 1;
#X obj 906 279 hsl 80 15 0 3 0 1 empty empty empty -2 -8 0 10 #fcfcfc #000000 #000000 3000 1;
#X obj 907 297 hsl 80 15 -3 3 0 1 empty empty empty -2 -8 0 10 #fcfcfc #000000 #000000 6000 1;
#X obj 1000 94 random 2e+06;
#X obj 1000 115 - 1e+06;
#X obj 1000 136 / 1e+06;
#X obj 1000 275 *;
#X obj 1000 296 +;
#X obj 1030 277 hsl 80 15 0 3 0 1 empty empty empty -2 -8 0 10 #fcfcfc #000000 #000000 2400 1;
#X obj 1031 295 hsl 80 15 -3 3 0 1 empty empty empty -2 -8 0 10 #fcfcfc #000000 #000000 6000 1;
#X obj 1125 94 random 2e+06;
#X obj 1125 115 - 1e+06;
#X obj 1125 136 / 1e+06;
#X obj 1125 275 *;
#X obj 1125 296 +;
#X obj 1155 277 hsl 80 15 0 3 0 1 empty empty empty -2 -8 0 10 #fcfcfc #000000 #000000 2400 1;
#X obj 1156 295 hsl 80 15 -3.5 3.5 0 1 empty empty empty -2 -8 0 10 #fcfcfc #000000 #000000 4100 1;
#X obj 876 184 line;
#X obj 1000 184 line;
#X obj 1125 184 line;
#X obj 876 49 metro 200;
#X floatatom 1040 54 5 0 0 0 - - - 0;
#X msg 1043 30 1500;
#X obj 876 205 * 0.1;
#X obj 876 226 +;
#X obj 876 247 clip -10 10;
#X obj 906 227 * 0.9;
#X obj 999 203 * 0.1;
#X obj 999 224 +;
#X obj 999 245 clip -10 10;
#X obj 1029 225 * 0.9;
#X obj 1125 204 * 0.1;
#X obj 1125 225 +;
#X obj 1125 246 clip -10 10;
#X obj 1155 226 * 0.9;
#X msg 1007 34 500;
#X obj 845 31 bng 18 250 50 0 empty empty empty 0 -9 0 10 #fcfcfc #000000 #000000;
#X msg 1079 31 0;
#X msg 943 15 50;
#X msg 914 16 200;
#X floatatom 942 49 5 0 0 0 - - - 0;
#X msg 969 22 500;
#X obj 877 452 s headsets-data;
#X obj 877 352 t a a, f 15;
#X obj 877 377 list append 0;
#X obj 877 401 list append, f 15;
#X obj 988 412 tgl 18 0 empty empty empty 0 -9 0 10 #fcfcfc #000000 #000000 0 1;
#X obj 988 435 + 1;
#N canvas 735 420 450 300 head 0;
#X obj 66 23 inlet;
#X obj 66 46 unpack f f f, f 26;
#X obj 66 216 outlet;
#X obj 142 114 - 1.7;
#X obj 142 134 * 0.2;
#X obj 142 157 + 1.7;
#X obj 219 68 * 0.1;
#X obj 219 91 +;
#X obj 248 91 * 0.9;
#X obj 142 69 * 0.1;
#X obj 142 92 +;
#X obj 171 92 * 0.9;
#X obj 66 70 * 0.1;
#X obj 66 93 +;
#X obj 95 93 * 0.9;
#X obj 66 193 pack f f f, f 26;
#X connect 0 0 1 0;
#X connect 1 0 12 0;
#X connect 1 1 9 0;
#X connect 1 2 6 0;
#X connect 3 0 4 0;
#X connect 4 0 5 0;
#X connect 5 0 15 1;
#X connect 6 0 7 0;
#X connect 7 0 8 0;
#X connect 7 0 15 2;
#X connect 8 0 7 1;
#X connect 9 0 10 0;
#X connect 10 0 11 0;
#X connect 10 0 3 0;
#X connect 11 0 10 1;
#X connect 12 0 13 0;
#X connect 13 0 14 0;
#X connect 13 0 15 0;
#X connect 14 0 13 1;
#X connect 15 0 2 0;
#X restore 964 377 pd head;
#X obj 877 425 list prepend 2;
#X obj 979 344 tgl 30 0 empty empty draw 4 7 0 10 #00ff04 #000000 #000000 0 1;
#X obj 539 366 tgl 15 0 empty empty empty 17 7 0 10 #fcfcfc #000000 #000000 0 1;
#X obj 539 407 random 10;
#X obj 539 430 sel 0;
#X obj 539 384 metro 50;
#X obj 539 453 random 100;
#X obj 539 476 > 50;
#X obj 539 499 change;
#X obj 498 411 sel 0;
#X msg 498 434 0;
#X obj 629 410 random 10;
#X obj 629 433 sel 0;
#X obj 629 456 random 100;
#X obj 629 479 > 50;
#X obj 629 502 change;
#X msg 705 23 200;
#X obj 457 152 pack f 200;
#X obj 581 149 pack f 200;
#X obj 706 151 pack f 200;
#X obj 876 160 pack f 200;
#X obj 1000 157 pack f 200;
#X obj 1125 157 pack f 200;
#X obj 770 11 tgl 30 0 empty empty empty 0 -9 0 10 #faff00 #000000 #000000 0 1;
#X msg 814 90 200;
#X floatatom 639 353 5 0 0 0 - - - 0;
#X connect 0 0 19 0;
#X connect 2 0 1 0;
#X connect 3 0 4 0;
#X connect 3 1 93 0;
#X connect 4 0 5 0;
#X connect 5 0 2 0;
#X connect 6 0 4 1;
#X connect 7 0 9 0;
#X connect 7 1 10 0;
#X connect 8 0 7 0;
#X connect 9 0 37 0;
#X connect 10 0 38 0;
#X connect 11 0 35 0;
#X connect 12 0 8 0;
#X connect 14 0 13 0;
#X connect 16 0 37 1;
#X connect 16 0 38 1;
#X connect 17 0 11 1;
#X connect 18 0 35 2;
#X connect 19 0 22 0;
#X connect 20 0 19 1;
#X connect 20 0 12 0;
#X connect 21 0 0 0;
#X connect 22 0 20 0;
#X connect 23 0 36 1;
#X connect 24 0 26 0;
#X connect 25 0 26 0;
#X connect 26 0 22 1;
#X connect 28 0 3 0;
#X connect 30 0 3 0;
#X connect 31 0 32 0;
#X connect 32 0 28 0;
#X connect 32 1 33 0;
#X connect 32 2 30 0;
#X connect 33 0 3 0;
#X connect 34 0 31 1;
#X connect 35 0 31 0;
#X connect 36 0 35 1;
#X connect 37 0 11 0;
#X connect 38 0 36 0;
#X connect 39 0 40 0;
#X connect 40 0 41 0;
#X connect 41 0 167 0;
#X connect 42 0 39 0;
#X connect 42 1 49 0;
#X connect 42 2 56 0;
#X connect 43 0 44 0;
#X connect 44 0 45 0;
#X connect 45 0 3 0;
#X connect 46 0 66 0;
#X connect 47 0 43 1;
#X connect 48 0 44 1;
#X connect 49 0 50 0;
#X connect 50 0 51 0;
#X connect 51 0 168 0;
#X connect 52 0 53 0;
#X connect 53 0 45 1;
#X connect 54 0 52 1;
#X connect 55 0 53 1;
#X connect 55 0 175 0;
#X connect 56 0 57 0;
#X connect 57 0 58 0;
#X connect 58 0 169 0;
#X connect 59 0 60 0;
#X connect 60 0 45 2;
#X connect 61 0 59 1;
#X connect 62 0 60 1;
#X connect 63 0 69 0;
#X connect 64 0 73 0;
#X connect 65 0 77 0;
#X connect 66 0 42 0;
#X connect 67 0 167 1;
#X connect 67 0 168 1;
#X connect 67 0 169 1;
#X connect 68 0 67 0;
#X connect 69 0 70 0;
#X connect 70 0 71 0;
#X connect 71 0 72 0;
#X connect 71 0 43 0;
#X connect 72 0 70 1;
#X connect 73 0 74 0;
#X connect 74 0 75 0;
#X connect 75 0 76 0;
#X connect 75 0 52 0;
#X connect 76 0 74 1;
#X connect 77 0 78 0;
#X connect 78 0 79 0;
#X connect 79 0 80 0;
#X connect 79 0 59 0;
#X connect 80 0 78 1;
#X connect 81 0 67 0;
#X connect 82 0 19 0;
#X connect 83 0 42 0;
#X connect 85 0 67 0;
#X connect 86 0 88 0;
#X connect 87 0 88 0;
#X connect 88 0 66 1;
#X connect 89 0 88 0;
#X connect 91 0 92 0;
#X connect 92 0 2 1;
#X connect 93 0 5 1;
#X connect 94 0 95 0;
#X connect 95 0 96 0;
#X connect 96 0 170 0;
#X connect 97 0 94 0;
#X connect 97 1 104 0;
#X connect 97 2 111 0;
#X connect 98 0 99 0;
#X connect 99 0 100 0;
#X connect 100 0 144 0;
#X connect 101 0 121 0;
#X connect 102 0 98 1;
#X connect 103 0 99 1;
#X connect 104 0 105 0;
#X connect 105 0 106 0;
#X connect 106 0 171 0;
#X connect 107 0 108 0;
#X connect 108 0 100 1;
#X connect 109 0 107 1;
#X connect 110 0 108 1;
#X connect 111 0 112 0;
#X connect 112 0 113 0;
#X connect 113 0 172 0;
#X connect 114 0 115 0;
#X connect 115 0 100 2;
#X connect 116 0 114 1;
#X connect 117 0 115 1;
#X connect 118 0 124 0;
#X connect 119 0 128 0;
#X connect 120 0 132 0;
#X connect 121 0 97 0;
#X connect 122 0 170 1;
#X connect 122 0 171 1;
#X connect 122 0 172 1;
#X connect 123 0 122 0;
#X connect 124 0 125 0;
#X connect 125 0 126 0;
#X connect 126 0 127 0;
#X connect 126 0 98 0;
#X connect 127 0 125 1;
#X connect 128 0 129 0;
#X connect 129 0 130 0;
#X connect 130 0 131 0;
#X connect 130 0 107 0;
#X connect 131 0 129 1;
#X connect 132 0 133 0;
#X connect 133 0 134 0;
#X connect 134 0 135 0;
#X connect 134 0 114 0;
#X connect 135 0 133 1;
#X connect 136 0 122 0;
#X connect 137 0 97 0;
#X connect 138 0 122 0;
#X connect 139 0 141 0;
#X connect 140 0 141 0;
#X connect 141 0 121 1;
#X connect 142 0 141 0;
#X connect 144 0 145 0;
#X connect 144 1 149 0;
#X connect 145 0 146 0;
#X connect 146 0 150 0;
#X connect 147 0 148 0;
#X connect 148 0 150 1;
#X connect 149 0 146 1;
#X connect 150 0 143 0;
#X connect 151 0 145 1;
#X connect 152 0 155 0;
#X connect 152 0 159 0;
#X connect 153 0 154 0;
#X connect 154 0 156 0;
#X connect 155 0 153 0;
#X connect 155 0 161 0;
#X connect 156 0 157 0;
#X connect 157 0 158 0;
#X connect 158 0 6 0;
#X connect 159 0 160 0;
#X connect 160 0 158 0;
#X connect 160 0 165 0;
#X connect 161 0 162 0;
#X connect 162 0 163 0;
#X connect 163 0 164 0;
#X connect 164 0 165 0;
#X connect 165 0 151 0;
#X connect 166 0 67 0;
#X connect 167 0 63 0;
#X connect 168 0 64 0;
#X connect 169 0 65 0;
#X connect 170 0 118 0;
#X connect 171 0 119 0;
#X connect 172 0 120 0;
#X connect 173 0 101 0;
#X connect 173 0 46 0;
#X connect 173 0 152 0;
#X connect 174 0 67 0;
#X connect 174 0 122 0;
