#N canvas 1 81 457 434 10;
#X obj 50 55 metro 20;
#X obj 50 76 t b b b, f 26;
#X obj 203 118 / 1000;
#X obj 203 169 * 0.05;
#X obj 203 190 +;
#X obj 231 190 * 0.95;
#X obj 203 210 * 0.05;
#X obj 203 231 +;
#X obj 231 231 * 0.95;
#X obj 126 122 / 1000;
#X obj 126 173 * 0.05;
#X obj 126 194 +;
#X obj 154 194 * 0.95;
#X obj 126 214 * 0.05;
#X obj 126 235 +;
#X obj 154 235 * 0.95;
#X obj 51 124 / 1000;
#X obj 51 175 * 0.05;
#X obj 51 196 +;
#X obj 79 196 * 0.95;
#X obj 51 216 * 0.05;
#X obj 51 237 +;
#X obj 79 237 * 0.95;
#X obj 51 328 pack f f f, f 26;
#X obj 50 29 tgl 15 0 empty empty empty 17 7 0 10 -262144 -1 -1 0 1
;
#X obj 51 370 s headsets-data;
#X obj 203 279 +;
#X obj 231 279 * 0.95;
#X obj 203 256 * 0.05;
#X obj 126 283 +;
#X obj 154 283 * 0.95;
#X obj 126 260 * 0.05;
#X obj 51 282 +;
#X obj 79 282 * 0.95;
#X obj 51 259 * 0.05;
#X msg 51 349 1 \$1 \$2 \$3 1 0 0 0;
#X obj 51 103 random 10000;
#X obj 51 149 - 5;
#X obj 203 97 random 6000;
#X obj 203 143 - 3;
#X obj 126 148 - 0;
#X obj 126 101 random 4000;
#X connect 0 0 1 0;
#X connect 1 0 36 0;
#X connect 1 1 41 0;
#X connect 1 2 38 0;
#X connect 2 0 39 0;
#X connect 3 0 4 0;
#X connect 4 0 5 0;
#X connect 4 0 6 0;
#X connect 5 0 4 1;
#X connect 6 0 7 0;
#X connect 7 0 8 0;
#X connect 7 0 28 0;
#X connect 8 0 7 1;
#X connect 9 0 40 0;
#X connect 10 0 11 0;
#X connect 11 0 12 0;
#X connect 11 0 13 0;
#X connect 12 0 11 1;
#X connect 13 0 14 0;
#X connect 14 0 15 0;
#X connect 14 0 31 0;
#X connect 15 0 14 1;
#X connect 16 0 37 0;
#X connect 17 0 18 0;
#X connect 18 0 19 0;
#X connect 18 0 20 0;
#X connect 19 0 18 1;
#X connect 20 0 21 0;
#X connect 21 0 22 0;
#X connect 21 0 34 0;
#X connect 22 0 21 1;
#X connect 23 0 35 0;
#X connect 24 0 0 0;
#X connect 26 0 27 0;
#X connect 26 0 23 2;
#X connect 27 0 26 1;
#X connect 28 0 26 0;
#X connect 29 0 30 0;
#X connect 29 0 23 1;
#X connect 30 0 29 1;
#X connect 31 0 29 0;
#X connect 32 0 33 0;
#X connect 32 0 23 0;
#X connect 33 0 32 1;
#X connect 34 0 32 0;
#X connect 35 0 25 0;
#X connect 36 0 16 0;
#X connect 37 0 17 0;
#X connect 38 0 2 0;
#X connect 39 0 3 0;
#X connect 40 0 10 0;
#X connect 41 0 9 0;
