#N canvas 14 407 408 468 10;
#X obj 78 22 metro 20;
#X obj 178 437 s headsets-data;
#X obj 178 410 list prepend 1;
#X obj 178 337 t a a, f 15;
#X obj 178 362 list append 0;
#X obj 178 386 list append, f 15;
#X obj 306 354 tgl 15 0 empty empty empty 17 7 0 10 -262144 -1 -1 0
1;
#X obj 177 139 t f f, f 9;
#X obj 177 116 * 6.2832;
#X obj 177 163 cos;
#X obj 237 163 sin;
#X obj 177 211 + 0;
#X obj 237 211 + 0;
#X obj 180 88 hsl 128 15 0 1 0 0 empty empty empty -2 -8 0 10 -262144
-1 -1 4826 1;
#X obj 335 449 print;
#X obj 177 187 * 2;
#X obj 237 187 * 2;
#X msg 352 244 \$1 0 4;
#X floatatom 352 219 5 0 0 0 - - -;
#X msg 50 235 \$1 0.2 \$2;
#X floatatom 105 143 5 0 0 0 - - -;
#X floatatom 114 200 5 0 0 0 - - -;
#X obj 177 235 pack f f f;
#X floatatom 287 196 5 0 0 0 - - -;
#X obj 78 46 f;
#X obj 78 94 wrap;
#X obj 34 22 tgl 15 0 empty empty empty 17 7 0 10 -262144 -1 -1 1 1
;
#X obj 78 70 + 0.02;
#X floatatom 293 163 5 0 0 0 - - -;
#X msg 156 21 0.005;
#X msg 201 20 0.02;
#X floatatom 156 45 5 0 0 0 - - -;
#X msg 65 266 \$3 \$2 \$1;
#X msg 124 311 \$1 \$2 \$3;
#X msg 65 325 \$2 \$3 \$1;
#X msg 258 309 \$2 \$3 \$1;
#X obj 177 262 list prepend 0;
#X obj 177 284 route 0 1 2;
#X msg 193 311 \$3 \$1 \$2;
#X obj 276 270 hradio 15 1 0 3 empty empty empty 0 -8 0 10 -262144
-1 -1 1;
#X connect 0 0 24 0;
#X connect 2 0 1 0;
#X connect 3 0 4 0;
#X connect 3 1 5 1;
#X connect 4 0 5 0;
#X connect 5 0 2 0;
#X connect 6 0 4 1;
#X connect 7 0 9 0;
#X connect 7 1 10 0;
#X connect 8 0 7 0;
#X connect 9 0 15 0;
#X connect 10 0 16 0;
#X connect 11 0 22 0;
#X connect 12 0 22 1;
#X connect 13 0 8 0;
#X connect 15 0 11 0;
#X connect 16 0 12 0;
#X connect 18 0 17 0;
#X connect 20 0 15 1;
#X connect 20 0 16 1;
#X connect 21 0 11 1;
#X connect 22 0 36 0;
#X connect 23 0 22 2;
#X connect 24 0 27 0;
#X connect 25 0 24 1;
#X connect 25 0 13 0;
#X connect 26 0 0 0;
#X connect 27 0 25 0;
#X connect 28 0 12 1;
#X connect 29 0 31 0;
#X connect 30 0 31 0;
#X connect 31 0 27 1;
#X connect 33 0 3 0;
#X connect 35 0 3 0;
#X connect 36 0 37 0;
#X connect 37 0 33 0;
#X connect 37 1 38 0;
#X connect 37 2 35 0;
#X connect 38 0 3 0;
#X connect 39 0 36 1;
