#N canvas 787 369 933 462 12;
#X obj 49 253 list trim;
#X obj 49 303 tgl 20 0 empty empty empty 0 -10 0 12 #fcfcfc #000000 #000000 0 1;
#X obj 49 278 netsend -u;
#X floatatom 320 30 5 0 0 0 - - - 0;
#X msg 235 257 disconnect;
#X msg 233 229 connect localhost 31234;
#X obj 233 200 loadbang;
#X obj 100 156 r draw_clear;
#X msg 100 181 draw_clear;
#X obj 49 100 r headsets-data;
#X obj 49 228 list prepend send;
#X obj 49 125 list prepend data;
#X msg 246 161 get_datalen;
#X msg 247 127 get_data \$1;
#X floatatom 242 76 5 0 0 0 - - - 0;
#X obj 324 87 list prepend to_clients;
#X msg 324 62 logdata \$1;
#X msg 370 27 0;
#X msg 404 27 1;
#X msg 436 58 hey;
#X msg 415 130 missing;
#X msg 423 168 update;
#X obj 438 278 metro 200;
#X obj 454 218 tgl 20 0 empty empty empty 0 -10 0 12 #fcfcfc #000000 #000000 0 1;
#X msg 500 243 50;
#X msg 263 426 get_segment \$2 \$1;
#X obj 263 330 hradio 15 1 0 16 empty empty empty 0 -10 0 12 #fcfcfc #000000 #000000 0;
#X floatatom 317 354 5 0 0 0 - - - 0;
#X obj 263 398 pack f 0;
#X obj 332 396 tgl 20 0 empty empty empty 0 -10 0 12 #fcfcfc #000000 #000000 0 1;
#X obj 569 212 ggee/shell;
#X obj 569 157 pdcontrol;
#X msg 569 134 dir;
#X msg 569 180 nohup \$1/runTeledraw.sh &;
#X obj 569 241 print fromTeledraw;
#X msg 657 106 pkill -f "node teledraw_server.js";
#X obj 569 103 del 200;
#X obj 569 79 t b b, f 13;
#X obj 569 52 bng 20 250 50 0 empty empty empty 0 -10 0 12 #fcfcfc #000000 #000000;
#X obj 569 24 loadbang;
#X msg 657 138 pkill -f "runTeledraw.sh";
#X connect 0 0 2 0;
#X connect 2 0 1 0;
#X connect 3 0 16 0;
#X connect 4 0 2 0;
#X connect 5 0 2 0;
#X connect 6 0 5 0;
#X connect 7 0 8 0;
#X connect 8 0 10 0;
#X connect 9 0 11 0;
#X connect 10 0 0 0;
#X connect 11 0 10 0;
#X connect 12 0 10 0;
#X connect 13 0 10 0;
#X connect 14 0 13 0;
#X connect 15 0 10 0;
#X connect 16 0 15 0;
#X connect 17 0 16 0;
#X connect 18 0 16 0;
#X connect 19 0 15 0;
#X connect 20 0 15 0;
#X connect 21 0 15 0;
#X connect 22 0 21 0;
#X connect 23 0 22 0;
#X connect 24 0 22 1;
#X connect 25 0 10 0;
#X connect 26 0 27 0;
#X connect 26 0 28 0;
#X connect 28 0 25 0;
#X connect 29 0 28 1;
#X connect 30 0 34 0;
#X connect 31 0 33 0;
#X connect 32 0 31 0;
#X connect 33 0 30 0;
#X connect 35 0 30 0;
#X connect 36 0 32 0;
#X connect 37 0 36 0;
#X connect 37 1 35 0;
#X connect 38 0 37 0;
#X connect 39 0 38 0;
#X connect 40 0 30 0;
