#N canvas 127 93 736 546 12;
#X declare -path zexy -lib zexy;
#X obj 17 12 cnv 15 320 40 empty empty La_Maison_Dieu 20 20 2 40 -233017
-66577 0;
#X obj 262 80 nbx 5 25 -1e+37 1e+37 0 0 empty axlBatt axlBatt 0 -8
0 14 -262144 -1 -1 0 256;
#X obj 262 110 bng 15 250 50 0 empty empty empty 17 7 0 10 -262144
-1 -1;
#X obj 384 31 audioTest1;
#X obj 384 8 rem RF/masterRF;
#X obj 19 126 Arduino/sensor 1;
#X obj 19 189 Arduino/sensor 2;
#X text 141 173 4 jan 18h30: 4.137 3.892;
#X text 142 190 5 jan 9h30: 4.08 3.84;
#X obj 18 253 Arduino/sensor 3;
#X obj 18 316 Arduino/sensor 4;
#X obj 18 380 Arduino/sensor 5;
#X obj 18 443 Arduino/sensor 6;
#X obj 19 61 Arduino/driver ardDev;
#X obj 206 356 modes/Note/main Note;
#X obj 274 237 s MODE;
#X msg 347 211 Note;
#N canvas 1 81 450 300 Master 0;
#X obj 120 40 catch~ outL;
#X obj 248 43 declare -path zexy -lib zexy;
#X obj 119 100 z~ 64;
#X obj 164 100 limiter~;
#X obj 119 124 *~, f 7;
#X obj 120 64 *~ 1;
#X obj 120 164 dac~;
#X connect 0 0 5 0;
#X connect 2 0 4 0;
#X connect 3 0 4 1;
#X connect 4 0 6 0;
#X connect 4 0 6 1;
#X connect 5 0 2 0;
#X connect 5 0 3 0;
#X restore 27 513 pd Master;
#X obj 205 272 modes/Vertical/main Vertical;
#X msg 273 211 Vertical;
#X msg 231 211 RIEN;
#X obj 206 432 modes/Percu/main Percu;
#X msg 390 210 Percu;
#N canvas 707 160 526 369 avant 0;
#X obj 114 124 noise~;
#X obj 114 148 lop~ 2;
#X obj 54 128 sig~ 1;
#X obj 54 152 /~;
#X obj 54 186 clip~ -1 1;
#X obj 54 281 dac~;
#X floatatom 195 130 5 0 0 0 - - -;
#X obj 54 257 *~ 0.02;
#X obj 263 52 hsl 128 15 0 1 0 0 empty empty empty -2 -8 0 10 -262144
-1 -1 0 1;
#X obj 260 72 * 3;
#X obj 260 96 clip 0 1;
#X obj 260 120 pow 2;
#X msg 260 144 \$1 10;
#X obj 54 210 *~;
#X obj 260 168 line~;
#X connect 0 0 1 0;
#X connect 1 0 3 1;
#X connect 2 0 3 0;
#X connect 3 0 4 0;
#X connect 4 0 13 0;
#X connect 6 0 1 1;
#X connect 7 0 5 0;
#X connect 8 0 9 0;
#X connect 9 0 6 0;
#X connect 9 0 10 0;
#X connect 10 0 11 0;
#X connect 11 0 12 0;
#X connect 12 0 14 0;
#X connect 13 0 7 0;
#X connect 14 0 13 1;
#X restore 454 333 pd avant;
#X obj 451 461 *~;
#X obj 451 485 throw~ outL;
#X obj 519 375 tgl 50 0 empty empty empty 17 7 0 10 -262144 -1 -1 0
1;
#X obj 603 405 timer;
#X floatatom 603 429 8 0 0 0 - - -;
#X obj 607 329 tgl 15 0 empty empty empty 17 7 0 10 -262144 -1 -1 0
1;
#X obj 604 372 sel 1 0;
#X obj 519 441 * 0.15;
#X obj 463 387 sel 1;
#X msg 463 411 0.25;
#X obj 451 437 osc~ 50;
#X connect 1 0 2 0;
#X connect 16 0 15 0;
#X connect 19 0 15 0;
#X connect 20 0 15 0;
#X connect 22 0 15 0;
#X connect 24 0 25 0;
#X connect 26 0 29 0;
#X connect 26 0 31 0;
#X connect 26 0 32 0;
#X connect 27 0 28 0;
#X connect 29 0 30 0;
#X connect 30 0 27 0;
#X connect 30 1 27 1;
#X connect 31 0 24 1;
#X connect 32 0 33 0;
#X connect 33 0 34 1;
#X connect 34 0 24 0;
