#N canvas 267 81 583 640 12;
#X declare -path zexy -lib zexy;
#X obj 17 12 cnv 15 320 40 empty empty La_Maison_Dieu 20 20 2 40 -233017
-66577 0;
#X obj 262 80 nbx 5 25 -1e+37 1e+37 0 0 empty axlBatt axlBatt 0 -8
0 14 -262144 -1 -1 0 256;
#X obj 262 110 bng 15 250 50 0 empty empty empty 17 7 0 10 -262144
-1 -1;
#X obj 384 31 audioTest1;
#X obj 384 8 rem RF/masterRF;
#X obj 19 126 Arduino/sensor 1;
#X obj 19 189 Arduino/sensor 2;
#X text 141 173 4 jan 18h30: 4.137 3.892;
#X text 142 190 5 jan 9h30: 4.08 3.84;
#X obj 18 253 Arduino/sensor 3;
#X obj 18 316 Arduino/sensor 4;
#X obj 18 380 Arduino/sensor 5;
#X obj 18 443 Arduino/sensor 6;
#X obj 19 61 Arduino/driver ardDev;
#X obj 155 418 modes/Note/main Note;
#X obj 274 237 s MODE;
#X msg 347 211 Note;
#N canvas 1 81 688 300 Master 0;
#X obj 65 70 catch~ outL;
#X obj 423 41 declare -path zexy -lib zexy;
#X obj 64 130 z~ 64;
#X obj 109 130 limiter~;
#X obj 64 154 *~, f 7;
#X obj 65 94 *~ 1;
#X obj 65 194 dac~ 1;
#X obj 178 128 z~ 64;
#X obj 223 128 limiter~;
#X obj 178 152 *~, f 7;
#X obj 179 92 *~ 1;
#X obj 179 68 catch~ outC;
#X obj 179 192 dac~ 2;
#X obj 292 126 z~ 64;
#X obj 337 126 limiter~;
#X obj 292 150 *~, f 7;
#X obj 293 90 *~ 1;
#X obj 293 66 catch~ outR;
#X obj 293 190 dac~ 3;
#X connect 0 0 5 0;
#X connect 2 0 4 0;
#X connect 3 0 4 1;
#X connect 4 0 6 0;
#X connect 5 0 2 0;
#X connect 5 0 3 0;
#X connect 7 0 9 0;
#X connect 8 0 9 1;
#X connect 9 0 12 0;
#X connect 10 0 7 0;
#X connect 10 0 8 0;
#X connect 11 0 10 0;
#X connect 13 0 15 0;
#X connect 14 0 15 1;
#X connect 15 0 18 0;
#X connect 16 0 13 0;
#X connect 16 0 14 0;
#X connect 17 0 16 0;
#X restore 27 513 pd Master;
#X obj 155 313 modes/Vertical/main Vertical;
#X msg 273 211 Vertical;
#X msg 231 211 RIEN;
#X obj 155 494 modes/Percu/main Percu;
#X msg 390 210 Percu;
#X obj 155 250 Low;
#X obj 155 558 modes/Percu2/main Percu2;
#N canvas 304 103 561 370 notes: 0;
#X restore 436 380 pd notes:;
#X connect 1 0 2 0;
#X connect 16 0 15 0;
#X connect 19 0 15 0;
#X connect 20 0 15 0;
#X connect 22 0 15 0;
