#N canvas 469 121 896 622 10;
#X obj 666 129 r axlData;
#X obj 666 175 unpack f f f;
#X obj 669 237 hsl 128 15 -2 2 0 0 empty empty empty -2 -8 0 10 -262144
-1 -1 0 1;
#X obj 703 218 hsl 128 15 -2 2 0 0 empty empty empty -2 -8 0 10 -262144
-1 -1 0 1;
#X obj 738 197 hsl 128 15 -2 2 0 0 empty empty empty -2 -8 0 10 -262144
-1 -1 0 1;
#X obj 666 152 spigot;
#X obj 721 153 tgl 15 0 empty empty empty 17 7 0 10 -257985 -1 -1 0
1;
#X obj 316 24 hsl 128 15 -2 2 0 0 empty empty empty -2 -8 0 10 -262144
-1 -1 0 1;
#X obj 346 48 hsl 128 15 -2 2 0 0 empty empty empty -2 -8 0 10 -262144
-1 -1 0 1;
#X obj 392 73 hsl 128 15 -2 2 0 0 empty empty empty -2 -8 0 10 -262144
-1 -1 0 1;
#X obj 343 68 t b f;
#X obj 389 93 t b f;
#X obj 313 127 pack f f f;
#X obj 313 149 s axlData;
#X obj 60 249 r axlData;
#X obj 60 279 s AXL-Voice1;
#X obj 61 304 clone 16 voice 1 16;
#X obj 350 241 loadbang;
#X msg 350 262 \; pd dsp 1;
#X obj 126 73 hsl 128 15 -0.5 0.5 0 0 empty empty X -15 8 0 14 -262144
-1 -1 8400 1;
#X obj 569 68 t b f;
#X obj 615 93 t b f;
#X obj 539 127 pack f f f;
#X obj 539 149 s axlData;
#X obj 126 93 hsl 128 15 -0.5 0.5 0 0 empty empty Y -15 8 0 14 -262144
-1 -1 6350 1;
#X obj 618 74 hsl 128 15 -0.5 0.5 0 0 empty empty empty -2 -8 0 10
-262144 -1 -1 0 1;
#X obj 86 380 delwrite~ \$0-pdl 1000;
#X obj 85 428 *~ 1;
#X obj 85 407 delread~ \$0-pdl 150;
#X obj 85 474 rev3~ 100 92 4000 90;
#X obj 85 449 bp~ 800 3;
#X obj 108 179 hsl 150 30 0 1 0 0 empty empty VOLUME 5 15 0 16 -258113
-1 -257985 3260 1;
#X obj 62 527 *~, f 31;
#X obj 246 501 line~;
#X msg 246 480 \$1 20;
#X obj 246 441 pow 2;
#X obj 105 7 loadbang;
#X msg 105 28 0.4;
#X msg 166 23 set 0;
#X obj 557 258 r axlData;
#X obj 536 303 list;
#X obj 557 279 t a b;
#X obj 536 326 spigot, f 8;
#X msg 584 300 1;
#X obj 536 347 t a b;
#X msg 596 325 0;
#X obj 536 237 metro 100;
#X obj 536 213 tgl 15 0 empty empty empty 17 7 0 10 -262144 -1 -1 1
1;
#X obj 536 191 loadbang;
#X obj 536 368 unpack f f;
#X msg 536 390 set \$1;
#X msg 593 390 set \$1;
#X obj 126 119 hsl 128 15 0 1 0 0 X-scale-snd X-scale-rcv X-scale 10
8 0 14 -262144 -1 -1 3175 1;
#X obj 126 137 hsl 128 15 -1 1 0 0 X-transpo-snd X-transpo-rcv X-transpo
10 8 0 14 -262144 -1 -1 6350 1;
#X msg 273 21 0;
#X obj 372 505 s AXL-Voice1-params;
#X obj 372 458 r X-scale-snd;
#X msg 372 479 X-scale \$1;
#X obj 463 457 r X-transpo-snd;
#X msg 463 478 X-transpo \$1;
#X obj 127 160 tgl 15 0 free-freq-snd free-freq-rcv Frequence-libre
17 7 0 14 -262144 -1 -1 1 1;
#X obj 569 458 r free-freq-snd;
#X msg 569 479 free-freq \$1;
#X obj 241 53 tgl 15 0 empty empty empty 17 7 0 10 -258113 -1 -1 1
1;
#X obj 764 54 switch~;
#X obj 712 290 r euler1;
#X obj 712 337 unpack f f f;
#X floatatom 810 369 5 0 0 0 - - -;
#X floatatom 835 327 5 0 0 0 - - -;
#X obj 712 313 spigot;
#X obj 772 291 tgl 15 0 empty empty empty 17 7 0 10 -262144 -1 -1 1
1;
#X obj 746 431 fmod 360;
#X floatatom 828 552 5 0 0 0 - - -;
#X obj 747 410 - 0;
#X obj 746 452 - 180;
#X floatatom 830 499 5 0 0 0 - - -;
#X obj 745 497 pack f f;
#X obj 745 550 s axlData;
#X obj 745 476 / 90;
#X obj 821 445 / 90;
#X msg 745 518 \$2 \$1;
#X obj 246 460 * 0.2;
#X obj 61 325 hip~ 10;
#X obj 61 346 lop~ 1000;
#X floatatom 228 253 5 0 0 0 - - -;
#X floatatom 168 249 5 0 0 0 - - -;
#X msg 47 121 1;
#X msg 549 544 adjust \$1;
#X msg 545 521 0;
#X msg 576 522 0;
#X msg 608 523 0;
#X msg 219 24 0.25;
#X obj 61 592 throw~ outL;
#X obj 175 590 throw~ outC;
#X obj 289 588 throw~ outR;
#X connect 0 0 5 0;
#X connect 1 0 2 0;
#X connect 1 1 3 0;
#X connect 1 2 4 0;
#X connect 5 0 1 0;
#X connect 6 0 5 1;
#X connect 7 0 12 0;
#X connect 8 0 10 0;
#X connect 9 0 11 0;
#X connect 10 0 12 0;
#X connect 10 1 12 1;
#X connect 11 0 12 0;
#X connect 11 1 12 2;
#X connect 12 0 13 0;
#X connect 14 0 15 0;
#X connect 16 0 82 0;
#X connect 17 0 18 0;
#X connect 19 0 22 0;
#X connect 20 0 22 0;
#X connect 20 1 22 1;
#X connect 21 0 22 0;
#X connect 21 1 22 2;
#X connect 22 0 23 0;
#X connect 24 0 20 0;
#X connect 25 0 21 0;
#X connect 27 0 30 0;
#X connect 28 0 27 0;
#X connect 29 0 32 0;
#X connect 30 0 29 0;
#X connect 31 0 35 0;
#X connect 32 0 92 0;
#X connect 32 0 93 0;
#X connect 32 0 94 0;
#X connect 33 0 32 1;
#X connect 34 0 33 0;
#X connect 35 0 81 0;
#X connect 36 0 37 0;
#X connect 36 0 38 0;
#X connect 36 0 91 0;
#X connect 36 0 54 0;
#X connect 36 0 86 0;
#X connect 37 0 31 0;
#X connect 38 0 19 0;
#X connect 38 0 24 0;
#X connect 39 0 41 0;
#X connect 40 0 42 0;
#X connect 41 0 40 1;
#X connect 41 1 43 0;
#X connect 42 0 44 0;
#X connect 43 0 42 1;
#X connect 44 0 49 0;
#X connect 44 1 45 0;
#X connect 45 0 42 1;
#X connect 46 0 40 0;
#X connect 47 0 46 0;
#X connect 48 0 47 0;
#X connect 49 0 50 0;
#X connect 49 1 51 0;
#X connect 50 0 19 0;
#X connect 51 0 24 0;
#X connect 52 0 84 0;
#X connect 53 0 85 0;
#X connect 54 0 53 0;
#X connect 56 0 57 0;
#X connect 57 0 55 0;
#X connect 58 0 59 0;
#X connect 59 0 55 0;
#X connect 61 0 62 0;
#X connect 62 0 55 0;
#X connect 63 0 64 0;
#X connect 63 0 70 0;
#X connect 65 0 69 0;
#X connect 66 1 73 0;
#X connect 66 2 79 0;
#X connect 69 0 66 0;
#X connect 70 0 69 1;
#X connect 71 0 74 0;
#X connect 73 0 71 0;
#X connect 74 0 78 0;
#X connect 76 0 80 0;
#X connect 78 0 76 0;
#X connect 79 0 76 1;
#X connect 80 0 77 0;
#X connect 81 0 34 0;
#X connect 82 0 83 0;
#X connect 83 0 26 0;
#X connect 83 0 32 0;
#X connect 86 0 60 0;
#X connect 87 0 55 0;
#X connect 88 0 87 0;
#X connect 91 0 52 0;
#X coords 0 -1 1 1 165 165 1 100 50;
