#N canvas 296 413 896 622 10;
#X obj 666 129 r axlData;
#X obj 666 175 unpack f f f;
#X obj 669 237 hsl 128 15 -2 2 0 0 empty empty empty -2 -8 0 10 -262144
-1 -1 0 1;
#X obj 703 218 hsl 128 15 -2 2 0 0 empty empty empty -2 -8 0 10 -262144
-1 -1 0 1;
#X obj 738 197 hsl 128 15 -2 2 0 0 empty empty empty -2 -8 0 10 -262144
-1 -1 0 1;
#X obj 666 152 spigot;
#X obj 721 153 tgl 15 0 empty empty empty 17 7 0 10 -257985 -1 -1 0
1;
#X obj 316 24 hsl 128 15 -2 2 0 0 empty empty empty -2 -8 0 10 -262144
-1 -1 6300 1;
#X obj 346 48 hsl 128 15 -2 2 0 0 empty empty empty -2 -8 0 10 -262144
-1 -1 3800 1;
#X obj 392 73 hsl 128 15 -2 2 0 0 empty empty empty -2 -8 0 10 -262144
-1 -1 0 1;
#X obj 343 68 t b f;
#X obj 389 93 t b f;
#X obj 313 127 pack f f f;
#X obj 313 149 s axlData;
#X obj 60 249 r axlData;
#X obj 60 279 s AXL-Voice1;
#X obj 61 304 clone 16 voice 1 16;
#X obj 61 325 hip~ 100;
#X obj 61 560 dac~;
#X obj 350 241 loadbang;
#X msg 350 262 \; pd dsp 1;
#X obj 126 73 hsl 128 15 -0.5 0.5 0 0 empty empty X -15 8 0 14 -262144
-1 -1 4175 1;
#X obj 569 68 t b f;
#X obj 615 93 t b f;
#X obj 539 127 pack f f f;
#X obj 539 149 s axlData;
#X obj 126 93 hsl 128 15 -0.5 0.5 0 0 empty empty Y -15 8 0 14 -262144
-1 -1 6000 1;
#X obj 618 74 hsl 128 15 -0.5 0.5 0 0 empty empty empty -2 -8 0 10
-262144 -1 -1 0 1;
#X obj 61 346 lop~ 5000;
#X obj 86 380 delwrite~ \$0-pdl 1000;
#X obj 85 428 *~ 1;
#X obj 85 407 delread~ \$0-pdl 150;
#X obj 85 474 rev3~ 100 92 4000 90;
#X obj 85 449 bp~ 800 3;
#X obj 110 187 hsl 150 30 0 1 0 0 empty empty MASTER 5 15 0 16 -258113
-1 -257985 5960 1;
#X obj 62 527 *~, f 31;
#X obj 246 501 line~;
#X msg 246 480 \$1 20;
#X obj 246 441 pow 2;
#X obj 105 7 loadbang;
#X obj 246 460 * 0.3;
#X msg 105 28 0.4;
#X msg 166 23 set 0;
#X obj 557 258 r axlData;
#X obj 536 303 list;
#X obj 557 279 t a b;
#X obj 536 326 spigot, f 8;
#X msg 584 300 1;
#X obj 536 347 t a b;
#X msg 596 325 0;
#X obj 536 237 metro 100;
#X obj 536 213 tgl 15 0 empty empty empty 17 7 0 10 -262144 -1 -1 1
1;
#X obj 536 191 loadbang;
#X obj 536 368 unpack f f;
#X msg 536 390 set \$1;
#X msg 593 390 set \$1;
#X obj 126 119 hsl 128 15 0 1 0 0 X-scale-snd X-scale-rcv X-scale 10
8 0 14 -262144 -1 -1 12700 1;
#X obj 126 137 hsl 128 15 -1 1 0 0 X-transpo-snd X-transpo-rcv X-transpo
10 8 0 14 -262144 -1 -1 5650 1;
#X msg 219 24 1;
#X msg 250 23 0;
#X obj 372 505 s AXL-Voice1-params;
#X obj 372 458 r X-scale-snd;
#X msg 372 479 X-scale \$1;
#X obj 463 457 r X-transpo-snd;
#X msg 463 478 X-transpo \$1;
#X obj 127 160 tgl 15 0 free-freq-snd free-freq-rcv Frequence-libre
17 7 0 14 -262144 -1 -1 1 1;
#X obj 569 458 r free-freq-snd;
#X msg 569 479 free-freq \$1;
#X connect 0 0 5 0;
#X connect 1 0 2 0;
#X connect 1 1 3 0;
#X connect 1 2 4 0;
#X connect 5 0 1 0;
#X connect 6 0 5 1;
#X connect 7 0 12 0;
#X connect 8 0 10 0;
#X connect 9 0 11 0;
#X connect 10 0 12 0;
#X connect 10 1 12 1;
#X connect 11 0 12 0;
#X connect 11 1 12 2;
#X connect 12 0 13 0;
#X connect 14 0 15 0;
#X connect 16 0 17 0;
#X connect 17 0 28 0;
#X connect 19 0 20 0;
#X connect 21 0 24 0;
#X connect 22 0 24 0;
#X connect 22 1 24 1;
#X connect 23 0 24 0;
#X connect 23 1 24 2;
#X connect 24 0 25 0;
#X connect 26 0 22 0;
#X connect 27 0 23 0;
#X connect 28 0 29 0;
#X connect 28 0 35 0;
#X connect 30 0 33 0;
#X connect 31 0 30 0;
#X connect 32 0 35 0;
#X connect 33 0 32 0;
#X connect 34 0 38 0;
#X connect 35 0 18 0;
#X connect 35 0 18 1;
#X connect 36 0 35 1;
#X connect 37 0 36 0;
#X connect 38 0 40 0;
#X connect 39 0 41 0;
#X connect 39 0 42 0;
#X connect 39 0 58 0;
#X connect 39 0 59 0;
#X connect 40 0 37 0;
#X connect 41 0 34 0;
#X connect 42 0 21 0;
#X connect 42 0 26 0;
#X connect 43 0 45 0;
#X connect 44 0 46 0;
#X connect 45 0 44 1;
#X connect 45 1 47 0;
#X connect 46 0 48 0;
#X connect 47 0 46 1;
#X connect 48 0 53 0;
#X connect 48 1 49 0;
#X connect 49 0 46 1;
#X connect 50 0 44 0;
#X connect 51 0 50 0;
#X connect 52 0 51 0;
#X connect 53 0 54 0;
#X connect 53 1 55 0;
#X connect 54 0 21 0;
#X connect 55 0 26 0;
#X connect 58 0 56 0;
#X connect 59 0 57 0;
#X connect 61 0 62 0;
#X connect 62 0 60 0;
#X connect 63 0 64 0;
#X connect 64 0 60 0;
#X connect 66 0 67 0;
#X connect 67 0 60 0;
#X coords 0 -1 1 1 165 103 1 100 50;
