#N canvas 294 479 896 561 10;
#X obj 666 129 r axlData;
#X obj 666 175 unpack f f f;
#X obj 669 237 hsl 128 15 -2 2 0 0 empty empty empty -2 -8 0 10 -262144
-1 -1 0 1;
#X obj 703 218 hsl 128 15 -2 2 0 0 empty empty empty -2 -8 0 10 -262144
-1 -1 0 1;
#X obj 738 197 hsl 128 15 -2 2 0 0 empty empty empty -2 -8 0 10 -262144
-1 -1 0 1;
#X obj 666 152 spigot;
#X obj 721 153 tgl 15 0 empty empty empty 17 7 0 10 -257985 -1 -1 0
1;
#X obj 316 24 hsl 128 15 -2 2 0 0 empty empty empty -2 -8 0 10 -262144
-1 -1 0 1;
#X obj 346 48 hsl 128 15 -2 2 0 0 empty empty empty -2 -8 0 10 -262144
-1 -1 0 1;
#X obj 392 73 hsl 128 15 -2 2 0 0 empty empty empty -2 -8 0 10 -262144
-1 -1 0 1;
#X obj 343 68 t b f;
#X obj 389 93 t b f;
#X obj 313 127 pack f f f;
#X obj 313 149 s axlData;
#X obj 61 190 r axlData;
#X obj 61 220 s AXL-Voice1;
#X obj 62 245 clone 16 voice 1 16;
#X obj 62 266 hip~ 100;
#X obj 62 501 dac~;
#X obj 350 241 loadbang;
#X msg 350 262 \; pd dsp 1;
#X obj 126 73 hsl 128 15 -0.5 0.5 0 0 empty empty X -15 8 0 14 -262144
-1 -1 6350 1;
#X obj 569 68 t b f;
#X obj 615 93 t b f;
#X obj 539 127 pack f f f;
#X obj 539 149 s axlData;
#X obj 126 93 hsl 128 15 -0.5 0.5 0 0 empty empty Y -15 8 0 14 -262144
-1 -1 6350 1;
#X obj 618 74 hsl 128 15 -0.5 0.5 0 0 empty empty empty -2 -8 0 10
-262144 -1 -1 0 1;
#X obj 62 287 lop~ 5000;
#X obj 87 321 delwrite~ \$0-pdl 1000;
#X obj 86 369 *~ 1;
#X obj 86 348 delread~ \$0-pdl 150;
#X obj 86 415 rev3~ 100 92 4000 90;
#X obj 86 390 bp~ 800 3;
#X obj 109 119 hsl 150 30 0 1 0 0 empty empty MASTER 5 15 0 16 -258113
-1 -257985 5960 1;
#X obj 63 468 *~, f 31;
#X obj 247 442 line~;
#X msg 247 421 \$1 20;
#X obj 247 382 pow 2;
#X obj 105 7 loadbang;
#X obj 247 401 * 0.3;
#X msg 105 28 0.4;
#X msg 166 23 set 0;
#X connect 0 0 5 0;
#X connect 1 0 2 0;
#X connect 1 1 3 0;
#X connect 1 2 4 0;
#X connect 5 0 1 0;
#X connect 6 0 5 1;
#X connect 7 0 12 0;
#X connect 8 0 10 0;
#X connect 9 0 11 0;
#X connect 10 0 12 0;
#X connect 10 1 12 1;
#X connect 11 0 12 0;
#X connect 11 1 12 2;
#X connect 12 0 13 0;
#X connect 14 0 15 0;
#X connect 16 0 17 0;
#X connect 17 0 28 0;
#X connect 19 0 20 0;
#X connect 21 0 24 0;
#X connect 22 0 24 0;
#X connect 22 1 24 1;
#X connect 23 0 24 0;
#X connect 23 1 24 2;
#X connect 24 0 25 0;
#X connect 26 0 22 0;
#X connect 27 0 23 0;
#X connect 28 0 29 0;
#X connect 28 0 35 0;
#X connect 30 0 33 0;
#X connect 31 0 30 0;
#X connect 32 0 35 0;
#X connect 33 0 32 0;
#X connect 34 0 38 0;
#X connect 35 0 18 0;
#X connect 35 0 18 1;
#X connect 36 0 35 1;
#X connect 37 0 36 0;
#X connect 38 0 40 0;
#X connect 39 0 41 0;
#X connect 39 0 42 0;
#X connect 40 0 37 0;
#X connect 41 0 34 0;
#X connect 42 0 21 0;
#X connect 42 0 26 0;
#X coords 0 -1 1 1 165 103 1 100 50;
