#N canvas 1 81 859 567 12;
#X obj 504 127 noise~;
#X obj 504 151 lop~ 2;
#X obj 444 131 sig~ 1;
#X obj 444 155 /~;
#X obj 444 189 clip~ -1 1;
#X floatatom 585 133 5 0 0 0 - - -;
#X obj 653 55 hsl 128 15 0 1 0 0 empty empty empty -2 -8 0 10 -262144
-1 -1 1273 1;
#X obj 650 99 clip 0 1;
#X obj 650 123 pow 2;
#X msg 650 147 \$1 10;
#X obj 444 213 *~;
#X obj 650 171 line~;
#X obj 34 488 *~;
#X obj 112 543 throw~ outL;
#X obj 105 123 tgl 30 0 empty empty empty 17 7 0 10 -258113 -1 -1 0
1;
#X obj 187 353 timer;
#X floatatom 187 377 8 0 0 0 - - -;
#X obj 191 277 tgl 15 0 empty empty empty 17 7 0 10 -262144 -1 -1 0
1;
#X obj 188 320 sel 1 0;
#X obj 47 335 sel 1;
#X msg 47 359 0.25;
#X obj 103 474 line~;
#X obj 103 389 * 0.3;
#X obj 282 293 random 10000;
#X obj 282 317 <;
#X obj 287 115 hsl 128 15 0 1 0 0 empty empty empty -2 -8 0 10 -262144
-1 -1 9160 1;
#X obj 103 419 * 1;
#X obj 132 419 t b f;
#X obj 282 246 metro 10;
#X obj 35 385 osc~ 50;
#X floatatom 353 218 5 0 0 0 - - -;
#X obj 337 343 random 10000;
#X obj 337 367 / 10000;
#X obj 337 416 + 2;
#X obj 337 391 * 20;
#X floatatom 221 193 5 0 0 0 - - -;
#X obj 284 143 pow 0.1;
#X floatatom 240 142 5 0 0 0 - - -;
#X floatatom 246 223 7 0 0 0 - - -;
#X obj 284 181 * 10100;
#X obj 20 543 throw~ outR;
#X obj 241 39 line;
#X floatatom 144 135 5 0 0 0 - - -;
#X msg 241 15 0 \, 1 60000;
#X obj 284 68 * -0.6;
#X obj 284 91 + 1;
#X obj 650 30 pow 3;
#X obj 444 249 bp~ 3000 2;
#X obj 333 536 throw~ outC;
#X obj 330 16 hsl 128 15 0 1 0 0 empty empty empty -2 -8 0 10 -262144
-1 -1 5900 1;
#X obj 650 75 * 5;
#X obj 173 15 sel 1 0;
#X msg 195 39 stop;
#X obj 510 285 * 0.02;
#X obj 444 285 *~ 0.02;
#X msg 103 450 \$1 0.1;
#X connect 0 0 1 0;
#X connect 1 0 3 1;
#X connect 2 0 3 0;
#X connect 3 0 4 0;
#X connect 4 0 10 0;
#X connect 5 0 1 1;
#X connect 6 0 50 0;
#X connect 7 0 8 0;
#X connect 8 0 9 0;
#X connect 9 0 11 0;
#X connect 10 0 47 0;
#X connect 11 0 10 1;
#X connect 12 0 13 0;
#X connect 12 0 40 0;
#X connect 14 0 17 0;
#X connect 14 0 19 0;
#X connect 14 0 22 0;
#X connect 14 0 28 0;
#X connect 14 0 51 0;
#X connect 14 0 53 0;
#X connect 15 0 16 0;
#X connect 17 0 18 0;
#X connect 18 0 15 0;
#X connect 18 1 15 1;
#X connect 19 0 20 0;
#X connect 20 0 29 1;
#X connect 21 0 12 1;
#X connect 22 0 26 0;
#X connect 23 0 24 0;
#X connect 24 0 27 0;
#X connect 25 0 36 0;
#X connect 26 0 55 0;
#X connect 27 0 26 0;
#X connect 27 1 26 1;
#X connect 28 0 23 0;
#X connect 28 0 31 0;
#X connect 29 0 12 0;
#X connect 30 0 28 1;
#X connect 31 0 32 0;
#X connect 32 0 34 0;
#X connect 33 0 28 1;
#X connect 34 0 33 0;
#X connect 36 0 39 0;
#X connect 39 0 24 1;
#X connect 41 0 42 0;
#X connect 41 0 44 0;
#X connect 41 0 46 0;
#X connect 43 0 41 0;
#X connect 44 0 45 0;
#X connect 45 0 25 0;
#X connect 46 0 6 0;
#X connect 47 0 54 0;
#X connect 49 0 41 0;
#X connect 50 0 5 0;
#X connect 50 0 7 0;
#X connect 51 0 43 0;
#X connect 51 1 52 0;
#X connect 52 0 41 0;
#X connect 53 0 54 1;
#X connect 54 0 40 0;
#X connect 54 0 13 0;
#X connect 55 0 21 0;
#X coords 0 -1 1 1 85 60 1 100 100;
