#N canvas 475 83 859 660 12;
#X declare -lib iemlib -path iemlib;
#X obj 504 127 noise~;
#X obj 504 151 lop~ 2;
#X obj 444 131 sig~ 1;
#X obj 444 155 /~;
#X obj 444 189 clip~ -1 1;
#X floatatom 585 133 5 0 0 0 - - -;
#X obj 653 55 hsl 128 15 0 1 0 0 empty empty empty -2 -8 0 10 -262144
-1 -1 0 1;
#X obj 650 99 clip 0 1;
#X obj 650 123 pow 2;
#X msg 650 147 \$1 10;
#X obj 444 213 *~;
#X obj 650 171 line~;
#X obj 35 524 *~;
#X obj 115 601 throw~ outL;
#X obj 105 123 tgl 30 0 empty empty empty 17 7 0 10 -258113 -1 -1 0
1;
#X obj 187 353 timer;
#X floatatom 187 377 8 0 0 0 - - -;
#X obj 191 277 tgl 15 0 empty empty empty 17 7 0 10 -262144 -1 -1 0
1;
#X obj 188 320 sel 1 0;
#X obj 47 335 sel 1;
#X msg 47 359 0.25;
#X obj 103 448 line~;
#X obj 103 363 * 0.3;
#X obj 282 293 random 10000;
#X obj 282 317 <;
#X obj 287 115 hsl 128 15 0 1 0 0 empty empty empty -2 -8 0 10 -262144
-1 -1 12554 1;
#X obj 103 393 * 1;
#X obj 132 393 t b f;
#X obj 282 246 metro 10;
#X obj 35 385 osc~ 50;
#X floatatom 353 218 5 0 0 0 - - -;
#X obj 337 343 random 10000;
#X obj 337 367 / 10000;
#X obj 337 416 + 2;
#X obj 337 391 * 20;
#X floatatom 221 193 5 0 0 0 - - -;
#X obj 284 143 pow 0.1;
#X floatatom 240 142 5 0 0 0 - - -;
#X floatatom 246 223 7 0 0 0 - - -;
#X obj 284 181 * 10100;
#X obj 23 601 throw~ outR;
#X obj 241 39 line;
#X floatatom 144 135 5 0 0 0 - - -;
#X msg 241 15 0 \, 1 60000;
#X obj 284 91 + 1;
#X obj 650 30 pow 3;
#X obj 444 249 bp~ 3000 2;
#X obj 702 610 throw~ outC;
#X obj 330 16 hsl 128 15 0 1 0 0 empty empty empty -2 -8 0 10 -262144
-1 -1 3500 1;
#X obj 650 75 * 5;
#X obj 173 15 sel 1 0;
#X msg 195 39 stop;
#X obj 510 285 * 0.02;
#X msg 103 424 \$1 0.1;
#X obj 526 362 noise~;
#X obj 618 300 declare -lib iemlib -path iemlib;
#X obj 526 393 lp6_butt~ 150;
#X obj 525 525 z~ 64;
#X obj 525 549 *~, f 7;
#X obj 526 489 *~ 1;
#X obj 525 577 *~ 0.1;
#X obj 525 606 hp6_butt~ 3;
#X obj 658 359 noise~;
#X obj 658 390 lp6_butt~ 2;
#X obj 558 452 clip~ -1 1;
#X obj 571 528 limiter~ 0.1;
#X obj 525 427 *~ 1000;
#X obj 241 506 osc~ 9000;
#X obj 241 530 *~;
#X msg 322 516 \$1 10;
#X obj 322 540 line~;
#X obj 322 491 * 0.003;
#X obj 322 468 pow 2;
#X obj 198 104 i;
#X obj 198 80 * 60;
#X obj 198 128 / 1;
#X obj 444 285 *~ 0.01;
#X obj 36 417 *~ 1.5;
#X obj 211 460 nbx 5 14 -1e+37 1e+37 0 1 empty empty empty 0 -8 0 10
-262144 -1 -1 41.2034 256;
#X obj 284 68 * -0.8;
#X obj 34 561 *~ 0.5;
#X obj 396 598 mtof;
#X floatatom 396 622 5 0 0 0 - - -;
#X obj 427 523 bng 15 250 50 0 empty empty empty 17 7 0 10 -262144
-1 -1;
#X obj 396 459 change;
#X obj 396 483 sel 0;
#X obj 52 489 lp4_butt~ 40 300;
#X obj 396 574 + 20;
#X obj 396 550 random 12;
#X connect 0 0 1 0;
#X connect 1 0 3 1;
#X connect 2 0 3 0;
#X connect 3 0 4 0;
#X connect 4 0 10 0;
#X connect 5 0 1 1;
#X connect 6 0 49 0;
#X connect 7 0 8 0;
#X connect 8 0 9 0;
#X connect 9 0 11 0;
#X connect 10 0 46 0;
#X connect 11 0 10 1;
#X connect 12 0 80 0;
#X connect 14 0 17 0;
#X connect 14 0 19 0;
#X connect 14 0 22 0;
#X connect 14 0 28 0;
#X connect 14 0 50 0;
#X connect 14 0 52 0;
#X connect 15 0 16 0;
#X connect 17 0 18 0;
#X connect 18 0 15 0;
#X connect 18 1 15 1;
#X connect 19 0 20 0;
#X connect 20 0 29 1;
#X connect 22 0 26 0;
#X connect 23 0 24 0;
#X connect 24 0 27 0;
#X connect 24 0 84 0;
#X connect 25 0 36 0;
#X connect 26 0 53 0;
#X connect 26 0 86 0;
#X connect 27 0 26 0;
#X connect 27 1 26 1;
#X connect 28 0 23 0;
#X connect 28 0 31 0;
#X connect 29 0 77 0;
#X connect 30 0 28 1;
#X connect 31 0 32 0;
#X connect 32 0 34 0;
#X connect 33 0 28 1;
#X connect 34 0 33 0;
#X connect 36 0 39 0;
#X connect 39 0 24 1;
#X connect 41 0 45 0;
#X connect 41 0 72 0;
#X connect 41 0 74 0;
#X connect 41 0 79 0;
#X connect 43 0 41 0;
#X connect 44 0 25 0;
#X connect 45 0 6 0;
#X connect 46 0 76 0;
#X connect 48 0 41 0;
#X connect 49 0 5 0;
#X connect 49 0 7 0;
#X connect 50 0 43 0;
#X connect 50 1 51 0;
#X connect 51 0 41 0;
#X connect 52 0 76 1;
#X connect 53 0 21 0;
#X connect 54 0 56 0;
#X connect 56 0 66 0;
#X connect 57 0 58 0;
#X connect 58 0 60 0;
#X connect 59 0 57 0;
#X connect 59 0 65 0;
#X connect 62 0 63 0;
#X connect 63 0 66 0;
#X connect 65 0 58 1;
#X connect 66 0 59 0;
#X connect 67 0 68 0;
#X connect 68 0 12 0;
#X connect 69 0 70 0;
#X connect 70 0 68 1;
#X connect 71 0 69 0;
#X connect 72 0 71 0;
#X connect 73 0 75 0;
#X connect 74 0 73 0;
#X connect 75 0 42 0;
#X connect 76 0 80 0;
#X connect 77 0 12 0;
#X connect 78 0 86 1;
#X connect 79 0 44 0;
#X connect 80 0 40 0;
#X connect 80 0 13 0;
#X connect 81 0 82 0;
#X connect 81 0 78 0;
#X connect 83 0 88 0;
#X connect 84 0 85 0;
#X connect 85 0 88 0;
#X connect 86 0 12 1;
#X connect 87 0 81 0;
#X connect 88 0 87 0;
#X coords 0 -1 1 1 85 60 1 100 100;
