#N canvas 1068 259 492 645 10;
#X declare -path moonlib;
#X obj 13 545 outlet~;
#X obj 14 10 r AXL-Voice\$2;
#X obj 14 31 unpack f f f;
#X obj 154 59 abs;
#X obj 154 133 clip 0 1;
#X obj 14 338 mtof;
#X obj 14 175 +;
#X obj 65 133 loadbang;
#X obj 65 154 f \$1;
#X obj 65 175 / \$3;
#X obj 65 196 * 130;
#X obj 14 138 + 65;
#X obj 14 285 mod 130;
#X obj 13 516 *~, f 24;
#X obj 154 154 * \$3;
#X obj 154 175 - \$1;
#X obj 154 196 clip 0 1;
#X msg 154 249 \$1 50;
#X obj 154 270 line~;
#X obj 14 459 line~;
#X obj 154 222 pow 2;
#X obj 14 307 t f f, f 11;
#X obj 77 327 t f f;
#X obj 77 348 -;
#X obj 77 369 abs;
#X obj 77 390 < 120;
#X obj 14 437 pack f f, f 11;
#X obj 77 411 * 150;
#X obj 14 83 * 130;
#X obj 154 109 * 3;
#X obj 237 36 declare -path moonlib;
#X obj 14 482 ssaw~;
#X obj 154 84 - 0.1;
#X obj 257 72 r AXL-Voice\$2-params;
#X obj 257 114 * 130;
#X obj 322 115 * 65;
#X obj 322 136 + 65;
#X obj 29 115 t b f;
#X obj 29 63 t b f;
#X obj 14 230 list prepend 0;
#X obj 14 251 route 0 1;
#X obj 65 285 fmod 130;
#X obj 257 93 route X-scale X-transpo free-freq;
#X connect 1 0 2 0;
#X connect 2 0 28 0;
#X connect 2 1 3 0;
#X connect 3 0 32 0;
#X connect 4 0 14 0;
#X connect 5 0 26 0;
#X connect 6 0 39 0;
#X connect 7 0 8 0;
#X connect 8 0 9 0;
#X connect 9 0 10 0;
#X connect 10 0 6 1;
#X connect 11 0 6 0;
#X connect 12 0 21 0;
#X connect 13 0 0 0;
#X connect 14 0 15 0;
#X connect 15 0 16 0;
#X connect 16 0 20 0;
#X connect 17 0 18 0;
#X connect 18 0 13 1;
#X connect 19 0 31 0;
#X connect 20 0 17 0;
#X connect 21 0 5 0;
#X connect 21 1 22 0;
#X connect 22 0 23 1;
#X connect 22 1 23 0;
#X connect 23 0 24 0;
#X connect 24 0 25 0;
#X connect 25 0 27 0;
#X connect 26 0 19 0;
#X connect 27 0 26 1;
#X connect 28 0 11 0;
#X connect 29 0 4 0;
#X connect 31 0 13 0;
#X connect 32 0 29 0;
#X connect 33 0 42 0;
#X connect 34 0 38 0;
#X connect 35 0 36 0;
#X connect 36 0 37 0;
#X connect 37 0 11 0;
#X connect 37 1 11 1;
#X connect 38 0 28 0;
#X connect 38 1 28 1;
#X connect 39 0 40 0;
#X connect 40 0 12 0;
#X connect 40 1 41 0;
#X connect 41 0 21 0;
#X connect 42 0 34 0;
#X connect 42 1 35 0;
#X connect 42 2 39 1;
