#N canvas 0 50 1020 685 10;
#X obj 208 54 inlet;
#X obj 208 335 outlet;
#X obj 398 57 inlet;
#X obj 208 183 until;
#X obj 208 246 + 1;
#X obj 208 111 t b b;
#X obj 208 209 f 1;
#X obj 240 141 f \$1;
#X obj 359 181 sel \$2;
#X text 406 258 Realise une boucle for;
#X text 445 56 borne supérieure de la boucle for;
#X text 255 123 borne inférieure;
#X text 90 53 Bang déclenche la boucle;
#X connect 0 0 5 0;
#X connect 2 0 8 1;
#X connect 3 0 6 0;
#X connect 4 0 6 1;
#X connect 5 0 3 0;
#X connect 5 1 7 0;
#X connect 6 0 4 0;
#X connect 6 0 1 0;
#X connect 6 0 8 0;
#X connect 7 0 6 1;
#X connect 8 0 3 1;
