#N canvas 161 224 1023 685 10;
#N canvas 1 81 1024 685 SFO_config 0;
#N canvas 1 81 450 300 (subpatch) 0;
#X array config_hp 3 float 3;
#A 0 -985.714 0 45;
#X coords 0 300 3 299 200 140 0;
#X restore 57 510 graph;
#X obj 57 465 tabwrite config_hp;
#X obj 57 383 t f f, f 6;
#X floatatom 327 357 5 0 0 0 - - -;
#X obj 161 -9 loadbang;
#X msg 57 139 \; pd dsp \$1;
#X obj 57 108 tgl 15 0 empty empty dsp 17 7 0 10 -4034 -1 -1 1 1;
#X floatatom 56 63 5 0 0 1 Nbr_HP - -;
#X obj 638 229 s nbr_hp;
#X obj 58 84 bng 15 250 50 0 empty empty Configurer 17 7 0 10 -258113
-1 -1;
#X obj 327 296 send config_hp;
#X msg 327 270 resize \$1;
#N canvas 366 89 450 298 segment_regulier 0;
#X obj 61 40 inlet;
#X obj 121 39 inlet;
#X obj 61 108 -;
#X obj 61 170 *;
#X obj 61 224 outlet;
#X obj 176 39 inlet;
#X obj 79 85 / 2;
#X connect 0 0 2 0;
#X connect 1 0 3 1;
#X connect 2 0 3 0;
#X connect 3 0 4 0;
#X connect 5 0 6 0;
#X connect 6 0 2 1;
#X restore 57 425 pd segment_regulier;
#X obj 327 243 + 1;
#X obj 617 311 / 2;
#X obj 617 371 *;
#X obj 617 396 send amplitude;
#X obj 617 339 + 1;
#X obj 57 359 remplir 1 8;
#X obj 191 174 t b b;
#X text 365 354 inter enceintes en cm;
#X text 196 413 Ce sous-patch dispose les hp de maniere reguliere.
Il est possible d'écrire directement dans le tableau pour une config
quelconque;
#X obj 293 54 send dist_ref;
#X text 330 35 distance de réfèrence;
#X text 354 242 Les tableaux sont utilisés de 1 à n;
#X obj 278 111 send bol_delta_t;
#X obj 107 107 tgl 15 0 empty empty delta_t 17 7 0 10 -260097 -1 -1
1 1;
#X msg 107 29 1;
#X text 398 112 Avec ou sans DeltaT;
#X obj 40 220 send bang_config;
#X msg 327 334 45;
#X msg 293 29 400;
#X text 38 236 Envoie un bang à toutes les abstractions pour re-configurer.
;
#X text 639 248 Variable reçue par toutes les sources;
#X msg 56 29 9;
#X obj 161 12 t b b;
#X obj 327 212 f;
#X text 646 324 Règle le demi-côté du carré de placement de source
(cm);
#X text 99 505 Les tableaux sont masqués pour ne pas surcharger les
patch;
#X connect 2 0 12 0;
#X connect 2 1 1 1;
#X connect 3 0 12 1;
#X connect 3 0 15 1;
#X connect 4 0 35 0;
#X connect 6 0 5 0;
#X connect 7 0 36 1;
#X connect 9 0 19 0;
#X connect 11 0 10 0;
#X connect 12 0 1 0;
#X connect 13 0 11 0;
#X connect 14 0 17 0;
#X connect 15 0 16 0;
#X connect 17 0 15 0;
#X connect 18 0 2 0;
#X connect 19 0 18 0;
#X connect 19 0 29 0;
#X connect 19 1 36 0;
#X connect 26 0 25 0;
#X connect 27 0 26 0;
#X connect 30 0 3 0;
#X connect 31 0 22 0;
#X connect 34 0 7 0;
#X connect 35 0 9 0;
#X connect 35 1 31 0;
#X connect 35 1 27 0;
#X connect 35 1 34 0;
#X connect 35 1 30 0;
#X connect 36 0 12 2;
#X connect 36 0 13 0;
#X connect 36 0 14 0;
#X connect 36 0 8 0;
#X connect 36 0 18 1;
#X coords 0 -1 1 1 120 80 1 50 50;
#X restore 33 47 pd SFO_config;
#N canvas 1 81 1020 685 SFO_sorties 0;
#X obj 97 400 s volmaster;
#X obj 85 215 vsl 15 128 -90 0 0 0 empty empty empty 0 -9 0 10 -260097
-1 -1 9200 1;
#X obj 86 429 s mutemaster;
#X obj 86 352 tgl 15 0 empty empty MasterOn 17 7 0 10 -258113 -1 -1
1 1;
#X obj 284 39 receive nbr_hp;
#X obj 210 155 pack f f;
#X obj 210 102 t f f;
#X msg 398 184 clear;
#X obj 210 43 t b b;
#X msg 210 184 obj \$1 150 SFO_c_s \$2;
#X obj 210 129 * 100, f 6;
#X text 430 71 Cette séquence construit automatiquement le nombre
de bus de sorties correspondant au nombre de haut-parleur. Il est possible
d'insérer des traitements individuel sur chaque hp.;
#X obj 210 77 remplir 1 8;
#N canvas 1 81 1020 676 SFO_sorties_sous 0;
#X obj 100 150 SFO_c_s 1;
#X obj 200 150 SFO_c_s 2;
#X restore 210 259 pd SFO_sorties_sous;
#X obj 210 211 send pd-SFO_sorties_sous;
#X obj 210 11 receive bang_config;
#X connect 1 0 0 0;
#X connect 3 0 2 0;
#X connect 4 0 12 1;
#X connect 5 0 9 0;
#X connect 6 0 10 0;
#X connect 6 1 5 1;
#X connect 7 0 14 0;
#X connect 8 0 12 0;
#X connect 8 1 7 0;
#X connect 9 0 14 0;
#X connect 10 0 5 0;
#X connect 12 0 6 0;
#X connect 15 0 8 0;
#X coords 0 -1 1 1 100 190 1 80 180;
#X restore 34 136 pd SFO_sorties;
#X obj 161 42 SFO_source 3;
#N canvas 1 81 1020 685 SFO_osc 0;
#X obj 180 496 print;
#X obj 6 266 mrpeach/unpackOSC;
#X obj 615 350 sous_osc 7;
#X obj 6 141 mrpeach/udpreceive 4002;
#X obj 6 295 mrpeach/routeOSC /1/param1 /1/param2 /2/param1 /2/param2
/3/param1 /3/param2 /4/param1 /4/param2 /5/param1 /5/param2 /6/param1
/6/param2 /7/param1 /7/param2 /8/param1 /8/param2 /9/param1 /9/param2
/10/param1 /10/param2 /11/param1 /11/param2 /12/param1 /12/param2 /13/param1
/13/param2 /14/param1 /14/param2 /15/param1 /15/param2 /16/param1 /16/param2
/17/param1 /17/param2 /18/param1 /18/param2, f 264;
#X obj 187 171 tgl 15 0 empty empty osc 17 7 0 10 -257985 -1 -1 0 1
;
#X obj 6 234 spigot;
#X obj 6 357 sous_osc 1;
#X obj 91 355 sous_osc 2;
#X obj 200 356 sous_osc 3;
#X obj 305 358 sous_osc 4;
#X obj 409 353 sous_osc 5;
#X obj 516 350 sous_osc 6;
#X obj 718 348 sous_osc 8;
#X obj 825 348 sous_osc 9;
#X obj 922 349 sous_osc 10;
#X obj 1027 348 sous_osc 11;
#X obj 1126 347 sous_osc 12;
#X obj 1237 345 sous_osc 13;
#X obj 1335 347 sous_osc 14;
#X obj 1433 346 sous_osc 15;
#X obj 1533 347 sous_osc 16;
#X obj 1634 349 sous_osc 17;
#X obj 1744 350 sous_osc 18;
#X connect 1 0 4 0;
#X connect 3 0 6 0;
#X connect 4 0 7 0;
#X connect 4 1 7 1;
#X connect 4 2 8 0;
#X connect 4 3 8 1;
#X connect 4 4 9 0;
#X connect 4 5 9 1;
#X connect 4 6 10 0;
#X connect 4 7 10 1;
#X connect 4 8 11 0;
#X connect 4 9 11 1;
#X connect 4 10 12 0;
#X connect 4 11 12 1;
#X connect 4 12 2 0;
#X connect 4 13 2 1;
#X connect 4 14 13 0;
#X connect 4 15 13 1;
#X connect 4 16 14 0;
#X connect 4 17 14 1;
#X connect 4 18 15 0;
#X connect 4 19 15 1;
#X connect 4 20 16 0;
#X connect 4 21 16 1;
#X connect 4 22 17 0;
#X connect 4 23 17 1;
#X connect 4 24 18 0;
#X connect 4 25 18 1;
#X connect 4 26 19 0;
#X connect 4 27 19 1;
#X connect 4 28 20 0;
#X connect 4 29 20 1;
#X connect 4 30 21 0;
#X connect 4 31 21 1;
#X connect 4 32 22 0;
#X connect 4 33 22 1;
#X connect 4 34 23 0;
#X connect 4 35 23 1;
#X connect 5 0 6 1;
#X connect 6 0 1 0;
#X coords 0 -1 1 1 120 60 1 180 140;
#X restore 35 348 pd SFO_osc;
#N canvas 255 314 1024 685 license 0;
#X text 17 58 Copyright 2016 Baptiste Maffrand;
#X text 19 28 SFO;
#X text 18 91 Ce programme est sous license GPLv3;
#X restore 34 16 pd license;
#X obj 389 41 SFO_source 4;
#X obj 619 42 SFO_source 5;
#X obj 852 40 SFO_source 6;
#X obj 162 231 SFO_source 7;
#X obj 390 230 SFO_source 8;
#X obj 620 231 SFO_source 11;
#X obj 853 229 SFO_source 12;
#X obj 161 423 SFO_source 13;
#X obj 393 423 SFO_source 14;
#X obj 163 18 noise~;
#X connect 14 0 2 0;
