#N canvas 0 50 1916 997 10;
#X obj 109 24 inlet~;
#X obj 303 21 inlet;
#X obj 227 610 outlet~;
#X obj 344 245 vd~ \$0_ligne_retard;
#X obj 439 362 env~ 64;
#X obj 443 394 vsl 15 128 0 127 0 0 empty empty empty 0 -9 0 10 -262144
-1 -1 0 1;
#X obj 345 133 / 44.1;
#X obj 108 81 delwrite~ \$0_ligne_retard 500;
#X obj 345 210 line~;
#X floatatom 457 186 5 0 0 0 - - -, f 5;
#X msg 345 165 \$1 50;
#X connect 0 0 7 0;
#X connect 1 0 6 0;
#X connect 3 0 2 0;
#X connect 4 0 5 0;
#X connect 6 0 9 0;
#X connect 6 0 10 0;
#X connect 8 0 3 0;
#X connect 10 0 8 0;
