#N canvas 0 50 1024 685 10;
#X obj 61 279 line~;
#X obj 142 297 *~;
#X obj 229 374 +~;
#X obj 448 275 line~;
#X obj 330 291 *~;
#X obj 255 233 f;
#X obj 61 318 env~ 4;
#X obj 61 342 == 0;
#X obj 61 364 sel 1;
#X obj 214 74 t b b f f;
#X obj 61 405 t b b b;
#X msg 44 246 1 1;
#X msg 501 235 0 1;
#X msg 83 246 0 20;
#X msg 448 238 1 20;
#X obj 128 42 inlet~;
#X obj 214 11 inlet;
#X obj 229 498 outlet~;
#X text 315 212 delay de transition;
#X text 155 212 delay principal;
#X obj 160 256 cyclone/delay~;
#X obj 329 258 cyclone/delay~;
#X text 387 39 Au lieu de prendre un delay variable \, qui crée du
pitch \, on fait évoluer le delay sur des valeurs discrètes \, samplé
toutes les 5Os. On passe de delay en delay par cross-over.;
#X text 31 425 detection de fin de transition;
#N canvas 1016 717 1024 685 license 0;
#X text 17 58 Copyright 2016 Baptiste Maffrand;
#X text 19 28 SFO;
#X text 18 91 Ce programme est sous license GPLv3;
#X restore 4 9 pd license;
#X obj 214 41 mapping/resample 50;
#X connect 0 0 1 0;
#X connect 0 0 6 0;
#X connect 1 0 2 0;
#X connect 2 0 17 0;
#X connect 3 0 4 1;
#X connect 4 0 2 1;
#X connect 5 0 20 1;
#X connect 6 0 7 0;
#X connect 7 0 8 0;
#X connect 8 0 10 0;
#X connect 9 0 13 0;
#X connect 9 1 14 0;
#X connect 9 2 21 1;
#X connect 9 3 5 1;
#X connect 10 0 12 0;
#X connect 10 1 11 0;
#X connect 10 2 5 0;
#X connect 11 0 0 0;
#X connect 12 0 3 0;
#X connect 13 0 0 0;
#X connect 14 0 3 0;
#X connect 15 0 20 0;
#X connect 15 0 21 0;
#X connect 16 0 25 0;
#X connect 20 0 1 1;
#X connect 21 0 4 0;
#X connect 25 0 9 0;
