#N canvas 1 81 1024 685 10;
#X obj 99 534 *~;
#X obj 257 92 tabread \$1_delta_t;
#X obj 228 405 tabread \$1_delta_i;
#X obj 257 7 receive \$1_mouvement;
#X obj 228 354 receive \$1_mouvement;
#X obj 257 64 f \$2;
#X obj 228 383 f \$2;
#X obj 257 252 * 1;
#X msg 228 489 \$1 100;
#X obj 100 573 throw~ canal_\$2;
#X obj 228 518 line~;
#X obj 99 9 receive~ source_\$1;
#X obj 257 171 * 2.9154e-05;
#X obj 257 129 * 44100;
#X obj 369 406 receive \$1_gain_source;
#X obj 228 431 /;
#X text 257 459 pour eviter la saturation;
#X text 296 242 pour comparer avec ou sans DeltaT;
#X text 311 128 régler éventuellement la fréquence d'échantillonange
;
#X obj 275 225 receive bol_delta_t;
#X obj 228 460 / 3;
#N canvas 1016 717 1024 685 license 0;
#X text 17 58 Copyright 2016 Baptiste Maffrand;
#X text 19 28 SFO;
#X text 18 91 Ce programme est sous license GPLv3;
#X restore 4 9 pd license;
#X obj 100 304 SFO_retard_doppler, f 23;
#X connect 0 0 9 0;
#X connect 1 0 13 0;
#X connect 2 0 15 0;
#X connect 3 0 5 0;
#X connect 4 0 6 0;
#X connect 5 0 1 0;
#X connect 6 0 2 0;
#X connect 7 0 22 1;
#X connect 8 0 10 0;
#X connect 10 0 0 1;
#X connect 11 0 22 0;
#X connect 12 0 7 0;
#X connect 13 0 12 0;
#X connect 14 0 15 1;
#X connect 15 0 20 0;
#X connect 19 0 7 1;
#X connect 20 0 8 0;
#X connect 22 0 0 0;
