#N canvas 77 81 1149 662 10;
#X declare -path moonlib;
#X obj 81 85 unpack f f f, f 28;
#X floatatom 81 106 5 0 0 0 - - -;
#X floatatom 201 120 5 0 0 0 - - -;
#X obj 337 82 max 0;
#X obj 337 125 min 1;
#X obj 80 64 spigot;
#X obj 128 60 r \$1-on-snd;
#X obj 340 208 hsl 128 15 -1 1 0 0 empty empty empty -2 -8 0 10 -262144
-1 -1 8375 1;
#X obj 185 544 *~;
#X obj 186 449 line~;
#X obj 185 475 mtof~;
#X obj 66 265 osc~ 5;
#X obj 66 144 + 90;
#X obj 66 164 abs;
#X obj 66 185 / 30;
#X obj 66 209 * 4;
#X obj 66 230 + 2;
#X obj 65 290 *~;
#X obj 385 13 declare -path moonlib;
#X obj 750 158 r accel\$2;
#X obj 752 209 unpack f f f;
#X obj 752 180 spigot;
#X obj 822 147 r \$1-on-snd;
#X obj 1125 39 vsl 15 128 -1 1 0 0 empty empty empty 0 -9 0 10 -262144
-1 -1 0 1;
#X obj 969 271 / 1000;
#X obj 969 329 +;
#X floatatom 969 349 5 0 0 0 - - -;
#X obj 969 394 vsl 15 128 -1 1 0 0 empty empty empty 0 -9 0 10 -262144
-1 -1 6162 1;
#X msg 1043 295 0;
#X obj 991 35 unpack f f f;
#X obj 992 55 abs;
#X obj 1019 53 abs;
#X obj 1060 56 abs;
#X obj 992 76 +;
#X obj 1025 75 +;
#X obj 992 118 change;
#X obj 992 139 sel 0 1;
#X obj 1011 177 del 200;
#X msg 985 159 stop;
#X obj 1012 205 bng 15 250 50 0 empty empty empty 17 7 0 10 -262144
-1 -1;
#X obj 992 97 < 200;
#X obj 1106 288 / 1000;
#X obj 1106 329 +;
#X floatatom 1106 349 5 0 0 0 - - -;
#X obj 1106 394 vsl 15 128 -1 1 0 0 empty empty empty 0 -9 0 10 -262144
-1 -1 6159 1;
#X obj 1135 329 * 0.99;
#X msg 1135 309 0;
#X obj 1106 369 / 5;
#X obj 891 288 / 1000;
#X obj 891 329 +;
#X floatatom 891 349 5 0 0 0 - - -;
#X obj 936 396 vsl 15 128 -1 1 0 0 empty empty empty 0 -9 0 10 -262144
-1 -1 6411 1;
#X obj 919 328 * 0.99;
#X msg 919 308 0;
#X obj 891 369 / 5;
#X msg 1262 434 -1;
#X msg 1324 437 0;
#X msg 1363 436 1;
#X obj 1262 413 moses -1;
#X obj 1324 416 moses 1;
#X obj 1316 468 change;
#X floatatom 1316 489 5 0 0 0 - - -;
#X floatatom 1379 483 5 0 0 0 - - -;
#X floatatom 1243 483 5 0 0 0 - - -;
#X obj 983 416 t f f;
#X obj 1010 436 abs;
#X obj 1010 457 - 0.1;
#X floatatom 1007 503 5 0 0 0 - - -;
#X obj 1010 479 clip 0 1;
#X obj 497 422 pack f 20;
#X obj 497 443 line~;
#X obj 997 328 * 0.99;
#X obj 226 320 r \$1-center-snd;
#X obj 1043 330 clip -5 5;
#X obj 969 369 / 5;
#X obj 337 235 t f f, f 15;
#X obj 425 256 t f f;
#X obj 425 282 -;
#X obj 424 345 f;
#X obj 424 367 +;
#X floatatom 432 414 5 0 0 0 - - -;
#X obj 524 158 hsl 128 15 0 127 0 0 empty empty empty -2 -8 0 10 -262144
-1 -1 0 1;
#X obj 425 303 abs;
#X obj 495 366 clip 0 1;
#X obj 186 303 * -30;
#X obj 186 324 + 80;
#X obj 496 395 pow 2;
#X obj 186 428 pack f 50;
#X obj 337 61 + 90;
#X obj 337 104 / 180;
#X obj 213 260 r \$1-amp-snd;
#X obj 213 281 * -1;
#X obj 527 42 r \$1-props;
#X obj 527 60 route \$2 -1;
#X obj 527 81 t a;
#X obj 80 17 r EULER;
#X obj 80 38 route \$2;
#X obj 602 59 inlet;
#X obj 527 102 s \$0-props;
#X obj 139 18 r \$0-props;
#X obj 139 39 route sensor;
#X obj 185 572 outlet~;
#X obj 424 324 * 100;
#X obj 185 503 osc~;
#X obj 449 368 * 0.3;
#X obj 337 152 * 2;
#X obj 337 180 - 1;
#X obj 229 339 r \$0-props;
#X obj 229 360 route offset;
#X obj 186 351 +;
#X obj 186 389 clip 0 135;
#X connect 0 0 1 0;
#X connect 0 1 2 0;
#X connect 0 1 12 0;
#X connect 0 2 88 0;
#X connect 3 0 89 0;
#X connect 4 0 105 0;
#X connect 5 0 0 0;
#X connect 6 0 5 1;
#X connect 7 0 75 0;
#X connect 8 0 101 0;
#X connect 9 0 10 0;
#X connect 10 0 103 0;
#X connect 11 0 17 0;
#X connect 12 0 13 0;
#X connect 13 0 14 0;
#X connect 14 0 15 0;
#X connect 15 0 16 0;
#X connect 16 0 11 0;
#X connect 19 0 21 0;
#X connect 20 0 48 0;
#X connect 20 1 24 0;
#X connect 20 2 41 0;
#X connect 21 0 20 0;
#X connect 21 0 29 0;
#X connect 22 0 21 1;
#X connect 24 0 25 0;
#X connect 25 0 26 0;
#X connect 25 0 71 0;
#X connect 26 0 58 0;
#X connect 26 0 74 0;
#X connect 27 0 64 0;
#X connect 28 0 73 0;
#X connect 29 0 30 0;
#X connect 29 1 31 0;
#X connect 29 2 32 0;
#X connect 30 0 33 0;
#X connect 31 0 34 0;
#X connect 32 0 34 1;
#X connect 33 0 40 0;
#X connect 34 0 33 1;
#X connect 35 0 36 0;
#X connect 36 0 38 0;
#X connect 36 1 37 0;
#X connect 37 0 39 0;
#X connect 38 0 37 0;
#X connect 39 0 28 0;
#X connect 39 0 53 0;
#X connect 39 0 46 0;
#X connect 40 0 35 0;
#X connect 41 0 42 0;
#X connect 42 0 43 0;
#X connect 42 0 45 0;
#X connect 43 0 47 0;
#X connect 45 0 42 1;
#X connect 46 0 45 0;
#X connect 47 0 44 0;
#X connect 48 0 49 0;
#X connect 49 0 50 0;
#X connect 49 0 52 0;
#X connect 50 0 54 0;
#X connect 52 0 49 1;
#X connect 53 0 52 0;
#X connect 54 0 51 0;
#X connect 55 0 60 0;
#X connect 56 0 60 0;
#X connect 57 0 60 0;
#X connect 58 0 55 0;
#X connect 58 0 63 0;
#X connect 58 1 59 0;
#X connect 59 0 56 0;
#X connect 59 1 57 0;
#X connect 59 1 62 0;
#X connect 60 0 61 0;
#X connect 64 1 65 0;
#X connect 65 0 66 0;
#X connect 66 0 68 0;
#X connect 68 0 67 0;
#X connect 69 0 70 0;
#X connect 70 0 8 1;
#X connect 71 0 73 0;
#X connect 72 0 85 1;
#X connect 73 0 25 1;
#X connect 74 0 27 0;
#X connect 75 0 84 0;
#X connect 75 1 76 0;
#X connect 76 0 77 1;
#X connect 76 1 77 0;
#X connect 77 0 82 0;
#X connect 78 0 79 0;
#X connect 79 0 104 0;
#X connect 81 0 75 0;
#X connect 82 0 102 0;
#X connect 83 0 79 1;
#X connect 83 0 80 0;
#X connect 83 0 86 0;
#X connect 84 0 85 0;
#X connect 85 0 109 0;
#X connect 86 0 69 0;
#X connect 87 0 9 0;
#X connect 88 0 3 0;
#X connect 89 0 4 0;
#X connect 90 0 91 0;
#X connect 91 0 84 1;
#X connect 92 0 93 0;
#X connect 93 0 94 0;
#X connect 93 1 94 0;
#X connect 94 0 98 0;
#X connect 95 0 96 0;
#X connect 96 0 5 0;
#X connect 97 0 94 0;
#X connect 99 0 100 0;
#X connect 100 0 96 1;
#X connect 102 0 78 0;
#X connect 103 0 8 0;
#X connect 104 0 83 0;
#X connect 105 0 106 0;
#X connect 106 0 7 0;
#X connect 107 0 108 0;
#X connect 108 0 109 1;
#X connect 109 0 110 0;
#X connect 110 0 87 0;
