#N canvas 1 81 450 300 12;
#X obj 47 18 inlet;
#X obj 189 17 loadbang;
#X obj 189 41 list \$1 \$2;
#X obj 189 65 unpack f f;
#X obj 189 89 ftom;
#X obj 256 88 ftom;
#X obj 189 113 * -1;
#X obj 189 137 +;
#X obj 260 16 bng 15 250 50 0 empty empty empty 17 7 0 10 -262144 -1
-1;
#X obj 47 42 *;
#X obj 47 66 +;
#X obj 47 90 mtof;
#X obj 47 114 outlet;
#X connect 0 0 9 0;
#X connect 1 0 2 0;
#X connect 2 0 3 0;
#X connect 3 0 4 0;
#X connect 3 1 5 0;
#X connect 4 0 6 0;
#X connect 4 0 10 1;
#X connect 5 0 7 1;
#X connect 6 0 7 0;
#X connect 7 0 9 1;
#X connect 8 0 2 0;
#X connect 9 0 10 0;
#X connect 10 0 11 0;
#X connect 11 0 12 0;
