#N canvas 1 83 1165 888 10;
#X declare -path .. -path ../.. -path ../../../tools/gammabs;
#X obj 103 116 on \$1;
#X obj 81 220 r \$1-on-snd;
#X obj 81 243 tgl 15 0 empty empty empty 17 7 0 10 #fcfcfc #000000
#000000 0 1;
#X obj 224 321 chan \$1 2;
#X obj 326 322 chan \$1 3;
#X obj 437 324 chan \$1 4;
#X obj 443 122 GAMMEKB /G\$1;
#X obj 556 192 r /G\$1;
#X floatatom 556 213 5 0 0 0 - - - 0;
#X obj 575 249 gammeNotes /G\$1;
#X obj 575 271 s /G\$1-notes;
#X obj 220 31 declare -path .. -path ../.. -path ../../../tools/gammabs
;
#X obj 81 263 switch~;
#X obj 606 196 nbx 3 20 0 100 0 0 \$1-adjust-snd \$1-adjust-rcv adjust
0 -8 0 14 #fcfcfc #000000 #000000 0 256;
#X obj 486 175 loadbang;
#X msg 486 196 677;
#X obj 486 217 s /G\$1;
#X obj 148 118 hsl 128 15 0 1 0 1 empty empty volume:22 10 8 0 12 #ff0400
#000000 #faff00 5900 1;
#X obj 146 281 pow 2;
#X obj 146 302 pack f 10;
#X obj 146 323 line~;
#X obj 229 508 throw~ outL;
#X obj 345 394 delwrite~ \$0-d 1000;
#X obj 478 97 nbx 3 20 -50 50 0 0 \$1-filterOffset-snd \$1-filterOffset-rcv
filter 0 -8 0 14 #fcfcfc #000000 #000000 0 256;
#X obj 165 208 nbx 5 20 -1e+37 1e+37 0 0 empty empty center 0 -8 0
14 #fcfcfc #000000 #000000 0 256;
#X obj 549 392 delread~ \$0-d 50;
#X obj 128 23 loadbang;
#X obj 165 233 s \$1-center-snd;
#X obj 268 74 nbx 5 20 0 200 0 0 empty empty amp 0 -8 0 14 #fcfcfc
#000000 #000000 0 256;
#X obj 274 209 s \$1-amp-snd;
#X obj 589 105 rem chan \$1 1;
#X obj 589 146 rem chan \$1 6;
#X obj 589 127 rem chan \$1 5;
#X msg 224 299 sensor \$1;
#X msg 326 298 sensor \$1;
#X msg 437 301 sensor \$1;
#X obj 575 343 s \$1-props;
#X obj 576 299 loadbang;
#X obj 146 257 * 1;
#X msg 576 322 4 offset 10 \, 3 offset 26;
#X msg 178 59 26;
#X msg 128 44 65;
#X obj 146 344 s~ \$1-vol;
#X obj 323 507 throw~ outC;
#X obj 422 508 throw~ outR;
#X obj 122 146 hsl 128 15 0 1 0 0 empty empty noise 50 9 0 12 #f8fc00
#000000 #fc0400 0 1;
#X obj 35 436 * 60;
#X obj 35 457 + 20;
#X obj 35 501 s \$1-props;
#X msg 35 479 -1 noise f \$1;
#X obj 105 425 * 50;
#X obj 52 386 f;
#X msg 105 449 -1 noise v \$1;
#X obj 345 369 bp~ 2000 0.2;
#X obj 548 418 rev3~ 80 70 3000 50;
#X obj 224 255 r Assign2;
#X obj 224 277 + 1;
#X obj 326 275 + 1;
#X obj 326 253 r Assign3;
#X obj 437 277 + 1;
#X obj 437 255 r Assign4;
#X obj 344 108 * 100;
#X obj 344 130 i;
#X obj 344 152 change;
#X msg 344 173 label volume:\$1;
#X obj 122 168 hsl 128 15 0 1 0 0 empty empty grave 50 9 0 12 #00ff04
#000000 #fc0400 0 1;
#X obj 41 172 + 65;
#X obj 41 150 * -37;
#X connect 1 0 2 0;
#X connect 2 0 12 0;
#X connect 3 0 21 0;
#X connect 3 0 53 0;
#X connect 4 0 43 0;
#X connect 4 0 53 0;
#X connect 5 0 44 0;
#X connect 5 0 53 0;
#X connect 7 0 8 0;
#X connect 9 0 10 0;
#X connect 14 0 15 0;
#X connect 15 0 16 0;
#X connect 17 0 38 0;
#X connect 17 0 61 0;
#X connect 18 0 19 0;
#X connect 19 0 20 0;
#X connect 20 0 42 0;
#X connect 24 0 27 0;
#X connect 25 0 54 0;
#X connect 26 0 41 0;
#X connect 26 0 40 0;
#X connect 28 0 29 0;
#X connect 33 0 3 0;
#X connect 34 0 4 0;
#X connect 35 0 5 0;
#X connect 37 0 39 0;
#X connect 38 0 18 0;
#X connect 39 0 36 0;
#X connect 40 0 28 0;
#X connect 41 0 24 0;
#X connect 45 0 51 0;
#X connect 46 0 47 0;
#X connect 47 0 49 0;
#X connect 49 0 48 0;
#X connect 50 0 52 0;
#X connect 51 0 46 0;
#X connect 51 0 50 0;
#X connect 52 0 48 0;
#X connect 53 0 22 0;
#X connect 54 0 21 0;
#X connect 54 1 43 0;
#X connect 54 2 44 0;
#X connect 55 0 56 0;
#X connect 56 0 33 0;
#X connect 57 0 34 0;
#X connect 58 0 57 0;
#X connect 59 0 35 0;
#X connect 60 0 59 0;
#X connect 61 0 62 0;
#X connect 62 0 63 0;
#X connect 63 0 64 0;
#X connect 64 0 17 0;
#X connect 65 0 67 0;
#X connect 66 0 24 0;
#X connect 67 0 66 0;
#X coords 0 -1 1 1 200 100 1 100 100;
