#N canvas 1 83 791 564 10;
#X declare -path .. -path ../.. -path ../../../tools/gammabs;
#X obj 103 116 on \$1;
#X obj 81 220 r \$1-on-snd;
#X obj 81 243 tgl 15 0 empty empty empty 17 7 0 10 -262144 -1 -1 1
1;
#X obj 220 305 chan \$1 2;
#X obj 322 306 chan \$1 3;
#X obj 433 308 chan \$1 4;
#X obj 443 122 GAMMEKB /G\$1;
#X obj 556 192 r /G\$1;
#X floatatom 556 213 5 0 0 0 - - -;
#X obj 575 249 gammeNotes /G\$1;
#X obj 575 271 s /G\$1-notes;
#X obj 220 31 declare -path .. -path ../.. -path ../../../tools/gammabs
;
#X obj 81 263 switch~;
#X obj 606 196 nbx 3 20 0 100 0 0 \$1-adjust-snd \$1-adjust-rcv adjust
0 -8 0 14 -262144 -1 -1 0 256;
#X obj 486 175 loadbang;
#X msg 486 196 677;
#X obj 486 217 s /G\$1;
#X obj 148 118 hsl 128 15 0 1 0 1 empty empty empty -2 -8 0 10 -258113
-1 -1 3300 1;
#X obj 146 281 pow 2;
#X obj 146 302 pack f 10;
#X obj 146 323 line~;
#X obj 229 508 throw~ outL;
#X obj 345 394 delwrite~ \$0-d 1000;
#X obj 478 97 nbx 3 20 -50 50 0 0 \$1-filterOffset-snd \$1-filterOffset-rcv
filter 0 -8 0 14 -262144 -1 -1 0 256;
#X obj 115 153 nbx 5 20 -1e+37 1e+37 0 0 empty empty center 0 -8 0
14 -262144 -1 -1 63 256;
#X obj 549 392 delread~ \$0-d 50;
#X obj 128 23 loadbang;
#X obj 168 205 s \$1-center-snd;
#X obj 217 153 nbx 5 20 0 200 0 0 empty empty amp 0 -8 0 14 -262144
-1 -1 65 256;
#X obj 274 209 s \$1-amp-snd;
#X obj 589 105 rem chan \$1 1;
#X obj 589 146 rem chan \$1 6;
#X obj 589 127 rem chan \$1 5;
#X msg 220 283 sensor \$1;
#X obj 220 243 hradio 15 1 0 3 empty empty empty 0 -8 0 10 -262144
-1 -1 2;
#X obj 220 263 + 2;
#X msg 322 282 sensor \$1;
#X obj 322 242 hradio 15 1 0 3 empty empty empty 0 -8 0 10 -262144
-1 -1 0;
#X obj 322 261 + 2;
#X msg 433 285 sensor \$1;
#X obj 433 245 hradio 15 1 0 3 empty empty empty 0 -8 0 10 -262144
-1 -1 2;
#X obj 433 265 + 2;
#X obj 575 343 s \$1-props;
#X obj 576 299 loadbang;
#X obj 146 257 * 1;
#X msg 576 322 4 offset 10 \, 3 offset 26;
#X msg 178 59 26;
#X msg 128 44 65;
#X obj 146 344 s~ \$1-vol;
#X obj 323 507 throw~ outC;
#X obj 422 508 throw~ outR;
#X obj 116 179 hsl 128 15 0 1 0 1 empty empty noise 50 9 0 12 -257985
-1 -258113 11600 1;
#X obj 35 436 * 60;
#X obj 35 457 + 20;
#X obj 35 501 s \$1-props;
#X msg 35 479 -1 noise f \$1;
#X obj 105 425 * 50;
#X obj 52 386 f;
#X msg 105 449 -1 noise v \$1;
#X obj 345 369 bp~ 2000 0.2;
#X obj 548 418 rev3~ 80 70 3000 50;
#X connect 1 0 2 0;
#X connect 2 0 12 0;
#X connect 3 0 21 0;
#X connect 3 0 59 0;
#X connect 4 0 49 0;
#X connect 4 0 59 0;
#X connect 5 0 50 0;
#X connect 5 0 59 0;
#X connect 7 0 8 0;
#X connect 9 0 10 0;
#X connect 14 0 15 0;
#X connect 15 0 16 0;
#X connect 17 0 44 0;
#X connect 18 0 19 0;
#X connect 19 0 20 0;
#X connect 20 0 48 0;
#X connect 24 0 27 0;
#X connect 25 0 60 0;
#X connect 26 0 47 0;
#X connect 26 0 46 0;
#X connect 28 0 29 0;
#X connect 33 0 3 0;
#X connect 34 0 35 0;
#X connect 35 0 33 0;
#X connect 36 0 4 0;
#X connect 37 0 38 0;
#X connect 38 0 36 0;
#X connect 39 0 5 0;
#X connect 40 0 41 0;
#X connect 41 0 39 0;
#X connect 43 0 45 0;
#X connect 44 0 18 0;
#X connect 45 0 42 0;
#X connect 46 0 28 0;
#X connect 47 0 24 0;
#X connect 51 0 57 0;
#X connect 52 0 53 0;
#X connect 53 0 55 0;
#X connect 55 0 54 0;
#X connect 56 0 58 0;
#X connect 57 0 52 0;
#X connect 57 0 56 0;
#X connect 58 0 54 0;
#X connect 59 0 22 0;
#X connect 60 0 21 0;
#X connect 60 1 49 0;
#X connect 60 2 50 0;
#X coords 0 -1 1 1 200 100 1 100 100;
