#N canvas 492 81 791 642 10;
#X declare -path .. -path ../.. -path ../../../tools/gammabs;
#X obj 103 116 on \$1;
#X obj 81 220 r \$1-on-snd;
#X obj 81 243 tgl 15 0 empty empty empty 17 7 0 10 -262144 -1 -1 1
1;
#X obj 220 305 chan \$1 2;
#X obj 322 306 chan \$1 3;
#X obj 433 308 chan \$1 4;
#X obj 443 122 GAMMEKB /G\$1;
#X obj 556 192 r /G\$1;
#X floatatom 556 213 5 0 0 0 - - -;
#X obj 546 292 gammeNotes /G\$1;
#X obj 546 314 s /G\$1-notes;
#X obj 220 31 declare -path .. -path ../.. -path ../../../tools/gammabs
;
#X obj 81 263 switch~;
#X obj 606 196 nbx 3 20 0 100 0 0 \$1-adjust-snd \$1-adjust-rcv adjust
0 -8 0 14 -262144 -1 -1 0 256;
#X obj 486 175 loadbang;
#X msg 486 196 677;
#X obj 486 217 s /G\$1;
#X obj 99 402 catch~ \$1-out;
#X obj 148 118 hsl 128 15 0 1 0 1 empty empty empty -2 -8 0 10 -258113
-1 -1 1600 1;
#X obj 114 330 pow 2;
#X obj 114 351 pack f 10;
#X obj 114 372 line~;
#X obj 99 423 *~;
#X obj 98 593 throw~ outL;
#X obj 131 473 delwrite~ \$0-d 1000;
#X obj 131 536 rev1~;
#X obj 478 97 nbx 3 20 -50 50 0 0 \$1-filterOffset-snd \$1-filterOffset-rcv
filter 0 -8 0 14 -262144 -1 -1 0 256;
#X obj 148 515 nbx 5 14 0 100 0 1 empty empty empty 0 -8 0 10 -262144
-1 -1 6 256;
#X obj 115 153 nbx 5 20 -1e+37 1e+37 0 0 empty empty center 0 -8 0
14 -262144 -1 -1 65 256;
#X obj 131 495 delread~ \$0-d 50;
#X obj 128 23 loadbang;
#X obj 117 185 s \$1-center-snd;
#X msg 128 44 70;
#X obj 217 153 nbx 5 20 0 200 0 0 empty empty amp 0 -8 0 14 -262144
-1 -1 89 256;
#X obj 223 189 s \$1-amp-snd;
#X obj 589 105 rem chan \$1 1;
#X obj 589 146 rem chan \$1 6;
#X obj 589 127 rem chan \$1 5;
#X msg 220 283 sensor \$1;
#X obj 220 243 hradio 15 1 0 3 empty empty empty 0 -8 0 10 -262144
-1 -1 2;
#X obj 220 263 + 2;
#X msg 322 282 sensor \$1;
#X obj 322 242 hradio 15 1 0 3 empty empty empty 0 -8 0 10 -262144
-1 -1 0;
#X obj 322 261 + 2;
#X msg 433 285 sensor \$1;
#X obj 433 245 hradio 15 1 0 3 empty empty empty 0 -8 0 10 -262144
-1 -1 2;
#X obj 433 265 + 2;
#X obj 222 369 throw~ \$1-out;
#N canvas 21 130 473 431 filter 0;
#X obj 50 40 inlet~;
#X obj 49 269 outlet~;
#X obj 244 44 inlet;
#X obj 244 73 / -90;
#X obj 327 115 interpol 4500 5400;
#X obj 191 115 interpol 2200 1600;
#X obj 77 114 interpol 520 630;
#X text 282 293 1 2 3 4 5 6 7 8;
#X text 254 317 0.5 1 1.5;
#X obj 49 169 bp~ 400 10;
#X obj 119 169 bp~ 1800 10;
#X obj 198 168 bp~ 4900 10;
#X obj 197 192 *~ 1;
#X obj 119 195 *~ 1;
#X connect 0 0 9 0;
#X connect 0 0 10 0;
#X connect 0 0 11 0;
#X connect 2 0 3 0;
#X connect 3 0 4 0;
#X connect 3 0 5 0;
#X connect 3 0 6 0;
#X connect 4 0 11 1;
#X connect 5 0 10 1;
#X connect 6 0 9 1;
#X connect 9 0 1 0;
#X connect 10 0 13 0;
#X connect 11 0 12 0;
#X connect 12 0 1 0;
#X connect 13 0 1 0;
#X restore 245 332 pd filter;
#N canvas 688 125 532 431 filter 0;
#X obj 50 70 inlet~;
#X obj 49 269 outlet~;
#X obj 244 44 inlet;
#X obj 244 73 / -90;
#X obj 356 106 interpol 5300 6400;
#X obj 111 106 interpol 320 380;
#X obj 221 104 interpol 2600 3800;
#X obj 84 219 *~ 1;
#X obj 198 207 *~ 1;
#X obj 49 169 bp~ 400 10;
#X obj 119 169 bp~ 1800 10;
#X obj 198 168 bp~ 4900 10;
#X connect 0 0 9 0;
#X connect 0 0 10 0;
#X connect 0 0 11 0;
#X connect 2 0 3 0;
#X connect 3 0 4 0;
#X connect 3 0 5 0;
#X connect 3 0 6 0;
#X connect 4 0 11 1;
#X connect 5 0 9 1;
#X connect 6 0 10 1;
#X connect 7 0 1 0;
#X connect 8 0 1 0;
#X connect 9 0 1 0;
#X connect 10 0 7 0;
#X connect 11 0 8 0;
#X restore 345 330 pd filter;
#N canvas 190 168 532 431 filter 0;
#X obj 50 70 inlet~;
#X obj 49 269 outlet~;
#X obj 244 44 inlet;
#X obj 244 73 / -90;
#X obj 111 106 interpol 220 340;
#X obj 356 106 interpol 7200 6400;
#X obj 221 104 interpol 1200 730;
#X obj 118 204 *~ 1;
#X obj 198 208 *~ 1;
#X obj 49 169 bp~ 400 10;
#X obj 119 169 bp~ 1800 10;
#X obj 198 167 bp~ 4900 10;
#X connect 0 0 9 0;
#X connect 0 0 10 0;
#X connect 0 0 11 0;
#X connect 2 0 3 0;
#X connect 3 0 4 0;
#X connect 3 0 5 0;
#X connect 3 0 6 0;
#X connect 4 0 9 1;
#X connect 5 0 11 1;
#X connect 6 0 10 1;
#X connect 7 0 1 0;
#X connect 8 0 1 0;
#X connect 9 0 1 0;
#X connect 10 0 7 0;
#X connect 11 0 8 0;
#X restore 457 328 pd filter;
#X msg 354 422 3 offset 7 \, 4offset 14;
#X obj 353 443 s \$1-props;
#X obj 354 399 loadbang;
#X obj 114 306 * 1;
#X obj 115 448 bp~ 1000 2;
#X obj 130 558 *~ 0.3;
#X msg 178 59 90;
#X connect 1 0 2 0;
#X connect 2 0 12 0;
#X connect 3 0 47 0;
#X connect 4 0 47 0;
#X connect 5 0 47 0;
#X connect 7 0 8 0;
#X connect 9 0 10 0;
#X connect 14 0 15 0;
#X connect 15 0 16 0;
#X connect 17 0 22 0;
#X connect 18 0 54 0;
#X connect 19 0 20 0;
#X connect 20 0 21 0;
#X connect 21 0 22 1;
#X connect 22 0 23 0;
#X connect 22 0 55 0;
#X connect 25 0 56 0;
#X connect 27 0 25 1;
#X connect 28 0 31 0;
#X connect 29 0 25 0;
#X connect 30 0 32 0;
#X connect 30 0 57 0;
#X connect 32 0 28 0;
#X connect 33 0 34 0;
#X connect 38 0 3 0;
#X connect 39 0 40 0;
#X connect 40 0 38 0;
#X connect 41 0 4 0;
#X connect 42 0 43 0;
#X connect 43 0 41 0;
#X connect 44 0 5 0;
#X connect 45 0 46 0;
#X connect 46 0 44 0;
#X connect 48 0 47 0;
#X connect 49 0 47 0;
#X connect 50 0 47 0;
#X connect 51 0 52 0;
#X connect 53 0 51 0;
#X connect 54 0 19 0;
#X connect 55 0 24 0;
#X connect 56 0 23 0;
#X connect 57 0 33 0;
#X coords 0 -1 1 1 200 80 1 100 100;
