#N canvas 572 339 541 379 10;
#X obj 107 122 hsl 86 15 0 1 0 1 empty empty volume 20 7 0 10 -258113
-1 -4034 1905 1;
#X obj 104 177 pow 2;
#X msg 104 198 \$1 10;
#X obj 104 219 line~;
#X obj 105 240 s~ mastervol;
#X obj 104 70 route audiomaster;
#X obj 104 49 r CONTROL;
#X obj 103 282 clone outchan 4;
#X obj 270 183 dac~ 1 2 3 4;
#X obj 268 44 catch~ rev1;
#X obj 268 65 *~;
#X obj 342 67 *~;
#X obj 342 46 catch~ rev2;
#X obj 107 142 hsl 86 15 0 1 0 1 empty empty reverb 20 7 0 10 -257985
-1 -159808 2505 1;
#X obj 423 86 pow 2;
#X msg 423 106 \$1 10;
#X obj 423 127 line~;
#X floatatom 207 195 5 0 0 0 - - -;
#X obj 271 125 rev3~ 100 92 3000 50;
#X connect 0 0 1 0;
#X connect 1 0 2 0;
#X connect 2 0 3 0;
#X connect 3 0 4 0;
#X connect 5 0 0 0;
#X connect 6 0 5 0;
#X connect 9 0 10 0;
#X connect 10 0 18 0;
#X connect 11 0 18 1;
#X connect 12 0 11 0;
#X connect 13 0 14 0;
#X connect 14 0 15 0;
#X connect 15 0 16 0;
#X connect 16 0 11 1;
#X connect 16 0 10 1;
#X connect 17 0 18 3;
#X connect 18 0 8 0;
#X connect 18 1 8 1;
#X connect 18 2 8 2;
#X connect 18 3 8 3;
#X coords 0 -1 1 1 100 60 1 100 100;
