#N canvas 224 632 541 379 10;
#X obj 107 122 hsl 86 15 0 1 0 1 empty empty volume 20 7 0 10 -258113
-1 -4034 4344 1;
#X obj 104 177 pow 2;
#X msg 104 198 \$1 10;
#X obj 104 219 line~;
#X obj 105 240 s~ mastervol;
#X obj 103 282 clone outchan 4;
#X obj 270 183 dac~ 1 2 3 4;
#X obj 268 44 catch~ rev1;
#X obj 268 65 *~;
#X obj 342 67 *~;
#X obj 342 46 catch~ rev2;
#X obj 107 142 hsl 86 15 0 1 0 1 empty empty reverb 20 7 0 10 -257985
-1 -159808 2505 1;
#X obj 423 86 pow 2;
#X msg 423 106 \$1 10;
#X obj 423 127 line~;
#X floatatom 207 195 5 0 0 0 - - -;
#X obj 271 125 rev3~ 100 92 3000 50;
#X obj 306 290 noise~;
#X obj 306 311 *~ 0.2;
#X obj 51 329 r outenv-2;
#X floatatom 52 359 5 0 0 0 - - -;
#X obj 306 344 throw~ out3;
#X obj 104 70 r MasterAudio-snd;
#X connect 0 0 1 0;
#X connect 1 0 2 0;
#X connect 2 0 3 0;
#X connect 3 0 4 0;
#X connect 7 0 8 0;
#X connect 8 0 16 0;
#X connect 9 0 16 1;
#X connect 10 0 9 0;
#X connect 11 0 12 0;
#X connect 12 0 13 0;
#X connect 13 0 14 0;
#X connect 14 0 9 1;
#X connect 14 0 8 1;
#X connect 15 0 16 3;
#X connect 16 0 6 0;
#X connect 16 1 6 1;
#X connect 16 2 6 2;
#X connect 16 3 6 3;
#X connect 17 0 18 0;
#X connect 22 0 0 0;
#X coords 0 -1 1 1 100 60 1 100 100;
