#N canvas 405 275 396 411 12;
#X obj 47 273 *~;
#X obj 47 324 limiter~;
#X obj 47 345 *~;
#X obj 64 298 z~ 64;
#X obj 46 142 adc~ \$1;
#X obj 106 123 vsl 15 80 0 1 0 0 empty empty empty 0 -9 0 10 -258113
-1 -1 0 1;
#X obj 106 211 pow 2;
#X obj 47 376 outlet~;
#X obj 125 123 vu 15 80 empty empty -1 -8 0 10 -66577 -1 0 0;
#X obj 120 315 env~;
#X obj 120 339 - 100;
#X obj 120 363 + 12;
#X obj 106 235 * 4;
#X obj 189 192 apf MASTER invol-\$1 2;
#X connect 0 0 1 0;
#X connect 0 0 3 0;
#X connect 1 0 2 0;
#X connect 2 0 7 0;
#X connect 2 0 9 0;
#X connect 3 0 2 1;
#X connect 4 0 0 0;
#X connect 5 0 6 0;
#X connect 5 0 13 0;
#X connect 6 0 12 0;
#X connect 9 0 10 0;
#X connect 10 0 11 0;
#X connect 11 0 8 0;
#X connect 12 0 0 1;
#X connect 13 0 5 0;
#X coords 0 -1 1 1 45 110 1 100 100;
