#N canvas 541 537 396 481 12;
#X obj 47 226 *~;
#X obj 47 277 limiter~;
#X obj 47 298 *~;
#X obj 64 251 z~ 64;
#X obj 46 95 adc~ \$1;
#X obj 106 35 vsl 15 80 0 1 0 0 invol-\$1-snd invol-\$1-rcv empty 0
-9 0 10 -258113 -1 -1 3950 1;
#X obj 106 164 pow 2;
#X obj 47 329 outlet~;
#X obj 125 35 vu 15 80 empty empty -1 -8 0 10 -66577 -1 0 0;
#X obj 120 268 env~;
#X obj 120 292 - 100;
#X obj 120 316 + 12;
#X obj 106 188 * 4;
#X obj 189 104 apf MASTER invol-\$1 invol-\$1;
#X obj 106 140 r invol-\$1-snd;
#X obj 176 315 s inenv-\$1;
#X connect 0 0 1 0;
#X connect 0 0 3 0;
#X connect 1 0 2 0;
#X connect 2 0 7 0;
#X connect 2 0 9 0;
#X connect 3 0 2 1;
#X connect 4 0 0 0;
#X connect 6 0 12 0;
#X connect 9 0 10 0;
#X connect 9 0 15 0;
#X connect 10 0 11 0;
#X connect 11 0 8 0;
#X connect 12 0 0 1;
#X connect 14 0 6 0;
#X coords 0 -1 1 1 45 110 1 100 10;
