#N canvas 457 23 903 655 12;
#X declare -path zexy -lib zexy;
#X declare -path ../../tools/AutoPreset -path ggee -path iemlib -lib
iemlib;
#N canvas 93 102 487 576 guts 0;
#X obj 30 267 bang~;
#X obj 30 291 i;
#X obj 30 315 + 1;
#X obj 30 363 s buffer-index;
#X obj 30 339 mod 82688;
#X obj 29 24 loadbang;
#X msg 29 48 120;
#X obj 29 72 s buffer-time;
#X obj 29 110 r buffer-time;
#X obj 29 158 / 64;
#X obj 29 182 i;
#X obj 29 206 + 1;
#X obj 29 230 s buffer-length;
#X obj 90 314 r buffer-length;
#X obj 96 25 inlet;
#X floatatom 99 184 7 0 0 0 - - -;
#X obj 360 112 r buffer-index;
#X obj 280 77 metro 1000;
#X obj 280 101 f;
#X obj 280 125 t f f;
#X obj 285 157 -;
#X floatatom 285 181 5 0 0 0 - - -;
#X obj 286 39 tgl 15 0 empty empty empty 17 7 0 10 -262144 -1 -1 0
1;
#X obj 29 134 * 48000;
#X msg 338 231 48;
#X obj 338 255 / 64;
#X obj 338 279 * 1000;
#X floatatom 338 303 5 0 0 0 - - -;
#X obj 358 140 * 1.333;
#X obj 31 399 declare -path zexy -lib zexy;
#N canvas 1 81 500 360 tests 0;
#X obj 237 121 t b b b;
#X obj 237 229 pack f f;
#X obj 237 95 bng 15 250 50 0 empty empty empty 17 7 0 10 -262144 -1
-1;
#X floatatom 237 68 5 0 0 0 - - -;
#X obj 237 147 random 110000;
#X obj 290 173 random 100;
#X obj 290 201 + 20;
#X obj 237 287 s vox_play-2;
#X obj 96 125 t b b b;
#X obj 96 99 bng 15 250 50 0 empty empty empty 17 7 0 10 -262144 -1
-1;
#X floatatom 96 72 5 0 0 0 - - -;
#X obj 96 151 random 110000;
#X obj 149 177 random 100;
#X obj 96 293 s vox_play-1;
#X msg 237 256 2 \$1 0 \$2;
#X obj 96 233 pack f f f;
#X msg 96 262 1 \$1 \$2 \$3;
#X floatatom 184 249 5 0 0 0 - - -;
#X obj 155 61 tgl 15 0 empty empty empty 17 7 0 10 -262144 -1 -1 0
1;
#X obj 128 95 metro 50;
#X msg 180 61 1;
#X msg 191 30 200;
#X obj 69 189 +;
#X msg 45 221 2000;
#X msg 41 252 20000;
#X obj 149 205 + 20;
#X msg 174 124 110000;
#X obj 313 46 tgl 15 0 empty empty empty 17 7 0 10 -262144 -1 -1 0
1;
#X obj 286 80 metro 50;
#X msg 338 46 1;
#X msg 390 43 200;
#X connect 0 0 4 0;
#X connect 0 2 5 0;
#X connect 1 0 14 0;
#X connect 2 0 0 0;
#X connect 3 0 2 0;
#X connect 4 0 1 0;
#X connect 5 0 6 0;
#X connect 6 0 1 1;
#X connect 8 0 11 0;
#X connect 8 2 12 0;
#X connect 9 0 8 0;
#X connect 10 0 9 0;
#X connect 11 0 15 0;
#X connect 12 0 25 0;
#X connect 14 0 7 0;
#X connect 15 0 16 0;
#X connect 16 0 13 0;
#X connect 17 0 15 1;
#X connect 18 0 19 0;
#X connect 19 0 8 0;
#X connect 20 0 19 1;
#X connect 21 0 19 1;
#X connect 22 0 15 0;
#X connect 23 0 22 1;
#X connect 24 0 22 1;
#X connect 25 0 15 2;
#X connect 26 0 11 1;
#X connect 27 0 28 0;
#X connect 28 0 0 0;
#X connect 29 0 28 1;
#X connect 30 0 28 1;
#X restore 238 400 pd tests;
#X obj 30 476 apmaster MASTER;
#X obj 33 552 apmasterfile MASTER presets.txt;
#X obj 32 501 loadbang;
#X obj 32 529 bng 15 250 50 0 empty empty empty 17 7 0 10 -4034 -1
-1;
#X obj 247 527 bng 15 250 50 0 empty empty empty 17 7 0 10 -258113
-1 -1;
#X obj 249 498 r MASTER-save;
#X obj 31 423 declare -path ../../tools/AutoPreset -path ggee -path
iemlib -lib iemlib;
#X connect 0 0 1 0;
#X connect 1 0 2 0;
#X connect 2 0 4 0;
#X connect 4 0 1 1;
#X connect 4 0 3 0;
#X connect 5 0 6 0;
#X connect 6 0 7 0;
#X connect 8 0 23 0;
#X connect 9 0 10 0;
#X connect 10 0 11 0;
#X connect 11 0 12 0;
#X connect 11 0 15 0;
#X connect 13 0 4 1;
#X connect 14 0 6 0;
#X connect 16 0 28 0;
#X connect 17 0 18 0;
#X connect 18 0 19 0;
#X connect 19 0 20 1;
#X connect 19 1 20 0;
#X connect 20 0 21 0;
#X connect 22 0 17 0;
#X connect 23 0 9 0;
#X connect 24 0 25 0;
#X connect 25 0 26 0;
#X connect 26 0 27 0;
#X connect 28 0 18 1;
#X connect 33 0 34 0;
#X connect 34 0 32 0;
#X connect 35 0 32 1;
#X connect 36 0 35 0;
#X restore 153 35 pd guts;
#X obj 32 186 player basse;
#X obj 32 352 *~;
#X obj 142 186 vsl 15 60 0 1 0 0 empty empty empty 0 -9 0 10 -258113
-1 -1 0 1;
#X obj 50 327 pow 2;
#X obj 21 9 audioMaster;
#X obj 32 376 throw~ out0;
#X obj 191 353 *~;
#X obj 301 187 vsl 15 60 0 1 0 0 empty empty empty 0 -9 0 10 -258113
-1 -1 0 1;
#X obj 209 328 pow 2;
#X obj 191 187 player percus;
#X obj 191 377 throw~ out1;
#X obj 153 17 bng 15 250 50 0 empty empty empty 17 7 0 10 -262144 -1
-1;
#X obj 428 653 source 1 0;
#X obj 47 295 buffer 1 1000;
#X obj 206 296 buffer 2 1000;
#X text 190 15 48kHz;
#X obj 120 651 voxset 1;
#X obj 226 652 voxset 2;
#X obj 512 653 source 2 1;
#X obj 127 626 voxControl 1;
#X obj 225 626 voxControl 2;
#X obj 423 11 loadbang;
#X msg 423 35 \; pd dsp 1;
#X obj 32 73 inchan 1;
#X obj 193 71 inchan 2;
#X obj 543 6 gcanvas 500 500;
#X obj 129 554 / 500;
#X obj 127 599 clip 0 1;
#X obj 225 551 / 500;
#X obj 225 599 clip 0 1;
#X obj 34 417 hradio 15 1 0 16 empty empty 1..2..3.4..5..6.7.8..9.10.11.2.3.14.15.6
0 -8 0 10 -4034 -1 -1 -49;
#X obj 34 438 hradio 15 1 0 16 empty empty empty 0 -8 0 10 -258113
-1 -1 6;
#X msg 33 464 _all_ load \$1;
#X msg 142 465 _all_ store \$1;
#X obj 33 497 s MASTER-pattern-snd;
#N canvas 10 92 860 375 notes 0;
#X text 83 72 3: double ostinato;
#X text 85 122 5: pizz bartok;
#X text 47 145 6: double ostinalto;
#X text 46 170 7: bariolage;
#X text 46 195 8: ecrasé;
#X text 193 125 (ajouter un gate en entrées pour virer le "souffle")
;
#X text 400 193 ajouter freeze (légèrement mouvant);
#X text 581 232 1-2-1-3-4---1-5-1-2-4-6-3-4-6-4-1-5-7-1-6-4-7-8;
#X text 247 309 1-2-1-2-4--1-5-1-2-4-2-4-3-4-1-5-7-1-6-4-5-7-8;
#X text 400 211 ajouter controle volume (et master proba?);
#N canvas 1 81 885 338 mars2020 0;
#X text 49 27 1: frottements;
#X text 49 49 2: ostinalto + multiphonic;
#X text 48 73 3: double ostinato;
#X text 48 97 4: trilles harmoniques + contre-multipho;
#X text 48 122 5: pizz bartok;
#X text 47 145 6: double ostinalto;
#X text 46 170 7: bariolage;
#X text 46 195 8: ecrasé;
#X text 179 123 (ajouter un gate en entrées pour virer le "souffle")
;
#X text 242 192 ajouter freeze (légèrement mouvant);
#X text 423 231 1-2-1-3-4---1-5-1-2-4-6-3-4-6-4-1-5-7-1-6-4-7-8;
#X text 37 294 1-2-1-2-4--1-5-1-2-4-2-4-3-4-1-5-7-1-6-4-5-7-8;
#X text 242 210 ajouter controle volume (et master proba?);
#X restore 364 63 pd mars2020;
#X text 195 265 pouvoir décoréler la spatialisation;
#X text 195 243 créer une 3e voix percu;
#X text 49 27 1: tuyau-harmo_contrebasse;
#X text 49 50 2: 1+percu+cordes-fixes;
#X text 198 220 pouvoir faire "cut";
#X text 639 47 1;
#X text 686 46 2(Helene);
#X text 687 87 3(Cordes);
#X text 638 85 4;
#X text 572 69 plan HPs:;
#X text 48 97 4: trilles harmoniques + contre-multipho +cloches;
#X text 45 314 1-2-4--2-4-7-1;
#X restore 195 508 pd notes;
#X obj 545 548 key;
#X floatatom 498 551 5 0 0 0 - - -;
#X obj 545 596 spigot;
#X obj 613 571 tgl 15 0 empty empty empty 17 7 0 10 -262144 -1 -1 0
1;
#X obj 545 572 - 49;
#X obj 296 416 bng 30 250 50 0 MASTER-save MASTER-save MASTER-save
0 -8 0 10 -258113 -1 -1;
#X obj 659 533 r axlData;
#X obj 659 586 unpack f f f;
#X obj 659 613 + 1;
#X obj 659 637 / 2;
#X obj 701 612 + 1;
#X obj 701 636 / 2;
#X obj 659 561 spigot;
#X obj 715 561 tgl 15 0 empty empty empty 17 7 0 10 -262144 -1 -1 0
1;
#X obj 401 88 inchan 3;
#X obj 401 300 buffer 3 1000;
#X obj 322 624 voxControl 3;
#X obj 323 650 voxset 3;
#X obj 322 600 clip 0 1;
#X obj 322 574 / 500;
#X obj 346 256 *~;
#X obj 364 231 pow 2;
#X obj 364 165 vsl 15 60 0 1 0 0 empty empty empty 0 -9 0 10 -258113
-1 -1 0 1;
#X obj 277 22 r axlBatt;
#X floatatom 277 46 5 0 0 0 - - -;
#X obj 277 71 bng 15 250 50 0 empty empty empty 17 7 0 10 -262144 -1
-1;
#X obj 487 257 *~;
#X obj 505 232 pow 2;
#X obj 505 166 vsl 15 60 0 1 0 0 empty empty empty 0 -9 0 10 -258113
-1 -1 0 1;
#X floatatom 846 528 5 0 0 0 - - -;
#X obj 445 423 s voxProbaGain;
#X floatatom 445 398 5 0 0 0 - - -;
#X obj 399 452 s voxProbaAvg;
#X floatatom 399 428 5 0 0 0 - - -;
#X msg 399 404 20;
#X obj 395 336 loadbang;
#X msg 445 374 25;
#X obj 743 610 + 1;
#X obj 743 634 / 2;
#X obj 780 527 atan2;
#X floatatom 859 583 5 0 0 0 - - -;
#X obj 780 551 / 6.283;
#X obj 780 577 + 0.5;
#X obj 780 601 clip 0 1;
#X obj 780 677 s axlXYangle;
#X obj 780 625 - 0.25;
#X obj 780 649 wrap;
#X connect 1 0 2 0;
#X connect 1 0 14 0;
#X connect 2 0 6 0;
#X connect 3 0 4 0;
#X connect 4 0 2 1;
#X connect 7 0 11 0;
#X connect 8 0 9 0;
#X connect 9 0 7 1;
#X connect 10 0 7 0;
#X connect 10 0 15 0;
#X connect 12 0 0 0;
#X connect 22 0 23 0;
#X connect 24 0 14 0;
#X connect 25 0 15 0;
#X connect 26 0 27 0;
#X connect 26 0 56 0;
#X connect 26 1 29 0;
#X connect 27 0 28 0;
#X connect 28 0 20 0;
#X connect 29 0 30 0;
#X connect 30 0 21 0;
#X connect 31 0 33 0;
#X connect 32 0 34 0;
#X connect 33 0 35 0;
#X connect 34 0 35 0;
#X connect 37 0 38 0;
#X connect 37 0 41 0;
#X connect 39 0 31 0;
#X connect 40 0 39 1;
#X connect 41 0 39 0;
#X connect 43 0 49 0;
#X connect 44 0 45 0;
#X connect 44 0 76 0;
#X connect 44 1 47 0;
#X connect 44 1 76 1;
#X connect 44 2 74 0;
#X connect 45 0 46 0;
#X connect 46 0 28 0;
#X connect 46 0 55 0;
#X connect 47 0 48 0;
#X connect 48 0 30 0;
#X connect 49 0 44 0;
#X connect 50 0 49 1;
#X connect 51 0 52 0;
#X connect 51 0 57 0;
#X connect 55 0 53 0;
#X connect 56 0 55 0;
#X connect 57 0 15 0;
#X connect 57 0 14 0;
#X connect 58 0 57 1;
#X connect 59 0 58 0;
#X connect 60 0 61 0;
#X connect 61 0 62 0;
#X connect 64 0 63 1;
#X connect 65 0 64 0;
#X connect 68 0 67 0;
#X connect 70 0 69 0;
#X connect 71 0 70 0;
#X connect 72 0 71 0;
#X connect 72 0 73 0;
#X connect 73 0 68 0;
#X connect 74 0 75 0;
#X connect 76 0 78 0;
#X connect 78 0 79 0;
#X connect 79 0 80 0;
#X connect 80 0 82 0;
#X connect 82 0 83 0;
#X connect 83 0 81 0;
