#N canvas 21 270 291 379 12;
#X obj 225 146 bng 15 250 50 0 \$0-resetpitch \$0-resetpitch z 17 7
0 10 -262144 -1 -1;
#X obj 307 253 r \$0-resetpitch;
#X msg 307 277 0.5;
#X obj 307 301 s \$1-pitch-rcv;
#X obj 12 164 paramH \$1 envmin;
#X obj 12 202 paramH \$1 spectrum;
#X obj 12 51 paramHrnd \$1 start;
#X obj 12 89 paramHrnd \$1 len;
#X obj 12 127 paramHrnd \$1 pitch;
#X obj 375 59 hsl 128 15 0 1 0 0 empty empty empty -2 -8 0 10 -262144
-1 -1 8429 1;
#X obj 310 222 s \$1-pan-rcv;
#X obj 372 110 s \$1-proba-rcv;
#N canvas 578 203 523 576 calcspeed 1;
#X obj 162 24 inlet;
#X obj 66 18 loadbang;
#X obj 72 277 mavg 20;
#X obj 72 302 mavg 20;
#X obj 66 131 t f f;
#X obj 66 100 f;
#X obj 66 70 metro 10;
#X obj 66 46 tgl 15 0 empty empty empty 17 7 0 10 -262144 -1 -1 1 1
;
#X obj 72 168 -;
#X obj 72 192 abs;
#X obj 72 481 outlet;
#X obj 72 375 * 100;
#X obj 72 408 clip 0 1;
#X obj 72 444 change;
#X obj 110 338 mavg 80;
#X obj 156 259 r voxProbaAvg;
#X floatatom 29 344 7 0 0 0 - - -;
#X obj 72 247 max 0;
#X floatatom 21 275 5 0 0 0 - - -;
#X obj 200 318 r voxProbaGain;
#X msg 149 171 5e-05;
#X obj 72 218 - 5e-05;
#X connect 0 0 5 1;
#X connect 1 0 7 0;
#X connect 2 0 3 0;
#X connect 3 0 11 0;
#X connect 4 0 8 1;
#X connect 4 1 8 0;
#X connect 5 0 4 0;
#X connect 6 0 5 0;
#X connect 7 0 6 0;
#X connect 8 0 9 0;
#X connect 9 0 21 0;
#X connect 11 0 12 0;
#X connect 12 0 13 0;
#X connect 13 0 10 0;
#X connect 14 0 11 0;
#X connect 15 0 2 1;
#X connect 15 0 3 1;
#X connect 17 0 2 0;
#X connect 19 0 11 1;
#X connect 20 0 21 1;
#X connect 21 0 17 0;
#X restore 372 81 pd calcspeed;
#N canvas 512 111 450 302 aps 0;
#X obj 116 31 apsubmaster \$1-presets MASTER \$1-p;
#X obj 71 125 apf;
#X obj 153 90 hradio 15 1 0 16 empty empty empty 0 -8 0 10 -4034 -1
-1 0;
#X obj 154 111 hradio 15 1 0 16 empty empty empty 0 -8 0 10 -258113
-1 -1 0;
#X msg 153 137 _all_ load \$1;
#X msg 275 163 _all_ store \$1;
#X obj 153 187 s \$1-presets-pattern-snd;
#X connect 2 0 4 0;
#X connect 3 0 5 0;
#X connect 4 0 6 0;
#X connect 5 0 6 0;
#X restore 309 32 pd aps;
#X obj 12 12 paramH \$1 proba 2;
#X obj 12 240 paramT \$1 auto 2;
#X obj 372 33 inlet;
#X obj 11 317 paramH \$1 hip;
#X obj 430 224 tgl 15 0 empty empty empty 17 7 0 10 -262144 -1 -1 0
1;
#X obj 310 196 spigot 1;
#X obj 405 189 == 0;
#X obj 405 166 r \$1-noautopan-snd;
#X obj 144 240 paramT \$1 noautopan;
#X obj 11 278 paramHrnd \$1 pan;
#X obj 310 166 r axlXYangle;
#X connect 1 0 2 0;
#X connect 2 0 3 0;
#X connect 9 0 12 0;
#X connect 12 0 11 0;
#X connect 16 0 9 0;
#X connect 19 0 10 0;
#X connect 20 0 19 1;
#X connect 21 0 20 0;
#X connect 24 0 19 0;
