#N canvas 1 81 450 300 12;
#X obj 122 49 t a b, f 12;
#X obj 203 72 i;
#X obj 203 120 mod 64;
#X obj 203 96 + 1;
#X obj 122 147 list prepend;
#X msg 247 87 0;
#X msg 280 86 64;
#X obj 122 25 r vox_play-\$1;
#X obj 122 171 s vox_play_n-\$1;
#X obj 119 208 clone vox 128 \$1;
#X connect 0 0 4 0;
#X connect 0 1 1 0;
#X connect 1 0 3 0;
#X connect 2 0 1 1;
#X connect 2 0 4 1;
#X connect 3 0 2 0;
#X connect 4 0 8 0;
#X connect 5 0 2 1;
#X connect 6 0 2 1;
#X connect 7 0 0 0;
