#N canvas 1 81 679 641 10;
#X declare -path moonlib;
#X obj 32 108 unpack f f f, f 28;
#X obj 32 70 spigot;
#X obj 102 17 r \$1-on-snd;
#X obj 208 10 r sensor\$2;
#X obj 208 31 sel 0;
#X msg 208 52 0;
#X obj 336 11 declare -path moonlib;
#X obj 304 51 r \$1-props;
#X obj 304 69 route \$2 -1;
#X obj 304 90 t a;
#N canvas 1 81 450 300 accum 0;
#X obj 91 17 inlet;
#X obj 91 58 t f f f, f 8;
#X obj 116 82 -;
#X obj 116 145 +;
#X obj 91 174 +;
#X msg 116 124 2;
#X msg 236 122 -2;
#X msg 230 43 0;
#X obj 116 103 moses -1.5;
#X obj 185 103 moses 1.5;
#X obj 145 145 f;
#X obj 91 37 / -180;
#X obj 230 23 inlet reset;
#X obj 91 195 outlet;
#X connect 0 0 11 0;
#X connect 1 0 4 0;
#X connect 1 1 2 1;
#X connect 1 2 2 0;
#X connect 2 0 8 0;
#X connect 3 0 10 0;
#X connect 4 0 13 0;
#X connect 5 0 3 0;
#X connect 6 0 3 0;
#X connect 7 0 10 0;
#X connect 8 0 5 0;
#X connect 8 1 9 0;
#X connect 9 1 6 0;
#X connect 10 0 3 1;
#X connect 10 0 4 1;
#X connect 11 0 1 0;
#X connect 12 0 7 0;
#X restore 33 164 pd accum;
#N canvas 1 81 450 300 accum 0;
#X obj 91 17 inlet;
#X obj 91 58 t f f f, f 8;
#X obj 116 82 -;
#X obj 116 145 +;
#X obj 91 174 +;
#X msg 116 124 2;
#X msg 236 122 -2;
#X msg 230 43 0;
#X obj 116 103 moses -1.5;
#X obj 185 103 moses 1.5;
#X obj 145 145 f;
#X obj 91 37 / -180;
#X obj 230 23 inlet reset;
#X obj 91 195 outlet;
#X connect 0 0 11 0;
#X connect 1 0 4 0;
#X connect 1 1 2 1;
#X connect 1 2 2 0;
#X connect 2 0 8 0;
#X connect 3 0 10 0;
#X connect 4 0 13 0;
#X connect 5 0 3 0;
#X connect 6 0 3 0;
#X connect 7 0 10 0;
#X connect 8 0 5 0;
#X connect 8 1 9 0;
#X connect 9 1 6 0;
#X connect 10 0 3 1;
#X connect 10 0 4 1;
#X connect 11 0 1 0;
#X connect 12 0 7 0;
#X restore 109 172 pd accum;
#N canvas 1 81 450 300 accum 0;
#X obj 91 17 inlet;
#X obj 91 58 t f f f, f 8;
#X obj 116 82 -;
#X obj 116 145 +;
#X obj 91 174 +;
#X msg 116 124 2;
#X msg 236 122 -2;
#X msg 230 43 0;
#X obj 116 103 moses -1.5;
#X obj 185 103 moses 1.5;
#X obj 145 145 f;
#X obj 91 37 / -180;
#X obj 230 23 inlet reset;
#X obj 91 195 outlet;
#X connect 0 0 11 0;
#X connect 1 0 4 0;
#X connect 1 1 2 1;
#X connect 1 2 2 0;
#X connect 2 0 8 0;
#X connect 3 0 10 0;
#X connect 4 0 13 0;
#X connect 5 0 3 0;
#X connect 6 0 3 0;
#X connect 7 0 10 0;
#X connect 8 0 5 0;
#X connect 8 1 9 0;
#X connect 9 1 6 0;
#X connect 10 0 3 1;
#X connect 10 0 4 1;
#X connect 11 0 1 0;
#X connect 12 0 7 0;
#X restore 181 172 pd accum;
#X obj 138 126 b;
#X obj 157 51 bng 15 250 50 0 empty empty empty 17 7 0 10 -262144 -1
-1;
#X obj 462 604 outlet~;
#X obj 462 473 hip~ 20;
#X obj 574 330 outlet;
#X msg 33 252 \$1 50;
#X obj 32 18 r EULER;
#X obj 32 39 route \$2;
#X obj 383 68 inlet;
#X obj 304 111 s \$0-props;
#X obj 305 135 r \$0-props;
#N canvas 694 117 450 300 hyst 0;
#X obj 85 29 inlet;
#X obj 130 227 outlet;
#X obj 85 50 moses;
#X obj 134 52 moses;
#X floatatom 39 21 5 0 0 0 - - -;
#X obj 85 88 f;
#X obj 108 113 + 0.1;
#X obj 191 95 f;
#X obj 191 118 - 0.1;
#X obj 244 24 inlet;
#X floatatom 38 150 5 0 0 0 - - -;
#X floatatom 236 152 5 0 0 0 - - -;
#X floatatom 123 135 5 0 0 0 - - -;
#X obj 121 91 t b f;
#X connect 0 0 2 0;
#X connect 2 0 5 0;
#X connect 2 1 3 0;
#X connect 3 1 7 0;
#X connect 4 0 2 0;
#X connect 5 0 2 1;
#X connect 5 0 6 0;
#X connect 5 0 1 0;
#X connect 6 0 3 1;
#X connect 7 0 8 0;
#X connect 7 0 3 1;
#X connect 8 0 2 1;
#X connect 8 0 1 0;
#X connect 9 0 8 1;
#X connect 9 0 13 0;
#X connect 13 0 6 0;
#X connect 13 1 6 1;
#X restore 33 231 pd hyst;
#X obj 305 156 route sensor gain hyst;
#X obj 462 574 *~;
#X obj 461 499 hip~ 5;
#X obj 462 551 lop~ 2000;
#X obj 490 574 r~ \$1-vol;
#X obj 109 194 * 1;
#X obj 33 273 line;
#X obj 33 296 * 5;
#X obj 33 323 wrap;
#X obj 33 344 t f f;
#X obj 36 369 -;
#X obj 36 413 moses 0.5;
#X obj 36 391 abs;
#X obj 280 426 b;
#X msg 280 470 0 \, 1 \$1;
#X obj 280 491 line~;
#X obj 279 556 mtof~;
#X obj 279 577 osc~, f 12;
#X obj 263 600 *~;
#X msg 338 510 0.25;
#X obj 200 534 vline~;
#X msg 200 513 1 1 \, 0 \$1 1;
#X obj 279 535 +~ 20;
#X obj 279 514 *~ 50;
#X obj 337 452 + 60;
#X obj 181 194 * 2;
#X obj 461 525 *~ 0.1;
#X obj 337 431 * -0.2;
#X obj 280 449 f 30;
#X msg 108 248 \$1 50;
#N canvas 694 117 450 300 hyst 0;
#X obj 85 29 inlet;
#X obj 130 227 outlet;
#X obj 85 50 moses;
#X obj 134 52 moses;
#X floatatom 39 21 5 0 0 0 - - -;
#X obj 85 88 f;
#X obj 108 113 + 0.1;
#X obj 191 95 f;
#X obj 191 118 - 0.1;
#X obj 244 24 inlet;
#X floatatom 38 150 5 0 0 0 - - -;
#X floatatom 236 152 5 0 0 0 - - -;
#X floatatom 123 135 5 0 0 0 - - -;
#X obj 121 91 t b f;
#X connect 0 0 2 0;
#X connect 2 0 5 0;
#X connect 2 1 3 0;
#X connect 3 1 7 0;
#X connect 4 0 2 0;
#X connect 5 0 2 1;
#X connect 5 0 6 0;
#X connect 5 0 1 0;
#X connect 6 0 3 1;
#X connect 7 0 8 0;
#X connect 7 0 3 1;
#X connect 8 0 2 1;
#X connect 8 0 1 0;
#X connect 9 0 8 1;
#X connect 9 0 13 0;
#X connect 13 0 6 0;
#X connect 13 1 6 1;
#X restore 108 227 pd hyst;
#X obj 108 269 line;
#X obj 108 292 * 5;
#X obj 108 319 wrap;
#X obj 108 340 t f f;
#X obj 111 365 -;
#X obj 111 409 moses 0.5;
#X obj 111 387 abs;
#X obj 101 473 b;
#X msg 181 246 \$1 50;
#N canvas 694 117 450 300 hyst 0;
#X obj 85 29 inlet;
#X obj 130 227 outlet;
#X obj 85 50 moses;
#X obj 134 52 moses;
#X floatatom 39 21 5 0 0 0 - - -;
#X obj 85 88 f;
#X obj 108 113 + 0.1;
#X obj 191 95 f;
#X obj 191 118 - 0.1;
#X obj 244 24 inlet;
#X floatatom 38 150 5 0 0 0 - - -;
#X floatatom 236 152 5 0 0 0 - - -;
#X floatatom 123 135 5 0 0 0 - - -;
#X obj 121 91 t b f;
#X connect 0 0 2 0;
#X connect 2 0 5 0;
#X connect 2 1 3 0;
#X connect 3 1 7 0;
#X connect 4 0 2 0;
#X connect 5 0 2 1;
#X connect 5 0 6 0;
#X connect 5 0 1 0;
#X connect 6 0 3 1;
#X connect 7 0 8 0;
#X connect 7 0 3 1;
#X connect 8 0 2 1;
#X connect 8 0 1 0;
#X connect 9 0 8 1;
#X connect 9 0 13 0;
#X connect 13 0 6 0;
#X connect 13 1 6 1;
#X restore 181 225 pd hyst;
#X obj 181 267 line;
#X obj 181 290 * 5;
#X obj 181 317 wrap;
#X obj 181 338 t f f;
#X obj 184 363 -;
#X obj 184 407 moses 0.5;
#X obj 184 385 abs;
#X connect 0 0 10 0;
#X connect 0 1 11 0;
#X connect 0 2 12 0;
#X connect 0 2 17 0;
#X connect 0 2 52 0;
#X connect 1 0 0 0;
#X connect 2 0 1 1;
#X connect 2 0 14 0;
#X connect 3 0 4 0;
#X connect 4 0 5 0;
#X connect 7 0 8 0;
#X connect 8 0 9 0;
#X connect 8 1 9 0;
#X connect 9 0 22 0;
#X connect 10 0 24 0;
#X connect 11 0 30 0;
#X connect 12 0 50 0;
#X connect 13 0 10 1;
#X connect 13 0 11 1;
#X connect 13 0 12 1;
#X connect 14 0 13 0;
#X connect 16 0 27 0;
#X connect 18 0 31 0;
#X connect 19 0 20 0;
#X connect 20 0 1 0;
#X connect 21 0 9 0;
#X connect 23 0 25 0;
#X connect 24 0 18 0;
#X connect 25 0 20 1;
#X connect 25 1 32 1;
#X connect 25 2 24 1;
#X connect 25 2 65 1;
#X connect 25 2 55 1;
#X connect 26 0 15 0;
#X connect 27 0 51 0;
#X connect 28 0 26 0;
#X connect 29 0 26 1;
#X connect 30 0 55 0;
#X connect 31 0 32 0;
#X connect 32 0 33 0;
#X connect 33 0 34 0;
#X connect 34 0 35 1;
#X connect 34 1 35 0;
#X connect 35 0 37 0;
#X connect 36 1 63 0;
#X connect 37 0 36 0;
#X connect 38 0 44 0;
#X connect 38 0 53 0;
#X connect 39 0 40 0;
#X connect 40 0 48 0;
#X connect 41 0 42 0;
#X connect 42 0 43 1;
#X connect 43 0 16 0;
#X connect 44 0 42 1;
#X connect 45 0 43 0;
#X connect 46 0 45 0;
#X connect 47 0 41 0;
#X connect 48 0 47 0;
#X connect 49 0 47 1;
#X connect 50 0 65 0;
#X connect 51 0 28 0;
#X connect 52 0 49 0;
#X connect 53 0 39 0;
#X connect 53 0 46 0;
#X connect 54 0 56 0;
#X connect 55 0 54 0;
#X connect 56 0 57 0;
#X connect 57 0 58 0;
#X connect 58 0 59 0;
#X connect 59 0 60 1;
#X connect 59 1 60 0;
#X connect 60 0 62 0;
#X connect 61 1 63 0;
#X connect 62 0 61 0;
#X connect 63 0 38 0;
#X connect 64 0 66 0;
#X connect 65 0 64 0;
#X connect 66 0 67 0;
#X connect 67 0 68 0;
#X connect 68 0 69 0;
#X connect 69 0 70 1;
#X connect 69 1 70 0;
#X connect 70 0 72 0;
#X connect 71 1 63 0;
#X connect 72 0 71 0;
