#N canvas 533 81 679 771 10;
#X declare -path moonlib;
#X obj 32 108 unpack f f f, f 28;
#X obj 32 70 spigot;
#X obj 102 17 r \$1-on-snd;
#X obj 208 10 r sensor\$2;
#X obj 208 31 sel 0;
#X msg 208 52 0;
#X obj 336 11 declare -path moonlib;
#X obj 304 51 r \$1-props;
#X obj 304 69 route \$2 -1;
#X obj 304 90 t a;
#X obj 352 204 route center gainRot lfoAmp;
#N canvas 1 81 450 300 accum 0;
#X obj 91 17 inlet;
#X obj 91 58 t f f f, f 8;
#X obj 116 82 -;
#X obj 116 145 +;
#X obj 91 174 +;
#X msg 116 124 2;
#X msg 236 122 -2;
#X msg 230 43 0;
#X obj 116 103 moses -1.5;
#X obj 185 103 moses 1.5;
#X obj 145 145 f;
#X obj 91 37 / -180;
#X obj 230 23 inlet reset;
#X obj 91 195 outlet;
#X connect 0 0 11 0;
#X connect 1 0 4 0;
#X connect 1 1 2 1;
#X connect 1 2 2 0;
#X connect 2 0 8 0;
#X connect 3 0 10 0;
#X connect 4 0 13 0;
#X connect 5 0 3 0;
#X connect 6 0 3 0;
#X connect 7 0 10 0;
#X connect 8 0 5 0;
#X connect 8 1 9 0;
#X connect 9 1 6 0;
#X connect 10 0 3 1;
#X connect 10 0 4 1;
#X connect 11 0 1 0;
#X connect 12 0 7 0;
#X restore 32 175 pd accum;
#N canvas 1 81 450 300 accum 0;
#X obj 91 17 inlet;
#X obj 91 58 t f f f, f 8;
#X obj 116 82 -;
#X obj 116 145 +;
#X obj 91 174 +;
#X msg 116 124 2;
#X msg 236 122 -2;
#X msg 230 43 0;
#X obj 116 103 moses -1.5;
#X obj 185 103 moses 1.5;
#X obj 145 145 f;
#X obj 91 37 / -180;
#X obj 230 23 inlet reset;
#X obj 91 195 outlet;
#X connect 0 0 11 0;
#X connect 1 0 4 0;
#X connect 1 1 2 1;
#X connect 1 2 2 0;
#X connect 2 0 8 0;
#X connect 3 0 10 0;
#X connect 4 0 13 0;
#X connect 5 0 3 0;
#X connect 6 0 3 0;
#X connect 7 0 10 0;
#X connect 8 0 5 0;
#X connect 8 1 9 0;
#X connect 9 1 6 0;
#X connect 10 0 3 1;
#X connect 10 0 4 1;
#X connect 11 0 1 0;
#X connect 12 0 7 0;
#X restore 97 175 pd accum;
#N canvas 1 81 450 300 accum 0;
#X obj 91 17 inlet;
#X obj 91 58 t f f f, f 8;
#X obj 116 82 -;
#X obj 116 145 +;
#X obj 91 174 +;
#X msg 116 124 2;
#X msg 236 122 -2;
#X msg 230 43 0;
#X obj 116 103 moses -1.5;
#X obj 185 103 moses 1.5;
#X obj 145 145 f;
#X obj 91 37 / -180;
#X obj 230 23 inlet reset;
#X obj 91 195 outlet;
#X connect 0 0 11 0;
#X connect 1 0 4 0;
#X connect 1 1 2 1;
#X connect 1 2 2 0;
#X connect 2 0 8 0;
#X connect 3 0 10 0;
#X connect 4 0 13 0;
#X connect 5 0 3 0;
#X connect 6 0 3 0;
#X connect 7 0 10 0;
#X connect 8 0 5 0;
#X connect 8 1 9 0;
#X connect 9 1 6 0;
#X connect 10 0 3 1;
#X connect 10 0 4 1;
#X connect 11 0 1 0;
#X connect 12 0 7 0;
#X restore 159 175 pd accum;
#X obj 138 126 b;
#X obj 157 51 bng 15 250 50 0 empty empty empty 17 7 0 10 #fcfcfc #000000
#000000;
#X obj 39 618 outlet~;
#X obj 39 487 hip~ 20;
#X obj 509 325 outlet;
#X msg 32 255 \$1 50;
#X obj 32 18 r EULER;
#X obj 32 39 route \$2;
#X obj 383 68 inlet;
#X obj 304 111 s \$0-props;
#X obj 305 135 r \$0-props;
#N canvas 694 117 450 300 hyst 0;
#X obj 85 29 inlet;
#X obj 130 227 outlet;
#X obj 85 50 moses;
#X obj 134 52 moses;
#X floatatom 39 21 5 0 0 0 - - - 0;
#X obj 85 88 f;
#X obj 108 113 + 0.1;
#X obj 191 95 f;
#X obj 191 118 - 0.1;
#X obj 244 24 inlet;
#X floatatom 38 150 5 0 0 0 - - - 0;
#X floatatom 236 152 5 0 0 0 - - - 0;
#X floatatom 123 135 5 0 0 0 - - - 0;
#X obj 121 91 t b f;
#X connect 0 0 2 0;
#X connect 2 0 5 0;
#X connect 2 1 3 0;
#X connect 3 1 7 0;
#X connect 4 0 2 0;
#X connect 5 0 2 1;
#X connect 5 0 6 0;
#X connect 5 0 1 0;
#X connect 6 0 3 1;
#X connect 7 0 8 0;
#X connect 7 0 3 1;
#X connect 8 0 2 1;
#X connect 8 0 1 0;
#X connect 9 0 8 1;
#X connect 9 0 13 0;
#X connect 13 0 6 0;
#X connect 13 1 6 1;
#X restore 32 227 pd hyst;
#X obj 305 156 route sensor gain hyst;
#X obj 39 588 *~;
#X obj 38 513 hip~ 5;
#X obj 39 565 lop~ 2000;
#X obj 67 588 r~ \$1-vol;
#X obj 97 197 * 1;
#X obj 32 276 line;
#X obj 32 299 * 5;
#X obj 32 326 wrap;
#X floatatom 269 456 5 0 0 0 - - - 0;
#X obj 32 347 t f f;
#X obj 35 372 -;
#X obj 35 416 moses 0.5;
#X obj 35 394 abs;
#X obj 232 437 b;
#X msg 232 479 0 \, 1 \$1;
#X obj 232 500 line~;
#X obj 231 565 mtof~;
#X obj 231 586 osc~, f 12;
#X obj 204 615 *~;
#X msg 290 519 0.25;
#X obj 140 525 vline~;
#X obj 231 544 +~ 20;
#X obj 159 198 * 2;
#X obj 328 502 noise~;
#X floatatom 391 510 5 0 0 0 - - - 0;
#X floatatom 430 500 5 0 0 0 - - - 0;
#X obj 430 520 mtof;
#X floatatom 430 541 5 0 0 0 - - - 0;
#X floatatom 371 322 5 0 0 0 - - - 0;
#X floatatom 287 487 5 0 0 0 - - - 0;
#X obj 336 302 * 0.4;
#X obj 328 523 *~ 120;
#X floatatom 389 550 5 0 0 0 - - - 0;
#X obj 327 546 bp~ 250 2;
#X obj 336 323 + 70;
#X obj 231 523 *~ 20;
#X msg 97 254 \$1 50;
#N canvas 694 117 450 300 hyst 0;
#X obj 85 29 inlet;
#X obj 130 227 outlet;
#X obj 85 50 moses;
#X obj 134 52 moses;
#X floatatom 39 21 5 0 0 0 - - - 0;
#X obj 85 88 f;
#X obj 108 113 + 0.1;
#X obj 191 95 f;
#X obj 191 118 - 0.1;
#X obj 244 24 inlet;
#X floatatom 38 150 5 0 0 0 - - - 0;
#X floatatom 236 152 5 0 0 0 - - - 0;
#X floatatom 123 135 5 0 0 0 - - - 0;
#X obj 121 91 t b f;
#X connect 0 0 2 0;
#X connect 2 0 5 0;
#X connect 2 1 3 0;
#X connect 3 1 7 0;
#X connect 4 0 2 0;
#X connect 5 0 2 1;
#X connect 5 0 6 0;
#X connect 5 0 1 0;
#X connect 6 0 3 1;
#X connect 7 0 8 0;
#X connect 7 0 3 1;
#X connect 8 0 2 1;
#X connect 8 0 1 0;
#X connect 9 0 8 1;
#X connect 9 0 13 0;
#X connect 13 0 6 0;
#X connect 13 1 6 1;
#X restore 97 226 pd hyst;
#X obj 97 275 line;
#X obj 97 298 * 5;
#X obj 97 325 wrap;
#X obj 97 346 t f f;
#X obj 100 371 -;
#X obj 100 415 moses 0.5;
#X obj 100 393 abs;
#X msg 160 254 \$1 50;
#N canvas 694 117 450 300 hyst 0;
#X obj 85 29 inlet;
#X obj 130 227 outlet;
#X obj 85 50 moses;
#X obj 134 52 moses;
#X floatatom 39 21 5 0 0 0 - - - 0;
#X obj 85 88 f;
#X obj 108 113 + 0.1;
#X obj 191 95 f;
#X obj 191 118 - 0.1;
#X obj 244 24 inlet;
#X floatatom 38 150 5 0 0 0 - - - 0;
#X floatatom 236 152 5 0 0 0 - - - 0;
#X floatatom 123 135 5 0 0 0 - - - 0;
#X obj 121 91 t b f;
#X connect 0 0 2 0;
#X connect 2 0 5 0;
#X connect 2 1 3 0;
#X connect 3 1 7 0;
#X connect 4 0 2 0;
#X connect 5 0 2 1;
#X connect 5 0 6 0;
#X connect 5 0 1 0;
#X connect 6 0 3 1;
#X connect 7 0 8 0;
#X connect 7 0 3 1;
#X connect 8 0 2 1;
#X connect 8 0 1 0;
#X connect 9 0 8 1;
#X connect 9 0 13 0;
#X connect 13 0 6 0;
#X connect 13 1 6 1;
#X restore 160 226 pd hyst;
#X obj 160 275 line;
#X obj 160 298 * 5;
#X obj 160 325 wrap;
#X obj 160 346 t f f;
#X obj 163 371 -;
#X obj 163 415 moses 0.5;
#X obj 163 393 abs;
#X obj 232 458 f 30;
#X msg 140 504 1 30 \, 0 \$1 30;
#X obj 38 539 *~ 0.12;
#X connect 0 0 11 0;
#X connect 0 1 12 0;
#X connect 0 2 13 0;
#X connect 0 2 18 0;
#X connect 0 2 57 0;
#X connect 1 0 0 0;
#X connect 2 0 1 1;
#X connect 2 0 15 0;
#X connect 3 0 4 0;
#X connect 4 0 5 0;
#X connect 7 0 8 0;
#X connect 8 0 9 0;
#X connect 8 1 9 0;
#X connect 9 0 23 0;
#X connect 11 0 25 0;
#X connect 12 0 31 0;
#X connect 13 0 49 0;
#X connect 14 0 11 1;
#X connect 14 0 12 1;
#X connect 14 0 13 1;
#X connect 15 0 14 0;
#X connect 17 0 28 0;
#X connect 19 0 32 0;
#X connect 20 0 21 0;
#X connect 21 0 1 0;
#X connect 22 0 9 0;
#X connect 24 0 26 0;
#X connect 25 0 19 0;
#X connect 26 0 21 1;
#X connect 26 1 33 1;
#X connect 26 2 25 1;
#X connect 26 2 64 1;
#X connect 26 2 73 1;
#X connect 27 0 16 0;
#X connect 28 0 83 0;
#X connect 29 0 27 0;
#X connect 30 0 27 1;
#X connect 31 0 64 0;
#X connect 32 0 33 0;
#X connect 33 0 34 0;
#X connect 34 0 36 0;
#X connect 35 0 81 1;
#X connect 36 0 37 1;
#X connect 36 1 37 0;
#X connect 37 0 39 0;
#X connect 38 1 40 0;
#X connect 39 0 38 0;
#X connect 40 0 46 0;
#X connect 40 0 81 0;
#X connect 41 0 42 0;
#X connect 42 0 62 0;
#X connect 43 0 44 0;
#X connect 44 0 45 1;
#X connect 45 0 17 0;
#X connect 46 0 44 1;
#X connect 47 0 45 0;
#X connect 48 0 43 0;
#X connect 49 0 73 0;
#X connect 50 0 58 0;
#X connect 51 0 58 1;
#X connect 52 0 53 0;
#X connect 53 0 54 0;
#X connect 54 0 60 1;
#X connect 55 0 61 1;
#X connect 56 0 62 1;
#X connect 57 0 61 0;
#X connect 58 0 60 0;
#X connect 59 0 60 2;
#X connect 60 0 43 0;
#X connect 61 0 48 1;
#X connect 62 0 48 0;
#X connect 63 0 65 0;
#X connect 64 0 63 0;
#X connect 65 0 66 0;
#X connect 66 0 67 0;
#X connect 67 0 68 0;
#X connect 68 0 69 1;
#X connect 68 1 69 0;
#X connect 69 0 71 0;
#X connect 70 1 40 0;
#X connect 71 0 70 0;
#X connect 72 0 74 0;
#X connect 73 0 72 0;
#X connect 74 0 75 0;
#X connect 75 0 76 0;
#X connect 76 0 77 0;
#X connect 77 0 78 1;
#X connect 77 1 78 0;
#X connect 78 0 80 0;
#X connect 79 1 40 0;
#X connect 80 0 79 0;
#X connect 81 0 41 0;
#X connect 81 0 82 0;
#X connect 82 0 47 0;
#X connect 83 0 29 0;
