#N canvas 190 254 980 681 10;
#X declare -lib pof;
#X obj 43 47 r headsets-data;
#X obj 43 71 route 1 2, f 10;
#X obj 43 113 headset_draw 1;
#X obj 40 18 declare -lib pof;
#X obj 16 134 pofhead;
#X obj 43 423 s headset_draw_pofhead;
#N canvas 1022 154 417 483 camera 0;
#X floatatom 94 352 5 0 0 0 - - -;
#X floatatom 133 93 5 0 0 0 - - -;
#X floatatom 118 62 5 0 0 0 - - -;
#X floatatom 207 131 5 0 0 0 - - -;
#X floatatom 64 62 5 0 0 0 - - -;
#X floatatom 116 253 5 0 0 0 - - -;
#X obj 30 381 pofscale 200 200 200;
#X obj 30 142 poftranslate 0 150 0;
#X floatatom 161 247 5 0 0 0 - - -;
#X msg 161 267 \$1 500;
#X obj 161 288 line;
#X floatatom 250 108 5 0 0 0 - - -;
#X obj 250 149 line;
#X obj 243 23 tgl 15 0 empty empty empty 17 7 0 10 -262144 -1 -1 0
1;
#X obj 250 45 metro 500;
#X msg 250 128 \$1 2000;
#X obj 250 66 random 40;
#X floatatom 215 285 5 0 0 0 - - -;
#X obj 215 326 line;
#X obj 218 198 tgl 15 0 empty empty empty 17 7 0 10 -262144 -1 -1 0
1;
#X obj 215 222 metro 500;
#X msg 215 305 \$1 2000;
#X obj 215 243 random 40;
#X obj 30 114 inlet;
#X obj 30 413 outlet;
#X msg 197 160 \$1 500;
#X obj 197 181 line;
#X obj 30 323 pofrotate x 180;
#X obj 250 87 - 40;
#X obj 215 264 + 170;
#X obj 30 289 pofrotate y 176;
#X obj 30 207 pofrotate x -20;
#X connect 0 0 6 1;
#X connect 0 0 6 2;
#X connect 0 0 6 3;
#X connect 1 0 7 3;
#X connect 2 0 7 2;
#X connect 3 0 25 0;
#X connect 4 0 7 1;
#X connect 5 0 30 1;
#X connect 6 0 24 0;
#X connect 7 0 31 0;
#X connect 8 0 9 0;
#X connect 9 0 10 0;
#X connect 10 0 30 1;
#X connect 11 0 15 0;
#X connect 12 0 31 1;
#X connect 13 0 14 0;
#X connect 14 0 16 0;
#X connect 15 0 12 0;
#X connect 16 0 28 0;
#X connect 17 0 21 0;
#X connect 18 0 30 1;
#X connect 19 0 20 0;
#X connect 20 0 22 0;
#X connect 21 0 18 0;
#X connect 22 0 29 0;
#X connect 23 0 7 0;
#X connect 25 0 26 0;
#X connect 26 0 31 1;
#X connect 27 0 6 0;
#X connect 28 0 11 0;
#X connect 29 0 17 0;
#X connect 30 0 27 0;
#X connect 31 0 30 0;
#X restore 43 295 pd camera;
#N canvas 787 161 583 427 floor 0;
#X obj 168 21 inlet;
#X obj 168 45 poftranslate;
#X obj 168 70 pofrotate x 90;
#X obj 168 116 t a a;
#X obj 168 195 poffill;
#X obj 305 168 pofcolor 0.2 0.2 0.2 1;
#X msg 75 155 linewidth 4;
#X obj 75 130 loadbang;
#X obj 305 192 pofrect 10 6;
#X obj 168 255 pofrect 10 6;
#X obj 349 84 tgl 15 0 empty empty empty 17 7 0 10 -262144 -1 -1 0
1;
#X obj 168 93 pofvisible 1;
#X obj 283 46 r draw_showfloor;
#X obj 258 258 pofvisible;
#X obj 276 317 pofrect 10 0.02;
#X obj 258 352 pofrect 0.02 6;
#X obj 274 227 tgl 15 0 empty empty empty 17 7 0 10 -262144 -1 -1 0
1;
#X obj 258 278 pofcolor 0.5 0.5 0.5 1;
#X obj 103 57 tgl 15 0 empty empty empty 17 7 0 10 -262144 -1 -1 0
1;
#X connect 0 0 1 0;
#X connect 1 0 2 0;
#X connect 2 0 11 0;
#X connect 3 0 4 0;
#X connect 3 0 13 0;
#X connect 3 1 5 0;
#X connect 4 0 9 0;
#X connect 5 0 8 0;
#X connect 6 0 4 0;
#X connect 7 0 6 0;
#X connect 10 0 5 4;
#X connect 11 0 3 0;
#X connect 12 0 11 0;
#X connect 13 0 17 0;
#X connect 16 0 13 0;
#X connect 17 0 14 0;
#X connect 17 0 15 0;
#X connect 18 0 11 0;
#X restore 186 422 pd floor;
#X obj 284 151 tgl 15 0 empty empty scene-draw 17 7 0 10 -262144 -1
-1 0 1;
#X obj 530 359 pofcolor 0.1 0.1 0.1 1;
#X obj 43 325 t a a;
#N canvas 150 554 633 321 mirror 0;
#X obj 102 168 poftexture \$0-fbo;
#X obj 76 44 inlet;
#X obj 102 238 pofquad 5 3;
#X obj 298 47 t b f;
#X msg 244 100 corner 0 \$1 \$2;
#X obj 428 45 t b f;
#X msg 380 98 corner 1 \$1 \$2;
#X obj 244 78 pack -200 -150;
#X obj 380 76 pack 200 -150;
#X obj 290 184 t b f;
#X obj 426 182 t b f;
#X msg 242 237 corner 3 \$1 \$2;
#X msg 378 235 corner 2 \$1 \$2;
#X obj 378 213 pack 200 150;
#X obj 242 215 pack -200 150;
#X obj 333 178 t a;
#X obj 298 30 nbx 5 14 -1e+37 1e+37 0 1 empty empty empty 0 -8 0 10
-262144 -1 -1 -1.5 256;
#X obj 239 29 nbx 5 14 -1e+37 1e+37 0 1 empty empty empty 0 -8 0 10
-262144 -1 -1 -2.5 256;
#X obj 428 28 nbx 5 14 -1e+37 1e+37 0 1 empty empty empty 0 -8 0 10
-262144 -1 -1 -1.5 256;
#X obj 369 27 nbx 5 14 -1e+37 1e+37 0 1 empty empty empty 0 -8 0 10
-262144 -1 -1 2.5 256;
#X obj 290 160 nbx 5 14 -1e+37 1e+37 0 1 empty empty empty 0 -8 0 10
-262144 -1 -1 1.5 256;
#X obj 231 159 nbx 5 14 -1e+37 1e+37 0 1 empty empty empty 0 -8 0 10
-262144 -1 -1 -2.5 256;
#X obj 426 158 nbx 5 14 -1e+37 1e+37 0 1 empty empty empty 0 -8 0 10
-262144 -1 -1 1.5 256;
#X obj 367 157 nbx 5 14 -1e+37 1e+37 0 1 empty empty empty 0 -8 0 10
-262144 -1 -1 2.5 256;
#X floatatom 195 63 5 0 0 0 - - -;
#X floatatom 156 38 5 0 0 0 - - -;
#X obj 76 139 pofrect 5 3;
#X floatatom 117 37 5 0 0 0 - - -;
#X obj 76 80 poftranslate 0 1.5 -1.5;
#X obj 76 111 pofrotate x 180;
#X connect 0 0 2 0;
#X connect 1 0 28 0;
#X connect 3 0 7 0;
#X connect 3 1 7 1;
#X connect 4 0 15 0;
#X connect 5 0 8 0;
#X connect 5 1 8 1;
#X connect 6 0 15 0;
#X connect 7 0 4 0;
#X connect 8 0 6 0;
#X connect 9 0 14 0;
#X connect 9 1 14 1;
#X connect 10 0 13 0;
#X connect 10 1 13 1;
#X connect 11 0 15 0;
#X connect 12 0 15 0;
#X connect 13 0 12 0;
#X connect 14 0 11 0;
#X connect 15 0 2 0;
#X connect 16 0 3 0;
#X connect 17 0 7 0;
#X connect 18 0 5 0;
#X connect 19 0 8 0;
#X connect 20 0 9 0;
#X connect 21 0 14 0;
#X connect 22 0 10 0;
#X connect 23 0 13 0;
#X connect 24 0 29 1;
#X connect 25 0 28 3;
#X connect 27 0 28 2;
#X connect 28 0 29 0;
#X connect 29 0 0 0;
#X restore 244 422 pd mirror;
#X obj 530 381 pofrect 4000 4000;
#X obj 155 341 t a a;
#X obj 43 350 t a a;
#X obj 43 265 pofvisible;
#X obj 379 394 pofvisible 1;
#X obj 43 386 pofvisible 1;
#X obj 147 152 tgl 15 0 empty empty fullscale/scene 17 7 0 10 -262144
-1 -1 0 1;
#X obj 388 364 == 0;
#X obj 71 92 headset_draw 2;
#N canvas 150 554 633 321 mirror2 0;
#X obj 76 44 inlet;
#X obj 102 275 pofquad 5 3;
#X obj 298 47 t b f;
#X msg 244 100 corner 0 \$1 \$2;
#X obj 428 45 t b f;
#X msg 380 98 corner 1 \$1 \$2;
#X obj 244 78 pack -200 -150;
#X obj 380 76 pack 200 -150;
#X obj 290 184 t b f;
#X obj 426 182 t b f;
#X msg 242 237 corner 3 \$1 \$2;
#X msg 378 235 corner 2 \$1 \$2;
#X obj 378 213 pack 200 150;
#X obj 242 215 pack -200 150;
#X obj 333 178 t a;
#X obj 298 30 nbx 5 14 -1e+37 1e+37 0 1 empty empty empty 0 -8 0 10
-262144 -1 -1 -1.5 256;
#X obj 239 29 nbx 5 14 -1e+37 1e+37 0 1 empty empty empty 0 -8 0 10
-262144 -1 -1 -2.49 256;
#X obj 428 28 nbx 5 14 -1e+37 1e+37 0 1 empty empty empty 0 -8 0 10
-262144 -1 -1 -1.5 256;
#X obj 369 27 nbx 5 14 -1e+37 1e+37 0 1 empty empty empty 0 -8 0 10
-262144 -1 -1 2.5 256;
#X obj 290 160 nbx 5 14 -1e+37 1e+37 0 1 empty empty empty 0 -8 0 10
-262144 -1 -1 1.5 256;
#X obj 231 159 nbx 5 14 -1e+37 1e+37 0 1 empty empty empty 0 -8 0 10
-262144 -1 -1 -2.5 256;
#X obj 426 158 nbx 5 14 -1e+37 1e+37 0 1 empty empty empty 0 -8 0 10
-262144 -1 -1 1.5 256;
#X obj 367 157 nbx 5 14 -1e+37 1e+37 0 1 empty empty empty 0 -8 0 10
-262144 -1 -1 2.5 256;
#X floatatom 177 119 5 0 0 0 - - -;
#X floatatom 204 36 5 0 0 0 - - -;
#X obj 76 176 pofrect 5 3;
#X floatatom 165 35 5 0 0 0 - - -;
#X obj 76 148 pofrotate x 180;
#X obj 76 114 pofrotate y 90;
#X floatatom 120 37 5 0 0 0 - - -;
#X obj 76 80 poftranslate -2.5 1.5 0;
#X obj 102 205 poftexture \$0-fbo2;
#X floatatom 37 95 5 0 0 0 - - -;
#X connect 0 0 30 0;
#X connect 2 0 6 0;
#X connect 2 1 6 1;
#X connect 3 0 14 0;
#X connect 4 0 7 0;
#X connect 4 1 7 1;
#X connect 5 0 14 0;
#X connect 6 0 3 0;
#X connect 7 0 5 0;
#X connect 8 0 13 0;
#X connect 8 1 13 1;
#X connect 9 0 12 0;
#X connect 9 1 12 1;
#X connect 10 0 14 0;
#X connect 11 0 14 0;
#X connect 12 0 11 0;
#X connect 13 0 10 0;
#X connect 14 0 1 0;
#X connect 15 0 2 0;
#X connect 16 0 6 0;
#X connect 17 0 4 0;
#X connect 18 0 7 0;
#X connect 19 0 8 0;
#X connect 20 0 13 0;
#X connect 21 0 9 0;
#X connect 22 0 12 0;
#X connect 23 0 27 1;
#X connect 24 0 30 3;
#X connect 26 0 30 2;
#X connect 27 0 31 0;
#X connect 28 0 27 0;
#X connect 29 0 30 1;
#X connect 30 0 28 0;
#X connect 31 0 1 0;
#X connect 32 0 28 1;
#X restore 306 421 pd mirror2;
#X obj 244 395 t a a;
#X obj 560 16 r #pofkey;
#X obj 560 37 route 267;
#X obj 560 58 sel 1;
#X obj 560 79 tgl 15 0 empty empty empty 17 7 0 10 -262144 -1 -1 0
1;
#X obj 560 213 pofwin;
#X obj 560 234 route window;
#X obj 560 255 spigot 1;
#X obj 560 168 list prepend window;
#X obj 560 147 list prepend 800 600;
#X obj 560 101 t f f;
#X obj 590 120 == 0;
#X obj 560 189 list trim;
#X obj 233 633 pofrect 1920 1200;
#X obj 16 179 t a a;
#X obj 16 465 pofvisible;
#X obj 49 446 tgl 15 0 empty empty empty 17 7 0 10 -262144 -1 -1 0
1;
#X msg 292 77 window 3840 1200 \, pos 1440 0;
#X floatatom 397 538 5 0 0 0 - - -;
#X msg 285 536 -960;
#X msg 324 532 960;
#X obj 233 574 poftranslate 960;
#X obj 233 603 pofcolor 0 1 0 1;
#X obj 16 625 pofrect 1920 1200;
#X obj 16 566 poftranslate -960;
#X obj 137 579 tgl 15 0 empty empty empty 17 7 0 10 -262144 -1 -1 0
1;
#X obj 350 588 tgl 15 0 empty empty empty 17 7 0 10 -262144 -1 -1 1
1;
#X obj 16 595 pofcolor 0 1 0 1;
#X obj 562 330 unpack f f f;
#X msg 575 308 \$1 \$1 \$1;
#X msg 575 287 0.1;
#X msg 604 286 1;
#X msg 280 36 window 3840 1200 \, pos 0 0;
#X obj 16 156 pofscale 1 1;
#X obj 76 136 f;
#X floatatom 108 141 5 0 0 0 - - -;
#X msg 190 117 1;
#X obj 633 212 tgl 15 0 empty empty empty 17 7 0 10 -262144 -1 -1 0
1;
#X msg 219 119 0.3;
#N canvas 566 120 691 574 camera-mirrorG 1;
#X floatatom 180 449 5 0 0 0 - - -;
#X floatatom 206 218 5 0 0 0 - - -;
#X floatatom 420 254 5 0 0 0 - - -;
#X floatatom 366 324 5 0 0 0 - - -;
#X obj 136 301 poftranslate 0 150 0, f 26;
#X floatatom 412 364 5 0 0 0 - - -;
#X msg 412 384 \$1 500;
#X obj 412 405 line;
#X floatatom 460 117 5 0 0 0 - - -;
#X obj 460 158 line;
#X obj 463 31 tgl 15 0 empty empty empty 17 7 0 10 -262144 -1 -1 0
1;
#X msg 460 137 \$1 2000;
#X floatatom 490 421 5 0 0 0 - - -;
#X obj 490 462 line;
#X obj 490 326 tgl 15 0 empty empty empty 17 7 0 10 -262144 -1 -1 0
1;
#X msg 490 441 \$1 2000;
#X obj 103 54 inlet;
#X obj 168 521 outlet;
#X msg 418 276 \$1 500;
#X obj 418 297 line;
#X obj 136 402 pofrotate x 180;
#X obj 103 76 t a a;
#X obj 130 105 pofcolor;
#X obj 130 217 pofrotate y;
#X obj 130 192 t a a, f 31;
#X obj 311 213 outlet bg;
#X obj 136 328 pofrotate x;
#X obj 136 366 pofrotate y;
#X obj 490 507 +;
#X obj 460 199 +;
#X obj 460 55 metro 1000;
#X obj 490 350 metro 1000;
#X obj 175 276 nbx 5 14 -1e+37 1e+37 0 1 empty empty empty 0 -8 0 10
-262144 -1 -1 31 256;
#X obj 234 276 nbx 5 14 -1e+37 1e+37 0 1 empty empty empty 0 -8 0 10
-262144 -1 -1 840 256;
#X obj 294 276 nbx 5 14 -1e+37 1e+37 0 1 empty empty empty 0 -8 0 10
-262144 -1 -1 12 256;
#X floatatom 507 111 5 0 0 0 - - -;
#X msg 202 61 quality \$1;
#X obj 201 26 tgl 15 0 empty empty empty 17 7 0 10 -262144 -1 -1 0
1;
#X obj 276 104 unpack f f;
#X msg 313 65 1024 1;
#X msg 342 40 512 0.5;
#X msg 362 63 2048 2;
#X obj 460 178 * 0.05;
#X obj 490 198 * 0.95;
#X obj 490 486 * 0.05;
#X obj 520 506 * 0.95;
#X obj 490 371 random 10;
#X obj 460 76 random 10;
#X msg 262 20 4096 4;
#X msg 384 123 1024 0.8;
#X msg 386 141 512 0.35;
#X obj 167 490 pofscale 100 100 100;
#X obj 490 391 + 85;
#X obj 460 97 - 20;
#X obj 355 274 nbx 5 14 -1e+37 1e+37 0 1 empty empty empty 0 -8 0 10
-262144 -1 -1 85 256;
#X msg 301 482 -100;
#X msg 5 307 0 210 1333 -95 -100;
#X msg 30 275 0 -20 0 85 100;
#X obj 180 246 unpack f f f f f, f 36;
#X obj 335 472 t f f;
#X obj 363 493 * -1;
#X obj 335 512 pack f f;
#X obj 216 450 unpack f f f;
#X floatatom 340 442 5 0 0 0 - - -;
#X msg 335 533 \$1 \$1 \$2;
#X obj 460 241 +;
#X obj 460 220 * 0.05;
#X obj 490 240 * 0.95;
#X obj 490 550 +;
#X obj 490 529 * 0.05;
#X obj 520 549 * 0.95;
#X obj 579 100 loadbang;
#X obj 577 127 b;
#X obj 276 348 nbx 5 14 -1e+37 1e+37 0 1 empty empty empty 0 -8 0 10
-262144 -1 -1 90 256;
#X obj 160 427 nbx 5 14 -1e+37 1e+37 0 1 empty empty empty 0 -8 0 10
-262144 -1 -1 64 256;
#X obj 219 427 nbx 5 14 -1e+37 1e+37 0 1 empty empty empty 0 -8 0 10
-262144 -1 -1 568 256;
#X obj 279 427 nbx 5 14 -1e+37 1e+37 0 1 empty empty empty 0 -8 0 10
-262144 -1 -1 317 256;
#X msg 305 137;
#X obj 130 134 poffbo \$0-fbo 2400 2048;
#X obj 130 162 pofscale 2 2;
#X connect 0 0 51 1;
#X connect 0 0 51 2;
#X connect 0 0 51 3;
#X connect 1 0 23 1;
#X connect 2 0 18 0;
#X connect 3 0 27 1;
#X connect 4 0 26 0;
#X connect 5 0 6 0;
#X connect 6 0 7 0;
#X connect 7 0 27 1;
#X connect 8 0 11 0;
#X connect 9 0 42 0;
#X connect 10 0 30 0;
#X connect 11 0 9 0;
#X connect 12 0 15 0;
#X connect 13 0 44 0;
#X connect 14 0 31 0;
#X connect 15 0 13 0;
#X connect 16 0 21 0;
#X connect 18 0 19 0;
#X connect 19 0 26 1;
#X connect 20 0 51 0;
#X connect 21 1 22 0;
#X connect 22 0 78 0;
#X connect 23 0 4 0;
#X connect 24 0 23 0;
#X connect 24 1 25 0;
#X connect 26 0 27 0;
#X connect 27 0 20 0;
#X connect 28 0 45 0;
#X connect 28 0 69 0;
#X connect 29 0 43 0;
#X connect 29 0 66 0;
#X connect 30 0 47 0;
#X connect 31 0 46 0;
#X connect 32 0 4 1;
#X connect 33 0 4 2;
#X connect 34 0 4 3;
#X connect 35 0 53 1;
#X connect 36 0 78 0;
#X connect 37 0 36 0;
#X connect 38 0 78 1;
#X connect 38 0 78 2;
#X connect 38 1 79 1;
#X connect 38 1 79 2;
#X connect 39 0 38 0;
#X connect 40 0 38 0;
#X connect 41 0 38 0;
#X connect 42 0 29 0;
#X connect 43 0 29 1;
#X connect 44 0 28 0;
#X connect 45 0 28 1;
#X connect 46 0 52 0;
#X connect 47 0 53 0;
#X connect 48 0 38 0;
#X connect 49 0 38 0;
#X connect 50 0 38 0;
#X connect 51 0 17 0;
#X connect 52 0 12 0;
#X connect 53 0 8 0;
#X connect 54 0 52 1;
#X connect 55 0 51 3;
#X connect 56 0 58 0;
#X connect 57 0 58 0;
#X connect 58 0 32 0;
#X connect 58 1 33 0;
#X connect 58 2 34 0;
#X connect 58 3 54 0;
#X connect 58 4 51 3;
#X connect 59 0 61 0;
#X connect 59 1 60 0;
#X connect 60 0 61 1;
#X connect 61 0 64 0;
#X connect 62 0 51 1;
#X connect 62 1 51 2;
#X connect 62 2 51 3;
#X connect 63 0 59 0;
#X connect 64 0 62 0;
#X connect 65 0 67 0;
#X connect 65 0 26 1;
#X connect 66 0 65 0;
#X connect 67 0 65 1;
#X connect 68 0 70 0;
#X connect 68 0 27 1;
#X connect 69 0 68 0;
#X connect 70 0 68 1;
#X connect 72 0 14 0;
#X connect 72 0 10 0;
#X connect 73 0 27 1;
#X connect 74 0 51 1;
#X connect 75 0 51 2;
#X connect 76 0 51 3;
#X connect 78 0 79 0;
#X connect 79 0 24 0;
#X restore 89 231 pd camera-mirrorG;
#N canvas 533 249 830 626 camera-mirrorD 1;
#X floatatom 223 460 5 0 0 0 - - -;
#X floatatom 206 218 5 0 0 0 - - -;
#X floatatom 434 272 5 0 0 0 - - -;
#X floatatom 366 324 5 0 0 0 - - -;
#X obj 136 301 poftranslate 0 150 0;
#X floatatom 412 364 5 0 0 0 - - -;
#X msg 412 384 \$1 500;
#X obj 412 405 line;
#X floatatom 442 117 5 0 0 0 - - -;
#X obj 442 158 line;
#X obj 445 27 tgl 15 0 empty empty empty 17 7 0 10 -262144 -1 -1 0
1;
#X msg 442 137 \$1 2000;
#X floatatom 490 421 5 0 0 0 - - -;
#X obj 490 462 line;
#X obj 490 326 tgl 15 0 empty empty empty 17 7 0 10 -262144 -1 -1 0
1;
#X msg 490 441 \$1 2000;
#X obj 103 54 inlet;
#X obj 168 521 outlet;
#X msg 435 292 \$1 500;
#X obj 435 313 line;
#X obj 136 402 pofrotate x 180;
#X obj 103 76 t a a;
#X obj 130 105 pofcolor;
#X obj 130 217 pofrotate y;
#X obj 130 192 t a a, f 31;
#X obj 311 213 outlet bg;
#X obj 136 328 pofrotate x;
#X obj 490 507 +;
#X obj 442 199 +;
#X obj 442 51 metro 1000;
#X obj 490 350 metro 1000;
#X obj 177 279 nbx 5 14 -1e+37 1e+37 0 1 empty empty empty 0 -8 0 10
-262144 -1 -1 79 256;
#X obj 236 279 nbx 5 14 -1e+37 1e+37 0 1 empty empty empty 0 -8 0 10
-262144 -1 -1 861 256;
#X obj 296 279 nbx 5 14 -1e+37 1e+37 0 1 empty empty empty 0 -8 0 10
-262144 -1 -1 0 256;
#X floatatom 489 107 5 0 0 0 - - -;
#X msg 233 69 quality \$1;
#X obj 232 34 tgl 15 0 empty empty empty 17 7 0 10 -262144 -1 -1 0
1;
#X obj 276 104 unpack f f;
#X msg 313 65 1024 1;
#X msg 342 40 512 0.5;
#X msg 362 63 2048 2;
#X floatatom 242 437 5 0 0 0 - - -;
#X obj 144 437 pofrotate y 90;
#X obj 490 486 * 0.05;
#X obj 520 506 * 0.95;
#X obj 442 178 * 0.05;
#X obj 472 198 * 0.95;
#X obj 490 371 random 10;
#X obj 442 72 random 10;
#X obj 442 93 - 40;
#X obj 490 391 - 85;
#X obj 350 278 nbx 5 14 -1e+37 1e+37 0 1 empty empty empty 0 -8 0 10
-262144 -1 -1 85 256;
#X obj 180 253 unpack f f f f f, f 29;
#X msg 31 275 0 46 0 85 100;
#X msg 18 305 0 280 544 -85 -100;
#X msg 273 552 -200;
#X obj 362 477 t f f;
#X obj 362 517 pack f f;
#X msg 362 538 \$2 \$1 \$1;
#X obj 258 458 unpack f f f;
#X floatatom 367 447 5 0 0 0 - - -;
#X obj 489 549 +;
#X obj 489 528 * 0.05;
#X obj 519 548 * 0.95;
#X obj 442 241 +;
#X obj 442 220 * 0.05;
#X obj 472 240 * 0.95;
#X floatatom 560 283 5 0 0 0 - - -;
#X obj 130 133 poffbo \$0-fbo2 2400 2048;
#X obj 130 162 pofscale 2 2;
#X obj 580 98 loadbang;
#X obj 579 126 b;
#X obj 390 498 * 1;
#X obj 134 364 pofrotate y -90;
#X floatatom 332 587 5 0 0 0 - - -;
#X floatatom 212 573 5 0 0 0 - - -;
#X obj 168 489 pofscale 230 610 100;
#X floatatom 301 522 5 0 0 0 - - -;
#X obj 130 593 nbx 5 14 -1e+37 1e+37 0 1 empty empty empty 0 -8 0 10
-262144 -1 -1 265 256;
#X obj 189 593 nbx 5 14 -1e+37 1e+37 0 1 empty empty empty 0 -8 0 10
-262144 -1 -1 615 256;
#X obj 249 593 nbx 5 14 -1e+37 1e+37 0 1 empty empty empty 0 -8 0 10
-262144 -1 -1 106 256;
#X connect 0 0 76 1;
#X connect 0 0 76 2;
#X connect 0 0 76 3;
#X connect 1 0 23 1;
#X connect 2 0 18 0;
#X connect 3 0 73 1;
#X connect 4 0 26 0;
#X connect 5 0 6 0;
#X connect 6 0 7 0;
#X connect 7 0 73 1;
#X connect 8 0 11 0;
#X connect 9 0 45 0;
#X connect 10 0 29 0;
#X connect 11 0 9 0;
#X connect 12 0 15 0;
#X connect 13 0 43 0;
#X connect 14 0 30 0;
#X connect 15 0 13 0;
#X connect 16 0 21 0;
#X connect 18 0 19 0;
#X connect 19 0 26 1;
#X connect 20 0 42 0;
#X connect 21 1 22 0;
#X connect 22 0 68 0;
#X connect 23 0 4 0;
#X connect 24 0 23 0;
#X connect 24 1 25 0;
#X connect 26 0 73 0;
#X connect 27 0 44 0;
#X connect 27 0 62 0;
#X connect 28 0 46 0;
#X connect 28 0 65 0;
#X connect 29 0 48 0;
#X connect 30 0 47 0;
#X connect 31 0 4 1;
#X connect 32 0 4 2;
#X connect 33 0 4 3;
#X connect 34 0 49 1;
#X connect 35 0 68 0;
#X connect 36 0 35 0;
#X connect 37 0 68 1;
#X connect 37 0 68 2;
#X connect 37 1 69 1;
#X connect 37 1 69 2;
#X connect 38 0 37 0;
#X connect 39 0 37 0;
#X connect 40 0 37 0;
#X connect 41 0 42 1;
#X connect 42 0 76 0;
#X connect 43 0 27 0;
#X connect 44 0 27 1;
#X connect 45 0 28 0;
#X connect 46 0 28 1;
#X connect 47 0 50 0;
#X connect 48 0 49 0;
#X connect 49 0 8 0;
#X connect 50 0 12 0;
#X connect 51 0 50 1;
#X connect 52 0 31 0;
#X connect 52 1 32 0;
#X connect 52 2 33 0;
#X connect 52 3 51 0;
#X connect 52 4 76 1;
#X connect 53 0 52 0;
#X connect 54 0 52 0;
#X connect 55 0 76 1;
#X connect 56 0 57 0;
#X connect 56 1 72 0;
#X connect 57 0 58 0;
#X connect 58 0 59 0;
#X connect 59 0 76 1;
#X connect 59 1 76 2;
#X connect 59 2 76 3;
#X connect 60 0 56 0;
#X connect 61 0 63 0;
#X connect 61 0 73 1;
#X connect 62 0 61 0;
#X connect 63 0 61 1;
#X connect 64 0 66 0;
#X connect 64 0 26 1;
#X connect 65 0 64 0;
#X connect 66 0 64 1;
#X connect 68 0 69 0;
#X connect 69 0 24 0;
#X connect 71 0 14 0;
#X connect 71 0 10 0;
#X connect 72 0 57 1;
#X connect 73 0 20 0;
#X connect 74 0 76 2;
#X connect 75 0 76 1;
#X connect 76 0 17 0;
#X connect 77 0 76 3;
#X connect 78 0 76 1;
#X connect 79 0 76 2;
#X connect 80 0 76 3;
#X restore 199 232 pd camera-mirrorD;
#N canvas 734 144 691 574 camera-mirrorHG 1;
#X floatatom 180 449 5 0 0 0 - - -;
#X floatatom 206 218 5 0 0 0 - - -;
#X floatatom 420 254 5 0 0 0 - - -;
#X floatatom 366 324 5 0 0 0 - - -;
#X obj 136 301 poftranslate 0 150 0, f 26;
#X floatatom 412 364 5 0 0 0 - - -;
#X msg 412 384 \$1 500;
#X obj 412 405 line;
#X floatatom 460 117 5 0 0 0 - - -;
#X obj 460 158 line;
#X obj 463 31 tgl 15 0 empty empty empty 17 7 0 10 -262144 -1 -1 0
1;
#X msg 460 137 \$1 2000;
#X floatatom 490 421 5 0 0 0 - - -;
#X obj 490 462 line;
#X obj 490 326 tgl 15 0 empty empty empty 17 7 0 10 -262144 -1 -1 0
1;
#X msg 490 441 \$1 2000;
#X obj 103 54 inlet;
#X obj 168 521 outlet;
#X msg 418 276 \$1 500;
#X obj 418 297 line;
#X obj 103 76 t a a;
#X obj 130 105 pofcolor;
#X obj 130 217 pofrotate y;
#X obj 130 192 t a a, f 31;
#X obj 311 213 outlet bg;
#X obj 136 356 pofrotate x;
#X obj 490 507 +;
#X obj 460 199 +;
#X obj 460 55 metro 1000;
#X obj 490 350 metro 1000;
#X obj 175 276 nbx 5 14 -1e+37 1e+37 0 1 empty empty empty 0 -8 0 10
-262144 -1 -1 -144 256;
#X obj 234 276 nbx 5 14 -1e+37 1e+37 0 1 empty empty empty 0 -8 0 10
-262144 -1 -1 886 256;
#X obj 294 276 nbx 5 14 -1e+37 1e+37 0 1 empty empty empty 0 -8 0 10
-262144 -1 -1 9 256;
#X floatatom 507 111 5 0 0 0 - - -;
#X msg 202 61 quality \$1;
#X obj 201 26 tgl 15 0 empty empty empty 17 7 0 10 -262144 -1 -1 0
1;
#X obj 276 104 unpack f f;
#X msg 313 65 1024 1;
#X msg 342 40 512 0.5;
#X msg 362 63 2048 2;
#X obj 130 162 pofscale 2 2;
#X obj 460 178 * 0.05;
#X obj 490 198 * 0.95;
#X obj 490 486 * 0.05;
#X obj 520 506 * 0.95;
#X obj 490 371 random 10;
#X obj 460 76 random 10;
#X msg 262 20 4096 4;
#X msg 384 123 1024 0.8;
#X msg 386 141 512 0.35;
#X obj 167 490 pofscale 100 100 100;
#X obj 490 391 + 85;
#X obj 460 97 - 20;
#X obj 355 274 nbx 5 14 -1e+37 1e+37 0 1 empty empty empty 0 -8 0 10
-262144 -1 -1 -95 256;
#X msg 301 482 -100;
#X msg 5 307 0 210 1333 -95 -100;
#X msg 30 275 0 -20 0 85 100;
#X obj 180 246 unpack f f f f f, f 36;
#X obj 335 472 t f f;
#X obj 363 493 * -1;
#X obj 335 512 pack f f;
#X obj 216 450 unpack f f f;
#X floatatom 340 442 5 0 0 0 - - -;
#X msg 335 533 \$1 \$1 \$2;
#X obj 460 241 +;
#X obj 460 220 * 0.05;
#X obj 490 240 * 0.95;
#X obj 490 550 +;
#X obj 490 529 * 0.05;
#X obj 520 549 * 0.95;
#X obj 130 134 poffbo \$0-fboHG 2400 2048;
#X obj 136 394 pofrotate y;
#X floatatom 275 389 5 0 0 0 - - -;
#X obj 585 104 loadbang;
#X obj 579 126 b;
#X obj 194 331 nbx 5 14 -1e+37 1e+37 0 1 empty empty empty 0 -8 0 10
-262144 -1 -1 -90 256;
#X obj 288 339 nbx 5 14 -1e+37 1e+37 0 1 empty empty empty 0 -8 0 10
-262144 -1 -1 -90 256;
#X obj 159 427 nbx 5 14 -1e+37 1e+37 0 1 empty empty empty 0 -8 0 10
-262144 -1 -1 513 256;
#X obj 218 427 nbx 5 14 -1e+37 1e+37 0 1 empty empty empty 0 -8 0 10
-262144 -1 -1 17 256;
#X obj 278 427 nbx 5 14 -1e+37 1e+37 0 1 empty empty empty 0 -8 0 10
-262144 -1 -1 401 256;
#X connect 0 0 50 1;
#X connect 0 0 50 2;
#X connect 0 0 50 3;
#X connect 1 0 22 1;
#X connect 2 0 18 0;
#X connect 4 0 25 0;
#X connect 5 0 6 0;
#X connect 6 0 7 0;
#X connect 8 0 11 0;
#X connect 9 0 41 0;
#X connect 10 0 28 0;
#X connect 11 0 9 0;
#X connect 12 0 15 0;
#X connect 13 0 43 0;
#X connect 14 0 29 0;
#X connect 15 0 13 0;
#X connect 16 0 20 0;
#X connect 18 0 19 0;
#X connect 20 1 21 0;
#X connect 21 0 70 0;
#X connect 22 0 4 0;
#X connect 23 0 22 0;
#X connect 23 1 24 0;
#X connect 25 0 71 0;
#X connect 26 0 44 0;
#X connect 26 0 68 0;
#X connect 27 0 42 0;
#X connect 27 0 65 0;
#X connect 28 0 46 0;
#X connect 29 0 45 0;
#X connect 30 0 4 1;
#X connect 31 0 4 2;
#X connect 32 0 4 3;
#X connect 33 0 52 1;
#X connect 34 0 70 0;
#X connect 35 0 34 0;
#X connect 36 0 70 1;
#X connect 36 0 70 2;
#X connect 36 1 40 1;
#X connect 36 1 40 2;
#X connect 37 0 36 0;
#X connect 38 0 36 0;
#X connect 39 0 36 0;
#X connect 40 0 23 0;
#X connect 41 0 27 0;
#X connect 42 0 27 1;
#X connect 43 0 26 0;
#X connect 44 0 26 1;
#X connect 45 0 51 0;
#X connect 46 0 52 0;
#X connect 47 0 36 0;
#X connect 48 0 36 0;
#X connect 49 0 36 0;
#X connect 50 0 17 0;
#X connect 51 0 12 0;
#X connect 52 0 8 0;
#X connect 53 0 51 1;
#X connect 54 0 50 3;
#X connect 55 0 57 0;
#X connect 56 0 57 0;
#X connect 57 0 30 0;
#X connect 57 1 31 0;
#X connect 57 2 32 0;
#X connect 57 3 53 0;
#X connect 57 4 50 3;
#X connect 58 0 60 0;
#X connect 58 1 59 0;
#X connect 59 0 60 1;
#X connect 60 0 63 0;
#X connect 61 0 50 1;
#X connect 61 1 50 2;
#X connect 61 2 50 3;
#X connect 62 0 58 0;
#X connect 63 0 61 0;
#X connect 64 0 66 0;
#X connect 65 0 64 0;
#X connect 66 0 64 1;
#X connect 67 0 69 0;
#X connect 68 0 67 0;
#X connect 69 0 67 1;
#X connect 70 0 40 0;
#X connect 71 0 50 0;
#X connect 74 0 14 0;
#X connect 74 0 10 0;
#X connect 75 0 25 1;
#X connect 76 0 71 1;
#X connect 77 0 50 1;
#X connect 78 0 50 2;
#X connect 79 0 50 3;
#X restore 314 232 pd camera-mirrorHG;
#N canvas 28 199 830 626 camera-mirrorHD 0;
#X floatatom 223 460 5 0 0 0 - - -;
#X floatatom 206 218 5 0 0 0 - - -;
#X floatatom 434 272 5 0 0 0 - - -;
#X floatatom 366 324 5 0 0 0 - - -;
#X obj 136 301 poftranslate 0 150 0;
#X floatatom 412 364 5 0 0 0 - - -;
#X msg 412 384 \$1 500;
#X obj 412 405 line;
#X floatatom 442 117 5 0 0 0 - - -;
#X obj 442 158 line;
#X obj 445 27 tgl 15 0 empty empty empty 17 7 0 10 -262144 -1 -1 0
1;
#X msg 442 137 \$1 2000;
#X floatatom 490 421 5 0 0 0 - - -;
#X obj 490 462 line;
#X obj 490 326 tgl 15 0 empty empty empty 17 7 0 10 -262144 -1 -1 0
1;
#X msg 490 441 \$1 2000;
#X obj 103 54 inlet;
#X obj 168 521 outlet;
#X msg 435 292 \$1 500;
#X obj 435 313 line;
#X obj 103 76 t a a;
#X obj 130 105 pofcolor;
#X obj 130 217 pofrotate y;
#X obj 130 192 t a a, f 31;
#X obj 311 213 outlet bg;
#X obj 189 341 pofrotate x;
#X obj 490 507 +;
#X obj 442 199 +;
#X obj 442 51 metro 1000;
#X obj 490 350 metro 1000;
#X obj 177 279 nbx 5 14 -1e+37 1e+37 0 1 empty empty empty 0 -8 0 10
-262144 -1 -1 315 256;
#X obj 236 279 nbx 5 14 -1e+37 1e+37 0 1 empty empty empty 0 -8 0 10
-262144 -1 -1 -85 256;
#X obj 296 279 nbx 5 14 -1e+37 1e+37 0 1 empty empty empty 0 -8 0 10
-262144 -1 -1 873 256;
#X floatatom 489 107 5 0 0 0 - - -;
#X msg 233 69 quality \$1;
#X obj 232 34 tgl 15 0 empty empty empty 17 7 0 10 -262144 -1 -1 0
1;
#X obj 276 104 unpack f f;
#X msg 313 65 1024 1;
#X msg 342 40 512 0.5;
#X msg 362 63 2048 2;
#X floatatom 242 437 5 0 0 0 - - -;
#X obj 490 486 * 0.05;
#X obj 520 506 * 0.95;
#X obj 442 178 * 0.05;
#X obj 472 198 * 0.95;
#X obj 490 371 random 10;
#X obj 442 72 random 10;
#X obj 442 93 - 40;
#X obj 168 489 pofscale 100 100 100;
#X obj 195 370 pofrotate y -90;
#X obj 490 391 - 85;
#X obj 350 278 nbx 5 14 -1e+37 1e+37 0 1 empty empty empty 0 -8 0 10
-262144 -1 -1 -85 256;
#X obj 180 253 unpack f f f f f, f 29;
#X msg 31 275 0 46 0 85 100;
#X msg 18 305 0 280 544 -85 -100;
#X msg 273 552 -200;
#X obj 335 472 t f f;
#X obj 363 493 * -1;
#X obj 335 512 pack f f;
#X msg 335 533 \$2 \$1 \$1;
#X obj 258 458 unpack f f f;
#X floatatom 340 442 5 0 0 0 - - -;
#X obj 489 549 +;
#X obj 489 528 * 0.05;
#X obj 519 548 * 0.95;
#X obj 442 241 +;
#X obj 442 220 * 0.05;
#X obj 472 240 * 0.95;
#X floatatom 560 283 5 0 0 0 - - -;
#X obj 130 162 pofscale 2 2;
#X obj 130 133 poffbo \$0-fboHD 2400 2048;
#X obj 144 437 pofrotate y 180;
#X obj 136 402 pofrotate x -90;
#X floatatom 290 520 5 0 0 0 - - -;
#X floatatom 232 568 5 0 0 0 - - -;
#X floatatom 187 586 5 0 0 0 - - -;
#X obj 579 126 b;
#X obj 580 94 loadbang;
#X obj 249 402 nbx 5 14 -1e+37 1e+37 0 1 empty empty empty 0 -8 0 10
-262144 -1 -1 -90 256;
#X obj 226 602 nbx 5 14 -1e+37 1e+37 0 1 empty empty empty 0 -8 0 10
-262144 -1 -1 213 256;
#X obj 285 602 nbx 5 14 -1e+37 1e+37 0 1 empty empty empty 0 -8 0 10
-262144 -1 -1 238 256;
#X obj 345 602 nbx 5 14 -1e+37 1e+37 0 1 empty empty empty 0 -8 0 10
-262144 -1 -1 244 256;
#X connect 0 0 48 1;
#X connect 0 0 48 2;
#X connect 0 0 48 3;
#X connect 1 0 22 1;
#X connect 2 0 18 0;
#X connect 3 0 49 1;
#X connect 4 0 72 0;
#X connect 5 0 6 0;
#X connect 6 0 7 0;
#X connect 7 0 49 1;
#X connect 8 0 11 0;
#X connect 9 0 43 0;
#X connect 10 0 28 0;
#X connect 11 0 9 0;
#X connect 12 0 15 0;
#X connect 13 0 41 0;
#X connect 14 0 29 0;
#X connect 15 0 13 0;
#X connect 16 0 20 0;
#X connect 18 0 19 0;
#X connect 19 0 25 1;
#X connect 20 1 21 0;
#X connect 21 0 70 0;
#X connect 22 0 4 0;
#X connect 23 0 22 0;
#X connect 23 1 24 0;
#X connect 26 0 42 0;
#X connect 26 0 63 0;
#X connect 27 0 44 0;
#X connect 27 0 66 0;
#X connect 28 0 46 0;
#X connect 29 0 45 0;
#X connect 30 0 4 1;
#X connect 31 0 4 2;
#X connect 32 0 4 3;
#X connect 33 0 47 1;
#X connect 34 0 70 0;
#X connect 35 0 34 0;
#X connect 36 0 70 1;
#X connect 36 0 70 2;
#X connect 36 1 69 1;
#X connect 36 1 69 2;
#X connect 37 0 36 0;
#X connect 38 0 36 0;
#X connect 39 0 36 0;
#X connect 40 0 71 1;
#X connect 41 0 26 0;
#X connect 42 0 26 1;
#X connect 43 0 27 0;
#X connect 44 0 27 1;
#X connect 45 0 50 0;
#X connect 46 0 47 0;
#X connect 47 0 8 0;
#X connect 48 0 17 0;
#X connect 50 0 12 0;
#X connect 51 0 50 1;
#X connect 52 0 30 0;
#X connect 52 1 31 0;
#X connect 52 2 32 0;
#X connect 52 3 51 0;
#X connect 52 4 48 1;
#X connect 53 0 52 0;
#X connect 54 0 52 0;
#X connect 55 0 48 1;
#X connect 56 0 58 0;
#X connect 56 1 57 0;
#X connect 57 0 58 1;
#X connect 58 0 59 0;
#X connect 59 0 60 0;
#X connect 60 0 48 1;
#X connect 60 1 48 2;
#X connect 60 2 48 3;
#X connect 61 0 56 0;
#X connect 62 0 64 0;
#X connect 63 0 62 0;
#X connect 64 0 62 1;
#X connect 65 0 67 0;
#X connect 66 0 65 0;
#X connect 67 0 65 1;
#X connect 69 0 23 0;
#X connect 70 0 69 0;
#X connect 71 0 48 0;
#X connect 72 0 71 0;
#X connect 73 0 48 3;
#X connect 74 0 48 2;
#X connect 75 0 48 1;
#X connect 76 0 14 0;
#X connect 76 0 10 0;
#X connect 77 0 76 0;
#X connect 78 0 72 1;
#X connect 79 0 48 1;
#X connect 80 0 48 2;
#X connect 81 0 48 3;
#X restore 428 232 pd camera-mirrorHD;
#X obj 43 200 t a a a a a, f 52;
#N canvas 123 328 633 523 mirror-fs-G 0;
#X obj 44 132 inlet;
#X obj 95 338 pofquad 5 3;
#X obj 291 147 t b f;
#X obj 421 145 t b f;
#X obj 237 178 pack -200 -150;
#X obj 373 176 pack 200 -150;
#X obj 283 284 t b f;
#X obj 419 282 t b f;
#X obj 371 313 pack 200 150;
#X obj 235 315 pack -200 150;
#X obj 326 278 t a;
#X obj 291 130 nbx 5 14 -1e+37 1e+37 0 1 empty empty empty 0 -8 0 10
-262144 -1 -1 -519 256;
#X obj 232 129 nbx 5 14 -1e+37 1e+37 0 1 empty empty empty 0 -8 0 10
-262144 -1 -1 -1857 256;
#X obj 421 128 nbx 5 14 -1e+37 1e+37 0 1 empty empty empty 0 -8 0 10
-262144 -1 -1 -523 256;
#X obj 362 127 nbx 5 14 -1e+37 1e+37 0 1 empty empty empty 0 -8 0 10
-262144 -1 -1 -181 256;
#X obj 283 260 nbx 5 14 -1e+37 1e+37 0 1 empty empty empty 0 -8 0 10
-262144 -1 -1 236 256;
#X obj 224 259 nbx 5 14 -1e+37 1e+37 0 1 empty empty empty 0 -8 0 10
-262144 -1 -1 -1872 256;
#X obj 419 258 nbx 5 14 -1e+37 1e+37 0 1 empty empty empty 0 -8 0 10
-262144 -1 -1 230 256;
#X obj 360 257 nbx 5 14 -1e+37 1e+37 0 1 empty empty empty 0 -8 0 10
-262144 -1 -1 -172 256;
#X obj 95 272 poftexture \$0-fbo;
#X msg 237 200 corner 1 \$1 \$2;
#X msg 373 198 corner 0 \$1 \$2;
#X msg 235 337 corner 2 \$1 \$2;
#X msg 371 335 corner 3 \$1 \$2;
#X obj 44 198 t a a, f 9;
#N canvas 52 392 913 507 edit 0;
#X obj 120 25 inlet;
#X obj 120 46 pofvisible;
#X obj 173 23 tgl 15 0 empty empty empty 17 7 0 10 -262144 -1 -1 0
1;
#X obj 314 5 inlet;
#X obj 314 26 route corner;
#X obj 120 213 poftranslate;
#X obj 120 303 poftouch 40 40;
#X obj 152 187 unpack f f;
#X msg 147 279 draw 1;
#X obj 145 257 loadbang;
#X obj 201 324 route down up;
#X obj 120 99 t a a, f 10;
#X obj 120 122 poftouch 4000 4000 1;
#X obj 238 140 route move;
#X msg 201 345 1;
#X msg 238 345 0;
#X obj 168 367 spigot;
#X msg 168 388 0 \$1 \$2;
#X obj 272 491 outlet;
#X obj 321 214 poftranslate;
#X obj 321 304 poftouch 40 40;
#X obj 353 188 unpack f f;
#X msg 348 280 draw 1;
#X obj 346 258 loadbang;
#X obj 402 325 route down up;
#X msg 402 346 1;
#X msg 439 346 0;
#X obj 369 368 spigot;
#X obj 503 210 poftranslate;
#X obj 503 300 poftouch 40 40;
#X obj 535 184 unpack f f;
#X msg 530 276 draw 1;
#X obj 528 254 loadbang;
#X obj 584 321 route down up;
#X msg 584 342 1;
#X msg 621 342 0;
#X obj 551 364 spigot;
#X obj 685 212 poftranslate;
#X obj 685 302 poftouch 40 40;
#X obj 717 186 unpack f f;
#X msg 712 278 draw 1;
#X obj 710 256 loadbang;
#X obj 766 323 route down up;
#X msg 766 344 1;
#X msg 803 344 0;
#X obj 733 366 spigot;
#X msg 369 389 1 \$1 \$2;
#X msg 551 385 2 \$1 \$2;
#X msg 733 387 3 \$1 \$2;
#X obj 314 47 route 0 1 2 3, f 42;
#X obj 120 70 pofcolor 0 1 0 0.5;
#X obj 173 4 r draw-quads-edit;
#X connect 0 0 1 0;
#X connect 1 0 50 0;
#X connect 2 0 1 0;
#X connect 3 0 4 0;
#X connect 4 0 49 0;
#X connect 5 0 6 0;
#X connect 6 1 10 0;
#X connect 7 0 5 1;
#X connect 7 1 5 2;
#X connect 8 0 6 0;
#X connect 9 0 8 0;
#X connect 10 0 14 0;
#X connect 10 1 15 0;
#X connect 11 0 12 0;
#X connect 11 1 5 0;
#X connect 11 1 19 0;
#X connect 11 1 28 0;
#X connect 11 1 37 0;
#X connect 12 1 13 0;
#X connect 13 0 16 0;
#X connect 13 0 27 0;
#X connect 13 0 36 0;
#X connect 13 0 45 0;
#X connect 14 0 16 1;
#X connect 15 0 16 1;
#X connect 16 0 17 0;
#X connect 17 0 18 0;
#X connect 19 0 20 0;
#X connect 20 1 24 0;
#X connect 21 0 19 1;
#X connect 21 1 19 2;
#X connect 22 0 20 0;
#X connect 23 0 22 0;
#X connect 24 0 25 0;
#X connect 24 1 26 0;
#X connect 25 0 27 1;
#X connect 26 0 27 1;
#X connect 27 0 46 0;
#X connect 28 0 29 0;
#X connect 29 1 33 0;
#X connect 30 0 28 1;
#X connect 30 1 28 2;
#X connect 31 0 29 0;
#X connect 32 0 31 0;
#X connect 33 0 34 0;
#X connect 33 1 35 0;
#X connect 34 0 36 1;
#X connect 35 0 36 1;
#X connect 36 0 47 0;
#X connect 37 0 38 0;
#X connect 38 1 42 0;
#X connect 39 0 37 1;
#X connect 39 1 37 2;
#X connect 40 0 38 0;
#X connect 41 0 40 0;
#X connect 42 0 43 0;
#X connect 42 1 44 0;
#X connect 43 0 45 1;
#X connect 44 0 45 1;
#X connect 45 0 48 0;
#X connect 46 0 18 0;
#X connect 47 0 18 0;
#X connect 48 0 18 0;
#X connect 49 0 7 0;
#X connect 49 1 21 0;
#X connect 49 2 30 0;
#X connect 49 3 39 0;
#X connect 50 0 11 0;
#X connect 51 0 2 0;
#X restore 44 221 pd edit;
#X obj 361 104 unpack f f;
#X obj 241 59 route 1 0 2 3;
#X obj 236 107 unpack f f;
#X obj 359 234 unpack f f;
#X obj 229 236 unpack f f;
#X obj 44 165 pofvisible 1;
#X obj 105 120 tgl 15 0 empty empty empty 17 7 0 10 -262144 -1 -1 1
1;
#X obj 106 92 r show-G;
#X connect 0 0 31 0;
#X connect 2 0 4 0;
#X connect 2 1 4 1;
#X connect 3 0 5 0;
#X connect 3 1 5 1;
#X connect 4 0 20 0;
#X connect 5 0 21 0;
#X connect 6 0 9 0;
#X connect 6 1 9 1;
#X connect 7 0 8 0;
#X connect 7 1 8 1;
#X connect 8 0 23 0;
#X connect 9 0 22 0;
#X connect 10 0 1 0;
#X connect 10 0 25 1;
#X connect 11 0 2 0;
#X connect 12 0 4 0;
#X connect 13 0 3 0;
#X connect 14 0 5 0;
#X connect 15 0 6 0;
#X connect 16 0 9 0;
#X connect 17 0 7 0;
#X connect 18 0 8 0;
#X connect 19 0 1 0;
#X connect 20 0 10 0;
#X connect 21 0 10 0;
#X connect 22 0 10 0;
#X connect 23 0 10 0;
#X connect 24 0 25 0;
#X connect 24 1 19 0;
#X connect 25 0 27 0;
#X connect 26 0 14 0;
#X connect 26 1 13 0;
#X connect 27 0 28 0;
#X connect 27 1 26 0;
#X connect 27 2 30 0;
#X connect 27 3 29 0;
#X connect 28 0 12 0;
#X connect 28 1 11 0;
#X connect 29 0 18 0;
#X connect 29 1 17 0;
#X connect 30 0 16 0;
#X connect 30 1 15 0;
#X connect 31 0 24 0;
#X connect 32 0 31 0;
#X connect 33 0 32 0;
#X restore 379 429 pd mirror-fs-G;
#N canvas 76 314 633 523 mirror-fs-D 0;
#X obj 44 104 inlet;
#X obj 95 338 pofquad 5 3;
#X obj 291 147 t b f;
#X obj 421 145 t b f;
#X obj 237 178 pack -200 -150;
#X obj 373 176 pack 200 -150;
#X obj 283 284 t b f;
#X obj 419 282 t b f;
#X obj 371 313 pack 200 150;
#X obj 235 315 pack -200 150;
#X obj 326 278 t a;
#X obj 291 130 nbx 5 14 -1e+37 1e+37 0 1 empty empty empty 0 -8 0 10
-262144 -1 -1 -494 256;
#X obj 232 129 nbx 5 14 -1e+37 1e+37 0 1 empty empty empty 0 -8 0 10
-262144 -1 -1 54 256;
#X obj 421 128 nbx 5 14 -1e+37 1e+37 0 1 empty empty empty 0 -8 0 10
-262144 -1 -1 -526 256;
#X obj 362 127 nbx 5 14 -1e+37 1e+37 0 1 empty empty empty 0 -8 0 10
-262144 -1 -1 1867 256;
#X obj 283 260 nbx 5 14 -1e+37 1e+37 0 1 empty empty empty 0 -8 0 10
-262144 -1 -1 69 256;
#X obj 224 259 nbx 5 14 -1e+37 1e+37 0 1 empty empty empty 0 -8 0 10
-262144 -1 -1 71 256;
#X obj 419 258 nbx 5 14 -1e+37 1e+37 0 1 empty empty empty 0 -8 0 10
-262144 -1 -1 33 256;
#X obj 360 257 nbx 5 14 -1e+37 1e+37 0 1 empty empty empty 0 -8 0 10
-262144 -1 -1 1876 256;
#X msg 237 200 corner 1 \$1 \$2;
#X msg 373 198 corner 0 \$1 \$2;
#X msg 235 337 corner 2 \$1 \$2;
#X msg 371 335 corner 3 \$1 \$2;
#X obj 44 198 t a a, f 9;
#N canvas 52 368 913 507 edit 0;
#X obj 120 25 inlet;
#X obj 120 46 pofvisible;
#X obj 173 23 tgl 15 0 empty empty empty 17 7 0 10 -262144 -1 -1 0
1;
#X obj 314 5 inlet;
#X obj 314 26 route corner;
#X obj 120 213 poftranslate;
#X obj 120 303 poftouch 40 40;
#X obj 152 187 unpack f f;
#X msg 147 279 draw 1;
#X obj 145 257 loadbang;
#X obj 201 324 route down up;
#X obj 120 99 t a a, f 10;
#X obj 120 122 poftouch 4000 4000 1;
#X obj 238 140 route move;
#X msg 201 345 1;
#X msg 238 345 0;
#X obj 168 367 spigot;
#X msg 168 388 0 \$1 \$2;
#X obj 272 491 outlet;
#X obj 321 214 poftranslate;
#X obj 321 304 poftouch 40 40;
#X obj 353 188 unpack f f;
#X msg 348 280 draw 1;
#X obj 346 258 loadbang;
#X obj 402 325 route down up;
#X msg 402 346 1;
#X msg 439 346 0;
#X obj 369 368 spigot;
#X obj 503 210 poftranslate;
#X obj 503 300 poftouch 40 40;
#X obj 535 184 unpack f f;
#X msg 530 276 draw 1;
#X obj 528 254 loadbang;
#X obj 584 321 route down up;
#X msg 584 342 1;
#X msg 621 342 0;
#X obj 551 364 spigot;
#X obj 685 212 poftranslate;
#X obj 685 302 poftouch 40 40;
#X obj 717 186 unpack f f;
#X msg 712 278 draw 1;
#X obj 710 256 loadbang;
#X obj 766 323 route down up;
#X msg 766 344 1;
#X msg 803 344 0;
#X obj 733 366 spigot;
#X msg 369 389 1 \$1 \$2;
#X msg 551 385 2 \$1 \$2;
#X msg 733 387 3 \$1 \$2;
#X obj 314 47 route 0 1 2 3, f 42;
#X obj 120 70 pofcolor 0 1 0 0.5;
#X obj 173 4 r draw-quads-edit;
#X connect 0 0 1 0;
#X connect 1 0 50 0;
#X connect 2 0 1 0;
#X connect 3 0 4 0;
#X connect 4 0 49 0;
#X connect 5 0 6 0;
#X connect 6 1 10 0;
#X connect 7 0 5 1;
#X connect 7 1 5 2;
#X connect 8 0 6 0;
#X connect 9 0 8 0;
#X connect 10 0 14 0;
#X connect 10 1 15 0;
#X connect 11 0 12 0;
#X connect 11 1 5 0;
#X connect 11 1 19 0;
#X connect 11 1 28 0;
#X connect 11 1 37 0;
#X connect 12 1 13 0;
#X connect 13 0 16 0;
#X connect 13 0 27 0;
#X connect 13 0 36 0;
#X connect 13 0 45 0;
#X connect 14 0 16 1;
#X connect 15 0 16 1;
#X connect 16 0 17 0;
#X connect 17 0 18 0;
#X connect 19 0 20 0;
#X connect 20 1 24 0;
#X connect 21 0 19 1;
#X connect 21 1 19 2;
#X connect 22 0 20 0;
#X connect 23 0 22 0;
#X connect 24 0 25 0;
#X connect 24 1 26 0;
#X connect 25 0 27 1;
#X connect 26 0 27 1;
#X connect 27 0 46 0;
#X connect 28 0 29 0;
#X connect 29 1 33 0;
#X connect 30 0 28 1;
#X connect 30 1 28 2;
#X connect 31 0 29 0;
#X connect 32 0 31 0;
#X connect 33 0 34 0;
#X connect 33 1 35 0;
#X connect 34 0 36 1;
#X connect 35 0 36 1;
#X connect 36 0 47 0;
#X connect 37 0 38 0;
#X connect 38 1 42 0;
#X connect 39 0 37 1;
#X connect 39 1 37 2;
#X connect 40 0 38 0;
#X connect 41 0 40 0;
#X connect 42 0 43 0;
#X connect 42 1 44 0;
#X connect 43 0 45 1;
#X connect 44 0 45 1;
#X connect 45 0 48 0;
#X connect 46 0 18 0;
#X connect 47 0 18 0;
#X connect 48 0 18 0;
#X connect 49 0 7 0;
#X connect 49 1 21 0;
#X connect 49 2 30 0;
#X connect 49 3 39 0;
#X connect 50 0 11 0;
#X connect 51 0 2 0;
#X restore 44 221 pd edit;
#X obj 361 104 unpack f f;
#X obj 241 59 route 1 0 2 3;
#X obj 236 107 unpack f f;
#X obj 359 234 unpack f f;
#X obj 229 236 unpack f f;
#X obj 95 272 poftexture \$0-fbo2;
#X obj 44 151 pofvisible 1;
#X obj 116 99 tgl 15 0 empty empty empty 17 7 0 10 -262144 -1 -1 1
1;
#X obj 114 70 r show-D;
#X connect 0 0 31 0;
#X connect 2 0 4 0;
#X connect 2 1 4 1;
#X connect 3 0 5 0;
#X connect 3 1 5 1;
#X connect 4 0 19 0;
#X connect 5 0 20 0;
#X connect 6 0 9 0;
#X connect 6 1 9 1;
#X connect 7 0 8 0;
#X connect 7 1 8 1;
#X connect 8 0 22 0;
#X connect 9 0 21 0;
#X connect 10 0 1 0;
#X connect 10 0 24 1;
#X connect 11 0 2 0;
#X connect 12 0 4 0;
#X connect 13 0 3 0;
#X connect 14 0 5 0;
#X connect 15 0 6 0;
#X connect 16 0 9 0;
#X connect 17 0 7 0;
#X connect 18 0 8 0;
#X connect 19 0 10 0;
#X connect 20 0 10 0;
#X connect 21 0 10 0;
#X connect 22 0 10 0;
#X connect 23 0 24 0;
#X connect 23 1 30 0;
#X connect 24 0 26 0;
#X connect 25 0 14 0;
#X connect 25 1 13 0;
#X connect 26 0 27 0;
#X connect 26 1 25 0;
#X connect 26 2 29 0;
#X connect 26 3 28 0;
#X connect 27 0 12 0;
#X connect 27 1 11 0;
#X connect 28 0 18 0;
#X connect 28 1 17 0;
#X connect 29 0 16 0;
#X connect 29 1 15 0;
#X connect 30 0 1 0;
#X connect 31 0 23 0;
#X connect 32 0 31 0;
#X connect 33 0 32 0;
#X restore 508 426 pd mirror-fs-D;
#N canvas 747 233 633 523 mirror-fs-HG 0;
#X obj 44 132 inlet;
#X obj 95 338 pofquad 5 3;
#X obj 291 147 t b f;
#X obj 421 145 t b f;
#X obj 237 178 pack -200 -150;
#X obj 373 176 pack 200 -150;
#X obj 283 284 t b f;
#X obj 419 282 t b f;
#X obj 371 313 pack 200 150;
#X obj 235 315 pack -200 150;
#X obj 326 278 t a;
#X obj 291 130 nbx 5 14 -1e+37 1e+37 0 1 empty empty empty 0 -8 0 10
-262144 -1 -1 245 256;
#X obj 232 129 nbx 5 14 -1e+37 1e+37 0 1 empty empty empty 0 -8 0 10
-262144 -1 -1 -1876 256;
#X obj 421 128 nbx 5 14 -1e+37 1e+37 0 1 empty empty empty 0 -8 0 10
-262144 -1 -1 260 256;
#X obj 362 127 nbx 5 14 -1e+37 1e+37 0 1 empty empty empty 0 -8 0 10
-262144 -1 -1 -157 256;
#X obj 283 260 nbx 5 14 -1e+37 1e+37 0 1 empty empty empty 0 -8 0 10
-262144 -1 -1 523 256;
#X obj 224 259 nbx 5 14 -1e+37 1e+37 0 1 empty empty empty 0 -8 0 10
-262144 -1 -1 -1911 256;
#X obj 419 258 nbx 5 14 -1e+37 1e+37 0 1 empty empty empty 0 -8 0 10
-262144 -1 -1 480 256;
#X obj 360 257 nbx 5 14 -1e+37 1e+37 0 1 empty empty empty 0 -8 0 10
-262144 -1 -1 -38 256;
#X msg 237 200 corner 1 \$1 \$2;
#X msg 373 198 corner 0 \$1 \$2;
#X msg 235 337 corner 2 \$1 \$2;
#X msg 371 335 corner 3 \$1 \$2;
#X obj 44 198 t a a, f 9;
#N canvas 52 392 913 507 edit 0;
#X obj 120 25 inlet;
#X obj 120 46 pofvisible;
#X obj 173 23 tgl 15 0 empty empty empty 17 7 0 10 -262144 -1 -1 0
1;
#X obj 314 5 inlet;
#X obj 314 26 route corner;
#X obj 120 213 poftranslate;
#X obj 120 303 poftouch 40 40;
#X obj 152 187 unpack f f;
#X msg 147 279 draw 1;
#X obj 145 257 loadbang;
#X obj 201 324 route down up;
#X obj 120 99 t a a, f 10;
#X obj 120 122 poftouch 4000 4000 1;
#X obj 238 140 route move;
#X msg 201 345 1;
#X msg 238 345 0;
#X obj 168 367 spigot;
#X msg 168 388 0 \$1 \$2;
#X obj 272 491 outlet;
#X obj 321 214 poftranslate;
#X obj 321 304 poftouch 40 40;
#X obj 353 188 unpack f f;
#X msg 348 280 draw 1;
#X obj 346 258 loadbang;
#X obj 402 325 route down up;
#X msg 402 346 1;
#X msg 439 346 0;
#X obj 369 368 spigot;
#X obj 503 210 poftranslate;
#X obj 503 300 poftouch 40 40;
#X obj 535 184 unpack f f;
#X msg 530 276 draw 1;
#X obj 528 254 loadbang;
#X obj 584 321 route down up;
#X msg 584 342 1;
#X msg 621 342 0;
#X obj 551 364 spigot;
#X obj 685 212 poftranslate;
#X obj 685 302 poftouch 40 40;
#X obj 717 186 unpack f f;
#X msg 712 278 draw 1;
#X obj 710 256 loadbang;
#X obj 766 323 route down up;
#X msg 766 344 1;
#X msg 803 344 0;
#X obj 733 366 spigot;
#X msg 369 389 1 \$1 \$2;
#X msg 551 385 2 \$1 \$2;
#X msg 733 387 3 \$1 \$2;
#X obj 314 47 route 0 1 2 3, f 42;
#X obj 120 70 pofcolor 0 1 0 0.5;
#X obj 173 4 r draw-quads-edit;
#X connect 0 0 1 0;
#X connect 1 0 50 0;
#X connect 2 0 1 0;
#X connect 3 0 4 0;
#X connect 4 0 49 0;
#X connect 5 0 6 0;
#X connect 6 1 10 0;
#X connect 7 0 5 1;
#X connect 7 1 5 2;
#X connect 8 0 6 0;
#X connect 9 0 8 0;
#X connect 10 0 14 0;
#X connect 10 1 15 0;
#X connect 11 0 12 0;
#X connect 11 1 5 0;
#X connect 11 1 19 0;
#X connect 11 1 28 0;
#X connect 11 1 37 0;
#X connect 12 1 13 0;
#X connect 13 0 16 0;
#X connect 13 0 27 0;
#X connect 13 0 36 0;
#X connect 13 0 45 0;
#X connect 14 0 16 1;
#X connect 15 0 16 1;
#X connect 16 0 17 0;
#X connect 17 0 18 0;
#X connect 19 0 20 0;
#X connect 20 1 24 0;
#X connect 21 0 19 1;
#X connect 21 1 19 2;
#X connect 22 0 20 0;
#X connect 23 0 22 0;
#X connect 24 0 25 0;
#X connect 24 1 26 0;
#X connect 25 0 27 1;
#X connect 26 0 27 1;
#X connect 27 0 46 0;
#X connect 28 0 29 0;
#X connect 29 1 33 0;
#X connect 30 0 28 1;
#X connect 30 1 28 2;
#X connect 31 0 29 0;
#X connect 32 0 31 0;
#X connect 33 0 34 0;
#X connect 33 1 35 0;
#X connect 34 0 36 1;
#X connect 35 0 36 1;
#X connect 36 0 47 0;
#X connect 37 0 38 0;
#X connect 38 1 42 0;
#X connect 39 0 37 1;
#X connect 39 1 37 2;
#X connect 40 0 38 0;
#X connect 41 0 40 0;
#X connect 42 0 43 0;
#X connect 42 1 44 0;
#X connect 43 0 45 1;
#X connect 44 0 45 1;
#X connect 45 0 48 0;
#X connect 46 0 18 0;
#X connect 47 0 18 0;
#X connect 48 0 18 0;
#X connect 49 0 7 0;
#X connect 49 1 21 0;
#X connect 49 2 30 0;
#X connect 49 3 39 0;
#X connect 50 0 11 0;
#X connect 51 0 2 0;
#X restore 44 221 pd edit;
#X obj 361 104 unpack f f;
#X obj 241 59 route 1 0 2 3;
#X obj 236 107 unpack f f;
#X obj 359 234 unpack f f;
#X obj 229 236 unpack f f;
#X obj 95 272 poftexture \$0-fboHG;
#X obj 44 165 pofvisible 1;
#X obj 99 127 tgl 15 0 empty empty empty 17 7 0 10 -262144 -1 -1 1
1;
#X obj 106 92 r show-HG;
#X connect 0 0 31 0;
#X connect 2 0 4 0;
#X connect 2 1 4 1;
#X connect 3 0 5 0;
#X connect 3 1 5 1;
#X connect 4 0 19 0;
#X connect 5 0 20 0;
#X connect 6 0 9 0;
#X connect 6 1 9 1;
#X connect 7 0 8 0;
#X connect 7 1 8 1;
#X connect 8 0 22 0;
#X connect 9 0 21 0;
#X connect 10 0 1 0;
#X connect 10 0 24 1;
#X connect 11 0 2 0;
#X connect 12 0 4 0;
#X connect 13 0 3 0;
#X connect 14 0 5 0;
#X connect 15 0 6 0;
#X connect 16 0 9 0;
#X connect 17 0 7 0;
#X connect 18 0 8 0;
#X connect 19 0 10 0;
#X connect 20 0 10 0;
#X connect 21 0 10 0;
#X connect 22 0 10 0;
#X connect 23 0 24 0;
#X connect 23 1 30 0;
#X connect 24 0 26 0;
#X connect 25 0 14 0;
#X connect 25 1 13 0;
#X connect 26 0 27 0;
#X connect 26 1 25 0;
#X connect 26 2 29 0;
#X connect 26 3 28 0;
#X connect 27 0 12 0;
#X connect 27 1 11 0;
#X connect 28 0 18 0;
#X connect 28 1 17 0;
#X connect 29 0 16 0;
#X connect 29 1 15 0;
#X connect 30 0 1 0;
#X connect 31 0 23 0;
#X connect 32 0 31 0;
#X connect 33 0 32 0;
#X restore 381 458 pd mirror-fs-HG;
#N canvas 260 352 633 523 mirror-fs-HD 0;
#X obj 44 132 inlet;
#X obj 95 338 pofquad 5 3;
#X obj 291 147 t b f;
#X obj 421 145 t b f;
#X obj 237 178 pack -200 -150;
#X obj 373 176 pack 200 -150;
#X obj 283 284 t b f;
#X obj 419 282 t b f;
#X obj 371 313 pack 200 150;
#X obj 235 315 pack -200 150;
#X obj 326 278 t a;
#X obj 291 130 nbx 5 14 -1e+37 1e+37 0 1 empty empty empty 0 -8 0 10
-262144 -1 -1 71 256;
#X obj 232 129 nbx 5 14 -1e+37 1e+37 0 1 empty empty empty 0 -8 0 10
-262144 -1 -1 724 256;
#X obj 421 128 nbx 5 14 -1e+37 1e+37 0 1 empty empty empty 0 -8 0 10
-262144 -1 -1 47 256;
#X obj 362 127 nbx 5 14 -1e+37 1e+37 0 1 empty empty empty 0 -8 0 10
-262144 -1 -1 1878 256;
#X obj 283 260 nbx 5 14 -1e+37 1e+37 0 1 empty empty empty 0 -8 0 10
-262144 -1 -1 284 256;
#X obj 224 259 nbx 5 14 -1e+37 1e+37 0 1 empty empty empty 0 -8 0 10
-262144 -1 -1 285 256;
#X obj 419 258 nbx 5 14 -1e+37 1e+37 0 1 empty empty empty 0 -8 0 10
-262144 -1 -1 289 256;
#X obj 360 257 nbx 5 14 -1e+37 1e+37 0 1 empty empty empty 0 -8 0 10
-262144 -1 -1 1911 256;
#X msg 237 200 corner 1 \$1 \$2;
#X msg 373 198 corner 0 \$1 \$2;
#X msg 235 337 corner 2 \$1 \$2;
#X msg 371 335 corner 3 \$1 \$2;
#X obj 44 198 t a a, f 9;
#N canvas 52 368 913 507 edit 0;
#X obj 120 25 inlet;
#X obj 120 46 pofvisible;
#X obj 173 23 tgl 15 0 empty empty empty 17 7 0 10 -262144 -1 -1 0
1;
#X obj 314 5 inlet;
#X obj 314 26 route corner;
#X obj 120 213 poftranslate;
#X obj 120 303 poftouch 40 40;
#X obj 152 187 unpack f f;
#X msg 147 279 draw 1;
#X obj 145 257 loadbang;
#X obj 201 324 route down up;
#X obj 120 99 t a a, f 10;
#X obj 120 122 poftouch 4000 4000 1;
#X obj 238 140 route move;
#X msg 201 345 1;
#X msg 238 345 0;
#X obj 168 367 spigot;
#X msg 168 388 0 \$1 \$2;
#X obj 272 491 outlet;
#X obj 321 214 poftranslate;
#X obj 321 304 poftouch 40 40;
#X obj 353 188 unpack f f;
#X msg 348 280 draw 1;
#X obj 346 258 loadbang;
#X obj 402 325 route down up;
#X msg 402 346 1;
#X msg 439 346 0;
#X obj 369 368 spigot;
#X obj 503 210 poftranslate;
#X obj 503 300 poftouch 40 40;
#X obj 535 184 unpack f f;
#X msg 530 276 draw 1;
#X obj 528 254 loadbang;
#X obj 584 321 route down up;
#X msg 584 342 1;
#X msg 621 342 0;
#X obj 551 364 spigot;
#X obj 685 212 poftranslate;
#X obj 685 302 poftouch 40 40;
#X obj 717 186 unpack f f;
#X msg 712 278 draw 1;
#X obj 710 256 loadbang;
#X obj 766 323 route down up;
#X msg 766 344 1;
#X msg 803 344 0;
#X obj 733 366 spigot;
#X msg 369 389 1 \$1 \$2;
#X msg 551 385 2 \$1 \$2;
#X msg 733 387 3 \$1 \$2;
#X obj 314 47 route 0 1 2 3, f 42;
#X obj 120 70 pofcolor 0 1 0 0.5;
#X obj 173 4 r draw-quads-edit;
#X connect 0 0 1 0;
#X connect 1 0 50 0;
#X connect 2 0 1 0;
#X connect 3 0 4 0;
#X connect 4 0 49 0;
#X connect 5 0 6 0;
#X connect 6 1 10 0;
#X connect 7 0 5 1;
#X connect 7 1 5 2;
#X connect 8 0 6 0;
#X connect 9 0 8 0;
#X connect 10 0 14 0;
#X connect 10 1 15 0;
#X connect 11 0 12 0;
#X connect 11 1 5 0;
#X connect 11 1 19 0;
#X connect 11 1 28 0;
#X connect 11 1 37 0;
#X connect 12 1 13 0;
#X connect 13 0 16 0;
#X connect 13 0 27 0;
#X connect 13 0 36 0;
#X connect 13 0 45 0;
#X connect 14 0 16 1;
#X connect 15 0 16 1;
#X connect 16 0 17 0;
#X connect 17 0 18 0;
#X connect 19 0 20 0;
#X connect 20 1 24 0;
#X connect 21 0 19 1;
#X connect 21 1 19 2;
#X connect 22 0 20 0;
#X connect 23 0 22 0;
#X connect 24 0 25 0;
#X connect 24 1 26 0;
#X connect 25 0 27 1;
#X connect 26 0 27 1;
#X connect 27 0 46 0;
#X connect 28 0 29 0;
#X connect 29 1 33 0;
#X connect 30 0 28 1;
#X connect 30 1 28 2;
#X connect 31 0 29 0;
#X connect 32 0 31 0;
#X connect 33 0 34 0;
#X connect 33 1 35 0;
#X connect 34 0 36 1;
#X connect 35 0 36 1;
#X connect 36 0 47 0;
#X connect 37 0 38 0;
#X connect 38 1 42 0;
#X connect 39 0 37 1;
#X connect 39 1 37 2;
#X connect 40 0 38 0;
#X connect 41 0 40 0;
#X connect 42 0 43 0;
#X connect 42 1 44 0;
#X connect 43 0 45 1;
#X connect 44 0 45 1;
#X connect 45 0 48 0;
#X connect 46 0 18 0;
#X connect 47 0 18 0;
#X connect 48 0 18 0;
#X connect 49 0 7 0;
#X connect 49 1 21 0;
#X connect 49 2 30 0;
#X connect 49 3 39 0;
#X connect 50 0 11 0;
#X connect 51 0 2 0;
#X restore 44 221 pd edit;
#X obj 361 104 unpack f f;
#X obj 241 59 route 1 0 2 3;
#X obj 236 107 unpack f f;
#X obj 359 234 unpack f f;
#X obj 229 236 unpack f f;
#X obj 95 272 poftexture \$0-fboHD;
#X obj 44 165 pofvisible 1;
#X obj 111 103 tgl 15 0 empty empty empty 17 7 0 10 -262144 -1 -1 1
1;
#X obj 109 81 r show-HD;
#X connect 0 0 31 0;
#X connect 2 0 4 0;
#X connect 2 1 4 1;
#X connect 3 0 5 0;
#X connect 3 1 5 1;
#X connect 4 0 19 0;
#X connect 5 0 20 0;
#X connect 6 0 9 0;
#X connect 6 1 9 1;
#X connect 7 0 8 0;
#X connect 7 1 8 1;
#X connect 8 0 22 0;
#X connect 9 0 21 0;
#X connect 10 0 1 0;
#X connect 10 0 24 1;
#X connect 11 0 2 0;
#X connect 12 0 4 0;
#X connect 13 0 3 0;
#X connect 14 0 5 0;
#X connect 15 0 6 0;
#X connect 16 0 9 0;
#X connect 17 0 7 0;
#X connect 18 0 8 0;
#X connect 19 0 10 0;
#X connect 20 0 10 0;
#X connect 21 0 10 0;
#X connect 22 0 10 0;
#X connect 23 0 24 0;
#X connect 23 1 30 0;
#X connect 24 0 26 0;
#X connect 25 0 14 0;
#X connect 25 1 13 0;
#X connect 26 0 27 0;
#X connect 26 1 25 0;
#X connect 26 2 29 0;
#X connect 26 3 28 0;
#X connect 27 0 12 0;
#X connect 27 1 11 0;
#X connect 28 0 18 0;
#X connect 28 1 17 0;
#X connect 29 0 16 0;
#X connect 29 1 15 0;
#X connect 30 0 1 0;
#X connect 31 0 23 0;
#X connect 32 0 31 0;
#X connect 33 0 32 0;
#X restore 504 458 pd mirror-fs-HD;
#X obj 746 87 t b b;
#X obj 746 108 timer;
#X floatatom 742 229 5 0 0 0 - - -;
#X obj 717 40 pofhead;
#X obj 717 61 pofbang 1;
#X obj 746 129 mavg 20;
#X obj 745 164 maxlib/speedlim 200;
#X msg 633 286 0;
#X msg 351 115 window 3840 1200 1 \, pos 1440 0;
#X msg 355 6 window 800 600 0 \, pos 50 50;
#X obj 168 91 tgl 15 0 empty empty sig 17 7 0 10 -4034 -1 -1 0 1;
#X obj 140 114 tgl 15 0 empty empty sig 17 7 0 10 -4034 -1 -1 0 1;
#X msg 361 172 window 5280 1200 1 \, pos 0 0;
#X obj 487 59 del 10000;
#X obj 488 37 bng 15 250 50 0 empty empty empty 17 7 0 10 -262144 -1
-1;
#X connect 0 0 1 0;
#X connect 1 0 2 0;
#X connect 1 1 20 0;
#X connect 2 0 81 0;
#X connect 4 0 55 0;
#X connect 6 0 10 0;
#X connect 8 0 17 0;
#X connect 9 0 12 0;
#X connect 10 0 14 0;
#X connect 10 1 22 0;
#X connect 13 0 5 0;
#X connect 13 1 7 0;
#X connect 14 0 17 0;
#X connect 14 1 7 0;
#X connect 15 0 6 0;
#X connect 16 0 66 0;
#X connect 16 0 67 0;
#X connect 16 0 68 0;
#X connect 16 0 69 0;
#X connect 17 0 5 0;
#X connect 18 0 15 0;
#X connect 18 0 19 0;
#X connect 19 0 16 0;
#X connect 20 0 80 0;
#X connect 22 0 11 0;
#X connect 22 1 21 0;
#X connect 23 0 24 0;
#X connect 24 0 25 0;
#X connect 25 0 26 0;
#X connect 26 0 32 0;
#X connect 27 0 28 0;
#X connect 28 0 29 0;
#X connect 29 0 31 1;
#X connect 30 0 34 0;
#X connect 31 0 30 0;
#X connect 32 0 31 0;
#X connect 32 1 33 0;
#X connect 33 0 29 1;
#X connect 34 0 27 0;
#X connect 36 0 37 0;
#X connect 36 1 65 0;
#X connect 37 0 43 0;
#X connect 37 0 46 0;
#X connect 38 0 37 0;
#X connect 39 0 27 0;
#X connect 39 0 58 0;
#X connect 40 0 43 1;
#X connect 41 0 43 1;
#X connect 42 0 43 1;
#X connect 43 0 44 0;
#X connect 44 0 35 0;
#X connect 46 0 49 0;
#X connect 47 0 49 4;
#X connect 48 0 44 4;
#X connect 49 0 45 0;
#X connect 50 0 9 1;
#X connect 50 1 9 2;
#X connect 50 2 9 3;
#X connect 51 0 50 0;
#X connect 52 0 51 0;
#X connect 53 0 51 0;
#X connect 54 0 27 0;
#X connect 55 0 36 0;
#X connect 56 0 55 1;
#X connect 56 0 55 2;
#X connect 57 0 56 0;
#X connect 58 0 57 0;
#X connect 59 0 27 0;
#X connect 60 0 57 0;
#X connect 61 0 13 0;
#X connect 61 1 9 0;
#X connect 62 0 13 0;
#X connect 62 1 9 0;
#X connect 63 0 13 0;
#X connect 63 1 9 0;
#X connect 64 0 13 0;
#X connect 64 1 9 0;
#X connect 65 0 15 0;
#X connect 65 0 16 0;
#X connect 65 1 61 0;
#X connect 65 2 62 0;
#X connect 65 3 63 0;
#X connect 65 4 64 0;
#X connect 70 0 71 0;
#X connect 70 1 71 1;
#X connect 71 0 75 0;
#X connect 73 0 74 0;
#X connect 74 1 70 0;
#X connect 75 0 76 0;
#X connect 76 0 72 0;
#X connect 77 0 51 0;
#X connect 78 0 27 0;
#X connect 79 0 27 0;
#X connect 79 0 60 0;
#X connect 82 0 27 0;
#X connect 82 0 58 0;
#X connect 83 0 79 0;
#X connect 84 0 83 0;
#X connect 84 0 82 0;
