#N canvas 566 97 1006 655 10;
#X declare -lib Gem -lib pix_opencv;
#X text 17 20 for use with pix_freenect or pix_openni;
#X obj 289 105 gemwin;
#X obj 93 335 pix_texture;
#X obj 93 373 alpha;
#X msg 241 37 destroy;
#X obj 19 259 tgl 15 0 empty empty on/off 17 7 0 10 -262144 -1 -1 1
1;
#X msg 289 35 dimen 640 480 \, create \, 1;
#X obj 93 416 rectangle 4 3;
#X text 11 5 convert raw depth values into human viewable colorspace
;
#X obj 308 78 tgl 15 0 empty empty empty 17 7 0 10 -262144 -1 -1 0
1;
#X obj 679 149 nbx 5 14 -1e+37 1e+37 0 0 empty empty hi_thresh 0 -8
0 10 -262144 -1 -1 0 256;
#X text 649 242 use it to scale color gradient;
#X text 648 255 in mm!;
#X obj 93 50 gemhead;
#X obj 743 147 nbx 5 14 -1e+37 1e+37 0 0 empty empty lo_thresh 0 -8
0 10 -262144 -1 -1 0 256;
#X text 672 168 thresholds for normalizing and filtering;
#X text 673 188 1st arg: hi_thresh (max distance);
#X text 673 202 2nd arg: lo_thresh (min distance);
#X msg 197 352 gray \$1;
#X obj 197 327 tgl 15 0 empty empty empty 17 7 0 10 -262144 -1 -1 0
1;
#X obj 383 13 declare -lib Gem -lib pix_opencv;
#X obj 93 296 pix_cvblob 1500 743;
#X text 298 401 (C)2020 Antoine Rousseau;
#X obj 93 106 pix_gray;
#X obj 93 195 pix_opencv_threshold;
#X obj 93 256 pix_opencv_morphology;
#X floatatom 276 309 5 0 0 0 - - -;
#X obj 182 220 tgl 15 0 empty empty empty 17 7 0 10 -262144 -1 -1 1
1;
#X msg 260 267 shape 2;
#X msg 250 247 shape 1;
#X msg 270 286 shape 3;
#X msg 124 220 mode \$1;
#X text 307 248 use rectangle structuring element;
#X text 325 283 use cross-shaped structuring element;
#X text 319 265 use elliptic structuring element;
#X text 205 220 switch open/close and erode/dilate modes;
#X text 329 307 number of iterations -10/+10 (be carefull);
#X obj 93 76 pix_image crosspattern.jpg;
#X obj 93 148 pix_buf;
#X obj 157 105 tgl 15 0 empty empty empty 17 7 0 10 -262144 -1 -1 1
1;
#X msg 157 125 auto \$1;
#X obj 28 210 tgl 15 0 empty empty empty 17 7 0 10 -262144 -1 -1 1
1;
#X connect 2 0 3 0;
#X connect 3 0 7 0;
#X connect 4 0 1 0;
#X connect 5 0 21 0;
#X connect 6 0 1 0;
#X connect 9 0 1 0;
#X connect 13 0 37 0;
#X connect 18 0 21 0;
#X connect 19 0 18 0;
#X connect 21 0 2 0;
#X connect 23 0 38 0;
#X connect 24 0 25 0;
#X connect 25 0 21 0;
#X connect 26 0 25 1;
#X connect 27 0 31 0;
#X connect 28 0 25 1;
#X connect 29 0 25 1;
#X connect 30 0 25 1;
#X connect 31 0 25 0;
#X connect 37 0 23 0;
#X connect 38 0 24 0;
#X connect 39 0 40 0;
#X connect 40 0 38 0;
#X connect 41 0 25 0;
