#N canvas 887 221 729 795 10;
#X obj 55 25 inlet pos;
#X obj 55 86 unpack f f f;
#X obj 55 53 t a b, f 15;
#X obj 142 87 i;
#X obj 170 87 + 1;
#X obj 227 27 inlet reset;
#X msg 227 53 0;
#X obj 142 111 s \$0-len;
#X obj 205 116 r \$0-len;
#X obj 357 94 r headset_draw_head;
#X msg 580 660 draw points;
#X msg 485 478 color_enable \$1;
#X obj 451 430 tgl 15 0 empty empty empty 17 7 0 10 -262144 -1 -1 0
1;
#X obj 357 180 GEMglPointSize 1;
#X obj 357 122 translateXYZ 0 0 -2;
#X obj 421 412 tgl 15 0 empty empty empty 17 7 0 10 -262144 -1 -1 0
1;
#X msg 443 410 position_enable \$1;
#X text 449 395 enable / disable specific VBO;
#X floatatom 414 142 5 0 0 0 - - -;
#X obj 357 141 scale 3;
#X obj 357 721 gemvertexbuffer;
#X msg 506 615 draw_range \$1 \$2;
#X obj 506 595 pack 0 0;
#X floatatom 506 553 5 0 0 0 - - -;
#X floatatom 552 553 5 0 0 0 - - -;
#X obj 552 572 t b f;
#X floatatom 477 181 5 1 64 0 - - -;
#X floatatom 517 117 5 0 0 0 - - -;
#X obj 402 284 f \$0;
#X obj 396 231 bng 15 250 50 0 empty empty empty 17 7 0 10 -262144
-1 -1;
#X obj 334 26 table \$0-x 1e+06;
#X obj 335 44 table \$0-y 1e+06;
#X obj 335 62 table \$0-z 1e+06;
#X obj 55 200 tabwrite \$0-x;
#X obj 89 175 tabwrite \$0-y;
#X obj 124 150 tabwrite \$0-z;
#X msg 402 315 position \$1-x \$1-y \$1-z;
#X obj 238 471 r \$0-len;
#X msg 238 516 draw_range 0 \$1;
#X floatatom 236 155 5 0 0 0 - - -;
#X obj 23 289 print;
#X floatatom 468 210 5 0 0 0 - - -;
#X msg 620 599 linewidth 5;
#X obj 357 161 rotateXYZ 0 0 0;
#X obj 417 241 b;
#X floatatom 497 76 5 0 0 0 - - -;
#X obj 194 234 GEMglLineWidth 1;
#X obj 357 208 t a;
#X obj 485 434 loadbang;
#X msg 485 455 0;
#X floatatom 460 40 5 0 0 0 - - -;
#X floatatom 445 9 5 0 0 0 - - -;
#X floatatom 319 124 5 0 0 0 - - -;
#X obj 238 493 max 1;
#X msg 570 639 draw line;
#X connect 0 0 2 0;
#X connect 1 0 33 0;
#X connect 1 1 34 0;
#X connect 1 2 35 0;
#X connect 2 0 1 0;
#X connect 2 1 3 0;
#X connect 3 0 4 0;
#X connect 3 0 7 0;
#X connect 4 0 3 1;
#X connect 5 0 6 0;
#X connect 6 0 3 1;
#X connect 6 0 7 0;
#X connect 8 0 33 1;
#X connect 8 0 34 1;
#X connect 8 0 35 1;
#X connect 8 0 39 0;
#X connect 9 0 14 0;
#X connect 10 0 20 0;
#X connect 11 0 20 0;
#X connect 12 0 11 0;
#X connect 13 0 47 0;
#X connect 14 0 19 0;
#X connect 15 0 16 0;
#X connect 16 0 20 0;
#X connect 18 0 19 1;
#X connect 19 0 43 0;
#X connect 21 0 20 0;
#X connect 22 0 21 0;
#X connect 23 0 22 0;
#X connect 24 0 25 0;
#X connect 25 0 22 0;
#X connect 25 1 22 1;
#X connect 26 0 13 1;
#X connect 27 0 43 3;
#X connect 28 0 36 0;
#X connect 29 0 28 0;
#X connect 36 0 20 0;
#X connect 37 0 44 0;
#X connect 37 0 53 0;
#X connect 38 0 20 0;
#X connect 42 0 20 0;
#X connect 43 0 13 0;
#X connect 44 0 28 0;
#X connect 45 0 43 2;
#X connect 47 0 20 0;
#X connect 48 0 49 0;
#X connect 49 0 11 0;
#X connect 50 0 14 3;
#X connect 51 0 14 2;
#X connect 52 0 43 1;
#X connect 53 0 38 0;
#X connect 54 0 20 0;
