#N canvas 491 81 729 662 10;
#X obj 55 25 inlet pos;
#X obj 55 128 unpack f f f;
#X obj 55 53 t a b, f 15;
#X obj 142 87 i;
#X obj 170 87 + 1;
#X obj 227 27 inlet reset;
#X msg 227 53 0;
#X obj 142 111 s \$0-len;
#X obj 205 116 r \$0-len;
#X obj 357 94 r headset_draw_head;
#X msg 580 660 draw points;
#X msg 485 478 color_enable \$1;
#X obj 451 430 tgl 15 0 empty empty empty 17 7 0 10 -262144 -1 -1 0
1;
#X obj 357 180 GEMglPointSize 1;
#X obj 357 122 translateXYZ 0 0 -2;
#X obj 421 412 tgl 15 0 empty empty empty 17 7 0 10 -262144 -1 -1 0
1;
#X msg 443 410 position_enable \$1;
#X text 449 395 enable / disable specific VBO;
#X floatatom 414 142 5 0 0 0 - - -;
#X obj 357 141 scale 3;
#X obj 357 721 gemvertexbuffer;
#X msg 506 615 draw_range \$1 \$2;
#X obj 506 595 pack 0 0;
#X floatatom 506 553 5 0 0 0 - - -;
#X floatatom 552 553 5 0 0 0 - - -;
#X obj 552 572 t b f;
#X floatatom 477 181 5 1 64 0 - - -;
#X floatatom 565 89 5 0 0 0 - - -;
#X obj 402 284 f \$0;
#X obj 396 231 bng 15 250 50 0 empty empty empty 17 7 0 10 -262144
-1 -1;
#X obj 334 26 table \$0-x 1e+06;
#X obj 335 44 table \$0-y 1e+06;
#X obj 335 62 table \$0-z 1e+06;
#X obj 55 200 tabwrite \$0-x;
#X obj 89 175 tabwrite \$0-y;
#X obj 124 150 tabwrite \$0-z;
#X msg 402 315 position \$1-x \$1-y \$1-z;
#X obj 238 471 r \$0-len;
#X msg 238 516 draw_range 0 \$1;
#X floatatom 236 155 5 0 0 0 - - -;
#X obj 23 289 print;
#X floatatom 468 210 5 0 0 0 - - -;
#X msg 620 599 linewidth 5;
#X obj 357 161 rotateXYZ 0 0 0;
#X obj 417 241 b;
#X floatatom 531 88 5 0 0 0 - - -;
#X obj 194 234 GEMglLineWidth 1;
#X obj 357 208 t a;
#X obj 485 434 loadbang;
#X msg 485 455 0;
#X floatatom 460 40 5 0 0 0 - - -;
#X floatatom 445 9 5 0 0 0 - - -;
#X floatatom 494 88 5 0 0 0 - - -;
#X obj 238 493 max 1;
#X msg 570 639 draw line;
#N canvas 442 435 625 463 ribbon 1;
#X obj 112 10 inlet;
#X obj 112 404 outlet;
#X obj 112 61 unpack f f f, f 39;
#X obj 363 128 t f f f;
#X obj 402 151 -;
#X obj 343 83 t f f f;
#X obj 363 106 -;
#X obj 247 127 t f f f;
#X obj 286 150 -;
#X obj 227 82 t f f f;
#X obj 247 105 -;
#X obj 132 127 t f f f;
#X obj 171 150 -;
#X obj 112 82 t f f f;
#X obj 132 105 -;
#X obj 112 201 pack f f f;
#X obj 198 204 pack f f f;
#X obj 285 202 pack f f f;
#X text 138 219 pos;
#X text 229 224 speed;
#X text 305 217 acc;
#N canvas 582 143 416 300 prod_vect 0;
#X obj 59 15 inlet;
#X obj 86 63 inlet;
#X obj 86 84 unpack f f f;
#X obj 59 36 t a a a, f 22;
#X obj 59 224 pack f f f, f 22;
#X obj 59 245 outlet;
#X obj 59 135 t a a;
#X msg 59 157 \$2;
#X msg 86 157 \$3;
#X obj 59 178 *;
#X obj 86 178 *;
#X obj 59 199 -;
#X obj 123 134 t a a;
#X obj 123 177 *;
#X obj 150 177 *;
#X obj 123 198 -;
#X obj 188 134 t a a;
#X obj 188 177 *;
#X obj 215 177 *;
#X obj 188 198 -;
#X msg 123 156 \$3;
#X msg 150 156 \$1;
#X msg 188 156 \$1;
#X msg 215 156 \$2;
#X connect 0 0 3 0;
#X connect 1 0 2 0;
#X connect 2 0 13 1;
#X connect 2 0 18 1;
#X connect 2 1 10 1;
#X connect 2 1 17 1;
#X connect 2 2 9 1;
#X connect 2 2 14 1;
#X connect 3 0 6 0;
#X connect 3 1 12 0;
#X connect 3 2 16 0;
#X connect 4 0 5 0;
#X connect 6 0 7 0;
#X connect 6 1 8 0;
#X connect 7 0 9 0;
#X connect 8 0 10 0;
#X connect 9 0 11 0;
#X connect 10 0 11 1;
#X connect 11 0 4 0;
#X connect 12 0 20 0;
#X connect 12 1 21 0;
#X connect 13 0 15 0;
#X connect 14 0 15 1;
#X connect 15 0 4 1;
#X connect 16 0 22 0;
#X connect 16 1 23 0;
#X connect 17 0 19 0;
#X connect 18 0 19 1;
#X connect 19 0 4 2;
#X connect 20 0 13 0;
#X connect 21 0 14 0;
#X connect 22 0 17 0;
#X connect 23 0 18 0;
#X restore 198 252 pd prod_vect;
#N canvas 1 108 377 208 add 0;
#X obj 71 24 inlet;
#X obj 71 45 unpack f f f;
#X obj 71 86 +;
#X obj 105 87 +;
#X obj 140 87 +;
#X obj 71 107 pack f f f, f 12;
#X obj 167 23 inlet;
#X obj 167 44 unpack f f f;
#X obj 71 128 outlet;
#X connect 0 0 1 0;
#X connect 1 0 2 0;
#X connect 1 1 3 0;
#X connect 1 2 4 0;
#X connect 2 0 5 0;
#X connect 3 0 5 1;
#X connect 4 0 5 2;
#X connect 5 0 8 0;
#X connect 6 0 7 0;
#X connect 7 0 2 1;
#X connect 7 1 3 1;
#X connect 7 2 4 1;
#X restore 112 382 pd add;
#N canvas 461 195 450 300 normalize 0;
#X obj 37 58 t a a, f 24;
#X obj 37 169 unpack f f f;
#X obj 37 241 pack f f f, f 12;
#X obj 37 220 /;
#X obj 71 220 /;
#X obj 106 220 /;
#X obj 37 262 outlet;
#X obj 178 79 unpack f f f, f 14;
#X obj 178 100 t f f;
#X obj 178 121 *, f 5;
#X obj 218 99 t f f;
#X obj 218 120 *, f 5;
#X obj 259 98 t f f;
#X obj 259 119 *, f 5;
#X obj 178 142 +, f 4;
#X obj 218 143 +, f 7;
#X obj 178 163 sqrt;
#X obj 37 37 inlet vector;
#X connect 0 0 1 0;
#X connect 0 1 7 0;
#X connect 1 0 3 0;
#X connect 1 1 4 0;
#X connect 1 2 5 0;
#X connect 2 0 6 0;
#X connect 3 0 2 0;
#X connect 4 0 2 1;
#X connect 5 0 2 2;
#X connect 7 0 8 0;
#X connect 7 1 10 0;
#X connect 7 2 12 0;
#X connect 8 0 9 0;
#X connect 8 1 9 1;
#X connect 9 0 14 0;
#X connect 10 0 11 0;
#X connect 10 1 11 1;
#X connect 11 0 15 0;
#X connect 12 0 13 0;
#X connect 12 1 13 1;
#X connect 13 0 15 1;
#X connect 14 0 16 0;
#X connect 15 0 14 1;
#X connect 16 0 3 1;
#X connect 16 0 5 1;
#X connect 16 0 4 1;
#X connect 17 0 0 0;
#X restore 198 273 pd normalize;
#N canvas 461 195 450 300 filter 0;
#X obj 37 58 unpack f f f, f 26;
#X obj 37 188 pack f f f, f 25;
#X obj 37 209 outlet;
#X obj 37 37 inlet vector;
#X obj 189 87 * 0.05;
#X obj 189 108 +;
#X obj 217 108 * 0.95;
#X obj 112 91 * 0.05;
#X obj 112 112 +;
#X obj 140 112 * 0.95;
#X obj 37 93 * 0.05;
#X obj 37 114 +;
#X obj 65 114 * 0.95;
#X obj 189 156 +;
#X obj 217 156 * 0.95;
#X obj 189 133 * 0.05;
#X obj 112 160 +;
#X obj 140 160 * 0.95;
#X obj 112 137 * 0.05;
#X obj 37 159 +;
#X obj 65 159 * 0.95;
#X obj 37 136 * 0.05;
#X connect 0 0 10 0;
#X connect 0 1 7 0;
#X connect 0 2 4 0;
#X connect 1 0 2 0;
#X connect 3 0 0 0;
#X connect 4 0 5 0;
#X connect 5 0 6 0;
#X connect 5 0 15 0;
#X connect 6 0 5 1;
#X connect 7 0 8 0;
#X connect 8 0 9 0;
#X connect 8 0 18 0;
#X connect 9 0 8 1;
#X connect 10 0 11 0;
#X connect 11 0 12 0;
#X connect 11 0 21 0;
#X connect 12 0 11 1;
#X connect 13 0 14 0;
#X connect 13 0 1 2;
#X connect 14 0 13 1;
#X connect 15 0 13 0;
#X connect 16 0 17 0;
#X connect 16 0 1 1;
#X connect 17 0 16 1;
#X connect 18 0 16 0;
#X connect 19 0 20 0;
#X connect 19 0 1 0;
#X connect 20 0 19 1;
#X connect 21 0 19 0;
#X restore 198 295 pd filter;
#N canvas 461 249 281 205 multiply 0;
#X obj 37 59 unpack f f f;
#X obj 37 131 pack f f f, f 12;
#X obj 37 152 outlet;
#X obj 131 37 inlet mult;
#X obj 37 37 inlet vector;
#X obj 37 110 *;
#X obj 71 110 *;
#X obj 106 110 *;
#X connect 0 0 5 0;
#X connect 0 1 6 0;
#X connect 0 2 7 0;
#X connect 1 0 2 0;
#X connect 3 0 5 1;
#X connect 3 0 7 1;
#X connect 3 0 6 1;
#X connect 4 0 0 0;
#X connect 5 0 1 0;
#X connect 6 0 1 1;
#X connect 7 0 1 2;
#X restore 198 316 pd multiply;
#X obj 112 35 t a b, f 58;
#X obj 457 61 i;
#X obj 457 82 == 0;
#X obj 457 103 * 2;
#X obj 457 124 - 1;
#X obj 457 145 *, f 9;
#X floatatom 521 70 5 0 0 0 - - -;
#X obj 517 17 loadbang;
#X msg 517 38 0.015;
#X connect 0 0 26 0;
#X connect 2 0 13 0;
#X connect 2 1 9 0;
#X connect 2 2 5 0;
#X connect 3 0 16 2;
#X connect 3 1 4 1;
#X connect 3 2 4 0;
#X connect 4 0 17 2;
#X connect 5 0 15 2;
#X connect 5 1 6 1;
#X connect 5 2 6 0;
#X connect 6 0 3 0;
#X connect 7 0 16 1;
#X connect 7 1 8 1;
#X connect 7 2 8 0;
#X connect 8 0 17 1;
#X connect 9 0 15 1;
#X connect 9 1 10 1;
#X connect 9 2 10 0;
#X connect 10 0 7 0;
#X connect 11 0 16 0;
#X connect 11 1 12 1;
#X connect 11 2 12 0;
#X connect 12 0 17 0;
#X connect 13 0 15 0;
#X connect 13 1 14 1;
#X connect 13 2 14 0;
#X connect 14 0 11 0;
#X connect 15 0 22 0;
#X connect 16 0 21 0;
#X connect 17 0 21 1;
#X connect 21 0 23 0;
#X connect 22 0 1 0;
#X connect 23 0 24 0;
#X connect 24 0 25 0;
#X connect 25 0 22 1;
#X connect 26 0 2 0;
#X connect 26 1 27 0;
#X connect 27 0 28 0;
#X connect 28 0 27 1;
#X connect 28 0 29 0;
#X connect 29 0 30 0;
#X connect 30 0 31 0;
#X connect 31 0 25 1;
#X connect 32 0 31 1;
#X connect 33 0 34 0;
#X connect 34 0 32 0;
#X restore 55 90 pd ribbon;
#X msg 578 695 draw tri;
#X msg 581 677 draw tristrip;
#X obj 663 643 loadbang;
#X connect 0 0 2 0;
#X connect 1 0 33 0;
#X connect 1 1 34 0;
#X connect 1 2 35 0;
#X connect 2 0 55 0;
#X connect 2 1 3 0;
#X connect 3 0 4 0;
#X connect 3 0 7 0;
#X connect 4 0 3 1;
#X connect 5 0 6 0;
#X connect 6 0 3 1;
#X connect 6 0 7 0;
#X connect 8 0 33 1;
#X connect 8 0 34 1;
#X connect 8 0 35 1;
#X connect 8 0 39 0;
#X connect 9 0 14 0;
#X connect 10 0 20 0;
#X connect 11 0 20 0;
#X connect 12 0 11 0;
#X connect 13 0 47 0;
#X connect 14 0 19 0;
#X connect 15 0 16 0;
#X connect 16 0 20 0;
#X connect 18 0 19 1;
#X connect 19 0 43 0;
#X connect 21 0 20 0;
#X connect 22 0 21 0;
#X connect 23 0 22 0;
#X connect 24 0 25 0;
#X connect 25 0 22 0;
#X connect 25 1 22 1;
#X connect 26 0 13 1;
#X connect 27 0 43 3;
#X connect 28 0 36 0;
#X connect 29 0 28 0;
#X connect 36 0 20 0;
#X connect 37 0 44 0;
#X connect 37 0 53 0;
#X connect 38 0 20 0;
#X connect 42 0 20 0;
#X connect 43 0 13 0;
#X connect 44 0 28 0;
#X connect 45 0 43 2;
#X connect 47 0 20 0;
#X connect 48 0 49 0;
#X connect 49 0 11 0;
#X connect 50 0 14 3;
#X connect 51 0 14 2;
#X connect 51 0 14 1;
#X connect 52 0 43 1;
#X connect 53 0 38 0;
#X connect 54 0 20 0;
#X connect 55 0 1 0;
#X connect 56 0 20 0;
#X connect 57 0 20 0;
#X connect 58 0 57 0;
