#N canvas 385 114 467 636 10;
#X declare -lib Gem;
#X obj 70 18 declare -lib Gem;
#X obj 26 63 cnv 15 100 60 empty empty empty 20 12 0 14 -195568 -66577
0;
#N canvas 5 76 450 300 gemwin 0;
#X obj 132 246 gemwin;
#X obj 67 89 outlet;
#X obj 67 10 inlet;
#X obj 67 41 route create;
#X msg 67 70 set destroy;
#X msg 142 68 set create;
#X msg 198 142 destroy;
#X msg 132 142 create \, 1;
#X obj 245 38 loadbang;
#X msg 272 82 reset \, frame 100;
#X obj 245 58 t b b;
#X obj 132 117 t b b;
#X msg 376 135 \; pd dsp 1;
#X obj 349 114 t b b;
#X obj 349 181 del 100;
#X obj 349 201 s \$0-init100;
#X connect 2 0 3 0;
#X connect 3 0 4 0;
#X connect 3 0 11 0;
#X connect 3 1 5 0;
#X connect 3 1 6 0;
#X connect 4 0 1 0;
#X connect 5 0 1 0;
#X connect 6 0 0 0;
#X connect 7 0 0 0;
#X connect 8 0 10 0;
#X connect 9 0 0 0;
#X connect 10 0 5 0;
#X connect 10 1 9 0;
#X connect 11 0 7 0;
#X connect 11 1 13 0;
#X connect 13 0 14 0;
#X connect 13 1 12 0;
#X connect 14 0 15 0;
#X restore 31 102 pd gemwin;
#X msg 31 83 create;
#X text 27 62 Create window:;
#X obj 86 170 r headsets-data;
#X obj 86 259 route 1 2, f 31;
#X msg 86 197 \$5 \$1 \$2 \$3 \$4;
#X obj 86 228 route 1;
#X obj 86 301 headset_draw 1;
#X obj 319 182 gemhead;
#X obj 319 203 s headset_draw_head;
#X obj 137 403 print;
#X connect 2 0 3 0;
#X connect 3 0 2 0;
#X connect 5 0 7 0;
#X connect 6 0 9 0;
#X connect 7 0 8 0;
#X connect 8 0 6 0;
#X connect 10 0 11 0;
