#N canvas 648 82 467 636 10;
#X declare -lib Gem;
#X obj 70 18 declare -lib Gem;
#X obj 26 63 cnv 15 100 60 empty empty empty 20 12 0 14 -195568 -66577
0;
#N canvas 5 81 706 300 gemwin 1;
#X obj 132 246 gemwin;
#X obj 67 89 outlet;
#X obj 67 10 inlet;
#X obj 67 41 route create;
#X msg 67 70 set destroy;
#X msg 142 68 set create;
#X msg 198 142 destroy;
#X msg 132 142 create \, 1;
#X obj 245 38 loadbang;
#X msg 272 82 reset \, frame 100;
#X obj 245 58 t b b;
#X obj 132 117 t b b;
#X msg 376 135 \; pd dsp 1;
#X obj 349 114 t b b;
#X obj 349 181 del 100;
#X obj 349 201 s \$0-init100;
#X msg 239 198 lighting \$1;
#X obj 239 177 tgl 15 0 empty empty empty 17 7 0 10 -262144 -1 -1 1
1;
#X msg 488 105 0;
#X msg 519 105 2;
#X msg 548 105 4;
#X msg 609 105 8;
#X msg 579 105 5;
#X msg 530 155 destroy \, FSAA \$1 \, create \, 1;
#X connect 2 0 3 0;
#X connect 3 0 4 0;
#X connect 3 0 11 0;
#X connect 3 1 5 0;
#X connect 3 1 6 0;
#X connect 4 0 1 0;
#X connect 5 0 1 0;
#X connect 6 0 0 0;
#X connect 7 0 0 0;
#X connect 8 0 10 0;
#X connect 9 0 0 0;
#X connect 10 0 5 0;
#X connect 10 1 9 0;
#X connect 11 0 7 0;
#X connect 11 1 13 0;
#X connect 13 0 14 0;
#X connect 13 1 12 0;
#X connect 14 0 15 0;
#X connect 16 0 0 0;
#X connect 17 0 16 0;
#X connect 18 0 23 0;
#X connect 19 0 23 0;
#X connect 20 0 23 0;
#X connect 21 0 23 0;
#X connect 22 0 23 0;
#X connect 23 0 0 0;
#X restore 31 102 pd gemwin;
#X msg 31 83 destroy;
#X text 27 62 Create window:;
#X obj 86 170 r headsets-data;
#X obj 86 259 route 1 2, f 31;
#X msg 86 197 \$5 \$1 \$2 \$3 \$4;
#X obj 86 228 route 1;
#X obj 86 301 headset_draw 1;
#X obj 319 182 gemhead;
#X obj 319 203 s headset_draw_head;
#X obj 137 403 print;
#N canvas 861 126 450 443 test_fake_headset 1;
#X obj 153 67 metro 20;
#X obj 153 88 t b b b, f 26;
#X obj 306 109 random 5000;
#X obj 306 130 / 1000;
#X obj 306 181 * 0.05;
#X obj 306 202 +;
#X obj 334 202 * 0.95;
#X obj 306 222 * 0.05;
#X obj 306 243 +;
#X obj 334 243 * 0.95;
#X obj 229 113 random 5000;
#X obj 229 134 / 1000;
#X obj 229 185 * 0.05;
#X obj 229 206 +;
#X obj 257 206 * 0.95;
#X obj 229 226 * 0.05;
#X obj 229 247 +;
#X obj 257 247 * 0.95;
#X obj 154 115 random 5000;
#X obj 154 136 / 1000;
#X obj 154 187 * 0.05;
#X obj 154 208 +;
#X obj 182 208 * 0.95;
#X obj 154 228 * 0.05;
#X obj 154 249 +;
#X obj 182 249 * 0.95;
#X obj 154 340 pack f f f, f 26;
#X obj 153 41 tgl 15 0 empty empty empty 17 7 0 10 -262144 -1 -1 0
1;
#X msg 154 361 1 \$1 \$2 \$3 1;
#X obj 154 382 s headsets-data;
#X obj 154 161 - 2.5;
#X obj 229 159 - 2.5;
#X obj 306 155 - 2.5;
#X obj 306 291 +;
#X obj 334 291 * 0.95;
#X obj 306 268 * 0.05;
#X obj 229 295 +;
#X obj 257 295 * 0.95;
#X obj 229 272 * 0.05;
#X obj 154 294 +;
#X obj 182 294 * 0.95;
#X obj 154 271 * 0.05;
#X connect 0 0 1 0;
#X connect 1 0 18 0;
#X connect 1 1 10 0;
#X connect 1 2 2 0;
#X connect 2 0 3 0;
#X connect 3 0 32 0;
#X connect 4 0 5 0;
#X connect 5 0 6 0;
#X connect 5 0 7 0;
#X connect 6 0 5 1;
#X connect 7 0 8 0;
#X connect 8 0 9 0;
#X connect 8 0 35 0;
#X connect 9 0 8 1;
#X connect 10 0 11 0;
#X connect 11 0 31 0;
#X connect 12 0 13 0;
#X connect 13 0 14 0;
#X connect 13 0 15 0;
#X connect 14 0 13 1;
#X connect 15 0 16 0;
#X connect 16 0 17 0;
#X connect 16 0 38 0;
#X connect 17 0 16 1;
#X connect 18 0 19 0;
#X connect 19 0 30 0;
#X connect 20 0 21 0;
#X connect 21 0 22 0;
#X connect 21 0 23 0;
#X connect 22 0 21 1;
#X connect 23 0 24 0;
#X connect 24 0 25 0;
#X connect 24 0 41 0;
#X connect 25 0 24 1;
#X connect 26 0 28 0;
#X connect 27 0 0 0;
#X connect 28 0 29 0;
#X connect 30 0 20 0;
#X connect 31 0 12 0;
#X connect 32 0 4 0;
#X connect 33 0 34 0;
#X connect 33 0 26 2;
#X connect 34 0 33 1;
#X connect 35 0 33 0;
#X connect 36 0 37 0;
#X connect 36 0 26 1;
#X connect 37 0 36 1;
#X connect 38 0 36 0;
#X connect 39 0 40 0;
#X connect 39 0 26 0;
#X connect 40 0 39 1;
#X connect 41 0 39 0;
#X restore 215 84 pd test_fake_headset;
#X obj 194 299 bng 15 250 50 0 empty empty clear 17 7 0 10 -258113
-1 -1;
#N canvas 21 276 450 300 light 1;
#X obj 116 47 gemhead;
#X obj 116 140 light;
#X obj 256 46 hsl 128 15 -16 16 0 0 empty empty empty -2 -8 0 10 -262144
-1 -1 6500 1;
#X obj 116 118 translateXYZ 2 8 0;
#X obj 260 65 hsl 128 15 -16 16 0 0 empty empty empty -2 -8 0 10 -262144
-1 -1 0 1;
#X obj 276 87 hsl 128 15 -16 16 0 0 empty empty empty -2 -8 0 10 -262144
-1 -1 0 1;
#X connect 0 0 3 0;
#X connect 2 0 3 1;
#X connect 3 0 1 0;
#X connect 4 0 3 2;
#X connect 5 0 3 3;
#X restore 136 103 pd light;
#X connect 2 0 3 0;
#X connect 3 0 2 0;
#X connect 5 0 7 0;
#X connect 6 0 9 0;
#X connect 7 0 8 0;
#X connect 8 0 6 0;
#X connect 10 0 11 0;
#X connect 14 0 9 1;
