#N canvas 815 411 743 564 12;
#X obj 106 141 tgl 15 0 empty empty empty 17 7 0 10 -262144 -1 -1 1
1;
#X obj 182 276 comport 0;
#X obj 211 103 loadbang;
#X obj 182 188 sel 0 1, f 16;
#X msg 182 212 close;
#X obj 236 212 f 0;
#X msg 236 236 open \$1;
#X msg 211 127 0 \, 1;
#X obj 182 301 sel 10, f 8;
#X obj 182 325 t b b;
#X msg 182 350 list;
#X obj 214 389 list;
#X obj 239 327 list prepend;
#X obj 239 351 t a;
#X obj 214 415 fudiparse;
#X obj 214 440 s fromArduinoDriver;
#X obj 339 151 tgl 15 0 empty empty empty 17 7 0 10 -262144 -1 -1 1
1;
#X obj 106 189 metro 200;
#X msg 106 213 info;
#X msg 339 200 0;
#X obj 106 162 t f f, f 11;
#X obj 106 122 bng 15 250 50 0 empty empty devices 17 7 0 10 -262144
-1 -1;
#X msg 339 124 0;
#N canvas 1118 166 474 177 \$0-devices 0;
#X obj 15 24 bng 15 250 50 0 \$0-d0-snd \$0-d0-rcv 0:/dev/ttyACM0 19
7 0 10 -262144 -262144 -1;
#X obj 15 41 bng 15 250 50 0 \$0-d1-snd \$0-d1-rcv 1:/dev/ttyS0 19
7 0 10 -241291 -262144 -1;
#X obj 15 58 bng 15 250 50 0 \$0-d2-snd \$0-d2-rcv 2: 19 7 0 10 -262144
-262144 -1;
#X obj 15 75 bng 15 250 50 0 \$0-d3-snd \$0-d3-rcv 3: 19 7 0 10 -262144
-262144 -1;
#X obj 15 92 bng 15 250 50 0 \$0-d4-snd \$0-d4-rcv 4: 19 7 0 10 -262144
-262144 -1;
#X obj 15 109 bng 15 250 50 0 \$0-d5-snd \$0-d5-rcv 5: 19 7 0 10 -262144
-262144 -1;
#X obj 15 126 bng 15 250 50 0 \$0-d6-snd \$0-d6-rcv 6: 19 7 0 10 -262144
-262144 -1;
#X obj 15 143 bng 15 250 50 0 \$0-d7-snd \$0-d7-rcv 7: 19 7 0 10 -262144
-262144 -1;
#X obj 232 25 bng 15 250 50 0 \$0-d8-snd \$0-d8-rcv 8: 19 7 0 10 -262144
-262144 -1;
#X obj 232 42 bng 15 250 50 0 \$0-d9-snd \$0-d9-rcv 9: 19 7 0 10 -262144
-262144 -1;
#X obj 232 59 bng 15 250 50 0 \$0-d10-snd \$0-d10-rcv 10: 19 7 0 10
-262144 -262144 -1;
#X obj 232 76 bng 15 250 50 0 \$0-d11-snd \$0-d11-rcv 11: 19 7 0 10
-262144 -262144 -1;
#X obj 232 93 bng 15 250 50 0 \$0-d12-snd \$0-d12-rcv 12: 19 7 0 10
-262144 -262144 -1;
#X obj 232 110 bng 15 250 50 0 \$0-d13-snd \$0-d13-rcv 13: 19 7 0 10
-262144 -262144 -1;
#X obj 232 127 bng 15 250 50 0 \$0-d14-snd \$0-d14-rcv 14: 19 7 0 10
-262144 -262144 -1;
#X obj 232 144 bng 15 250 50 0 \$0-d15-snd \$0-d15-rcv 15: 19 7 0 10
-262144 -262144 -1;
#X connect 8 0 9 0;
#X restore 491 144 pd \$0-devices;
#X obj 498 322 s pd-\$0-devices;
#X msg 498 297 vis 1;
#X msg 17 315 ports \, info;
#X obj 17 268 t b b;
#X obj 49 292 s \$0-reset-devices;
#X obj 340 298 route open ports;
#X obj 394 383 s \$0-devices-list;
#X obj 339 176 metro 500;
#X obj 394 340 spigot;
#X obj 535 368 r \$0-reset-devices;
#X msg 535 392 1;
#X obj 572 392 del 1000;
#X msg 572 416 0;
#X obj 535 440 tgl 15 0 empty empty empty 17 7 0 10 -262144 -1 -1 0
1;
#X obj 299 101 r \$0-devicenum;
#N canvas 58 82 755 690 \$0-manage_device 0;
#X obj 77 39 moonlib/dispatch \$0-d 0 15;
#X obj 61 90 r \$0-d-snd;
#X obj 208 98 r \$0-reset-devices;
#X msg 208 122 0 \, 1 \, 2 \, 3 \, 4 \, 5 \, 6 \, 7 \, 8 \, 9 \, 10
\, 11 \, 12 \, 13 \, 14 \, 15;
#X obj 208 146 t f f;
#X msg 240 170 label \$1:;
#X obj 208 194 list append;
#X obj 208 218 s \$0-d-rcv;
#X obj 207 254 r \$0-devices-list;
#X msg 207 278 \$1 label \$1:\$2;
#X obj 207 302 s \$0-d-rcv;
#X obj 61 187 s \$0-devicenum;
#X obj 61 138 unpack f;
#X obj 62 279 r \$0-devicenum;
#X obj 62 303 t b f;
#X msg 62 327 0 \, 1 \, 2 \, 3 \, 4 \, 5 \, 6 \, 7 \, 8 \, 9 \, 10
\, 11 \, 12 \, 13 \, 14 \, 15;
#X obj 62 351 t f f;
#X obj 94 373 == 0;
#X obj 62 450 list append;
#X obj 62 474 s \$0-d-rcv;
#X msg 94 421 color \$1 0 22;
#X obj 94 397 * 15;
#X obj 256 395 loadbang;
#X obj 452 259 table \$0-devtab 1;
#X obj 288 446 ggee/getdir;
#X obj 288 473 list append \$1;
#X obj 288 525 s \$0-devtab;
#X obj 256 423 t b b;
#X obj 256 550 tabread \$0-devtab;
#X msg 256 527 0;
#X obj 256 574 s \$0-devicenum;
#X obj 428 400 r \$0-devicenum;
#X obj 428 496 ggee/getdir;
#X obj 428 523 list append \$1;
#X obj 428 575 s \$0-devtab;
#X obj 467 473 tabwrite \$0-devtab;
#X obj 234 398 bng 15 250 50 0 empty empty empty 17 7 0 10 -262144
-1 -1;
#X obj 428 448 t b f, f 6;
#X msg 288 501 read \$1/\$2.txt;
#X msg 428 551 write \$1/\$2.txt;
#X obj 428 424 change -1;
#X connect 1 0 12 0;
#X connect 2 0 3 0;
#X connect 3 0 4 0;
#X connect 4 0 6 0;
#X connect 4 1 5 0;
#X connect 5 0 6 1;
#X connect 6 0 7 0;
#X connect 8 0 9 0;
#X connect 9 0 10 0;
#X connect 12 0 11 0;
#X connect 13 0 14 0;
#X connect 14 0 15 0;
#X connect 14 1 17 1;
#X connect 15 0 16 0;
#X connect 16 0 18 0;
#X connect 16 1 17 0;
#X connect 17 0 21 0;
#X connect 18 0 19 0;
#X connect 20 0 18 1;
#X connect 21 0 20 0;
#X connect 22 0 27 0;
#X connect 24 0 25 0;
#X connect 25 0 38 0;
#X connect 27 0 29 0;
#X connect 27 1 24 0;
#X connect 28 0 30 0;
#X connect 29 0 28 0;
#X connect 31 0 40 0;
#X connect 32 0 33 0;
#X connect 33 0 39 0;
#X connect 36 0 27 0;
#X connect 37 0 32 0;
#X connect 37 1 35 0;
#X connect 38 0 26 0;
#X connect 39 0 34 0;
#X connect 40 0 37 0;
#X restore 492 184 pd \$0-manage_device;
#X connect 0 0 20 0;
#X connect 1 0 8 0;
#X connect 1 1 29 0;
#X connect 2 0 7 0;
#X connect 3 0 4 0;
#X connect 3 0 22 0;
#X connect 3 1 5 0;
#X connect 4 0 1 0;
#X connect 5 0 6 0;
#X connect 6 0 1 0;
#X connect 7 0 0 0;
#X connect 8 0 9 0;
#X connect 8 1 12 0;
#X connect 9 0 10 0;
#X connect 9 1 11 0;
#X connect 10 0 13 0;
#X connect 11 0 14 0;
#X connect 12 0 13 0;
#X connect 13 0 11 1;
#X connect 13 0 12 1;
#X connect 14 0 15 0;
#X connect 16 0 31 0;
#X connect 17 0 18 0;
#X connect 18 0 1 0;
#X connect 19 0 1 0;
#X connect 20 0 17 0;
#X connect 20 1 3 0;
#X connect 21 0 25 0;
#X connect 21 0 27 0;
#X connect 22 0 16 0;
#X connect 25 0 24 0;
#X connect 26 0 1 0;
#X connect 27 0 26 0;
#X connect 27 1 28 0;
#X connect 29 0 16 0;
#X connect 29 1 32 0;
#X connect 31 0 19 0;
#X connect 32 0 30 0;
#X connect 33 0 34 0;
#X connect 33 0 35 0;
#X connect 34 0 37 0;
#X connect 35 0 36 0;
#X connect 36 0 37 0;
#X connect 37 0 32 1;
#X connect 38 0 5 0;
#X coords 0 -1 1 1 85 60 1 100 100;
