#N canvas 728 163 450 300 12;
#X obj 82 18 inlet;
#X obj 82 42 list split 2;
#X obj 122 66 outlet;
#X obj 82 98 unpack f f;
#X obj 82 144 +, f 10;
#X obj 149 121 * 256;
#X obj 82 244 outlet;
#X obj 82 184 moses 32768;
#X obj 156 208 - 65536;
#X connect 0 0 1 0;
#X connect 1 0 3 0;
#X connect 1 1 2 0;
#X connect 3 0 4 0;
#X connect 3 1 5 0;
#X connect 4 0 7 0;
#X connect 5 0 4 1;
#X connect 7 0 6 0;
#X connect 7 1 8 0;
#X connect 8 0 6 0;
