#N canvas 903 408 512 407 12;
#X obj 105 248 translateXYZ;
#X obj 105 202 alpha;
#X obj 105 132 color 1 0.5 0 0.5;
#N canvas 10 333 474 324 rand_color 0;
#X obj 47 130 random 1000;
#X obj 48 171 * 0.001;
#X obj 131 130 random 1000;
#X obj 132 171 * 0.001;
#X obj 214 131 random 1000;
#X obj 215 172 * 0.001;
#X obj 46 83 t b b b;
#X obj 48 256 outlet;
#X obj 47 26 r init;
#X obj 49 217 pack 0 0 0 0.5;
#X connect 0 0 1 0;
#X connect 1 0 9 0;
#X connect 2 0 3 0;
#X connect 3 0 9 1;
#X connect 4 0 5 0;
#X connect 5 0 9 2;
#X connect 6 0 0 0;
#X connect 6 1 2 0;
#X connect 6 2 4 0;
#X connect 8 0 6 0;
#X connect 9 0 7 0;
#X restore 218 105 pd rand_color;
#X obj 235 132 t 1;
#X obj 197 209 unpack 0 0;
#X obj 197 17 r 2boid2d;
#X obj 197 50 route \$1;
#X obj 105 305 pix_texture;
#X obj 179 279 r pointflou_texture;
#X obj 105 71 gemhead;
#X obj 105 337 square 0.5;
#X obj 213 315 r boid2dsize;
#X connect 0 0 8 0;
#X connect 1 0 0 0;
#X connect 2 0 1 0;
#X connect 3 0 2 1;
#X connect 3 0 4 0;
#X connect 4 0 1 1;
#X connect 5 0 0 1;
#X connect 5 1 0 2;
#X connect 6 0 7 0;
#X connect 7 0 5 0;
#X connect 8 0 11 0;
#X connect 9 0 8 1;
#X connect 10 0 2 0;
#X connect 12 0 11 1;
