#N canvas 940 183 780 665 10;
#X declare -lib pof;
#X obj 13 31 r headsets-data;
#X obj 13 55 route 1 2, f 10;
#X obj 13 97 headset_draw 1;
#X obj 14 8 declare -lib pof;
#X obj 16 127 pofhead;
#X obj 43 473 s headset_draw_pofhead;
#X obj 100 206 tgl 15 0 empty empty scene-draw 17 7 0 10 #fcfcfc #000000 #000000 0 1;
#X obj 43 381 t a a, f 8;
#X obj 375 150 pofrect 4000 4000;
#X obj 235 390 t a a;
#X obj 43 406 t a a;
#X obj 43 295 pofvisible;
#X obj 236 277 pofvisible 1;
#X obj 43 436 pofvisible 1;
#X obj 184 205 tgl 15 0 empty empty fullscale/scene 17 7 0 10 #fcfcfc #000000 #000000 0 1;
#X obj 193 250 == 0;
#X obj 41 76 headset_draw 2;
#X obj 233 611 pofrect 1920 1200;
#X obj 16 209 t a a;
#X obj 16 515 pofvisible;
#X obj 49 496 tgl 15 0 empty empty empty 17 7 0 10 #fcfcfc #000000 #000000 0 1;
#X floatatom 397 524 5 0 0 0 - - - 0;
#X msg 285 522 -960;
#X msg 324 518 960;
#X obj 233 560 poftranslate 960;
#X obj 233 585 pofcolor 0 1 0 1;
#X obj 16 599 pofrect 1920 1200;
#X obj 16 552 poftranslate -960;
#X obj 139 552 tgl 15 0 empty empty empty 17 7 0 10 #fcfcfc #000000 #000000 0 1;
#X obj 350 574 tgl 15 0 empty empty empty 17 7 0 10 #fcfcfc #000000 #000000 0 1;
#X obj 16 576 pofcolor 0 1 0 1;
#X obj 407 99 unpack f f f;
#X msg 420 77 \$1 \$1 \$1;
#X msg 449 55 1;
#X obj 16 186 pofscale 1 1;
#X floatatom 97 157 5 0 0 0 - - - 0;
#X msg 478 55 0;
#X obj 138 75 tgl 15 0 empty empty sig 17 7 0 10 #00fc04 #000000 #000000 0 1;
#X obj 110 98 tgl 15 0 empty empty sig 17 7 0 10 #00fc04 #000000 #000000 0 1;
#X msg 420 56 0.2;
#X obj 235 414 poflayer PROJ;
#X obj 43 340 poflayer SIMUL;
#X obj 430 272 s cameras-head;
#X obj 375 34 r cameras-bg;
#X obj 235 368 r cameras-drawhead;
#X obj 430 250 pofcolor;
#X obj 88 405 s camera-simulhead;
#N canvas 143 229 554 621 camera-simul 0;
#X floatatom 80 297 5 0 0 0 - - - 0;
#X floatatom 153 101 5 0 0 0 - - - 0;
#X floatatom 114 101 5 0 0 0 - - - 0;
#X floatatom 60 101 5 0 0 0 - - - 0;
#X obj 16 33 inlet;
#X obj 15 343 outlet;
#X obj 16 274 pofrotate y;
#X obj 16 209 pofrotate x -200;
#X floatatom 136 172 5 0 0 0 - - - 0;
#X obj 16 129 poftranslate 0 600 -1000;
#X obj 16 170 pofscale 1 1 0.25;
#X obj 16 319 pofscale 450 450 450;
#X obj 16 59 t a a, f 43;
#X obj 271 82 poftouch 10000 10000;
#X obj 356 104 route move down, f 28;
#X obj 356 125 unpack f f;
#X obj 356 176 -;
#X obj 413 179 -;
#X obj 436 125 unpack f f;
#X floatatom 356 197 5 0 0 0 - - - 0;
#X floatatom 447 206 5 0 0 0 - - - 0;
#X obj 356 150 t f f;
#X obj 413 153 t f f;
#X obj 100 253 +;
#X obj 100 274 f;
#X obj 228 214 * 0.1;
#X obj 202 304 f;
#X obj 202 283 + -200;
#X obj 413 200 * 0.1;
#X connect 0 0 11 1;
#X connect 0 0 11 2;
#X connect 0 0 11 3;
#X connect 1 0 9 3;
#X connect 2 0 9 2;
#X connect 3 0 9 1;
#X connect 4 0 12 0;
#X connect 6 0 11 0;
#X connect 7 0 6 0;
#X connect 8 0 10 3;
#X connect 9 0 10 0;
#X connect 10 0 7 0;
#X connect 11 0 5 0;
#X connect 12 0 9 0;
#X connect 12 1 13 0;
#X connect 13 1 14 0;
#X connect 14 0 15 0;
#X connect 14 1 18 0;
#X connect 15 0 21 0;
#X connect 15 1 22 0;
#X connect 16 0 19 0;
#X connect 16 0 25 0;
#X connect 17 0 20 0;
#X connect 17 0 28 0;
#X connect 18 0 16 1;
#X connect 18 1 17 1;
#X connect 21 0 16 1;
#X connect 21 1 16 0;
#X connect 22 0 17 1;
#X connect 22 1 17 0;
#X connect 23 0 24 0;
#X connect 24 0 23 1;
#X connect 24 0 6 1;
#X connect 25 0 23 0;
#X connect 26 0 27 1;
#X connect 26 0 7 1;
#X connect 27 0 26 0;
#X connect 28 0 27 0;
#X restore 43 319 pd camera-simul;
#X obj 568 215 viewmode;
#X obj 97 137 r MAINSCALE;
#X obj 112 174 r VIEWSCENE;
#X floatatom 515 127 5 0 0 0 - - - 0;
#X obj 375 128 pofcolor 1 1 1 0.5;
#X obj 143 359 tgl 15 0 empty empty empty 17 7 0 10 #fcfcfc #000000 #000000 0 1;
#X obj 43 360 pofdepthtest;
#X obj 143 317 loadbang;
#X msg 143 338 0;
#X obj 432 302 camera FRONT z 1 0.5 1 0;
#X obj 567 192 poffonts medium Ubuntu-M.ttf;
#X obj 432 323 camera LEFT x 1 1 0.5 0;
#X obj 587 322 camera RIGHT x -1 1 0.5 0;
#X obj 588 301 camera BACK z -1 0.5 1 0;
#X obj 432 343 camera FLOOR y 1 0 0.5 1;
#X obj 588 342 camera TOP y -1 0 0.5 1;
#X obj 236 300 s projectors-head;
#N canvas 72 412 450 300 framerate 0;
#X obj 150 66 t b b;
#X obj 150 87 timer;
#X obj 99 23 pofhead;
#X obj 99 44 pofbang 1;
#X obj 150 109 mavg 20;
#X msg 63 170 1000 \$1;
#X obj 63 191 /;
#X floatatom 63 212 5 0 0 0 - - - 0;
#X obj 63 232 s FRAMERATE-REAL;
#X obj 63 70 loadbang;
#X obj 63 115 metro 200;
#X obj 63 149 f, f 15;
#X obj 63 92 tgl 15 0 empty empty empty 17 7 0 10 #fcfcfc #000000 #000000 0 1;
#X connect 0 0 1 0;
#X connect 0 1 1 1;
#X connect 1 0 4 0;
#X connect 2 0 3 0;
#X connect 3 1 0 0;
#X connect 4 0 11 1;
#X connect 5 0 6 0;
#X connect 6 0 7 0;
#X connect 7 0 8 0;
#X connect 9 0 12 0;
#X connect 10 0 11 0;
#X connect 11 0 5 0;
#X connect 12 0 10 0;
#X restore 567 238 pd framerate;
#X obj 43 230 t a a a, f 65;
#X obj 348 460 tgl 40 1 draw_showfloor draw_showfloor draw_showfloor 0 -8 0 10 #fcfcfc #000000 #000000 0 1;
#N canvas 668 294 583 427 floor(old) 0;
#X obj 91 6 inlet;
#X obj 93 55 poftranslate;
#X obj 93 80 pofrotate x 90;
#X obj 93 126 t a a, f 23;
#X obj 93 205 poffill;
#X obj 230 178 pofcolor 0.2 0.2 0.2 1;
#X msg 131 171 linewidth 4;
#X obj 131 146 loadbang;
#X obj 230 202 pofrect 10 6;
#X obj 93 265 pofrect 10 6;
#X obj 274 94 tgl 15 0 empty empty empty 17 7 0 10 #fcfcfc #000000 #000000 0 1;
#X obj 93 103 pofvisible 1;
#X obj 208 56 r draw_showfloor;
#X obj 183 268 pofvisible;
#X obj 291 397 pofrect 10 0.02;
#X obj 199 237 tgl 15 0 empty empty empty 17 7 0 10 #fcfcfc #000000 #000000 0 1;
#X obj 183 288 pofcolor 0.5 0.5 0.5 1;
#X obj 28 67 tgl 15 0 empty empty empty 17 7 0 10 #fcfcfc #000000 #000000 0 1;
#X obj 291 375 poftranslate;
#X obj 183 384 poftranslate;
#X floatatom 206 333 5 0 0 0 - - - 0;
#X floatatom 337 328 5 0 0 0 - - - 0;
#X obj 206 358 / 100;
#X obj 337 348 / 100;
#X obj 401 400 pofsphere 0.1;
#X obj 401 378 poftranslate;
#X floatatom 424 327 5 0 0 0 - - - 0;
#X obj 424 352 / 100;
#X floatatom 463 326 5 0 0 0 - - - 0;
#X obj 463 351 / 100;
#X floatatom 502 325 5 0 0 0 - - - 0;
#X obj 502 350 / 100;
#X obj 328 287 pofcolor 1 0 0 1;
#X obj 368 94 r drawSize;
#X obj 368 115 unpack f f f;
#X obj 183 403 pofrect 0.02 6;
#X connect 1 0 2 0;
#X connect 2 0 11 0;
#X connect 3 0 4 0;
#X connect 3 0 13 0;
#X connect 3 1 5 0;
#X connect 4 0 9 0;
#X connect 5 0 8 0;
#X connect 6 0 4 0;
#X connect 7 0 6 0;
#X connect 10 0 5 4;
#X connect 11 0 3 0;
#X connect 12 0 11 0;
#X connect 13 0 16 0;
#X connect 13 0 32 0;
#X connect 15 0 13 0;
#X connect 16 0 18 0;
#X connect 16 0 19 0;
#X connect 17 0 11 0;
#X connect 18 0 14 0;
#X connect 19 0 35 0;
#X connect 20 0 22 0;
#X connect 21 0 23 0;
#X connect 22 0 19 1;
#X connect 23 0 18 2;
#X connect 25 0 24 0;
#X connect 26 0 27 0;
#X connect 27 0 25 1;
#X connect 28 0 29 0;
#X connect 29 0 25 2;
#X connect 30 0 31 0;
#X connect 31 0 25 3;
#X connect 32 0 25 0;
#X connect 33 0 34 0;
#X connect 34 0 9 1;
#X connect 34 0 8 1;
#X connect 34 0 14 1;
#X connect 34 1 8 2;
#X connect 34 1 9 2;
#X connect 34 1 35 2;
#X restore 262 471 pd floor(old);
#X obj 524 34 r cameras-bg-on;
#X obj 524 60 * 0.5;
#X obj 194 97 s head1-sig;
#X obj 191 56 s head2-sig;
#X obj 505 501 pofhead;
#X obj 505 542 pofvisible;
#X obj 561 515 tgl 15 0 empty empty empty 17 7 0 10 #fcfcfc #000000 #000000 0 1;
#X obj 505 563 pofrect 100000 10000;
#X obj 561 491 r ALL_WHITE;
#X obj 524 86 +;
#X obj 560 86 t b f;
#X obj 622 89 hsl 128 15 0 1 0 0 empty empty empty -2 -8 0 10 #fcfcfc #000000 #000000 0 1;
#X obj 577 59 r cameras-inverse;
#X obj 619 112 s cameras-inverse;
#X obj 503 385 r MAINSCALE;
#X obj 503 468 s projectors-touchedit-size;
#X obj 503 427 /;
#X floatatom 503 448 5 0 0 0 - - - 0;
#X obj 503 406 list prepend 20;
#X floatatom 571 143 5 0 0 0 - - - 0;
#X obj 375 81 t a a;
#X obj 448 195 pofrect 4000 4000;
#X obj 448 173 pofcolor 0 0 0 1;
#X obj 16 150 pofvisible 1;
#X obj 64 126 tgl 18 0 empty empty empty 0 -9 0 10 #fcfcfc #000000 #000000 0 1;
#X connect 0 0 1 0;
#X connect 1 0 2 0;
#X connect 1 1 16 0;
#X connect 2 0 38 0;
#X connect 4 0 92 0;
#X connect 6 0 13 0;
#X connect 7 0 10 0;
#X connect 7 1 46 0;
#X connect 9 0 40 0;
#X connect 9 1 68 0;
#X connect 10 0 13 0;
#X connect 10 1 68 0;
#X connect 11 0 47 0;
#X connect 12 0 64 0;
#X connect 13 0 5 0;
#X connect 14 0 11 0;
#X connect 14 0 15 0;
#X connect 15 0 12 0;
#X connect 16 0 37 0;
#X connect 18 0 19 0;
#X connect 18 1 66 0;
#X connect 19 0 24 0;
#X connect 19 0 27 0;
#X connect 20 0 19 0;
#X connect 21 0 24 1;
#X connect 22 0 24 1;
#X connect 23 0 24 1;
#X connect 24 0 25 0;
#X connect 25 0 17 0;
#X connect 27 0 30 0;
#X connect 28 0 30 4;
#X connect 29 0 25 4;
#X connect 30 0 26 0;
#X connect 31 0 52 1;
#X connect 31 1 52 2;
#X connect 31 2 52 3;
#X connect 32 0 31 0;
#X connect 33 0 32 0;
#X connect 34 0 18 0;
#X connect 35 0 34 2;
#X connect 35 0 34 1;
#X connect 36 0 32 0;
#X connect 37 0 72 0;
#X connect 38 0 71 0;
#X connect 39 0 32 0;
#X connect 40 0 5 0;
#X connect 41 0 54 0;
#X connect 43 0 89 0;
#X connect 44 0 9 0;
#X connect 45 0 42 0;
#X connect 47 0 41 0;
#X connect 49 0 35 0;
#X connect 50 0 14 0;
#X connect 50 0 6 0;
#X connect 51 0 52 4;
#X connect 52 0 8 0;
#X connect 53 0 54 0;
#X connect 54 0 7 0;
#X connect 55 0 56 0;
#X connect 56 0 53 0;
#X connect 66 0 11 0;
#X connect 66 1 12 0;
#X connect 66 2 45 0;
#X connect 69 0 70 0;
#X connect 69 0 88 0;
#X connect 70 0 78 0;
#X connect 73 0 74 0;
#X connect 74 0 76 0;
#X connect 75 0 74 0;
#X connect 77 0 75 0;
#X connect 78 0 52 4;
#X connect 79 0 78 0;
#X connect 79 1 78 1;
#X connect 80 0 82 0;
#X connect 81 0 79 0;
#X connect 83 0 87 0;
#X connect 85 0 86 0;
#X connect 86 0 84 0;
#X connect 87 0 85 0;
#X connect 89 0 52 0;
#X connect 89 1 91 0;
#X connect 91 0 90 0;
#X connect 92 0 34 0;
#X connect 93 0 92 0;
