#N canvas 383 190 780 611 10;
#X declare -lib pof;
#X obj 13 31 r headsets-data;
#X obj 13 55 route 1 2, f 10;
#X obj 13 97 headset_draw 1;
#X obj 14 8 declare -lib pof;
#X obj 16 134 pofhead;
#X obj 43 443 s headset_draw_pofhead;
#X obj 100 176 tgl 15 0 empty empty scene-draw 17 7 0 10 -262144 -1
-1 1 1;
#X obj 43 351 t a a, f 8;
#X obj 375 150 pofrect 4000 4000;
#X obj 235 360 t a a;
#X obj 43 376 t a a;
#X obj 43 265 pofvisible;
#X obj 236 247 pofvisible 1;
#X obj 43 406 pofvisible 1;
#X obj 184 175 tgl 15 0 empty empty fullscale/scene 17 7 0 10 -262144
-1 -1 1 1;
#X obj 193 220 == 0;
#X obj 41 76 headset_draw 2;
#X obj 233 581 pofrect 1920 1200;
#X obj 16 179 t a a;
#X obj 16 485 pofvisible;
#X obj 49 466 tgl 15 0 empty empty empty 17 7 0 10 -262144 -1 -1 0
1;
#X floatatom 397 494 5 0 0 0 - - -;
#X msg 285 492 -960;
#X msg 324 488 960;
#X obj 233 530 poftranslate 960;
#X obj 233 555 pofcolor 0 1 0 1;
#X obj 16 569 pofrect 1920 1200;
#X obj 16 522 poftranslate -960;
#X obj 139 522 tgl 15 0 empty empty empty 17 7 0 10 -262144 -1 -1 0
1;
#X obj 350 544 tgl 15 0 empty empty empty 17 7 0 10 -262144 -1 -1 0
1;
#X obj 16 546 pofcolor 0 1 0 1;
#X obj 407 99 unpack f f f;
#X msg 420 77 \$1 \$1 \$1;
#X msg 449 55 1;
#X obj 16 156 pofscale 1 1;
#X floatatom 66 135 5 0 0 0 - - -;
#X msg 478 55 0;
#X obj 138 75 tgl 15 0 empty empty sig 17 7 0 10 -4034 -1 -1 0 1;
#X obj 110 98 tgl 15 0 empty empty sig 17 7 0 10 -4034 -1 -1 0 1;
#X msg 420 56 0.2;
#X obj 235 384 poflayer PROJ;
#X obj 43 310 poflayer SIMUL;
#X obj 430 242 s cameras-head;
#X obj 375 34 r cameras-bg;
#X obj 235 338 r cameras-drawhead;
#X obj 430 220 pofcolor;
#X obj 88 375 s camera-simulhead;
#N canvas 143 229 554 621 camera-simul 0;
#X floatatom 80 297 5 0 0 0 - - -;
#X floatatom 153 101 5 0 0 0 - - -;
#X floatatom 114 101 5 0 0 0 - - -;
#X floatatom 60 101 5 0 0 0 - - -;
#X obj 16 33 inlet;
#X obj 15 343 outlet;
#X obj 16 274 pofrotate y;
#X obj 16 209 pofrotate x -200;
#X floatatom 136 172 5 0 0 0 - - -;
#X obj 16 129 poftranslate 0 600 -1000;
#X obj 16 170 pofscale 1 1 0.25;
#X obj 16 319 pofscale 450 450 450;
#X obj 16 59 t a a, f 43;
#X obj 271 82 poftouch 10000 10000;
#X obj 356 104 route move down, f 28;
#X obj 356 125 unpack f f;
#X obj 356 176 -;
#X obj 413 179 -;
#X obj 436 125 unpack f f;
#X floatatom 356 197 5 0 0 0 - - -;
#X floatatom 447 206 5 0 0 0 - - -;
#X obj 356 150 t f f;
#X obj 413 153 t f f;
#X obj 100 253 +;
#X obj 100 274 f;
#X obj 228 214 * 0.1;
#X obj 202 304 f;
#X obj 202 283 + -200;
#X obj 413 200 * 0.1;
#X connect 0 0 11 1;
#X connect 0 0 11 2;
#X connect 0 0 11 3;
#X connect 1 0 9 3;
#X connect 2 0 9 2;
#X connect 3 0 9 1;
#X connect 4 0 12 0;
#X connect 6 0 11 0;
#X connect 7 0 6 0;
#X connect 8 0 10 3;
#X connect 9 0 10 0;
#X connect 10 0 7 0;
#X connect 11 0 5 0;
#X connect 12 0 9 0;
#X connect 12 1 13 0;
#X connect 13 1 14 0;
#X connect 14 0 15 0;
#X connect 14 1 18 0;
#X connect 15 0 21 0;
#X connect 15 1 22 0;
#X connect 16 0 19 0;
#X connect 16 0 25 0;
#X connect 17 0 20 0;
#X connect 17 0 28 0;
#X connect 18 0 16 1;
#X connect 18 1 17 1;
#X connect 21 0 16 1;
#X connect 21 1 16 0;
#X connect 22 0 17 1;
#X connect 22 1 17 0;
#X connect 23 0 24 0;
#X connect 24 0 23 1;
#X connect 24 0 6 1;
#X connect 25 0 23 0;
#X connect 26 0 27 1;
#X connect 26 0 7 1;
#X connect 27 0 26 0;
#X connect 28 0 27 0;
#X restore 43 289 pd camera-simul;
#X obj 568 215 viewmode;
#X obj 66 115 r MAINSCALE;
#X obj 112 144 r VIEWSCENE;
#X floatatom 522 106 5 0 0 0 - - -;
#X obj 375 128 pofcolor 1 1 1 0.5;
#X obj 143 329 tgl 15 0 empty empty empty 17 7 0 10 -262144 -1 -1 0
1;
#X obj 43 330 pofdepthtest;
#X obj 143 287 loadbang;
#X msg 143 308 0;
#X obj 432 302 camera FRONT z 1 0.5 1 0;
#X obj 567 192 poffonts medium Ubuntu-M.ttf;
#X obj 432 323 camera LEFT x 1 1 0.5 0;
#X obj 587 322 camera RIGHT x -1 1 0.5 0;
#X obj 588 301 camera BACK z -1 0.5 1 0;
#X obj 432 343 camera FLOOR y 1 0 0.5 1;
#X obj 588 342 camera TOP y -1 0 0.5 1;
#X obj 236 270 s projectors-head;
#N canvas 1 81 450 300 framerate 0;
#X obj 175 83 t b b;
#X obj 175 104 timer;
#X obj 124 40 pofhead;
#X obj 124 61 pofbang 1;
#X obj 175 126 mavg 20;
#X obj 175 150 maxlib/speedlim 200;
#X msg 175 171 1000 \$1;
#X obj 175 192 /;
#X floatatom 175 213 5 0 0 0 - - -;
#X obj 175 233 s FRAMERATE-REAL;
#X connect 0 0 1 0;
#X connect 0 1 1 1;
#X connect 1 0 4 0;
#X connect 2 0 3 0;
#X connect 3 1 0 0;
#X connect 4 0 5 0;
#X connect 5 0 6 0;
#X connect 6 0 7 0;
#X connect 7 0 8 0;
#X connect 8 0 9 0;
#X restore 567 238 pd framerate;
#X obj 43 200 t a a a, f 65;
#X obj 348 430 tgl 40 1 draw_showfloor draw_showfloor draw_showfloor
0 -8 0 10 -262144 -1 -1 0 1;
#N canvas 668 294 583 427 floor(old) 0;
#X obj 91 6 inlet;
#X obj 93 55 poftranslate;
#X obj 93 80 pofrotate x 90;
#X obj 93 126 t a a, f 23;
#X obj 93 205 poffill;
#X obj 230 178 pofcolor 0.2 0.2 0.2 1;
#X msg 131 171 linewidth 4;
#X obj 131 146 loadbang;
#X obj 230 202 pofrect 10 6;
#X obj 93 265 pofrect 10 6;
#X obj 274 94 tgl 15 0 empty empty empty 17 7 0 10 -262144 -1 -1 0
1;
#X obj 93 103 pofvisible 1;
#X obj 208 56 r draw_showfloor;
#X obj 183 268 pofvisible;
#X obj 291 397 pofrect 10 0.02;
#X obj 199 237 tgl 15 0 empty empty empty 17 7 0 10 -262144 -1 -1 0
1;
#X obj 183 288 pofcolor 0.5 0.5 0.5 1;
#X obj 28 67 tgl 15 0 empty empty empty 17 7 0 10 -262144 -1 -1 0 1
;
#X obj 291 375 poftranslate;
#X obj 183 384 poftranslate;
#X floatatom 206 333 5 0 0 0 - - -;
#X floatatom 337 328 5 0 0 0 - - -;
#X obj 206 358 / 100;
#X obj 337 348 / 100;
#X obj 401 400 pofsphere 0.1;
#X obj 401 378 poftranslate;
#X floatatom 424 327 5 0 0 0 - - -;
#X obj 424 352 / 100;
#X floatatom 463 326 5 0 0 0 - - -;
#X obj 463 351 / 100;
#X floatatom 502 325 5 0 0 0 - - -;
#X obj 502 350 / 100;
#X obj 328 287 pofcolor 1 0 0 1;
#X obj 368 94 r drawSize;
#X obj 368 115 unpack f f f;
#X obj 183 403 pofrect 0.02 6;
#X connect 1 0 2 0;
#X connect 2 0 11 0;
#X connect 3 0 4 0;
#X connect 3 0 13 0;
#X connect 3 1 5 0;
#X connect 4 0 9 0;
#X connect 5 0 8 0;
#X connect 6 0 4 0;
#X connect 7 0 6 0;
#X connect 10 0 5 4;
#X connect 11 0 3 0;
#X connect 12 0 11 0;
#X connect 13 0 16 0;
#X connect 13 0 32 0;
#X connect 15 0 13 0;
#X connect 16 0 18 0;
#X connect 16 0 19 0;
#X connect 17 0 11 0;
#X connect 18 0 14 0;
#X connect 19 0 35 0;
#X connect 20 0 22 0;
#X connect 21 0 23 0;
#X connect 22 0 19 1;
#X connect 23 0 18 2;
#X connect 25 0 24 0;
#X connect 26 0 27 0;
#X connect 27 0 25 1;
#X connect 28 0 29 0;
#X connect 29 0 25 2;
#X connect 30 0 31 0;
#X connect 31 0 25 3;
#X connect 32 0 25 0;
#X connect 33 0 34 0;
#X connect 34 0 9 1;
#X connect 34 0 8 1;
#X connect 34 0 14 1;
#X connect 34 1 8 2;
#X connect 34 1 9 2;
#X connect 34 1 35 2;
#X restore 262 441 pd floor(old);
#X obj 524 34 r cameras-bg-on;
#X obj 524 55 * 0.5;
#X connect 0 0 1 0;
#X connect 1 0 2 0;
#X connect 1 1 16 0;
#X connect 2 0 38 0;
#X connect 4 0 34 0;
#X connect 6 0 13 0;
#X connect 7 0 10 0;
#X connect 7 1 46 0;
#X connect 9 0 40 0;
#X connect 9 1 68 0;
#X connect 10 0 13 0;
#X connect 10 1 68 0;
#X connect 11 0 47 0;
#X connect 12 0 64 0;
#X connect 13 0 5 0;
#X connect 14 0 11 0;
#X connect 14 0 15 0;
#X connect 15 0 12 0;
#X connect 16 0 37 0;
#X connect 18 0 19 0;
#X connect 18 1 66 0;
#X connect 19 0 24 0;
#X connect 19 0 27 0;
#X connect 20 0 19 0;
#X connect 21 0 24 1;
#X connect 22 0 24 1;
#X connect 23 0 24 1;
#X connect 24 0 25 0;
#X connect 25 0 17 0;
#X connect 27 0 30 0;
#X connect 28 0 30 4;
#X connect 29 0 25 4;
#X connect 30 0 26 0;
#X connect 31 0 52 1;
#X connect 31 1 52 2;
#X connect 31 2 52 3;
#X connect 32 0 31 0;
#X connect 33 0 32 0;
#X connect 34 0 18 0;
#X connect 35 0 34 2;
#X connect 35 0 34 1;
#X connect 36 0 32 0;
#X connect 39 0 32 0;
#X connect 40 0 5 0;
#X connect 41 0 54 0;
#X connect 43 0 52 0;
#X connect 44 0 9 0;
#X connect 45 0 42 0;
#X connect 47 0 41 0;
#X connect 49 0 35 0;
#X connect 50 0 14 0;
#X connect 50 0 6 0;
#X connect 51 0 52 4;
#X connect 52 0 8 0;
#X connect 53 0 54 0;
#X connect 54 0 7 0;
#X connect 55 0 56 0;
#X connect 56 0 53 0;
#X connect 66 0 11 0;
#X connect 66 1 12 0;
#X connect 66 2 45 0;
#X connect 69 0 70 0;
#X connect 70 0 52 4;
