#N canvas 8 512 422 289 12;
#X obj 23 88 r \$3-\$4-\$5-x-snd;
#X obj 44 112 r \$3-\$4-\$5-y-snd;
#X obj 23 161 pack f f;
#X obj 21 18 apf \$1 \$2-\$4-\$5-x \$3-\$4-\$5-x 2;
#X obj 21 44 apf \$1 \$2-\$4-\$5-y \$3-\$4-\$5-y 2;
#X obj 44 136 t b f;
#X obj 23 242 s \$3-corners-toparams;
#X obj 23 214 list trim;
#X obj 23 187 list prepend \$4 \$5;
#X obj 179 88 r \$3-corners-params;
#X obj 179 112 route \$4;
#X obj 179 136 route \$5;
#X obj 179 160 unpack f f;
#X obj 179 207 s \$3-\$4-\$5-x-rcv;
#X obj 246 185 s \$3-\$4-\$5-y-rcv;
#X connect 0 0 2 0;
#X connect 1 0 5 0;
#X connect 2 0 8 0;
#X connect 5 0 2 0;
#X connect 5 1 2 1;
#X connect 7 0 6 0;
#X connect 8 0 7 0;
#X connect 9 0 10 0;
#X connect 10 0 11 0;
#X connect 11 0 12 0;
#X connect 12 0 13 0;
#X connect 12 1 14 0;
