#N canvas 634 102 940 794 10;
#X obj 31 727 s cameras-drawhead;
#X obj 214 169 s cameras-bg;
#X obj 31 71 r cameras-head;
#X msg 133 73 quality \$1;
#X obj 133 48 tgl 15 0 empty empty empty 17 7 0 10 -262144 -1 -1 0
1;
#X floatatom 110 317 5 0 0 0 - - -;
#X floatatom 70 316 5 0 0 0 - - -;
#X floatatom 152 317 5 0 0 0 - - -;
#X obj 250 10 r drawSize;
#X obj 238 394 unpack f f f;
#X floatatom 144 505 5 0 0 0 - - -;
#X obj 31 108 poffbo camera-\$1 2048 2048;
#X floatatom 527 526 5 0 0 0 - - -;
#X floatatom 488 525 5 0 0 0 - - -;
#X floatatom 443 527 5 0 0 0 - - -;
#X obj 447 626 poftexture camera-\$1;
#X obj 408 405 r camera-simulhead;
#X obj 268 509 loadbang;
#X obj 268 530 symbol \$2;
#X obj 115 479 hsl 128 15 0 -4 0 0 empty empty empty -2 -8 0 10 -262144
-1 -1 0 1;
#X floatatom 139 386 5 0 0 0 - - -;
#X floatatom 100 385 5 0 0 0 - - -;
#X floatatom 249 449 5 0 0 0 - - -;
#X obj 249 469 * -1;
#X obj 31 524 poftranslate 0 0 -4;
#X obj 31 335 pofscale 100 300 100;
#X obj 127 362 * -0.5;
#X obj 31 500 pofscale 1 1 -4;
#X obj 382 271 * 0.5;
#X obj 408 549 poftranslate 0 0 0;
#X obj 423 270 * 0.5;
#X obj 83 457 hsl 128 15 1 2 0 0 empty empty empty -2 -8 0 10 -262144
-1 -1 0 1;
#X obj 268 551 sel x y z, f 18;
#X obj 481 50 list prepend \$3 \$2;
#X obj 481 92 route x y z, f 29;
#X obj 70 248 t a a, f 12;
#X obj 70 295 /;
#X obj 140 293 /;
#X obj 51 433 hsl 128 15 1 2 0 0 empty empty empty -2 -8 0 10 -262144
-1 -1 0 1;
#X obj 484 669 unpack f f;
#X msg 250 31 \$1 \$3 \$2;
#X obj 250 52 s \$0-drawSize;
#X text 333 53 homogenous...;
#X obj 481 29 r \$0-drawSize;
#X obj 31 644 pofrotate y, f 15;
#X obj 31 669 pofrotate x, f 15;
#X obj 268 594 * \$3;
#X obj 302 594 * \$3;
#X obj 338 574 f \$3;
#X obj 338 595 - 1;
#X msg 597 114 \$1 \$2 \$3;
#X obj 597 322 loadbang;
#X obj 597 343 symbol \$2;
#X obj 597 364 sel x y z, f 18;
#X obj 408 472 pofrotate y, f 15;
#X obj 408 497 pofrotate x, f 15;
#X obj 597 407 * \$3;
#X obj 632 407 * \$3;
#X obj 667 387 f \$3;
#X obj 667 408 - 1;
#X obj 330 346 bng 15 250 50 0 empty empty empty 17 7 0 10 -262144
-1 -1;
#X msg 268 573 90;
#X msg 481 113 \$3 \$2 \$1;
#X msg 597 386 -90;
#X floatatom 522 689 5 0 0 0 - - -;
#X floatatom 484 689 5 0 0 0 - - -;
#X obj 447 710 pofplane 4 4;
#X floatatom 542 453 5 0 0 0 - - -;
#X floatatom 138 620 5 0 0 0 - - -;
#X floatatom 143 649 5 0 0 0 - - -;
#X obj 331 241 unpack f f f;
#X obj 31 616 pofrotate z, f 15;
#X floatatom 129 588 5 0 0 0 - - -;
#X obj 31 700 poftranslate 0 -2 0;
#X obj 249 427 * 0.5;
#X floatatom 158 540 5 0 0 0 - - -;
#X obj 190 374 * 0.5;
#X msg 537 114 \$1 \$3 \$2;
#X obj 31 566 poftranslate 0 0 0;
#X floatatom 185 710 5 0 0 0 - - -;
#X msg 302 573 -90;
#X msg 632 386 90;
#X obj 481 71 route 1 -1, f 14;
#X floatatom 632 452 5 0 0 0 - - -;
#X obj 331 151 list prepend \$2;
#X obj 331 173 list trim;
#X obj 331 195 route x y z;
#X obj 465 244 unpack f f f;
#X floatatom 635 263 5 0 0 0 - - -;
#X obj 534 286 route -1;
#X obj 408 572 t a a a;
#X obj 408 734 s camera-simulhead-\$1;
#X obj 714 528 loadbang;
#X obj 714 549 symbol \$1;
#X msg 714 570 text \$1;
#X obj 771 528 bng 15 250 50 0 empty empty empty 17 7 0 10 -262144
-1 -1;
#X floatatom 565 733 5 0 0 0 - - -;
#X msg 565 753 size \$1;
#X obj 31 147 t a a a, f 31;
#X obj 31 372 t a a;
#X obj 603 700 pofscale 0.02 -0.02 1;
#X obj 667 429 * -90;
#X obj 338 616 * -90;
#X obj 534 265 list prepend \$3;
#X obj 583 636 tgl 15 0 empty empty empty 17 7 0 10 -262144 -1 -1 1
1;
#X obj 481 140 s \$1-size;
#X obj 70 227 r \$1-size;
#X obj 286 108 r \$1-size;
#X obj 484 648 r \$1-size;
#X obj 568 531 r VIEWMODE;
#X obj 568 552 == 2;
#X obj 568 573 max 0.1;
#X obj 447 599 pofcolor \$4 \$5 \$6 1;
#N canvas 51 409 450 449 grid 0;
#X obj 141 17 inlet;
#X obj 141 38 t a;
#X obj 141 358 poftranslate 0.5;
#X obj 241 389 poftranslate 0.5;
#X obj 158 271 poftranslate 2;
#X obj 167 221 poftranslate 4;
#X obj 141 246 t a;
#X obj 141 196 t a;
#X obj 141 149 t a;
#X obj 156 172 pofrotate y 180;
#X obj 172 76 pofrotate z 90;
#X obj 141 111 pofrect 0.15 50;
#X obj 161 329 poftranslate 1;
#X obj 141 301 t a;
#X obj 242 414 pofrect 0.04 50;
#X obj 141 413 pofrect 0.01 50;
#X connect 0 0 1 0;
#X connect 1 0 10 0;
#X connect 1 0 11 0;
#X connect 2 0 3 0;
#X connect 2 0 15 0;
#X connect 3 0 14 0;
#X connect 4 0 13 0;
#X connect 5 0 6 0;
#X connect 6 0 4 0;
#X connect 6 0 13 0;
#X connect 7 0 5 0;
#X connect 7 0 6 0;
#X connect 8 0 7 0;
#X connect 8 0 9 0;
#X connect 9 0 7 0;
#X connect 10 0 11 0;
#X connect 11 0 8 0;
#X connect 12 0 2 0;
#X connect 13 0 2 0;
#X connect 13 0 12 0;
#X restore 689 677 pd grid;
#X obj 31 408 poftranslate 0 0 4;
#X msg 70 274 2048 \$1;
#X msg 140 271 2048 \$2;
#X obj 603 730 poftexts medium 60;
#X obj 603 622 t a a, f 14;
#X obj 689 656 pofvisible;
#X obj 603 656 pofvisible;
#X obj 705 631 r camera_draw_grid;
#X obj 625 597 r camera_draw_labels;
#X connect 2 0 11 0;
#X connect 3 0 11 0;
#X connect 4 0 3 0;
#X connect 5 0 25 2;
#X connect 6 0 25 1;
#X connect 7 0 25 3;
#X connect 8 0 40 0;
#X connect 9 2 74 0;
#X connect 10 0 24 3;
#X connect 11 0 98 0;
#X connect 12 0 29 3;
#X connect 13 0 29 2;
#X connect 14 0 29 1;
#X connect 15 0 66 0;
#X connect 16 0 54 0;
#X connect 17 0 18 0;
#X connect 18 0 32 0;
#X connect 19 0 27 3;
#X connect 20 0 114 3;
#X connect 21 0 114 2;
#X connect 22 0 23 0;
#X connect 23 0 10 0;
#X connect 24 0 78 0;
#X connect 25 0 99 0;
#X connect 26 0 21 0;
#X connect 27 0 24 0;
#X connect 28 0 13 0;
#X connect 29 0 90 0;
#X connect 30 0 12 0;
#X connect 31 0 27 2;
#X connect 32 0 61 0;
#X connect 32 1 80 0;
#X connect 32 2 48 0;
#X connect 33 0 82 0;
#X connect 34 0 62 0;
#X connect 34 1 77 0;
#X connect 34 2 50 0;
#X connect 35 0 115 0;
#X connect 35 1 116 0;
#X connect 36 0 6 0;
#X connect 37 0 5 0;
#X connect 38 0 27 1;
#X connect 39 0 65 0;
#X connect 39 1 64 0;
#X connect 40 0 41 0;
#X connect 43 0 33 0;
#X connect 44 0 45 0;
#X connect 45 0 73 0;
#X connect 46 0 68 0;
#X connect 47 0 69 0;
#X connect 48 0 49 0;
#X connect 49 0 102 0;
#X connect 50 0 105 0;
#X connect 51 0 52 0;
#X connect 52 0 53 0;
#X connect 53 0 63 0;
#X connect 53 1 81 0;
#X connect 53 2 58 0;
#X connect 54 0 55 0;
#X connect 55 0 29 0;
#X connect 56 0 67 0;
#X connect 57 0 83 0;
#X connect 58 0 59 0;
#X connect 59 0 101 0;
#X connect 60 0 18 0;
#X connect 60 0 52 0;
#X connect 61 0 46 0;
#X connect 62 0 105 0;
#X connect 63 0 56 0;
#X connect 64 0 66 2;
#X connect 65 0 66 1;
#X connect 67 0 54 1;
#X connect 68 0 44 1;
#X connect 69 0 45 1;
#X connect 70 1 28 0;
#X connect 70 1 76 0;
#X connect 70 1 26 0;
#X connect 70 2 30 0;
#X connect 71 0 44 0;
#X connect 72 0 71 1;
#X connect 73 0 0 0;
#X connect 74 0 22 0;
#X connect 75 0 78 2;
#X connect 76 0 75 0;
#X connect 77 0 105 0;
#X connect 78 0 71 0;
#X connect 79 0 73 2;
#X connect 80 0 47 0;
#X connect 81 0 57 0;
#X connect 82 0 34 0;
#X connect 82 1 34 0;
#X connect 83 0 55 1;
#X connect 84 0 85 0;
#X connect 85 0 86 0;
#X connect 86 0 70 0;
#X connect 86 1 87 0;
#X connect 86 2 70 0;
#X connect 87 2 88 0;
#X connect 87 2 103 0;
#X connect 89 0 12 0;
#X connect 90 0 91 0;
#X connect 90 2 112 0;
#X connect 92 0 93 0;
#X connect 93 0 94 0;
#X connect 94 0 117 0;
#X connect 95 0 93 0;
#X connect 96 0 97 0;
#X connect 97 0 117 0;
#X connect 98 1 25 0;
#X connect 98 2 1 0;
#X connect 99 0 118 0;
#X connect 99 1 114 0;
#X connect 100 0 117 0;
#X connect 101 0 67 0;
#X connect 102 0 68 0;
#X connect 103 0 89 0;
#X connect 104 0 120 0;
#X connect 106 0 35 0;
#X connect 107 0 9 0;
#X connect 107 0 84 0;
#X connect 108 0 39 0;
#X connect 109 0 110 0;
#X connect 110 0 111 0;
#X connect 111 0 112 4;
#X connect 112 0 15 0;
#X connect 114 0 27 0;
#X connect 115 0 36 0;
#X connect 116 0 37 0;
#X connect 118 0 120 0;
#X connect 118 1 119 0;
#X connect 119 0 113 0;
#X connect 120 0 100 0;
#X connect 121 0 119 0;
#X connect 122 0 120 0;
