#N canvas 1014 191 768 787 10;
#X obj 55 24 inlet pos;
#X obj 431 19 r headset_draw_pofhead;
#X msg 247 591 strokeWidth \$1;
#X floatatom 247 570 5 0 0 0 - - -;
#X obj 179 617 t a;
#X msg 55 45 \$4 \$1 \$2 \$3;
#X obj 55 66 route 1 0;
#X msg 166 199 moveTo \$1 \$2 \$3;
#X msg 55 229 lineTo \$1 \$2 \$3;
#X msg 74 516 clear;
#X obj 146 677 print;
#X msg 33 272 curveTo \$1 \$2 \$3;
#X msg 600 603 res \$1;
#X msg 571 549 2;
#X msg 600 550 3;
#X msg 658 547 5;
#X obj 74 485 r draw_clear;
#X msg 629 546 4;
#X msg 144 427 strokeColor 1 1 1 1;
#N canvas 48 491 552 384 minDistance 0;
#X obj 164 54 inlet;
#X obj 164 132 unpack f f f;
#X obj 250 132 unpack f f f;
#X obj 164 153 -;
#X obj 198 154 -;
#X obj 233 155 -;
#X obj 164 174 abs;
#X obj 198 174 abs;
#X obj 233 176 abs;
#X obj 164 195 +;
#X obj 198 195 +;
#X obj 221 237 b;
#X obj 221 258 list, f 20;
#X obj 250 50 inlet;
#X obj 164 93 t a a, f 30;
#X obj 221 279 t a a, f 11;
#X obj 221 300 outlet;
#X obj 42 259 b;
#X obj 42 280 i;
#X obj 72 279 + 1;
#X obj 75 231 r draw_clear;
#X msg 75 252 0;
#X floatatom 42 301 5 0 0 0 - - -;
#X obj 373 306 b;
#X obj 373 327 i;
#X obj 403 326 + 1;
#X obj 406 278 r draw_clear;
#X msg 406 299 0;
#X floatatom 373 348 5 0 0 0 - - -;
#X obj 164 216 moses 0.04;
#X connect 0 0 14 0;
#X connect 1 0 3 0;
#X connect 1 1 4 0;
#X connect 1 2 5 0;
#X connect 2 0 3 1;
#X connect 2 1 4 1;
#X connect 2 2 5 1;
#X connect 3 0 6 0;
#X connect 4 0 7 0;
#X connect 5 0 8 0;
#X connect 6 0 9 0;
#X connect 7 0 10 0;
#X connect 8 0 10 1;
#X connect 9 0 29 0;
#X connect 10 0 9 1;
#X connect 11 0 12 0;
#X connect 12 0 15 0;
#X connect 13 0 2 0;
#X connect 14 0 1 0;
#X connect 14 0 17 0;
#X connect 14 1 12 1;
#X connect 15 0 16 0;
#X connect 15 1 2 0;
#X connect 15 1 23 0;
#X connect 17 0 18 0;
#X connect 18 0 19 0;
#X connect 18 0 22 0;
#X connect 19 0 18 1;
#X connect 20 0 21 0;
#X connect 21 0 18 1;
#X connect 23 0 24 0;
#X connect 24 0 25 0;
#X connect 24 0 28 0;
#X connect 25 0 24 1;
#X connect 26 0 27 0;
#X connect 27 0 24 1;
#X connect 29 1 11 0;
#X restore 55 145 pd minDistance;
#X obj 269 113 print;
#X obj 269 63 spigot;
#X obj 323 27 tgl 15 0 empty empty empty 17 7 0 10 #fcfcfc #000000
#000000 0 1;
#X obj 431 176 poftranslate, f 16;
#X obj 462 153 unpack f f f;
#X obj 431 218 pofsphere 0.12 25;
#X obj 609 173 poftranslate, f 16;
#X obj 640 151 unpack f f f;
#X obj 431 49 t a a, f 22;
#X msg 612 91 \$5 \$6 \$7;
#X msg 640 130 \$1 \$2 \$3;
#X msg 462 132 \$5 \$6 \$7;
#X obj 609 196 pofcolor 1 0.8 0.8 0.9;
#X obj 431 197 pofcolor 0.8 0.8 1 0.2;
#X obj 607 18 r draw_showspheres;
#X obj 431 72 pofvisible 1;
#X obj 199 94 t b a;
#X msg 199 114 1;
#X obj 55 105 t a b, f 19;
#X obj 166 136 spigot;
#X msg 224 146 0;
#X obj 166 157 t b b;
#X obj 166 178 list;
#X msg 244 548 10;
#X msg 277 549 15;
#X obj 609 215 pofsphere 0.02 25;
#X obj 283 204 t b b;
#X msg 283 225 1;
#X msg 310 246 0;
#X obj 310 267 change;
#X obj 310 291 tgl 15 0 empty empty empty 17 7 0 10 #fcfcfc #000000
#000000 1 1;
#X obj 337 290 outlet sig;
#X obj 310 225 del 50;
#X obj 480 672 pofpath;
#X msg 435 480 filled 0 \, strokeColor 1 1 1 1 \, strokeWidth 2 \,
res 4;
#X obj 414 359 pofvisible PROJ;
#X obj 523 359 pofvisible SIMUL;
#X obj 197 329 r cameras-inverse;
#X obj 197 350 * -1;
#X obj 197 371 + 1;
#X msg 197 398 strokeColor \$1 \$1 \$1 1;
#N canvas 1 81 603 300 automove 0;
#X obj 37 12 inlet head;
#X obj 110 69 inlet headset_pos;
#X obj 37 210 outlet;
#X obj 37 180 poftranslate, f 37;
#X obj 110 92 unpack f f f, f 25;
#X obj 110 113 *;
#X obj 183 115 *;
#X obj 257 116 *;
#X obj 237 28 r automove-amount-snd;
#X obj 237 49 pow 2;
#X obj 110 134 pack f 50;
#X obj 110 155 line;
#X obj 183 136 pack f 50;
#X obj 183 157 line;
#X obj 257 137 pack f 50;
#X obj 257 158 line;
#X obj 378 43 r automove-smoothtime-snd;
#X obj 378 64 * 1;
#X obj 237 71 * -0.5;
#X connect 0 0 3 0;
#X connect 1 0 4 0;
#X connect 3 0 2 0;
#X connect 4 0 5 0;
#X connect 4 1 6 0;
#X connect 4 2 7 0;
#X connect 5 0 10 0;
#X connect 6 0 12 0;
#X connect 7 0 14 0;
#X connect 8 0 9 0;
#X connect 9 0 18 0;
#X connect 10 0 11 0;
#X connect 11 0 3 1;
#X connect 12 0 13 0;
#X connect 13 0 3 2;
#X connect 14 0 15 0;
#X connect 15 0 3 3;
#X connect 16 0 17 0;
#X connect 17 0 14 1;
#X connect 17 0 12 1;
#X connect 17 0 10 1;
#X connect 18 0 7 1;
#X connect 18 0 6 1;
#X connect 18 0 5 1;
#X restore 560 297 pd automove;
#X obj 346 672 pofVGpath 2048 2048;
#X msg 226 718 fat \$1;
#X msg 199 656 0;
#X msg 226 657 -1;
#X msg 279 659 20;
#X floatatom 228 686 5 0 0 0 - - -;
#X obj 423 306 tgl 15 0 empty empty empty 17 7 0 10 #fcfcfc #000000
#000000 0 1;
#X floatatom 599 580 5 0 0 0 - - -;
#X msg 694 550 10;
#X msg 727 554 20;
#X msg 566 679 segmented \$1;
#X obj 578 653 tgl 15 0 empty empty empty 17 7 0 10 #fcfcfc #000000
#000000 1 1;
#X msg 250 656 5;
#X msg 276 755 scale_correction \$1 \$1;
#X floatatom 344 726 5 0 0 0 - - -;
#X obj 346 389 pofbang 1;
#X msg 394 411 0;
#X obj 339 424 b;
#X msg 347 366 1;
#X msg 431 744 fillColor 1 1 1 1 \, strokeColor 0.3 0.3 0.3 1;
#X msg 200 478 strokeColor \$1 \$1 \$1 1;
#X obj 368 617 r 2pofVGpath;
#X msg 336 445 filled 0 \, strokeColor 0 0 0 1 \, strokeWidth 10 \,
res 10 \, fillColor 1 1 1 1 \, strokeColor 0 0 0 1 \, fat 10 \, segmented
0;
#X msg 397 720 fillColor 1 1 1 1 \, strokeColor 1 1 1 1;
#X connect 0 0 5 0;
#X connect 0 0 21 0;
#X connect 0 0 31 0;
#X connect 0 0 30 0;
#X connect 0 0 46 0;
#X connect 0 0 61 1;
#X connect 1 0 28 0;
#X connect 2 0 62 0;
#X connect 3 0 2 0;
#X connect 4 0 53 0;
#X connect 4 0 62 0;
#X connect 5 0 6 0;
#X connect 6 0 38 0;
#X connect 6 1 19 1;
#X connect 6 1 36 0;
#X connect 7 0 4 0;
#X connect 8 0 4 0;
#X connect 9 0 4 0;
#X connect 11 0 4 0;
#X connect 12 0 62 0;
#X connect 12 0 53 0;
#X connect 13 0 69 0;
#X connect 14 0 69 0;
#X connect 15 0 69 0;
#X connect 16 0 9 0;
#X connect 17 0 69 0;
#X connect 18 0 4 0;
#X connect 19 0 11 0;
#X connect 21 0 20 0;
#X connect 22 0 21 1;
#X connect 23 0 33 0;
#X connect 24 0 23 1;
#X connect 24 1 23 2;
#X connect 24 2 23 3;
#X connect 26 0 32 0;
#X connect 27 0 26 1;
#X connect 27 1 26 2;
#X connect 27 2 26 3;
#X connect 28 0 35 0;
#X connect 28 1 61 0;
#X connect 30 0 27 0;
#X connect 31 0 24 0;
#X connect 32 0 45 0;
#X connect 33 0 25 0;
#X connect 34 0 35 0;
#X connect 35 0 23 0;
#X connect 35 0 26 0;
#X connect 36 0 37 0;
#X connect 36 1 42 1;
#X connect 37 0 39 1;
#X connect 38 0 19 0;
#X connect 38 1 39 0;
#X connect 39 0 41 0;
#X connect 40 0 39 1;
#X connect 41 0 42 0;
#X connect 41 1 40 0;
#X connect 42 0 7 0;
#X connect 43 0 3 0;
#X connect 44 0 3 0;
#X connect 46 0 47 0;
#X connect 46 1 52 0;
#X connect 47 0 49 0;
#X connect 48 0 49 0;
#X connect 49 0 50 0;
#X connect 49 0 51 0;
#X connect 52 0 48 0;
#X connect 54 0 53 0;
#X connect 55 0 62 0;
#X connect 55 0 77 0;
#X connect 56 0 53 0;
#X connect 57 0 58 0;
#X connect 58 0 59 0;
#X connect 60 0 53 0;
#X connect 60 0 62 0;
#X connect 61 0 56 0;
#X connect 61 0 55 0;
#X connect 63 0 62 0;
#X connect 64 0 67 0;
#X connect 65 0 67 0;
#X connect 66 0 67 0;
#X connect 67 0 63 0;
#X connect 68 0 55 0;
#X connect 69 0 12 0;
#X connect 70 0 69 0;
#X connect 71 0 69 0;
#X connect 72 0 62 0;
#X connect 73 0 72 0;
#X connect 74 0 67 0;
#X connect 75 0 62 0;
#X connect 76 0 75 0;
#X connect 77 1 78 0;
#X connect 77 1 79 0;
#X connect 78 0 77 0;
#X connect 79 0 84 0;
#X connect 79 0 54 0;
#X connect 80 0 77 0;
#X connect 81 0 62 0;
#X connect 83 0 62 0;
#X connect 84 0 62 0;
#X connect 85 0 62 0;
