#N canvas 1170 471 644 491 10;
#X obj 18 77 r projectors-head;
#X obj 69 348 pofquad 5 3;
#X obj 18 161 t a a, f 9;
#X obj 18 128 pofvisible 1;
#X obj 42 102 tgl 15 0 empty empty empty 17 7 0 10 -262144 -1 -1 1
1;
#X obj 69 255 poftexture camera-\$1;
#X obj 294 165 t a;
#X obj 491 50 r \$1-size;
#X obj 518 96 unpack f f;
#X floatatom 518 117 5 0 0 0 - - -;
#X floatatom 575 117 5 0 0 0 - - -;
#X obj 518 137 s \$0-W;
#X obj 575 136 s \$0-H;
#X obj 213 319 r camera-simulhead-\$1;
#X obj 369 202 route tcorner;
#X obj 415 277 *;
#X obj 453 254 r \$0-W;
#X obj 540 253 r \$0-H;
#X obj 415 254 - 0.5;
#X obj 497 276 *;
#X obj 497 253 - 0.5;
#X obj 213 406 poftexture camera-\$1;
#X obj 213 345 pofvisible;
#X obj 237 249 r VIEWMODE;
#X obj 237 270 == 3;
#X obj 213 441 pofquad 5 3;
#X obj 369 228 unpack f f f, f 16;
#X obj 369 300 pack f f f, f 16;
#X msg 369 321 corner \$1 \$2 \$3;
#X obj 453 275 * 1;
#X obj 540 275 * 1;
#X obj 18 230 s \$0-corners-params;
#X obj 188 75 r \$0-corners-toparams;
#X obj 188 96 route corner tcorner, f 36;
#X msg 188 119 corner \$1 \$2 \$3;
#N canvas 601 451 543 300 aps 0;
#X obj 21 114 loadbang;
#X obj 21 135 list append \$1 \$2;
#X msg 21 156 label Projector:_\$1_\$2;
#X obj 21 177 s \$0-edit-namecanvas;
#X obj 85 112 bng 15 250 50 0 empty empty empty 17 7 0 10 -262144 -1
-1;
#X obj 19 20 apcorner CONFIG \$1-\$2 \$0 corner 0;
#X obj 19 39 apcorner CONFIG \$1-\$2 \$0 corner 1;
#X obj 19 58 apcorner CONFIG \$1-\$2 \$0 corner 2;
#X obj 19 77 apcorner CONFIG \$1-\$2 \$0 corner 3;
#X obj 230 19 apcorner CONFIG \$1-\$2 \$0 tcorner 0;
#X obj 230 38 apcorner CONFIG \$1-\$2 \$0 tcorner 1;
#X obj 230 57 apcorner CONFIG \$1-\$2 \$0 tcorner 2;
#X obj 230 76 apcorner CONFIG \$1-\$2 \$0 tcorner 3;
#X obj 254 128 apf CONFIG \$1-\$2-on \$1-\$2-on 2;
#X obj 254 151 apf CONFIG \$1-\$2-R \$0-R 2;
#X obj 254 170 apf CONFIG \$1-\$2-V \$0-V 2;
#X obj 254 188 apf CONFIG \$1-\$2-B \$0-B 2;
#X connect 0 0 1 0;
#X connect 1 0 2 0;
#X connect 2 0 3 0;
#X connect 4 0 1 0;
#X restore 520 214 pd aps;
#N canvas -29 446 913 507 touch-edit 1;
#X obj 120 25 inlet;
#X obj 120 46 pofvisible;
#X obj 173 23 tgl 15 0 empty empty empty 17 7 0 10 -262144 -1 -1 1
1;
#X obj 314 5 inlet;
#X obj 314 26 route corner;
#X obj 120 213 poftranslate;
#X obj 152 187 unpack f f;
#X msg 48 218 draw 1;
#X obj 48 196 loadbang;
#X obj 201 324 route down up;
#X obj 120 99 t a a, f 10;
#X obj 261 144 route move;
#X msg 201 345 1;
#X msg 238 345 0;
#X obj 168 367 spigot;
#X msg 168 388 0 \$1 \$2;
#X obj 272 491 outlet;
#X obj 321 214 poftranslate;
#X obj 353 188 unpack f f;
#X obj 402 325 route down up;
#X msg 402 346 1;
#X msg 439 346 0;
#X obj 369 368 spigot;
#X obj 503 210 poftranslate;
#X obj 535 184 unpack f f;
#X obj 584 321 route down up;
#X msg 584 342 1;
#X msg 621 342 0;
#X obj 551 364 spigot;
#X obj 685 212 poftranslate;
#X obj 717 186 unpack f f;
#X obj 766 323 route down up;
#X msg 766 344 1;
#X msg 803 344 0;
#X obj 733 366 spigot;
#X msg 369 389 1 \$1 \$2;
#X msg 551 385 2 \$1 \$2;
#X msg 733 387 3 \$1 \$2;
#X obj 314 47 route 0 1 2 3, f 42;
#X obj 120 70 pofcolor 0 1 0 0.5;
#X obj 173 4 r draw-quads-edit;
#X obj 120 122 poftouch 300000 300000 1;
#X obj 120 303 poftouch 80 80;
#X obj 321 304 poftouch 80 80;
#X obj 503 300 poftouch 80 80;
#X obj 685 302 poftouch 80 80;
#X obj 711 70 r projectors-touchedit-size;
#X connect 0 0 1 0;
#X connect 1 0 39 0;
#X connect 2 0 1 0;
#X connect 3 0 4 0;
#X connect 4 0 38 0;
#X connect 5 0 42 0;
#X connect 6 0 5 1;
#X connect 6 1 5 2;
#X connect 7 0 42 0;
#X connect 7 0 43 0;
#X connect 7 0 44 0;
#X connect 7 0 45 0;
#X connect 8 0 7 0;
#X connect 9 0 12 0;
#X connect 9 1 13 0;
#X connect 10 0 41 0;
#X connect 10 1 5 0;
#X connect 10 1 17 0;
#X connect 10 1 23 0;
#X connect 10 1 29 0;
#X connect 11 0 14 0;
#X connect 11 0 22 0;
#X connect 11 0 28 0;
#X connect 11 0 34 0;
#X connect 12 0 14 1;
#X connect 13 0 14 1;
#X connect 14 0 15 0;
#X connect 15 0 16 0;
#X connect 17 0 43 0;
#X connect 18 0 17 1;
#X connect 18 1 17 2;
#X connect 19 0 20 0;
#X connect 19 1 21 0;
#X connect 20 0 22 1;
#X connect 21 0 22 1;
#X connect 22 0 35 0;
#X connect 23 0 44 0;
#X connect 24 0 23 1;
#X connect 24 1 23 2;
#X connect 25 0 26 0;
#X connect 25 1 27 0;
#X connect 26 0 28 1;
#X connect 27 0 28 1;
#X connect 28 0 36 0;
#X connect 29 0 45 0;
#X connect 30 0 29 1;
#X connect 30 1 29 2;
#X connect 31 0 32 0;
#X connect 31 1 33 0;
#X connect 32 0 34 1;
#X connect 33 0 34 1;
#X connect 34 0 37 0;
#X connect 35 0 16 0;
#X connect 36 0 16 0;
#X connect 37 0 16 0;
#X connect 38 0 6 0;
#X connect 38 1 18 0;
#X connect 38 2 24 0;
#X connect 38 3 30 0;
#X connect 39 0 10 0;
#X connect 40 0 2 0;
#X connect 41 1 11 0;
#X connect 42 1 9 0;
#X connect 43 1 19 0;
#X connect 44 1 25 0;
#X connect 45 1 31 0;
#X connect 46 0 42 1;
#X connect 46 0 42 2;
#X connect 46 0 43 1;
#X connect 46 0 43 2;
#X connect 46 0 44 1;
#X connect 46 0 44 2;
#X connect 46 0 45 1;
#X connect 46 0 45 2;
#X restore 18 184 pd touch-edit;
#X msg 18 207 corner \$1 \$2 \$3;
#N canvas 1 82 561 182 \$1-\$2-edit 1;
#X obj 24 74 nbx 6 20 -1e+37 1e+37 0 0 \$0-corner-3-x-snd \$0-corner-3-x-rcv
x -10 10 0 14 -262144 -1 -1 -325 256;
#X obj 24 95 nbx 6 20 -1e+37 1e+37 0 0 \$0-corner-3-y-snd \$0-corner-3-y-rcv
y -10 10 0 14 -262144 -1 -1 62 256;
#X obj 23 126 nbx 6 20 -1e+37 1e+37 0 0 \$0-corner-0-x-snd \$0-corner-0-x-rcv
x -10 10 0 14 -262144 -1 -1 8137 256;
#X obj 23 147 nbx 6 20 -1e+37 1e+37 0 0 \$0-corner-0-y-snd \$0-corner-0-y-rcv
y -10 10 0 14 -262144 -1 -1 5962 256;
#X obj 129 127 nbx 6 20 -1e+37 1e+37 0 0 \$0-corner-1-x-snd \$0-corner-1-x-rcv
x -10 10 0 14 -262144 -1 -1 11612 256;
#X obj 129 148 nbx 6 20 -1e+37 1e+37 0 0 \$0-corner-1-y-snd \$0-corner-1-y-rcv
y -10 10 0 14 -262144 -1 -1 6100 256;
#X obj 128 75 nbx 6 20 -1e+37 1e+37 0 0 \$0-corner-2-x-snd \$0-corner-2-x-rcv
x -10 10 0 14 -262144 -1 -1 10200 256;
#X obj 128 96 nbx 6 20 -1e+37 1e+37 0 0 \$0-corner-2-y-snd \$0-corner-2-y-rcv
y -10 10 0 14 -262144 -1 -1 -250 256;
#X obj 258 75 nbx 6 20 -1e+37 1e+37 0 0 \$0-tcorner-3-x-snd \$0-tcorner-3-x-rcv
x -10 10 0 14 -262144 -1 -1 0 256;
#X obj 258 96 nbx 6 20 -1e+37 1e+37 0 0 \$0-tcorner-3-y-snd \$0-tcorner-3-y-rcv
y -10 10 0 14 -262144 -1 -1 0 256;
#X obj 257 127 nbx 6 20 -1e+37 1e+37 0 0 \$0-tcorner-0-x-snd \$0-tcorner-0-x-rcv
x -10 10 0 14 -262144 -1 -1 500 256;
#X obj 257 148 nbx 6 20 -1e+37 1e+37 0 0 \$0-tcorner-0-y-snd \$0-tcorner-0-y-rcv
y -10 10 0 14 -262144 -1 -1 300 256;
#X obj 363 128 nbx 6 20 -1e+37 1e+37 0 0 \$0-tcorner-1-x-snd \$0-tcorner-1-x-rcv
x -10 10 0 14 -262144 -1 -1 217 256;
#X obj 363 149 nbx 6 20 -1e+37 1e+37 0 0 \$0-tcorner-1-y-snd \$0-tcorner-1-y-rcv
y -10 10 0 14 -262144 -1 -1 297 256;
#X obj 362 76 nbx 6 20 -1e+37 1e+37 0 0 \$0-tcorner-2-x-snd \$0-tcorner-2-x-rcv
x -10 10 0 14 -262144 -1 -1 0 256;
#X obj 362 97 nbx 6 20 -1e+37 1e+37 0 0 \$0-tcorner-2-y-snd \$0-tcorner-2-y-rcv
y -10 10 0 14 -262144 -1 -1 0 256;
#X obj 23 7 cnv 15 300 30 empty \$0-edit-namecanvas Projector:_FLOOR_2
20 12 0 14 -233017 -66577 0;
#X text 234 55 from_camera_corners(cm from corner):;
#X text 30 53 on_screen_corners(pixels):;
#X obj 478 82 vsl 15 80 0 1 0 0 \$0-R-snd \$0-R-rcv R 0 -9 0 10 -258113
-1 -1 7900 1;
#X obj 496 82 vsl 15 80 0 1 0 0 \$0-V-snd \$0-V-rcv V 0 -9 0 10 -4034
-1 -1 3600 1;
#X obj 515 82 vsl 15 80 0 1 0 0 \$0-B-snd \$0-B-rcv B 0 -9 0 10 -1856
-1 -1 3600 1;
#X restore 520 193 pd \$1-\$2-edit;
#N canvas 16 98 440 594 convert-relative-tcorners 0;
#X obj 145 496 t a;
#X obj 46 344 * 0.01;
#X obj 46 382 /;
#X obj 61 362 r \$0-W;
#X obj 109 341 * 0.01;
#X obj 109 383 /;
#X obj 46 404 pack 0 0, f 11;
#X obj 228 405 pack 1 0, f 12;
#X obj 124 362 r \$0-H;
#X obj 228 381 /;
#X obj 254 354 r \$0-W;
#X obj 297 338 * 0.01;
#X obj 297 381 /;
#X obj 312 359 r \$0-H;
#X obj 228 332 * -0.01;
#X obj 228 356 +;
#X obj 44 186 * 0.01;
#X obj 44 227 /;
#X obj 59 207 r \$0-W;
#X obj 107 229 /;
#X obj 136 204 r \$0-H;
#X obj 107 207 +;
#X obj 44 251 pack 0 1, f 11;
#X obj 224 224 /;
#X obj 250 200 r \$0-W;
#X obj 293 224 /;
#X obj 319 201 r \$0-H;
#X obj 293 201 +;
#X obj 224 200 +;
#X obj 293 179 * -0.01;
#X obj 224 177 * -0.01;
#X obj 107 184 * -0.01;
#X obj 224 250 pack 1 1, f 12;
#X obj 96 78 route 0 1 2 3;
#X obj 44 163 unpack f f, f 11;
#X obj 224 156 unpack f f, f 12;
#X obj 46 321 unpack f f, f 11;
#X obj 228 312 unpack f f, f 12;
#X obj 145 517 outlet;
#X obj 96 54 inlet;
#X msg 44 277 3 \$1 \$2;
#X msg 224 276 2 \$1 \$2;
#X msg 228 427 1 \$1 \$2;
#X msg 46 427 0 \$1 \$2;
#X obj 239 52 r \$0-update;
#X obj 278 130 t b b;
#X obj 101 141 t b b;
#X obj 301 289 t b b;
#X obj 124 294 t b b;
#X connect 0 0 38 0;
#X connect 1 0 2 0;
#X connect 2 0 6 0;
#X connect 3 0 2 1;
#X connect 4 0 5 0;
#X connect 5 0 6 1;
#X connect 6 0 43 0;
#X connect 7 0 42 0;
#X connect 8 0 5 1;
#X connect 9 0 7 0;
#X connect 10 0 15 1;
#X connect 10 0 9 1;
#X connect 11 0 12 0;
#X connect 12 0 7 1;
#X connect 13 0 12 1;
#X connect 14 0 15 0;
#X connect 15 0 9 0;
#X connect 16 0 17 0;
#X connect 17 0 22 0;
#X connect 18 0 17 1;
#X connect 19 0 22 1;
#X connect 20 0 21 1;
#X connect 20 0 19 1;
#X connect 21 0 19 0;
#X connect 22 0 40 0;
#X connect 23 0 32 0;
#X connect 24 0 28 1;
#X connect 24 0 23 1;
#X connect 25 0 32 1;
#X connect 26 0 27 1;
#X connect 26 0 25 1;
#X connect 27 0 25 0;
#X connect 28 0 23 0;
#X connect 29 0 27 0;
#X connect 30 0 28 0;
#X connect 31 0 21 0;
#X connect 32 0 41 0;
#X connect 33 0 36 0;
#X connect 33 1 37 0;
#X connect 33 2 35 0;
#X connect 33 3 34 0;
#X connect 34 0 16 0;
#X connect 34 1 31 0;
#X connect 35 0 30 0;
#X connect 35 1 29 0;
#X connect 36 0 1 0;
#X connect 36 1 4 0;
#X connect 37 0 14 0;
#X connect 37 1 11 0;
#X connect 39 0 33 0;
#X connect 40 0 0 0;
#X connect 41 0 0 0;
#X connect 42 0 0 0;
#X connect 43 0 0 0;
#X connect 44 0 46 0;
#X connect 44 0 45 0;
#X connect 44 0 48 0;
#X connect 44 0 47 0;
#X connect 45 0 30 0;
#X connect 45 1 29 0;
#X connect 46 0 16 0;
#X connect 46 1 31 0;
#X connect 47 0 14 0;
#X connect 47 1 11 0;
#X connect 48 0 1 0;
#X connect 48 1 4 0;
#X restore 294 120 pd convert-relative-tcorners;
#X msg 294 143 tcorner \$1 \$2 \$3;
#X obj 93 161 r \$0-corners-toparams;
#X obj 54 31 bng 15 250 50 0 \$0-edit empty edit 17 7 0 10 -257985
-1 -1;
#X obj 15 31 tgl 15 0 \$1-\$2-on-snd \$1-\$2-on-rcv on 17 7 0 10 -4034
-1 -1 1 1;
#X obj 379 27 r \$0-edit;
#X msg 379 48 vis 1;
#X obj 379 69 s pd-\$1-\$2-edit;
#X obj 237 291 &&;
#X obj 263 291 t b f;
#X obj 62 102 r \$1-\$2-on-snd;
#X obj 271 271 r \$1-\$2-on-snd;
#X obj 491 72 t b a;
#X obj 491 159 s \$0-update;
#X obj 213 384 pofcolor 1 0.5 0 1;
#X obj 69 315 pofcolor 1 0.5 0 1;
#N canvas 1 162 363 193 color 0;
#X obj 54 76 r \$0-R-snd;
#X obj 54 167 outlet;
#X obj 128 165 outlet;
#X obj 128 75 r \$0-V-snd;
#X obj 212 164 outlet;
#X obj 212 75 r \$0-B-snd;
#X obj 67 103 t b f;
#X obj 54 145 min 1;
#X obj 141 98 t b f;
#X obj 128 140 min 1;
#X obj 225 97 t b f;
#X obj 212 139 min 1;
#X obj 54 124 + 1;
#X obj 128 119 + 1;
#X obj 212 118 + 1;
#X obj 168 17 r projectors_colored;
#X obj 168 39 == 0;
#X connect 0 0 12 0;
#X connect 3 0 13 0;
#X connect 5 0 14 0;
#X connect 6 0 12 0;
#X connect 6 1 12 1;
#X connect 7 0 1 0;
#X connect 8 0 13 0;
#X connect 8 1 13 1;
#X connect 9 0 2 0;
#X connect 10 0 14 0;
#X connect 10 1 14 1;
#X connect 11 0 4 0;
#X connect 12 0 7 0;
#X connect 13 0 9 0;
#X connect 14 0 11 0;
#X connect 15 0 16 0;
#X connect 16 0 6 0;
#X connect 16 0 8 0;
#X connect 16 0 10 0;
#X restore 117 286 pd color;
#X connect 0 0 3 0;
#X connect 2 0 36 0;
#X connect 2 1 5 0;
#X connect 3 0 2 0;
#X connect 4 0 3 0;
#X connect 5 0 54 0;
#X connect 6 0 1 0;
#X connect 6 0 14 0;
#X connect 6 0 25 0;
#X connect 7 0 51 0;
#X connect 8 0 9 0;
#X connect 8 1 10 0;
#X connect 9 0 11 0;
#X connect 10 0 12 0;
#X connect 13 0 22 0;
#X connect 14 0 26 0;
#X connect 15 0 27 1;
#X connect 16 0 29 0;
#X connect 17 0 30 0;
#X connect 18 0 15 0;
#X connect 19 0 27 2;
#X connect 20 0 19 0;
#X connect 21 0 25 0;
#X connect 22 0 53 0;
#X connect 23 0 24 0;
#X connect 24 0 47 0;
#X connect 26 0 27 0;
#X connect 26 1 18 0;
#X connect 26 2 20 0;
#X connect 27 0 28 0;
#X connect 28 0 25 0;
#X connect 29 0 15 1;
#X connect 30 0 19 1;
#X connect 32 0 33 0;
#X connect 33 0 34 0;
#X connect 33 1 39 0;
#X connect 34 0 1 0;
#X connect 36 0 37 0;
#X connect 37 0 31 0;
#X connect 39 0 40 0;
#X connect 40 0 6 0;
#X connect 41 0 36 1;
#X connect 44 0 45 0;
#X connect 45 0 46 0;
#X connect 47 0 22 0;
#X connect 48 0 47 0;
#X connect 48 1 47 1;
#X connect 49 0 4 0;
#X connect 50 0 48 0;
#X connect 51 0 52 0;
#X connect 51 1 8 0;
#X connect 53 0 21 0;
#X connect 54 0 1 0;
#X connect 55 0 54 1;
#X connect 55 0 53 1;
#X connect 55 1 54 2;
#X connect 55 1 53 2;
#X connect 55 2 54 3;
#X connect 55 2 53 3;
#X coords 0 -1 1 1 85 40 1 10 10;
