#N canvas 579 197 685 749 12;
#X obj 292 184 pofonce;
#X obj 292 158 pofhead;
#X obj 292 208 pofscale 100 100 100;
#X obj 292 235 t a;
#X obj 314 580 poftranslate 0.5;
#X obj 436 609 poftranslate 0.5;
#X obj 331 493 poftranslate 2;
#X obj 340 443 poftranslate 4;
#X obj 314 468 t a;
#X obj 314 418 t a;
#X obj 314 371 t a;
#X obj 329 394 pofrotate y 180;
#X obj 323 273 pofrotate z 90;
#X obj 334 551 poftranslate 1;
#X obj 314 523 t a;
#X obj 437 634 pofrect 0.04 50;
#X obj 314 619 pofrect 0.01 50;
#X obj 260 83 bng 15 250 50 0 empty empty empty 17 7 0 10 -262144 -1
-1;
#X obj 135 171 tgl 15 0 empty empty empty 17 7 0 10 -262144 -1 -1 0
1;
#X msg 135 191 continuousForce \$1;
#X obj 345 657 print;
#X obj 210 573 pofbang 1;
#X obj 233 108 t b b b;
#X obj 190 647 i;
#X obj 220 647 + 1;
#X obj 165 677 i;
#X msg 188 625 0;
#X floatatom 165 701 8 0 0 0 - - -;
#X obj 136 492 bng 15 250 50 0 empty empty empty 17 7 0 10 -262144
-1 -1;
#X text 234 703 293760;
#X obj 116 350 pofrotate z 90;
#X obj 116 376 pofrotate z 90;
#X obj 414 309 pofrect 0.15 50;
#X obj 292 308 pofrect 0.15 50;
#X connect 0 0 2 0;
#X connect 1 0 0 0;
#X connect 2 0 3 0;
#X connect 3 0 12 0;
#X connect 3 0 33 0;
#X connect 5 0 15 0;
#X connect 6 0 14 0;
#X connect 7 0 8 0;
#X connect 8 0 6 0;
#X connect 8 0 14 0;
#X connect 9 0 7 0;
#X connect 9 0 8 0;
#X connect 10 0 9 0;
#X connect 10 0 11 0;
#X connect 11 0 9 0;
#X connect 12 0 33 0;
#X connect 13 0 4 0;
#X connect 14 0 4 0;
#X connect 14 0 13 0;
#X connect 17 0 22 0;
#X connect 18 0 19 0;
#X connect 19 0 0 0;
#X connect 21 1 23 0;
#X connect 22 1 0 0;
#X connect 22 2 26 0;
#X connect 23 0 24 0;
#X connect 23 0 25 1;
#X connect 24 0 23 1;
#X connect 25 0 27 0;
#X connect 26 0 23 0;
#X connect 28 0 25 0;
#X connect 30 0 31 0;
#X connect 31 0 21 0;
#X connect 33 0 30 0;
