#N canvas 22 91 795 379 10;
#X obj 25 24 r VIEWMODE;
#X obj 209 114 t b b, f 9;
#X obj 25 217 pofwin;
#X msg 25 116 window 1280 400 0 \, pos 50 50;
#X obj 209 137 del 200;
#X obj 25 48 == 0;
#X obj 25 90 sel 0 1, f 62;
#X msg 224 198 1;
#X msg 189 197 0.3;
#X obj 190 230 s MAINSCALE;
#X obj 467 63 > 1;
#X obj 467 105 s VIEWSCENE;
#X obj 467 85 change -1;
#X obj 25 69 change -1;
#X obj 570 14 r #pofkey;
#X obj 570 35 route 267;
#X obj 570 56 sel 1;
#X obj 570 77 tgl 15 0 empty empty empty 17 7 0 10 -262144 -1 -1 0
1;
#X obj 570 211 pofwin;
#X obj 570 232 route window;
#X obj 570 253 spigot 1;
#X obj 570 166 list prepend window;
#X obj 570 145 list prepend 800 600;
#X obj 570 99 t f f;
#X obj 600 118 == 0;
#X obj 570 187 list trim;
#X obj 643 210 tgl 15 0 empty empty empty 17 7 0 10 -262144 -1 -1 0
1;
#X obj 25 238 route window;
#X msg 346 220 window 3840 1200 \, pos 0 0;
#X obj 25 259 unpack f f;
#X floatatom 25 280 5 0 0 0 - - -;
#X floatatom 82 279 5 0 0 0 - - -;
#X msg 317 246 window 2560 720 \, pos 1440 0;
#X msg 209 164 window 2560 720 \, pos 1440 0;
#X msg 272 140 window 2560 720 \, pos 0 0;
#X obj 134 338 s window_size_canvas;
#X msg 138 312 label window_size=\$1x\$2;
#X obj 154 146 del 200;
#X connect 0 0 5 0;
#X connect 0 0 10 0;
#X connect 1 0 4 0;
#X connect 1 0 37 0;
#X connect 1 1 34 0;
#X connect 2 0 27 0;
#X connect 3 0 2 0;
#X connect 3 0 8 0;
#X connect 4 0 33 0;
#X connect 5 0 13 0;
#X connect 6 0 3 0;
#X connect 6 1 1 0;
#X connect 7 0 9 0;
#X connect 8 0 9 0;
#X connect 10 0 12 0;
#X connect 12 0 11 0;
#X connect 13 0 6 0;
#X connect 14 0 15 0;
#X connect 15 0 16 0;
#X connect 16 0 17 0;
#X connect 18 0 19 0;
#X connect 19 0 20 0;
#X connect 20 0 22 1;
#X connect 21 0 25 0;
#X connect 22 0 21 0;
#X connect 23 0 22 0;
#X connect 23 1 24 0;
#X connect 24 0 20 1;
#X connect 25 0 18 0;
#X connect 26 0 18 0;
#X connect 27 0 29 0;
#X connect 27 0 36 0;
#X connect 29 0 30 0;
#X connect 29 1 31 0;
#X connect 32 0 2 0;
#X connect 33 0 2 0;
#X connect 33 0 7 0;
#X connect 34 0 2 0;
#X connect 36 0 35 0;
#X connect 37 0 33 0;
