#N canvas 946 239 840 647 10;
#X obj 25 24 r VIEWMODE;
#X obj 209 114 t b b, f 9;
#X obj 25 348 pofwin;
#X obj 209 149 del 200;
#X obj 25 48 == 0;
#X obj 25 90 sel 0 1, f 62;
#X obj 190 361 s MAINSCALE;
#X obj 466 69 > 1;
#X obj 466 111 s VIEWSCENE;
#X obj 466 91 change -1;
#X obj 25 69 change -1;
#X obj 570 14 r #pofkey;
#X obj 570 35 route 267;
#X obj 570 56 sel 1;
#X obj 570 77 tgl 15 0 empty empty empty 17 7 0 10 -262144 -1 -1 0
1;
#X obj 570 211 pofwin;
#X obj 570 232 route window;
#X obj 570 253 spigot 1;
#X obj 570 166 list prepend window;
#X obj 570 145 list prepend 800 600;
#X obj 570 99 t f f;
#X obj 600 118 == 0;
#X obj 570 187 list trim;
#X obj 643 210 tgl 15 0 empty empty empty 17 7 0 10 -262144 -1 -1 0
1;
#X obj 25 369 route window;
#X msg 187 413 window 3840 1200 \, pos 0 0;
#X obj 25 390 unpack f f;
#X floatatom 25 411 5 0 0 0 - - -;
#X floatatom 82 410 5 0 0 0 - - -;
#X msg 176 389 window 2560 720 \, pos 1440 0;
#X obj 134 469 s window_size_canvas;
#X msg 138 443 label window_size=\$1x\$2;
#X obj 410 310 r screenWidth-snd;
#X obj 523 310 r screenHeight-snd;
#X obj 640 310 r screenPosition-snd;
#X obj 410 331 t b f;
#X obj 410 352 del 10;
#X obj 410 373 f;
#X obj 523 331 t b f;
#X obj 640 331 t b f;
#X obj 410 415 s \$0-screensetting;
#X obj 311 114 r \$0-screensetting;
#X obj 260 149 list;
#X obj 204 246 list;
#X msg 283 226 window \$1 \$2 \, pos 0 0;
#X obj 158 221 del 100;
#X obj 158 245 list;
#X msg 204 284 window \$1 \$2 \, pos \$3 0;
#X obj 213 65 bng 15 250 50 0 empty empty empty 17 7 0 10 -262144 -1
-1;
#X obj 412 467 t b f;
#X obj 412 488 del 10;
#X obj 412 509 f;
#X obj 569 467 t b f;
#X obj 569 446 r previewscreenHeight-snd;
#X obj 412 551 s \$0-previewscreensetting;
#X obj 692 354 t b f;
#X obj 311 135 t b a;
#X obj 311 160 list, f 5;
#X obj 311 181 spigot;
#X obj 370 45 s VIEWMODE;
#X obj 370 5 loadbang;
#X msg 370 26 0;
#X obj 410 394 pack f f f f, f 52;
#X obj 692 333 r screenScale-snd;
#X obj 670 507 t b f;
#X obj 670 486 r previewscreenScale-snd;
#X obj 412 530 pack f f f f, f 48;
#X obj 616 488 t b f;
#X obj 616 467 r previewscreenPosition-snd;
#X obj 360 136 t b b;
#X msg 388 156 1;
#X msg 391 177 0;
#X msg 224 329 \$4;
#X msg 155 329 \$4;
#X obj 25 139 list;
#X obj 46 117 r \$0-previewscreensetting;
#X msg 25 173 window \$1 \$2 0 \, pos \$3 50;
#X obj 115 519 r \$0-screensetting;
#X msg 115 540 1 \$4;
#X obj 71 498 r \$0-previewscreensetting;
#X msg 71 519 0 \$4;
#X obj 135 558 r VIEWMODE;
#X obj 135 582 == 0;
#X obj 71 581 route 0;
#X obj 71 602 s MAINSCALE;
#X msg 190 328 \$4;
#X obj 74 260 print;
#X floatatom 330 503 5 0 0 0 - - -;
#X obj 412 446 r previewscreenWidth-snd;
#X msg 431 181 open \, window 800 600 0;
#X connect 0 0 4 0;
#X connect 0 0 7 0;
#X connect 1 0 3 0;
#X connect 1 1 42 0;
#X connect 2 0 24 0;
#X connect 3 0 45 0;
#X connect 4 0 10 0;
#X connect 5 0 74 0;
#X connect 5 1 1 0;
#X connect 7 0 9 0;
#X connect 9 0 8 0;
#X connect 10 0 5 0;
#X connect 11 0 12 0;
#X connect 12 0 13 0;
#X connect 13 0 14 0;
#X connect 15 0 16 0;
#X connect 16 0 17 0;
#X connect 17 0 19 1;
#X connect 18 0 22 0;
#X connect 19 0 18 0;
#X connect 20 0 19 0;
#X connect 20 1 21 0;
#X connect 21 0 17 1;
#X connect 22 0 15 0;
#X connect 23 0 15 0;
#X connect 24 0 26 0;
#X connect 24 0 31 0;
#X connect 26 0 27 0;
#X connect 26 1 28 0;
#X connect 29 0 2 0;
#X connect 31 0 30 0;
#X connect 32 0 35 0;
#X connect 33 0 38 0;
#X connect 34 0 39 0;
#X connect 35 0 36 0;
#X connect 35 1 37 1;
#X connect 36 0 37 0;
#X connect 37 0 62 0;
#X connect 38 0 36 0;
#X connect 38 1 62 1;
#X connect 39 0 36 0;
#X connect 39 1 62 2;
#X connect 41 0 42 1;
#X connect 41 0 43 1;
#X connect 41 0 46 1;
#X connect 41 0 56 0;
#X connect 42 0 44 0;
#X connect 42 0 72 0;
#X connect 43 0 47 0;
#X connect 44 0 2 0;
#X connect 45 0 43 0;
#X connect 45 0 46 0;
#X connect 46 0 47 0;
#X connect 47 0 2 0;
#X connect 48 0 1 0;
#X connect 49 0 50 0;
#X connect 49 1 51 1;
#X connect 50 0 51 0;
#X connect 51 0 66 0;
#X connect 52 0 50 0;
#X connect 52 1 66 1;
#X connect 53 0 52 0;
#X connect 55 0 36 0;
#X connect 55 1 62 3;
#X connect 56 0 57 0;
#X connect 56 1 57 1;
#X connect 57 0 58 0;
#X connect 60 0 61 0;
#X connect 61 0 59 0;
#X connect 62 0 40 0;
#X connect 63 0 55 0;
#X connect 64 0 50 0;
#X connect 64 1 66 3;
#X connect 65 0 64 0;
#X connect 66 0 54 0;
#X connect 67 0 50 0;
#X connect 67 1 66 2;
#X connect 68 0 67 0;
#X connect 69 0 57 0;
#X connect 69 1 70 0;
#X connect 70 0 58 1;
#X connect 71 0 58 1;
#X connect 72 0 6 0;
#X connect 74 0 76 0;
#X connect 74 0 85 0;
#X connect 75 0 74 1;
#X connect 76 0 2 0;
#X connect 76 0 86 0;
#X connect 77 0 78 0;
#X connect 78 0 83 0;
#X connect 79 0 80 0;
#X connect 80 0 83 0;
#X connect 81 0 82 0;
#X connect 82 0 83 1;
#X connect 83 0 84 0;
#X connect 85 0 6 0;
#X connect 88 0 49 0;
#X connect 89 0 15 0;
