#N canvas 509 255 822 582 10;
#X obj 25 24 r VIEWMODE;
#X obj 209 114 t b b, f 9;
#X obj 25 277 pofwin;
#X msg 25 116 window 1280 400 0 \, pos 50 50;
#X obj 209 137 del 200;
#X obj 25 48 == 0;
#X obj 25 90 sel 0 1, f 62;
#X msg 224 258 1;
#X msg 190 257 0.3;
#X obj 190 290 s MAINSCALE;
#X obj 466 69 > 1;
#X obj 466 111 s VIEWSCENE;
#X obj 466 91 change -1;
#X obj 25 69 change -1;
#X obj 570 14 r #pofkey;
#X obj 570 35 route 267;
#X obj 570 56 sel 1;
#X obj 570 77 tgl 15 0 empty empty empty 17 7 0 10 -262144 -1 -1 0
1;
#X obj 570 211 pofwin;
#X obj 570 232 route window;
#X obj 570 253 spigot 1;
#X obj 570 166 list prepend window;
#X obj 570 145 list prepend 800 600;
#X obj 570 99 t f f;
#X obj 600 118 == 0;
#X obj 570 187 list trim;
#X obj 643 210 tgl 15 0 empty empty empty 17 7 0 10 -262144 -1 -1 0
1;
#X obj 25 298 route window;
#X msg 187 342 window 3840 1200 \, pos 0 0;
#X obj 25 319 unpack f f;
#X floatatom 25 340 5 0 0 0 - - -;
#X floatatom 82 339 5 0 0 0 - - -;
#X msg 176 318 window 2560 720 \, pos 1440 0;
#X obj 134 398 s window_size_canvas;
#X msg 138 372 label window_size=\$1x\$2;
#X obj 410 310 r screenWidth-snd;
#X obj 523 310 r screenHeight-snd;
#X obj 640 310 r screenPosition-snd;
#X obj 410 331 t b f;
#X obj 410 352 del 10;
#X obj 410 373 f;
#X obj 410 394 pack f f f;
#X obj 523 331 t b f;
#X obj 640 331 t b f;
#X obj 410 415 s \$0-screensetting;
#X obj 281 116 r \$0-screensetting;
#X obj 260 140 list;
#X obj 209 186 list;
#X msg 260 166 window \$1 \$2 \, pos 0 0;
#X obj 163 161 del 100;
#X obj 163 185 list;
#X msg 270 198 window \$1 \$2 \, pos \$3 0;
#X msg 209 224 window \$1 \$2 \, pos \$3 0;
#X obj 213 65 bng 15 250 50 0 empty empty empty 17 7 0 10 -262144 -1
-1;
#X obj 412 467 t b f;
#X obj 412 488 del 10;
#X obj 412 509 f;
#X obj 569 467 t b f;
#X obj 412 446 r previewScreenWidth-snd;
#X obj 569 446 r previewscreenHeight-snd;
#X obj 412 530 pack f f;
#X obj 412 551 s \$0-previewscreensetting;
#X text 362 495 TODO:;
#X connect 0 0 5 0;
#X connect 0 0 10 0;
#X connect 1 0 4 0;
#X connect 1 1 46 0;
#X connect 2 0 27 0;
#X connect 3 0 2 0;
#X connect 3 0 8 0;
#X connect 4 0 49 0;
#X connect 5 0 13 0;
#X connect 6 0 3 0;
#X connect 6 1 1 0;
#X connect 7 0 9 0;
#X connect 8 0 9 0;
#X connect 10 0 12 0;
#X connect 12 0 11 0;
#X connect 13 0 6 0;
#X connect 14 0 15 0;
#X connect 15 0 16 0;
#X connect 16 0 17 0;
#X connect 18 0 19 0;
#X connect 19 0 20 0;
#X connect 20 0 22 1;
#X connect 21 0 25 0;
#X connect 22 0 21 0;
#X connect 23 0 22 0;
#X connect 23 1 24 0;
#X connect 24 0 20 1;
#X connect 25 0 18 0;
#X connect 26 0 18 0;
#X connect 27 0 29 0;
#X connect 27 0 34 0;
#X connect 29 0 30 0;
#X connect 29 1 31 0;
#X connect 32 0 2 0;
#X connect 34 0 33 0;
#X connect 35 0 38 0;
#X connect 36 0 42 0;
#X connect 37 0 43 0;
#X connect 38 0 39 0;
#X connect 38 1 40 1;
#X connect 39 0 40 0;
#X connect 40 0 41 0;
#X connect 41 0 44 0;
#X connect 42 0 39 0;
#X connect 42 1 41 1;
#X connect 43 0 39 0;
#X connect 43 1 41 2;
#X connect 45 0 46 1;
#X connect 45 0 47 1;
#X connect 45 0 50 1;
#X connect 46 0 48 0;
#X connect 47 0 52 0;
#X connect 48 0 2 0;
#X connect 49 0 47 0;
#X connect 49 0 50 0;
#X connect 50 0 52 0;
#X connect 52 0 2 0;
#X connect 52 0 7 0;
#X connect 53 0 1 0;
#X connect 54 0 55 0;
#X connect 54 1 56 1;
#X connect 55 0 56 0;
#X connect 56 0 60 0;
#X connect 57 0 55 0;
#X connect 57 1 60 1;
#X connect 58 0 54 0;
#X connect 59 0 57 0;
#X connect 60 0 61 0;
