#N canvas 639 125 334 329 10;
#X obj 33 15 r \$1;
#X obj 33 36 t b b f b, f 33;
#X msg 125 104 1 \$1;
#X obj 125 125 <<;
#X obj 125 146 &;
#X obj 98 83 t f f;
#X obj 98 191 spigot;
#X obj 98 237 t a;
#X obj 33 268 list, f 10;
#X msg 167 158 list;
#X obj 125 167 != 0;
#X msg 98 61 0 \, 1 \, 2 \, 3 \, 4 \, 5 \, 6 \, 7 \, 8 \, 9 \, 10 \,
11;
#X obj 98 212 list prepend;
#X obj 33 295 outlet;
#X connect 0 0 1 0;
#X connect 1 0 8 0;
#X connect 1 1 11 0;
#X connect 1 2 4 1;
#X connect 1 3 9 0;
#X connect 2 0 3 0;
#X connect 3 0 4 0;
#X connect 4 0 10 0;
#X connect 5 0 6 0;
#X connect 5 1 2 0;
#X connect 6 0 12 0;
#X connect 7 0 8 1;
#X connect 7 0 12 1;
#X connect 8 0 13 0;
#X connect 9 0 7 0;
#X connect 10 0 6 1;
#X connect 11 0 5 0;
#X connect 12 0 7 0;
