#N canvas 577 114 862 761 10;
#X obj 105 722 s cameras-drawhead;
#X obj 288 164 s cameras-bg;
#X obj 105 66 r cameras-head;
#X obj 105 142 t a a, f 31;
#X msg 207 68 quality \$1;
#X obj 207 43 tgl 15 0 empty empty empty 17 7 0 10 -262144 -1 -1 0
1;
#X floatatom 184 312 5 0 0 0 - - -;
#X floatatom 144 311 5 0 0 0 - - -;
#X floatatom 226 312 5 0 0 0 - - -;
#X obj 324 5 r drawSize;
#X obj 324 392 unpack f f f;
#X floatatom 218 500 5 0 0 0 - - -;
#X obj 105 103 poffbo camera-\$1 2048 2048;
#X floatatom 601 521 5 0 0 0 - - -;
#X floatatom 562 520 5 0 0 0 - - -;
#X floatatom 517 522 5 0 0 0 - - -;
#X obj 482 571 poftexture camera-\$1;
#X obj 482 400 r camera-simulhead;
#X obj 610 409 tgl 15 0 empty empty empty 17 7 0 10 -262144 -1 -1 1
1;
#X obj 342 504 loadbang;
#X obj 342 525 symbol \$2;
#X obj 189 474 hsl 128 15 0 -4 0 0 empty empty empty -2 -8 0 10 -262144
-1 -1 12700 1;
#X floatatom 213 381 5 0 0 0 - - -;
#X floatatom 174 380 5 0 0 0 - - -;
#X msg 611 386 0.5;
#X floatatom 323 444 5 0 0 0 - - -;
#X obj 323 464 * -1;
#X obj 105 519 poftranslate 0 0 -4;
#X obj 105 330 pofscale 100 300 100;
#X obj 201 357 * -0.5;
#X obj 105 495 pofscale 1 1 -4;
#X obj 456 266 * 0.5;
#X obj 482 544 poftranslate 0 0 0;
#X obj 497 265 * 0.5;
#X obj 157 452 hsl 128 15 1 2 0 0 empty empty empty -2 -8 0 10 -262144
-1 -1 0 1;
#X obj 342 546 sel x y z, f 18;
#X obj 582 49 list prepend \$3 \$2;
#X obj 582 70 route 1, f 14;
#X obj 582 91 route x y z, f 29;
#X obj 582 139 s \$0-size;
#X obj 144 222 r \$0-size;
#X obj 144 243 t a a, f 12;
#X obj 144 290 /;
#X obj 214 288 /;
#X msg 214 266 1024 \$2;
#X msg 144 269 1024 \$1;
#X obj 125 428 hsl 128 15 1 2 0 0 empty empty empty -2 -8 0 10 -262144
-1 -1 0 1;
#X obj 519 626 unpack f f;
#X msg 324 26 \$1 \$3 \$2;
#X obj 324 47 s \$0-drawSize;
#X text 407 48 homogenous...;
#X obj 582 28 r \$0-drawSize;
#X obj 105 639 pofrotate y, f 15;
#X obj 105 664 pofrotate x, f 15;
#X obj 342 589 * \$3;
#X msg 376 568 90;
#X obj 376 589 * \$3;
#X obj 412 569 f \$3;
#X obj 412 590 - 1;
#X obj 412 611 * 90;
#X obj 519 605 r \$0-size;
#X msg 698 113 \$1 \$2 \$3;
#X obj 360 103 r \$0-size;
#X obj 671 317 loadbang;
#X obj 671 338 symbol \$2;
#X obj 671 359 sel x y z, f 18;
#X obj 482 467 pofrotate y, f 15;
#X obj 482 492 pofrotate x, f 15;
#X obj 671 402 * \$3;
#X msg 706 381 90;
#X obj 706 402 * \$3;
#X obj 741 382 f \$3;
#X obj 741 403 - 1;
#X obj 741 424 * 90;
#X obj 462 317 bng 15 250 50 0 empty empty empty 17 7 0 10 -262144
-1 -1;
#X obj 482 433 pofcolor \$4 \$5 \$6 1;
#X msg 342 568 90;
#X msg 582 112 \$3 \$2 \$1;
#X msg 671 381 -90;
#X floatatom 557 646 5 0 0 0 - - -;
#X floatatom 519 646 5 0 0 0 - - -;
#X obj 482 667 pofplane 4 4;
#X floatatom 652 486 5 0 0 0 - - -;
#X floatatom 654 549 5 0 0 0 - - -;
#X floatatom 212 615 5 0 0 0 - - -;
#X floatatom 217 644 5 0 0 0 - - -;
#X obj 405 216 spigot;
#X obj 436 130 loadbang;
#X obj 436 151 symbol \$2;
#X obj 436 172 sel y;
#X msg 436 193 0;
#X msg 463 193 1;
#X obj 405 236 unpack f f f;
#X obj 105 611 pofrotate z, f 15;
#X floatatom 203 583 5 0 0 0 - - -;
#X obj 105 695 poftranslate 0 -2 0;
#X obj 347 419 * 0.5;
#X floatatom 232 535 5 0 0 0 - - -;
#X obj 264 369 * 0.5;
#X msg 638 113 \$1 \$3 \$2;
#X obj 105 403 poftranslate 0 0 8;
#X obj 105 561 poftranslate 0 0 0;
#X connect 2 0 12 0;
#X connect 3 0 28 0;
#X connect 3 1 1 0;
#X connect 4 0 12 0;
#X connect 5 0 4 0;
#X connect 6 0 28 2;
#X connect 7 0 28 1;
#X connect 8 0 28 3;
#X connect 9 0 48 0;
#X connect 10 2 96 0;
#X connect 11 0 27 3;
#X connect 12 0 3 0;
#X connect 13 0 32 3;
#X connect 14 0 32 2;
#X connect 15 0 32 1;
#X connect 16 0 81 0;
#X connect 17 0 75 0;
#X connect 18 0 75 4;
#X connect 19 0 20 0;
#X connect 20 0 35 0;
#X connect 21 0 30 3;
#X connect 22 0 100 3;
#X connect 23 0 100 2;
#X connect 24 0 75 4;
#X connect 25 0 26 0;
#X connect 26 0 11 0;
#X connect 27 0 101 0;
#X connect 28 0 100 0;
#X connect 29 0 23 0;
#X connect 30 0 27 0;
#X connect 31 0 14 0;
#X connect 32 0 16 0;
#X connect 33 0 13 0;
#X connect 34 0 30 2;
#X connect 35 0 76 0;
#X connect 35 1 55 0;
#X connect 35 2 57 0;
#X connect 36 0 37 0;
#X connect 37 0 38 0;
#X connect 38 0 77 0;
#X connect 38 1 99 0;
#X connect 38 2 61 0;
#X connect 40 0 41 0;
#X connect 41 0 45 0;
#X connect 41 1 44 0;
#X connect 42 0 7 0;
#X connect 43 0 6 0;
#X connect 44 0 43 0;
#X connect 45 0 42 0;
#X connect 46 0 30 1;
#X connect 47 0 80 0;
#X connect 47 1 79 0;
#X connect 48 0 49 0;
#X connect 51 0 36 0;
#X connect 52 0 53 0;
#X connect 53 0 95 0;
#X connect 54 0 84 0;
#X connect 55 0 56 0;
#X connect 56 0 85 0;
#X connect 57 0 58 0;
#X connect 58 0 59 0;
#X connect 59 0 85 0;
#X connect 60 0 47 0;
#X connect 61 0 39 0;
#X connect 62 0 10 0;
#X connect 62 0 86 0;
#X connect 63 0 64 0;
#X connect 64 0 65 0;
#X connect 65 0 78 0;
#X connect 65 1 69 0;
#X connect 65 2 71 0;
#X connect 66 0 67 0;
#X connect 67 0 32 0;
#X connect 68 0 66 1;
#X connect 69 0 70 0;
#X connect 70 0 67 1;
#X connect 71 0 72 0;
#X connect 72 0 73 0;
#X connect 73 0 67 1;
#X connect 74 0 20 0;
#X connect 74 0 64 0;
#X connect 75 0 66 0;
#X connect 76 0 54 0;
#X connect 77 0 39 0;
#X connect 78 0 68 0;
#X connect 79 0 81 2;
#X connect 80 0 81 1;
#X connect 82 0 67 1;
#X connect 83 0 66 1;
#X connect 84 0 52 1;
#X connect 85 0 53 1;
#X connect 86 0 92 0;
#X connect 87 0 88 0;
#X connect 88 0 89 0;
#X connect 89 0 90 0;
#X connect 89 1 91 0;
#X connect 90 0 86 1;
#X connect 91 0 86 1;
#X connect 92 1 31 0;
#X connect 92 1 98 0;
#X connect 92 1 29 0;
#X connect 92 2 33 0;
#X connect 93 0 52 0;
#X connect 94 0 93 1;
#X connect 95 0 0 0;
#X connect 96 0 25 0;
#X connect 97 0 101 2;
#X connect 98 0 97 0;
#X connect 99 0 39 0;
#X connect 100 0 30 0;
#X connect 101 0 93 0;
