#N canvas 954 197 770 795 10;
#X obj 55 24 inlet pos;
#X obj 382 72 r headset_draw_pofhead;
#X msg 249 543 strokeWidth \$1;
#X floatatom 249 522 5 0 0 0 - - -;
#X obj 179 617 t a;
#X obj 382 674 pofpath;
#X msg 55 45 \$4 \$1 \$2 \$3;
#X obj 55 66 route 1 0;
#X msg 269 208 moveTo \$1 \$2 \$3;
#X msg 164 210 lineTo \$1 \$2 \$3;
#X msg 475 534 clear;
#X obj 160 674 print;
#X obj 243 443 loadbang;
#X msg 49 213 curveTo \$1 \$2 \$3;
#X msg 537 611 res \$1;
#X msg 538 586 2;
#X msg 567 587 3;
#X msg 625 584 5;
#X obj 475 503 r draw_clear;
#X msg 596 583 4;
#X msg 199 383 strokeColor 1 1 1 1;
#N canvas 48 615 552 384 minDistance 1;
#X obj 164 54 inlet;
#X obj 164 132 unpack f f f;
#X obj 250 132 unpack f f f;
#X obj 164 153 -;
#X obj 198 154 -;
#X obj 233 155 -;
#X obj 164 174 abs;
#X obj 198 174 abs;
#X obj 233 176 abs;
#X obj 164 195 +;
#X obj 198 195 +;
#X obj 221 237 b;
#X obj 221 258 list, f 20;
#X obj 250 50 inlet;
#X obj 164 93 t a a, f 30;
#X obj 221 279 t a a, f 11;
#X obj 221 300 outlet;
#X obj 42 259 b;
#X obj 42 280 i;
#X obj 72 279 + 1;
#X obj 75 231 r draw_clear;
#X msg 75 252 0;
#X floatatom 42 301 5 0 0 0 - - -;
#X obj 373 306 b;
#X obj 373 327 i;
#X obj 403 326 + 1;
#X obj 406 278 r draw_clear;
#X msg 406 299 0;
#X floatatom 373 348 5 0 0 0 - - -;
#X obj 164 216 moses 0.04;
#X connect 0 0 14 0;
#X connect 1 0 3 0;
#X connect 1 1 4 0;
#X connect 1 2 5 0;
#X connect 2 0 3 1;
#X connect 2 1 4 1;
#X connect 2 2 5 1;
#X connect 3 0 6 0;
#X connect 4 0 7 0;
#X connect 5 0 8 0;
#X connect 6 0 9 0;
#X connect 7 0 10 0;
#X connect 8 0 10 1;
#X connect 9 0 29 0;
#X connect 10 0 9 1;
#X connect 11 0 12 0;
#X connect 12 0 15 0;
#X connect 13 0 2 0;
#X connect 14 0 1 0;
#X connect 14 0 17 0;
#X connect 14 1 12 1;
#X connect 15 0 16 0;
#X connect 15 1 2 0;
#X connect 15 1 23 0;
#X connect 17 0 18 0;
#X connect 18 0 19 0;
#X connect 18 0 22 0;
#X connect 19 0 18 1;
#X connect 20 0 21 0;
#X connect 21 0 18 1;
#X connect 23 0 24 0;
#X connect 24 0 25 0;
#X connect 24 0 28 0;
#X connect 25 0 24 1;
#X connect 26 0 27 0;
#X connect 27 0 24 1;
#X connect 29 1 11 0;
#X restore 55 145 pd minDistance;
#X obj 269 113 print;
#X obj 269 63 spigot;
#X obj 323 27 tgl 15 0 empty empty empty 17 7 0 10 -262144 -1 -1 0
1;
#X obj 453 207 poftranslate, f 16;
#X obj 462 165 unpack f f f;
#X obj 453 249 pofsphere 0.12 25;
#X obj 616 205 poftranslate, f 16;
#X obj 625 163 unpack f f f;
#X obj 382 96 t a a;
#X obj 616 247 pofsphere 0.04 25;
#X msg 612 91 \$5 \$6 \$7;
#X msg 625 142 \$1 \$2 \$3;
#X msg 462 144 \$5 \$6 \$7;
#X obj 616 228 pofcolor 1 0.8 0.8 0.9;
#X obj 453 228 pofcolor 0.8 0.8 1 0.2;
#X msg 242 465 filled 0 \, strokeColor 1 1 1 1 \, strokeWidth 6 \,
res 4;
#X connect 0 0 6 0;
#X connect 0 0 23 0;
#X connect 0 0 34 0;
#X connect 0 0 33 0;
#X connect 1 0 30 0;
#X connect 2 0 4 0;
#X connect 3 0 2 0;
#X connect 4 0 5 0;
#X connect 6 0 7 0;
#X connect 7 0 21 0;
#X connect 7 1 8 0;
#X connect 8 0 4 0;
#X connect 9 0 4 0;
#X connect 10 0 5 0;
#X connect 12 0 37 0;
#X connect 13 0 4 0;
#X connect 14 0 5 0;
#X connect 15 0 14 0;
#X connect 16 0 14 0;
#X connect 17 0 14 0;
#X connect 18 0 10 0;
#X connect 19 0 14 0;
#X connect 20 0 4 0;
#X connect 21 0 9 0;
#X connect 23 0 22 0;
#X connect 24 0 23 1;
#X connect 25 0 36 0;
#X connect 26 0 25 1;
#X connect 26 1 25 2;
#X connect 26 2 25 3;
#X connect 28 0 35 0;
#X connect 29 0 28 1;
#X connect 29 1 28 2;
#X connect 29 2 28 3;
#X connect 30 0 25 0;
#X connect 30 0 28 0;
#X connect 30 1 5 0;
#X connect 33 0 29 0;
#X connect 34 0 26 0;
#X connect 35 0 31 0;
#X connect 36 0 27 0;
#X connect 37 0 4 0;
