#N canvas 602 164 635 492 10;
#X declare -lib pof;
#X obj 43 47 r headsets-data;
#X obj 43 71 route 1 2, f 10;
#X obj 43 113 headset_draw 1;
#X obj 46 16 declare -lib pof;
#X obj 43 171 pofhead;
#X obj 43 423 s headset_draw_pofhead;
#N canvas 327 283 761 669 camera 0;
#X floatatom 222 353 5 0 0 0 - - -;
#X floatatom 300 147 5 0 0 0 - - -;
#X floatatom 280 106 5 0 0 0 - - -;
#X floatatom 243 70 5 0 0 0 - - -;
#X floatatom 228 39 5 0 0 0 - - -;
#X floatatom 356 172 5 0 0 0 - - -;
#X floatatom 174 39 5 0 0 0 - - -;
#X floatatom 246 240 5 0 0 0 - - -;
#X obj 158 382 pofscale 200 200 200;
#X obj 140 119 poftranslate 0 150 0;
#X obj 140 228 pofrotate x -200;
#X obj 160 276 pofrotate y -176;
#X floatatom 340 289 5 0 0 0 - - -;
#X msg 340 309 \$1 500;
#X obj 340 330 line;
#X floatatom 399 149 5 0 0 0 - - -;
#X obj 399 190 line;
#X obj 400 38 tgl 15 0 empty empty empty 17 7 0 10 -262144 -1 -1 1
1;
#X obj 397 62 metro 500;
#X msg 399 169 \$1 2000;
#X obj 397 83 random 40;
#X floatatom 418 346 5 0 0 0 - - -;
#X obj 418 387 line;
#X obj 419 235 tgl 15 0 empty empty empty 17 7 0 10 -262144 -1 -1 1
1;
#X obj 416 259 metro 500;
#X msg 418 366 \$1 2000;
#X obj 416 280 random 40;
#X obj 140 91 inlet;
#X obj 158 414 outlet;
#X msg 346 201 \$1 500;
#X obj 346 222 line;
#X obj 171 326 pofrotate x 180;
#X obj 397 104 - 40;
#X obj 416 301 + 170;
#X connect 0 0 8 1;
#X connect 0 0 8 2;
#X connect 0 0 8 3;
#X connect 3 0 9 3;
#X connect 4 0 9 2;
#X connect 5 0 29 0;
#X connect 6 0 9 1;
#X connect 7 0 11 1;
#X connect 8 0 28 0;
#X connect 9 0 10 0;
#X connect 10 0 11 0;
#X connect 11 0 31 0;
#X connect 12 0 13 0;
#X connect 13 0 14 0;
#X connect 14 0 11 1;
#X connect 15 0 19 0;
#X connect 16 0 10 1;
#X connect 17 0 18 0;
#X connect 18 0 20 0;
#X connect 19 0 16 0;
#X connect 20 0 32 0;
#X connect 21 0 25 0;
#X connect 22 0 11 1;
#X connect 23 0 24 0;
#X connect 24 0 26 0;
#X connect 25 0 22 0;
#X connect 26 0 33 0;
#X connect 27 0 9 0;
#X connect 29 0 30 0;
#X connect 30 0 10 1;
#X connect 31 0 8 0;
#X connect 32 0 15 0;
#X connect 33 0 21 0;
#X restore 43 295 pd camera;
#N canvas 1195 531 583 427 floor 1;
#X obj 172 21 inlet;
#X obj 168 45 poftranslate;
#X obj 168 84 pofrotate x 90;
#X obj 197 165 pofrect 5 3;
#X obj 165 116 t a a;
#X obj 165 255 pofrect 5 3;
#X obj 165 195 poffill;
#X obj 197 141 pofcolor 0.2 0.2 0.2 1;
#X msg 72 155 linewidth 4;
#X obj 72 130 loadbang;
#X connect 0 0 1 0;
#X connect 1 0 2 0;
#X connect 2 0 4 0;
#X connect 4 0 6 0;
#X connect 4 1 7 0;
#X connect 6 0 5 0;
#X connect 7 0 3 0;
#X connect 8 0 6 0;
#X connect 9 0 8 0;
#X restore 186 422 pd floor;
#N canvas 1 81 691 574 camera-mirror 0;
#X floatatom 232 460 5 0 0 0 - - -;
#X floatatom 206 218 5 0 0 0 - - -;
#X floatatom 428 247 5 0 0 0 - - -;
#X floatatom 366 324 5 0 0 0 - - -;
#X obj 168 489 pofscale 200 200 200;
#X obj 136 301 poftranslate 0 150 0;
#X floatatom 412 364 5 0 0 0 - - -;
#X msg 412 384 \$1 500;
#X obj 412 405 line;
#X floatatom 462 142 5 0 0 0 - - -;
#X obj 462 183 line;
#X obj 463 31 tgl 15 0 empty empty empty 17 7 0 10 -262144 -1 -1 1
1;
#X msg 462 162 \$1 2000;
#X floatatom 490 421 5 0 0 0 - - -;
#X obj 490 462 line;
#X obj 490 326 tgl 15 0 empty empty empty 17 7 0 10 -262144 -1 -1 1
1;
#X msg 490 441 \$1 2000;
#X obj 103 54 inlet;
#X obj 168 521 outlet;
#X msg 418 276 \$1 500;
#X obj 418 297 line;
#X obj 136 402 pofrotate x 180;
#X obj 103 76 t a a;
#X obj 130 105 pofcolor;
#X obj 130 217 pofrotate y;
#X obj 130 192 t a a, f 31;
#X obj 311 213 outlet bg;
#X obj 579 126 loadbang;
#X obj 136 328 pofrotate x;
#X obj 136 366 pofrotate y;
#X obj 490 486 * 0.2;
#X obj 490 507 +;
#X obj 520 506 * 0.8;
#X obj 462 203 * 0.2;
#X obj 462 224 +;
#X obj 492 223 * 0.8;
#X obj 460 76 random 30;
#X obj 460 55 metro 1000;
#X obj 490 371 random 30;
#X obj 490 391 - 15;
#X obj 490 350 metro 1000;
#X obj 172 257 nbx 5 14 -1e+37 1e+37 0 1 empty empty empty 0 -8 0 10
-262144 -1 -1 0 256;
#X obj 231 257 nbx 5 14 -1e+37 1e+37 0 1 empty empty empty 0 -8 0 10
-262144 -1 -1 130 256;
#X obj 291 257 nbx 5 14 -1e+37 1e+37 0 1 empty empty empty 0 -8 0 10
-262144 -1 -1 0 256;
#X floatatom 507 111 5 0 0 0 - - -;
#X obj 460 97 - 50;
#X msg 233 69 quality \$1;
#X obj 232 34 tgl 15 0 empty empty empty 17 7 0 10 -262144 -1 -1 1
1;
#X obj 276 104 unpack f f;
#X msg 313 65 1024 1;
#X msg 342 40 512 0.5;
#X msg 362 63 2048 2;
#X obj 130 162 pofscale 2 2;
#X obj 130 133 poffbo \$0-fbo 2400 2048;
#X connect 0 0 4 1;
#X connect 0 0 4 2;
#X connect 0 0 4 3;
#X connect 1 0 24 1;
#X connect 2 0 19 0;
#X connect 3 0 29 1;
#X connect 4 0 18 0;
#X connect 5 0 28 0;
#X connect 6 0 7 0;
#X connect 7 0 8 0;
#X connect 8 0 29 1;
#X connect 9 0 12 0;
#X connect 10 0 33 0;
#X connect 11 0 37 0;
#X connect 12 0 10 0;
#X connect 13 0 16 0;
#X connect 14 0 30 0;
#X connect 15 0 40 0;
#X connect 16 0 14 0;
#X connect 17 0 22 0;
#X connect 19 0 20 0;
#X connect 20 0 28 1;
#X connect 21 0 4 0;
#X connect 22 1 23 0;
#X connect 23 0 53 0;
#X connect 24 0 5 0;
#X connect 25 0 24 0;
#X connect 25 1 26 0;
#X connect 27 0 15 0;
#X connect 27 0 11 0;
#X connect 28 0 29 0;
#X connect 29 0 21 0;
#X connect 30 0 31 0;
#X connect 31 0 32 0;
#X connect 31 0 29 1;
#X connect 32 0 31 1;
#X connect 33 0 34 0;
#X connect 34 0 35 0;
#X connect 34 0 28 1;
#X connect 35 0 34 1;
#X connect 36 0 45 0;
#X connect 37 0 36 0;
#X connect 38 0 39 0;
#X connect 39 0 13 0;
#X connect 40 0 38 0;
#X connect 41 0 5 1;
#X connect 42 0 5 2;
#X connect 43 0 5 3;
#X connect 44 0 45 1;
#X connect 45 0 9 0;
#X connect 46 0 53 0;
#X connect 47 0 46 0;
#X connect 48 0 53 1;
#X connect 48 0 53 2;
#X connect 48 1 52 1;
#X connect 48 1 52 2;
#X connect 49 0 48 0;
#X connect 50 0 48 0;
#X connect 51 0 48 0;
#X connect 52 0 25 0;
#X connect 53 0 52 0;
#X restore 140 229 pd camera-mirror;
#X obj 284 151 tgl 15 0 empty empty scene-draw 17 7 0 10 -262144 -1
-1 0 1;
#X obj 352 263 pofcolor 0.1 0.1 0.1 1;
#X obj 43 325 t a a;
#N canvas 150 649 633 321 mirror 0;
#X obj 102 168 poftexture \$0-fbo;
#X obj 76 44 inlet;
#X obj 102 238 pofquad 5 3;
#X obj 298 47 t b f;
#X msg 244 100 corner 0 \$1 \$2;
#X obj 428 45 t b f;
#X msg 380 98 corner 1 \$1 \$2;
#X obj 244 78 pack -200 -150;
#X obj 380 76 pack 200 -150;
#X obj 290 184 t b f;
#X obj 426 182 t b f;
#X msg 242 237 corner 3 \$1 \$2;
#X msg 378 235 corner 2 \$1 \$2;
#X obj 378 213 pack 200 150;
#X obj 242 215 pack -200 150;
#X obj 333 178 t a;
#X obj 298 30 nbx 5 14 -1e+37 1e+37 0 1 empty empty empty 0 -8 0 10
-262144 -1 -1 -1.5 256;
#X obj 239 29 nbx 5 14 -1e+37 1e+37 0 1 empty empty empty 0 -8 0 10
-262144 -1 -1 -2.5 256;
#X obj 428 28 nbx 5 14 -1e+37 1e+37 0 1 empty empty empty 0 -8 0 10
-262144 -1 -1 -1.5 256;
#X obj 369 27 nbx 5 14 -1e+37 1e+37 0 1 empty empty empty 0 -8 0 10
-262144 -1 -1 2.5 256;
#X obj 290 160 nbx 5 14 -1e+37 1e+37 0 1 empty empty empty 0 -8 0 10
-262144 -1 -1 1.5 256;
#X obj 231 159 nbx 5 14 -1e+37 1e+37 0 1 empty empty empty 0 -8 0 10
-262144 -1 -1 -2.5 256;
#X obj 426 158 nbx 5 14 -1e+37 1e+37 0 1 empty empty empty 0 -8 0 10
-262144 -1 -1 1.5 256;
#X obj 367 157 nbx 5 14 -1e+37 1e+37 0 1 empty empty empty 0 -8 0 10
-262144 -1 -1 2.5 256;
#X floatatom 195 63 5 0 0 0 - - -;
#X floatatom 156 38 5 0 0 0 - - -;
#X obj 76 139 pofrect 5 3;
#X floatatom 117 37 5 0 0 0 - - -;
#X obj 76 80 poftranslate 0 1.5 -1.5;
#X obj 76 111 pofrotate x 180;
#X connect 0 0 2 0;
#X connect 1 0 28 0;
#X connect 3 0 7 0;
#X connect 3 1 7 1;
#X connect 4 0 15 0;
#X connect 5 0 8 0;
#X connect 5 1 8 1;
#X connect 6 0 15 0;
#X connect 7 0 4 0;
#X connect 8 0 6 0;
#X connect 9 0 14 0;
#X connect 9 1 14 1;
#X connect 10 0 13 0;
#X connect 10 1 13 1;
#X connect 11 0 15 0;
#X connect 12 0 15 0;
#X connect 13 0 12 0;
#X connect 14 0 11 0;
#X connect 15 0 2 0;
#X connect 16 0 3 0;
#X connect 17 0 7 0;
#X connect 18 0 5 0;
#X connect 19 0 8 0;
#X connect 20 0 9 0;
#X connect 21 0 14 0;
#X connect 22 0 10 0;
#X connect 23 0 13 0;
#X connect 24 0 29 1;
#X connect 25 0 28 3;
#X connect 27 0 28 2;
#X connect 28 0 29 0;
#X connect 29 0 0 0;
#X restore 244 422 pd mirror;
#X obj 352 285 pofrect 4000 4000;
#X obj 155 341 t a a;
#X obj 43 350 t a a;
#N canvas 830 463 633 523 mirror-fs 0;
#X obj 44 132 inlet;
#X obj 95 338 pofquad 5 3;
#X obj 291 147 t b f;
#X obj 421 145 t b f;
#X obj 237 178 pack -200 -150;
#X obj 373 176 pack 200 -150;
#X obj 283 284 t b f;
#X obj 419 282 t b f;
#X obj 371 313 pack 200 150;
#X obj 235 315 pack -200 150;
#X obj 326 278 t a;
#X obj 291 130 nbx 5 14 -1e+37 1e+37 0 1 empty empty empty 0 -8 0 10
-262144 -1 -1 -223 256;
#X obj 232 129 nbx 5 14 -1e+37 1e+37 0 1 empty empty empty 0 -8 0 10
-262144 -1 -1 -753 256;
#X obj 421 128 nbx 5 14 -1e+37 1e+37 0 1 empty empty empty 0 -8 0 10
-262144 -1 -1 -196 256;
#X obj 362 127 nbx 5 14 -1e+37 1e+37 0 1 empty empty empty 0 -8 0 10
-262144 -1 -1 -11 256;
#X obj 283 260 nbx 5 14 -1e+37 1e+37 0 1 empty empty empty 0 -8 0 10
-262144 -1 -1 291 256;
#X obj 224 259 nbx 5 14 -1e+37 1e+37 0 1 empty empty empty 0 -8 0 10
-262144 -1 -1 -820 256;
#X obj 419 258 nbx 5 14 -1e+37 1e+37 0 1 empty empty empty 0 -8 0 10
-262144 -1 -1 299 256;
#X obj 360 257 nbx 5 14 -1e+37 1e+37 0 1 empty empty empty 0 -8 0 10
-262144 -1 -1 18 256;
#X obj 95 272 poftexture \$0-fbo;
#X msg 237 200 corner 1 \$1 \$2;
#X msg 373 198 corner 0 \$1 \$2;
#X msg 235 337 corner 2 \$1 \$2;
#X msg 371 335 corner 3 \$1 \$2;
#X obj 44 198 t a a, f 9;
#N canvas 52 392 913 507 edit 0;
#X obj 120 25 inlet;
#X obj 120 46 pofvisible;
#X obj 173 23 tgl 15 0 empty empty empty 17 7 0 10 -262144 -1 -1 0
1;
#X obj 314 5 inlet;
#X obj 314 26 route corner;
#X obj 120 213 poftranslate;
#X obj 120 303 poftouch 40 40;
#X obj 152 187 unpack f f;
#X msg 147 279 draw 1;
#X obj 145 257 loadbang;
#X obj 201 324 route down up;
#X obj 120 99 t a a, f 10;
#X obj 120 122 poftouch 4000 4000 1;
#X obj 238 140 route move;
#X msg 201 345 1;
#X msg 238 345 0;
#X obj 168 367 spigot;
#X msg 168 388 0 \$1 \$2;
#X obj 272 491 outlet;
#X obj 321 214 poftranslate;
#X obj 321 304 poftouch 40 40;
#X obj 353 188 unpack f f;
#X msg 348 280 draw 1;
#X obj 346 258 loadbang;
#X obj 402 325 route down up;
#X msg 402 346 1;
#X msg 439 346 0;
#X obj 369 368 spigot;
#X obj 503 210 poftranslate;
#X obj 503 300 poftouch 40 40;
#X obj 535 184 unpack f f;
#X msg 530 276 draw 1;
#X obj 528 254 loadbang;
#X obj 584 321 route down up;
#X msg 584 342 1;
#X msg 621 342 0;
#X obj 551 364 spigot;
#X obj 685 212 poftranslate;
#X obj 685 302 poftouch 40 40;
#X obj 717 186 unpack f f;
#X msg 712 278 draw 1;
#X obj 710 256 loadbang;
#X obj 766 323 route down up;
#X msg 766 344 1;
#X msg 803 344 0;
#X obj 733 366 spigot;
#X msg 369 389 1 \$1 \$2;
#X msg 551 385 2 \$1 \$2;
#X msg 733 387 3 \$1 \$2;
#X obj 314 47 route 0 1 2 3, f 42;
#X obj 120 70 pofcolor 0 1 0 0.5;
#X obj 173 4 r draw-quads-edit;
#X connect 0 0 1 0;
#X connect 1 0 50 0;
#X connect 2 0 1 0;
#X connect 3 0 4 0;
#X connect 4 0 49 0;
#X connect 5 0 6 0;
#X connect 6 1 10 0;
#X connect 7 0 5 1;
#X connect 7 1 5 2;
#X connect 8 0 6 0;
#X connect 9 0 8 0;
#X connect 10 0 14 0;
#X connect 10 1 15 0;
#X connect 11 0 12 0;
#X connect 11 1 5 0;
#X connect 11 1 19 0;
#X connect 11 1 28 0;
#X connect 11 1 37 0;
#X connect 12 1 13 0;
#X connect 13 0 16 0;
#X connect 13 0 27 0;
#X connect 13 0 36 0;
#X connect 13 0 45 0;
#X connect 14 0 16 1;
#X connect 15 0 16 1;
#X connect 16 0 17 0;
#X connect 17 0 18 0;
#X connect 19 0 20 0;
#X connect 20 1 24 0;
#X connect 21 0 19 1;
#X connect 21 1 19 2;
#X connect 22 0 20 0;
#X connect 23 0 22 0;
#X connect 24 0 25 0;
#X connect 24 1 26 0;
#X connect 25 0 27 1;
#X connect 26 0 27 1;
#X connect 27 0 46 0;
#X connect 28 0 29 0;
#X connect 29 1 33 0;
#X connect 30 0 28 1;
#X connect 30 1 28 2;
#X connect 31 0 29 0;
#X connect 32 0 31 0;
#X connect 33 0 34 0;
#X connect 33 1 35 0;
#X connect 34 0 36 1;
#X connect 35 0 36 1;
#X connect 36 0 47 0;
#X connect 37 0 38 0;
#X connect 38 1 42 0;
#X connect 39 0 37 1;
#X connect 39 1 37 2;
#X connect 40 0 38 0;
#X connect 41 0 40 0;
#X connect 42 0 43 0;
#X connect 42 1 44 0;
#X connect 43 0 45 1;
#X connect 44 0 45 1;
#X connect 45 0 48 0;
#X connect 46 0 18 0;
#X connect 47 0 18 0;
#X connect 48 0 18 0;
#X connect 49 0 7 0;
#X connect 49 1 21 0;
#X connect 49 2 30 0;
#X connect 49 3 39 0;
#X connect 50 0 11 0;
#X connect 51 0 2 0;
#X restore 44 221 pd edit;
#X obj 361 104 unpack f f;
#X obj 241 59 route 1 0 2 3;
#X obj 236 107 unpack f f;
#X obj 359 234 unpack f f;
#X obj 229 236 unpack f f;
#X connect 0 0 24 0;
#X connect 2 0 4 0;
#X connect 2 1 4 1;
#X connect 3 0 5 0;
#X connect 3 1 5 1;
#X connect 4 0 20 0;
#X connect 5 0 21 0;
#X connect 6 0 9 0;
#X connect 6 1 9 1;
#X connect 7 0 8 0;
#X connect 7 1 8 1;
#X connect 8 0 23 0;
#X connect 9 0 22 0;
#X connect 10 0 1 0;
#X connect 10 0 25 1;
#X connect 11 0 2 0;
#X connect 12 0 4 0;
#X connect 13 0 3 0;
#X connect 14 0 5 0;
#X connect 15 0 6 0;
#X connect 16 0 9 0;
#X connect 17 0 7 0;
#X connect 18 0 8 0;
#X connect 19 0 1 0;
#X connect 20 0 10 0;
#X connect 21 0 10 0;
#X connect 22 0 10 0;
#X connect 23 0 10 0;
#X connect 24 0 25 0;
#X connect 24 1 19 0;
#X connect 25 0 27 0;
#X connect 26 0 14 0;
#X connect 26 1 13 0;
#X connect 27 0 28 0;
#X connect 27 1 26 0;
#X connect 27 2 30 0;
#X connect 27 3 29 0;
#X connect 28 0 12 0;
#X connect 28 1 11 0;
#X connect 29 0 18 0;
#X connect 29 1 17 0;
#X connect 30 0 16 0;
#X connect 30 1 15 0;
#X restore 379 429 pd mirror-fs;
#X obj 43 265 pofvisible;
#X obj 379 394 pofvisible 1;
#X obj 43 386 pofvisible 1;
#X obj 147 152 tgl 15 0 empty empty fullscale/scene 17 7 0 10 -262144
-1 -1 0 1;
#X obj 388 364 == 0;
#X obj 71 92 headset_draw 2;
#X obj 43 200 t a a a, f 33;
#N canvas 1 81 691 574 camera-mirror2 0;
#X floatatom 232 460 5 0 0 0 - - -;
#X floatatom 206 218 5 0 0 0 - - -;
#X floatatom 417 256 5 0 0 0 - - -;
#X floatatom 366 324 5 0 0 0 - - -;
#X obj 168 489 pofscale 200 200 200;
#X obj 136 301 poftranslate 0 150 0;
#X floatatom 412 364 5 0 0 0 - - -;
#X msg 412 384 \$1 500;
#X obj 412 405 line;
#X floatatom 444 138 5 0 0 0 - - -;
#X obj 444 179 line;
#X obj 445 27 tgl 15 0 empty empty empty 17 7 0 10 -262144 -1 -1 1
1;
#X msg 444 158 \$1 2000;
#X floatatom 490 421 5 0 0 0 - - -;
#X obj 490 462 line;
#X obj 490 326 tgl 15 0 empty empty empty 17 7 0 10 -262144 -1 -1 1
1;
#X msg 490 441 \$1 2000;
#X obj 103 54 inlet;
#X obj 168 521 outlet;
#X msg 418 276 \$1 500;
#X obj 418 297 line;
#X obj 136 402 pofrotate x 180;
#X obj 103 76 t a a;
#X obj 130 105 pofcolor;
#X obj 130 217 pofrotate y;
#X obj 130 192 t a a, f 31;
#X obj 311 213 outlet bg;
#X obj 579 126 loadbang;
#X obj 136 328 pofrotate x;
#X obj 136 366 pofrotate y;
#X obj 490 486 * 0.2;
#X obj 490 507 +;
#X obj 520 506 * 0.8;
#X obj 444 199 * 0.2;
#X obj 444 220 +;
#X obj 474 219 * 0.8;
#X obj 442 72 random 30;
#X obj 442 51 metro 1000;
#X obj 490 371 random 30;
#X obj 490 391 - 15;
#X obj 490 350 metro 1000;
#X obj 172 257 nbx 5 14 -1e+37 1e+37 0 1 empty empty empty 0 -8 0 10
-262144 -1 -1 0 256;
#X obj 231 257 nbx 5 14 -1e+37 1e+37 0 1 empty empty empty 0 -8 0 10
-262144 -1 -1 46 256;
#X obj 291 257 nbx 5 14 -1e+37 1e+37 0 1 empty empty empty 0 -8 0 10
-262144 -1 -1 0 256;
#X floatatom 489 107 5 0 0 0 - - -;
#X obj 442 93 - 50;
#X msg 233 69 quality \$1;
#X obj 232 34 tgl 15 0 empty empty empty 17 7 0 10 -262144 -1 -1 0
1;
#X obj 276 104 unpack f f;
#X msg 313 65 1024 1;
#X msg 342 40 512 0.5;
#X msg 362 63 2048 2;
#X obj 130 162 pofscale 2 2;
#X obj 130 133 poffbo \$0-fbo2 2400 2048;
#X floatatom 226 435 5 0 0 0 - - -;
#X obj 144 437 pofrotate y;
#X connect 0 0 4 1;
#X connect 0 0 4 2;
#X connect 0 0 4 3;
#X connect 1 0 24 1;
#X connect 2 0 19 0;
#X connect 3 0 29 1;
#X connect 4 0 18 0;
#X connect 5 0 28 0;
#X connect 6 0 7 0;
#X connect 7 0 8 0;
#X connect 8 0 29 1;
#X connect 9 0 12 0;
#X connect 10 0 33 0;
#X connect 11 0 37 0;
#X connect 12 0 10 0;
#X connect 13 0 16 0;
#X connect 14 0 30 0;
#X connect 15 0 40 0;
#X connect 16 0 14 0;
#X connect 17 0 22 0;
#X connect 19 0 20 0;
#X connect 20 0 28 1;
#X connect 21 0 55 0;
#X connect 22 1 23 0;
#X connect 23 0 53 0;
#X connect 24 0 5 0;
#X connect 25 0 24 0;
#X connect 25 1 26 0;
#X connect 27 0 15 0;
#X connect 27 0 11 0;
#X connect 28 0 29 0;
#X connect 29 0 21 0;
#X connect 30 0 31 0;
#X connect 31 0 32 0;
#X connect 31 0 29 1;
#X connect 32 0 31 1;
#X connect 33 0 34 0;
#X connect 34 0 35 0;
#X connect 34 0 28 1;
#X connect 35 0 34 1;
#X connect 36 0 45 0;
#X connect 37 0 36 0;
#X connect 38 0 39 0;
#X connect 39 0 13 0;
#X connect 40 0 38 0;
#X connect 41 0 5 1;
#X connect 42 0 5 2;
#X connect 43 0 5 3;
#X connect 44 0 45 1;
#X connect 45 0 9 0;
#X connect 46 0 53 0;
#X connect 47 0 46 0;
#X connect 48 0 53 1;
#X connect 48 0 53 2;
#X connect 48 1 52 1;
#X connect 48 1 52 2;
#X connect 49 0 48 0;
#X connect 50 0 48 0;
#X connect 51 0 48 0;
#X connect 52 0 25 0;
#X connect 53 0 52 0;
#X connect 54 0 55 1;
#X connect 55 0 4 0;
#X restore 253 227 pd camera-mirror2;
#N canvas 260 441 633 523 mirror-fs2 0;
#X obj 44 132 inlet;
#X obj 95 338 pofquad 5 3;
#X obj 291 147 t b f;
#X obj 421 145 t b f;
#X obj 237 178 pack -200 -150;
#X obj 373 176 pack 200 -150;
#X obj 283 284 t b f;
#X obj 419 282 t b f;
#X obj 371 313 pack 200 150;
#X obj 235 315 pack -200 150;
#X obj 326 278 t a;
#X obj 291 130 nbx 5 14 -1e+37 1e+37 0 1 empty empty empty 0 -8 0 10
-262144 -1 -1 -195 256;
#X obj 232 129 nbx 5 14 -1e+37 1e+37 0 1 empty empty empty 0 -8 0 10
-262144 -1 -1 135 256;
#X obj 421 128 nbx 5 14 -1e+37 1e+37 0 1 empty empty empty 0 -8 0 10
-262144 -1 -1 -189 256;
#X obj 362 127 nbx 5 14 -1e+37 1e+37 0 1 empty empty empty 0 -8 0 10
-262144 -1 -1 889 256;
#X obj 283 260 nbx 5 14 -1e+37 1e+37 0 1 empty empty empty 0 -8 0 10
-262144 -1 -1 296 256;
#X obj 224 259 nbx 5 14 -1e+37 1e+37 0 1 empty empty empty 0 -8 0 10
-262144 -1 -1 105 256;
#X obj 419 258 nbx 5 14 -1e+37 1e+37 0 1 empty empty empty 0 -8 0 10
-262144 -1 -1 327 256;
#X obj 360 257 nbx 5 14 -1e+37 1e+37 0 1 empty empty empty 0 -8 0 10
-262144 -1 -1 878 256;
#X msg 237 200 corner 1 \$1 \$2;
#X msg 373 198 corner 0 \$1 \$2;
#X msg 235 337 corner 2 \$1 \$2;
#X msg 371 335 corner 3 \$1 \$2;
#X obj 44 198 t a a, f 9;
#N canvas 52 392 913 507 edit 0;
#X obj 120 25 inlet;
#X obj 120 46 pofvisible;
#X obj 173 23 tgl 15 0 empty empty empty 17 7 0 10 -262144 -1 -1 0
1;
#X obj 314 5 inlet;
#X obj 314 26 route corner;
#X obj 120 213 poftranslate;
#X obj 120 303 poftouch 40 40;
#X obj 152 187 unpack f f;
#X msg 147 279 draw 1;
#X obj 145 257 loadbang;
#X obj 201 324 route down up;
#X obj 120 99 t a a, f 10;
#X obj 120 122 poftouch 4000 4000 1;
#X obj 238 140 route move;
#X msg 201 345 1;
#X msg 238 345 0;
#X obj 168 367 spigot;
#X msg 168 388 0 \$1 \$2;
#X obj 272 491 outlet;
#X obj 321 214 poftranslate;
#X obj 321 304 poftouch 40 40;
#X obj 353 188 unpack f f;
#X msg 348 280 draw 1;
#X obj 346 258 loadbang;
#X obj 402 325 route down up;
#X msg 402 346 1;
#X msg 439 346 0;
#X obj 369 368 spigot;
#X obj 503 210 poftranslate;
#X obj 503 300 poftouch 40 40;
#X obj 535 184 unpack f f;
#X msg 530 276 draw 1;
#X obj 528 254 loadbang;
#X obj 584 321 route down up;
#X msg 584 342 1;
#X msg 621 342 0;
#X obj 551 364 spigot;
#X obj 685 212 poftranslate;
#X obj 685 302 poftouch 40 40;
#X obj 717 186 unpack f f;
#X msg 712 278 draw 1;
#X obj 710 256 loadbang;
#X obj 766 323 route down up;
#X msg 766 344 1;
#X msg 803 344 0;
#X obj 733 366 spigot;
#X msg 369 389 1 \$1 \$2;
#X msg 551 385 2 \$1 \$2;
#X msg 733 387 3 \$1 \$2;
#X obj 314 47 route 0 1 2 3, f 42;
#X obj 120 70 pofcolor 0 1 0 0.5;
#X obj 173 4 r draw-quads-edit;
#X connect 0 0 1 0;
#X connect 1 0 50 0;
#X connect 2 0 1 0;
#X connect 3 0 4 0;
#X connect 4 0 49 0;
#X connect 5 0 6 0;
#X connect 6 1 10 0;
#X connect 7 0 5 1;
#X connect 7 1 5 2;
#X connect 8 0 6 0;
#X connect 9 0 8 0;
#X connect 10 0 14 0;
#X connect 10 1 15 0;
#X connect 11 0 12 0;
#X connect 11 1 5 0;
#X connect 11 1 19 0;
#X connect 11 1 28 0;
#X connect 11 1 37 0;
#X connect 12 1 13 0;
#X connect 13 0 16 0;
#X connect 13 0 27 0;
#X connect 13 0 36 0;
#X connect 13 0 45 0;
#X connect 14 0 16 1;
#X connect 15 0 16 1;
#X connect 16 0 17 0;
#X connect 17 0 18 0;
#X connect 19 0 20 0;
#X connect 20 1 24 0;
#X connect 21 0 19 1;
#X connect 21 1 19 2;
#X connect 22 0 20 0;
#X connect 23 0 22 0;
#X connect 24 0 25 0;
#X connect 24 1 26 0;
#X connect 25 0 27 1;
#X connect 26 0 27 1;
#X connect 27 0 46 0;
#X connect 28 0 29 0;
#X connect 29 1 33 0;
#X connect 30 0 28 1;
#X connect 30 1 28 2;
#X connect 31 0 29 0;
#X connect 32 0 31 0;
#X connect 33 0 34 0;
#X connect 33 1 35 0;
#X connect 34 0 36 1;
#X connect 35 0 36 1;
#X connect 36 0 47 0;
#X connect 37 0 38 0;
#X connect 38 1 42 0;
#X connect 39 0 37 1;
#X connect 39 1 37 2;
#X connect 40 0 38 0;
#X connect 41 0 40 0;
#X connect 42 0 43 0;
#X connect 42 1 44 0;
#X connect 43 0 45 1;
#X connect 44 0 45 1;
#X connect 45 0 48 0;
#X connect 46 0 18 0;
#X connect 47 0 18 0;
#X connect 48 0 18 0;
#X connect 49 0 7 0;
#X connect 49 1 21 0;
#X connect 49 2 30 0;
#X connect 49 3 39 0;
#X connect 50 0 11 0;
#X connect 51 0 2 0;
#X restore 44 221 pd edit;
#X obj 361 104 unpack f f;
#X obj 241 59 route 1 0 2 3;
#X obj 236 107 unpack f f;
#X obj 359 234 unpack f f;
#X obj 229 236 unpack f f;
#X obj 95 272 poftexture \$0-fbo2;
#X connect 0 0 23 0;
#X connect 2 0 4 0;
#X connect 2 1 4 1;
#X connect 3 0 5 0;
#X connect 3 1 5 1;
#X connect 4 0 19 0;
#X connect 5 0 20 0;
#X connect 6 0 9 0;
#X connect 6 1 9 1;
#X connect 7 0 8 0;
#X connect 7 1 8 1;
#X connect 8 0 22 0;
#X connect 9 0 21 0;
#X connect 10 0 1 0;
#X connect 10 0 24 1;
#X connect 11 0 2 0;
#X connect 12 0 4 0;
#X connect 13 0 3 0;
#X connect 14 0 5 0;
#X connect 15 0 6 0;
#X connect 16 0 9 0;
#X connect 17 0 7 0;
#X connect 18 0 8 0;
#X connect 19 0 10 0;
#X connect 20 0 10 0;
#X connect 21 0 10 0;
#X connect 22 0 10 0;
#X connect 23 0 24 0;
#X connect 23 1 30 0;
#X connect 24 0 26 0;
#X connect 25 0 14 0;
#X connect 25 1 13 0;
#X connect 26 0 27 0;
#X connect 26 1 25 0;
#X connect 26 2 29 0;
#X connect 26 3 28 0;
#X connect 27 0 12 0;
#X connect 27 1 11 0;
#X connect 28 0 18 0;
#X connect 28 1 17 0;
#X connect 29 0 16 0;
#X connect 29 1 15 0;
#X connect 30 0 1 0;
#X restore 466 428 pd mirror-fs2;
#N canvas 150 649 633 321 mirror2 0;
#X obj 76 44 inlet;
#X obj 102 275 pofquad 5 3;
#X obj 298 47 t b f;
#X msg 244 100 corner 0 \$1 \$2;
#X obj 428 45 t b f;
#X msg 380 98 corner 1 \$1 \$2;
#X obj 244 78 pack -200 -150;
#X obj 380 76 pack 200 -150;
#X obj 290 184 t b f;
#X obj 426 182 t b f;
#X msg 242 237 corner 3 \$1 \$2;
#X msg 378 235 corner 2 \$1 \$2;
#X obj 378 213 pack 200 150;
#X obj 242 215 pack -200 150;
#X obj 333 178 t a;
#X obj 298 30 nbx 5 14 -1e+37 1e+37 0 1 empty empty empty 0 -8 0 10
-262144 -1 -1 -1.5 256;
#X obj 239 29 nbx 5 14 -1e+37 1e+37 0 1 empty empty empty 0 -8 0 10
-262144 -1 -1 -2.5 256;
#X obj 428 28 nbx 5 14 -1e+37 1e+37 0 1 empty empty empty 0 -8 0 10
-262144 -1 -1 -1.5 256;
#X obj 369 27 nbx 5 14 -1e+37 1e+37 0 1 empty empty empty 0 -8 0 10
-262144 -1 -1 2.5 256;
#X obj 290 160 nbx 5 14 -1e+37 1e+37 0 1 empty empty empty 0 -8 0 10
-262144 -1 -1 1.5 256;
#X obj 231 159 nbx 5 14 -1e+37 1e+37 0 1 empty empty empty 0 -8 0 10
-262144 -1 -1 -2.5 256;
#X obj 426 158 nbx 5 14 -1e+37 1e+37 0 1 empty empty empty 0 -8 0 10
-262144 -1 -1 1.5 256;
#X obj 367 157 nbx 5 14 -1e+37 1e+37 0 1 empty empty empty 0 -8 0 10
-262144 -1 -1 2.5 256;
#X floatatom 177 119 5 0 0 0 - - -;
#X floatatom 204 36 5 0 0 0 - - -;
#X obj 76 176 pofrect 5 3;
#X floatatom 165 35 5 0 0 0 - - -;
#X obj 76 148 pofrotate x 180;
#X obj 76 114 pofrotate y 90;
#X floatatom 120 37 5 0 0 0 - - -;
#X obj 76 80 poftranslate -2.5 1.5 0;
#X obj 102 205 poftexture \$0-fbo2;
#X connect 0 0 30 0;
#X connect 2 0 6 0;
#X connect 2 1 6 1;
#X connect 3 0 14 0;
#X connect 4 0 7 0;
#X connect 4 1 7 1;
#X connect 5 0 14 0;
#X connect 6 0 3 0;
#X connect 7 0 5 0;
#X connect 8 0 13 0;
#X connect 8 1 13 1;
#X connect 9 0 12 0;
#X connect 9 1 12 1;
#X connect 10 0 14 0;
#X connect 11 0 14 0;
#X connect 12 0 11 0;
#X connect 13 0 10 0;
#X connect 14 0 1 0;
#X connect 15 0 2 0;
#X connect 16 0 6 0;
#X connect 17 0 4 0;
#X connect 18 0 7 0;
#X connect 19 0 8 0;
#X connect 20 0 13 0;
#X connect 21 0 9 0;
#X connect 22 0 12 0;
#X connect 23 0 27 1;
#X connect 24 0 30 3;
#X connect 26 0 30 2;
#X connect 27 0 31 0;
#X connect 28 0 27 0;
#X connect 29 0 30 1;
#X connect 30 0 28 0;
#X connect 31 0 1 0;
#X restore 306 421 pd mirror2;
#X obj 244 395 t a a;
#X connect 0 0 1 0;
#X connect 1 0 2 0;
#X connect 1 1 22 0;
#X connect 4 0 23 0;
#X connect 6 0 11 0;
#X connect 8 0 14 0;
#X connect 8 1 10 0;
#X connect 9 0 19 0;
#X connect 10 0 13 0;
#X connect 11 0 15 0;
#X connect 11 1 27 0;
#X connect 14 0 5 0;
#X connect 14 1 7 0;
#X connect 15 0 19 0;
#X connect 15 1 7 0;
#X connect 17 0 6 0;
#X connect 18 0 16 0;
#X connect 18 0 25 0;
#X connect 19 0 5 0;
#X connect 20 0 17 0;
#X connect 20 0 21 0;
#X connect 21 0 18 0;
#X connect 23 0 17 0;
#X connect 23 0 18 0;
#X connect 23 1 8 0;
#X connect 23 2 24 0;
#X connect 24 0 14 0;
#X connect 24 1 10 0;
#X connect 27 0 12 0;
#X connect 27 1 26 0;
