#N canvas 250 81 777 718 10;
#X declare -lib Gem -lib pix_opencv -path GEMpart -path Gem/abstractions
;
#X declare -path Gem/help;
#X obj 398 99 cnv 15 100 60 empty empty empty 20 12 0 14 -195568 -66577
0;
#N canvas 1 102 525 300 gemwin 0;
#X obj 132 156 gemwin;
#X obj 67 89 outlet;
#X obj 67 10 inlet;
#X obj 67 41 route create;
#X msg 67 70 set destroy;
#X msg 142 68 set create;
#X msg 198 112 destroy;
#X msg 132 132 reset \, dimen 640 480 \, create \, 1;
#X obj 242 25 loadbang;
#X obj 371 70 r \$0-gemwin;
#X msg 270 205 frame 25;
#X connect 2 0 3 0;
#X connect 3 0 4 0;
#X connect 3 0 7 0;
#X connect 3 1 5 0;
#X connect 3 1 6 0;
#X connect 4 0 1 0;
#X connect 5 0 1 0;
#X connect 6 0 0 0;
#X connect 7 0 0 0;
#X connect 8 0 5 0;
#X connect 9 0 0 0;
#X connect 10 0 0 0;
#X restore 404 137 pd gemwin;
#X msg 404 118 create;
#X text 400 97 Create window:;
#X obj 127 594 rectangle 5.333 4;
#X obj 206 543 nbx 5 14 0 1e+37 0 1 empty empty empty 0 -8 0 10 -262144
-1 -1 1.4 256;
#X obj 206 562 * 4;
#X obj 239 563 * 3;
#N canvas 160 258 928 581 shader 0;
#X obj 49 444 glsl_program;
#X obj 122 283 pack 0 0;
#X obj 143 263 t b f;
#X obj 137 218 change;
#X msg 122 309 link \$1 \$2;
#X floatatom 143 244 2 0 0 0 ID - -;
#X floatatom 121 136 2 0 0 0 ID - -;
#X obj 140 330 print linking;
#X obj 115 42 bng 15 250 50 0 empty empty empty 0 -6 0 8 -262144 -1
-1;
#X obj 49 94 glsl_vertex;
#X obj 49 198 glsl_fragment;
#X msg 63 72 open multitexture.vert;
#X msg 60 168 open multitexture.frag;
#N canvas 1 81 450 300 load_shader 0;
#X obj 89 99 t b b;
#X msg 119 126 0;
#X obj 89 154 outlet;
#X obj 89 71 gemhead 1;
#X connect 0 0 2 0;
#X connect 0 1 1 0;
#X connect 1 0 3 0;
#X connect 3 0 0 0;
#X restore 115 20 pd load_shader;
#N canvas 1 81 450 300 init_shader 0;
#X obj 89 154 outlet;
#X obj 89 45 inlet;
#X obj 89 73 change;
#X obj 89 100 t b;
#X connect 1 0 2 0;
#X connect 2 0 3 0;
#X connect 3 0 0 0;
#X restore 130 465 pd init_shader;
#X text 161 375 2) change shader texuinit;
#X obj 121 113 change;
#X obj 49 25 inlet;
#X obj 49 518 outlet;
#X obj 347 192 t b f, f 8;
#X obj 333 211 pack f f;
#X msg 333 232 offset \$1 \$2;
#X floatatom 366 150 5 0 0 0 - - -;
#X floatatom 320 159 5 0 0 0 - - -;
#X obj 441 191 t b f, f 8;
#X obj 427 210 pack f f;
#X msg 427 231 offsetmin \$1 \$2;
#X obj 548 190 t b f, f 8;
#X obj 534 209 pack f f;
#X msg 534 230 offsetmax \$1 \$2;
#X floatatom 463 154 5 0 0 0 - - -;
#X floatatom 417 163 5 0 0 0 - - -;
#X floatatom 571 158 5 0 0 0 - - -;
#X floatatom 525 167 5 0 0 0 - - -;
#X obj 248 84 b;
#X obj 248 105 i;
#X obj 248 126 + 1;
#X obj 248 147 mod 65536;
#X msg 243 178 time \$1;
#X msg 347 95 noise \$1;
#X floatatom 299 94 5 0 0 0 - - -;
#X msg 409 94 noisesize \$1;
#X floatatom 421 50 5 0 0 0 - - -;
#X obj 535 28 hsl 128 15 0 1 0 0 empty empty empty -2 -8 0 10 -262144
-1 -1 0 1;
#X obj 532 47 swap 1;
#X floatatom 520 133 5 0 0 0 - - -;
#X obj 532 68 -, f 6;
#X obj 532 109 * 10000;
#X obj 532 88 pow 4;
#X obj 318 27 hsl 128 15 0 1 0 0 empty empty empty -2 -8 0 10 -262144
-1 -1 0 1;
#X obj 315 48 pow 4;
#X obj 307 71 - 1e-06;
#X obj 701 33 inlet shader;
#X msg 406 508 vsinamp \$1;
#X floatatom 485 472 5 0 0 0 - - -;
#X msg 492 502 vsinfreq \$1;
#X floatatom 403 459 5 0 0 0 - - -;
#X obj 403 479 / 1000;
#X floatatom 646 453 5 0 0 0 - - -;
#X msg 649 502 vsinoffset \$1;
#X obj 646 473 / 10;
#X floatatom 568 453 5 0 0 0 - - -;
#X msg 571 502 vsinCamp \$1;
#X obj 509 534 t a;
#X floatatom 656 352 5 0 0 0 - - -;
#X floatatom 817 333 5 0 0 0 - - -;
#X floatatom 739 333 5 0 0 0 - - -;
#X obj 680 414 t a;
#X msg 663 382 mixprob \$1;
#X msg 742 382 mixsize \$1;
#X msg 820 382 mixoffset \$1;
#X floatatom 864 322 5 0 0 0 - - -;
#X obj 817 353 / 1000;
#X obj 811 39 inlet reload;
#X floatatom 745 287 5 0 0 0 - - -;
#X msg 368 418 noisesize 600 \, vsinsquare 1000 \, noise -0.1;
#X obj 130 492 s shaderloaded_multitexture;
#X msg 157 539 MyTex0 1 \, MyTex1 0;
#X msg 368 390 MyTex0 0 \, MyTex1 1 \, MyTex2 2 \, MyTex3 3 \, MyTex4
4;
#X connect 0 0 18 0;
#X connect 0 1 14 0;
#X connect 1 0 4 0;
#X connect 2 0 1 0;
#X connect 2 1 1 1;
#X connect 3 0 5 0;
#X connect 4 0 0 0;
#X connect 4 0 7 0;
#X connect 5 0 2 0;
#X connect 6 0 1 0;
#X connect 8 0 11 0;
#X connect 8 0 12 0;
#X connect 9 0 10 0;
#X connect 9 1 16 0;
#X connect 10 0 0 0;
#X connect 10 1 3 0;
#X connect 11 0 9 0;
#X connect 12 0 10 0;
#X connect 13 0 8 0;
#X connect 14 0 78 0;
#X connect 14 0 75 0;
#X connect 14 0 76 0;
#X connect 16 0 6 0;
#X connect 17 0 34 0;
#X connect 17 0 9 0;
#X connect 19 0 20 0;
#X connect 19 1 20 1;
#X connect 20 0 21 0;
#X connect 21 0 0 0;
#X connect 22 0 19 0;
#X connect 23 0 20 0;
#X connect 24 0 25 0;
#X connect 24 1 25 1;
#X connect 25 0 26 0;
#X connect 26 0 0 0;
#X connect 27 0 28 0;
#X connect 27 1 28 1;
#X connect 28 0 29 0;
#X connect 29 0 0 0;
#X connect 30 0 24 0;
#X connect 31 0 25 0;
#X connect 32 0 27 0;
#X connect 33 0 28 0;
#X connect 34 0 35 0;
#X connect 35 0 36 0;
#X connect 36 0 37 0;
#X connect 37 0 35 1;
#X connect 37 0 38 0;
#X connect 38 0 0 0;
#X connect 39 0 0 0;
#X connect 40 0 39 0;
#X connect 41 0 0 0;
#X connect 42 0 41 0;
#X connect 43 0 44 0;
#X connect 44 0 46 0;
#X connect 44 1 46 1;
#X connect 46 0 48 0;
#X connect 47 0 42 0;
#X connect 48 0 47 0;
#X connect 49 0 50 0;
#X connect 50 0 51 0;
#X connect 51 0 40 0;
#X connect 52 0 0 0;
#X connect 53 0 63 0;
#X connect 54 0 55 0;
#X connect 55 0 63 0;
#X connect 56 0 57 0;
#X connect 57 0 53 0;
#X connect 58 0 60 0;
#X connect 59 0 63 0;
#X connect 60 0 59 0;
#X connect 61 0 62 0;
#X connect 62 0 63 0;
#X connect 63 0 0 0;
#X connect 64 0 68 0;
#X connect 65 0 72 0;
#X connect 66 0 69 0;
#X connect 67 0 0 0;
#X connect 68 0 67 0;
#X connect 69 0 67 0;
#X connect 70 0 67 0;
#X connect 71 0 70 0;
#X connect 72 0 70 0;
#X connect 73 0 8 0;
#X connect 75 0 0 0;
#X connect 77 0 0 0;
#X connect 78 0 0 0;
#X restore 127 514 pd shader;
#X obj 31 27 tgl 15 0 empty empty empty 17 7 0 10 -262144 -1 -1 0 1
;
#X obj 514 182 nbx 3 30 -1e+37 1e+37 0 0 empty empty FPS 10 -12 0 28
-257985 -1 -1 25 256;
#X obj 127 63 rotate 180 0 1 0;
#N canvas 352 81 867 435 NETWORK 0;
#X obj 176 159 netsend;
#X obj 176 89 loadbang;
#X obj 176 200 tgl 15 0 empty empty empty 17 7 0 10 -262144 -1 -1 1
1;
#X msg 101 119 disconnect;
#X msg 176 109 connect localhost 34561;
#X msg 215 210 \; pd quit;
#X obj 267 211 s \$0-gemwin;
#X obj 215 189 route quit gemwin;
#X obj 245 157 spigot;
#X obj 381 289 s \$0-choc;
#X obj 437 336 unpack f f;
#X floatatom 437 357 5 0 0 0 - - -;
#X floatatom 494 360 5 0 0 0 - - -;
#X obj 437 309 r \$0-choc;
#X obj 350 40 r MainGauche;
#X obj 475 39 r MainDroite;
#X obj 472 62 list prepend D;
#X obj 348 60 list prepend G;
#X obj 245 133 r toAudio;
#X obj 525 142 s toAudio;
#X obj 580 43 r \$0-choc;
#X obj 581 67 list prepend C;
#X obj 688 45 r \$0-control-formant;
#X obj 687 66 list prepend F;
#X obj 677 107 r \$0-control-delai;
#X obj 676 128 list prepend delai;
#X obj 666 188 list prepend sampleur;
#X obj 667 168 r \$0-control-sampleur;
#X obj 667 218 r \$0-control-sample_threshold;
#X obj 667 238 list prepend sample_threshold;
#X obj 451 234 route detect last;
#X obj 451 274 s \$0-control-sample_detect;
#X obj 500 256 s \$0-control-sample_last;
#X obj 659 282 r \$0-control-choc_sens;
#X obj 659 303 list prepend choc_sens;
#X obj 381 211 route choc sample CONTROL, f 42;
#X obj 567 235 s CONTROL;
#X obj 310 243 r CONTROL;
#X obj 310 264 route choc;
#X obj 337 306 bng 15 250 50 0 empty empty empty 17 7 0 10 -262144
-1 -1;
#X connect 0 0 2 0;
#X connect 0 1 7 0;
#X connect 1 0 4 0;
#X connect 2 0 8 1;
#X connect 4 0 0 0;
#X connect 7 0 5 0;
#X connect 7 1 6 0;
#X connect 7 2 35 0;
#X connect 8 0 0 0;
#X connect 10 0 11 0;
#X connect 10 1 12 0;
#X connect 13 0 10 0;
#X connect 14 0 17 0;
#X connect 15 0 16 0;
#X connect 16 0 19 0;
#X connect 17 0 19 0;
#X connect 18 0 8 0;
#X connect 20 0 21 0;
#X connect 21 0 19 0;
#X connect 22 0 23 0;
#X connect 23 0 19 0;
#X connect 24 0 25 0;
#X connect 25 0 19 0;
#X connect 26 0 19 0;
#X connect 27 0 26 0;
#X connect 28 0 29 0;
#X connect 29 0 19 0;
#X connect 30 0 31 0;
#X connect 30 1 32 0;
#X connect 33 0 34 0;
#X connect 34 0 19 0;
#X connect 35 0 9 0;
#X connect 35 1 30 0;
#X connect 35 2 36 0;
#X connect 37 0 38 0;
#X connect 38 0 9 0;
#X connect 38 0 39 0;
#X restore 403 76 pd NETWORK;
#N canvas 462 487 807 475 choc 0;
#X obj 180 37 unpack f f;
#X floatatom 389 48 5 0 0 0 - - -;
#X obj 350 134 moses 0;
#X obj 351 155 * -1;
#X floatatom 128 228 5 0 0 0 - - -;
#X msg 162 241 vsinfreq \$1;
#X obj 160 164 pow 2;
#X obj 398 24 * -1;
#X obj 226 393 outlet;
#X obj 310 239 line;
#X msg 309 263 vsinamp \$1;
#X msg 310 218 \$1 \, 0 500;
#X obj 128 128 + 1;
#X obj 404 220 line;
#X msg 404 199 \$1 \, 0 500;
#X msg 405 251 vsinCamp \$1;
#X obj 497 189 line;
#X msg 497 214 vsinoffset \$1;
#X obj 592 193 line;
#X msg 592 172 1 \, 0 1000;
#X obj 592 215 pow 4;
#X msg 592 280 mixoffset \$1;
#X obj 592 237 * 0.1;
#X obj 592 128 t b b, f 8;
#X obj 637 148 random 10000;
#X obj 592 259 +, f 8;
#X msg 54 223 mixsize \$1;
#X obj 54 199 + 50;
#X obj 54 176 * 200;
#X obj 404 175 * 1;
#X obj 351 181 * 0.08;
#X obj 23 8 r \$0-control-mix_chocs;
#X obj 238 123 *;
#X obj 254 104 t b f;
#X obj 106 95 *;
#X obj 112 72 t b f;
#X floatatom 197 212 5 0 0 0 - - -;
#X floatatom 118 181 5 0 0 0 - - -;
#X obj 161 215 + 3;
#X floatatom 198 146 5 0 0 0 - - -;
#X msg 188 72 -1;
#X floatatom 309 78 5 0 0 0 - - -;
#X msg 166 88 1;
#X obj 238 84 + 0.5;
#X obj 235 63 * -0.5;
#X obj 547 103 sel 0;
#X msg 261 7 -1 -1;
#X msg 305 6 -0.5 -0.9;
#X msg 304 23 0.5 -0.9;
#X msg 302 45 0 -0.9;
#X floatatom 251 223 5 0 0 0 - - -;
#X obj 225 297 sel 0;
#X obj 238 143 moses 0.05;
#X obj 185 3 r \$0-choc;
#X obj 163 191 * 200;
#X msg 497 168 0.3 \, 0 2000;
#X obj 250 193 * 0.03;
#X obj 272 168 pow 2;
#X connect 0 0 34 0;
#X connect 0 1 44 0;
#X connect 2 0 3 0;
#X connect 2 1 29 0;
#X connect 3 0 30 0;
#X connect 5 0 8 0;
#X connect 6 0 54 0;
#X connect 7 0 1 0;
#X connect 9 0 10 0;
#X connect 10 0 8 0;
#X connect 11 0 9 0;
#X connect 12 0 6 0;
#X connect 12 0 28 0;
#X connect 12 0 37 0;
#X connect 13 0 15 0;
#X connect 14 0 13 0;
#X connect 15 0 8 0;
#X connect 16 0 17 0;
#X connect 17 0 8 0;
#X connect 18 0 20 0;
#X connect 19 0 18 0;
#X connect 20 0 22 0;
#X connect 21 0 8 0;
#X connect 22 0 25 0;
#X connect 23 0 19 0;
#X connect 23 1 24 0;
#X connect 24 0 25 1;
#X connect 25 0 21 0;
#X connect 27 0 26 0;
#X connect 28 0 27 0;
#X connect 29 0 14 0;
#X connect 30 0 11 0;
#X connect 31 0 33 0;
#X connect 31 0 35 0;
#X connect 32 0 55 0;
#X connect 32 0 41 0;
#X connect 32 0 52 0;
#X connect 33 0 32 0;
#X connect 33 1 32 1;
#X connect 34 0 12 0;
#X connect 35 0 34 0;
#X connect 35 1 34 1;
#X connect 38 0 5 0;
#X connect 40 0 44 0;
#X connect 42 0 44 0;
#X connect 43 0 39 0;
#X connect 43 0 32 0;
#X connect 44 0 43 0;
#X connect 45 1 23 0;
#X connect 46 0 0 0;
#X connect 47 0 0 0;
#X connect 48 0 0 0;
#X connect 49 0 0 0;
#X connect 52 1 57 0;
#X connect 53 0 0 0;
#X connect 54 0 4 0;
#X connect 54 0 38 0;
#X connect 55 0 16 0;
#X connect 56 0 50 0;
#X connect 56 0 11 0;
#X connect 57 0 56 0;
#X restore 389 295 pd choc;
#N canvas 1 508 539 448 mix 0;
#X obj 163 310 outlet;
#X obj 211 60 r MainDroite;
#X obj 211 82 unpack f f, f 19;
#X obj 200 108 - 0.5;
#X obj 205 174 - 0.5;
#X obj 144 206 pack f f;
#X obj 144 182 * 0.1;
#X obj 199 198 * 0.1;
#X msg 147 236 offset \$1 0;
#X obj 255 187 - 0.2;
#X obj 144 158 *;
#X obj 150 135 t b f;
#X obj 254 141 *;
#X obj 260 118 t b f;
#X obj 56 47 r \$0-control-mix_retard;
#X floatatom 100 257 5 0 0 0 - - -;
#X msg 58 126 0;
#X msg 120 303 0;
#X msg 315 186 0;
#X floatatom 342 151 5 0 0 0 - - -;
#X obj 254 166 * 1.4;
#X obj 254 212 clip 0 1;
#X obj 254 239 change;
#X obj 312 235 hsl 128 15 0 1 0 0 empty empty empty -2 -8 0 10 -262144
-1 -1 0 1;
#X msg 254 266 delayMix \$1;
#X connect 1 0 2 0;
#X connect 2 0 3 0;
#X connect 2 1 12 0;
#X connect 3 0 10 0;
#X connect 4 0 7 0;
#X connect 6 0 5 0;
#X connect 6 0 15 0;
#X connect 7 0 5 1;
#X connect 8 0 0 0;
#X connect 9 0 21 0;
#X connect 10 0 6 0;
#X connect 11 0 10 0;
#X connect 11 1 10 1;
#X connect 12 0 20 0;
#X connect 13 0 12 0;
#X connect 13 1 12 1;
#X connect 14 0 11 0;
#X connect 14 0 24 0;
#X connect 16 0 10 0;
#X connect 17 0 8 0;
#X connect 18 0 24 0;
#X connect 20 0 9 0;
#X connect 21 0 19 0;
#X connect 21 0 22 0;
#X connect 22 0 24 0;
#X connect 23 0 24 0;
#X connect 24 0 0 0;
#X restore 391 320 pd mix;
#X obj 551 77 tgl 15 0 showDebug showDebug showDebug 17 7 0 10 -260097
-1 -1 0 1;
#X obj 268 28 declare -lib Gem -lib pix_opencv -path GEMpart -path
Gem/abstractions, f 69;
#N canvas 1 620 651 319 CONTROL 0;
#X obj 45 33 hsl 128 15 0 1 0 0 \$0-control-noise empty noise -2 -8
0 10 -262144 -1 -1 0 1;
#X obj 47 81 hsl 128 15 0 1 0 0 \$0-control-mix_retard empty mix_retard
-2 -8 0 10 -262144 -1 -1 0 1;
#X obj 47 124 hsl 128 15 0 1 0 0 \$0-control-mix_chocs empty mix_chocs(zebre)
-2 -8 0 10 -262144 -1 -1 0 1;
#X obj 49 168 hsl 128 15 0 1 0 0 \$0-control-formant empty formant
-2 -8 0 10 -257985 -1 -1 0 1;
#X obj 214 29 tgl 15 0 \$0-control-freeze empty freeze 17 7 0 10 -262144
-1 -1 0 1;
#X obj 50 205 hsl 128 15 0 1 0 0 \$0-control-delai empty delai -2 -8
0 10 -257985 -1 -1 0 1;
#X obj 47 240 tgl 15 0 \$0-control-sampleur empty sampleur 17 7 0 10
-262144 -1 -1 0 1;
#X obj 119 240 hsl 80 15 0 1 0 0 \$0-control-sample_threshold empty
threshold -2 -8 0 10 -260097 -1 -1 0 1;
#X obj 208 203 tgl 50 0 empty \$0-control-sample_detect detect 17 7
0 10 -260097 -1 -1 0 1;
#X obj 203 268 nbx 5 14 -1e+37 1e+37 0 0 empty \$0-control-sample_last
last 0 -8 0 10 -260097 -1 -1 0 256;
#X obj 190 125 hsl 80 15 0 1 0 0 \$0-control-choc_sens empty sens -2
-8 0 10 -4032 -1 -1 0 1;
#X obj 276 124 bng 15 250 50 0 \$0-choc \$0-choc-- empty 17 7 0 10
-262144 -1 -1;
#X obj 355 34 hsl 128 15 0 1 0 0 \$0-control-lum empty lum -2 -8 0
10 -261682 -1 -1 0 1;
#X obj 356 66 hsl 128 15 0 1 0 0 \$0-control-contrast empty contrast
-2 -8 0 10 -1 -262144 -1 0 1;
#X obj 356 97 hsl 128 15 0 1 0 0 \$0-control-sat empty sat -2 -8 0
10 -4034 -1 -1 0 1;
#X obj 499 155 tgl 15 0 \$0-control-tigre empty tigre 17 7 0 10 -262144
-1 -1 0 1;
#X obj 352 194 tgl 15 0 \$0-control-solar empty solar 17 7 0 10 -262144
-1 -1 0 1;
#N canvas 141 195 777 481 notes_samedi 0;
#X text 76 104 charger des samples preenregistrés;
#X text 75 121 classer des samples préenregistrés de gauche à doite:
exemple de - en - harmoniques, f 84;
#X text 18 84 sampleur: spatialisation \; timestretch;
#X text 76 141 (jouer un son preerngistré en pitch droite-gauche /
polyphonique), f 84;
#X text 77 157 bruit blanc filtré gauche-droite (formant?) \, enveloppe
haut-bas - polyphonique, f 79;
#X restore 398 271 pd notes_samedi;
#N canvas 1 81 598 261 conduite 0;
#X text 116 33 rien;
#X text 114 66 alto: retard video;
#X text 111 92 saladier blam: négatif couleur;
#X text 108 117 saladier roule: effets son - enleve video fx - ajout
freeze;
#X restore 390 244 pd conduite;
#X obj 354 135 hsl 128 15 0 1 0 0 \$0-control-mask empty mask -2 -8
0 10 -228856 -1 -1 0 1;
#X obj 499 134 hsl 128 15 0 1 0 0 \$0-control-maskbg empty mask-background
-2 -8 0 10 -228856 -1 -1 0 1;
#X obj 354 165 hsl 128 15 0 1 0 0 \$0-control-solar empty solar -2
-8 0 10 -128992 -1 -1 0 1;
#X obj 354 195 hsl 128 15 0 1 0 0 \$0-control-poster empty poster -2
-8 0 10 -159808 -1 -1 0 1;
#X obj 209 78 tgl 15 0 \$0-control-fb empty feedback 17 7 0 10 -262144
-1 -1 0 1;
#X restore 479 77 pd CONTROL;
#N canvas 43 335 450 418 noise 0;
#X obj 180 385 outlet;
#X obj 167 94 r MainGauche;
#X obj 167 115 unpack f f;
#X msg 254 257 noise \$1;
#X obj 253 190 pow 3;
#X obj 254 238 - 0.001;
#X obj 183 194 swap 1;
#X obj 183 215 -, f 6;
#X msg 164 328 noisesize \$1;
#X obj 167 246 pow 2;
#X msg 296 158 0;
#X obj 167 170 *;
#X obj 173 147 t b f;
#X obj 231 162 *;
#X obj 237 139 t b f;
#X obj 207 48 r \$0-control-noise;
#X obj 72 265 * 1200;
#X obj 71 302 + 20;
#X obj 167 266 * 800;
#X obj 166 303 + 400;
#X obj 253 214 * 0.05;
#X connect 1 0 2 0;
#X connect 2 0 11 0;
#X connect 2 1 13 0;
#X connect 3 0 0 0;
#X connect 4 0 20 0;
#X connect 5 0 3 0;
#X connect 6 0 7 0;
#X connect 6 1 7 1;
#X connect 7 0 9 0;
#X connect 8 0 0 0;
#X connect 9 0 18 0;
#X connect 10 0 4 0;
#X connect 11 0 9 0;
#X connect 12 0 11 0;
#X connect 12 1 11 1;
#X connect 13 0 4 0;
#X connect 14 0 13 0;
#X connect 14 1 13 1;
#X connect 15 0 12 0;
#X connect 15 0 14 0;
#X connect 16 0 17 0;
#X connect 18 0 19 0;
#X connect 19 0 8 0;
#X connect 20 0 5 0;
#X restore 389 350 pd noise;
#N canvas 491 212 778 787 feedback 0;
#X obj 361 139 loadbang;
#X obj 531 331 circle 2;
#X obj 550 301 hsl 128 15 0 5.33 0 0 empty empty empty -2 -8 0 10 -262144
-1 -1 0 1;
#X msg 623 369 line;
#X obj 60 209 gemframebuffer;
#X obj 60 256 translateXYZ 0 0 -4;
#X obj 191 541 square 4;
#X obj 254 460 r webcam-texture;
#X obj 191 435 pix_texture;
#X obj 203 393 loadbang;
#X obj 267 410 r mask-texture;
#X msg 203 413 texunit 1;
#X obj 60 141 gemhead 20;
#X obj 60 288 t a a, f 20;
#X obj 18 350 separator;
#X obj 18 456 pix_texture;
#X obj 141 233 s feedback-texture;
#X obj 60 167 alpha;
#X obj 389 322 alpha;
#X obj 389 300 gemhead 21;
#X obj 389 363 gemframebuffer;
#X obj 389 424 translateXYZ 0 0 -4;
#X obj 389 464 pix_texture;
#X obj 453 443 r feedback-texture;
#X obj 389 494 square 4;
#X obj 191 311 separator;
#X obj 143 340 bng 15 250 50 0 empty empty empty 17 7 0 10 -262144
-1 -1;
#X obj 191 366 _glsl mask;
#X obj 394 269 tgl 15 0 empty empty empty 17 7 0 10 -262144 -1 -1 0
1;
#X obj 437 262 bng 15 250 50 0 empty empty empty 17 7 0 10 -262144
-1 -1;
#X obj 191 479 pix_texture;
#X msg 267 363 MyTex0 0 \, MyTex1 1;
#X obj 18 380 pix_separator;
#X obj 191 335 color;
#X obj 389 342 color;
#X obj 570 470 tgl 15 0 empty empty empty 17 7 0 10 -262144 -1 -1 0
1;
#X obj 191 510 spigot;
#X msg 256 518 0;
#X msg 573 516 1;
#X msg 615 463 250;
#X msg 647 461 150;
#X obj 24 585 colorRGB 0.99 0.99 0.99 0.99;
#X obj 389 393 alpha;
#X obj 60 232 alpha;
#X obj 370 259 bng 15 250 50 0 empty empty empty 17 7 0 10 -262144
-1 -1;
#X msg 180 142 dimen 512 512 \, format RGB32;
#X obj 31 612 colorRGB 1 1 1 0.99;
#X obj 18 408 colorRGB 1 1 1 0.995;
#X msg 248 188 dimen 512 512 \, format RGBA;
#X msg 182 46 dimen 512 512 \, format RGBA32 \, type FLOAT;
#X obj 470 393 s feedback2-texture;
#X obj 576 422 r \$0-control-fb;
#X obj 18 504 square 4;
#X msg 121 371 0.995;
#X msg 144 387 0.992;
#X obj 183 90 r \$0-control-fb;
#X obj 573 495 metro 150;
#X obj 183 117 sel 1 0;
#X connect 0 0 48 0;
#X connect 2 0 1 1;
#X connect 3 0 1 0;
#X connect 4 0 43 0;
#X connect 4 1 16 0;
#X connect 5 0 13 0;
#X connect 7 0 30 1;
#X connect 8 0 30 0;
#X connect 9 0 11 0;
#X connect 10 0 8 1;
#X connect 11 0 8 0;
#X connect 12 0 17 0;
#X connect 13 0 25 0;
#X connect 13 1 14 0;
#X connect 14 0 32 0;
#X connect 15 0 52 0;
#X connect 17 0 4 0;
#X connect 18 0 34 0;
#X connect 19 0 18 0;
#X connect 20 0 42 0;
#X connect 20 1 15 1;
#X connect 20 1 50 0;
#X connect 21 0 22 0;
#X connect 22 0 24 0;
#X connect 23 0 22 1;
#X connect 25 0 33 0;
#X connect 26 0 27 0;
#X connect 27 0 8 0;
#X connect 27 1 31 0;
#X connect 28 0 19 0;
#X connect 30 0 36 0;
#X connect 31 0 27 1;
#X connect 32 0 47 0;
#X connect 33 0 27 0;
#X connect 34 0 20 0;
#X connect 35 0 56 0;
#X connect 36 0 6 0;
#X connect 36 0 37 0;
#X connect 37 0 36 1;
#X connect 38 0 36 1;
#X connect 39 0 56 1;
#X connect 40 0 56 1;
#X connect 42 0 21 0;
#X connect 43 0 5 0;
#X connect 44 0 19 0;
#X connect 45 0 4 0;
#X connect 45 0 20 0;
#X connect 47 0 15 0;
#X connect 48 0 4 0;
#X connect 48 0 20 0;
#X connect 49 0 4 0;
#X connect 49 0 20 0;
#X connect 51 0 35 0;
#X connect 53 0 47 4;
#X connect 54 0 47 4;
#X connect 55 0 57 0;
#X connect 56 0 29 0;
#X connect 56 0 38 0;
#X connect 57 0 45 0;
#X connect 57 1 48 0;
#X restore 22 91 pd feedback;
#X obj 217 507 bng 15 250 50 0 empty empty empty 17 7 0 10 -262144
-1 -1;
#N canvas 258 81 688 300 solarize 0;
#X obj 161 264 outlet;
#X obj 141 163 tgl 15 0 empty empty empty 17 7 0 10 -262144 -1 -1 0
1;
#X msg 145 185 inverse \$1;
#X msg 234 189 centerBrightness \$1;
#X msg 371 188 powerCurve \$1;
#X msg 517 187 colorize \$1;
#X obj 375 134 hsl 128 15 0 4 0 0 empty empty empty -2 -8 0 10 -262144
-1 -1 3175 1;
#X obj 223 134 hsl 128 15 0 1 0 0 empty empty empty -2 -8 0 10 -262144
-1 -1 3175 1;
#X obj 530 134 hsl 128 15 0 1 0 0 empty empty empty -2 -8 0 10 -262144
-1 -1 12700 1;
#X msg 372 111 1;
#X msg 215 106 0.5;
#X msg 473 270 mixprob 0;
#X msg 49 189 solar \$1;
#X obj 96 29 r;
#X obj 64 72 r \$0-control-solar;
#X obj 254 43 r shaderloaded_multitexture;
#X floatatom 255 161 5 0 0 0 - - -;
#X msg 250 108 0.25;
#X msg 527 97 1;
#X floatatom 391 167 5 0 0 0 - - -;
#X msg 139 137 0;
#X connect 1 0 2 0;
#X connect 2 0 0 0;
#X connect 3 0 0 0;
#X connect 4 0 0 0;
#X connect 5 0 0 0;
#X connect 6 0 4 0;
#X connect 6 0 19 0;
#X connect 7 0 3 0;
#X connect 7 0 16 0;
#X connect 8 0 5 0;
#X connect 9 0 6 0;
#X connect 10 0 7 0;
#X connect 11 0 0 0;
#X connect 12 0 0 0;
#X connect 14 0 12 0;
#X connect 15 0 17 0;
#X connect 15 0 20 0;
#X connect 15 0 9 0;
#X connect 15 0 18 0;
#X connect 17 0 7 0;
#X connect 18 0 8 0;
#X connect 20 0 1 0;
#X restore 391 380 pd solarize;
#N canvas 1 81 503 413 posterize 0;
#X obj 137 360 outlet;
#X msg 112 260 poster \$1;
#X msg 186 261 posterH \$1;
#X msg 259 260 posterS \$1;
#X msg 334 262 posterV \$1;
#X floatatom 392 209 5 0 0 0 - - -;
#X floatatom 171 141 5 0 256 0 - - -;
#X floatatom 262 229 5 0 256 0 - - -;
#X floatatom 369 160 5 0 256 0 - - -;
#X obj 250 128 r shaderloaded_multitexture;
#X msg 250 149 256;
#X msg 199 195 10;
#X msg 310 194 4;
#X obj 64 72 r \$0-control-poster;
#X connect 1 0 0 0;
#X connect 2 0 0 0;
#X connect 3 0 0 0;
#X connect 4 0 0 0;
#X connect 5 0 4 0;
#X connect 6 0 2 0;
#X connect 7 0 3 0;
#X connect 8 0 4 0;
#X connect 9 0 10 0;
#X connect 9 0 11 0;
#X connect 9 0 12 0;
#X connect 10 0 7 0;
#X connect 11 0 2 0;
#X connect 12 0 4 0;
#X connect 13 0 1 0;
#X restore 391 404 pd posterize;
#N canvas 1 81 450 300 showFPS 0;
#X obj 62 72 t b b, f 8;
#X obj 62 114 swap 1000;
#X obj 62 135 /, f 9;
#X obj 62 93 realtime;
#X obj 62 160 zexy/mavg 20;
#X obj 62 181 i;
#X obj 62 202 change;
#X obj 62 43 gemhead 50;
#X obj 62 223 outlet;
#X connect 0 0 3 0;
#X connect 0 1 3 1;
#X connect 1 0 2 0;
#X connect 1 1 2 1;
#X connect 2 0 4 0;
#X connect 3 0 1 0;
#X connect 4 0 5 0;
#X connect 5 0 6 0;
#X connect 6 0 8 0;
#X connect 7 0 0 0;
#X restore 508 120 pd showFPS;
#X obj 127 85 t a a, f 32;
#N canvas 545 110 508 409 BrightnessSaturationContrast 0;
#X obj 137 47 r \$0-control-lum;
#X obj 137 68 * 2;
#X obj 137 89 - 1;
#X obj 47 120 moses 0;
#X obj 47 141 f;
#X obj 86 139 * 1;
#X obj 86 161 * 1.5;
#X obj 153 272 outlet;
#X msg 137 189 brightness \$1;
#X obj 252 50 r \$0-control-contrast;
#X obj 394 48 r \$0-control-sat;
#X obj 394 76 pow 2;
#X obj 394 100 * 4;
#X msg 251 185 contrast \$1;
#X msg 378 184 saturation \$1;
#X obj 266 86 pow 2;
#X obj 251 112 * 12;
#X floatatom 266 139 5 0 0 0 - - -;
#X floatatom 103 205 5 0 0 0 - - -;
#X floatatom 18 219 5 0 0 0 - - -;
#X obj 137 110 * 2;
#X connect 0 0 1 0;
#X connect 1 0 2 0;
#X connect 2 0 20 0;
#X connect 3 0 4 0;
#X connect 3 1 5 0;
#X connect 4 0 8 0;
#X connect 5 0 6 0;
#X connect 6 0 8 0;
#X connect 6 0 18 0;
#X connect 8 0 7 0;
#X connect 9 0 15 0;
#X connect 10 0 11 0;
#X connect 11 0 12 0;
#X connect 12 0 14 0;
#X connect 13 0 7 0;
#X connect 14 0 7 0;
#X connect 15 0 16 0;
#X connect 16 0 13 0;
#X connect 16 0 17 0;
#X connect 19 0 8 0;
#X connect 20 0 8 0;
#X restore 399 458 pd BrightnessSaturationContrast;
#N canvas 529 382 844 542 Mask-ctl 0;
#X obj 174 403 outlet;
#X msg 133 163 showMask \$1;
#X obj 133 138 tgl 15 0 empty empty empty 17 7 0 10 -262144 -1 -1 0
1;
#X obj 285 115 hsl 128 15 0 1 0 0 empty empty empty -2 -8 0 10 -262144
-1 -1 0 1;
#X msg 282 135 showKinect \$1;
#X obj 328 170 r \$0-control-mask;
#X obj 330 197 hsl 128 15 0 1 0 0 empty empty empty -2 -8 0 10 -262144
-1 -1 12700 1;
#X msg 327 232 amountMask \$1;
#X obj 481 221 hsl 128 15 0 1 0 0 empty empty empty -2 -8 0 10 -262144
-1 -1 0 1;
#X msg 478 241 amountDelayMask \$1;
#X obj 350 283 hsl 128 15 0 1 0 0 empty empty empty -2 -8 0 10 -262144
-1 -1 0 1;
#X msg 347 306 delayMix \$1;
#X obj 133 113 r control-showMask;
#X connect 1 0 0 0;
#X connect 2 0 1 0;
#X connect 3 0 4 0;
#X connect 4 0 0 0;
#X connect 5 0 6 0;
#X connect 6 0 7 0;
#X connect 6 0 9 0;
#X connect 7 0 0 0;
#X connect 8 0 9 0;
#X connect 10 0 11 0;
#X connect 11 0 0 0;
#X connect 12 0 2 0;
#X restore 399 487 pd Mask-ctl;
#X msg 209 27 180;
#N canvas 328 201 896 788 Caméras-textures 0;
#X obj 142 43 gemhead 10;
#X obj 142 64 t a a a, f 36;
#X obj 336 333 pix_freenect 0 0 1;
#N canvas 59 535 844 360 properties 0;
#X obj 3 -6 cnv 15 140 220 empty empty empty 20 12 0 14 -204800 -66577
0;
#X msg 8 178 led \$1;
#X obj 8 59 vradio 15 1 0 6 empty empty empty 0 -8 0 10 -262144 -1
-1 0;
#X floatatom 8 155 5 0 0 0 - - -;
#X msg 85 178 angle \$1;
#X obj 85 23 vsl 15 128 -30 30 0 0 empty empty empty 0 -9 0 10 -262144
-1 -1 0 1;
#X floatatom 85 159 5 0 0 0 - - -;
#X msg 85 -2 0;
#X text 24 73 GREEN;
#X text 25 57 OFF;
#X text 24 89 RED;
#X text 24 104 YELLOW;
#X text 24 119 BLINK_GR;
#X text 24 133 BLINK_R_Y;
#X obj 158 -4 cnv 15 320 120 empty empty empty 20 12 0 14 -4034 -66577
0;
#X obj 169 33 vradio 15 1 0 2 empty empty empty 0 -8 0 10 -262144 -1
-1 1;
#X floatatom 169 68 5 0 0 0 - - -;
#X obj 234 34 vradio 15 1 0 2 empty empty empty 0 -8 0 10 -262144 -1
-1 1;
#X floatatom 234 69 5 0 0 0 - - -;
#X msg 169 89 rgb \$1;
#X msg 234 90 depth \$1;
#X text 161 -4 activate/deactivate streams;
#X text 163 10 save cpu power by just activating necessary streams!
;
#X obj 486 -3 cnv 15 315 120 empty empty empty 20 12 0 14 -232576 -66577
0;
#X obj 489 36 vradio 15 1 0 2 empty empty empty 0 -8 0 10 -262144 -1
-1 0;
#X floatatom 489 71 5 0 0 0 - - -;
#X msg 489 91 depth_output \$1;
#X text 636 59 b = 0 \, a = 0;
#X text 11 -48 properties for pix_freenect;
#X text 507 -26 DEPTH OUTPUT;
#X text 180 -25 STREAMS;
#X text 26 -25 LED \, ANGLE;
#X text 635 46 r->3 msbits \, g ->8 lsbits;
#X text 508 49 Raw YUV (2 bytes) |;
#X text 508 34 Raw RGBA -> 11 bit output in r&g channel;
#X obj 158 140 cnv 15 520 120 empty empty empty 20 12 0 14 -261682
-66577 0;
#X obj 170 163 vradio 15 1 0 3 empty empty empty 0 -8 0 10 -262144
-1 -1 1;
#X floatatom 170 212 5 0 0 0 - - -;
#X obj 358 174 vradio 15 1 0 2 empty empty empty 0 -8 0 10 -262144
-1 -1 0;
#X floatatom 358 209 5 0 0 0 - - -;
#X msg 170 233 depth_mode \$1;
#X text 191 191 11bit raw;
#X text 493 0 set depth output colorspace;
#X text 161 143 set output formats;
#X text 191 175 mm aligned to rgb (16 bit);
#X text 191 161 mm unaligned (16 bit);
#X msg 358 230 video_mode \$1;
#X text 378 172 RGB;
#X text 377 188 IR;
#X obj 8 204 s \$0-prop;
#X obj 169 114 s \$0-prop;
#X obj 489 117 s \$0-prop;
#X obj 170 262 s \$0-prop;
#X obj 474 168 vradio 15 1 0 3 empty empty empty 0 -8 0 10 -262144
-1 -1 1;
#X floatatom 474 216 5 0 0 0 - - -;
#X msg 474 235 resolution \$1;
#X text 494 182 MEDIUM (default);
#X text 471 145 RGB RESOLUTION;
#X text 494 197 HIGH (restart rgb stream!);
#X text 494 167 LOW (not displaying correctly);
#N canvas 1 81 450 300 notes 0;
#X text 22 24 HIGH Resolution IR works just if depth stream is shut
down!!;
#X restore 696 143 pd notes;
#X obj 304 56 loadbang;
#X msg 304 77 1;
#X connect 1 0 49 0;
#X connect 2 0 3 0;
#X connect 3 0 1 0;
#X connect 4 0 49 0;
#X connect 5 0 6 0;
#X connect 6 0 4 0;
#X connect 7 0 5 0;
#X connect 15 0 16 0;
#X connect 16 0 19 0;
#X connect 17 0 18 0;
#X connect 18 0 20 0;
#X connect 19 0 50 0;
#X connect 20 0 50 0;
#X connect 24 0 25 0;
#X connect 25 0 26 0;
#X connect 26 0 51 0;
#X connect 36 0 37 0;
#X connect 37 0 40 0;
#X connect 38 0 39 0;
#X connect 39 0 46 0;
#X connect 40 0 52 0;
#X connect 46 0 52 0;
#X connect 53 0 54 0;
#X connect 54 0 55 0;
#X connect 55 0 52 0;
#X connect 61 0 62 0;
#X connect 62 0 17 0;
#X connect 62 0 15 0;
#X connect 62 0 36 0;
#X restore 403 198 pd properties;
#X obj 401 217 r \$0-prop;
#X obj 388 360 t a a, f 12;
#X obj 575 133 alpha;
#N canvas 500 187 759 742 Mains 0;
#X obj 83 476 cnv 15 280 80 empty empty empty 20 12 0 14 -4034 -66577
0;
#X obj 383 586 pix_texture;
#X msg 159 497 epsilon \$1;
#X obj 383 606 rectangle 5.333 4;
#X msg 234 497 area \$1;
#X obj 92 525 pix_opencv_contours;
#N canvas 18 567 1126 291 options 0;
#X obj 57 147 tgl 15 1 empty empty empty 17 7 0 10 -262144 -1 -1 0
1;
#X msg 57 167 contours \$1;
#X obj 57 251 outlet;
#X obj 147 147 tgl 15 1 empty empty empty 17 7 0 10 -262144 -1 -1 0
1;
#X obj 247 147 tgl 15 1 empty empty empty 17 7 0 10 -262144 -1 -1 0
1;
#X msg 147 167 convexhulls \$1;
#X msg 247 167 convexitydefects \$1;
#X text 25 37 set hierarchy level (which contour to send out);
#X obj 24 83 nbx 5 14 -2 1e+37 0 1 empty empty empty 0 -8 0 10 -262144
-1 -1 0 256;
#X msg 24 100 hierarchy_level \$1;
#X text 71 125 send out different kind of infos (all on by default)
:;
#X text 25 47 -1 for all contours (default);
#X msg 559 168 settab drawX drawY drawZ;
#X obj 558 200 tgl 15 0 empty empty empty 17 7 0 10 -262144 -1 -1 0
1;
#X msg 558 229 taboutput \$1;
#X text 550 71 first set some tables (they are dynamically resized)
;
#X text 550 151 tell it what tables to use;
#X text 569 256 see [pd draw_contour_gemvertexbuffer] for an example
of drawing contours;
#N canvas 682 180 596 318 draw_contour_gemvertexbuffer 0;
#X obj 175 193 loadbang;
#X obj 135 85 translateXYZ -0.5 -0.5 0;
#X obj 135 62 scaleXYZ 10.6666 -8 1;
#X obj 135 107 t a b;
#X obj 135 11 gemhead 1000;
#X msg 161 150 posX drawX \, posY drawY \, colorG drawZ \, colorA drawZ
;
#X obj 135 265 gemvertexbuffer;
#X obj 161 128 inlet;
#X obj 269 194 r point_number;
#X msg 269 221 resize \$1;
#X floatatom 342 226 5 0 0 0 - - -;
#X obj 135 -12 r draw_contours;
#X msg 175 214 draw lineloop;
#X obj 135 35 alpha;
#X connect 0 0 12 0;
#X connect 1 0 3 0;
#X connect 2 0 1 0;
#X connect 3 0 6 0;
#X connect 3 1 5 0;
#X connect 4 0 13 0;
#X connect 5 0 6 0;
#X connect 7 0 5 0;
#X connect 8 0 9 0;
#X connect 8 0 10 0;
#X connect 9 0 6 0;
#X connect 11 0 4 0;
#X connect 12 0 6 0;
#X connect 13 0 2 0;
#X restore 797 147 pd draw_contour_gemvertexbuffer;
#X obj 797 126 bng 15 250 50 0 empty empty empty 17 7 0 10 -262144
-1 -1;
#X text 813 127 draw with gemvertexbuffer;
#X msg 383 167 cvblobOutput \$1;
#X obj 383 148 tgl 15 0 empty empty empty 17 7 0 10 -262144 -1 -1 1
1;
#X text 25 57 -2 for only contours with no child (aka holes);
#X text 543 5 to improve performance and avoid "stack overflow" (because
contours could have a huge number of points) you can use table output
instead of list output;
#X text 582 200 enable/disable table output (automatically enable when
you set tables);
#X obj 373 188 s draw_cvblob;
#X obj 47 187 s draw_contours;
#X obj 564 89 table drawX 10000;
#X obj 564 109 table drawY 10000;
#X obj 564 129 table drawZ 10000;
#X obj 445 76 loadbang;
#X msg 445 97 1;
#X obj 368 76 tgl 15 0 empty showDebug showDebug 17 7 0 10 -262144
-1 -1 0 1;
#X connect 0 0 1 0;
#X connect 0 0 27 0;
#X connect 1 0 2 0;
#X connect 3 0 5 0;
#X connect 4 0 6 0;
#X connect 5 0 2 0;
#X connect 6 0 2 0;
#X connect 8 0 9 0;
#X connect 9 0 2 0;
#X connect 12 0 2 0;
#X connect 13 0 14 0;
#X connect 14 0 2 0;
#X connect 19 0 18 0;
#X connect 21 0 2 0;
#X connect 22 0 21 0;
#X connect 22 0 26 0;
#X connect 31 0 32 0;
#X connect 32 0 22 0;
#X restore 291 496 pd options;
#N canvas 927 151 981 904 draw_contours 0;
#X obj 43 253 list split 2;
#X obj 111 820 GEMglVertex2d;
#X obj 13 661 list append;
#X obj 42 635 t b a;
#X obj 42 614 list split 2;
#X obj 142 746 unpack;
#X obj 111 679 t b a;
#X obj 102 500 color 1 0 0 1;
#X obj 206 773 * -8;
#X obj 206 793 + 4;
#X obj 102 528 GEMglLineWidth 2;
#X obj 142 773 * 10.6666;
#X obj 142 793 - 5.33333;
#X obj 111 701 gemlist;
#X obj 23 414 gemhead;
#X obj 23 349 loadbang;
#X msg 23 374 0;
#X obj 26 62 inlet CONTOUR;
#X obj 26 106 route convexhull contour convexitydefects;
#X msg 53 171 0 0 1 1;
#X msg 134 192 0 1 0 1;
#X obj 249 155 list split 2;
#X obj 271 250 list append;
#X obj 300 230 t b a;
#X obj 188 131 t a b;
#X obj 300 209 list split 7;
#X obj 327 270 list split 4;
#X obj 107 151 t a b;
#X obj 26 150 t a b;
#X obj 215 239 t a;
#X obj 486 531 gemhead;
#X obj 486 605 scaleXYZ 10.6666 -8 0;
#X obj 467 429 t b b a;
#X obj 486 565 color 1 0 0 1;
#X obj 486 585 translateXYZ -5.3333 4 0;
#X obj 486 705 translateXYZ 10.6666 -8 0;
#X obj 486 786 circle 0.01;
#X msg 499 760 draw line;
#X obj 499 736 loadbang;
#X obj 693 605 t a;
#X msg 535 681 \$1;
#X msg 584 681 \$2;
#X obj 425 473 loadbang;
#X msg 425 495 0;
#X msg 215 188 1 0 1 1;
#X obj 23 446 t a b a;
#X obj 42 485 list;
#X obj 77 369 t b a;
#X obj 23 567 GEMglEnd;
#X obj 102 552 GEMglBegin GL_LINE_LOOP;
#X connect 0 1 47 0;
#X connect 2 0 4 0;
#X connect 3 0 2 0;
#X connect 3 1 6 0;
#X connect 4 0 3 0;
#X connect 4 1 2 1;
#X connect 5 0 11 0;
#X connect 5 1 8 0;
#X connect 6 0 13 0;
#X connect 6 1 5 0;
#X connect 7 0 10 0;
#X connect 8 0 9 0;
#X connect 9 0 1 2;
#X connect 10 0 49 0;
#X connect 11 0 12 0;
#X connect 12 0 1 1;
#X connect 13 0 1 0;
#X connect 14 0 45 0;
#X connect 15 0 16 0;
#X connect 16 0 14 0;
#X connect 17 0 18 0;
#X connect 18 0 28 0;
#X connect 18 1 27 0;
#X connect 18 2 24 0;
#X connect 19 0 29 0;
#X connect 20 0 29 0;
#X connect 21 1 25 0;
#X connect 22 0 25 0;
#X connect 23 0 22 0;
#X connect 23 1 26 0;
#X connect 24 0 21 0;
#X connect 24 1 44 0;
#X connect 25 0 23 0;
#X connect 25 1 22 1;
#X connect 26 0 47 0;
#X connect 26 1 32 0;
#X connect 27 0 0 0;
#X connect 27 1 20 0;
#X connect 28 0 0 0;
#X connect 28 1 19 0;
#X connect 29 0 7 1;
#X connect 30 0 33 0;
#X connect 31 0 35 0;
#X connect 32 1 30 0;
#X connect 32 2 39 0;
#X connect 33 0 34 0;
#X connect 34 0 31 0;
#X connect 35 0 36 0;
#X connect 37 0 36 0;
#X connect 38 0 37 0;
#X connect 39 0 41 0;
#X connect 39 0 40 0;
#X connect 40 0 35 1;
#X connect 41 0 35 2;
#X connect 42 0 43 0;
#X connect 43 0 30 0;
#X connect 44 0 29 0;
#X connect 45 0 48 0;
#X connect 45 1 46 0;
#X connect 45 2 7 0;
#X connect 46 0 4 0;
#X connect 47 0 14 0;
#X connect 47 1 46 1;
#X restore 159 690 pd draw_contours;
#N canvas 81 98 1198 901 info 0;
#X obj -67 115 cnv 15 250 40 empty empty empty 20 12 0 14 -4034 -66577
0;
#X obj -68 292 cnv 15 350 20 empty empty empty 20 12 0 14 -4034 -66577
0;
#X obj 14 332 cnv 15 300 20 empty empty empty 20 12 0 14 -4034 -66577
0;
#X obj 282 -59 cnv 15 100 40 empty empty empty 20 12 0 14 -4034 -66577
0;
#X obj 51 497 cnv 15 330 50 empty empty empty 20 12 0 14 -4034 -66577
0;
#X obj 225 16 inlet;
#X obj 216 87 list split 2;
#X obj 259 137 list split 20;
#X text 309 70 cut matrix header;
#X text 346 98 cut infos for the 1st contour;
#X text -55 294 rotated rectangle center point (normalized);
#X obj 211 224 list split 2;
#X obj 245 314 unpack;
#X floatatom 245 334 5 0 0 0 - - -;
#X floatatom 278 334 5 0 0 0 - - -;
#X obj 245 244 list split 2;
#X text 29 334 rotated rectangle size (normalized);
#X obj 313 384 list split 8;
#X floatatom 304 -37 5 0 0 0 - - -;
#X obj 304 -18 * 20;
#X obj 304 4 + 2;
#X text 284 -55 selected contour;
#X obj 116 96 unpack;
#X floatatom 116 117 5 0 0 0 - - -;
#X floatatom 149 138 5 0 0 0 - - -;
#X text -52 114 number of detected contours;
#X text -61 137 numbers of values for each contour;
#X obj 313 404 list prepend set;
#X obj 313 424 list trim;
#X msg 54 513 0.282323 0.986657 0.267342 0.7949 0.419854 0.773718 0.434835
0.965474;
#X text 59 495 rotrect corners coordinates;
#X obj 177 194 list split 1;
#X obj -140 220 cnv 15 350 20 empty empty empty 20 12 0 14 -4034 -66577
0;
#X floatatom 177 223 5 0 0 0 - - -;
#X text 24 223 id in the detection order;
#X obj 26 405 cnv 15 250 20 empty empty empty 20 12 0 14 -4034 -66577
0;
#X text 30 408 rotated rectangle angle (degrees);
#X obj 279 364 list split 2;
#X obj 211 274 unpack;
#X floatatom 211 294 5 0 0 0 - - -;
#X floatatom 244 294 5 0 0 0 - - -;
#X obj 240 387 unpack;
#X floatatom 240 407 5 0 0 0 - - -;
#X obj 26 435 cnv 15 250 20 empty empty empty 20 12 0 14 -4034 -66577
0;
#X floatatom 240 437 5 0 0 0 - - -;
#X text 30 438 area in % of image area;
#X obj 199 570 cnv 15 250 80 empty empty empty 20 12 0 14 -4034 -66577
0;
#X floatatom 347 595 5 0 0 0 - - -;
#X floatatom 381 615 5 0 0 0 - - -;
#X text 203 614 length of contour (in pixels);
#X text 247 595 number of points;
#X obj 347 575 unpack f f;
#X obj 225 38 route cvblob count;
#X obj 670 -9 unpack f f;
#X floatatom 670 13 5 0 0 0 - - -;
#X floatatom 727 14 5 0 0 0 - - -;
#X obj 728 134 s point_number;
#X text 657 28 contours;
#X text 731 29 points;
#X text 624 44 total counts of contours and points;
#X text 9 -35 activate cvblob output before trying this !;
#X obj 728 81 + 3;
#X obj 347 444 list split 2;
#X obj 452 584 cnv 15 100 60 empty empty empty 20 12 0 14 -4034 -66577
0;
#X floatatom 462 609 5 0 0 0 - - -;
#X floatatom 519 609 5 0 0 0 - - -;
#X obj 462 589 unpack f f;
#X text 472 627 centroid;
#X text 452 608 x;
#X text 509 608 y;
#X obj 476 134 list split 2;
#X obj 582 205 list split 19;
#X obj 794 214 list split 19;
#X obj 699 334 list split 2;
#X obj 709 560 unpack f f;
#X text 692 476 centroid;
#X obj 581 245 list split 17, f 31;
#X obj 672 375 t a a, f 12;
#X obj 741 395 unpack f;
#X obj 741 416 < 0.5;
#X obj 672 437 list prepend;
#X obj 581 267 list split 6;
#X obj 615 292 list split 1;
#X obj 672 355 list, f 5;
#X obj 672 334 b;
#X obj 912 331 list split 2;
#X obj 794 242 list split 17, f 31;
#X obj 885 372 t a a, f 12;
#X obj 954 392 unpack f;
#X obj 954 413 < 0.5;
#X obj 885 434 list prepend;
#X obj 794 264 list split 6;
#X obj 828 289 list split 1;
#X obj 885 352 list, f 5;
#X obj 885 331 b;
#X obj 709 534 route 0 1, f 41;
#X floatatom 990 528 5 0 0 0 - - -;
#X floatatom 1047 528 5 0 0 0 - - -;
#X obj 990 508 unpack f f;
#X text 1000 546 centroid;
#X text 1037 527 y;
#X obj 615 313 moses 0.02;
#X obj 828 310 moses 0.02;
#X obj 885 455 s Mains-pre;
#X obj 672 458 s Mains-pre;
#X obj 709 513 r Mains-pre;
#X obj 709 605 clip 0 1;
#X obj 766 638 clip 0 1;
#X obj 766 617 maxlib/scale 0.8 0.2 0 1;
#X obj 709 663 pack f f, f 10;
#X obj 709 684 s MainGauche;
#X obj 923 561 unpack f f;
#X obj 923 606 clip 0 1;
#X obj 980 639 clip 0 1;
#X obj 980 618 maxlib/scale 0.8 0.2 0 1;
#X obj 923 664 pack f f, f 10;
#X obj 923 685 s MainDroite;
#X obj 709 584 maxlib/scale 0.55 0.85 0 1;
#X obj 714 284 r Mains-minarea;
#N canvas 1 270 324 384 detectMain 0;
#X obj 141 188 list split 2;
#X text 134 330 centroid;
#X obj 23 99 list split 17, f 31;
#X obj 114 229 t a a, f 12;
#X obj 183 249 unpack f;
#X obj 183 270 < 0.5;
#X obj 114 291 list prepend;
#X obj 23 121 list split 6;
#X obj 57 146 list split 1;
#X obj 114 209 list, f 5;
#X obj 114 188 b;
#X obj 57 167 moses 0.02;
#X obj 114 312 s Mains-pre;
#X obj 153 147 r Mains-minarea;
#X obj 23 27 inlet;
#X obj 23 51 list split 19, f 31;
#X obj 114 75 outlet;
#X connect 0 0 9 1;
#X connect 2 0 7 0;
#X connect 2 1 0 0;
#X connect 3 0 6 0;
#X connect 3 1 4 0;
#X connect 4 0 5 0;
#X connect 5 0 6 1;
#X connect 6 0 12 0;
#X connect 7 1 8 0;
#X connect 8 0 11 0;
#X connect 9 0 3 0;
#X connect 10 0 9 0;
#X connect 11 1 10 0;
#X connect 13 0 11 1;
#X connect 14 0 15 0;
#X connect 15 0 2 0;
#X connect 15 1 16 0;
#X restore 510 156 pd detectMain;
#N canvas 1 162 324 384 detectMain 0;
#X obj 141 188 list split 2;
#X text 134 330 centroid;
#X obj 23 99 list split 17, f 31;
#X obj 114 229 t a a, f 12;
#X obj 183 249 unpack f;
#X obj 183 270 < 0.5;
#X obj 114 291 list prepend;
#X obj 23 121 list split 6;
#X obj 57 146 list split 1;
#X obj 114 209 list, f 5;
#X obj 114 188 b;
#X obj 57 167 moses 0.02;
#X obj 114 312 s Mains-pre;
#X obj 153 147 r Mains-minarea;
#X obj 23 27 inlet;
#X obj 23 51 list split 19, f 31;
#X obj 114 75 outlet;
#X connect 0 0 9 1;
#X connect 2 0 7 0;
#X connect 2 1 0 0;
#X connect 3 0 6 0;
#X connect 3 1 4 0;
#X connect 4 0 5 0;
#X connect 5 0 6 1;
#X connect 6 0 12 0;
#X connect 7 1 8 0;
#X connect 8 0 11 0;
#X connect 9 0 3 0;
#X connect 10 0 9 0;
#X connect 11 1 10 0;
#X connect 13 0 11 1;
#X connect 14 0 15 0;
#X connect 15 0 2 0;
#X connect 15 1 16 0;
#X restore 510 176 pd detectMain;
#N canvas 1 162 324 384 detectMain 0;
#X obj 141 188 list split 2;
#X text 134 330 centroid;
#X obj 23 99 list split 17, f 31;
#X obj 114 229 t a a, f 12;
#X obj 183 249 unpack f;
#X obj 183 270 < 0.5;
#X obj 114 291 list prepend;
#X obj 23 121 list split 6;
#X obj 57 146 list split 1;
#X obj 114 209 list, f 5;
#X obj 114 188 b;
#X obj 57 167 moses 0.02;
#X obj 114 312 s Mains-pre;
#X obj 153 147 r Mains-minarea;
#X obj 23 27 inlet;
#X obj 23 51 list split 19, f 31;
#X obj 114 75 outlet;
#X connect 0 0 9 1;
#X connect 2 0 7 0;
#X connect 2 1 0 0;
#X connect 3 0 6 0;
#X connect 3 1 4 0;
#X connect 4 0 5 0;
#X connect 5 0 6 1;
#X connect 6 0 12 0;
#X connect 7 1 8 0;
#X connect 8 0 11 0;
#X connect 9 0 3 0;
#X connect 10 0 9 0;
#X connect 11 1 10 0;
#X connect 13 0 11 1;
#X connect 14 0 15 0;
#X connect 15 0 2 0;
#X connect 15 1 16 0;
#X restore 495 198 pd detectMain;
#N canvas 1 216 324 384 detectMain 0;
#X obj 141 188 list split 2;
#X text 134 330 centroid;
#X obj 23 99 list split 17, f 31;
#X obj 114 229 t a a, f 12;
#X obj 183 249 unpack f;
#X obj 183 270 < 0.5;
#X obj 114 291 list prepend;
#X obj 23 121 list split 6;
#X obj 57 146 list split 1;
#X obj 114 209 list, f 5;
#X obj 114 188 b;
#X obj 57 167 moses 0.02;
#X obj 114 312 s Mains-pre;
#X obj 153 147 r Mains-minarea;
#X obj 23 27 inlet;
#X obj 23 51 list split 19, f 31;
#X obj 114 75 outlet;
#X connect 0 0 9 1;
#X connect 2 0 7 0;
#X connect 2 1 0 0;
#X connect 3 0 6 0;
#X connect 3 1 4 0;
#X connect 4 0 5 0;
#X connect 5 0 6 1;
#X connect 6 0 12 0;
#X connect 7 1 8 0;
#X connect 8 0 11 0;
#X connect 9 0 3 0;
#X connect 10 0 9 0;
#X connect 11 1 10 0;
#X connect 13 0 11 1;
#X connect 14 0 15 0;
#X connect 15 0 2 0;
#X connect 15 1 16 0;
#X restore 495 218 pd detectMain;
#X floatatom 877 677 5 0 0 0 - - -;
#X floatatom 1007 670 5 0 0 0 - - -;
#X floatatom 790 673 5 0 0 0 - - -;
#X floatatom 658 676 5 0 0 0 - - -;
#X obj 923 585 maxlib/scale 0.45 0.1 0 1;
#X obj 721 738 hsl 128 15 0 127 0 0 empty empty empty -2 -8 0 10 -262144
-1 -1 0 1;
#X obj 413 179 detectMain;
#X obj 414 203 detectMain;
#X obj 415 225 detectMain;
#X obj 416 249 detectMain;
#X connect 5 0 52 0;
#X connect 6 0 22 0;
#X connect 6 1 7 0;
#X connect 7 0 31 0;
#X connect 11 0 38 0;
#X connect 11 1 15 0;
#X connect 12 0 13 0;
#X connect 12 1 14 0;
#X connect 15 0 12 0;
#X connect 15 1 37 0;
#X connect 17 0 27 0;
#X connect 17 1 62 0;
#X connect 18 0 19 0;
#X connect 19 0 20 0;
#X connect 20 0 6 1;
#X connect 22 0 23 0;
#X connect 22 1 24 0;
#X connect 22 1 19 1;
#X connect 22 1 7 1;
#X connect 27 0 28 0;
#X connect 28 0 29 0;
#X connect 31 0 33 0;
#X connect 31 1 11 0;
#X connect 37 0 41 0;
#X connect 37 1 17 0;
#X connect 38 0 39 0;
#X connect 38 1 40 0;
#X connect 41 0 42 0;
#X connect 41 1 44 0;
#X connect 51 0 47 0;
#X connect 51 1 48 0;
#X connect 52 0 70 0;
#X connect 52 1 53 0;
#X connect 53 0 54 0;
#X connect 53 1 55 0;
#X connect 55 0 61 0;
#X connect 61 0 56 0;
#X connect 62 0 51 0;
#X connect 62 1 66 0;
#X connect 66 0 64 0;
#X connect 66 1 65 0;
#X connect 70 1 129 0;
#X connect 71 0 76 0;
#X connect 71 1 72 0;
#X connect 72 0 86 0;
#X connect 73 0 83 1;
#X connect 74 0 117 0;
#X connect 74 1 108 0;
#X connect 76 0 81 0;
#X connect 76 1 73 0;
#X connect 77 0 80 0;
#X connect 77 1 78 0;
#X connect 78 0 79 0;
#X connect 79 0 80 1;
#X connect 80 0 104 0;
#X connect 81 1 82 0;
#X connect 82 0 101 0;
#X connect 83 0 77 0;
#X connect 84 0 83 0;
#X connect 85 0 93 1;
#X connect 86 0 91 0;
#X connect 86 1 85 0;
#X connect 87 0 90 0;
#X connect 87 1 88 0;
#X connect 88 0 89 0;
#X connect 89 0 90 1;
#X connect 90 0 103 0;
#X connect 91 1 92 0;
#X connect 92 0 102 0;
#X connect 93 0 87 0;
#X connect 94 0 93 0;
#X connect 95 0 74 0;
#X connect 95 1 98 0;
#X connect 95 1 111 0;
#X connect 98 0 96 0;
#X connect 98 1 97 0;
#X connect 101 1 84 0;
#X connect 102 1 94 0;
#X connect 105 0 95 0;
#X connect 106 0 109 0;
#X connect 107 0 109 1;
#X connect 107 0 125 0;
#X connect 108 0 107 0;
#X connect 109 0 110 0;
#X connect 111 0 127 0;
#X connect 111 1 114 0;
#X connect 112 0 115 0;
#X connect 112 0 123 0;
#X connect 113 0 115 1;
#X connect 113 0 124 0;
#X connect 114 0 113 0;
#X connect 115 0 116 0;
#X connect 117 0 106 0;
#X connect 118 0 101 1;
#X connect 118 0 102 1;
#X connect 119 0 120 0;
#X connect 120 0 121 0;
#X connect 121 0 122 0;
#X connect 127 0 112 0;
#X connect 129 0 130 0;
#X connect 130 0 131 0;
#X connect 131 0 132 0;
#X restore 251 575 pd info;
#N canvas 230 125 955 706 cvblob 0;
#X obj 328 216 list append;
#X obj 323 148 list split 2;
#X obj 357 190 t b a;
#X obj 357 169 list split 6;
#X msg 426 144 \$2;
#X obj 323 114 t a a;
#X obj 323 71 inlet cvblob;
#X obj 323 93 route cvblob;
#N canvas 65 87 922 824 drawrotrec 0;
#X obj 341 569 GEMglVertex2d;
#X obj 341 619 GEMglVertex2d;
#X obj 341 689 GEMglVertex2d;
#X obj 341 729 GEMglVertex2d;
#X obj 341 749 GEMglEnd;
#X obj 341 340 alpha;
#X obj 341 483 GEMglBegin GL_LINE_LOOP;
#X obj 447 261 list split 8;
#X msg 562 391 0 0 0 0 0 0 0 0;
#X obj 341 319 gemhead;
#X obj 285 210 loadbang;
#X msg 285 231 0;
#X obj 341 117 t b a b;
#X obj 481 537 list split 2;
#X obj 447 511 list split 2;
#X obj 407 535 unpack;
#X obj 481 558 unpack;
#X obj 515 587 list split 2;
#X obj 515 608 unpack;
#X obj 549 637 list split 2;
#X obj 549 658 unpack;
#X obj 562 184 t b;
#X floatatom 612 526 5 0 0 0 - - -;
#X obj 612 505 list length;
#X obj 341 463 GEMglLineWidth 1;
#X obj 341 390 translateXYZ -5.3333 4 0;
#X obj 341 424 scaleXYZ 10.6666 -8 0;
#X obj 341 365 color 1 1 0 1;
#X obj 413 234 list split 7;
#X obj 341 91 inlet;
#X connect 0 0 1 0;
#X connect 1 0 2 0;
#X connect 2 0 3 0;
#X connect 3 0 4 0;
#X connect 5 0 27 0;
#X connect 6 0 0 0;
#X connect 7 0 14 0;
#X connect 8 0 14 0;
#X connect 9 0 5 0;
#X connect 10 0 11 0;
#X connect 11 0 9 0;
#X connect 12 0 9 0;
#X connect 12 1 28 0;
#X connect 12 2 21 0;
#X connect 13 0 16 0;
#X connect 13 1 17 0;
#X connect 14 0 15 0;
#X connect 14 1 13 0;
#X connect 15 0 0 1;
#X connect 15 1 0 2;
#X connect 16 0 1 1;
#X connect 16 1 1 2;
#X connect 17 0 18 0;
#X connect 17 1 19 0;
#X connect 18 0 2 1;
#X connect 18 1 2 2;
#X connect 19 0 20 0;
#X connect 20 0 3 1;
#X connect 20 1 3 2;
#X connect 21 0 8 0;
#X connect 23 0 22 0;
#X connect 24 0 6 0;
#X connect 25 0 26 0;
#X connect 26 0 24 0;
#X connect 27 0 25 0;
#X connect 28 1 7 0;
#X connect 29 0 12 0;
#X restore 474 353 pd drawrotrec;
#X text 452 145 <- size of each blob data;
#X floatatom 437 171 5 0 0 0 - - -;
#X text 405 193 split blobs;
#N canvas 66 82 450 542 draw_potatoe 0;
#X obj 90 108 t b a;
#X obj 90 318 translateXYZ;
#X msg 231 161 \$2;
#X obj 90 168 alpha 1;
#X obj 90 278 translateXYZ -0.5 -0.5 0;
#X obj 90 342 scaleXYZ 0.125 0.25 0;
#X msg 270 161 \$3;
#X msg 245 255 \$4;
#X obj 274 140 t a a;
#X obj 90 388 circle 0.5;
#X obj 90 238 color 1 0 0 0.2;
#X obj 90 148 separator;
#X msg 310 311 \$1;
#X obj 90 428 color 1 1 0 1;
#X obj 177 434 loadbang;
#X msg 177 453 12;
#X msg 332 189 \$6;
#X obj 332 211 > 0;
#X obj 332 232 sel 1 0;
#X msg 331 253 1 0 0 0.2;
#X msg 351 273 0 1 0 0.2;
#X obj 90 408 translateXYZ 0.2 0.2 0;
#X obj 90 258 scaleXYZ 10.666 -8 0;
#X obj 90 489 text2d;
#X obj 245 277 sqrt;
#X obj 245 299 / 2;
#X obj 90 128 gemhead;
#X obj 57 65 loadbang;
#X msg 57 87 0;
#X obj 90 88 inlet;
#X connect 0 0 26 0;
#X connect 0 1 8 0;
#X connect 1 0 5 0;
#X connect 2 0 1 1;
#X connect 3 0 10 0;
#X connect 4 0 1 0;
#X connect 5 0 9 0;
#X connect 6 0 1 2;
#X connect 7 0 24 0;
#X connect 8 0 6 0;
#X connect 8 0 2 0;
#X connect 8 1 7 0;
#X connect 8 1 12 0;
#X connect 8 1 16 0;
#X connect 9 0 21 0;
#X connect 10 0 22 0;
#X connect 11 0 3 0;
#X connect 12 0 23 0;
#X connect 14 0 15 0;
#X connect 15 0 23 1;
#X connect 16 0 17 0;
#X connect 17 0 18 0;
#X connect 18 0 19 0;
#X connect 18 1 20 0;
#X connect 19 0 10 1;
#X connect 20 0 10 1;
#X connect 21 0 13 0;
#X connect 22 0 4 0;
#X connect 24 0 25 0;
#X connect 25 0 5 1;
#X connect 25 0 5 2;
#X connect 26 0 11 0;
#X connect 27 0 28 0;
#X connect 28 0 26 0;
#X connect 29 0 0 0;
#X restore 362 355 pd draw_potatoe;
#X connect 0 0 3 0;
#X connect 1 1 3 0;
#X connect 2 0 0 0;
#X connect 2 1 8 0;
#X connect 2 1 12 0;
#X connect 3 0 2 0;
#X connect 3 1 0 1;
#X connect 4 0 3 1;
#X connect 4 0 10 0;
#X connect 5 0 1 0;
#X connect 5 1 4 0;
#X connect 6 0 7 0;
#X connect 7 0 5 0;
#X restore 169 628 pd cvblob;
#X obj 159 479 nbx 5 14 0 1e+37 0 1 empty empty empty 0 -8 0 10 -262144
-1 -1 10 256;
#X obj 234 479 nbx 5 14 0 1e+37 0 1 empty empty empty 0 -8 0 10 -262144
-1 -1 165 256;
#X obj 92 484 pix_gray;
#X floatatom 209 308 5 0 0 0 - - -;
#X obj 235 222 tgl 15 0 empty empty empty 17 7 0 10 -262144 -1 -1 0
1;
#X msg 193 266 shape 2;
#X msg 183 246 shape 1;
#X msg 203 285 shape 3;
#X msg 177 222 mode \$1;
#X obj 92 337 pix_opencv_morphology;
#X floatatom 215 160 5 0 0 0 - - -;
#X obj 182 56 nbx 5 14 -1e+37 1e+37 0 1 empty empty hi_thresh 0 -8
0 10 -262144 -1 -1 1733.75 256;
#X obj 246 54 nbx 5 14 -1e+37 1e+37 0 1 empty empty lo_thresh 0 -8
0 10 -262144 -1 -1 505 256;
#X obj 259 292 loadbang;
#X obj 92 189 pix_opencv_threshold 0 100;
#X obj 92 386 scaleXYZ 0.2 0.2 0.2;
#X obj 518 562 separator;
#X obj 518 606 rectangle 5.333 4;
#X obj 92 411 alpha;
#X obj 518 583 colorRGB 1 0 0 1;
#X obj 383 564 colorRGB 1 1 1 0.75;
#X obj 92 60 separator;
#X obj 270 164 nbx 5 14 0 1e+37 0 1 empty empty empty 0 -8 0 10 -262144
-1 -1 85 256;
#X obj 92 27 inlet;
#X obj 171 1 loadbang;
#X msg 171 22 gray 1;
#X obj 389 129 pix_resize 64 64;
#X msg 259 314 10;
#X obj 92 138 pix_gray;
#X obj 366 104 tgl 15 0 empty empty empty 17 7 0 10 -262144 -1 -1 0
1;
#X obj 39 169 tgl 15 0 empty empty empty 17 7 0 10 -262144 -1 -1 0
1;
#X obj 92 111 pix_depth2rgba 900 500;
#X obj 92 365 translateXYZ -3.5 3 0;
#X obj 92 435 t a a, f 49;
#X obj 383 512 spigot;
#X obj 439 511 tgl 15 0 empty showDebug showDebug 17 7 0 10 -262144
-1 -1 0 1;
#X obj 383 540 t a a, f 23;
#X obj 169 607 spigot;
#X obj 225 606 tgl 15 0 empty showDebug showDebug 17 7 0 10 -262144
-1 -1 0 1;
#X connect 1 0 3 0;
#X connect 2 0 5 0;
#X connect 4 0 5 0;
#X connect 5 2 47 0;
#X connect 5 2 8 0;
#X connect 6 0 5 0;
#X connect 10 0 2 0;
#X connect 11 0 4 0;
#X connect 12 0 5 0;
#X connect 13 0 19 1;
#X connect 14 0 18 0;
#X connect 15 0 19 0;
#X connect 16 0 19 0;
#X connect 17 0 19 0;
#X connect 18 0 19 0;
#X connect 19 0 42 0;
#X connect 20 0 24 1;
#X connect 21 0 41 2;
#X connect 22 0 41 3;
#X connect 23 0 37 0;
#X connect 24 0 19 0;
#X connect 25 0 28 0;
#X connect 26 0 29 0;
#X connect 28 0 43 0;
#X connect 29 0 27 0;
#X connect 30 0 1 0;
#X connect 31 0 41 0;
#X connect 32 0 24 2;
#X connect 33 0 31 0;
#X connect 34 0 35 0;
#X connect 35 0 41 0;
#X connect 37 0 13 0;
#X connect 38 0 24 0;
#X connect 39 0 36 0;
#X connect 40 0 24 0;
#X connect 41 0 38 0;
#X connect 42 0 25 0;
#X connect 43 0 12 0;
#X connect 43 1 44 0;
#X connect 44 0 46 0;
#X connect 45 0 44 1;
#X connect 46 0 30 0;
#X connect 46 1 26 0;
#X connect 47 0 9 0;
#X connect 48 0 47 1;
#X restore 388 382 pd Mains;
#N canvas 370 139 667 771 Mask 0;
#X obj 206 71 loadbang;
#X msg 206 92 gray 1;
#X obj 234 133 nbx 5 14 -1e+37 1e+37 0 0 empty empty hi_thresh 0 -8
0 10 -262144 -1 -1 0 256;
#X obj 298 131 nbx 5 14 -1e+37 1e+37 0 0 empty empty lo_thresh 0 -8
0 10 -262144 -1 -1 0 256;
#X obj 69 93 separator;
#X obj 69 118 pix_separator;
#X obj 293 242 loadbang;
#X floatatom 294 293 5 0 20 0 - - -;
#X obj 70 302 tgl 15 0 empty empty empty 17 7 0 10 -262144 -1 -1 0
1;
#X obj 106 378 pix_blur;
#X obj 130 353 nbx 5 14 0 1e+37 0 1 empty empty empty 0 -8 0 10 -262144
-1 -1 0.74 256;
#X obj 42 18 inlet;
#X obj 79 383 tgl 15 0 empty empty empty 17 7 0 10 -262144 -1 -1 0
1;
#X msg 373 294 mode \$1;
#X obj 373 271 tgl 15 0 empty empty empty 17 7 0 10 -262144 -1 -1 1
1;
#X obj 373 227 loadbang;
#X obj 83 206 tgl 15 0 empty empty empty 17 7 0 10 -262144 -1 -1 0
1;
#X obj 65 159 tgl 15 0 empty empty empty 17 7 0 10 -262144 -1 -1 0
1;
#N canvas 493 81 450 300 convolve 0;
#X obj 144 144 cnv 15 100 40 empty empty empty 20 12 0 14 -233017 -66577
0;
#X floatatom 160 143 3 -1 2 0 - - -;
#X floatatom 183 143 3 -1 2 0 - - -;
#X floatatom 206 143 3 -1 2 0 - - -;
#X floatatom 160 157 3 -1 2 0 - - -;
#X floatatom 183 157 3 -1 2 0 - - -;
#X floatatom 206 157 3 -1 2 0 - - -;
#X floatatom 160 171 3 -1 2 0 - - -;
#X floatatom 183 171 3 -1 2 0 - - -;
#X floatatom 206 171 3 -1 2 0 - - -;
#N canvas 1 81 450 469 pack 0;
#X obj 69 169 pack 0 0 0 0 0 0 0 0 0;
#X obj 69 139 t b f;
#X obj 106 139 t b f;
#X obj 143 139 t b f;
#X obj 180 139 t b f;
#X obj 217 139 t b f;
#X obj 254 139 t b f;
#X obj 291 139 t b f;
#X obj 328 139 t b f;
#X obj 32 111 inlet;
#X obj 69 111 inlet;
#X obj 106 111 inlet;
#X obj 143 111 inlet;
#X obj 180 111 inlet;
#X obj 217 111 inlet;
#X obj 254 111 inlet;
#X obj 291 111 inlet;
#X obj 328 111 inlet;
#X obj 61 349 outlet;
#X obj 274 355 outlet;
#X obj 71 190 t l l;
#X obj 257 232 unpack 0 0 0 0 0 0 0 0 0;
#X obj 399 256 +;
#X obj 358 256 +;
#X obj 318 256 +;
#X obj 277 256 +;
#X obj 379 286 +;
#X obj 298 286 +;
#X obj 349 316 +;
#X obj 268 316 +;
#X obj 58 294 select 0;
#X msg 48 323 1;
#X obj 132 391 /;
#X msg 132 365 1 \$1;
#X connect 0 0 20 0;
#X connect 1 0 0 0;
#X connect 1 1 0 1;
#X connect 2 0 0 0;
#X connect 2 1 0 2;
#X connect 3 0 0 0;
#X connect 3 1 0 3;
#X connect 4 0 0 0;
#X connect 4 1 0 4;
#X connect 5 0 0 0;
#X connect 5 1 0 5;
#X connect 6 0 0 0;
#X connect 6 1 0 6;
#X connect 7 0 0 0;
#X connect 7 1 0 7;
#X connect 8 0 0 0;
#X connect 8 1 0 8;
#X connect 9 0 0 0;
#X connect 10 0 1 0;
#X connect 11 0 2 0;
#X connect 12 0 3 0;
#X connect 13 0 4 0;
#X connect 14 0 5 0;
#X connect 15 0 6 0;
#X connect 16 0 7 0;
#X connect 17 0 8 0;
#X connect 20 0 21 0;
#X connect 20 1 19 0;
#X connect 21 0 29 0;
#X connect 21 1 25 0;
#X connect 21 2 25 1;
#X connect 21 3 24 0;
#X connect 21 4 24 1;
#X connect 21 5 23 0;
#X connect 21 6 23 1;
#X connect 21 7 22 0;
#X connect 21 8 22 1;
#X connect 22 0 26 1;
#X connect 23 0 26 0;
#X connect 24 0 27 1;
#X connect 25 0 27 0;
#X connect 26 0 28 1;
#X connect 27 0 28 0;
#X connect 28 0 29 1;
#X connect 29 0 30 0;
#X connect 30 0 31 0;
#X connect 30 1 33 0;
#X connect 31 0 18 0;
#X connect 32 0 18 0;
#X connect 33 0 32 0;
#X restore 139 185 pd pack 9 . . .;
#X obj 106 228 pix_convolve 3 3;
#X floatatom 139 210 5 0 0 1 scale - -;
#N canvas 411 476 605 305 unpack 0;
#X obj 60 270 outlet;
#X obj 111 270 outlet;
#X obj 164 270 outlet;
#X obj 215 270 outlet;
#X obj 266 270 outlet;
#X obj 317 270 outlet;
#X obj 370 270 outlet;
#X obj 421 270 outlet;
#X obj 471 271 outlet;
#X obj 179 173 unpack 0 0 0 0 0 0 0 0 0;
#X obj 130 13 inlet;
#X obj 130 40 route edge1 edge2 smooth none;
#X msg 130 124 -1 -1 -1 -1 8 -1 -1 -1 -1;
#X msg 179 102 -1 -4 -1 -4 20 -4 -1 -4 -1;
#X msg 229 82 1 2 1 2 4 2 1 2 1;
#X msg 278 62 0 0 0 0 1 0 0 0 0;
#X connect 9 0 0 0;
#X connect 9 1 1 0;
#X connect 9 2 2 0;
#X connect 9 3 3 0;
#X connect 9 4 4 0;
#X connect 9 5 5 0;
#X connect 9 6 6 0;
#X connect 9 7 7 0;
#X connect 9 8 8 0;
#X connect 10 0 11 0;
#X connect 11 0 12 0;
#X connect 11 1 13 0;
#X connect 11 2 14 0;
#X connect 11 3 15 0;
#X connect 12 0 9 0;
#X connect 13 0 9 0;
#X connect 14 0 9 0;
#X connect 15 0 9 0;
#X restore 160 121 pd unpack 9 . . .;
#X msg 160 91 none;
#X msg 241 91 edge1;
#X msg 283 91 edge2;
#X msg 194 91 smooth;
#X obj 85 48 inlet;
#X obj 104 262 outlet;
#X obj 193 59 loadbang;
#X connect 1 0 10 0;
#X connect 2 0 10 1;
#X connect 3 0 10 2;
#X connect 4 0 10 3;
#X connect 5 0 10 4;
#X connect 6 0 10 5;
#X connect 7 0 10 6;
#X connect 8 0 10 7;
#X connect 9 0 10 8;
#X connect 10 0 12 0;
#X connect 10 1 11 2;
#X connect 11 0 19 0;
#X connect 12 0 11 1;
#X connect 13 0 1 0;
#X connect 13 1 2 0;
#X connect 13 2 3 0;
#X connect 13 3 4 0;
#X connect 13 4 5 0;
#X connect 13 5 6 0;
#X connect 13 6 7 0;
#X connect 13 7 8 0;
#X connect 13 8 9 0;
#X connect 14 0 13 0;
#X connect 15 0 13 0;
#X connect 16 0 13 0;
#X connect 17 0 13 0;
#X connect 18 0 11 0;
#X connect 20 0 17 0;
#X restore 456 292 pd convolve;
#X obj 106 155 pix_depth2rgba 4000 500;
#X floatatom 210 206 5 0 0 0 - - -;
#X obj 106 294 pix_opencv_morphology 10;
#X obj 106 324 pix_opencv_morphology 10;
#X obj 330 45 loadbang;
#X obj 320 564 cnv 15 150 25 empty empty empty 20 12 0 14 -257985 -66577
0;
#X obj 329 570 hsl 128 15 0 1 0 1 empty empty empty -2 -8 0 10 -262144
-1 -1 500 1;
#X text 326 544 blur;
#X obj 326 590 / 500;
#X obj 326 529 bng 15 250 50 0 empty empty empty 17 7 0 10 -262144
-1 -1;
#X msg 373 248 1;
#X msg 293 266 1;
#X obj 42 39 spigot 1;
#X obj 93 14 tgl 15 0 empty empty empty 17 7 0 10 -262144 -1 -1 0 1
;
#X obj 171 428 r correctionX;
#X obj 208 448 r correctionY;
#X obj 242 469 r correctionScale;
#X obj 171 515 list prepend correction;
#X msg 243 488 Scale \$1;
#X msg 208 468 Y \$1;
#X msg 171 449 X \$1;
#X obj 106 676 s mask-blur-loaded;
#X obj 326 509 r mask-blur-loaded;
#X obj 171 538 list trim;
#X obj 118 657 bng 15 250 50 0 empty empty empty 17 7 0 10 -262144
-1 -1;
#X obj 106 402 pix_texture;
#X obj 106 425 square 1;
#X obj 42 71 t b a;
#X obj 43 574 gemhead;
#X obj 63 516 loadbang;
#X msg 63 537 0;
#X obj 43 654 blur14 blur;
#X obj 43 700 outlet;
#X msg 361 422 mode \$1;
#X obj 359 396 hradio 15 1 0 8 empty empty empty 0 -8 0 10 -262144
-1 -1 4;
#X obj 106 267 pix_opencv_threshold 0 100;
#X obj 73 245 tgl 15 0 empty empty empty 17 7 0 10 -262144 -1 -1 0
1;
#X msg 123 209 mode 4;
#X obj 429 26 r \$0-control-tigre;
#X obj 449 80 sel 0 1;
#X msg 449 122 \$1 1000;
#X obj 449 143 line;
#X obj 123 188 loadbang;
#X obj 389 31 tgl 15 0 empty empty empty 17 7 0 10 -262144 -1 -1 0
1;
#X msg 322 213 100;
#X msg 284 16 0.63;
#X obj 106 232 pix_opencv_threshold 0 255;
#X msg 449 100 150;
#X floatatom 231 249 5 0 0 0 - - -;
#X msg 330 66 0;
#X obj 429 52 t f f;
#X obj 370 83 sel 0 1;
#X msg 370 125 \$1 1000;
#X obj 370 146 line;
#X msg 370 102 255;
#X msg 178 380 0.8;
#X msg 211 380 0.5;
#X msg 243 375 0.3;
#X obj 540 83 sel 0 1;
#X msg 540 125 \$1 1000;
#X obj 540 146 line;
#X msg 539 103 0.4;
#X msg 591 106 0.85;
#X floatatom 450 184 5 0 0 0 - - -;
#X floatatom 374 178 5 0 0 0 - - -;
#X floatatom 520 216 5 0 0 0 - - -;
#X obj 520 236 + 10;
#X msg 408 102 170;
#X msg 500 103 160;
#X connect 0 0 1 0;
#X connect 1 0 19 0;
#X connect 2 0 19 2;
#X connect 3 0 19 3;
#X connect 4 0 5 0;
#X connect 5 0 19 0;
#X connect 6 0 30 0;
#X connect 7 0 21 1;
#X connect 7 0 22 1;
#X connect 8 0 21 0;
#X connect 8 0 22 0;
#X connect 9 0 44 0;
#X connect 11 0 31 0;
#X connect 12 0 9 0;
#X connect 13 0 21 0;
#X connect 14 0 13 0;
#X connect 15 0 29 0;
#X connect 16 0 65 0;
#X connect 17 0 19 0;
#X connect 19 0 65 0;
#X connect 20 0 65 2;
#X connect 21 0 22 0;
#X connect 22 0 9 0;
#X connect 23 0 68 0;
#X connect 25 0 27 0;
#X connect 27 0 50 2;
#X connect 28 0 25 0;
#X connect 29 0 14 0;
#X connect 30 0 21 1;
#X connect 30 0 22 1;
#X connect 31 0 46 0;
#X connect 32 0 31 1;
#X connect 33 0 39 0;
#X connect 34 0 38 0;
#X connect 35 0 37 0;
#X connect 36 0 42 0;
#X connect 37 0 36 0;
#X connect 38 0 36 0;
#X connect 39 0 36 0;
#X connect 41 0 28 0;
#X connect 42 0 50 0;
#X connect 43 0 40 0;
#X connect 44 1 50 1;
#X connect 46 0 47 0;
#X connect 46 1 4 0;
#X connect 47 0 50 0;
#X connect 48 0 49 0;
#X connect 49 0 47 0;
#X connect 50 0 51 0;
#X connect 50 1 40 0;
#X connect 52 0 65 0;
#X connect 53 0 52 0;
#X connect 54 0 21 0;
#X connect 55 0 54 0;
#X connect 56 0 65 0;
#X connect 57 0 69 0;
#X connect 58 0 66 0;
#X connect 58 1 87 0;
#X connect 59 0 60 0;
#X connect 60 0 54 2;
#X connect 60 0 82 0;
#X connect 61 0 56 0;
#X connect 62 0 69 0;
#X connect 63 0 54 2;
#X connect 65 0 54 0;
#X connect 66 0 59 0;
#X connect 67 0 54 2;
#X connect 68 0 69 0;
#X connect 69 0 70 0;
#X connect 69 1 58 0;
#X connect 69 1 77 0;
#X connect 70 0 73 0;
#X connect 70 1 86 0;
#X connect 71 0 72 0;
#X connect 72 0 65 2;
#X connect 72 0 83 0;
#X connect 73 0 71 0;
#X connect 74 0 9 1;
#X connect 75 0 9 1;
#X connect 76 0 9 1;
#X connect 77 0 80 0;
#X connect 77 1 81 0;
#X connect 78 0 79 0;
#X connect 79 0 9 1;
#X connect 80 0 78 0;
#X connect 81 0 78 0;
#X connect 84 0 85 0;
#X connect 84 0 54 2;
#X connect 85 0 65 2;
#X connect 86 0 71 0;
#X connect 87 0 59 0;
#X restore 457 391 pd Mask;
#X obj 336 118 pix_separator;
#X obj 336 138 separator;
#X obj 495 173 pix_separator;
#X obj 495 193 separator;
#X obj 143 15 tgl 15 0 empty empty empty 17 7 0 10 -262144 -1 -1 0
1;
#X floatatom 58 417 4 0 0 1 width - -;
#X floatatom 68 399 4 0 0 1 height - -;
#X floatatom 78 381 4 0 0 1 bytes/pixel - -;
#X floatatom 88 364 5 0 0 1 coulorspace - -;
#X obj 48 343 pix_info . . . .;
#N canvas 661 439 572 560 webcam-properties 0;
#X msg 41 203 enumProps;
#X obj 31 21 cnv 15 400 80 empty empty readProperties 20 12 0 14 -233017
-66577 0;
#X obj 39 47 hradio 15 1 0 1 \$0-propreadId \$0-propreadId empty 0
-8 0 10 -262144 -1 -1 3;
#X obj 40 70 cnv 15 260 20 empty \$0-propreadName <none> 10 9 0 14
-203904 -66577 0;
#N canvas 1 325 450 537 PropertyLogic 0;
#N canvas 505 81 774 460 id2property 0;
#X obj 353 106 r \$0-info;
#X obj 353 130 route proplist;
#X obj 353 152 route read numread;
#X obj 405 176 t b f;
#X obj 353 174 list;
#X obj 353 219 list prepend;
#X msg 353 196 \$1;
#X obj 353 239 t l l;
#X obj 95 197 list prepend;
#X obj 525 176 t b f;
#X obj 473 174 list;
#X obj 473 219 list prepend;
#X msg 473 196 \$1;
#X obj 473 239 t l l;
#X obj 473 152 route write numwrite;
#X obj 95 69 inlet readID;
#X obj 225 70 inlet writeID;
#X obj 180 378 outlet readName;
#X obj 310 356 outlet writeName;
#X obj 95 176 t b f;
#X obj 95 219 list split;
#X obj 180 316 symbol;
#X msg 180 291 symbol \$1;
#X obj 225 197 list prepend;
#X obj 225 176 t b f;
#X obj 225 219 list split;
#X obj 310 316 symbol;
#X msg 310 291 symbol \$1;
#X obj 95 91 route float;
#X obj 225 92 route float;
#X msg 432 333 number \$1;
#X msg 552 333 number \$1;
#X obj 432 353 s \$0-propreadId;
#X obj 552 353 s \$0-propwriteId;
#X obj 602 254 t f f;
#X msg 602 232 0;
#X obj 602 211 loadbang;
#X obj 123 258 route bang;
#X obj 253 258 route bang;
#X connect 0 0 1 0;
#X connect 1 0 2 0;
#X connect 2 0 4 0;
#X connect 2 1 3 0;
#X connect 2 2 14 0;
#X connect 3 0 5 1;
#X connect 3 1 30 0;
#X connect 4 0 6 0;
#X connect 5 0 7 0;
#X connect 6 0 5 0;
#X connect 7 0 8 1;
#X connect 7 1 5 1;
#X connect 8 0 20 0;
#X connect 9 0 11 1;
#X connect 9 1 31 0;
#X connect 10 0 12 0;
#X connect 11 0 13 0;
#X connect 12 0 11 0;
#X connect 13 0 23 1;
#X connect 13 1 11 1;
#X connect 14 0 10 0;
#X connect 14 1 9 0;
#X connect 15 0 28 0;
#X connect 16 0 29 0;
#X connect 19 0 8 0;
#X connect 19 1 20 1;
#X connect 20 1 37 0;
#X connect 21 0 17 0;
#X connect 22 0 21 0;
#X connect 23 0 25 0;
#X connect 24 0 23 0;
#X connect 24 1 25 1;
#X connect 25 1 38 0;
#X connect 26 0 18 0;
#X connect 27 0 26 0;
#X connect 28 0 19 0;
#X connect 29 0 24 0;
#X connect 30 0 32 0;
#X connect 31 0 33 0;
#X connect 34 0 30 0;
#X connect 34 1 31 0;
#X connect 35 0 34 0;
#X connect 36 0 35 0;
#X connect 37 1 22 0;
#X connect 38 1 27 0;
#X restore 188 192 pd id2property;
#X obj 320 407 list prepend set;
#X obj 320 429 list trim;
#X obj 320 451 t b a;
#N canvas 438 137 450 300 getProp 0;
#X obj 44 177 s \$0-propreadName;
#X msg 44 156 label \$1;
#X msg 165 156 get \$1;
#X obj 44 81 inlet;
#X obj 165 178 outlet;
#X obj 290 57 r \$0-info;
#X obj 290 79 route prop;
#N canvas 3 45 450 300 sroute 0;
#X obj 73 12 inlet;
#X obj 312 9 inlet;
#X obj 73 113 outlet;
#X obj 73 34 list split 1;
#X obj 73 56 select s;
#X obj 73 78 list prepend;
#X connect 0 0 3 0;
#X connect 1 0 4 1;
#X connect 3 0 4 0;
#X connect 3 1 5 1;
#X connect 4 0 5 0;
#X connect 5 0 2 0;
#X restore 290 113 pd sroute;
#X obj 44 123 t s s s;
#X msg 290 226 label \$1;
#X obj 290 247 s \$0-propreadValue;
#X obj 290 135 route float;
#X obj 290 157 makefilename %g;
#X obj 106 29 loadbang;
#X obj 106 51 t b b;
#X msg 106 73 symbol <none>;
#X msg 196 74 symbol --;
#X obj 353 181 symbol;
#X connect 1 0 0 0;
#X connect 2 0 4 0;
#X connect 3 0 8 0;
#X connect 5 0 6 0;
#X connect 6 0 7 0;
#X connect 7 0 11 0;
#X connect 8 0 1 0;
#X connect 8 1 2 0;
#X connect 8 2 7 1;
#X connect 9 0 10 0;
#X connect 11 0 12 0;
#X connect 11 1 17 0;
#X connect 12 0 9 0;
#X connect 13 0 14 0;
#X connect 14 0 15 0;
#X connect 14 1 16 0;
#X connect 15 0 1 0;
#X connect 16 0 9 0;
#X connect 17 0 9 0;
#X restore 320 318 pd getProp;
#X obj 172 158 r \$0-propreadId;
#X obj 282 158 r \$0-propwriteId;
#N canvas 432 95 450 467 setProp 0;
#X msg 44 156 label \$1;
#X msg 165 156 get \$1;
#X obj 44 31 inlet;
#X obj 218 324 outlet;
#X obj 290 57 r \$0-info;
#X obj 290 79 route prop;
#N canvas 4 50 450 300 sroute 0;
#X obj 73 12 inlet;
#X obj 312 9 inlet;
#X obj 73 113 outlet;
#X obj 73 34 list split 1;
#X obj 73 56 select s;
#X obj 73 78 list prepend;
#X connect 0 0 3 0;
#X connect 1 0 4 1;
#X connect 3 0 4 0;
#X connect 3 1 5 1;
#X connect 4 0 5 0;
#X connect 5 0 2 0;
#X restore 290 113 pd sroute;
#X obj 290 135 route float;
#X obj 44 177 s \$0-propwriteName;
#X obj 290 247 s \$0-propwriteValue;
#X msg 290 226 set \$1;
#X obj 50 276 r \$0-propwriteValue;
#X obj 50 298 route float;
#X obj 50 320 pack 0 s;
#X msg 50 342 set \$2 \$1;
#X obj 44 73 t s s s s;
#X obj 127 27 loadbang;
#X obj 127 49 t b b;
#X msg 127 71 symbol <none>;
#X connect 0 0 8 0;
#X connect 1 0 3 0;
#X connect 2 0 15 0;
#X connect 4 0 5 0;
#X connect 5 0 6 0;
#X connect 6 0 7 0;
#X connect 7 0 10 0;
#X connect 10 0 9 0;
#X connect 11 0 12 0;
#X connect 12 0 13 0;
#X connect 13 0 14 0;
#X connect 14 0 3 0;
#X connect 15 0 0 0;
#X connect 15 1 1 0;
#X connect 15 2 6 1;
#X connect 15 3 13 1;
#X connect 16 0 17 0;
#X connect 17 0 18 0;
#X connect 18 0 0 0;
#X restore 199 315 pd setProp;
#X obj 199 404 list prepend set;
#X obj 199 426 list trim;
#X obj 199 448 t b a;
#X obj 199 361 list prepend get;
#X obj 199 339 route get set;
#X obj 309 361 list prepend set;
#X obj 199 477 s \$0-propset;
#X obj 320 480 s \$0-propget;
#X obj 54 38 inlet;
#X obj 54 66 s \$0-WCctl;
#X connect 0 0 4 0;
#X connect 0 1 7 0;
#X connect 1 0 2 0;
#X connect 2 0 3 0;
#X connect 3 0 15 0;
#X connect 3 1 15 0;
#X connect 4 0 12 0;
#X connect 5 0 0 0;
#X connect 6 0 0 1;
#X connect 7 0 12 0;
#X connect 8 0 9 0;
#X connect 9 0 10 0;
#X connect 10 0 14 0;
#X connect 10 1 14 0;
#X connect 11 0 1 0;
#X connect 12 0 11 0;
#X connect 12 1 13 0;
#X connect 13 0 8 0;
#X connect 16 0 17 0;
#X restore 41 526 pd PropertyLogic;
#X obj 310 70 cnv 15 100 20 empty \$0-propreadValue -- 10 9 0 14 -261234
-66577 0;
#X obj 31 111 cnv 15 400 80 empty empty writeProperties 20 12 0 14
-233017 -66577 0;
#X obj 39 137 hradio 15 1 0 1 \$0-propwriteId \$0-propwriteId empty
0 -8 0 10 -262144 -1 -1 13;
#X obj 40 160 cnv 15 260 20 empty \$0-propwriteName <none> 10 9 0 14
-203904 -66577 0;
#X obj 311 160 nbx 5 20 -1e+37 1e+37 0 0 \$0-propwriteValue \$0-propwriteValue
empty 0 -8 0 14 -204786 -1 -1 0 256;
#X msg 66 315 get Gamma;
#X msg 83 392 set width 640;
#X obj 66 294 r \$0-propget;
#X obj 83 372 r \$0-propset;
#X msg 87 340 get Hue Saturation;
#X text 208 340 you can query several properties at once;
#X text 146 295 query a (readable) property via a message "get <propname>"
;
#X text 161 372 set a (writable) property via a message "set <prop>
<value>";
#X text 70 224 this will return 2 lists of readable and writable properties
through the "info" outlet of [pix_video].;
#X text 72 257 NOTE that propertynames are always single symbols that
might contain spaces (and other weird characters);
#X text 103 203 INIT: query names of all available properties;
#X text 83 423 ATOMIC setting of multiple properties;
#X msg 99 441 clearProps;
#X msg 99 503 applyProps;
#X msg 99 481 setProps Hue 10;
#X msg 99 461 setProps Contrast 40;
#X text 247 443 clear the current property list;
#X text 247 461 add values to the property list (don't apply yet);
#X text 247 479 add values to the property list (don't apply yet);
#X text 247 499 apply current property list;
#X connect 0 0 4 0;
#X connect 10 0 4 0;
#X connect 11 0 4 0;
#X connect 12 0 10 0;
#X connect 13 0 11 0;
#X connect 14 0 4 0;
#X connect 22 0 4 0;
#X connect 23 0 4 0;
#X connect 24 0 4 0;
#X connect 25 0 4 0;
#X restore 4 137 pd webcam-properties;
#X obj 263 305 s \$0-info;
#X obj 71 221 r \$0-WCctl;
#X obj 47 96 alpha;
#X obj 142 84 pix_separator;
#X obj 142 104 separator;
#X obj 65 297 bng 15 250 50 0 empty empty empty 17 7 0 10 -262144 -1
-1;
#X msg 61 269 close;
#X obj 142 279 pix_video /dev/video0;
#X obj 336 242 gemframebuffer;
#X obj 336 435 square 4;
#X obj 513 278 s kinect-texture;
#X obj 142 164 gemframebuffer;
#X obj 336 270 translateXYZ 0 0 -4;
#X obj 142 209 translateXYZ 0 0 -4;
#X obj 194 389 square 4;
#X obj 223 188 s webcam-texture;
#X obj 393 20 declare -path Gem/help;
#X obj 336 411 pix_texture;
#X obj 194 362 pix_texture;
#X msg 22 76 dimen 512 512;
#X obj 22 50 loadbang;
#X obj 557 230 loadbang;
#X msg 557 251 texunit 3;
#X obj 166 14 inlet;
#N canvas 389 669 450 300 correction 0;
#X obj 38 23 inlet;
#X obj 38 253 outlet;
#X obj 38 190 rotateXYZ;
#X obj 38 159 translateXYZ;
#X obj 38 221 scaleXYZ, f 18;
#X obj 217 114 nbx 5 14 -1e+37 1e+37 0 1 empty empty empty 0 -8 0 10
-262144 -1 -1 1280 256;
#X obj 123 18 nbx 5 14 -1e+37 1e+37 0 1 empty empty empty 0 -8 0 10
-262144 -1 -1 111.7 256;
#X obj 193 60 nbx 5 14 -1e+37 1e+37 0 1 empty empty empty 0 -8 0 10
-262144 -1 -1 -138.38 256;
#X obj 104 123 / 1000;
#X obj 61 123 / 1000;
#X obj 146 185 / 1000;
#X obj 38 55 separator;
#X floatatom 172 112 5 0 0 0 - - -;
#X obj 191 32 bng 15 250 50 0 empty empty empty 17 7 0 10 -262144 -1
-1;
#X obj 61 95 r correctionX;
#X obj 150 93 r correctionY;
#X obj 146 162 r correctionScale;
#X connect 0 0 11 0;
#X connect 2 0 4 0;
#X connect 3 0 2 0;
#X connect 4 0 1 0;
#X connect 8 0 3 2;
#X connect 9 0 3 1;
#X connect 10 0 4 1;
#X connect 10 0 4 2;
#X connect 11 0 3 0;
#X connect 12 0 8 0;
#X connect 13 0 7 0;
#X connect 14 0 9 0;
#X connect 15 0 8 0;
#X connect 16 0 10 0;
#X restore 336 294 pd correction;
#X obj 761 92 nbx 5 14 -1e+37 1e+37 0 1 correctionScale empty scale
0 -8 0 10 -262144 -1 -1 1284 256;
#X obj 635 92 nbx 5 14 -1e+37 1e+37 0 1 correctionX empty X 0 -8 0
10 -262144 -1 -1 111.7 256;
#X obj 699 92 nbx 5 14 -1e+37 1e+37 0 1 correctionY empty Y 0 -8 0
10 -262144 -1 -1 -265.38 256;
#X obj 681 2 bng 15 250 50 0 empty empty empty 17 7 0 10 -262144 -1
-1;
#X msg 27 24 dimen 1024 1024;
#N canvas 555 120 508 409 BrightnessSaturationContrast 0;
#X obj 137 47 r \$0-control-lum;
#X obj 137 68 * 2;
#X obj 137 89 - 1;
#X obj 137 110 moses 0;
#X obj 137 131 f;
#X obj 175 130 * 1;
#X obj 176 151 * 1.5;
#X obj 153 272 outlet;
#X msg 137 189 brightness \$1;
#X obj 252 50 r \$0-control-contrast;
#X obj 394 48 r \$0-control-sat;
#X obj 394 76 pow 2;
#X obj 394 100 * 4;
#X msg 251 185 contrast \$1;
#X msg 378 184 saturation \$1;
#X obj 266 86 pow 2;
#X obj 251 112 * 12;
#X floatatom 266 139 5 0 0 0 - - -;
#X floatatom 103 205 5 0 0 0 - - -;
#X floatatom 74 123 5 0 0 0 - - -;
#X connect 0 0 1 0;
#X connect 1 0 2 0;
#X connect 2 0 3 0;
#X connect 3 0 4 0;
#X connect 3 1 5 0;
#X connect 4 0 8 0;
#X connect 5 0 6 0;
#X connect 6 0 8 0;
#X connect 6 0 18 0;
#X connect 8 0 7 0;
#X connect 9 0 15 0;
#X connect 10 0 11 0;
#X connect 11 0 12 0;
#X connect 12 0 14 0;
#X connect 13 0 7 0;
#X connect 14 0 7 0;
#X connect 15 0 16 0;
#X connect 16 0 13 0;
#X connect 16 0 17 0;
#X connect 19 0 8 0;
#X restore 513 376 pd BrightnessSaturationContrast;
#X obj 150 569 texture_delay 120, f 25;
#X obj 150 546 gemhead 13;
#X obj 223 546 r webcam-texture;
#X obj 335 504 unpack f f;
#X obj 335 481 r MainDroite;
#X msg 335 568 \$1 500;
#X obj 335 589 line;
#X obj 335 524 * 120;
#X obj 150 592 s delay-texture;
#X floatatom 370 620 5 0 0 0 - - -;
#X obj 545 17 r mask-blur-loaded;
#X obj 457 411 s mask-texture;
#X obj 153 649 texture_delay 120, f 25;
#X obj 153 626 gemhead 13;
#X obj 227 626 r mask-texture;
#X obj 153 672 s mask-delay-texture;
#X msg 223 132 format RGB;
#X obj 335 546 change;
#N canvas 1 81 450 300 freeze 0;
#X obj 174 263 outlet;
#X obj 128 126 r \$0-choc;
#X obj 289 76 s \$0-choc;
#X obj 298 42 bng 15 250 50 0 empty empty empty 17 7 0 10 -262144 -1
-1;
#X obj 244 198 bng 15 250 50 0 empty empty empty 17 7 0 10 -262144
-1 -1;
#X obj 293 194 metro 200;
#X obj 301 160 tgl 15 0 empty empty empty 17 7 0 10 -262144 -1 -1 0
1;
#X obj 197 125 r \$0-control-freeze;
#X obj 128 147 spigot, f 12;
#X obj 128 168 b;
#X obj 128 189 del 1000;
#X msg 128 210 1;
#X msg 186 190 0 \, bang;
#X obj 50 206 print;
#X connect 1 0 8 0;
#X connect 3 0 2 0;
#X connect 4 0 0 0;
#X connect 5 0 4 0;
#X connect 6 0 5 0;
#X connect 7 0 8 1;
#X connect 8 0 9 0;
#X connect 9 0 10 0;
#X connect 9 0 12 0;
#X connect 10 0 11 0;
#X connect 11 0 0 0;
#X connect 12 0 0 0;
#X restore 236 16 pd freeze;
#X msg 45 242 device 0;
#X connect 0 0 1 0;
#X connect 1 0 23 0;
#X connect 1 1 9 0;
#X connect 1 2 11 0;
#X connect 2 0 37 0;
#X connect 2 1 5 0;
#X connect 4 0 2 0;
#X connect 5 0 7 0;
#X connect 5 1 8 0;
#X connect 8 0 62 0;
#X connect 9 0 10 0;
#X connect 10 0 28 0;
#X connect 11 0 12 0;
#X connect 12 0 2 1;
#X connect 13 0 0 0;
#X connect 18 1 14 0;
#X connect 18 2 15 0;
#X connect 18 3 16 0;
#X connect 18 4 17 0;
#X connect 21 0 27 0;
#X connect 23 0 24 0;
#X connect 24 0 31 0;
#X connect 25 0 18 0;
#X connect 26 0 27 0;
#X connect 27 0 18 0;
#X connect 27 0 38 0;
#X connect 27 1 20 0;
#X connect 28 0 32 0;
#X connect 28 1 30 0;
#X connect 31 0 33 0;
#X connect 31 1 35 0;
#X connect 32 0 44 0;
#X connect 33 0 27 0;
#X connect 37 0 29 0;
#X connect 38 0 34 0;
#X connect 39 0 31 0;
#X connect 39 0 28 0;
#X connect 40 0 39 0;
#X connect 41 0 42 0;
#X connect 43 0 0 0;
#X connect 44 0 2 0;
#X connect 48 0 46 0;
#X connect 48 0 47 0;
#X connect 48 0 45 0;
#X connect 49 0 31 0;
#X connect 51 0 59 0;
#X connect 52 0 51 0;
#X connect 53 0 51 1;
#X connect 54 0 58 0;
#X connect 55 0 54 0;
#X connect 56 0 57 0;
#X connect 57 0 51 2;
#X connect 57 0 63 2;
#X connect 58 0 68 0;
#X connect 60 0 57 0;
#X connect 61 0 48 0;
#X connect 63 0 66 0;
#X connect 64 0 63 0;
#X connect 65 0 63 1;
#X connect 67 0 31 0;
#X connect 68 0 56 0;
#X connect 69 0 0 0;
#X connect 70 0 27 0;
#X restore 5 56 pd Caméras-textures;
#X obj 127 40 gemhead 99;
#X obj 127 128 pix_texture;
#X obj 127 149 alpha;
#X obj 197 107 r webcam-texture;
#X msg 238 27 0;
#X obj 138 12 tgl 15 0 empty empty empty 17 7 0 10 -262144 -1 -1 0
1;
#X obj 127 212 pix_texture;
#X obj 139 170 loadbang;
#X msg 139 190 texunit 1;
#X obj 218 129 r delay-texture;
#X obj 127 284 pix_texture;
#X obj 139 242 loadbang;
#X msg 139 262 texunit 2;
#X obj 203 259 r mask-texture;
#X obj 140 308 loadbang;
#X msg 140 329 texunit 3;
#X obj 211 328 r kinect-texture;
#X obj 127 356 pix_texture;
#X obj 203 392 r mask-delay-texture;
#X obj 137 392 loadbang;
#X obj 127 440 pix_texture;
#X msg 137 413 texunit 4;
#X obj 347 258 square 50;
#X obj 375 214 hsl 128 15 0 1 0 0 empty empty empty -2 -8 0 10 -262144
-1 -1 12700 1;
#X obj 347 150 alpha;
#X obj 372 192 r \$0-control-maskbg;
#X obj 26 222 route 0 1;
#X obj 93 173 tgl 15 0 empty empty empty 17 7 0 10 -262144 -1 -1 0
1;
#X obj 26 201 list prepend 1;
#X obj 230 174 r feedback-texture;
#X obj 219 150 list prepend 0;
#X obj 230 195 list prepend 1;
#X obj 219 218 route 0;
#X obj 271 217 r \$0-control-fb;
#X obj 347 237 colorRGB 1 1 1 0;
#X obj 479 346 ctl \$0 mix_chocs;
#X obj 481 318 ctl \$0 mix_retard;
#X obj 480 297 ctl \$0 noise;
#X floatatom 275 235 5 0 0 0 - - -;
#X obj 479 372 ctl \$0 freeze;
#X obj 480 393 ctl \$0 fb;
#X obj 596 288 ctl \$0 lum;
#X obj 595 314 ctl \$0 contrast;
#X obj 595 337 ctl \$0 sat;
#X obj 596 361 ctl \$0 mask;
#X obj 596 385 ctl \$0 solar;
#X obj 597 406 ctl \$0 poster;
#X obj 671 360 ctl \$0 maskbg;
#X obj 678 385 ctl \$0 tigre;
#X obj 480 274 ctl \$0 freeze;
#X obj 411 661 hsl 80 10 0 1 0 0 empty empty empty -2 -8 0 10 -262144
-1 -1 6201 1;
#X obj 408 580 r MainGauche;
#X obj 408 601 unpack f f;
#X obj 496 626 vsl 10 80 0 1 0 0 empty empty empty 0 -9 0 10 -262144
-1 -1 5015 1;
#X obj 625 665 hsl 80 10 0 1 0 0 empty empty empty -2 -8 0 10 -262144
-1 -1 6919 1;
#X obj 622 605 unpack f f;
#X obj 710 630 vsl 10 80 0 1 0 0 empty empty empty 0 -9 0 10 -262144
-1 -1 3137 1;
#X obj 622 581 r MainDroite;
#X obj 592 534 s Mains-minarea;
#X msg 593 503 0.02;
#X connect 1 0 2 0;
#X connect 2 0 1 0;
#X connect 5 0 6 0;
#X connect 5 0 7 0;
#X connect 6 0 4 1;
#X connect 7 0 4 2;
#X connect 8 0 4 0;
#X connect 9 0 28 0;
#X connect 11 0 24 0;
#X connect 13 0 8 1;
#X connect 14 0 8 1;
#X connect 18 0 8 1;
#X connect 20 0 8 2;
#X connect 21 0 8 1;
#X connect 22 0 8 1;
#X connect 23 0 10 0;
#X connect 24 0 30 0;
#X connect 24 1 53 0;
#X connect 25 0 8 1;
#X connect 26 0 8 1;
#X connect 27 0 11 1;
#X connect 29 0 11 0;
#X connect 30 0 57 0;
#X connect 31 0 35 0;
#X connect 32 0 30 1;
#X connect 33 0 11 1;
#X connect 34 0 29 0;
#X connect 35 0 39 0;
#X connect 36 0 37 0;
#X connect 37 0 35 0;
#X connect 38 0 59 0;
#X connect 39 0 46 0;
#X connect 40 0 41 0;
#X connect 41 0 39 0;
#X connect 42 0 39 1;
#X connect 43 0 44 0;
#X connect 44 0 46 0;
#X connect 45 0 46 1;
#X connect 46 0 49 0;
#X connect 47 0 49 1;
#X connect 48 0 50 0;
#X connect 49 0 8 0;
#X connect 50 0 49 0;
#X connect 52 0 63 4;
#X connect 53 0 63 0;
#X connect 54 0 52 0;
#X connect 55 0 4 0;
#X connect 55 1 31 0;
#X connect 56 0 57 1;
#X connect 57 0 55 0;
#X connect 58 0 60 0;
#X connect 59 0 61 0;
#X connect 60 0 61 0;
#X connect 61 0 35 1;
#X connect 62 0 61 1;
#X connect 62 0 67 0;
#X connect 63 0 51 0;
#X connect 80 0 81 0;
#X connect 81 0 79 0;
#X connect 81 1 82 0;
#X connect 84 0 83 0;
#X connect 84 1 85 0;
#X connect 86 0 84 0;
#X connect 88 0 87 0;
