#N canvas 1 81 488 531 10;
#X obj 33 464 outlet;
#X obj 228 94 loadbang;
#X msg 228 118 dimen 512 512 \, rectangle 0 \, format RGB;
#X msg 264 168 dimen 1024 1024;
#X msg 247 145 dimen 2048 2048;
#X msg 291 195 dimen 128 128;
#X obj 70 105 list trim;
#X obj 70 82 list prepend texture;
#X obj 33 443 route texture loaded;
#X obj 70 60 inlet texture;
#X obj 33 23 inlet gemhead;
#X obj 91 487 outlet loaded;
#X obj 202 19 inlet blur;
#X obj 202 40 s \$0-blur;
#X obj 228 283 s \$0-fb;
#X obj 33 138 single_blur2 \$0 0 64;
#X obj 33 159 single_blur2 \$0 64 0;
#X obj 33 180 single_blur2 \$0 0 32;
#X obj 33 201 single_blur2 \$0 32 0;
#X obj 33 222 single_blur2 \$0 0 16;
#X obj 33 243 single_blur2 \$0 16 0;
#X obj 33 264 single_blur2 \$0 0 8;
#X obj 33 285 single_blur2 \$0 8 0;
#X obj 33 307 single_blur2 \$0 0 4;
#X obj 33 328 single_blur2 \$0 4 0;
#X obj 33 349 single_blur2 \$0 0 2;
#X obj 33 370 single_blur2 \$0 2 0;
#X obj 33 392 single_blur2 \$0 0 1;
#X obj 33 413 single_blur2 \$0 1 0;
#X connect 1 0 2 0;
#X connect 2 0 14 0;
#X connect 3 0 14 0;
#X connect 4 0 14 0;
#X connect 5 0 14 0;
#X connect 6 0 15 0;
#X connect 7 0 6 0;
#X connect 8 0 0 0;
#X connect 8 1 11 0;
#X connect 9 0 7 0;
#X connect 10 0 15 0;
#X connect 12 0 13 0;
#X connect 15 0 16 0;
#X connect 16 0 17 0;
#X connect 17 0 18 0;
#X connect 18 0 19 0;
#X connect 19 0 20 0;
#X connect 20 0 21 0;
#X connect 21 0 22 0;
#X connect 22 0 23 0;
#X connect 23 0 24 0;
#X connect 24 0 25 0;
#X connect 25 0 26 0;
#X connect 26 0 27 0;
#X connect 27 0 28 0;
#X connect 28 0 8 0;
