#N canvas 1 81 448 540 10;
#X obj 141 188 list split 2;
#X text 134 390 centroid;
#X obj 23 99 list split 17, f 31;
#X obj 114 229 t a a, f 12;
#X obj 183 249 unpack f;
#X obj 183 270 < 0.5;
#X obj 114 351 list prepend;
#X obj 23 121 list split 6;
#X obj 57 146 list split 1;
#X obj 114 209 list, f 5;
#X obj 114 188 b;
#X obj 57 167 moses 0.02;
#X obj 114 372 s Mains-pre;
#X obj 153 147 r Mains-minarea;
#X obj 23 27 inlet;
#X obj 23 51 list split 19, f 31;
#X obj 114 75 outlet;
#X obj 35 250 unpack f f;
#X obj 35 296 pack f f, f 10;
#X msg 35 317 \$2 \$1;
#X msg 34 228 \$2 \$1;
#X obj 35 271 moses 0.8;
#X connect 0 0 9 1;
#X connect 2 0 7 0;
#X connect 2 1 0 0;
#X connect 3 0 20 0;
#X connect 3 1 4 0;
#X connect 4 0 5 0;
#X connect 5 0 6 1;
#X connect 6 0 12 0;
#X connect 7 1 8 0;
#X connect 8 0 11 0;
#X connect 9 0 3 0;
#X connect 10 0 9 0;
#X connect 11 1 10 0;
#X connect 13 0 11 1;
#X connect 14 0 15 0;
#X connect 15 0 2 0;
#X connect 15 1 16 0;
#X connect 17 0 21 0;
#X connect 17 1 18 1;
#X connect 18 0 19 0;
#X connect 19 0 6 0;
#X connect 20 0 17 0;
#X connect 21 0 18 0;
