#N canvas 668 311 519 549 10;
#X obj 83 140 gemframebuffer;
#X obj 83 287 translateXYZ 0 0 -4;
#X obj 83 401 pix_texture;
#X obj 100 359 loadbang;
#X obj 26 502 outlet;
#X obj 83 186 _glsl blur;
#X obj 122 165 bng 15 250 50 0 empty empty empty 17 7 0 10 -262144
-1 -1;
#X obj 311 79 t f f;
#X obj 311 127 pack f f;
#X obj 311 106 * \$2;
#X obj 364 105 * \$3;
#X msg 311 147 distance \$1 \$2;
#X obj 311 33 route float;
#X obj 385 55 unpack f f;
#X msg 102 380 quality 1 \, rectangle 0;
#X floatatom 141 424 5 0 0 0 - - -;
#X obj 82 421 square 4;
#X obj 83 324 scaleXYZ 1 1 1;
#X obj 183 224 route X Y Scale, f 23;
#X obj 183 250 / 1000;
#X obj 228 249 / 1000;
#X obj 273 250 / 1000;
#X obj 26 18 inlet;
#X obj 26 66 list prepend gem_state;
#X obj 26 87 list trim;
#X obj 26 45 route gem_state texture correction, f 40;
#X obj 26 114 t a a, f 10;
#X obj 246 398 list trim;
#X obj 246 378 list prepend texture;
#X obj 386 397 list trim;
#X obj 386 377 list prepend loaded;
#X obj 311 11 r \$1-blur;
#X obj 99 113 r \$1-fb;
#X connect 0 0 5 0;
#X connect 0 1 28 0;
#X connect 1 0 17 0;
#X connect 2 0 16 0;
#X connect 3 0 14 0;
#X connect 5 0 1 0;
#X connect 5 1 30 0;
#X connect 6 0 5 0;
#X connect 7 0 9 0;
#X connect 7 1 10 0;
#X connect 8 0 11 0;
#X connect 9 0 8 0;
#X connect 10 0 8 1;
#X connect 11 0 5 1;
#X connect 12 0 7 0;
#X connect 12 1 13 0;
#X connect 13 0 9 0;
#X connect 13 1 10 0;
#X connect 14 0 2 0;
#X connect 15 0 16 1;
#X connect 17 0 2 0;
#X connect 18 0 19 0;
#X connect 18 1 20 0;
#X connect 18 2 21 0;
#X connect 19 0 1 1;
#X connect 20 0 1 2;
#X connect 21 0 17 2;
#X connect 21 0 17 1;
#X connect 22 0 25 0;
#X connect 23 0 24 0;
#X connect 24 0 26 0;
#X connect 25 0 23 0;
#X connect 25 1 2 1;
#X connect 25 2 18 0;
#X connect 26 0 4 0;
#X connect 26 1 0 0;
#X connect 27 0 4 0;
#X connect 28 0 27 0;
#X connect 29 0 4 0;
#X connect 30 0 29 0;
#X connect 31 0 12 0;
#X connect 32 0 0 0;
