#N canvas 488 232 681 595 10;
#X obj 99 59 inlet;
#X obj 26 145 gemframebuffer;
#X obj 26 292 translateXYZ 0 0 -4;
#X obj 26 406 pix_texture;
#X obj 43 364 loadbang;
#X obj 195 405 outlet;
#X obj 26 191 _glsl blur;
#X obj 65 170 bng 15 250 50 0 empty empty empty 17 7 0 10 -262144 -1
-1;
#X obj 248 85 t f f;
#X obj 248 17 r blur;
#X obj 248 133 pack f f;
#X obj 26 58 gemhead \$1;
#X obj 248 112 * \$2;
#X obj 301 111 * \$3;
#X msg 248 153 distance \$1 \$2;
#X obj 42 119 r to_fb;
#X obj 248 39 route float;
#X obj 322 61 unpack f f;
#X obj 441 18 r motion_blur;
#X obj 441 90 pack f f;
#X obj 441 65 * \$2;
#X obj 441 41 unpack f f;
#X obj 508 65 * \$2;
#X msg 45 385 quality 1 \, rectangle 0;
#X floatatom 166 125 5 0 0 0 - - -;
#X floatatom 71 484 5 0 0 0 - - -;
#X floatatom 172 185 5 0 0 0 - - -;
#X obj 25 426 square 4;
#X obj 146 61 inlet to_fb;
#X obj 26 329 scaleXYZ 1 1 1;
#X obj 129 88 route correction;
#X obj 126 229 route X Y Scale, f 23;
#X obj 126 255 / 1000;
#X obj 171 254 / 1000;
#X obj 216 255 / 1000;
#X connect 0 0 3 1;
#X connect 1 0 6 0;
#X connect 1 1 5 0;
#X connect 2 0 29 0;
#X connect 3 0 27 0;
#X connect 4 0 23 0;
#X connect 6 0 2 0;
#X connect 7 0 6 0;
#X connect 8 0 12 0;
#X connect 8 1 13 0;
#X connect 9 0 16 0;
#X connect 10 0 14 0;
#X connect 11 0 1 0;
#X connect 12 0 10 0;
#X connect 13 0 10 1;
#X connect 14 0 6 1;
#X connect 15 0 1 0;
#X connect 16 0 8 0;
#X connect 16 1 17 0;
#X connect 17 0 12 0;
#X connect 17 1 13 0;
#X connect 18 0 21 0;
#X connect 19 0 14 0;
#X connect 20 0 19 0;
#X connect 21 0 20 0;
#X connect 21 1 22 0;
#X connect 22 0 19 1;
#X connect 23 0 3 0;
#X connect 25 0 27 1;
#X connect 26 0 2 1;
#X connect 28 0 30 0;
#X connect 29 0 3 0;
#X connect 30 0 31 0;
#X connect 30 1 1 0;
#X connect 31 0 32 0;
#X connect 31 1 33 0;
#X connect 31 2 34 0;
#X connect 32 0 2 1;
#X connect 33 0 2 2;
#X connect 34 0 29 2;
#X connect 34 0 29 1;
