#N canvas 96 197 540 332 12;
#X obj 34 42 inlet;
#X obj 381 55 inlet delay-frames;
#X obj 34 223 pix_snap 0 0 512 512;
#X obj 123 180 tgl 15 0 empty empty empty 0 -6 0 8 -262144 -1 -1 0
1;
#X obj 381 82 i;
#X obj 381 109 change;
#X obj 34 301 square 4;
#X obj 34 102 translateXYZ 0 0 -4;
#X obj 34 276 pix_texture;
#X obj 192 192 pix_texture;
#X obj 192 163 separator;
#X obj 34 199 separator;
#X obj 53 177 spigot 1;
#X obj 192 220 square 4;
#X obj 34 130 t a a, f 23;
#X obj 34 153 t a b;
#X obj 266 52 inlet texture;
#X obj 34 78 gemframebuffer, f 21;
#X msg 84 42 dimen 512 512;
#X obj 84 16 loadbang;
#X obj 178 307 outlet texture;
#X obj 34 251 pix_delay \$1, f 50;
#X connect 0 0 17 0;
#X connect 1 0 4 0;
#X connect 2 0 21 0;
#X connect 3 0 12 1;
#X connect 4 0 5 0;
#X connect 5 0 21 1;
#X connect 7 0 14 0;
#X connect 8 0 6 0;
#X connect 9 0 13 0;
#X connect 10 0 9 0;
#X connect 11 0 2 0;
#X connect 12 0 2 0;
#X connect 14 0 15 0;
#X connect 14 1 10 0;
#X connect 15 0 11 0;
#X connect 15 1 12 0;
#X connect 16 0 9 1;
#X connect 17 0 7 0;
#X connect 17 1 20 0;
#X connect 18 0 17 0;
#X connect 19 0 18 0;
#X connect 21 0 8 0;
