#N canvas 420 212 505 387 12;
#X obj 55 34 inlet;
#X obj 55 286 outlet;
#X obj 55 58 t a a, f 27;
#X obj 55 86 unpack f f f f, f 16;
#X obj 91 111 * -1;
#X obj 127 111 * -1;
#X obj 164 111 * -1;
#X obj 55 214 /;
#X obj 91 214 /;
#X obj 127 214 /;
#X obj 164 214 /;
#X obj 55 238 pack f f f f, f 16;
#X obj 241 82 unpack f f f f, f 19;
#X obj 241 106 t f f;
#X obj 241 130 *, f 5;
#X obj 284 106 t f f;
#X obj 284 130 *, f 5;
#X obj 327 105 t f f;
#X obj 327 129 *, f 5;
#X obj 371 105 t f f;
#X obj 371 129 *, f 5;
#X obj 241 154 +;
#X obj 284 154 +;
#X obj 327 154 +;
#X connect 0 0 2 0;
#X connect 2 0 3 0;
#X connect 2 1 12 0;
#X connect 3 0 7 0;
#X connect 3 1 4 0;
#X connect 3 2 5 0;
#X connect 3 3 6 0;
#X connect 4 0 8 0;
#X connect 5 0 9 0;
#X connect 6 0 10 0;
#X connect 7 0 11 0;
#X connect 8 0 11 1;
#X connect 9 0 11 2;
#X connect 10 0 11 3;
#X connect 11 0 1 0;
#X connect 12 0 13 0;
#X connect 12 1 15 0;
#X connect 12 2 17 0;
#X connect 12 3 19 0;
#X connect 13 0 14 0;
#X connect 13 1 14 1;
#X connect 14 0 21 0;
#X connect 15 0 16 0;
#X connect 15 1 16 1;
#X connect 16 0 22 0;
#X connect 17 0 18 0;
#X connect 17 1 18 1;
#X connect 18 0 23 0;
#X connect 19 0 20 0;
#X connect 19 1 20 1;
#X connect 20 0 23 1;
#X connect 21 0 10 1;
#X connect 21 0 9 1;
#X connect 21 0 8 1;
#X connect 21 0 7 1;
#X connect 22 0 21 1;
#X connect 23 0 22 1;
