#N canvas 71 430 592 241 12;
#X obj 23 71 unpack f f f f, f 19;
#X obj 197 70 unpack f f f f, f 19;
#X obj 23 97 expr $f1*$f5 - $f2*$f6 - $f3*$f7 - $f4*$f8 \; $f1*$f6
+ $f2*$f5 + $f3*$f8 - $f4*$f7 \; $f1*$f7 - $f2*$f8 + $f3*$f5 + $f4*$f6
\; $f1*$f8 + $f2*$f7 - $f3*$f6 + $f4*$f5, f 44;
#X obj 23 39 inlet U;
#X obj 197 40 inlet V;
#X obj 23 189 outlet U*V;
#X obj 23 163 pack f f f f, f 44;
#X obj 258 16 loadbang;
#X obj 258 40 list \$1 \$2 \$3 \$4;
#X connect 0 0 2 0;
#X connect 0 1 2 1;
#X connect 0 2 2 2;
#X connect 0 3 2 3;
#X connect 1 0 2 4;
#X connect 1 1 2 5;
#X connect 1 2 2 6;
#X connect 1 3 2 7;
#X connect 2 0 6 0;
#X connect 2 1 6 1;
#X connect 2 2 6 2;
#X connect 2 3 6 3;
#X connect 3 0 0 0;
#X connect 4 0 1 0;
#X connect 6 0 5 0;
#X connect 7 0 8 0;
#X connect 8 0 1 0;
