#N canvas 375 319 348 210 12;
#X obj 33 135 pack f f f, f 22;
#X obj 33 60 unpack f f f, f 22;
#X obj 33 28 inlet rad3;
#X obj 33 161 outlet deg3;
#X obj 33 84 / 6.28319;
#X obj 33 108 * 360;
#X obj 108 84 / 6.28319;
#X obj 108 108 * 360;
#X obj 184 83 / 6.28319;
#X obj 184 107 * 360;
#X connect 0 0 3 0;
#X connect 1 0 4 0;
#X connect 1 1 6 0;
#X connect 1 2 8 0;
#X connect 2 0 1 0;
#X connect 4 0 5 0;
#X connect 5 0 0 0;
#X connect 6 0 7 0;
#X connect 7 0 0 1;
#X connect 8 0 9 0;
#X connect 9 0 0 2;
