#N canvas 375 292 1059 287 12;
#X obj 33 60 unpack f f f f, f 63;
#X obj 33 28 inlet Quaternion;
#X obj 33 167 outlet Euler;
#X obj 33 141 pack f f f, f 63;
#X obj 498 85 expr atan2(2*$f1*$f3 - 2*$f2*$f4 \, 1 - 2*$f3*$f3 - 2*$f4*$f4)
\; asin(2*$f2*$f3 + 2*$f1*$f4) \; atan2(2*$f1*$f2 - 2*$f3*$f4 \, 1
- 2*$f2*$f2 - 2*$f4*$f4), f 63;
#X obj 33 84 expr atan2(2*$f1*$f4 + 2*$f2*$f3 \, 1 - 2*$f3*$f3 - 2*$f4*$f4)
\; atan2(2*$f1*$f2 + 2*$f3*$f4 \, 1 - 2*$f2*$f2 - 2*$f3*$f3) \; asin(2*$f1*$f3
- 2*$f2*$f4), f 63;
#X connect 0 0 5 0;
#X connect 0 1 5 1;
#X connect 0 2 5 2;
#X connect 0 3 5 3;
#X connect 1 0 0 0;
#X connect 3 0 2 0;
#X connect 5 0 3 0;
#X connect 5 1 3 1;
#X connect 5 2 3 2;
