#N canvas 163 646 396 220 12;
#X obj 29 103 list prepend \$2;
#X obj 29 127 s toCONTROL;
#X obj 29 39 r \$1-control-\$2-snd;
#X obj 189 34 r MIDIIN;
#X obj 189 58 route \$4;
#X obj 189 82 route \$5;
#X obj 189 106 route \$6;
#X obj 189 133 s \$1-control-\$2-rcv;
#X obj 29 71 change -1;
#X connect 0 0 1 0;
#X connect 2 0 8 0;
#X connect 3 0 4 0;
#X connect 4 0 5 0;
#X connect 5 0 6 0;
#X connect 6 0 7 0;
#X connect 8 0 0 0;
