#N canvas 1 83 565 361 12;
#X obj 73 16 inlet~;
#X obj 73 40 delwrite~ \$0-d 5000;
#X obj 85 268 vd~ \$0-d;
#X obj 89 109 hsl 128 15 0 1 0 0 empty empty empty -2 -8 0 10 -262144
-1 -1 0 1;
#X msg 86 171 \$1 500;
#X obj 86 195 line~;
#X obj 85 292 outlet~;
#X obj 265 36 r fromVideo;
#X obj 265 85 unpack f;
#X obj 264 139 *;
#X obj 283 110 t b f;
#X floatatom 319 215 5 0 0 0 - - -;
#X floatatom 250 203 5 0 0 0 - - -;
#X obj 85 231 lop~ 2;
#X obj 358 35 r CONTROL;
#X obj 265 59 route G;
#X obj 358 60 route delai;
#X obj 86 140 * 500;
#X connect 0 0 1 0;
#X connect 2 0 6 0;
#X connect 3 0 17 0;
#X connect 4 0 5 0;
#X connect 5 0 13 0;
#X connect 7 0 15 0;
#X connect 8 0 9 0;
#X connect 9 0 3 0;
#X connect 10 0 9 0;
#X connect 10 1 9 1;
#X connect 13 0 2 0;
#X connect 14 0 16 0;
#X connect 15 0 8 0;
#X connect 16 0 10 0;
#X connect 17 0 4 0;
