#N canvas 1 81 811 399 10;
#X obj 61 27 inlet~;
#X obj 61 315 bob~ 800 4, f 12;
#X obj 95 290 line~;
#X obj 61 336 *~ \$3;
#X obj 61 357 outlet~;
#X obj 95 75 moonlib/tabreadl \$1-formant\$2;
#X obj 95 50 r \$1-formant-pos;
#X obj 134 290 sig~ 3.7;
#X msg 95 270 \$1 20;
#X obj 305 30 r \$1-formant-indirect-pos;
#X obj 305 53 t f f;
#X obj 332 75 i;
#X obj 305 98 -, f 5;
#X obj 305 155 * -1;
#X obj 305 176 + 1;
#X obj 305 126 t f f, f 34;
#X obj 305 203 *;
#X obj 340 176 tabread \$1-formant\$2;
#X obj 521 166 tabread \$1-formant\$2;
#X obj 521 123 + 1;
#X obj 506 197 *;
#X obj 305 224 +, f 34;
#X obj 340 154 tabread \$1-indirect-table;
#X obj 521 144 tabread \$1-indirect-table;
#X connect 0 0 1 0;
#X connect 1 0 3 0;
#X connect 2 0 1 1;
#X connect 3 0 4 0;
#X connect 5 0 8 0;
#X connect 6 0 5 0;
#X connect 7 0 1 2;
#X connect 8 0 2 0;
#X connect 9 0 10 0;
#X connect 10 0 12 0;
#X connect 10 1 11 0;
#X connect 11 0 12 1;
#X connect 11 0 19 0;
#X connect 11 0 22 0;
#X connect 12 0 15 0;
#X connect 13 0 14 0;
#X connect 14 0 16 0;
#X connect 15 0 13 0;
#X connect 15 1 20 0;
#X connect 16 0 21 0;
#X connect 17 0 16 1;
#X connect 18 0 20 1;
#X connect 19 0 23 0;
#X connect 20 0 21 1;
#X connect 21 0 8 0;
#X connect 22 0 17 0;
#X connect 23 0 18 0;
