#N canvas 231 173 1048 480 10;
#X obj 161 82 +~, f 4;
#X obj 160 30 inlet~;
#N canvas 180 161 190 200 nop~ 0;
#X obj 50 70 inlet~;
#X obj 50 140 outlet~;
#X connect 0 0 1 0;
#X restore 147 251 pd nop~;
#N canvas 864 242 415 406 test-alto-wavs 0;
#X obj 111 270 readsf~, f 17;
#X obj 110 338 outlet~;
#X obj 128 204 b;
#X obj 128 225 del 100;
#X msg 128 246 1;
#X obj 84 72 hradio 15 1 0 6 empty empty empty 0 -8 0 10 -262144 -1
-1 0;
#X obj 84 142 sel 0;
#X msg 84 177 0;
#X obj 99 92 hsl 86 15 0 1 0 1 empty empty empty -2 -8 0 10 -258113
-1 -1 6600 1;
#X obj 283 176 pow 2;
#X obj 110 304 *~;
#X msg 283 197 \$1 10;
#X obj 283 218 line~;
#X obj 179 71 tgl 15 0 empty empty loop 17 7 0 10 -262144 -1 -1 0 1
;
#X obj 210 294 spigot;
#X obj 210 315 f, f 8;
#X obj 210 336 sel 0;
#X obj 84 118 f;
#X msg 111 178 0 \, open alto/alto\$1.wav;
#X connect 0 0 10 0;
#X connect 0 1 14 0;
#X connect 2 0 3 0;
#X connect 3 0 4 0;
#X connect 4 0 0 0;
#X connect 5 0 17 0;
#X connect 6 0 7 0;
#X connect 6 1 18 0;
#X connect 7 0 0 0;
#X connect 8 0 9 0;
#X connect 9 0 11 0;
#X connect 10 0 1 0;
#X connect 11 0 12 0;
#X connect 12 0 10 1;
#X connect 13 0 14 1;
#X connect 14 0 15 0;
#X connect 15 0 16 0;
#X connect 16 1 6 0;
#X connect 17 0 6 0;
#X connect 17 0 15 1;
#X connect 18 0 0 0;
#X connect 18 0 2 0;
#X coords 0 -1 1 1 141 62 1 80 50;
#X restore 209 13 pd test-alto-wavs;
#N canvas 1 81 575 431 formants-definition 0;
#X text 58 38 selon Calliope (Tubach \, 1989);
#X msg 57 298 0 3389 4161 4231 3950 3570 4005 4038 3550 3805 3950;
#X obj 57 276 loadbang;
#X obj 58 201 loadbang;
#X obj 57 131 loadbang;
#X obj 57 63 loadbang;
#X msg 57 84 0 306 417 660 788 305 469 647 311 461 634;
#X msg 57 152 0 2456 2351 2080 1503 2046 1605 1690 804 855 1180;
#X msg 58 223 0 3389 3128 2954 2737 2535 2581 2753 2485 2756 2690;
#X obj 422 64 table formant1 20;
#X obj 422 84 table formant2 20;
#X obj 422 106 table formant3 20;
#X obj 422 127 table formant4 20;
#X obj 57 106 s formant1;
#X obj 57 174 s formant2;
#X obj 58 244 s formant3;
#X obj 57 319 s formant4;
#X connect 1 0 16 0;
#X connect 2 0 1 0;
#X connect 3 0 8 0;
#X connect 4 0 7 0;
#X connect 5 0 6 0;
#X connect 6 0 13 0;
#X connect 7 0 14 0;
#X connect 8 0 15 0;
#X restore 398 10 pd formants-definition;
#X obj 161 143 formant-filter \$0 1 1;
#X obj 201 165 formant-filter \$0 2 1;
#X obj 387 71 hsl 128 15 0 1 0 0 empty empty empty -2 -8 0 10 -262144
-1 -1 1098 1;
#X obj 384 145 s \$0-formant-pos;
#X obj 217 186 formant-filter \$0 3 0.5;
#X obj 239 206 formant-filter \$0 4 0.25;
#X floatatom 442 113 5 0 0 0 - - -;
#X floatatom 327 133 5 0 0 0 - - -;
#X obj 729 30 table \$0-indirect-table;
#X obj 662 29 loadbang;
#X msg 662 50 100;
#X obj 662 71 t f b, f 8;
#X obj 662 92 until;
#X obj 662 113 i;
#X obj 717 112 + 1;
#X msg 707 90 0;
#X obj 662 134 t b f, f 26;
#X obj 662 155 random 10;
#X obj 662 176 tabwrite \$0-indirect-table;
#X obj 421 257 hsl 500 15 0 1 0 0 empty empty empty -2 -8 0 10 -262144
-1 -1 0 1;
#X floatatom 475 299 5 0 0 0 - - -;
#X obj 418 331 s \$0-formant-indirect-pos;
#X obj 418 277 * 30;
#X obj 418 302 adjust 8;
#N canvas 1 81 472 373 micro 0;
#X obj 110 160 adc~ 5;
#X obj 45 202 limiter~;
#X obj 110 338 outlet~;
#X obj 106 122 hsl 86 15 0 1 0 1 empty empty empty -2 -8 0 10 -258113
-1 -1 8050 1;
#X obj 283 176 pow 2;
#X obj 110 304 *~;
#X msg 283 197 \$1 10;
#X obj 283 218 line~;
#X connect 0 0 5 0;
#X connect 3 0 4 0;
#X connect 4 0 6 0;
#X connect 5 0 2 0;
#X connect 6 0 7 0;
#X connect 7 0 5 1;
#X coords 0 -1 1 1 120 40 1 100 100;
#X restore 30 12 pd micro;
#X obj 561 33 r fromVideo;
#X obj 561 54 route G;
#X obj 561 75 unpack f f;
#X msg 384 31 \$1 100;
#X obj 384 52 line;
#N canvas 17 460 450 393 cross 0;
#X obj 114 120 hsl 86 15 0 1 0 1 empty empty empty -2 -8 0 10 -4034
-1 -1 0 1;
#X obj 109 150 pow 2;
#X obj 90 297 *~, f 5;
#X msg 109 171 \$1 10;
#X obj 109 192 line~;
#X obj 63 240 inlet~;
#X obj 203 240 inlet~;
#X obj 121 247 *~ -1;
#X obj 121 268 +~ 1;
#X obj 195 288 *~, f 5;
#X obj 127 357 outlet~;
#X obj 245 93 r CONTROL;
#X obj 245 114 route formant;
#X connect 0 0 1 0;
#X connect 1 0 3 0;
#X connect 2 0 10 0;
#X connect 3 0 4 0;
#X connect 4 0 7 0;
#X connect 4 0 9 1;
#X connect 5 0 2 0;
#X connect 6 0 9 0;
#X connect 7 0 8 0;
#X connect 8 0 2 1;
#X connect 9 0 10 0;
#X connect 11 0 12 0;
#X connect 12 0 0 0;
#X coords 0 -1 1 1 120 40 1 100 100;
#X restore 31 317 pd cross;
#X obj 31 362 outlet~;
#N canvas 200 100 190 200 nop~ 0;
#X obj 50 70 inlet~;
#X obj 50 140 outlet~;
#X connect 0 0 1 0;
#X restore 148 287 pd nop~;
#X obj 384 91 * 5;
#X obj 384 118 adjust 0;
#X text 411 92 (max 9);
#X obj 30 280 *~ 0;
#X connect 0 0 5 0;
#X connect 0 0 10 0;
#X connect 0 0 6 0;
#X connect 0 0 9 0;
#X connect 0 0 41 0;
#X connect 1 0 0 0;
#X connect 2 0 37 0;
#X connect 3 0 0 1;
#X connect 5 0 2 0;
#X connect 6 0 2 0;
#X connect 7 0 38 0;
#X connect 9 0 2 0;
#X connect 10 0 2 0;
#X connect 11 0 39 1;
#X connect 14 0 15 0;
#X connect 15 0 16 0;
#X connect 16 0 17 0;
#X connect 16 1 20 0;
#X connect 17 0 18 0;
#X connect 18 0 19 0;
#X connect 18 0 21 0;
#X connect 19 0 18 1;
#X connect 20 0 18 1;
#X connect 21 0 22 0;
#X connect 21 1 23 1;
#X connect 22 0 23 0;
#X connect 24 0 27 0;
#X connect 25 0 28 1;
#X connect 27 0 28 0;
#X connect 28 0 26 0;
#X connect 30 0 31 0;
#X connect 31 0 32 0;
#X connect 32 1 33 0;
#X connect 33 0 34 0;
#X connect 34 0 7 0;
#X connect 35 0 36 0;
#X connect 37 0 35 1;
#X connect 38 0 39 0;
#X connect 39 0 8 0;
#X connect 41 0 35 0;
