#N canvas 1 81 458 431 12;
#X obj 110 338 outlet~;
#X obj 255 212 pow 2;
#X msg 255 233 \$1 10;
#X obj 255 254 line~;
#X obj 248 106 vsl 15 80 0 1 0 0 empty empty empty 0 -9 0 10 -258113
-1 -1 0 1;
#X obj 104 125 vu 15 120 empty empty -1 -8 0 10 -66577 -1 1 0;
#X obj 166 341 prvu~ 100 1000 100;
#X obj 167 318 *~ 6;
#X obj 110 281 *~ 1;
#X obj 110 254 adc~ \$1;
#X connect 1 0 2 0;
#X connect 2 0 3 0;
#X connect 4 0 1 0;
#X connect 6 0 5 0;
#X connect 7 0 6 0;
#X connect 8 0 0 0;
#X connect 8 0 7 0;
#X connect 9 0 8 0;
#X coords 0 -1 1 1 52 150 1 100 100;
