#N canvas 175 255 590 780 12;
#X declare -lib Gem;
#X obj 76 60 declare -lib Gem;
#X msg 377 74 color 1 0 0;
#N canvas 87 154 247 179 Gem.init 0;
#X obj 118 46 loadbang;
#X msg 118 81 reset;
#X obj 118 113 outlet;
#X connect 0 0 1 0;
#X connect 1 0 2 0;
#X restore 395 100 pd Gem.init;
#N canvas 340 107 682 322 gemwin 0;
#X obj 102 122 tgl 15 0 \$0-gemstart \$0-gemstart empty 17 7 0 10 -262144
-1 -1 1 1;
#X obj 102 161 r \$0-gemstart;
#X obj 102 182 select 1 0;
#X msg 102 214 create \, 1;
#X msg 177 215 destroy;
#X obj 102 239 t a;
#X obj 318 54 inlet;
#X obj 318 255 gemwin;
#X obj 318 100 t a a;
#X obj 318 287 outlet;
#X obj 350 128 route create destroy;
#X obj 350 150 t b;
#X msg 350 172 1;
#X obj 390 150 t b;
#X msg 390 172 0;
#X obj 350 195 t f;
#X msg 350 219 set \$1;
#X text 118 122 rendering;
#X connect 1 0 2 0;
#X connect 2 0 3 0;
#X connect 2 1 4 0;
#X connect 3 0 5 0;
#X connect 4 0 5 0;
#X connect 5 0 8 0;
#X connect 6 0 8 0;
#X connect 7 0 9 0;
#X connect 8 0 7 0;
#X connect 8 1 10 0;
#X connect 10 0 11 0;
#X connect 10 1 13 0;
#X connect 11 0 12 0;
#X connect 12 0 15 0;
#X connect 13 0 14 0;
#X connect 14 0 15 0;
#X connect 15 0 16 0;
#X connect 16 0 0 0;
#X coords 0 -1 1 1 85 40 1 100 100;
#X restore 377 121 pd gemwin;
#X obj 97 116 gemhead;
#X obj 97 461 glsl_program;
#X obj 190 423 print linking;
#X obj 97 505 rotateXYZ;
#X floatatom 117 483 5 0 0 0 - - -;
#X floatatom 161 483 5 0 0 0 - - -;
#X floatatom 203 483 5 0 0 0 - - -;
#X obj 260 668 pix_texture;
#X obj 127 204 bng 15 250 50 0 empty empty empty 0 -6 0 8 -262144 -1
-1;
#X obj 97 291 glsl_fragment;
#X text 284 538 <- load texture;
#X obj 257 626 tgl 15 0 empty empty empty 17 7 0 10 -262144 -1 -1 0
1;
#X obj 145 568 pix_image img1.jpg;
#X msg 172 539 open img2.jpg;
#X text 159 202 <- load shader;
#X msg 290 643 rectangle \$1;
#X obj 290 600 r rectangle;
#X msg 53 261 print;
#X msg 60 434 print;
#X floatatom 213 466 0 0 0 0 - - -;
#X msg 172 380 link \$1;
#X obj 172 353 change;
#X msg 127 248 open mictable.frag;
#X obj 97 698 rectangle 4 3;
#X obj 127 173 loadbang;
#X connect 1 0 3 0;
#X connect 2 0 3 0;
#X connect 4 0 13 0;
#X connect 5 0 7 0;
#X connect 5 1 23 0;
#X connect 7 0 27 0;
#X connect 8 0 7 1;
#X connect 9 0 7 2;
#X connect 10 0 7 3;
#X connect 12 0 26 0;
#X connect 13 0 5 0;
#X connect 13 1 25 0;
#X connect 15 0 19 0;
#X connect 17 0 16 0;
#X connect 19 0 11 0;
#X connect 20 0 15 0;
#X connect 21 0 13 0;
#X connect 22 0 5 0;
#X connect 24 0 5 0;
#X connect 24 0 6 0;
#X connect 25 0 24 0;
#X connect 26 0 13 0;
#X connect 28 0 12 0;
