#N canvas 215 161 730 494 12;
#X obj 20 16 hsl 200 30 0 1 0 0 \$0-control-noise-snd \$0-control-noise-rcv
noise 20 15 0 14 -262144 -1 -1 0 1;
#X obj 20 50 hsl 200 30 0 1 0 0 \$0-control-mix_retard-snd \$0-control-mix_retard-rcv
mix_retard 20 15 0 14 -262144 -1 -1 0 1;
#X obj 20 84 hsl 200 30 0 1 0 0 \$0-control-mix_chocs-snd \$0-control-mix_chocs-rcv
mix_chocs(zebre) 5 15 0 14 -262144 -1 -1 4400 1;
#X obj 20 118 hsl 200 30 0 1 0 0 \$0-control-formant-snd \$0-control-formant-rcv
formant 20 15 0 14 -257985 -1 -1 0 1;
#X obj 229 16 tgl 30 0 \$0-control-freeze-snd \$0-control-freeze-rcv
freeze 32 15 0 14 -262144 -1 -1 0 1;
#X obj 20 152 hsl 200 30 0 1 0 0 \$0-control-delai-snd \$0-control-delai-rcv
delai 20 15 0 14 -257985 -1 -1 0 1;
#X obj 19 209 tgl 30 0 \$0-control-sampleur-snd \$0-control-sampleur-rcv
sampleur 32 15 0 14 -262144 -1 -1 0 1;
#X obj 22 242 hsl 80 30 0 1 0 0 \$0-control-sample_threshold-snd \$0-control-sample_threshold-rcv
threshold 5 15 0 14 -260097 -1 -1 3100 1;
#X obj 143 211 tgl 50 0 empty \$0-control-sample_detect detect 5 25
0 12 -260097 -1 -1 0 1;
#X obj 199 228 nbx 5 14 -1e+37 1e+37 0 0 empty \$0-control-sample_last
last 0 -8 0 10 -260097 -1 -1 0 256;
#X obj 232 85 hsl 80 30 0 1 0 0 \$0-control-choc_sens-snd \$0-control-choc_sens-rcv
sens 5 15 0 14 -4032 -1 -1 3500 1;
#X obj 317 85 bng 30 250 50 0 \$0-choc \$0-choc empty 17 7 0 10 -262144
-1 -1;
#X obj 382 16 hsl 200 30 0 1 0 0 \$0-control-lum-snd \$0-control-lum-rcv
lum 20 15 0 14 -261682 -1 -1 19900 1;
#X obj 382 50 hsl 200 30 0 1 0 0 \$0-control-contrast-snd \$0-control-contrast-rcv
contrast 20 15 0 14 -1 -262144 -262144 2100 1;
#X obj 382 83 hsl 200 30 0 1 0 0 \$0-control-sat-snd \$0-control-sat-rcv
sat 20 15 0 14 -4034 -1 -1 0 1;
#X obj 379 254 tgl 30 0 \$0-control-tigre-snd \$0-control-tigre-rcv
tigre 32 15 0 14 -262144 -1 -1 0 1;
#N canvas 161 215 777 481 notes_samedi 1;
#X text 76 111 charger des samples preenregistrés;
#X text 75 128 classer des samples préenregistrés de gauche à doite:
exemple de - en - harmoniques, f 84;
#X text 18 83 sampleur: spatialisation \; timestretch;
#X text 76 148 (jouer un son preerngistré en pitch droite-gauche /
polyphonique), f 84;
#X text 77 164 bruit blanc filtré gauche-droite (formant?) \, enveloppe
haut-bas - polyphonique, f 79;
#X restore 604 68 pd notes_samedi;
#N canvas 1 81 598 261 conduite 0;
#X text 116 33 rien;
#X text 114 66 alto: retard video;
#X text 111 92 saladier blam: négatif couleur;
#X text 108 117 saladier roule: effets son - enleve video fx - ajout
freeze;
#X restore 604 43 pd conduite;
#X obj 382 117 hsl 200 30 0 1 0 0 \$0-control-mask-snd \$0-control-mask-rcv
mask 20 15 0 14 -228856 -1 -1 19900 1;
#X obj 382 151 hsl 200 30 0 1 0 0 \$0-control-maskbg-snd \$0-control-maskbg-rcv
mask-background 20 15 0 14 -128992 -1 -1 0 1;
#X obj 382 185 hsl 200 30 0 1 0 0 \$0-control-solar-snd \$0-control-solar-rcv
solar 20 15 0 14 -203904 -1 -1 0 1;
#X obj 382 219 hsl 200 30 0 1 0 0 \$0-control-poster-snd \$0-control-poster-rcv
poster 20 15 0 14 -159808 -1 -1 0 1;
#X obj 229 51 tgl 30 0 \$0-control-fb-snd \$0-control-fb-rcv feedback
32 15 0 14 -262144 -1 -1 0 1;
#N canvas 141 487 886 704 guts 0;
#X obj 20 133 netsend -u -b;
#X obj 46 80 loadbang;
#X msg 46 104 connect chose.local 7654;
#X obj 20 14 r toCONTROL;
#X obj 20 48 oscformat /BTL;
#X obj 43 255 apmaster \$0-MASTER;
#X obj 46 345 apmasterfile \$0-MASTER OSCpresets.txt;
#X obj 46 297 loadbang;
#X obj 46 325 bng 15 250 50 0 empty empty empty 17 7 0 10 -4034 -1
-1;
#X obj 302 325 bng 15 250 50 0 empty empty empty 17 7 0 10 -258113
-1 -1;
#X obj 250 50 2ctl \$0 noise A;
#X obj 250 74 2ctl \$0 mix_retard A;
#X obj 250 97 2ctl \$0 mix_chocs A;
#X obj 250 119 2ctli \$0 mix_freeze A;
#X obj 250 140 2ctli \$0 fb A;
#X obj 251 172 2ctl \$0 choc_sens A;
#X obj 251 194 2ctl \$0 formant A;
#X obj 251 215 2ctl \$0 delai A;
#X obj 471 51 2ctl \$0 lum A;
#X obj 471 77 2ctl \$0 contrast A;
#X obj 471 100 2ctl \$0 sat A;
#X obj 471 124 2ctl \$0 mask A;
#X obj 471 146 2ctl \$0 maskbg A;
#X obj 471 168 2ctl \$0 solar A;
#X obj 471 192 2ctl \$0 poster A;
#X obj 471 214 2ctli \$0 tigre A;
#X obj 49 374 hsl 128 15 0 1 0 0 empty empty empty -2 -8 0 10 -262144
-1 -1 0 1;
#X obj 464 328 r \$0-pattern-snd;
#X obj 464 352 t b f, f 10;
#X obj 464 539 list trim;
#X obj 464 563 s \$0-MASTER-A-pattern-snd;
#X obj 464 514 list prepend _all_;
#X obj 464 410 f;
#X obj 482 385 r \$0-fade_time;
#X obj 308 462 r \$0-fade_time-snd;
#X obj 308 486 * 100;
#X obj 308 510 i;
#X obj 308 534 change;
#X obj 308 558 / 10;
#X obj 308 608 s \$0-fade_time-rcv;
#X msg 308 582 label fade_time:\$1_s;
#X obj 233 608 * 1000;
#X obj 233 634 s \$0-fade_time;
#X msg 464 434 0 \, 1 \$1;
#X obj 464 458 line;
#X msg 464 482 pos \$1;
#X msg 531 482 A -1 \, B \$1;
#X obj 250 268 2ctl \$0 sample_threshold B;
#X obj 47 395 MORPHgroup \$0-MASTER B;
#X obj 250 247 2ctl \$0 sampleur A;
#X obj 302 301 r \$0-savepatterns-snd;
#X obj 646 328 r \$0-control-sampleur_bank-snd;
#X obj 646 352 sel 0 1 2;
#X obj 763 385 - 2;
#X msg 646 386 rec;
#X msg 677 386 hold;
#X msg 717 386 noise;
#X msg 763 409 bank_\$1;
#X obj 646 443 symbol;
#X msg 646 467 label \$1;
#X obj 646 491 s \$0-control-sampleur_bank-rcv;
#X obj 471 249 2ctli \$0 sampleur_bank A;
#X obj 656 149 r \$0-choc;
#X obj 656 209 s toCONTROL;
#X msg 656 185 list choc 0.5 0.5;
#X obj 249 14 2ctl \$0 freeze Z;
#X connect 1 0 2 0;
#X connect 2 0 0 0;
#X connect 3 0 4 0;
#X connect 4 0 0 0;
#X connect 7 0 8 0;
#X connect 8 0 6 0;
#X connect 9 0 6 1;
#X connect 27 0 28 0;
#X connect 28 0 32 0;
#X connect 28 1 46 0;
#X connect 29 0 30 0;
#X connect 31 0 29 0;
#X connect 32 0 43 0;
#X connect 33 0 32 1;
#X connect 34 0 35 0;
#X connect 35 0 36 0;
#X connect 36 0 37 0;
#X connect 37 0 38 0;
#X connect 38 0 40 0;
#X connect 38 0 41 0;
#X connect 40 0 39 0;
#X connect 41 0 42 0;
#X connect 43 0 44 0;
#X connect 44 0 45 0;
#X connect 45 0 31 0;
#X connect 46 0 31 0;
#X connect 50 0 9 0;
#X connect 51 0 52 0;
#X connect 52 0 54 0;
#X connect 52 1 55 0;
#X connect 52 2 56 0;
#X connect 52 3 53 0;
#X connect 53 0 57 0;
#X connect 54 0 58 0;
#X connect 55 0 58 0;
#X connect 56 0 58 0;
#X connect 57 0 58 0;
#X connect 58 0 59 0;
#X connect 59 0 60 0;
#X connect 62 0 64 0;
#X connect 64 0 63 0;
#X restore 606 17 pd guts;
#X obj 22 412 MORPHgroup \$0-MASTER A;
#X obj 21 364 hradio 30 1 0 16 \$0-pattern-snd \$0-pattern-rcv empty
0 -8 0 10 -262144 -1 -1 0;
#X obj 24 329 hsl 200 30 0 1 0 0 \$0-fade_time-snd \$0-fade_time-rcv
fade_time:0.9_s 20 15 0 14 -262144 -1 -1 1800 1;
#X obj 20 291 hradio 30 1 0 7 \$0-control-sampleur_bank-snd \$0-control-sampleur_bank-rcv
bank_1 0 -8 0 14 -99865 -258113 -1 3;
#X obj 314 431 bng 30 250 50 0 \$0-savepatterns-snd \$0-savepatterns-rcv
SAVE 32 15 0 14 -258113 -1 -1;
