#N canvas 35 371 776 535 12;
#X declare -path ggee;
#X obj 20 16 hsl 200 30 0 1 0 0 \$0-control-noise-snd \$0-control-noise-rcv
noise 20 15 0 14 -262144 -1 -1 0 1;
#X obj 20 50 hsl 200 30 0 1 0 0 \$0-control-mix_retard-snd \$0-control-mix_retard-rcv
mix_retard 20 15 0 14 -262144 -1 -1 0 1;
#X obj 20 84 hsl 200 30 0 1 0 0 \$0-control-mix_chocs-snd \$0-control-mix_chocs-rcv
mix_chocs(zebre) 5 15 0 14 -262144 -1 -1 0 1;
#X obj 20 118 hsl 200 30 0 1 0 0 \$0-control-formant-snd \$0-control-formant-rcv
formant 20 15 0 14 -257985 -1 -1 19900 1;
#X obj 229 16 tgl 30 0 \$0-control-freeze-snd \$0-control-freeze-rcv
freeze 32 15 0 14 -262144 -1 -1 0 1;
#X obj 20 152 hsl 200 30 0 1 0 0 \$0-control-delai-snd \$0-control-delai-rcv
delai 20 15 0 14 -257985 -1 -1 0 1;
#X obj 19 209 tgl 30 0 \$0-control-sampleur-snd \$0-control-sampleur-rcv
sampleur 32 15 0 14 -262144 -1 -1 1 1;
#X obj 163 210 hsl 80 30 0 1 0 0 \$0-control-sample_threshold-snd \$0-control-sample_threshold-rcv
threshold 5 15 0 14 -260097 -1 -1 500 1;
#X obj 251 210 tgl 50 0 empty \$0-control-sample_detect detect 5 25
0 12 -260097 -1 -1 0 1;
#X obj 304 210 nbx 2 30 -1e+37 1e+37 0 0 empty \$0-control-sample_last
last 0 -8 0 14 -260097 -1 -1 7 256;
#X obj 232 85 hsl 80 30 0 1 0 0 \$0-control-choc_sens-snd \$0-control-choc_sens-rcv
sens_choc 2 15 0 14 -4032 -1 -1 0 1;
#X obj 317 85 bng 30 100 50 0 \$0-choc-snd \$0-choc-rcv empty 17 7
0 10 -262144 -258699 -1;
#X obj 382 16 hsl 200 30 0 1 0 0 \$0-control-lum-snd \$0-control-lum-rcv
lum 20 15 0 14 -261682 -1 -1 15000 1;
#X obj 382 50 hsl 200 30 0 1 0 0 \$0-control-contrast-snd \$0-control-contrast-rcv
contrast 20 15 0 14 -1 -262144 -262144 6900 1;
#X obj 382 83 hsl 200 30 0 1 0 0 \$0-control-sat-snd \$0-control-sat-rcv
sat 20 15 0 14 -4034 -1 -1 3600 1;
#X obj 379 254 tgl 30 0 \$0-control-tigre-snd \$0-control-tigre-rcv
tigre 32 15 0 14 -262144 -1 -1 0 1;
#N canvas 151 205 777 481 notes_samedi 0;
#X text 76 111 charger des samples preenregistrés;
#X text 75 128 classer des samples préenregistrés de gauche à doite:
exemple de - en - harmoniques, f 84;
#X text 18 83 sampleur: spatialisation \; timestretch;
#X text 76 148 (jouer un son preerngistré en pitch droite-gauche /
polyphonique), f 84;
#X text 77 164 bruit blanc filtré gauche-droite (formant?) \, enveloppe
haut-bas - polyphonique, f 79;
#X restore 604 68 pd notes_samedi;
#N canvas 1 81 598 261 conduite 0;
#X text 116 33 rien;
#X text 114 66 alto: retard video;
#X text 111 92 saladier blam: négatif couleur;
#X text 108 117 saladier roule: effets son - enleve video fx - ajout
freeze;
#X restore 604 43 pd conduite;
#X obj 382 117 hsl 200 30 0 1 0 0 \$0-control-mask-snd \$0-control-mask-rcv
mask 20 15 0 14 -228856 -1 -1 19900 1;
#X obj 382 151 hsl 200 30 0 1 0 0 \$0-control-maskbg-snd \$0-control-maskbg-rcv
mask-background 20 15 0 14 -128992 -1 -1 0 1;
#X obj 382 185 hsl 200 30 0 1 0 0 \$0-control-solar-snd \$0-control-solar-rcv
solar 20 15 0 14 -203904 -1 -1 0 1;
#X obj 382 219 hsl 200 30 0 1 0 0 \$0-control-poster-snd \$0-control-poster-rcv
poster 20 15 0 14 -159808 -1 -1 19900 1;
#X obj 229 51 tgl 30 0 \$0-control-fb-snd \$0-control-fb-rcv feedback
32 15 0 14 -262144 -1 -1 0 1;
#N canvas 156 142 1107 715 guts 0;
#X obj 20 133 netsend -u -b;
#X obj 46 80 loadbang;
#X obj 20 14 r toCONTROL;
#X obj 20 48 oscformat /BTL;
#X obj 43 255 apmaster \$0-MASTER;
#X obj 46 345 apmasterfile \$0-MASTER OSCpresets.txt;
#X obj 46 297 loadbang;
#X obj 46 325 bng 15 250 50 0 empty empty empty 17 7 0 10 -4034 -1
-1;
#X obj 302 325 bng 15 250 50 0 empty empty empty 17 7 0 10 -258113
-1 -1;
#X obj 250 50 2ctl \$0 noise A;
#X obj 250 74 2ctl \$0 mix_retard A;
#X obj 250 97 2ctl \$0 mix_chocs A;
#X obj 250 119 2ctli \$0 mix_freeze A;
#X obj 250 140 2ctli \$0 fb A;
#X obj 251 172 2ctl \$0 choc_sens A;
#X obj 251 194 2ctl \$0 formant A;
#X obj 251 215 2ctl \$0 delai A;
#X obj 471 51 2ctl \$0 lum A;
#X obj 471 77 2ctl \$0 contrast A;
#X obj 471 100 2ctl \$0 sat A;
#X obj 471 124 2ctl \$0 mask A;
#X obj 471 146 2ctl \$0 maskbg A;
#X obj 471 168 2ctl \$0 solar A;
#X obj 471 192 2ctl \$0 poster A;
#X obj 471 214 2ctli \$0 tigre A;
#X obj 49 374 hsl 128 15 0 1 0 0 empty empty empty -2 -8 0 10 -262144
-1 -1 0 1;
#X obj 464 328 r \$0-pattern-snd;
#X obj 464 352 t b f, f 10;
#X obj 464 539 list trim;
#X obj 464 563 s \$0-MASTER-A-pattern-snd;
#X obj 464 514 list prepend _all_;
#X obj 464 410 f;
#X obj 482 385 r \$0-fade_time;
#X obj 308 462 r \$0-fade_time-snd;
#X obj 308 540 i;
#X obj 308 564 change;
#X obj 308 588 / 10;
#X obj 308 638 s \$0-fade_time-rcv;
#X msg 308 612 label fade_time:\$1_s;
#X obj 233 638 * 1000;
#X obj 233 664 s \$0-fade_time;
#X msg 464 434 0 \, 1 \$1;
#X obj 464 458 line;
#X msg 464 482 pos \$1;
#X msg 531 482 A -1 \, B \$1;
#X obj 250 268 2ctl \$0 sample_threshold B;
#X obj 47 395 MORPHgroup \$0-MASTER B;
#X obj 250 247 2ctl \$0 sampleur A;
#X obj 302 301 r \$0-savepatterns-snd;
#X obj 642 331 r \$0-control-sampleur_bank-snd;
#X obj 642 355 sel 0 1 2;
#X obj 759 388 - 2;
#X msg 673 389 hold;
#X msg 713 389 noise;
#X msg 759 412 bank_\$1;
#X obj 642 446 symbol;
#X msg 642 470 label \$1;
#X obj 642 494 s \$0-control-sampleur_bank-rcv;
#X obj 471 249 2ctli \$0 sampleur_bank A;
#X obj 697 254 s toCONTROL;
#X msg 697 230 list choc 0.5 0.5;
#X obj 470 12 2ctl \$0 audiomaster Z;
#X obj 697 206 r \$0-choc-snd;
#X obj 661 62 bng 15 250 50 0 empty empty empty 17 7 0 10 -262144 -1
-1;
#X obj 709 23 netreceive -u 7656;
#X obj 672 173 s \$0-choc-rcv;
#X obj 709 72 b;
#X obj 662 82 bng 15 250 50 0 empty empty empty 17 7 0 10 -262144 -1
-1;
#X msg 672 147 color 13 0 22;
#X msg 709 120 color 0 13 22;
#X obj 709 95 del 100;
#X obj 709 47 route choc sample;
#X obj 782 74 route sample detect;
#X obj 847 100 s \$0-control-sample_detect;
#X obj 817 125 s \$0-control-sample_last;
#X obj 470 270 2ctli \$0 sampleur_single A;
#N canvas 1 81 612 280 MIDI 0;
#X floatatom 201 87 0 0 0 0 - - -;
#X obj 182 38 notein;
#X floatatom 182 110 0 0 0 0 - - -;
#X floatatom 221 64 0 0 0 0 - - -;
#X text 231 88 velocity;
#X text 250 66 channel;
#X floatatom 44 85 0 0 0 0 - - -;
#X floatatom 28 107 0 0 0 0 - - -;
#X floatatom 60 62 0 0 0 0 - - -;
#X obj 28 37 ctlin;
#X text 59 108 value;
#X text 91 63 channel;
#X text 75 85 controller #;
#X text 212 110 note;
#X obj 28 135 pack f f f;
#X obj 182 136 pack f f f;
#X msg 28 159 ctl \$3 \$2 \$1;
#X msg 182 160 note \$3 \$1 \$2;
#X obj 182 218 s MIDIIN;
#X obj 314 35 r MIDIIN;
#X obj 314 59 route note;
#X obj 314 83 unpack f f f;
#X obj 395 109 != 0;
#X obj 314 135 pack f f f, f 12;
#X obj 445 36 r MIDIIN;
#X obj 445 84 unpack f f f;
#X obj 445 61 route notetmp;
#X obj 445 114 pack f f;
#X obj 445 138 spigot, f 12;
#X msg 314 161 notetmp \$1 \$2 \$3;
#X msg 445 162 notetrig \$1 \$2 bang;
#X connect 0 0 15 1;
#X connect 1 0 2 0;
#X connect 1 1 0 0;
#X connect 1 2 3 0;
#X connect 2 0 15 0;
#X connect 3 0 15 2;
#X connect 6 0 14 1;
#X connect 7 0 14 0;
#X connect 8 0 14 2;
#X connect 9 0 7 0;
#X connect 9 1 6 0;
#X connect 9 2 8 0;
#X connect 14 0 16 0;
#X connect 15 0 17 0;
#X connect 16 0 18 0;
#X connect 17 0 18 0;
#X connect 19 0 20 0;
#X connect 20 0 21 0;
#X connect 21 0 23 0;
#X connect 21 1 23 1;
#X connect 21 2 22 0;
#X connect 22 0 23 2;
#X connect 23 0 29 0;
#X connect 24 0 26 0;
#X connect 25 0 27 0;
#X connect 25 1 27 1;
#X connect 25 2 28 1;
#X connect 26 0 25 0;
#X connect 27 0 28 0;
#X connect 28 0 30 0;
#X connect 29 0 18 0;
#X connect 30 0 18 0;
#X restore 708 539 pd MIDI;
#X msg 50 180 connect chose.local 7654;
#X msg 46 104 connect localhost 7654;
#X obj 40 619 declare -path ggee;
#X obj 869 356 sel 0 1 2;
#X obj 869 447 symbol;
#X obj 869 332 r \$0-control-mic_choice-snd;
#X obj 869 495 s \$0-control-mic_choice-rcv;
#X msg 869 390 table;
#X msg 921 389 HF;
#X msg 869 471 label mic:\$1;
#X obj 795 294 2ctl \$0 mic_choice Z;
#X obj 308 516 * 1800;
#X obj 308 489 pow 3;
#X msg 607 408 rec:\$1;
#X obj 607 384 f 1;
#X obj 249 14 2ctl \$0 freeze A notetrig 1 20;
#X connect 1 0 78 0;
#X connect 2 0 3 0;
#X connect 3 0 0 0;
#X connect 6 0 7 0;
#X connect 7 0 5 0;
#X connect 8 0 5 1;
#X connect 26 0 27 0;
#X connect 27 0 31 0;
#X connect 27 1 44 0;
#X connect 28 0 29 0;
#X connect 30 0 28 0;
#X connect 31 0 41 0;
#X connect 32 0 31 1;
#X connect 33 0 89 0;
#X connect 34 0 35 0;
#X connect 35 0 36 0;
#X connect 36 0 38 0;
#X connect 36 0 39 0;
#X connect 38 0 37 0;
#X connect 39 0 40 0;
#X connect 41 0 42 0;
#X connect 42 0 43 0;
#X connect 43 0 30 0;
#X connect 44 0 30 0;
#X connect 48 0 8 0;
#X connect 49 0 50 0;
#X connect 50 0 91 0;
#X connect 50 1 52 0;
#X connect 50 2 53 0;
#X connect 50 3 51 0;
#X connect 51 0 54 0;
#X connect 51 0 91 1;
#X connect 52 0 55 0;
#X connect 53 0 55 0;
#X connect 54 0 55 0;
#X connect 55 0 56 0;
#X connect 56 0 57 0;
#X connect 60 0 59 0;
#X connect 62 0 60 0;
#X connect 64 0 71 0;
#X connect 66 0 68 0;
#X connect 66 0 70 0;
#X connect 67 0 66 0;
#X connect 68 0 65 0;
#X connect 69 0 65 0;
#X connect 70 0 69 0;
#X connect 71 0 63 0;
#X connect 71 0 66 0;
#X connect 71 1 72 0;
#X connect 72 0 74 0;
#X connect 72 1 73 0;
#X connect 78 0 0 0;
#X connect 80 0 84 0;
#X connect 80 1 85 0;
#X connect 81 0 86 0;
#X connect 82 0 80 0;
#X connect 84 0 81 0;
#X connect 85 0 81 0;
#X connect 86 0 83 0;
#X connect 88 0 34 0;
#X connect 89 0 88 0;
#X connect 90 0 55 0;
#X connect 91 0 90 0;
#X restore 606 17 pd guts;
#X obj 19 443 MORPHgroup \$0-MASTER A;
#X obj 21 364 hradio 30 1 0 16 \$0-pattern-snd \$0-pattern-rcv 1____2____3____4___5___6___7___8___9___10___11___12__13__14__15__16
0 37 0 12 -262144 -1 -1 5;
#X obj 24 329 hsl 200 30 0 1 0 0 \$0-fade_time-snd \$0-fade_time-rcv
fade_time:6.2_s 20 15 0 14 -262144 -1 -1 6500 1;
#X obj 20 271 hradio 30 1 0 7 \$0-control-sampleur_bank-snd \$0-control-sampleur_bank-rcv
hold 0 -8 0 14 -99865 -258113 -1 1;
#X obj 311 462 bng 30 250 50 0 \$0-savepatterns-snd \$0-savepatterns-rcv
SAVE 32 15 0 14 -258113 -1 -1;
#X obj 447 305 hsl 200 30 0 1 0 0 \$0-control-audiomaster-snd \$0-control-audiomaster-rcv
audiomaster 20 15 0 14 -258113 -1 -1 13900 1;
#X obj 236 271 tgl 30 0 \$0-control-sampleur_single-snd \$0-control-sampleur_single-rcv
single 32 15 0 14 -99865 -1 -1 0 1;
#N canvas 769 129 450 300 choc 0;
#X obj 59 29 inlet;
#X obj 141 28 inlet;
#X obj 244 25 inlet;
#X obj 41 75 f;
#X obj 41 99 pack f f;
#X obj 243 49 b;
#X obj 41 247 s toCONTROL;
#X obj 263 245 outlet;
#X obj 260 155 loadbang;
#X msg 263 198 size 180 80;
#X msg 271 223 color grey 0;
#X obj 41 123 unpack f f;
#X obj 41 195 pack f f, f 10;
#X msg 41 223 list choc \$1 \$2;
#X obj 108 146 / -40;
#X obj 108 170 + 1;
#X obj 41 147 / 90;
#X obj 41 171 - 1;
#X floatatom -1 204 5 0 0 0 - - -;
#X connect 0 0 3 1;
#X connect 1 0 4 1;
#X connect 2 0 5 0;
#X connect 3 0 4 0;
#X connect 4 0 11 0;
#X connect 5 0 3 0;
#X connect 9 0 7 0;
#X connect 10 0 7 0;
#X connect 11 0 16 0;
#X connect 11 1 14 0;
#X connect 12 0 13 0;
#X connect 13 0 6 0;
#X connect 14 0 15 0;
#X connect 15 0 12 1;
#X connect 16 0 17 0;
#X connect 17 0 12 0;
#X connect 17 0 18 0;
#X restore 525 479 pd choc;
#X f 25;
#X obj 525 390 gcanvas 180 80;
#X obj 252 156 tgl 50 0 \$0-control-mic_choice-snd \$0-control-mic_choice-rcv
mic:HF 5 25 0 12 -260097 -1 -1 0 1;
#N canvas 20 350 543 459 notes_semaines_9mars 1;
#X text 35 57 sampleur: ajouter controles de l'enveloppe + random;
#X text 114 72 + random pitch;
#X text 33 22 effet ("delai spectral") sur premier son de la table
;
#X text 40 103 envoyer les sons des banques par mail;
#X text 46 139 noise: supperposer aux samples + enveloppe plus longue-exponentielle
(un peu comme une reverb) \; plus fort en haut \, plus faible en bas
, f 69;
#X text 51 217 sampleur: charger toutes les banques \, pour pouvoir
cross-mixer 2 banques, f 65;
#X text 51 267 20 presets au lieu de 16;
#X text 51 299 pouvoir teinter l'image N/B (-> mapper formant sur teinte)
;
#X text 54 337 ajouter couche film préenregistré au dessus;
#X text 50 373 resize lors du chargement des banques;
#X restore 602 96 pd notes_semaines_9mars;
#X connect 31 0 32 0;
#X connect 32 0 31 0;
#X connect 32 1 31 1;
#X connect 32 2 31 2;
