#N canvas 91 676 284 242 12;
#X obj 48 99 *~;
#X obj 48 150 limiter~;
#X obj 48 171 *~;
#X obj 65 124 z~ 64;
#X obj 48 202 dac~ 1;
#X obj 65 58 r~ mastervol;
#X obj 126 83 loadbang;
#X obj 126 107 f \$1;
#X obj 126 131 + 1;
#X msg 126 155 set \$1;
#X obj 49 25 catch~ out\$1;
#X connect 0 0 1 0;
#X connect 0 0 3 0;
#X connect 1 0 2 0;
#X connect 2 0 4 0;
#X connect 3 0 2 1;
#X connect 5 0 0 1;
#X connect 6 0 7 0;
#X connect 7 0 8 0;
#X connect 8 0 9 0;
#X connect 9 0 4 0;
#X connect 10 0 0 0;
