#N canvas 71 656 555 324 12;
#X obj 48 99 *~;
#X obj 48 170 limiter~;
#X obj 48 194 *~;
#X obj 65 146 z~ 64;
#X obj 48 222 dac~ 1;
#X obj 65 58 r~ mastervol;
#X obj 126 83 loadbang;
#X obj 126 107 f \$1;
#X obj 126 131 + 1;
#X msg 126 155 set \$1;
#X obj 49 25 catch~ out\$1;
#X obj 165 235 prvu~ 100 1000 100;
#X obj 166 212 *~ 6;
#X obj 165 259 outlet;
#X obj 179 28 catch~ outdirect\$1;
#X obj 48 123 +~;
#X connect 0 0 15 0;
#X connect 1 0 2 0;
#X connect 2 0 4 0;
#X connect 2 0 12 0;
#X connect 3 0 2 1;
#X connect 5 0 0 1;
#X connect 6 0 7 0;
#X connect 7 0 8 0;
#X connect 8 0 9 0;
#X connect 9 0 4 0;
#X connect 10 0 0 0;
#X connect 11 0 13 0;
#X connect 12 0 11 0;
#X connect 14 0 15 0;
#X connect 15 0 1 0;
#X connect 15 0 3 0;
