#N canvas 532 391 747 315 12;
#X obj 41 33 r~ sampleur_in;
#X obj 177 30 r sampleur_sample;
#X obj 177 54 sel \$1;
#X obj 191 92 bng 15 250 50 0 empty empty empty 17 7 0 10 -262144 -1
-1;
#X obj 41 57 delwrite~ \$0-d 100;
#X obj 41 102 delread~ \$0-d 10;
#X obj 332 29 r sampleur_file;
#X obj 332 53 route load save;
#X obj 481 29 r sampleur_filebank;
#X obj 481 53 f;
#X msg 481 112 symbol samples/bank\$1/\$2.wav;
#X obj 481 82 list append \$1;
#X obj 337 256 soundfiler;
#X obj 332 138 symbol;
#X obj 332 77 b;
#X obj 383 76 b;
#X obj 629 28 loadbang;
#X msg 629 52 1;
#X obj 423 144 symbol;
#X obj 425 87 bng 15 250 50 0 empty empty empty 17 7 0 10 -262144 -1
-1;
#X obj 182 119 table sample-\$1 88000;
#X obj 42 158 tabwrite~ sample-\$1;
#X obj 265 174 list append \$1;
#X obj 423 168 list append \$1;
#X msg 265 199 read \$1 sample-\$2;
#X msg 423 197 write \$1 sample-\$2;
#X connect 0 0 4 0;
#X connect 1 0 2 0;
#X connect 2 0 3 0;
#X connect 2 0 21 0;
#X connect 5 0 21 0;
#X connect 6 0 7 0;
#X connect 7 0 14 0;
#X connect 7 1 15 0;
#X connect 8 0 9 0;
#X connect 9 0 11 0;
#X connect 10 0 13 1;
#X connect 10 0 18 1;
#X connect 11 0 10 0;
#X connect 13 0 22 0;
#X connect 14 0 13 0;
#X connect 15 0 18 0;
#X connect 16 0 17 0;
#X connect 17 0 9 0;
#X connect 18 0 23 0;
#X connect 19 0 15 0;
#X connect 22 0 24 0;
#X connect 23 0 25 0;
#X connect 24 0 12 0;
#X connect 25 0 12 0;
