#N canvas 99 194 503 677 12;
#X obj 61 42 r sampleur_play;
#X obj 62 496 *~;
#X obj 61 74 route \$1;
#X text 63 22 voice sample pitch pan attack sustain release;
#X msg 332 278 0 2 \, 1 \$1 2 \, 0 \$3 \$4;
#X obj 332 254 pack f f f f, f 15;
#X obj 332 302 vline~;
#X obj 332 331 *~;
#X obj 61 111 t b a, f 9;
#X obj 61 156 del 2;
#X obj 61 180 list, f 9;
#X obj 62 530 motex/pan~;
#X obj 61 627 throw~ out0;
#X obj 150 627 throw~ out1;
#X obj 302 419 i;
#X msg 78 596 set out\$1;
#X msg 161 596 set out\$1;
#X obj 302 467 + 1;
#X obj 256 419 -;
#X obj 256 443 - 0.5;
#X obj 256 392 t f f, f 7;
#X obj 256 467 * 90;
#X msg 256 365 \$3;
#N canvas 1 81 415 430 sample 0;
#X msg 74 271 0 \, 88000 \$1;
#X obj 74 218 * 88000;
#X obj 74 242 / 44.1;
#X obj 74 295 line~;
#X msg 165 272 set sample-\$1;
#X msg 74 114 \$2;
#X obj 74 138 mtof;
#X msg 108 112 0;
#X obj 74 186 /;
#X floatatom 136 217 5 0 0 0 - - -;
#X msg 74 162 8.1758 \$1;
#X msg 140 112 12;
#X obj 74 319 tabread4~ sample-0;
#X obj 74 363 outlet~;
#X obj 74 40 inlet;
#X obj 140 45 inlet;
#X obj 140 69 switch~;
#X obj 74 71 spigot;
#X obj 180 216 clip 0 15;
#X obj 180 240 i;
#X connect 0 0 3 0;
#X connect 1 0 2 0;
#X connect 2 0 0 0;
#X connect 3 0 12 0;
#X connect 4 0 12 0;
#X connect 5 0 6 0;
#X connect 6 0 10 0;
#X connect 7 0 6 0;
#X connect 8 0 1 0;
#X connect 8 0 9 0;
#X connect 10 0 8 0;
#X connect 11 0 6 0;
#X connect 12 0 13 0;
#X connect 14 0 17 0;
#X connect 15 0 16 0;
#X connect 15 0 17 1;
#X connect 17 0 5 0;
#X connect 17 0 18 0;
#X connect 18 0 19 0;
#X connect 19 0 4 0;
#X restore 61 322 pd sample;
#N canvas 1 81 453 432 noise 1;
#X obj 70 363 outlet~;
#X obj 215 44 inlet;
#X obj 70 214 formant-filter \$0 1 1;
#X obj 110 236 formant-filter \$0 2 1;
#X obj 126 257 formant-filter \$0 3 0.5;
#X obj 148 277 formant-filter \$0 4 0.25;
#X obj 339 44 inlet;
#X obj 339 68 switch~;
#X msg 215 68 \$1;
#X floatatom 174 129 5 0 0 0 - - -;
#X obj 215 123 s \$0-formant-pos;
#X obj 306 74 tgl 15 0 empty empty empty 17 7 0 10 -262144 -1 -1 1
1;
#X obj 215 95 * 9;
#X obj 70 66 noise~;
#X obj 71 119 lop~ 2000;
#X connect 1 0 8 0;
#X connect 2 0 0 0;
#X connect 3 0 0 0;
#X connect 4 0 0 0;
#X connect 5 0 0 0;
#X connect 6 0 7 0;
#X connect 6 0 11 0;
#X connect 8 0 12 0;
#X connect 12 0 10 0;
#X connect 13 0 14 0;
#X connect 14 0 2 0;
#X connect 14 0 5 0;
#X connect 14 0 4 0;
#X connect 14 0 3 0;
#X restore 138 322 pd noise;
#X obj 121 241 r sampleur_mode;
#X obj 121 265 == 2;
#X obj 121 292 == 0;
#X obj 51 239 loadbang;
#X msg 51 263 1;
#X obj 302 443 change -1;
#X obj 138 352 *~ 0.2;
#X obj 332 186 expr $f4 \; $f4+2 \; $f6 \; 2+$f4+$f5, f 15;
#X connect 0 0 2 0;
#X connect 1 0 11 0;
#X connect 2 0 8 0;
#X connect 4 0 6 0;
#X connect 5 0 4 0;
#X connect 6 0 7 0;
#X connect 6 0 7 1;
#X connect 7 0 1 1;
#X connect 8 0 9 0;
#X connect 8 1 10 1;
#X connect 8 1 32 0;
#X connect 9 0 10 0;
#X connect 10 0 22 0;
#X connect 10 0 23 0;
#X connect 10 0 24 0;
#X connect 11 0 12 0;
#X connect 11 1 13 0;
#X connect 14 0 18 1;
#X connect 14 0 30 0;
#X connect 15 0 12 0;
#X connect 16 0 13 0;
#X connect 17 0 16 0;
#X connect 18 0 19 0;
#X connect 19 0 21 0;
#X connect 20 0 18 0;
#X connect 20 1 14 0;
#X connect 21 0 11 1;
#X connect 22 0 20 0;
#X connect 23 0 1 0;
#X connect 24 0 31 0;
#X connect 25 0 26 0;
#X connect 26 0 27 0;
#X connect 26 0 24 1;
#X connect 27 0 23 1;
#X connect 28 0 29 0;
#X connect 29 0 23 1;
#X connect 30 0 15 0;
#X connect 30 0 17 0;
#X connect 31 0 1 0;
#X connect 32 0 5 0;
#X connect 32 1 5 1;
#X connect 32 2 5 2;
#X connect 32 3 5 3;
