#N canvas 634 443 814 563 12;
#X obj 95 38 inlet~;
#N canvas 584 234 450 590 thres 0;
#X obj 113 70 inlet~;
#X obj 114 112 env~;
#X obj 114 136 > 80;
#X obj 114 200 sel 0 1, f 12;
#X msg 124 237 stop;
#X msg 185 292 1;
#X obj 185 268 del 10;
#X msg 162 238 stop;
#X msg 114 292 0;
#X obj 114 324 change;
#X obj 63 372 tgl 15 0 empty empty empty 17 7 0 10 -262144 -1 -1 0
1;
#X floatatom 71 138 5 0 0 0 - - -;
#X obj 114 168 change;
#X obj 114 267 del 150;
#X obj 114 376 i;
#X obj 158 379 + 1;
#X obj 114 493 s sampleur_sample;
#X obj 114 350 sel 1;
#X obj 266 319 bng 100 250 50 0 empty empty empty 17 7 0 10 -262144
-1 -1;
#X msg 170 108 80;
#X obj 207 91 nbx 5 14 -1e+37 1e+37 0 0 empty empty empty 0 -8 0 10
-262144 -1 -1 0 256;
#X obj 266 59 inlet;
#X obj 66 506 outlet;
#X obj 114 468 spigot 1;
#X obj 182 432 r sampleur_mode;
#X obj 182 456 == 0;
#X obj 158 403 mod 8;
#X floatatom 18 452 5 0 0 0 - - -;
#X connect 0 0 1 0;
#X connect 1 0 2 0;
#X connect 2 0 12 0;
#X connect 3 0 7 0;
#X connect 3 0 13 0;
#X connect 3 1 4 0;
#X connect 3 1 6 0;
#X connect 4 0 13 0;
#X connect 5 0 9 0;
#X connect 6 0 5 0;
#X connect 7 0 6 0;
#X connect 8 0 9 0;
#X connect 9 0 10 0;
#X connect 9 0 17 0;
#X connect 9 0 22 0;
#X connect 12 0 3 0;
#X connect 13 0 8 0;
#X connect 14 0 15 0;
#X connect 14 0 23 0;
#X connect 14 0 27 0;
#X connect 15 0 26 0;
#X connect 17 0 14 0;
#X connect 17 0 18 0;
#X connect 19 0 2 1;
#X connect 20 0 2 1;
#X connect 21 0 2 1;
#X connect 23 0 16 0;
#X connect 24 0 25 0;
#X connect 25 0 23 1;
#X connect 26 0 14 1;
#X restore 209 91 pd thres;
#X obj 94 91 s~ sampleur_in;
#X obj 443 46 r CHOC;
#X obj 309 233 unpack f f;
#X obj 377 258 > 0;
#X obj 377 282 * 2;
#X obj 309 261 > 0;
#X obj 309 285 +;
#X obj 513 500 s sampleur_play;
#X floatatom 262 287 5 0 0 0 - - -;
#X obj 524 241 hradio 15 1 0 4 empty empty empty 0 -8 0 10 -262144
-1 -1 1;
#X obj 265 22 hsl 128 15 60 90 0 1 empty empty empty -2 -8 0 10 -262144
-1 -1 3200 1;
#X floatatom 283 44 5 0 0 0 - - -;
#X obj 209 118 tgl 40 0 empty empty empty 17 7 0 10 -257985 -1 -1 0
1;
#X obj 443 83 spigot;
#X obj 498 45 tgl 15 0 empty empty empty 17 7 0 10 -262144 -1 -1 1
1;
#X obj 209 165 list prepend sample detect;
#X obj 209 191 s toControl;
#X obj 264 425 s toControl;
#X obj 264 399 list prepend sample last;
#X obj 264 374 r sampleur_sample;
#X obj 24 171 route sample_threshold;
#X obj 24 219 + 65;
#X obj 24 195 * 30;
#X floatatom 24 243 5 0 0 0 - - -;
#X obj 22 145 r CONTROL;
#X obj 523 14 r CONTROL;
#X obj 81 266 clone sampleur_tab 8;
#X obj 525 40 route sampleur sampleur_bank;
#X obj 621 69 moses 3;
#X obj 667 94 - 2;
#X floatatom 709 93 5 0 0 0 - - -;
#X obj 621 153 s sampleur_mode;
#X msg 633 107 3;
#X obj 699 202 s sampleur_filebank;
#X obj 667 177 t b f;
#X obj 667 250 s sampleur_file;
#X msg 667 225 load;
#X msg 620 224 save;
#N canvas 510 261 450 300 loop_voices 0;
#X obj 169 27 inlet;
#X obj 169 51 t a b, f 10;
#X obj 236 75 i;
#X obj 236 99 + 1;
#X obj 169 160 list prepend 0;
#X obj 169 184 outlet;
#X msg 293 68 0;
#X msg 327 67 16;
#X obj 236 123 mod 8;
#X connect 0 0 1 0;
#X connect 1 0 4 0;
#X connect 1 1 2 0;
#X connect 2 0 3 0;
#X connect 3 0 8 0;
#X connect 4 0 5 0;
#X connect 6 0 8 1;
#X connect 7 0 8 1;
#X connect 8 0 2 1;
#X connect 8 0 4 1;
#X restore 513 477 pd loop_voices;
#X obj 545 322 random 100;
#X obj 545 346 / 100;
#X obj 545 272 bng 15 250 50 0 empty empty empty 17 7 0 10 -262144
-1 -1;
#X obj 628 320 random 100;
#X obj 628 344 / 100;
#X obj 545 368 * 9;
#X floatatom 453 402 5 0 0 0 - - -;
#X obj 545 294 t b b b, f 12;
#X obj 711 320 random 100;
#X obj 711 344 / 100;
#X obj 628 368 - 0.5;
#X obj 628 392 * 5;
#X obj 545 420 pack f f f, f 25;
#X msg 545 444 \$1 \$2 \$3 1 80 80;
#X obj 443 119 list prepend 0;
#X obj 507 70 r sampleur_mode;
#X obj 443 143 route 0 1, f 14;
#N canvas 37 180 505 401 noise 0;
#X obj 39 21 inlet;
#X obj 49 285 outlet;
#X obj 39 61 unpack f f, f 46;
#X obj 39 85 + 1;
#X obj 39 109 / 2;
#X obj 39 167 * 9;
#X obj 334 95 + 1;
#X obj 334 119 / 2;
#X obj 39 138 t f f;
#X obj 79 179 * 1;
#X text 28 305 sample pitch pan attack sustain release;
#X obj 97 133 r nb_speakers;
#X obj 97 157 - 1;
#X obj 334 146 pow 1.5;
#X obj 334 200 + 10;
#X obj 39 240 pack f f f 1 1 f, f 47;
#X obj 334 174 * 4000;
#X msg 260 207 100;
#X connect 0 0 2 0;
#X connect 2 0 3 0;
#X connect 2 1 6 0;
#X connect 3 0 4 0;
#X connect 4 0 8 0;
#X connect 5 0 15 0;
#X connect 6 0 7 0;
#X connect 7 0 13 0;
#X connect 8 0 5 0;
#X connect 8 1 9 0;
#X connect 9 0 15 2;
#X connect 11 0 12 0;
#X connect 12 0 9 1;
#X connect 13 0 16 0;
#X connect 14 0 15 5;
#X connect 15 0 1 0;
#X connect 16 0 14 0;
#X connect 17 0 15 3;
#X restore 490 173 pd noise;
#X obj 507 94 == 2;
#N canvas 1096 192 615 537 sample 1;
#X obj 29 26 inlet;
#X obj 171 487 outlet;
#X obj 29 75 list prepend 0;
#X obj 124 24 r CONTROL;
#X obj 29 99 route 0 1, f 46;
#X obj 29 130 unpack f f;
#X obj 29 155 + 1;
#X obj 29 179 / 2;
#X obj 29 266 * 8;
#X text 166 510 sample pitch pan attack sustain release;
#X obj 29 449 pack f f f f f f, f 28;
#X obj 65 262 random 100;
#X obj 65 286 / 100;
#X obj 65 310 - 0.5;
#X obj 65 238 b;
#X obj 117 335 * 1;
#X obj 135 286 r nb_speakers;
#X obj 135 310 - 1;
#X obj 236 171 + 1;
#X obj 236 195 / 2;
#X obj 236 222 pow 2;
#X obj 29 203 t f f;
#X obj 318 133 unpack f f;
#X obj 318 452 pack f f f f f f, f 28;
#X obj 406 338 * 1;
#X obj 424 289 r nb_speakers;
#X obj 424 313 - 1;
#X obj 525 222 + 1;
#X obj 525 246 / 2;
#X obj 525 273 pow 2;
#X obj 318 163 t f f;
#X obj 525 301 * 400;
#X msg 304 286 0;
#X obj 406 212 + 1;
#X obj 406 236 / 2;
#X obj 350 334 * 12;
#X obj 124 49 route sampleur_single;
#X obj 445 397 / 4;
#X msg 178 395 1;
#X msg 258 262 1;
#X obj 135 174 random 1000;
#X obj 135 198 / 1000;
#X obj 134 149 b;
#X floatatom 84 372 5 0 0 0 - - -;
#X obj 236 324 + 10;
#X obj 145 403 / 1;
#X obj 525 327 + 10;
#X floatatom 7 385 5 0 0 0 - - -;
#X msg 92 344 3;
#X obj 65 334 * 3;
#X floatatom 254 426 5 0 0 0 - - -;
#X obj 236 298 * 200;
#X connect 0 0 2 0;
#X connect 2 0 4 0;
#X connect 3 0 36 0;
#X connect 4 0 5 0;
#X connect 4 1 22 0;
#X connect 5 0 6 0;
#X connect 5 1 42 0;
#X connect 6 0 7 0;
#X connect 7 0 21 0;
#X connect 8 0 10 0;
#X connect 8 0 47 0;
#X connect 10 0 1 0;
#X connect 11 0 12 0;
#X connect 12 0 13 0;
#X connect 13 0 49 0;
#X connect 14 0 11 0;
#X connect 15 0 10 2;
#X connect 16 0 17 0;
#X connect 17 0 15 1;
#X connect 18 0 19 0;
#X connect 19 0 20 0;
#X connect 20 0 51 0;
#X connect 21 0 8 0;
#X connect 21 1 14 0;
#X connect 21 1 15 0;
#X connect 22 0 30 0;
#X connect 22 1 27 0;
#X connect 23 0 1 0;
#X connect 24 0 23 2;
#X connect 25 0 26 0;
#X connect 26 0 24 1;
#X connect 27 0 28 0;
#X connect 28 0 29 0;
#X connect 29 0 31 0;
#X connect 30 0 32 0;
#X connect 30 1 33 0;
#X connect 30 1 35 0;
#X connect 31 0 46 0;
#X connect 32 0 23 0;
#X connect 33 0 34 0;
#X connect 34 0 24 0;
#X connect 35 0 23 1;
#X connect 36 0 2 1;
#X connect 37 0 23 3;
#X connect 38 0 45 1;
#X connect 39 0 51 0;
#X connect 40 0 41 0;
#X connect 41 0 20 0;
#X connect 42 0 40 0;
#X connect 44 0 10 4;
#X connect 44 0 10 5;
#X connect 44 0 45 0;
#X connect 45 0 10 3;
#X connect 45 0 50 0;
#X connect 46 0 23 4;
#X connect 46 0 23 5;
#X connect 46 0 37 0;
#X connect 48 0 49 1;
#X connect 49 0 10 1;
#X connect 49 0 43 0;
#X connect 51 0 44 0;
#X restore 417 174 pd sample;
#X text 535 462 sample pitch pan attack sustain release;
#X obj 595 193 r saveBank;
#X obj 306 110 bng 30 250 50 0 saveBank empty saveBank!!! 32 15 0 10
-258113 -1 -1;
#X obj 80 307 clone sampleur_voice 8;
#X connect 0 0 2 0;
#X connect 0 0 1 0;
#X connect 1 0 14 0;
#X connect 3 0 15 0;
#X connect 4 0 7 0;
#X connect 4 1 5 0;
#X connect 5 0 6 0;
#X connect 6 0 8 1;
#X connect 7 0 8 0;
#X connect 8 0 10 0;
#X connect 12 0 13 0;
#X connect 12 0 1 1;
#X connect 14 0 17 0;
#X connect 15 0 55 0;
#X connect 17 0 18 0;
#X connect 20 0 19 0;
#X connect 21 0 20 0;
#X connect 22 0 24 0;
#X connect 23 0 1 1;
#X connect 23 0 25 0;
#X connect 24 0 23 0;
#X connect 26 0 22 0;
#X connect 27 0 29 0;
#X connect 29 0 15 1;
#X connect 29 0 16 0;
#X connect 29 1 30 0;
#X connect 30 0 33 0;
#X connect 30 1 31 0;
#X connect 30 1 34 0;
#X connect 31 0 32 0;
#X connect 31 0 36 0;
#X connect 34 0 33 0;
#X connect 36 0 38 0;
#X connect 36 1 35 0;
#X connect 38 0 37 0;
#X connect 39 0 37 0;
#X connect 40 0 9 0;
#X connect 41 0 42 0;
#X connect 42 0 46 0;
#X connect 43 0 48 0;
#X connect 44 0 45 0;
#X connect 45 0 51 0;
#X connect 46 0 47 0;
#X connect 46 0 53 0;
#X connect 48 0 41 0;
#X connect 48 1 44 0;
#X connect 48 2 49 0;
#X connect 49 0 50 0;
#X connect 50 0 53 2;
#X connect 51 0 52 0;
#X connect 52 0 53 1;
#X connect 53 0 54 0;
#X connect 54 0 40 0;
#X connect 55 0 57 0;
#X connect 56 0 59 0;
#X connect 57 0 60 0;
#X connect 57 1 58 0;
#X connect 58 0 40 0;
#X connect 59 0 55 1;
#X connect 60 0 40 0;
#X connect 62 0 39 0;
