#N canvas 465 424 814 529 12;
#X obj 95 38 inlet~;
#N canvas 584 234 450 590 thres 0;
#X obj 113 70 inlet~;
#X obj 114 112 env~;
#X obj 114 136 > 80;
#X obj 114 200 sel 0 1, f 12;
#X msg 124 237 stop;
#X msg 185 292 1;
#X obj 185 268 del 10;
#X msg 162 238 stop;
#X msg 114 292 0;
#X obj 114 324 change;
#X obj 63 372 tgl 15 0 empty empty empty 17 7 0 10 -262144 -1 -1 0
1;
#X floatatom 71 138 5 0 0 0 - - -;
#X obj 114 168 change;
#X obj 114 267 del 150;
#X obj 114 376 i;
#X obj 158 379 + 1;
#X obj 158 403 mod 4;
#X obj 114 493 s sampleur_sample;
#X obj 114 350 sel 1;
#X obj 266 319 bng 100 250 50 0 empty empty empty 17 7 0 10 -262144
-1 -1;
#X msg 170 108 80;
#X obj 207 91 nbx 5 14 -1e+37 1e+37 0 0 empty empty empty 0 -8 0 10
-262144 -1 -1 0 256;
#X obj 266 59 inlet;
#X obj 66 506 outlet;
#X obj 114 468 spigot 1;
#X obj 182 432 r sampleur_mode;
#X obj 182 456 == 0;
#X connect 0 0 1 0;
#X connect 1 0 2 0;
#X connect 2 0 12 0;
#X connect 3 0 7 0;
#X connect 3 0 13 0;
#X connect 3 1 4 0;
#X connect 3 1 6 0;
#X connect 4 0 13 0;
#X connect 5 0 9 0;
#X connect 6 0 5 0;
#X connect 7 0 6 0;
#X connect 8 0 9 0;
#X connect 9 0 10 0;
#X connect 9 0 18 0;
#X connect 9 0 23 0;
#X connect 12 0 3 0;
#X connect 13 0 8 0;
#X connect 14 0 15 0;
#X connect 14 0 24 0;
#X connect 15 0 16 0;
#X connect 16 0 14 1;
#X connect 18 0 14 0;
#X connect 18 0 19 0;
#X connect 20 0 2 1;
#X connect 21 0 2 1;
#X connect 22 0 2 1;
#X connect 24 0 17 0;
#X connect 25 0 26 0;
#X connect 26 0 24 1;
#X restore 209 91 pd thres;
#X obj 94 91 s~ sampleur_in;
#X obj 443 46 r CHOC;
#X obj 443 155 unpack f f;
#X obj 511 180 > 0;
#X obj 511 204 * 2;
#X obj 443 203 > 0;
#X obj 443 227 +;
#X obj 513 470 s sampleur_play;
#X floatatom 396 229 5 0 0 0 - - -;
#X obj 524 241 hradio 15 1 0 4 empty empty empty 0 -8 0 10 -262144
-1 -1 1;
#X obj 265 22 hsl 128 15 60 90 0 1 empty empty empty -2 -8 0 10 -262144
-1 -1 3200 1;
#X floatatom 283 44 5 0 0 0 - - -;
#X obj 209 118 tgl 40 0 empty empty empty 17 7 0 10 -257985 -1 -1 0
1;
#X obj 443 83 spigot;
#X obj 518 85 tgl 15 0 empty empty empty 17 7 0 10 -262144 -1 -1 0
1;
#X obj 209 165 list prepend sample detect;
#X obj 209 191 s toControl;
#X obj 264 425 s toControl;
#X obj 264 399 list prepend sample last;
#X obj 264 374 r sampleur_sample;
#X obj 24 171 route sample_threshold;
#X obj 24 219 + 65;
#X obj 24 195 * 30;
#X floatatom 24 243 5 0 0 0 - - -;
#X obj 22 145 r CONTROL;
#X obj 504 36 r CONTROL;
#X obj 81 266 clone sampleur_tab 8;
#X obj 506 62 route sampleur sampleur_bank;
#X obj 602 91 moses 3;
#X obj 648 116 - 2;
#X floatatom 690 115 5 0 0 0 - - -;
#X obj 602 175 s sampleur_mode;
#X msg 614 129 3;
#X obj 680 224 s sampleur_filebank;
#X obj 648 199 t b f;
#X obj 648 272 s sampleur_file;
#X msg 648 247 load;
#X msg 601 246 save;
#X obj 80 307 clone sampleur_voice 16;
#N canvas 520 271 450 300 loop_voices 0;
#X obj 169 27 inlet;
#X obj 169 51 t a b, f 10;
#X obj 236 75 i;
#X obj 236 99 + 1;
#X obj 236 123 mod 16;
#X obj 169 160 list prepend 0;
#X obj 169 184 outlet;
#X msg 293 68 0;
#X msg 327 67 16;
#X connect 0 0 1 0;
#X connect 1 0 5 0;
#X connect 1 1 2 0;
#X connect 2 0 3 0;
#X connect 3 0 4 0;
#X connect 4 0 2 1;
#X connect 4 0 5 1;
#X connect 5 0 6 0;
#X connect 7 0 4 1;
#X connect 8 0 4 1;
#X restore 513 447 pd loop_voices;
#X obj 513 330 random 100;
#X obj 513 354 / 100;
#X obj 513 280 bng 15 250 50 0 empty empty empty 17 7 0 10 -262144
-1 -1;
#X obj 596 328 random 100;
#X obj 596 352 / 100;
#X obj 513 302 t b b, f 12;
#X obj 513 378 pack f f, f 11;
#X msg 513 417 \$1 0 \$2 150 150 20;
#X connect 0 0 2 0;
#X connect 0 0 1 0;
#X connect 1 0 14 0;
#X connect 3 0 15 0;
#X connect 4 0 7 0;
#X connect 4 1 5 0;
#X connect 5 0 6 0;
#X connect 6 0 8 1;
#X connect 7 0 8 0;
#X connect 8 0 10 0;
#X connect 12 0 13 0;
#X connect 12 0 1 1;
#X connect 14 0 17 0;
#X connect 15 0 4 0;
#X connect 17 0 18 0;
#X connect 20 0 19 0;
#X connect 21 0 20 0;
#X connect 22 0 24 0;
#X connect 23 0 1 1;
#X connect 23 0 25 0;
#X connect 24 0 23 0;
#X connect 26 0 22 0;
#X connect 27 0 29 0;
#X connect 29 0 15 1;
#X connect 29 0 16 0;
#X connect 29 1 30 0;
#X connect 30 0 33 0;
#X connect 30 1 31 0;
#X connect 30 1 34 0;
#X connect 31 0 32 0;
#X connect 31 0 36 0;
#X connect 34 0 33 0;
#X connect 36 0 38 0;
#X connect 36 1 35 0;
#X connect 38 0 37 0;
#X connect 39 0 37 0;
#X connect 41 0 9 0;
#X connect 42 0 43 0;
#X connect 43 0 48 0;
#X connect 44 0 47 0;
#X connect 45 0 46 0;
#X connect 46 0 48 1;
#X connect 47 0 42 0;
#X connect 47 1 45 0;
#X connect 48 0 49 0;
#X connect 49 0 41 0;
