#N canvas 559 177 551 730 12;
#X obj 61 42 r sampleur_play;
#X obj 62 496 *~;
#X msg 61 406 0 \, 88000 \$1;
#X obj 61 353 * 88000;
#X obj 61 377 / 44.1;
#X obj 61 430 line~;
#X obj 61 74 route \$1;
#X msg 152 407 set sample-\$1;
#X text 63 22 voice sample pitch pan attack sustain release;
#X msg 268 307 0 2 \, 1 \$1 2 \, 0 \$3 \$4;
#X obj 268 216 expr \$4 \; \$4+2 \; \$6 \; 2+\$4+\$5, f 15;
#X obj 268 283 pack f f f f, f 15;
#X obj 268 331 vline~;
#X obj 268 360 *~;
#X obj 61 111 t b a, f 9;
#X obj 61 156 del 2;
#X obj 61 180 list, f 9;
#X msg 61 249 \$2;
#X obj 61 273 mtof;
#X msg 95 247 0;
#X obj 61 321 /;
#X floatatom 123 352 5 0 0 0 - - -;
#X msg 61 297 8.1758 \$1;
#X msg 127 247 12;
#X obj 62 580 motex/pan~;
#X obj 61 677 throw~ out0;
#X obj 150 677 throw~ out1;
#X obj 305 476 i;
#X obj 305 500 change;
#X msg 78 646 set out\$1;
#X msg 161 646 set out\$1;
#X obj 305 524 + 1;
#X obj 259 476 -;
#X obj 259 500 - 0.5;
#X obj 259 449 t f f, f 7;
#X obj 259 524 * 90;
#X msg 259 422 \$3;
#X obj 61 454 tabread4~ sample-0;
#X connect 0 0 6 0;
#X connect 1 0 24 0;
#X connect 2 0 5 0;
#X connect 3 0 4 0;
#X connect 4 0 2 0;
#X connect 5 0 37 0;
#X connect 6 0 14 0;
#X connect 7 0 37 0;
#X connect 9 0 12 0;
#X connect 10 0 11 0;
#X connect 10 1 11 1;
#X connect 10 2 11 2;
#X connect 10 3 11 3;
#X connect 11 0 9 0;
#X connect 12 0 13 0;
#X connect 12 0 13 1;
#X connect 13 0 1 1;
#X connect 14 0 15 0;
#X connect 14 1 10 0;
#X connect 14 1 16 1;
#X connect 15 0 16 0;
#X connect 16 0 7 0;
#X connect 16 0 17 0;
#X connect 16 0 36 0;
#X connect 17 0 18 0;
#X connect 18 0 22 0;
#X connect 19 0 18 0;
#X connect 20 0 3 0;
#X connect 20 0 21 0;
#X connect 22 0 20 0;
#X connect 23 0 18 0;
#X connect 24 0 25 0;
#X connect 24 1 26 0;
#X connect 27 0 28 0;
#X connect 27 0 32 1;
#X connect 28 0 29 0;
#X connect 28 0 31 0;
#X connect 29 0 25 0;
#X connect 30 0 26 0;
#X connect 31 0 30 0;
#X connect 32 0 33 0;
#X connect 33 0 35 0;
#X connect 34 0 32 0;
#X connect 34 1 27 0;
#X connect 35 0 24 1;
#X connect 36 0 34 0;
#X connect 37 0 1 0;
