#N canvas 121 138 1057 521 10;
#X obj 107 4 adc~ \$1;
#X obj 108 79 delwrite~ \$0-d 100;
#X obj 107 272 tabwrite~ mictab\$1;
#X obj 158 156 r sampMic-do;
#X obj 128 130 r sampMic-gain;
#X obj 107 156 *~ 1;
#X obj 158 221 s mictab\$1;
#X msg 158 198 normalize;
#X obj 282 149 r sampMic-rec;
#X obj 282 230 tabwrite~ micrec\$1;
#X obj 468 190 *~ 0;
#X obj 468 211 dac~ \$1;
#X obj 467 138 r playMicRec-do;
#X obj 519 191 r playMicRec-vol;
#X obj 467 168 tabplay~ micrec\$1;
#X obj 284 78 table micrec\$1 500000;
#X obj 433 139 bng 15 250 50 0 empty empty empty 17 7 0 10 -262144
-1 -1;
#X obj 245 183 *~ 50;
#N canvas 0 50 450 250 (subpatch) 0;
#X array miclongtab\$1 1024 float 4;
#X coords 0 1 1023 -1 1024 140 1 0 0;
#X restore 22 358 graph;
#X obj 84 307 tabwrite~ miclongtab\$1;
#X obj 144 249 s miclongtab\$1;
#X obj 392 279 bng 15 250 50 0 empty empty empty 17 7 0 10 -262144
-1 -1;
#X obj 416 304 tabwrite~ mictab\$1;
#X obj 418 278 osc~ 3000;
#X obj 107 51 hip~ 500;
#X obj 132 29 iemlib/lp4_butt~ 1500 5;
#X obj 107 105 delread~ \$0-d 2;
#X obj 158 177 del 10;
#X connect 0 0 24 0;
#X connect 3 0 2 0;
#X connect 3 0 19 0;
#X connect 3 0 27 0;
#X connect 4 0 5 1;
#X connect 5 0 19 0;
#X connect 5 0 2 0;
#X connect 7 0 6 0;
#X connect 8 0 9 0;
#X connect 10 0 11 0;
#X connect 12 0 14 0;
#X connect 13 0 10 1;
#X connect 14 0 10 0;
#X connect 16 0 14 0;
#X connect 17 0 9 0;
#X connect 21 0 22 0;
#X connect 23 0 22 0;
#X connect 24 0 1 0;
#X connect 24 0 17 0;
#X connect 26 0 5 0;
#X connect 27 0 7 0;
