#N canvas 1 81 450 300 10;
#X obj 54 154 inlet~;
#X obj 218 114 block~ 512;
#X obj 218 35 r window-size;
#X msg 218 80 set \$1 1;
#X obj 218 57 / 2;
#X obj 54 200 tabsend~ zeropad\$1;
#X obj 256 199 table zeropad\$1 128;
#X obj 311 120 s zeropad\$1;
#X floatatom 176 91 5 0 0 0 - - -;
#X msg 311 94 resize \$1 \, const 0;
#X connect 0 0 5 0;
#X connect 2 0 4 0;
#X connect 2 0 9 0;
#X connect 3 0 1 0;
#X connect 4 0 3 0;
#X connect 4 0 8 0;
#X connect 9 0 7 0;
