#N canvas 445 467 500 546 10;
#X obj 53 134 netsend -u -b;
#X msg 70 104 connect localhost 10000;
#X obj 53 163 tgl 15 0 empty empty empty 17 7 0 10 -262144 -1 -1 1
1;
#N canvas 659 369 456 420 GUI 0;
#X obj 278 113 hsl 128 15 0 30 0 0 \$0-x1-snd \$0-x1-rcv x1 135 8 0
10 -262144 -1 -1 1428 1;
#X obj 278 129 hsl 128 15 0 16 0 0 \$0-y1-snd \$0-y1-rcv y1 135 8 0
10 -262144 -1 -1 3927 1;
#X obj 50 87 hsl 128 15 0 1 0 0 \$0-collider-snd \$0-collider-rcv collider
135 8 0 10 -262144 -1 -1 0 1;
#X obj 50 107 hsl 128 15 0 10 0 0 \$0-maxSpeed-snd \$0-maxSpeed-rcv
maxSpeed 135 8 0 10 -262144 -1 -1 0 1;
#X obj 50 123 hsl 128 15 0 1 0 0 \$0-minSpeed-snd \$0-minSpeed-rcv
minSpeed 135 8 0 10 -262144 -1 -1 0 1;
#X obj 278 153 hsl 128 15 0 30 0 0 \$0-x2-snd \$0-x2-rcv x2 135 8 0
10 -262144 -1 -1 1589 1;
#X obj 278 169 hsl 128 15 0 16 0 0 \$0-y2-snd \$0-y2-rcv y2 135 8 0
10 -262144 -1 -1 1270 1;
#X obj 279 192 hsl 128 15 0 30 0 0 \$0-x3-snd \$0-x3-rcv x3 135 8 0
10 -262144 -1 -1 0 1;
#X obj 279 208 hsl 128 15 0 16 0 0 \$0-y3-snd \$0-y3-rcv y3 135 8 0
10 -262144 -1 -1 0 1;
#X obj 222 10 tgl 15 0 \$0-hidePlayers-snd \$0-hidePlayers-rcv hidePlayers
17 7 0 10 -262144 -1 -1 0 1;
#X obj 223 33 tgl 15 0 \$0-hideBorder-snd \$0-hideBorder-rcv hideBorder
17 7 0 10 -262144 -1 -1 0 1;
#X obj 50 145 hsl 128 15 0 1 0 0 \$0-fastTurn-snd \$0-fastTurn-rcv
fastTurn 135 8 0 10 -262144 -1 -1 0 1;
#X obj 49 172 hsl 128 15 0 1 0 0 \$0-H-snd \$0-H-rcv H 135 8 0 10 -262144
-1 -1 0 1;
#X obj 49 190 hsl 128 15 0 1 0 0 \$0-S-snd \$0-S-rcv S 135 8 0 10 -262144
-1 -1 0 1;
#X obj 49 208 hsl 128 15 0 1 0 0 \$0-V-snd \$0-V-rcv V 135 8 0 10 -262144
-1 -1 0 1;
#X obj 49 11 hsl 128 15 -20 20 0 0 \$0-tiltX-snd \$0-tiltX-rcv tiltX
135 8 0 10 -262144 -1 -1 0 1;
#X obj 49 29 hsl 128 15 -20 20 0 0 \$0-tiltY-snd \$0-tiltY-rcv tiltY
135 8 0 10 -262144 -1 -1 0 1;
#X obj 49 47 hsl 128 15 -100 100 0 0 \$0-zoom-snd \$0-zoom-rcv zoom
135 8 0 10 -262144 -1 -1 0 1;
#X obj 279 232 hsl 128 15 0 30 0 0 \$0-x4-snd \$0-x4-rcv x4 135 8 0
10 -262144 -1 -1 0 1;
#X obj 279 248 hsl 128 15 0 16 0 0 \$0-y4-snd \$0-y4-rcv y4 135 8 0
10 -262144 -1 -1 0 1;
#X obj 272 82 bng 15 250 50 0 \$0-start-snd \$0-start-rcv restart 17
7 0 10 -262144 -1 -1;
#X restore 229 103 pd GUI;
#X obj 53 22 r toBlender;
#X obj 52 213 ctl P1x \$0-x1;
#X obj 52 230 ctl P1y \$0-y1;
#X obj 52 253 ctl P2x \$0-x2;
#X obj 52 270 ctl P2y \$0-y2;
#X obj 52 293 ctl P3x \$0-x3;
#X obj 52 310 ctl P3y \$0-y3;
#X obj 153 233 ctl border \$0-hideBorder;
#X obj 153 215 ctl players \$0-hidePlayers;
#X obj 52 368 ctl slider1 \$0-collider;
#X obj 52 386 ctl slider2 \$0-maxSpeed;
#X obj 52 403 ctl slider3 \$0-minSpeed;
#X obj 147 78 loadbang;
#X obj 52 422 ctl slider4 \$0-fastTurn;
#X obj 52 443 ctl slider5 \$0-H;
#X obj 52 460 ctl slider6 \$0-S;
#X obj 50 479 ctl slider7 \$0-V;
#X obj 193 445 ctl tiltX \$0-tiltX;
#X obj 193 462 ctl tiltY \$0-tiltY;
#X obj 193 480 ctl zoom \$0-zoom;
#X text 130 149 Alt+F11 to go full screen;
#X text 131 166 Alt+A to play;
#X text 132 184 (Alt+Z) twice or (Shift-Z)twice for modes;
#N canvas 1244 389 450 300 interface 0;
#X obj 19 16 r 2video;
#X obj 19 182 route 1 2 3 4, f 60;
#X obj 19 203 unpack f f;
#X obj 19 69 list split 1;
#X obj 53 92 unpack f f;
#X obj 53 113 * 30;
#X obj 110 113 * 16;
#X obj 53 134 pack f f, f 10;
#X obj 19 159 list append;
#X obj 19 245 s \$0-x1-rcv;
#X obj 29 224 s \$0-y1-rcv;
#X obj 108 205 unpack f f;
#X obj 197 205 unpack f f;
#X obj 286 207 unpack f f;
#X obj 118 226 s \$0-y2-rcv;
#X obj 108 247 s \$0-x2-rcv;
#X obj 207 226 s \$0-y3-rcv;
#X obj 197 247 s \$0-x3-rcv;
#X obj 296 228 s \$0-y4-rcv;
#X obj 286 249 s \$0-x4-rcv;
#X obj 19 37 route p debug, f 52;
#X obj 173 63 == 0;
#X obj 161 95 s \$0-hidePlayers-rcv;
#X obj 201 119 s \$0-hideBorder-rcv;
#X connect 0 0 20 0;
#X connect 1 0 2 0;
#X connect 1 1 11 0;
#X connect 1 2 12 0;
#X connect 1 3 13 0;
#X connect 2 0 9 0;
#X connect 2 1 10 0;
#X connect 3 0 8 0;
#X connect 3 1 4 0;
#X connect 4 0 5 0;
#X connect 4 1 6 0;
#X connect 5 0 7 0;
#X connect 6 0 7 1;
#X connect 7 0 8 1;
#X connect 8 0 1 0;
#X connect 11 0 15 0;
#X connect 11 1 14 0;
#X connect 12 0 17 0;
#X connect 12 1 16 0;
#X connect 13 0 19 0;
#X connect 13 1 18 0;
#X connect 20 0 3 0;
#X connect 20 1 21 0;
#X connect 21 0 22 0;
#X connect 21 0 23 0;
#X restore 259 290 pd interface;
#X obj 51 347 ctl P4y \$0-y4;
#X obj 51 330 ctl P4x \$0-x4;
#X obj 9 203 print;
#X obj 9 180 oscparse;
#X obj 50 502 ctl button1 \$0-start;
#X obj 53 46 list prepend send;
#X obj 53 71 list trim;
#X obj 213 79 r reconnect_boidsOSC;
#X obj 225 367 ctl pattern BoidsPattern;
#X obj 356 262 hsl 128 15 0 1 0 0 BoidsPattern-snd BoidsPattern-snd
BoidsPattern -2 -8 0 10 -262144 -1 -1 2700 1;
#X connect 0 0 2 0;
#X connect 1 0 0 0;
#X connect 4 0 33 0;
#X connect 16 0 1 0;
#X connect 31 0 30 0;
#X connect 33 0 34 0;
#X connect 34 0 0 0;
#X connect 35 0 1 0;
