#N canvas 668 134 351 464 10;
#X obj 48 71 netsend -u -b;
#X msg 65 41 connect localhost 10000;
#X obj 48 100 tgl 15 0 empty empty empty 17 7 0 10 -262144 -1 -1 1
1;
#N canvas 65 239 364 393 GUI 1;
#X obj 50 83 hsl 128 15 0 30 0 0 \$0-x1-snd \$0-x1-rcv x1 135 8 0 10
-262144 -1 -1 5100 1;
#X obj 50 99 hsl 128 15 0 16 0 0 \$0-y1-snd \$0-y1-rcv y1 135 8 0 10
-262144 -1 -1 5600 1;
#X obj 50 222 hsl 128 15 0 1 0 0 \$0-collider-snd \$0-collider-rcv
collider 135 8 0 10 -262144 -1 -1 12700 1;
#X obj 50 242 hsl 128 15 0 10 0 0 \$0-maxSpeed-snd \$0-maxSpeed-rcv
maxSpeed 135 8 0 10 -262144 -1 -1 12700 1;
#X obj 50 258 hsl 128 15 0 1 0 0 \$0-minSpeed-snd \$0-minSpeed-rcv
minSpeed 135 8 0 10 -262144 -1 -1 7300 1;
#X obj 50 123 hsl 128 15 0 30 0 0 \$0-x2-snd \$0-x2-rcv x2 135 8 0
10 -262144 -1 -1 2100 1;
#X obj 50 139 hsl 128 15 0 16 0 0 \$0-y2-snd \$0-y2-rcv y2 135 8 0
10 -262144 -1 -1 4800 1;
#X obj 51 162 hsl 128 15 0 30 0 0 \$0-x3-snd \$0-x3-rcv x3 135 8 0
10 -262144 -1 -1 8800 1;
#X obj 51 178 hsl 128 15 0 16 0 0 \$0-y3-snd \$0-y3-rcv y3 135 8 0
10 -262144 -1 -1 9600 1;
#X obj 222 10 tgl 15 0 \$0-hidePlayers-snd \$0-hidePlayers-rcv hidePlayers
17 7 0 10 -262144 -1 -1 1 1;
#X obj 223 33 tgl 15 0 \$0-hideBorder-snd \$0-hideBorder-rcv hideBorder
17 7 0 10 -262144 -1 -1 0 1;
#X obj 50 280 hsl 128 15 0 1 0 0 \$0-fastTurn-snd \$0-fastTurn-rcv
fastTurn 135 8 0 10 -262144 -1 -1 3000 1;
#X obj 49 307 hsl 128 15 0 1 0 0 \$0-H-snd \$0-H-rcv H 135 8 0 10 -262144
-1 -1 10800 1;
#X obj 49 325 hsl 128 15 0 1 0 0 \$0-S-snd \$0-S-rcv S 135 8 0 10 -262144
-1 -1 3600 1;
#X obj 49 343 hsl 128 15 0 1 0 0 \$0-V-snd \$0-V-rcv V 135 8 0 10 -262144
-1 -1 2400 1;
#X obj 49 11 hsl 128 15 -20 20 0 0 \$0-tiltX-snd \$0-tiltX-rcv tiltX
135 8 0 10 -262144 -1 -1 7800 1;
#X obj 49 29 hsl 128 15 -20 20 0 0 \$0-tiltY-snd \$0-tiltY-rcv tiltY
135 8 0 10 -262144 -1 -1 7200 1;
#X obj 49 47 hsl 128 15 -100 100 0 0 \$0-zoom-snd \$0-zoom-rcv zoom
135 8 0 10 -262144 -1 -1 11100 1;
#X restore 224 40 pd GUI;
#X obj 48 19 r toBlender;
#X obj 47 150 ctl P1x \$0-x1;
#X obj 47 167 ctl P1y \$0-y1;
#X obj 47 190 ctl P2x \$0-x2;
#X obj 47 207 ctl P2y \$0-y2;
#X obj 47 230 ctl P3x \$0-x3;
#X obj 47 247 ctl P3y \$0-y3;
#X obj 148 170 ctl border \$0-hideBorder;
#X obj 148 152 ctl players \$0-hidePlayers;
#X obj 47 273 ctl slider1 \$0-collider;
#X obj 47 291 ctl slider2 \$0-maxSpeed;
#X obj 47 308 ctl slider3 \$0-minSpeed;
#X obj 142 15 loadbang;
#X obj 47 327 ctl slider4 \$0-fastTurn;
#X obj 47 348 ctl slider5 \$0-H;
#X obj 47 365 ctl slider6 \$0-S;
#X obj 45 384 ctl slider7 \$0-V;
#X obj 188 350 ctl tiltX \$0-tiltX;
#X obj 188 367 ctl tiltY \$0-tiltY;
#X obj 188 385 ctl zoom \$0-zoom;
#X connect 0 0 2 0;
#X connect 1 0 0 0;
#X connect 4 0 0 0;
#X connect 16 0 1 0;
