#N canvas 829 420 696 345 10;
#X obj 22 48 r fromPof;
#X obj 22 72 route mapping-\$1-corner-\$2-x mapping-\$1-corner-\$2-y
;
#X obj 22 120 s \$1-corner-\$2-x-rcv;
#X obj 173 122 s \$1-corner-\$2-y-rcv;
#X obj 34 299 apf MAPPING \$1-corner-\$2-x \$1-corner-\$2-x;
#X obj 34 322 apf MAPPING \$1-corner-\$2-y \$1-corner-\$2-y;
#X obj 199 8 r toPof-resendAll;
#X obj 199 32 b;
#X obj 22 170 list prepend mapping-\$1-corner-\$2-x;
#X obj 281 168 list prepend mapping-\$1-corner-\$2-y;
#X obj 22 194 list prepend setCONFIG;
#X obj 22 267 s toPof;
#X obj 22 96 change;
#X obj 173 97 change;
#X obj 22 245 oscformat oscControl;
#X obj 45 218 list trim;
#X obj 365 264 print;
#X obj 22 146 r \$1-corner-\$2-x-snd;
#X obj 281 145 r \$1-corner-\$2-y-snd;
#X connect 0 0 1 0;
#X connect 1 0 12 0;
#X connect 1 1 13 0;
#X connect 6 0 7 0;
#X connect 7 0 3 0;
#X connect 7 0 2 0;
#X connect 8 0 10 0;
#X connect 9 0 10 0;
#X connect 10 0 14 0;
#X connect 12 0 2 0;
#X connect 13 0 3 0;
#X connect 14 0 11 0;
#X connect 17 0 8 0;
#X connect 18 0 9 0;
