#N canvas 95 466 450 330 10;
#X obj 85 32 r \$2;
#X obj 85 117 poftranslate;
#X obj 112 167 pofcirc 50;
#X obj 122 32 r \$2-coords;
#X obj 122 74 unpack f f;
#X obj 122 53 route \$1;
#X obj 112 189 poftouch 50 50;
#X obj 198 102 loadbang;
#X msg 198 124 dont_capture 1 \, shape ellipse;
#X obj 194 210 route down up;
#X obj 194 231 b;
#X obj 194 252 f \$1;
#X msg 230 229 4;
#X obj 194 273 s \$2-touch;
#X obj 85 145 t a a;
#X obj 16 149 loadbang;
#X obj 16 170 f \$1;
#X msg 16 215 text \$1;
#X obj 22 113 bng 15 250 50 0 empty empty empty 17 7 0 10 -262144 -1
-1;
#X obj 70 253 pofcolor 0 0 0 1;
#X obj 70 274 poftexts bold 60;
#X obj 16 192 + 1;
#X connect 0 0 1 0;
#X connect 1 0 14 0;
#X connect 2 0 6 0;
#X connect 3 0 5 0;
#X connect 4 0 1 1;
#X connect 4 1 1 2;
#X connect 5 0 4 0;
#X connect 6 1 9 0;
#X connect 7 0 8 0;
#X connect 8 0 6 0;
#X connect 9 0 10 0;
#X connect 9 1 12 0;
#X connect 10 0 11 0;
#X connect 11 0 13 0;
#X connect 12 0 13 0;
#X connect 14 0 19 0;
#X connect 14 1 2 0;
#X connect 15 0 16 0;
#X connect 16 0 21 0;
#X connect 17 0 20 0;
#X connect 18 0 16 0;
#X connect 19 0 20 0;
#X connect 21 0 17 0;
