#N canvas 1 81 1129 680 10;
#X declare -lib iemmatrix;
#X obj 34 34 inlet;
#X text 49 6 https://blog.mbedded.ninja/mathematics/geometry/projective-transformations/
, f 76;
#X obj 220 30 declare -lib iemmatrix;
#X obj 34 209 mtx_mul, f 20;
#X obj 67 166 r \$0-T_matrix;
#X obj 34 334 outlet;
#X obj 205 196 matrix;
#X msg 205 170 eye 3;
#X obj 205 220 s \$0-T_matrix;
#X obj 205 148 loadbang;
#X obj 34 186 matrix;
#X obj 34 140 t b a, f 20;
#X obj 34 241 route matrix;
#X obj 34 108 matrix;
#X msg 34 77 matrix 3 1 \$1 \$2 1;
#X obj 34 266 route 3;
#X obj 34 289 route 1;
#X obj 376 60 r \$0-q2qP1-coords;
#X obj 376 131 list split 1;
#X obj 474 268 unpack f f;
#X obj 474 288 * -1;
#X obj 531 289 * -1;
#X obj 376 85 t a a, f 18;
#X obj 482 105 list split 1;
#X obj 410 243 t a a a, f 22;
#X obj 474 309 *;
#X obj 531 308 *;
#X obj 685 195 sel 0 1 2 3, f 22;
#X msg 685 217 0 0;
#X msg 715 217 0 1;
#X msg 746 217 1 1;
#X msg 776 216 1 0;
#X obj 482 222 unpack f f;
#X obj 580 268 unpack f f;
#X obj 580 288 * -1;
#X obj 637 289 * -1;
#X obj 580 309 *;
#X obj 637 308 *;
#X obj 474 330 pack f f f f, f 28;
#X obj 410 353 list append;
#X obj 376 175 t f f, f 8;
#X obj 376 155 * 2;
#X obj 376 217 pack f f;
#X obj 376 382 list append;
#X text 649 330 xx yx xy yy;
#X obj 376 196 + 1;
#X obj 421 197 + 2;
#X obj 302 446 matrix;
#X obj 302 399 loadbang;
#X msg 302 421 eye 8;
#X obj 266 409 bng 15 250 50 0 empty empty empty 17 7 0 10 -262144
-1 -1;
#X msg 376 403 row \$1 \$3 \$4 1 0 0 0 \$5 \$6 \, row \$2 0 0 0 \$3
\$4 1 \$7 \$8, f 67;
#X obj 302 497 mtx_inverse;
#X obj 428 484 bng 15 250 50 0 empty empty empty 17 7 0 10 -262144
-1 -1;
#X obj 187 613 mtx_print inv;
#X obj 117 509 mtx_print orig;
#X obj 875 180 s \$0-q2qP1-coords;
#X obj 740 114 s \$0-destcoords;
#X msg 696 56 0 0 0 1 1 1 1 0;
#X msg 899 36 0 0 0 \, 1 0 1 \, 2 1 1 \, 3 1 0;
#X obj 899 61 s \$0-q2qP1-coords;
#X obj 585 122 r \$0-destcoords;
#X obj 482 125 t b f, f 10;
#X obj 482 146 list;
#X obj 482 167 list split;
#X obj 510 191 list split 2;
#X obj 539 146 * 2;
#X msg 740 86 1 2 1 4 3 4 3 2;
#X obj 302 555 mtx_mul, f 8;
#X obj 410 512 r \$0-destcoords;
#X obj 410 533 matrix 8 1;
#X obj 380 578 mtx_print dest;
#X obj 269 626 mtx_print res;
#X obj 560 556 mtx_mul, f 8;
#X obj 525 604 mtx_print id;
#X obj 302 467 t a a;
#X connect 0 0 14 0;
#X connect 3 0 12 0;
#X connect 4 0 10 1;
#X connect 6 0 8 0;
#X connect 7 0 6 0;
#X connect 9 0 7 0;
#X connect 10 0 3 0;
#X connect 11 0 10 0;
#X connect 11 1 3 1;
#X connect 12 0 15 0;
#X connect 13 0 11 0;
#X connect 14 0 13 0;
#X connect 15 0 16 0;
#X connect 16 0 5 0;
#X connect 18 0 41 0;
#X connect 18 1 24 0;
#X connect 19 0 20 0;
#X connect 19 1 21 0;
#X connect 20 0 25 0;
#X connect 21 0 26 0;
#X connect 22 0 18 0;
#X connect 22 1 23 0;
#X connect 23 0 62 0;
#X connect 24 0 39 0;
#X connect 24 1 19 0;
#X connect 24 2 33 0;
#X connect 25 0 38 0;
#X connect 26 0 38 1;
#X connect 27 0 28 0;
#X connect 27 1 29 0;
#X connect 27 2 30 0;
#X connect 27 3 31 0;
#X connect 28 0 32 0;
#X connect 29 0 32 0;
#X connect 30 0 32 0;
#X connect 31 0 32 0;
#X connect 32 0 25 1;
#X connect 32 0 26 1;
#X connect 32 1 36 1;
#X connect 32 1 37 1;
#X connect 33 0 34 0;
#X connect 33 1 35 0;
#X connect 34 0 36 0;
#X connect 35 0 37 0;
#X connect 36 0 38 2;
#X connect 37 0 38 3;
#X connect 38 0 39 1;
#X connect 39 0 43 1;
#X connect 40 0 45 0;
#X connect 40 1 46 0;
#X connect 41 0 40 0;
#X connect 42 0 43 0;
#X connect 43 0 51 0;
#X connect 45 0 42 0;
#X connect 46 0 42 1;
#X connect 47 0 55 0;
#X connect 47 0 75 0;
#X connect 48 0 49 0;
#X connect 49 0 47 0;
#X connect 50 0 47 0;
#X connect 51 0 47 0;
#X connect 52 0 54 0;
#X connect 52 0 68 0;
#X connect 52 0 73 0;
#X connect 52 1 53 0;
#X connect 58 0 57 0;
#X connect 59 0 60 0;
#X connect 61 0 63 1;
#X connect 62 0 63 0;
#X connect 62 1 66 0;
#X connect 63 0 64 0;
#X connect 64 1 65 0;
#X connect 65 0 32 0;
#X connect 66 0 64 1;
#X connect 67 0 57 0;
#X connect 68 0 72 0;
#X connect 69 0 70 0;
#X connect 70 0 68 1;
#X connect 73 0 74 0;
#X connect 75 0 52 0;
#X connect 75 1 73 1;
