#N canvas 1 502 784 333 12;
#X obj 23 88 r \$3-\$4-\$5-x-snd;
#X obj 44 112 r \$3-\$4-\$5-y-snd;
#X obj 23 161 pack f f;
#X obj 44 136 t b f;
#X obj 23 242 s \$3-corners-toparams;
#X obj 23 214 list trim;
#X obj 23 187 list prepend \$4 \$5;
#X obj 179 88 r \$3-corners-params;
#X obj 179 112 route \$4;
#X obj 179 136 route \$5;
#X obj 179 176 unpack f f;
#X obj 179 223 s \$3-\$4-\$5-x-rcv;
#X obj 246 201 s \$3-\$4-\$5-y-rcv;
#X obj 21 18 rem apf \$1 \$2-\$4-\$5-x \$3-\$4-\$5-x 2;
#X obj 21 44 rem apf \$1 \$2-\$4-\$5-y \$3-\$4-\$5-y 2;
#X obj 353 84 r \$1-setap-snd;
#X obj 353 108 route \$2-\$4-\$5-x \$2-\$4-\$5-y;
#X obj 395 201 unpack f f, f 26;
#X obj 395 225 list prepend \$2-\$4-\$5-x;
#X obj 395 279 s \$1-sndap;
#X obj 395 252 list trim;
#X obj 574 224 list prepend \$2-\$4-\$5-y;
#X connect 0 0 2 0;
#X connect 1 0 3 0;
#X connect 2 0 6 0;
#X connect 3 0 2 0;
#X connect 3 1 2 1;
#X connect 5 0 4 0;
#X connect 6 0 5 0;
#X connect 7 0 8 0;
#X connect 8 0 9 0;
#X connect 9 0 17 0;
#X connect 10 0 11 0;
#X connect 10 1 12 0;
#X connect 15 0 16 0;
#X connect 16 0 11 0;
#X connect 16 1 12 0;
#X connect 17 0 18 0;
#X connect 17 1 21 0;
#X connect 18 0 20 0;
#X connect 20 0 19 0;
#X connect 21 0 20 0;
