#N canvas 763 246 512 407 12;
#X obj 105 248 translateXYZ;
#N canvas 775 332 474 324 rand_color 0;
#X obj 47 154 * 0.001;
#X obj 131 130 random 1000;
#X obj 132 171 * 0.001;
#X obj 214 131 random 1000;
#X obj 46 83 t b b b;
#X obj 48 256 outlet;
#X obj 24 52 r init;
#X obj 215 172 * 0;
#X obj 47 130 random 500;
#X obj 48 185 + 0.5;
#X obj 49 217 pack 1 1 1 0.5;
#X connect 0 0 9 0;
#X connect 1 0 2 0;
#X connect 1 0 7 0;
#X connect 2 0 10 1;
#X connect 3 0 7 0;
#X connect 4 0 8 0;
#X connect 4 1 1 0;
#X connect 4 2 3 0;
#X connect 6 0 10 0;
#X connect 7 0 10 2;
#X connect 8 0 0 0;
#X connect 9 0 10 0;
#X connect 10 0 5 0;
#X restore 218 105 pd rand_color;
#X obj 235 132 t 1;
#X obj 197 209 unpack 0 0;
#X obj 197 17 r 2boid2d;
#X obj 197 50 route \$1;
#X obj 105 305 pix_texture;
#X obj 179 279 r pointflou_texture;
#X obj 213 315 r boid2dsize;
#X floatatom 235 156 5 0 0 0 - - -;
#X obj 283 138 bng 15 250 50 0 empty empty empty 17 7 0 10 -262144
-1 -1;
#X obj 105 71 gemhead;
#X obj 105 337 square 0.15;
#X obj 105 132 color 1 1 1 0.8;
#X obj 105 188 alpha 1;
#X connect 0 0 6 0;
#X connect 1 0 2 0;
#X connect 2 0 9 0;
#X connect 3 0 0 1;
#X connect 3 1 0 2;
#X connect 4 0 5 0;
#X connect 5 0 3 0;
#X connect 6 0 12 0;
#X connect 7 0 6 1;
#X connect 8 0 12 1;
#X connect 10 0 2 0;
#X connect 11 0 13 0;
#X connect 13 0 14 0;
#X connect 14 0 0 0;
