#N canvas 657 237 512 407 12;
#N canvas 775 332 474 324 rand_color 0;
#X obj 47 154 * 0.001;
#X obj 131 130 random 1000;
#X obj 132 171 * 0.001;
#X obj 214 131 random 1000;
#X obj 46 83 t b b b;
#X obj 48 256 outlet;
#X obj 24 52 r init;
#X obj 215 172 * 0;
#X obj 47 130 random 500;
#X obj 48 185 + 0.5;
#X obj 49 217 pack 1 1 1 0.5;
#X connect 0 0 9 0;
#X connect 1 0 2 0;
#X connect 1 0 7 0;
#X connect 2 0 10 1;
#X connect 3 0 7 0;
#X connect 4 0 8 0;
#X connect 4 1 1 0;
#X connect 4 2 3 0;
#X connect 6 0 10 0;
#X connect 7 0 10 2;
#X connect 8 0 0 0;
#X connect 9 0 10 0;
#X connect 10 0 5 0;
#X restore 308 54 pd rand_color;
#X obj 325 81 t 1;
#X obj 197 141 unpack 0 0;
#X obj 197 17 r 2boid2d;
#X obj 197 50 route \$1;
#X obj 305 235 r boid2dsize;
#X floatatom 325 105 5 0 0 0 - - -;
#X obj 373 87 bng 15 250 50 0 empty empty empty 17 7 0 10 -262144 -1
-1;
#X obj 105 71 r boidhead;
#X obj 105 248 poftranslate;
#X obj 305 259 * 100;
#X obj 164 194 * 100;
#X obj 211 194 * 100;
#X obj 105 305 pofimage pointflou4.png 30;
#X connect 0 0 1 0;
#X connect 1 0 6 0;
#X connect 2 0 11 0;
#X connect 2 1 12 0;
#X connect 3 0 4 0;
#X connect 4 0 2 0;
#X connect 5 0 10 0;
#X connect 7 0 1 0;
#X connect 8 0 9 0;
#X connect 9 0 13 0;
#X connect 10 0 13 1;
#X connect 11 0 9 1;
#X connect 12 0 9 2;
