#N canvas 641 250 450 300 10;
#X obj 58 230 poffill 0;
#X floatatom 274 213 5 0 0 0 - - -;
#X obj 58 81 pofbang 1;
#X obj 58 204 poftranslate;
#X obj 77 120 random 2000;
#X obj 77 141 - 1000;
#X obj 159 121 random 1100;
#X obj 159 142 - 550;
#X obj 238 123 random 100;
#X obj 58 49 r \$2;
#X obj 58 256 pofcirc 50 50 50;
#X msg 315 166 linewidth \$1;
#X obj 315 124 loadbang;
#X msg 315 145 1;
#X obj 238 144 + 20;
#X connect 0 0 10 0;
#X connect 2 0 3 0;
#X connect 2 1 4 0;
#X connect 2 1 6 0;
#X connect 2 1 8 0;
#X connect 3 0 0 0;
#X connect 4 0 5 0;
#X connect 5 0 3 1;
#X connect 6 0 7 0;
#X connect 7 0 3 2;
#X connect 8 0 14 0;
#X connect 9 0 2 0;
#X connect 11 0 0 0;
#X connect 12 0 13 0;
#X connect 13 0 11 0;
#X connect 14 0 10 1;
#X connect 14 0 10 2;
