#N canvas 581 190 495 366 10;
#X floatatom 274 213 5 0 0 0 - - -;
#X obj 58 81 pofbang 1;
#X obj 58 204 poftranslate;
#X obj 77 120 random 2000;
#X obj 77 141 - 1000;
#X obj 159 121 random 1100;
#X obj 159 142 - 550;
#X obj 58 49 r \$2;
#X msg 315 166 linewidth \$1;
#X obj 315 124 loadbang;
#X msg 315 145 1;
#X obj 58 238 pofrotate;
#X obj 238 123 random 360;
#X obj 58 273 pofrect 1e+06 1;
#X obj 79 172 * 0.5;
#X obj 131 173 * 0.5;
#X connect 1 0 2 0;
#X connect 1 1 3 0;
#X connect 1 1 5 0;
#X connect 1 1 12 0;
#X connect 2 0 11 0;
#X connect 3 0 4 0;
#X connect 4 0 14 0;
#X connect 5 0 6 0;
#X connect 6 0 15 0;
#X connect 7 0 1 0;
#X connect 9 0 10 0;
#X connect 10 0 8 0;
#X connect 11 0 13 0;
#X connect 12 0 11 1;
#X connect 14 0 2 1;
#X connect 15 0 2 2;
