#N canvas 898 296 855 536 10;
#X obj 31 33 inlet;
#X obj 353 150 t a;
#X obj 604 143 r \$1-size;
#X obj 631 189 unpack f f;
#X floatatom 631 210 5 0 0 0 - - -;
#X floatatom 688 210 5 0 0 0 - - -;
#X obj 631 230 s \$0-W;
#X obj 688 229 s \$0-H;
#X obj 353 178 route tcorner;
#X obj 399 253 *;
#X obj 437 230 r \$0-W;
#X obj 524 229 r \$0-H;
#X obj 399 230 - 0.5;
#X obj 481 252 *;
#X obj 481 229 - 0.5;
#X obj 353 204 unpack f f f, f 16;
#X obj 353 276 pack f f f, f 16;
#X msg 353 297 corner \$1 \$2 \$3;
#X obj 437 251 * 1;
#X obj 524 251 * 1;
#X obj 31 172 s \$0-corners-params;
#X obj 247 58 r \$0-corners-toparams;
#X obj 247 79 route corner tcorner, f 36;
#X msg 247 102 corner \$1 \$2 \$3;
#N canvas 1167 681 543 347 aps 0;
#X obj 21 114 loadbang;
#X obj 21 135 list append \$1 \$2;
#X msg 21 156 label Projector:_\$1_\$2;
#X obj 21 177 s \$0-edit-namecanvas;
#X obj 85 112 bng 15 250 50 0 empty empty empty 17 7 0 10 -262144 -1
-1;
#X obj 19 20 apcorner CONFIG \$1-\$2 \$0 corner 0;
#X obj 19 39 apcorner CONFIG \$1-\$2 \$0 corner 1;
#X obj 19 58 apcorner CONFIG \$1-\$2 \$0 corner 2;
#X obj 19 77 apcorner CONFIG \$1-\$2 \$0 corner 3;
#X obj 230 19 apcorner CONFIG \$1-\$2 \$0 tcorner 0;
#X obj 230 38 apcorner CONFIG \$1-\$2 \$0 tcorner 1;
#X obj 230 57 apcorner CONFIG \$1-\$2 \$0 tcorner 2;
#X obj 230 76 apcorner CONFIG \$1-\$2 \$0 tcorner 3;
#X obj 254 128 rem apf CONFIG \$1-\$2-on \$1-\$2-on 2;
#X obj 254 151 rem apf CONFIG \$1-\$2-R \$0-R 2;
#X obj 254 170 rem apf CONFIG \$1-\$2-V \$0-V 2;
#X obj 254 188 rem apf CONFIG \$1-\$2-B \$0-B 2;
#X obj 184 296 print;
#X connect 0 0 1 0;
#X connect 1 0 2 0;
#X connect 2 0 3 0;
#X connect 4 0 1 0;
#X restore 504 190 pd aps;
#N canvas 1 416 913 507 touch-edit 1;
#X obj 120 25 inlet;
#X obj 120 46 pofvisible;
#X obj 173 23 tgl 15 0 empty empty empty 17 7 0 10 -262144 -1 -1 1
1;
#X obj 397 5 inlet;
#X obj 397 26 route corner;
#X obj 120 213 poftranslate;
#X obj 152 187 unpack f f;
#X msg 48 218 draw 1;
#X obj 48 196 loadbang;
#X obj 201 324 route down up;
#X obj 120 99 t a a, f 10;
#X obj 261 144 route move;
#X msg 201 345 1;
#X msg 238 345 0;
#X obj 168 367 spigot;
#X msg 168 388 0 \$1 \$2;
#X obj 272 491 outlet;
#X obj 321 214 poftranslate;
#X obj 353 188 unpack f f;
#X obj 402 325 route down up;
#X msg 402 346 1;
#X msg 439 346 0;
#X obj 369 368 spigot;
#X obj 503 210 poftranslate;
#X obj 535 184 unpack f f;
#X obj 584 321 route down up;
#X msg 584 342 1;
#X msg 621 342 0;
#X obj 551 364 spigot;
#X obj 685 212 poftranslate;
#X obj 717 186 unpack f f;
#X obj 766 323 route down up;
#X msg 766 344 1;
#X msg 803 344 0;
#X obj 733 366 spigot;
#X msg 369 389 1 \$1 \$2;
#X msg 551 385 2 \$1 \$2;
#X msg 733 387 3 \$1 \$2;
#X obj 397 47 route 0 1 2 3, f 42;
#X obj 120 70 pofcolor 0 1 0 0.5, f 34;
#X obj 173 4 r draw-quads-edit;
#X obj 120 122 poftouch 300000 300000 1;
#X obj 120 303 poftouch 80 80;
#X obj 321 304 poftouch 80 80;
#X obj 503 300 poftouch 80 80;
#X obj 685 302 poftouch 80 80;
#X obj 711 70 r projectors-touchedit-size;
#X obj 194 39 r \$0-R-snd;
#X obj 260 39 r \$0-V-snd;
#X obj 326 39 r \$0-B-snd;
#X obj 667 486 print;
#X obj 667 465 r #pofkey;
#X obj 299 4 r \$0-ctl-rcv;
#X connect 0 0 1 0;
#X connect 1 0 39 0;
#X connect 2 0 1 0;
#X connect 3 0 4 0;
#X connect 4 0 38 0;
#X connect 5 0 42 0;
#X connect 6 0 5 1;
#X connect 6 1 5 2;
#X connect 7 0 42 0;
#X connect 7 0 43 0;
#X connect 7 0 44 0;
#X connect 7 0 45 0;
#X connect 8 0 7 0;
#X connect 9 0 12 0;
#X connect 9 1 13 0;
#X connect 10 0 41 0;
#X connect 10 1 5 0;
#X connect 10 1 17 0;
#X connect 10 1 23 0;
#X connect 10 1 29 0;
#X connect 11 0 14 0;
#X connect 11 0 22 0;
#X connect 11 0 28 0;
#X connect 11 0 34 0;
#X connect 12 0 14 1;
#X connect 13 0 14 1;
#X connect 14 0 15 0;
#X connect 15 0 16 0;
#X connect 17 0 43 0;
#X connect 18 0 17 1;
#X connect 18 1 17 2;
#X connect 19 0 20 0;
#X connect 19 1 21 0;
#X connect 20 0 22 1;
#X connect 21 0 22 1;
#X connect 22 0 35 0;
#X connect 23 0 44 0;
#X connect 24 0 23 1;
#X connect 24 1 23 2;
#X connect 25 0 26 0;
#X connect 25 1 27 0;
#X connect 26 0 28 1;
#X connect 27 0 28 1;
#X connect 28 0 36 0;
#X connect 29 0 45 0;
#X connect 30 0 29 1;
#X connect 30 1 29 2;
#X connect 31 0 32 0;
#X connect 31 1 33 0;
#X connect 32 0 34 1;
#X connect 33 0 34 1;
#X connect 34 0 37 0;
#X connect 35 0 16 0;
#X connect 36 0 16 0;
#X connect 37 0 16 0;
#X connect 38 0 6 0;
#X connect 38 1 18 0;
#X connect 38 2 24 0;
#X connect 38 3 30 0;
#X connect 39 0 10 0;
#X connect 40 0 2 0;
#X connect 41 1 11 0;
#X connect 42 1 9 0;
#X connect 43 1 19 0;
#X connect 44 1 25 0;
#X connect 45 1 31 0;
#X connect 46 0 42 1;
#X connect 46 0 42 2;
#X connect 46 0 43 1;
#X connect 46 0 43 2;
#X connect 46 0 44 1;
#X connect 46 0 44 2;
#X connect 46 0 45 1;
#X connect 46 0 45 2;
#X connect 47 0 39 1;
#X connect 48 0 39 2;
#X connect 49 0 39 3;
#X connect 51 0 50 0;
#X connect 52 0 2 0;
#X restore 31 126 pd touch-edit;
#X msg 31 149 corner \$1 \$2 \$3;
#N canvas 1281 112 428 192 \$1-\$2-edit 0;
#X obj 23 124 nbx 6 20 -1e+37 1e+37 0 0 \$0-corner-3-x-snd \$0-corner-3-x-rcv
x -10 10 0 14 -262144 -1 -1 -807 256;
#X obj 23 145 nbx 6 20 -1e+37 1e+37 0 0 \$0-corner-3-y-snd \$0-corner-3-y-rcv
y -10 10 0 14 -262144 -1 -1 260 256;
#X obj 23 78 nbx 6 20 -1e+37 1e+37 0 0 \$0-corner-0-x-snd \$0-corner-0-x-rcv
x -10 10 0 14 -262144 -1 -1 -797 256;
#X obj 23 99 nbx 6 20 -1e+37 1e+37 0 0 \$0-corner-0-y-snd \$0-corner-0-y-rcv
y -10 10 0 14 -262144 -1 -1 -161 256;
#X obj 127 79 nbx 6 20 -1e+37 1e+37 0 0 \$0-corner-1-x-snd \$0-corner-1-x-rcv
x -10 10 0 14 -262144 -1 -1 -286 256;
#X obj 127 100 nbx 6 20 -1e+37 1e+37 0 0 \$0-corner-1-y-snd \$0-corner-1-y-rcv
y -10 10 0 14 -262144 -1 -1 -186 256;
#X obj 127 125 nbx 6 20 -1e+37 1e+37 0 0 \$0-corner-2-x-snd \$0-corner-2-x-rcv
x -10 10 0 14 -262144 -1 -1 -271 256;
#X obj 127 146 nbx 6 20 -1e+37 1e+37 0 0 \$0-corner-2-y-snd \$0-corner-2-y-rcv
y -10 10 0 14 -262144 -1 -1 255 256;
#X obj 23 7 cnv 15 300 30 empty \$0-edit-namecanvas Projector:_mapping_LEFT
20 12 0 14 -233017 -66577 0;
#X text 30 53 on_screen_corners(pixels):;
#X obj 236 81 vsl 15 80 0 1 0 0 \$0-R-snd \$0-R-rcv R 0 -9 0 10 -258113
-1 -1 7900 1;
#X obj 254 81 vsl 15 80 0 1 0 0 \$0-V-snd \$0-V-rcv V 0 -9 0 10 -4034
-1 -1 0 1;
#X obj 273 81 vsl 15 80 0 1 0 0 \$0-B-snd \$0-B-rcv B 0 -9 0 10 -1856
-1 -1 0 1;
#X restore 504 169 pd \$1-\$2-edit;
#N canvas 701 312 440 594 convert-relative-tcorners 0;
#X obj 145 496 t a;
#X obj 46 382 /;
#X obj 61 362 r \$0-W;
#X obj 109 383 /;
#X obj 46 404 pack 0 0, f 11;
#X obj 228 405 pack 1 0, f 12;
#X obj 124 362 r \$0-H;
#X obj 228 381 /;
#X obj 254 354 r \$0-W;
#X obj 297 381 /;
#X obj 312 359 r \$0-H;
#X obj 228 356 +;
#X obj 44 227 /;
#X obj 59 207 r \$0-W;
#X obj 107 229 /;
#X obj 136 204 r \$0-H;
#X obj 107 207 +;
#X obj 44 251 pack 0 1, f 11;
#X obj 224 224 /;
#X obj 250 200 r \$0-W;
#X obj 293 224 /;
#X obj 319 201 r \$0-H;
#X obj 293 201 +;
#X obj 224 200 +;
#X obj 224 250 pack 1 1, f 12;
#X obj 96 78 route 0 1 2 3;
#X obj 44 163 unpack f f, f 11;
#X obj 224 156 unpack f f, f 12;
#X obj 46 321 unpack f f, f 11;
#X obj 228 312 unpack f f, f 12;
#X obj 145 517 outlet;
#X obj 96 54 inlet;
#X msg 44 277 3 \$1 \$2;
#X msg 224 276 2 \$1 \$2;
#X msg 228 427 1 \$1 \$2;
#X msg 46 427 0 \$1 \$2;
#X obj 239 52 r \$0-update;
#X obj 278 130 t b b;
#X obj 101 141 t b b;
#X obj 301 289 t b b;
#X obj 124 294 t b b;
#X obj 224 177 * -1;
#X obj 293 179 * -1;
#X obj 297 338 * 1;
#X obj 228 332 * -1;
#X obj 46 344 * 1;
#X obj 109 341 * 1;
#X obj 107 184 * -1;
#X obj 44 186 * 1;
#X connect 0 0 30 0;
#X connect 1 0 4 0;
#X connect 2 0 1 1;
#X connect 3 0 4 1;
#X connect 4 0 35 0;
#X connect 5 0 34 0;
#X connect 6 0 3 1;
#X connect 7 0 5 0;
#X connect 8 0 11 1;
#X connect 8 0 7 1;
#X connect 9 0 5 1;
#X connect 10 0 9 1;
#X connect 11 0 7 0;
#X connect 12 0 17 0;
#X connect 13 0 12 1;
#X connect 14 0 17 1;
#X connect 15 0 16 1;
#X connect 15 0 14 1;
#X connect 16 0 14 0;
#X connect 17 0 32 0;
#X connect 18 0 24 0;
#X connect 19 0 23 1;
#X connect 19 0 18 1;
#X connect 20 0 24 1;
#X connect 21 0 22 1;
#X connect 21 0 20 1;
#X connect 22 0 20 0;
#X connect 23 0 18 0;
#X connect 24 0 33 0;
#X connect 25 0 28 0;
#X connect 25 1 29 0;
#X connect 25 2 27 0;
#X connect 25 3 26 0;
#X connect 26 0 48 0;
#X connect 26 1 47 0;
#X connect 27 0 41 0;
#X connect 27 1 42 0;
#X connect 28 0 45 0;
#X connect 28 1 46 0;
#X connect 29 0 44 0;
#X connect 29 1 43 0;
#X connect 31 0 25 0;
#X connect 32 0 0 0;
#X connect 33 0 0 0;
#X connect 34 0 0 0;
#X connect 35 0 0 0;
#X connect 36 0 38 0;
#X connect 36 0 37 0;
#X connect 36 0 40 0;
#X connect 36 0 39 0;
#X connect 37 0 41 0;
#X connect 37 1 42 0;
#X connect 38 0 48 0;
#X connect 38 1 47 0;
#X connect 39 0 44 0;
#X connect 39 1 43 0;
#X connect 40 0 45 0;
#X connect 40 1 46 0;
#X connect 41 0 23 0;
#X connect 42 0 22 0;
#X connect 43 0 9 0;
#X connect 44 0 11 0;
#X connect 45 0 1 0;
#X connect 46 0 3 0;
#X connect 47 0 16 0;
#X connect 48 0 12 0;
#X restore 353 106 pd convert-relative-tcorners;
#X msg 353 128 tcorner \$1 \$2 \$3;
#X obj 106 103 r \$0-corners-toparams;
#X obj 602 51 r \$0-edit;
#X msg 602 72 vis 1;
#X obj 602 93 s pd-\$1-\$2-edit;
#X obj 604 165 t b a;
#X obj 604 252 s \$0-update;
#X obj 58 250 pofquad;
#X obj 31 97 t a a;
#X obj 58 220 poftexture \$3;
#X msg 735 136 1920 1080;
#X msg 735 162 19 6;
#X obj 735 111 loadbang;
#X obj 141 441 nbx 6 20 -1e+37 1e+37 0 0 \$0-tcorner-3-x-snd \$0-tcorner-3-x-rcv
x -10 10 0 14 -262144 -1 -1 0 256;
#X obj 141 462 nbx 6 20 -1e+37 1e+37 0 0 \$0-tcorner-3-y-snd \$0-tcorner-3-y-rcv
y -10 10 0 14 -262144 -1 -1 0 256;
#X obj 141 395 nbx 6 20 -1e+37 1e+37 0 0 \$0-tcorner-0-x-snd \$0-tcorner-0-x-rcv
x -10 10 0 14 -262144 -1 -1 0 256;
#X obj 141 416 nbx 6 20 -1e+37 1e+37 0 0 \$0-tcorner-0-y-snd \$0-tcorner-0-y-rcv
y -10 10 0 14 -262144 -1 -1 0 256;
#X obj 245 396 nbx 6 20 -1e+37 1e+37 0 0 \$0-tcorner-1-x-snd \$0-tcorner-1-x-rcv
x -10 10 0 14 -262144 -1 -1 960 256;
#X obj 245 417 nbx 6 20 -1e+37 1e+37 0 0 \$0-tcorner-1-y-snd \$0-tcorner-1-y-rcv
y -10 10 0 14 -262144 -1 -1 0 256;
#X obj 245 442 nbx 6 20 -1e+37 1e+37 0 0 \$0-tcorner-2-x-snd \$0-tcorner-2-x-rcv
x -10 10 0 14 -262144 -1 -1 960 256;
#X obj 245 463 nbx 6 20 -1e+37 1e+37 0 0 \$0-tcorner-2-y-snd \$0-tcorner-2-y-rcv
y -10 10 0 14 -262144 -1 -1 0 256;
#X text 118 371 texture_corners(pixel from corner):;
#X obj 31 65 pofvisible;
#X obj 91 29 r \$0-on-rcv;
#X obj 407 335 r CONFIG-setap-snd;
#X obj 407 378 s \$0-R-rcv;
#X obj 476 378 s \$0-V-rcv;
#X obj 545 378 s \$0-B-rcv;
#X obj 615 378 s \$0-on-rcv;
#X obj 407 356 route \$1-\$2-R \$1-\$2-V \$1-\$2-B \$1-\$2-on \$1-\$2-ctl
, f 59;
#X obj 689 378 s \$0-ctl-rcv;
#X connect 0 0 51 0;
#X connect 1 0 8 0;
#X connect 1 0 36 0;
#X connect 2 0 34 0;
#X connect 3 0 4 0;
#X connect 3 1 5 0;
#X connect 4 0 6 0;
#X connect 5 0 7 0;
#X connect 8 0 15 0;
#X connect 9 0 16 1;
#X connect 10 0 18 0;
#X connect 11 0 19 0;
#X connect 12 0 9 0;
#X connect 13 0 16 2;
#X connect 14 0 13 0;
#X connect 15 0 16 0;
#X connect 15 1 12 0;
#X connect 15 2 14 0;
#X connect 16 0 17 0;
#X connect 18 0 9 1;
#X connect 19 0 13 1;
#X connect 21 0 22 0;
#X connect 22 0 23 0;
#X connect 22 1 28 0;
#X connect 23 0 36 0;
#X connect 25 0 26 0;
#X connect 26 0 20 0;
#X connect 28 0 29 0;
#X connect 29 0 1 0;
#X connect 30 0 25 1;
#X connect 31 0 32 0;
#X connect 32 0 33 0;
#X connect 34 0 35 0;
#X connect 34 1 3 0;
#X connect 37 0 25 0;
#X connect 37 1 38 0;
#X connect 38 0 36 0;
#X connect 39 0 34 0;
#X connect 40 0 34 0;
#X connect 41 0 39 0;
#X connect 51 0 37 0;
#X connect 52 0 51 0;
#X connect 53 0 58 0;
#X connect 58 0 54 0;
#X connect 58 1 55 0;
#X connect 58 2 56 0;
#X connect 58 3 57 0;
#X connect 58 4 59 0;
