#N canvas 1 81 450 300 12;
#X obj 114 180 pack f f;
#X obj 167 126 - 0.5;
#X obj 114 100 / 30;
#X obj 114 128 - 0.5;
#X obj 167 98 / 15;
#X obj 114 204 s P\$1;
#X obj 114 42 r 2oscPoints;
#X obj 114 68 route P\$1x P\$1y, f 16;
#X obj 114 155 * 15;
#X obj 167 154 * 15;
#X connect 0 0 5 0;
#X connect 1 0 9 0;
#X connect 2 0 3 0;
#X connect 3 0 8 0;
#X connect 4 0 1 0;
#X connect 6 0 7 0;
#X connect 7 0 2 0;
#X connect 7 1 4 0;
#X connect 8 0 0 0;
#X connect 9 0 0 1;
