#N canvas 4 81 450 300 12;
#X obj 114 180 pack f f;
#X obj 167 126 - 0.5;
#X obj 114 100 / 30;
#X obj 114 128 - 0.5;
#X obj 167 98 / 15;
#X obj 167 154 * 7.5;
#X obj 114 154 * 10;
#X obj 114 204 s P\$1;
#X obj 114 42 r 2oscPoints;
#X obj 114 68 route P\$1x P\$1y, f 16;
#X connect 0 0 7 0;
#X connect 1 0 5 0;
#X connect 2 0 3 0;
#X connect 3 0 6 0;
#X connect 4 0 1 0;
#X connect 5 0 0 1;
#X connect 6 0 0 0;
#X connect 8 0 9 0;
#X connect 9 0 2 0;
#X connect 9 1 4 0;
