#N canvas 245 507 687 449 10;
#X floatatom 103 114 5 0 0 0 - - -;
#X obj 103 224 list trim;
#X obj 103 203 list prepend \$2;
#X obj 103 243 s \$1;
#X obj 143 115 hsl 128 15 0 1 0 0 \$0-s-snd \$0-s-rcv \$2 4 8 0 10
-262130 -1 -258113 0 1;
#X obj 400 87 loadbang;
#X obj 400 108 f \$6;
#X obj 400 129 moses 0;
#X obj 439 151 + 1;
#X msg 394 34 -2;
#X msg 422 35 -1;
#X msg 451 36 0;
#X msg 479 37 1;
#X msg 509 36 2;
#X floatatom 445 66 5 0 0 0 - - -;
#X obj 400 149 - 1;
#X obj 400 170 * -1;
#X msg 400 191 1 \$1;
#X obj 400 212 /;
#X obj 400 233 f;
#X msg 396 353 1 \$1;
#X obj 396 374 /;
#X obj 250 214 r \$0-s-snd;
#X obj 511 90 loadbang;
#X obj 511 111 list prepend \$4 \$5;
#X obj 511 132 unpack f f;
#X obj 511 153 * -1;
#X obj 511 174 +;
#X floatatom 511 195 5 0 0 0 - - -;
#X obj 491 111 bng 15 250 50 0 empty empty empty 17 7 0 10 -262144
-1 -1;
#X obj 269 282 *;
#X obj 269 303 +;
#X floatatom 269 324 5 0 0 0 - - -;
#X obj 357 333 -;
#X obj 357 354 /;
#X obj 269 261 pow 1;
#X obj 357 375 pow 1;
#X obj 250 236 t b f b;
#X msg 361 289 1;
#X msg 388 289 0;
#X msg 357 396 set \$1;
#X obj 357 415 s \$0-s-rcv;
#X obj 53 67 apf \$3 \$2;
#X obj 357 311 spigot 1;
#X obj 103 158 clip \$4 \$5;
#X obj 123 67 apf global \$3-\$2 \$0-null \$7;
#X connect 0 0 42 0;
#X connect 0 0 43 0;
#X connect 0 0 44 0;
#X connect 0 0 45 0;
#X connect 1 0 3 0;
#X connect 2 0 1 0;
#X connect 5 0 6 0;
#X connect 6 0 7 0;
#X connect 7 0 15 0;
#X connect 7 1 8 0;
#X connect 8 0 19 0;
#X connect 9 0 14 0;
#X connect 10 0 14 0;
#X connect 11 0 14 0;
#X connect 12 0 14 0;
#X connect 13 0 14 0;
#X connect 14 0 6 0;
#X connect 15 0 16 0;
#X connect 16 0 17 0;
#X connect 17 0 18 0;
#X connect 18 0 19 0;
#X connect 19 0 20 0;
#X connect 19 0 35 1;
#X connect 20 0 21 0;
#X connect 21 0 36 1;
#X connect 22 0 37 0;
#X connect 23 0 24 0;
#X connect 24 0 25 0;
#X connect 25 0 26 0;
#X connect 25 0 31 1;
#X connect 25 0 33 1;
#X connect 25 1 27 1;
#X connect 26 0 27 0;
#X connect 27 0 28 0;
#X connect 27 0 30 1;
#X connect 27 0 34 1;
#X connect 29 0 24 0;
#X connect 29 0 6 0;
#X connect 30 0 31 0;
#X connect 31 0 32 0;
#X connect 31 0 0 0;
#X connect 33 0 34 0;
#X connect 34 0 36 0;
#X connect 35 0 30 0;
#X connect 36 0 40 0;
#X connect 37 0 38 0;
#X connect 37 1 35 0;
#X connect 37 2 39 0;
#X connect 38 0 43 1;
#X connect 39 0 43 1;
#X connect 40 0 41 0;
#X connect 42 0 0 0;
#X connect 43 0 33 0;
#X connect 44 0 2 0;
#X connect 45 0 0 0;
#X coords 0 -1 1 1 180 32 1 100 100;
