#N canvas 620 157 450 413 12;
#X obj 155 107 pofcolor \$1 \$2 \$3 1;
#X obj 155 214 poftranslate;
#X obj 351 31 inlet;
#X obj 182 148 unpack f f;
#X obj 182 181 * 100;
#X obj 229 181 * 100;
#X obj 155 70 pofvisible;
#X obj 262 32 r showDebug;
#X obj 154 239 t a a, f 20;
#X obj 154 270 pofrect 100 10;
#X obj 137 303 pofrect 10 100;
#X obj 291 288 pofcirc 100 100;
#X obj 155 33 r postboidhead;
#X obj 291 264 pofcolor 0 0 0 0.75;
#X connect 0 0 1 0;
#X connect 1 0 8 0;
#X connect 2 0 3 0;
#X connect 3 0 4 0;
#X connect 3 1 5 0;
#X connect 4 0 1 1;
#X connect 5 0 1 2;
#X connect 6 0 0 0;
#X connect 7 0 6 0;
#X connect 8 0 9 0;
#X connect 8 0 10 0;
#X connect 8 1 13 0;
#X connect 12 0 6 0;
#X connect 13 0 11 0;
