#N canvas 585 264 450 413 12;
#X obj 153 265 pofrect 100 5;
#X obj 192 302 pofrect 5 100;
#X obj 155 107 pofcolor \$1 \$2 \$3 1;
#X obj 155 214 poftranslate;
#X obj 336 32 inlet;
#X obj 182 148 unpack f f;
#X obj 182 181 * 100;
#X obj 229 181 * 100;
#X obj 155 70 pofvisible;
#X obj 238 32 r showDebug;
#X obj 155 33 r boidhead;
#X connect 2 0 3 0;
#X connect 3 0 0 0;
#X connect 3 0 1 0;
#X connect 4 0 5 0;
#X connect 5 0 6 0;
#X connect 5 1 7 0;
#X connect 6 0 3 1;
#X connect 7 0 3 2;
#X connect 8 0 2 0;
#X connect 9 0 8 0;
#X connect 10 0 8 0;
