#N canvas 585 264 450 300 12;
#X obj 153 223 pofrect 100 5;
#X obj 192 260 pofrect 5 100;
#X obj 155 65 pofcolor \$1 \$2 \$3 1;
#X obj 155 172 poftranslate;
#X obj 220 29 inlet;
#X obj 182 106 unpack f f;
#X obj 155 33 pofhead;
#X obj 182 139 * 100;
#X obj 229 139 * 100;
#X connect 2 0 3 0;
#X connect 3 0 0 0;
#X connect 3 0 1 0;
#X connect 4 0 5 0;
#X connect 5 0 7 0;
#X connect 5 1 8 0;
#X connect 6 0 2 0;
#X connect 7 0 3 1;
#X connect 8 0 3 2;
