#N canvas 405 92 537 636 10;
#X declare -path cyclone;
#X declare -path ../../tools/AutoPreset;
#X declare -lib cyclone -lib Gem -path boids;
#X text 155 95 maximum speed of speed range;
#X text 157 134 minimum speed of speed range;
#X text 143 164 strength of centering instinct;
#X text 140 373 overall speed;
#X text 141 446 speed of acceleration;
#X text 160 482 preferred distance from neighbors;
#X text 140 304 strength of neighbor speed matching instinct;
#X text 141 345 strength of neighbor avoidance instinct;
#X text 165 200 strength of attraction to 'attractpt';
#X msg 12 36 destroy;
#N canvas 736 142 629 324 gemwin 0;
#X obj 219 190 gemwin;
#X obj 66 194 outlet;
#X obj 67 10 inlet;
#X obj 67 41 route create;
#X msg 67 70 set destroy;
#X msg 157 70 set create;
#X msg 350 115 destroy \, reset;
#X msg 238 71 color 0 0 0.01;
#X obj 238 48 loadbang;
#X msg 212 146 dimen 800 800 \, create \, 1 \, frame 30 \, color 0
0 0;
#X msg 383 186 frame 30;
#X obj 162 180 tgl 15 0 empty empty empty 17 7 0 10 -262144 -1 -1 0
1;
#X connect 2 0 3 0;
#X connect 3 0 4 0;
#X connect 3 0 9 0;
#X connect 3 1 5 0;
#X connect 3 1 6 0;
#X connect 4 0 1 0;
#X connect 5 0 1 0;
#X connect 6 0 0 0;
#X connect 7 0 0 0;
#X connect 8 0 7 0;
#X connect 8 0 5 0;
#X connect 9 0 0 0;
#X connect 10 0 0 0;
#X connect 11 0 0 0;
#X restore 12 56 pd gemwin;
#X text 75 35 create/destroy OpenGl context;
#X obj 5 92 param boidParam maxspeed;
#X obj 6 126 param boidParam minspeed;
#X obj 6 161 param boidParam center;
#X obj 7 265 param boidParamI repuls234;
#X obj 7 195 param boidParamI attract1;
#X obj 7 230 param boidParamI repuls1;
#X obj 8 299 param boidParam match;
#X obj 8 335 param boidParam avoid;
#X obj 7 367 param boidParam speed;
#X obj 7 402 param boidParam inertia;
#X text 150 406 willingness to keep speed and direction;
#X obj 10 439 param boidParam accel;
#X obj 10 474 param boidParam prefdist;
#N canvas 673 83 627 624 guts 0;
#X obj 53 7 inlet;
#X obj 49 83 tgl 15 0 empty empty start_flocking_animation 20 6 1 10
-262144 -1 -1 1 1;
#X obj 211 130 r boidParam;
#X obj 49 104 metro 33;
#X floatatom 49 236 5 0 0 0 - - -;
#X floatatom 100 236 5 0 0 0 - - -;
#X obj 74 308 s boidParam;
#N canvas 789 302 466 316 orbit 0;
#X floatatom 103 107 5 0 0 0 - - -;
#X obj 134 169 expr $f1 * (3.141593/180.);
#X obj 103 134 t b f;
#X obj 103 28 inlet;
#X obj 152 254 outlet;
#X obj 96 254 outlet;
#X obj 102 170 1.5;
#X obj 103 65 counter 360;
#X obj 102 204 poltocar;
#X connect 0 0 2 0;
#X connect 1 0 8 1;
#X connect 2 0 6 0;
#X connect 2 1 1 0;
#X connect 3 0 7 0;
#X connect 6 0 8 0;
#X connect 7 0 0 0;
#X connect 8 0 4 0;
#X connect 8 1 5 0;
#X restore 49 214 pd orbit;
#X obj 49 173 spigot;
#X obj 85 152 tgl 15 0 empty empty empty 0 -6 0 8 -262144 -1 -1 1 1
;
#X obj 345 104 s init;
#X obj 364 75 loadbang;
#X obj 346 76 bng 15 250 50 0 empty empty empty 0 -6 0 8 -262144 -1
-1;
#X obj 49 259 pack 0 0;
#X obj 230 11 declare -path cyclone;
#X obj 211 175 s 2boid2d;
#X obj 372 178 gemhead 10;
#X obj 372 220 pix_texture;
#X obj 436 241 s pointflou_texture;
#X obj 297 181 gemhead;
#X obj 276 219 alpha;
#X obj 276 240 s 2boidgem;
#X obj 384 308 s boid2dsize;
#X msg 384 281 0.5;
#X msg 412 279 0.2;
#X floatatom 452 275 5 0 0 0 - - -;
#X obj 235 447 s boidParam;
#X floatatom 235 355 5 0 0 0 - - -;
#N canvas 1 81 418 379 center 0;
#X obj 101 37 gemhead;
#X obj 99 201 translateXYZ;
#X obj 124 166 unpack 0 0 0;
#X obj 147 94 inlet;
#X msg 240 193 draw line;
#X obj 252 106 loadbang;
#X obj 100 131 alpha;
#X obj 101 68 color 1 0 0 0.5;
#X obj 99 228 circle 0.1;
#X connect 0 0 7 0;
#X connect 1 0 8 0;
#X connect 2 0 1 1;
#X connect 2 1 1 2;
#X connect 2 2 1 3;
#X connect 3 0 2 0;
#X connect 5 0 4 0;
#X connect 6 0 1 0;
#X connect 7 0 6 0;
#X restore 164 448 pd center;
#X obj 235 401 pack 0 0;
#X obj 275 370 t b f;
#X floatatom 278 352 5 0 0 0 - - -;
#X msg 436 136 open pointflou3.png;
#X msg 432 159 open pointflou2.png;
#X msg 421 107 open pointflou4.png;
#X obj 115 529 apmaster boids;
#X obj 217 537 apmasterfile boids boids_presets.txt;
#X obj 217 493 loadbang;
#X obj 217 516 bng 15 250 50 0 empty empty load 17 7 0 10 -4034 -1
-1;
#X obj 430 515 bng 15 250 50 0 empty empty save 17 7 0 10 -258113 -1
-1;
#N canvas 744 236 480 497 init 0;
#X obj 34 21 loadbang;
#X obj 94 21 r reset;
#X msg 15 78 \; neighbors 4;
#X msg 22 367 \; speed 3;
#X obj 16 49 b;
#X obj 17 21 bng 15 250 50 0 empty empty empty 0 -6 0 8 -262144 -1
-1;
#X msg 22 457 \; prefdist 1.5;
#X msg 21 128 \; maxspeed 1.5;
#X msg 22 157 \; minspeed 1.2;
#X msg 22 187 \; center 1.2;
#X msg 22 217 \; attract 1.25;
#X msg 22 247 \; match 0.3;
#X msg 22 307 \; repel 3.5;
#X msg 22 277 \; avoid 3.5;
#X msg 22 337 \; edgedist 3;
#X msg 22 398 \; inertia 4.5;
#X msg 22 427 \; accel 2.5;
#X msg 122 134 neighbors \$1;
#X floatatom 122 118 5 0 4 0 - neighbors -;
#X floatatom 122 83 5 0 0 0 - - -;
#X msg 122 98 number \$1;
#X obj 111 155 s boidParam;
#X msg 160 56 500;
#X msg 131 56 600;
#X text 158 82 number of boids;
#X text 158 117 number of neighbors each boid consults when flocking
;
#X connect 0 0 4 0;
#X connect 1 0 4 0;
#X connect 4 0 2 0;
#X connect 5 0 4 0;
#X connect 17 0 21 0;
#X connect 18 0 17 0;
#X connect 19 0 20 0;
#X connect 20 0 21 0;
#X connect 22 0 19 0;
#X connect 23 0 19 0;
#X restore 545 22 pd init;
#X obj 231 31 declare -path ../../tools/AutoPreset;
#X msg 293 131 reset;
#X obj 373 197 pix_image pointflou4.png;
#X obj 208 214 t b b;
#X floatatom 208 256 5 0 0 0 - - -;
#X obj 208 235 realtime;
#X msg 114 107 33;
#X obj 317 160 tgl 15 0 empty empty empty 17 7 0 10 -262144 -1 -1 0
1;
#X obj 144 199 t b b;
#X floatatom 144 241 5 0 0 0 - - -;
#X obj 144 220 realtime;
#X obj 447 373 * -1;
#X obj 509 374 * -1;
#X msg 383 374 0 \$1;
#X msg 446 394 1 \$1;
#X msg 509 394 2 \$1 \, 3 \$1 \, 4 \$1;
#X msg 383 424 attract \$1 \$2;
#X obj 383 332 r boidParamI;
#X msg 74 285 attractpt 0 \$1 \$2 \, attractpt 1 \$1 \$2;
#X obj 383 353 route attract1 repuls1 repuls234;
#X msg 234 424 attractpt 2 \$1 \$2;
#X obj 382 444 s boidParam;
#N canvas 1 81 418 379 center 0;
#X obj 101 37 gemhead;
#X obj 99 201 translateXYZ;
#X obj 124 166 unpack 0 0 0;
#X obj 147 94 inlet;
#X msg 240 193 draw line;
#X obj 252 106 loadbang;
#X obj 100 131 alpha;
#X obj 101 68 color 0 0 1 0.5;
#X obj 99 228 circle 0.1;
#X connect 0 0 7 0;
#X connect 1 0 8 0;
#X connect 2 0 1 1;
#X connect 2 1 1 2;
#X connect 2 2 1 3;
#X connect 3 0 2 0;
#X connect 5 0 4 0;
#X connect 6 0 1 0;
#X connect 7 0 6 0;
#X restore 49 336 pd center;
#X obj 231 50 declare -lib cyclone -lib Gem -path boids;
#X obj 518 278 r boidSetting;
#X obj 518 299 route size;
#X obj 518 320 / 100;
#X obj 373 491 r boids-save;
#X obj 211 154 boids2d 500;
#X obj 256 313 clone boid2d 500;
#X connect 0 0 1 0;
#X connect 1 0 3 0;
#X connect 2 0 69 0;
#X connect 3 0 8 0;
#X connect 3 0 49 0;
#X connect 3 0 69 0;
#X connect 4 0 13 0;
#X connect 5 0 13 1;
#X connect 7 0 4 0;
#X connect 7 1 5 0;
#X connect 8 0 7 0;
#X connect 9 0 8 1;
#X connect 11 0 10 0;
#X connect 11 0 9 0;
#X connect 12 0 10 0;
#X connect 13 0 59 0;
#X connect 13 0 63 0;
#X connect 16 0 43 0;
#X connect 17 1 18 0;
#X connect 19 0 20 0;
#X connect 19 0 44 0;
#X connect 20 0 21 0;
#X connect 23 0 22 0;
#X connect 24 0 22 0;
#X connect 25 0 22 0;
#X connect 27 0 29 0;
#X connect 29 0 61 0;
#X connect 29 0 28 0;
#X connect 30 0 29 0;
#X connect 30 1 29 1;
#X connect 31 0 30 0;
#X connect 32 0 43 0;
#X connect 33 0 43 0;
#X connect 34 0 43 0;
#X connect 37 0 38 0;
#X connect 38 0 36 0;
#X connect 39 0 36 1;
#X connect 42 0 69 0;
#X connect 43 0 17 0;
#X connect 44 0 46 0;
#X connect 44 1 46 1;
#X connect 46 0 45 0;
#X connect 47 0 3 1;
#X connect 48 0 19 0;
#X connect 49 0 51 0;
#X connect 49 1 51 1;
#X connect 51 0 50 0;
#X connect 52 0 55 0;
#X connect 53 0 56 0;
#X connect 54 0 57 0;
#X connect 55 0 57 0;
#X connect 56 0 57 0;
#X connect 57 0 62 0;
#X connect 58 0 60 0;
#X connect 59 0 6 0;
#X connect 60 0 54 0;
#X connect 60 1 52 0;
#X connect 60 2 53 0;
#X connect 61 0 26 0;
#X connect 65 0 66 0;
#X connect 66 0 67 0;
#X connect 67 0 25 0;
#X connect 68 0 39 0;
#X connect 69 0 15 0;
#X restore 268 48 pd guts;
#X obj 267 29 tgl 15 0 empty empty start_flocking_animation 20 6 1
10 -262144 -1 -1 1 1;
#X obj 11 517 param boidSetting size;
#X obj 180 531 hradio 15 1 0 16 empty empty 1..2..3.4..5..6.7.8..9.10.11.2.3.14.15.6
0 -8 0 10 -4034 -1 -1 -49;
#X obj 180 552 hradio 15 1 0 16 empty empty empty 0 -8 0 10 -258113
-1 -1 6;
#X msg 179 578 _all_ load \$1;
#X msg 288 579 _all_ store \$1;
#X obj 179 611 s boids-pattern-snd;
#X obj 447 537 bng 30 250 50 0 boids-save boids-save boids-save 0 -8
0 10 -258113 -1 -1;
#X connect 9 0 10 0;
#X connect 10 0 9 0;
#X connect 26 0 25 0;
#X connect 28 0 30 0;
#X connect 29 0 31 0;
#X connect 30 0 32 0;
#X connect 31 0 32 0;
