#N canvas 133 98 537 636 10;
#X declare -path cyclone;
#X declare -path ../../tools/AutoPreset;
#X declare -lib cyclone -lib pof -path boids;
#X text 155 95 maximum speed of speed range;
#X text 157 134 minimum speed of speed range;
#X text 143 164 strength of centering instinct;
#X text 140 373 overall speed;
#X text 141 446 speed of acceleration;
#X text 160 482 preferred distance from neighbors;
#X text 140 304 strength of neighbor speed matching instinct;
#X text 141 345 strength of neighbor avoidance instinct;
#X text 165 200 strength of attraction to 'attractpt';
#X msg 12 36 create;
#N canvas 736 142 629 324 gemwin 0;
#X obj 66 194 outlet;
#X obj 67 10 inlet;
#X msg 238 71 color 0 0 0.01;
#X obj 238 48 loadbang;
#X msg 212 146 dimen 800 800 \, create \, 1 \, frame 30 \, color 0
0 0;
#X msg 383 186 frame 30;
#X obj 162 180 tgl 15 0 empty empty empty 17 7 0 10 -262144 -1 -1 0
1;
#X connect 3 0 2 0;
#X restore 12 56 pd gemwin;
#X text 75 35 create/destroy OpenGl context;
#X obj 5 92 param boidParam maxspeed;
#X obj 6 126 param boidParam minspeed;
#X obj 6 161 param boidParam center;
#X obj 7 265 param boidParamI repuls234;
#X obj 7 195 param boidParamI attract1;
#X obj 7 230 param boidParamI repuls1;
#X obj 8 299 param boidParam match;
#X obj 8 335 param boidParam avoid;
#X obj 7 367 param boidParam speed;
#X obj 7 402 param boidParam inertia;
#X text 150 406 willingness to keep speed and direction;
#X obj 10 439 param boidParam accel;
#X obj 10 474 param boidParam prefdist;
#N canvas 475 118 817 624 guts 0;
#X obj 49 83 tgl 15 0 empty empty start_flocking_animation 20 6 1 10
-262144 -1 -1 1 1;
#X obj 211 130 r boidParam;
#X obj 49 104 metro 33;
#X floatatom 49 236 5 0 0 0 - - -;
#X floatatom 100 236 5 0 0 0 - - -;
#X obj 74 308 s boidParam;
#N canvas 789 302 466 316 orbit 0;
#X floatatom 103 107 5 0 0 0 - - -;
#X obj 134 169 expr $f1 * (3.141593/180.);
#X obj 103 134 t b f;
#X obj 103 28 inlet;
#X obj 152 254 outlet;
#X obj 96 254 outlet;
#X obj 102 170 1.5;
#X obj 103 65 counter 360;
#X obj 102 204 poltocar;
#X connect 0 0 2 0;
#X connect 1 0 8 1;
#X connect 2 0 6 0;
#X connect 2 1 1 0;
#X connect 3 0 7 0;
#X connect 6 0 8 0;
#X connect 7 0 0 0;
#X connect 8 0 4 0;
#X connect 8 1 5 0;
#X restore 49 214 pd orbit;
#X obj 49 173 spigot;
#X obj 85 152 tgl 15 0 empty empty empty 0 -6 0 8 -262144 -1 -1 0 1
;
#X obj 345 104 s init;
#X obj 364 75 loadbang;
#X obj 346 76 bng 15 250 50 0 empty empty empty 0 -6 0 8 -262144 -1
-1;
#X obj 49 259 pack 0 0;
#X obj 230 11 declare -path cyclone;
#X obj 211 175 s 2boid2d;
#X obj 384 308 s boid2dsize;
#X msg 384 281 0.5;
#X msg 412 279 0.2;
#X floatatom 452 275 5 0 0 0 - - -;
#X obj 52 449 s boidParam;
#X obj 397 513 apmaster boids;
#X obj 329 534 apmasterfile boids boids_presets.txt;
#X obj 329 490 loadbang;
#X obj 329 513 bng 15 250 50 0 empty empty load 17 7 0 10 -4034 -1
-1;
#X obj 542 512 bng 15 250 50 0 empty empty save 17 7 0 10 -258113 -1
-1;
#N canvas 744 236 480 497 init 0;
#X obj 34 21 loadbang;
#X obj 94 21 r reset;
#X msg 15 78 \; neighbors 4;
#X msg 22 367 \; speed 3;
#X obj 16 49 b;
#X obj 17 21 bng 15 250 50 0 empty empty empty 0 -6 0 8 -262144 -1
-1;
#X msg 22 457 \; prefdist 1.5;
#X msg 21 128 \; maxspeed 1.5;
#X msg 22 157 \; minspeed 1.2;
#X msg 22 187 \; center 1.2;
#X msg 22 217 \; attract 1.25;
#X msg 22 247 \; match 0.3;
#X msg 22 307 \; repel 3.5;
#X msg 22 277 \; avoid 3.5;
#X msg 22 337 \; edgedist 3;
#X msg 22 398 \; inertia 4.5;
#X msg 22 427 \; accel 2.5;
#X msg 122 134 neighbors \$1;
#X floatatom 122 118 5 0 4 0 - neighbors -;
#X floatatom 122 83 5 0 0 0 - - -;
#X msg 122 98 number \$1;
#X obj 111 155 s boidParam;
#X msg 160 56 500;
#X msg 131 56 600;
#X text 158 82 number of boids;
#X text 158 117 number of neighbors each boid consults when flocking
;
#X connect 0 0 4 0;
#X connect 1 0 4 0;
#X connect 4 0 2 0;
#X connect 5 0 4 0;
#X connect 17 0 21 0;
#X connect 18 0 17 0;
#X connect 19 0 20 0;
#X connect 20 0 21 0;
#X connect 22 0 19 0;
#X connect 23 0 19 0;
#X restore 545 22 pd init;
#X obj 231 31 declare -path ../../tools/AutoPreset;
#X msg 293 131 reset;
#X obj 208 214 t b b;
#X floatatom 208 256 5 0 0 0 - - -;
#X obj 208 235 realtime;
#X msg 114 107 33;
#X obj 144 199 t b b;
#X floatatom 144 241 5 0 0 0 - - -;
#X obj 144 220 realtime;
#X obj 447 373 * -1;
#X obj 509 374 * -1;
#X msg 383 374 0 \$1;
#X msg 446 394 1 \$1;
#X msg 509 394 2 \$1 \, 3 \$1 \, 4 \$1;
#X msg 383 424 attract \$1 \$2;
#X obj 383 332 r boidParamI;
#X msg 74 285 attractpt 0 \$1 \$2 \, attractpt 1 \$1 \$2;
#X obj 383 353 route attract1 repuls1 repuls234;
#X msg 52 425 attractpt 2 \$1 \$2;
#X obj 382 444 s boidParam;
#X obj 518 278 r boidSetting;
#X obj 518 299 route size;
#X obj 518 320 / 100;
#X obj 485 488 r boids-save;
#X obj 211 154 boids2d 500;
#X obj 231 50 declare -lib cyclone -lib pof -path boids;
#X obj 626 68 pofhead;
#X obj 626 295 s boidhead;
#X obj 256 313 clone boid2dpof 500;
#X msg 421 107 symbol pointflou4.png;
#X msg 436 136 symbol pointflou3.png;
#X msg 432 159 symbol pointflou2.png;
#X obj 399 194 s boidsimage;
#N canvas 582 85 450 300 control-from-osc 0;
#X obj 25 13 netreceive -u -b 10000;
#X obj 25 34 oscparse;
#X obj 25 85 route oscControl;
#X obj 25 165 s showDebug;
#X obj 25 59 list trim;
#X obj 25 135 == 0;
#X obj 111 158 oscPoint 1;
#X obj 100 129 s 2oscPoints;
#X obj 25 106 route border, f 13;
#X obj 111 178 oscPoint 2;
#X obj 110 198 oscPoint 3;
#X obj 110 218 oscPoint 4;
#X obj 243 192 print;
#X connect 0 0 1 0;
#X connect 1 0 4 0;
#X connect 2 0 8 0;
#X connect 4 0 2 0;
#X connect 5 0 3 0;
#X connect 8 0 5 0;
#X connect 8 1 7 0;
#X restore 207 379 pd control-from-osc;
#X obj 39 474 repere 0.7 1 0;
#X obj 49 363 repere 1 0.2 0;
#N canvas 1 81 450 300 debug-cadre 1;
#X obj 154 73 pofvisible;
#X obj 238 32 r showDebug;
#X obj 154 141 poffill 0;
#X obj 154 104 pofcolor 0 1 0 1;
#X obj 271 94 loadbang;
#X obj 111 41 tgl 15 0 empty empty empty 17 7 0 10 -262144 -1 -1 1
1;
#X obj 154 20 r boidhead;
#X msg 271 115 linewidth 10;
#X obj 154 173 pofrect 600 800;
#X connect 0 0 3 0;
#X connect 1 0 0 0;
#X connect 2 0 8 0;
#X connect 3 0 2 0;
#X connect 4 0 7 0;
#X connect 5 0 0 0;
#X connect 6 0 0 0;
#X connect 7 0 2 0;
#X restore 207 350 pd debug-cadre;
#X obj 144 27 tgl 15 0 showDebug showDebug showDebug 17 7 0 10 -258113
-1 -1 0 1;
#X obj 9 210 r P1;
#X obj 39 397 r P2;
#X obj 180 450 s boidParam;
#X obj 167 475 repere 0.7 1 0;
#X obj 167 398 r P3;
#X msg 180 426 attractpt 3 \$1 \$2;
#X obj 51 546 s boidParam;
#X obj 38 571 repere 0.7 1 0;
#X obj 38 494 r P4;
#X msg 51 522 attractpt 4 \$1 \$2;
#X obj 668 342 r showPerpective;
#X obj 653 133 poffbo 2048 2048 boidsfbo;
#X obj 626 92 t a a;
#X obj 653 113 pofcolor;
#X obj 626 180 poftexture boidsfbo;
#X obj 626 271 pofplane 800 600;
#X floatatom 672 250 5 0 0 0 - - -;
#X floatatom 733 250 5 0 0 0 - - -;
#X obj 672 230 nbx 5 14 -1e+37 1e+37 0 1 empty empty empty 0 -8 0 10
-262144 -1 -1 2048 256;
#X obj 733 228 nbx 5 14 -1e+37 1e+37 0 1 empty empty empty 0 -8 0 10
-262144 -1 -1 2048 256;
#N canvas 237 197 259 207 \$0-perpective 0;
#X obj 92 45 nbx 5 14 -1e+37 1e+37 0 1 empty empty empty 0 -8 0 10
-257985 -1 -1 46 256;
#X obj 29 120 poftranslate, f 26;
#X obj 80 97 nbx 5 14 -1e+37 1e+37 0 1 empty empty empty 0 -8 0 10
-257985 -1 -1 0 256;
#X obj 144 96 nbx 5 14 -1e+37 1e+37 0 1 empty empty empty 0 -8 0 10
-257985 -1 -1 -185 256;
#X obj 29 65 pofrotate x;
#X obj 29 18 inlet;
#X obj 29 141 outlet;
#X connect 0 0 4 1;
#X connect 1 0 6 0;
#X connect 2 0 1 1;
#X connect 3 0 1 2;
#X connect 4 0 1 0;
#X connect 5 0 4 0;
#X restore 626 205 pd \$0-perpective;
#X msg 668 363 vis 1;
#X obj 668 384 s pd-\$0-perpective;
#X obj 49 31 loadbang;
#X obj 653 154 s boidhead;
#X connect 0 0 2 0;
#X connect 1 0 50 0;
#X connect 2 0 7 0;
#X connect 2 0 32 0;
#X connect 2 0 50 0;
#X connect 3 0 12 0;
#X connect 4 0 12 1;
#X connect 6 0 3 0;
#X connect 6 1 4 0;
#X connect 7 0 6 0;
#X connect 8 0 7 1;
#X connect 10 0 9 0;
#X connect 11 0 9 0;
#X connect 12 0 42 0;
#X connect 12 0 61 0;
#X connect 16 0 15 0;
#X connect 17 0 15 0;
#X connect 18 0 15 0;
#X connect 22 0 23 0;
#X connect 23 0 21 0;
#X connect 24 0 21 1;
#X connect 27 0 50 0;
#X connect 28 0 30 0;
#X connect 28 1 30 1;
#X connect 30 0 29 0;
#X connect 31 0 2 1;
#X connect 32 0 34 0;
#X connect 32 1 34 1;
#X connect 34 0 33 0;
#X connect 35 0 38 0;
#X connect 36 0 39 0;
#X connect 37 0 40 0;
#X connect 38 0 40 0;
#X connect 39 0 40 0;
#X connect 40 0 45 0;
#X connect 41 0 43 0;
#X connect 42 0 5 0;
#X connect 43 0 37 0;
#X connect 43 1 35 0;
#X connect 43 2 36 0;
#X connect 44 0 19 0;
#X connect 46 0 47 0;
#X connect 47 0 48 0;
#X connect 48 0 18 0;
#X connect 49 0 24 0;
#X connect 50 0 14 0;
#X connect 52 0 76 0;
#X connect 55 0 58 0;
#X connect 56 0 58 0;
#X connect 57 0 58 0;
#X connect 64 0 12 0;
#X connect 65 0 60 0;
#X connect 65 0 44 0;
#X connect 68 0 67 0;
#X connect 68 0 69 0;
#X connect 69 0 66 0;
#X connect 72 0 71 0;
#X connect 72 0 73 0;
#X connect 73 0 70 0;
#X connect 74 0 85 0;
#X connect 75 0 88 0;
#X connect 76 0 78 0;
#X connect 76 1 77 0;
#X connect 77 0 75 0;
#X connect 78 0 84 0;
#X connect 80 0 79 1;
#X connect 81 0 79 2;
#X connect 82 0 80 0;
#X connect 83 0 81 0;
#X connect 84 0 79 0;
#X connect 85 0 86 0;
#X connect 87 0 0 0;
#X restore 412 35 pd guts;
#X obj 11 517 param boidSetting size;
#X obj 180 531 hradio 15 1 0 16 empty empty 1..2..3.4..5..6.7.8..9.10.11.2.3.14.15.6
0 -8 0 10 -4034 -1 -1 0;
#X obj 180 552 hradio 15 1 0 16 empty empty empty 0 -8 0 10 -258113
-1 -1 6;
#X msg 179 578 _all_ load \$1;
#X msg 288 579 _all_ store \$1;
#X obj 179 611 s boids-pattern-snd;
#X obj 447 537 bng 30 250 50 0 boids-save boids-save boids-save 0 -8
0 10 -258113 -1 -1;
#X obj 407 106 bng 15 250 50 0 showPerpective showPerpective perpectiveSettings
17 7 0 10 -257985 -1 -1;
#X connect 9 0 10 0;
#X connect 10 0 9 0;
#X connect 27 0 29 0;
#X connect 28 0 30 0;
#X connect 29 0 31 0;
#X connect 30 0 31 0;
