#N canvas 1434 112 426 342 10;
#X declare -path cyclone;
#X declare -path ../../tools/AutoPreset;
#X declare -lib cyclone -lib pof -path -boids -path ggee;
#X declare -path ../pofFlowtools -lib pofflowtools;
#X declare -path ../;
#N canvas 488 353 959 678 guts 0;
#X obj 49 83 tgl 15 0 empty empty start_flocking_animation 20 6 1 10
-262144 -1 -1 1 1;
#X obj 211 115 r boidParam;
#X obj 49 104 metro 33;
#X floatatom 49 236 5 0 0 0 - - -;
#X floatatom 100 236 5 0 0 0 - - -;
#X obj 69 331 s boidParam;
#N canvas 789 302 466 316 orbit 0;
#X floatatom 103 107 5 0 0 0 - - -;
#X obj 134 169 expr $f1 * (3.141593/180.);
#X obj 103 134 t b f;
#X obj 103 28 inlet;
#X obj 152 254 outlet;
#X obj 96 254 outlet;
#X obj 102 170 1.5;
#X obj 103 65 counter 360;
#X obj 102 204 poltocar;
#X connect 0 0 2 0;
#X connect 1 0 8 1;
#X connect 2 0 6 0;
#X connect 2 1 1 0;
#X connect 3 0 7 0;
#X connect 6 0 8 0;
#X connect 7 0 0 0;
#X connect 8 0 4 0;
#X connect 8 1 5 0;
#X restore 49 214 pd orbit;
#X obj 49 173 spigot;
#X obj 85 152 tgl 15 0 empty empty empty 0 -6 0 8 -262144 -1 -1 0 1
;
#X obj 345 104 s init;
#X obj 364 75 loadbang;
#X obj 346 76 bng 15 250 50 0 empty empty empty 0 -6 0 8 -262144 -1
-1;
#X obj 49 259 pack 0 0;
#X obj 230 11 declare -path cyclone;
#X obj 211 175 s 2boid2d;
#X obj 384 308 s boid2dsize;
#X msg 384 281 0.5;
#X msg 412 279 0.2;
#X floatatom 452 275 5 0 0 0 - - -;
#X obj 52 449 s boidParam;
#N canvas 973 181 480 497 init 0;
#X obj 34 21 loadbang;
#X obj 94 21 r reset;
#X msg 15 78 \; neighbors 4;
#X msg 22 367 \; speed 3;
#X obj 16 49 b;
#X obj 17 21 bng 15 250 50 0 empty empty empty 0 -6 0 8 -262144 -1
-1;
#X msg 22 457 \; prefdist 1.5;
#X msg 21 128 \; maxspeed 1.5;
#X msg 22 157 \; minspeed 1.2;
#X msg 22 187 \; center 1.2;
#X msg 22 217 \; attract 1.25;
#X msg 22 247 \; match 0.3;
#X msg 22 307 \; repel 3.5;
#X msg 22 277 \; avoid 3.5;
#X msg 22 337 \; edgedist 3;
#X msg 22 398 \; inertia 4.5;
#X msg 22 427 \; accel 2.5;
#X msg 122 134 neighbors \$1;
#X floatatom 122 118 5 0 4 0 - neighbors -;
#X floatatom 122 83 5 0 0 0 - - -;
#X msg 122 98 number \$1;
#X obj 111 155 s boidParam;
#X msg 160 56 500;
#X msg 131 56 600;
#X text 158 82 number of boids;
#X text 158 117 number of neighbors each boid consults when flocking
;
#X msg 96 55 50;
#X connect 0 0 4 0;
#X connect 1 0 4 0;
#X connect 4 0 2 0;
#X connect 5 0 4 0;
#X connect 17 0 21 0;
#X connect 18 0 17 0;
#X connect 19 0 20 0;
#X connect 20 0 21 0;
#X connect 22 0 19 0;
#X connect 23 0 19 0;
#X connect 26 0 19 0;
#X restore 545 22 pd init;
#X obj 231 31 declare -path ../../tools/AutoPreset;
#X msg 293 131 reset;
#X msg 114 107 33;
#X obj 144 199 t b b;
#X floatatom 144 241 5 0 0 0 - - -;
#X obj 144 220 realtime;
#X obj 446 374 * -1;
#X obj 509 382 * -1;
#X obj 383 332 r boidParamI;
#X msg 52 425 attractpt 2 \$1 \$2;
#X obj 346 458 s boidParam;
#X obj 518 278 r boidSetting;
#X obj 518 299 route size;
#X obj 518 320 / 100;
#X obj 669 28 pofhead;
#X msg 421 107 symbol pointflou4.png;
#X msg 436 136 symbol pointflou3.png;
#X msg 432 159 symbol pointflou2.png;
#X obj 399 200 s boidsimage;
#N canvas 888 85 535 400 control-from-osc 0;
#X obj 25 13 netreceive -u -b 10000;
#X obj 25 34 oscparse;
#X obj 25 85 route oscControl;
#X obj 25 214 s showDebug;
#X obj 25 59 list trim;
#X obj 25 184 == 0;
#X obj 321 55 oscPoint 1;
#X obj 49 116 s 2oscPoints;
#X obj 321 75 oscPoint 2;
#X obj 320 95 oscPoint 3;
#X obj 320 115 oscPoint 4;
#X obj 106 213 s boids-pattern;
#X obj 217 214 s ALL_WHITE;
#X obj 297 214 pofwin;
#X obj 248 287 print;
#X obj 25 162 route border pattern ALL_WHITE pofwin BoidsFade, f 69
;
#X obj 363 211 s boids-fade;
#X floatatom 333 262 5 0 0 0 - - -;
#X connect 0 0 1 0;
#X connect 1 0 4 0;
#X connect 2 0 7 0;
#X connect 2 0 15 0;
#X connect 4 0 2 0;
#X connect 5 0 3 0;
#X connect 15 0 5 0;
#X connect 15 1 11 0;
#X connect 15 2 12 0;
#X connect 15 3 13 0;
#X connect 15 4 16 0;
#X restore 207 379 pd control-from-osc;
#N canvas 494 548 450 300 debug-cadre 0;
#X obj 154 73 pofvisible;
#X obj 224 49 r showDebug;
#X obj 154 141 poffill 0;
#X obj 250 205 pofcolor 0 1 0 1;
#X obj 271 94 loadbang;
#X obj 111 41 tgl 15 0 empty empty empty 17 7 0 10 -262144 -1 -1 0
1;
#X msg 271 115 linewidth 10;
#X obj 250 228 pofrect 500 500;
#X obj 154 20 r postboidhead;
#X obj 128 205 pofcolor 1 1 0.5 1;
#X floatatom 189 274 5 0 0 0 - - -;
#X floatatom 247 274 5 0 0 0 - - -;
#X obj 128 229 pofrect 1910 1050;
#X connect 0 0 2 0;
#X connect 1 0 0 0;
#X connect 2 0 3 0;
#X connect 2 0 9 0;
#X connect 3 0 7 0;
#X connect 4 0 6 0;
#X connect 5 0 0 0;
#X connect 6 0 2 0;
#X connect 8 0 0 0;
#X connect 9 0 12 0;
#X connect 10 0 12 1;
#X connect 11 0 12 2;
#X restore 207 350 pd debug-cadre;
#X obj 144 27 tgl 15 0 showDebug showDebug showDebug 17 7 0 10 -258113
-1 -1 0 1;
#X obj 9 210 r P1;
#X obj 39 397 r P2;
#X obj 180 450 s boidParam;
#X obj 167 398 r P3;
#X msg 180 426 attractpt 3 \$1 \$2;
#X obj 51 546 s boidParam;
#X obj 38 494 r P4;
#X msg 51 522 attractpt 4 \$1 \$2;
#X obj 668 412 r showPerpective;
#X msg 668 433 vis 1;
#X obj 668 454 s pd-\$0-perpective;
#X obj 49 31 loadbang;
#X obj 49 363 repere 1 0.5 0;
#X msg 439 181 symbol pointflou5.png;
#X msg 434 88 symbol pointflou.png;
#X obj 674 485 loadbang;
#X obj 674 506 del 1000;
#X msg 674 527 running;
#X obj 674 548 stdout;
#X obj 38 571 l repere 0.7 1 0;
#X obj 167 475 l repere 0.7 1 0;
#N canvas 560 97 450 300 autoscale 0;
#X obj 125 12 inlet;
#X obj 125 277 outlet;
#X obj 231 62 pofwin;
#X obj 231 82 route window;
#X obj 231 106 unpack f f;
#X obj 159 170 f;
#X obj 125 190 pofscale 1 1 1;
#X floatatom 324 155 5 0 0 0 - - -;
#X floatatom 244 160 5 0 0 0 - - -;
#X msg 158 112 1;
#X obj 159 147 / 1920;
#X connect 0 0 6 0;
#X connect 2 0 3 0;
#X connect 3 0 4 0;
#X connect 4 0 8 0;
#X connect 4 0 10 0;
#X connect 4 1 7 0;
#X connect 5 0 6 1;
#X connect 5 0 6 2;
#X connect 5 0 6 3;
#X connect 6 0 1 0;
#X connect 9 0 5 0;
#X connect 10 0 5 0;
#X restore 669 49 pd autoscale;
#N canvas 37 807 261 248 \$0-perpective 1;
#X obj 92 45 nbx 5 14 -1e+37 1e+37 0 1 empty empty empty 0 -8 0 10
-257985 -1 -1 32 256;
#X obj 29 120 poftranslate, f 26;
#X obj 80 97 nbx 5 14 -1e+37 1e+37 0 1 empty empty empty 0 -8 0 10
-257985 -1 -1 7 256;
#X obj 144 96 nbx 5 14 -1e+37 1e+37 0 1 empty empty empty 0 -8 0 10
-257985 -1 -1 -131 256;
#X obj 29 18 inlet;
#X obj 29 202 outlet;
#X obj 29 175 pofscale 1 1 1;
#X obj 55 152 nbx 5 14 -1e+37 1e+37 0 1 empty empty empty 0 -8 0 10
-257985 -1 -1 1 256;
#X obj 119 151 nbx 5 14 -1e+37 1e+37 0 1 empty empty empty 0 -8 0 10
-257985 -1 -1 1 256;
#X obj 29 65 pofrotate x;
#X connect 0 0 9 1;
#X connect 1 0 6 0;
#X connect 2 0 1 1;
#X connect 3 0 1 2;
#X connect 4 0 9 0;
#X connect 6 0 5 0;
#X connect 7 0 6 1;
#X connect 8 0 6 2;
#X connect 9 0 1 0;
#X restore 696 90 pd \$0-perpective;
#X obj 39 474 repere 0.7 1 0;
#X obj 747 204 s boidhead;
#X obj 696 314 s postboidhead;
#X obj 684 342 r ALL_WHITE;
#X obj 669 362 pofvisible;
#X obj 669 383 pofrect 30000 30000;
#X obj 669 69 t a a;
#X obj 231 50 declare -lib cyclone -lib pof -path -boids -path ggee
;
#X obj 809 41 r boids-fade;
#X msg 809 62 \$1 500;
#X obj 809 84 line;
#X obj 747 159 poffbo boidsfbo 1920 1080;
#X obj 822 224 pofrect 1e+06 1e+06;
#X obj 747 180 t a a, f 13;
#X obj 859 113 loadbang;
#N canvas 738 349 1018 539 fluid 0;
#X obj 24 28 inlet;
#X obj 149 14 declare -path ../pofFlowtools -lib pofflowtools;
#X obj 120 124 pofopticalflow 800 600;
#X msg 157 98 source boidsfbo \, decay boidsvelocity;
#X obj 157 75 loadbang;
#X msg 161 199 showgui \$1;
#X obj 162 181 tgl 15 0 empty empty empty 17 7 0 10 -262144 -1 -1 0
1;
#X msg 223 75 showgui \$1;
#X obj 232 54 tgl 15 0 empty empty empty 17 7 0 10 -262144 -1 -1 0
1;
#X obj 379 125 loadbang;
#X msg 275 209 1920;
#X msg 326 209 1080;
#X obj 57 336 poftexture boidsfbo;
#X obj 57 357 pofplane 1920 1080;
#X obj 57 312 pofblend;
#X msg 221 351 set SRC_ALPHA SRC_ALPHA;
#X msg 221 331 set SRC_ALPHA ONE_MINUS_SRC_ALPHA;
#X msg 221 374 set ONE SRC_ALPHA;
#X msg 220 395 set DEST_COLOR ONE_MINUS_SRC_ALPHA;
#X obj 220 420 t a;
#X msg 241 208 1280;
#X msg 379 147 density boidsfbo 0.5 \, velocity boidsvelocity 0.5;
#X obj 378 174 hsl 128 15 0 1 0 0 empty empty empty -2 -8 0 10 -262144
-1 -1 0 1;
#X obj 56 293 pofcolor 1 1 1 1;
#X obj 91 272 hsl 128 15 0 1 0 0 empty empty empty -2 -8 0 10 -262144
-1 -1 12700 1;
#X obj 378 215 hsl 128 15 0 1 0 0 empty empty empty -2 -8 0 10 -262144
-1 -1 0 1;
#X obj 383 258 hsl 128 15 0 1 0 0 empty empty empty -2 -8 0 10 -262144
-1 -1 0 1;
#X obj 710 132 loadbang;
#X obj 697 181 poffbo circlesfbo 1920 1080;
#X obj 697 111 pofcolor 1 1 1 0;
#X obj 771 87 tgl 15 0 empty empty empty 17 7 0 10 -262144 -1 -1 0
1;
#X obj 479 301 tgl 15 0 empty empty empty 17 7 0 10 -262144 -1 -1 0
1;
#X obj 499 307 hsl 128 15 0 1 0 0 empty empty empty -2 -8 0 10 -262144
-1 -1 0 1;
#X obj 203 311 loadbang;
#X msg 146 472 param reset 1;
#X msg 710 155 format RGB \, clear 0 \, numsamples 8;
#N canvas 830 251 722 682 params 0;
#X obj 93 607 outlet;
#X floatatom 66 29 5 0 0 0 - - -;
#X obj 86 88 hsl 128 15 0.1 2 0 0 empty empty empty -2 -8 0 10 -262144
-1 -1 0 1;
#X floatatom 374 66 7 0 0 0 - - -;
#X obj 377 45 hsl 128 15 -0.01 0.01 0 0 empty empty empty -2 -8 0 10
-262144 -1 -1 0 1;
#X obj 90 160 hsl 128 15 0 2 0 0 empty empty empty -2 -8 0 10 -262144
-1 -1 0 1;
#X floatatom 87 180 5 0 0 0 - - -;
#X obj 93 584 list trim;
#X obj 341 186 list prepend advanced\ dissipation;
#X obj 93 561 list prepend param;
#X floatatom 374 135 7 0 0 0 - - -;
#X obj 377 115 hsl 128 15 -0.01 0.02 0 0 empty empty empty -2 -8 0
10 -262144 -1 -1 0 1;
#X msg 374 157 velocity\ offset \$1;
#X msg 374 88 density\ offset \$1;
#X msg 83 130 cell\ size \$1;
#X msg 66 53 speed \$1;
#X obj 109 231 hsl 128 15 0 2 0 0 empty empty empty -2 -8 0 10 -262144
-1 -1 0 1;
#X floatatom 106 251 5 0 0 0 - - -;
#X msg 106 275 vorticity \$1;
#X msg 87 204 viscosity \$1;
#X obj 128 304 hsl 128 15 0.0001 0.05 1 0 empty empty empty -2 -8 0
10 -262144 -1 -1 0 1;
#X floatatom 125 324 5 0 0 0 - - -;
#X msg 124 348 dissipation \$1;
#X floatatom 433 337 7 0 0 0 - - -;
#X obj 436 316 hsl 128 15 0 5 0 0 empty empty empty -2 -8 0 10 -262144
-1 -1 0 1;
#X floatatom 433 406 7 0 0 0 - - -;
#X obj 436 386 hsl 128 15 0.01 10 1 0 empty empty empty -2 -8 0 10
-262144 -1 -1 0 1;
#X obj 390 457 list prepend maximum;
#X msg 433 359 density \$1;
#X msg 433 428 velocity \$1;
#X floatatom 433 266 7 0 0 0 - - -;
#X obj 436 245 hsl 128 15 0 0.2 0 0 empty empty empty -2 -8 0 10 -262144
-1 -1 0 1;
#X msg 433 288 clampForce \$1;
#X obj 146 375 hsl 128 15 -0.1 0.1 0 0 empty empty empty -2 -8 0 10
-262144 -1 -1 0 1;
#X floatatom 143 395 5 0 0 0 - - -;
#X msg 143 419 density\ from\ pressure \$1;
#X obj 156 447 hsl 128 15 -0.5 0.5 0 0 empty empty empty -2 -8 0 10
-262144 -1 -1 0 1;
#X floatatom 153 467 5 0 0 0 - - -;
#X msg 153 491 density\ from\ vorticity \$1;
#X obj 68 11 hsl 128 15 0 100 0 0 empty empty empty -2 -8 0 10 -262144
-1 -1 0 1;
#X floatatom 83 108 5 0 0 0 - - -;
#X msg 210 51 reset 1;
#X obj 264 561 r fluidParam;
#X obj 264 582 route densityOffset velocityOffset maxForce maxDensity
maxVelocity, f 71;
#X connect 1 0 15 0;
#X connect 2 0 40 0;
#X connect 3 0 13 0;
#X connect 4 0 3 0;
#X connect 5 0 6 0;
#X connect 6 0 19 0;
#X connect 7 0 0 0;
#X connect 8 0 9 0;
#X connect 9 0 7 0;
#X connect 10 0 12 0;
#X connect 11 0 10 0;
#X connect 12 0 8 0;
#X connect 13 0 8 0;
#X connect 14 0 9 0;
#X connect 15 0 9 0;
#X connect 16 0 17 0;
#X connect 17 0 18 0;
#X connect 18 0 9 0;
#X connect 19 0 9 0;
#X connect 20 0 21 0;
#X connect 21 0 22 0;
#X connect 22 0 9 0;
#X connect 23 0 28 0;
#X connect 24 0 23 0;
#X connect 25 0 29 0;
#X connect 26 0 25 0;
#X connect 27 0 9 0;
#X connect 28 0 27 0;
#X connect 29 0 27 0;
#X connect 30 0 32 0;
#X connect 31 0 30 0;
#X connect 32 0 27 0;
#X connect 33 0 34 0;
#X connect 34 0 35 0;
#X connect 35 0 9 0;
#X connect 36 0 37 0;
#X connect 37 0 38 0;
#X connect 38 0 9 0;
#X connect 39 0 1 0;
#X connect 40 0 14 0;
#X connect 41 0 9 0;
#X connect 42 0 9 0;
#X connect 42 0 43 0;
#X connect 43 0 13 0;
#X connect 43 1 12 0;
#X connect 43 2 32 0;
#X connect 43 3 28 0;
#X connect 43 4 29 0;
#X restore 100 198 pd params;
#N canvas 1373 143 513 585 params 0;
#X obj 37 535 outlet;
#X obj 34 8 hsl 128 15 0 200 0 0 empty empty empty -2 -8 0 10 -262144
-1 -1 0 1;
#X floatatom 238 299 7 0 0 0 - - -;
#X obj 241 278 hsl 128 15 0 10 0 0 empty empty empty -2 -8 0 10 -262144
-1 -1 0 1;
#X obj 34 80 hsl 128 15 0 10 0 0 empty empty empty -2 -8 0 10 -262144
-1 -1 0 1;
#X floatatom 31 100 5 0 0 0 - - -;
#X obj 37 512 list trim;
#X obj 37 489 list prepend param;
#X floatatom 217 227 7 0 0 0 - - -;
#X obj 219 207 hsl 128 15 0 10 0 0 empty empty empty -2 -8 0 10 -262144
-1 -1 0 1;
#X obj 53 151 hsl 128 15 0.1 1 0 0 empty empty empty -2 -8 0 10 -262144
-1 -1 0 1;
#X floatatom 50 171 5 0 0 0 - - -;
#X obj 72 224 hsl 128 15 0 0.2 0 0 empty empty empty -2 -8 0 10 -262144
-1 -1 0 1;
#X floatatom 69 244 5 0 0 0 - - -;
#X obj 217 361 list prepend time\ decay\ blur;
#X msg 217 249 decay \$1;
#X msg 238 321 blur\ radius \$1;
#X msg 31 50 strength \$1;
#X msg 31 124 offset \$1;
#X msg 50 194 lambda \$1;
#X msg 69 268 threshold \$1;
#X obj 80 292 tgl 15 0 empty empty empty 17 7 0 10 -262144 -1 -1 0
1;
#X obj 84 347 tgl 15 0 empty empty empty 17 7 0 10 -262144 -1 -1 0
1;
#X msg 80 314 inverse\ x \$1;
#X msg 83 369 inverse\ y \$1;
#X floatatom 31 28 5 0 0 0 - - -;
#X connect 1 0 25 0;
#X connect 2 0 16 0;
#X connect 3 0 2 0;
#X connect 4 0 5 0;
#X connect 5 0 18 0;
#X connect 6 0 0 0;
#X connect 7 0 6 0;
#X connect 8 0 15 0;
#X connect 9 0 8 0;
#X connect 10 0 11 0;
#X connect 11 0 19 0;
#X connect 12 0 13 0;
#X connect 13 0 20 0;
#X connect 14 0 7 0;
#X connect 15 0 14 0;
#X connect 16 0 14 0;
#X connect 17 0 7 0;
#X connect 18 0 7 0;
#X connect 19 0 7 0;
#X connect 20 0 7 0;
#X connect 21 0 23 0;
#X connect 22 0 24 0;
#X connect 23 0 7 0;
#X connect 24 0 7 0;
#X connect 25 0 17 0;
#X restore 296 73 pd params;
#N canvas 673 370 554 303 cadre_flou 0;
#X obj 72 26 inlet;
#X obj 72 174 pofimage barrefloue.png 1920 40;
#X obj 72 151 poftranslate 0 520;
#X obj 101 120 pofrotate 180;
#X obj 72 91 t a;
#X obj 303 119 pofrotate 180;
#X obj 274 90 t a;
#X obj 274 197 pofimage barrefloue.png 1080 40;
#X obj 274 150 poftranslate 0 940;
#X obj 274 67 pofrotate 90;
#X obj 165 22 tgl 15 0 empty empty empty 17 7 0 10 -262144 -1 -1 0
1;
#X obj 72 51 pofcolor 0 0 0 1;
#X connect 0 0 11 0;
#X connect 2 0 1 0;
#X connect 3 0 2 0;
#X connect 4 0 2 0;
#X connect 4 0 3 0;
#X connect 5 0 8 0;
#X connect 6 0 5 0;
#X connect 6 0 8 0;
#X connect 8 0 7 0;
#X connect 9 0 6 0;
#X connect 10 0 11 4;
#X connect 11 0 9 0;
#X connect 11 0 4 0;
#X restore 24 388 pd cadre_flou;
#X obj 24 50 t a a a a a, f 22;
#X obj 88 233 poffluid 1920 1080, f 41;
#X obj 229 266 r boidSetting;
#X obj 229 287 route alpha;
#X obj 221 171 route alpha;
#X obj 221 150 r fluidSetting;
#X obj 337 264 t a;
#X obj 88 167 pofcolor 1 1 1 1;
#X obj 124 146 f;
#X msg 465 338 density 1 circlesfbo \$1;
#X msg 374 276 velocity 0 boidsvelocity \$1;
#X msg 369 233 density 0 boidsfbo \$1;
#X msg 375 192 density 0 boidsfbo \$1 \, velocity 0 boidsvelocity \$1
;
#X obj 488 39 r fluidSetting;
#X obj 488 60 route boidsDensity circDensity boidsVelecity;
#N canvas 1 83 450 300 circles 0;
#X obj 135 137 pofonce;
#X obj 135 158 pofcolor 0 0 0 1;
#X obj 135 179 pofrect 1e+06 1e+06;
#X obj 48 169 s \$0-circles;
#X obj 134 202 clone circle 16 \$0-circles;
#N canvas 412 142 450 300 frames 0;
#X obj 110 27 inlet;
#X obj 110 97 pofbang 1;
#X obj 110 66 pofvisible;
#X obj 161 118 i;
#X obj 191 118 + 1;
#X obj 161 140 moses 1;
#X msg 200 159 0;
#X obj 190 23 inlet;
#X obj 190 44 t b b f;
#X msg 176 97 0;
#X msg 190 65 1;
#X obj 110 213 outlet;
#X obj 182 184 b;
#X connect 0 0 2 0;
#X connect 1 0 11 0;
#X connect 1 1 3 0;
#X connect 2 0 1 0;
#X connect 3 0 4 0;
#X connect 3 0 5 0;
#X connect 4 0 3 1;
#X connect 5 1 6 0;
#X connect 5 1 12 0;
#X connect 6 0 2 0;
#X connect 7 0 8 0;
#X connect 8 0 10 0;
#X connect 8 1 9 0;
#X connect 8 2 5 1;
#X connect 9 0 3 1;
#X connect 10 0 2 0;
#X restore 48 144 pd frames;
#X msg 153 88 60;
#X obj 153 67 loadbang;
#X obj 48 92 t a a, f 15;
#X obj 99 114 t f b;
#X obj 55 47 inlet;
#X connect 0 0 1 0;
#X connect 1 0 2 0;
#X connect 5 0 3 0;
#X connect 6 0 9 0;
#X connect 7 0 6 0;
#X connect 8 0 5 0;
#X connect 8 1 0 0;
#X connect 9 0 5 1;
#X connect 9 1 0 0;
#X connect 10 0 8 0;
#X restore 886 255 pd circles;
#N canvas 1 82 450 300 nuage 0;
#X obj 196 129 pofonce;
#X obj 220 176 pofcolor 0 0 0 1;
#X obj 220 197 pofrect 1e+06 1e+06;
#X obj 109 84 t a a, f 15;
#X obj 160 106 t f b;
#X obj 230 103 bng 15 250 50 0 empty empty empty 17 7 0 10 -262144
-1 -1;
#X obj 208 152 t a a;
#X floatatom 106 137 5 0 0 0 - - -;
#X obj 39 196 pofimage nuage1.png 1920 1080;
#X obj 111 52 inlet;
#X connect 0 0 6 0;
#X connect 1 0 2 0;
#X connect 3 1 0 0;
#X connect 4 1 0 0;
#X connect 5 0 0 0;
#X connect 6 0 8 0;
#X connect 6 1 1 0;
#X connect 7 0 5 0;
#X connect 7 0 8 1;
#X connect 9 0 3 0;
#X restore 770 303 pd nuage;
#N canvas 488 467 450 300 lignes 0;
#X obj 135 137 pofonce;
#X obj 135 158 pofcolor 0 0 0 1;
#X obj 135 179 pofrect 1e+06 1e+06;
#N canvas 412 142 450 300 frames 0;
#X obj 110 27 inlet;
#X obj 110 97 pofbang 1;
#X obj 110 66 pofvisible;
#X obj 161 118 i;
#X obj 191 118 + 1;
#X obj 161 140 moses 1;
#X msg 200 159 0;
#X obj 190 23 inlet;
#X obj 190 44 t b b f;
#X msg 176 97 0;
#X msg 190 65 1;
#X obj 110 213 outlet;
#X obj 182 184 b;
#X connect 0 0 2 0;
#X connect 1 0 11 0;
#X connect 1 1 3 0;
#X connect 2 0 1 0;
#X connect 3 0 4 0;
#X connect 3 0 5 0;
#X connect 4 0 3 1;
#X connect 5 1 6 0;
#X connect 5 1 12 0;
#X connect 6 0 2 0;
#X connect 7 0 8 0;
#X connect 8 0 10 0;
#X connect 8 1 9 0;
#X connect 8 2 5 1;
#X connect 9 0 3 1;
#X connect 10 0 2 0;
#X restore 48 144 pd frames;
#X obj 153 67 loadbang;
#X obj 48 92 t a a, f 15;
#X obj 99 114 t f b;
#X obj 55 47 inlet;
#X obj 48 169 s \$0-lignes;
#X obj 134 202 clone ligne 16 \$0-lignes;
#X msg 153 88 10;
#X obj 246 45 metro 3000;
#X obj 254 22 tgl 15 0 empty empty empty 17 7 0 10 -262144 -1 -1 0
1;
#X connect 0 0 1 0;
#X connect 1 0 2 0;
#X connect 3 0 8 0;
#X connect 4 0 10 0;
#X connect 5 0 3 0;
#X connect 5 1 0 0;
#X connect 6 0 3 1;
#X connect 6 1 0 0;
#X connect 7 0 5 0;
#X connect 10 0 6 0;
#X connect 11 0 10 0;
#X connect 12 0 11 0;
#X restore 715 237 pd lignes;
#X connect 0 0 39 0;
#X connect 3 0 2 0;
#X connect 4 0 3 0;
#X connect 5 0 40 0;
#X connect 6 0 5 0;
#X connect 7 0 2 0;
#X connect 8 0 7 0;
#X connect 10 0 40 1;
#X connect 11 0 40 2;
#X connect 12 0 13 0;
#X connect 14 0 12 0;
#X connect 15 0 19 0;
#X connect 16 0 19 0;
#X connect 17 0 19 0;
#X connect 18 0 19 0;
#X connect 19 0 14 0;
#X connect 20 0 40 1;
#X connect 21 0 45 0;
#X connect 22 0 51 0;
#X connect 23 0 14 0;
#X connect 24 0 23 1;
#X connect 24 0 23 2;
#X connect 24 0 23 3;
#X connect 25 0 50 0;
#X connect 26 0 49 0;
#X connect 27 0 35 0;
#X connect 28 0 56 0;
#X connect 29 0 28 0;
#X connect 30 0 29 4;
#X connect 31 0 48 0;
#X connect 32 0 48 0;
#X connect 33 0 15 0;
#X connect 34 0 40 0;
#X connect 35 0 28 0;
#X connect 36 0 40 0;
#X connect 37 0 2 0;
#X connect 39 0 38 0;
#X connect 39 1 23 0;
#X connect 39 2 46 0;
#X connect 39 3 2 0;
#X connect 39 4 29 0;
#X connect 41 0 42 0;
#X connect 42 0 24 0;
#X connect 43 0 47 0;
#X connect 44 0 43 0;
#X connect 45 0 40 0;
#X connect 46 0 40 0;
#X connect 47 0 46 2;
#X connect 47 0 46 1;
#X connect 47 0 46 3;
#X connect 47 0 46 4;
#X connect 48 0 45 0;
#X connect 49 0 45 0;
#X connect 50 0 45 0;
#X connect 51 0 45 0;
#X connect 52 0 53 0;
#X connect 53 0 50 0;
#X connect 53 1 48 0;
#X connect 53 2 49 0;
#X restore 730 270 pd fluid;
#X obj 822 204 pofcolor 0 0 0 1;
#X msg 859 135 format RGB;
#X obj 382 244 clone boid2dpof 50;
#X obj 211 154 boids2d 50;
#X obj 730 249 pofcolor 1 1 1 1, f 25;
#X obj 117 264 t a a;
#X obj 258 250 unpack f f;
#X msg 184 308 attractpt 1 \$1 \$2;
#X msg 69 308 attractpt 0 \$1 \$2;
#X obj 696 113 t a a a a;
#N canvas 847 350 759 472 cache 0;
#X obj 78 138 poftranslate;
#X floatatom 257 246 5 0 0 0 - - -;
#X obj 78 66 inlet;
#X obj 149 228 tgl 15 0 empty empty empty 17 7 0 10 -262144 -1 -1 0
1;
#X floatatom 302 245 5 0 0 0 - - -;
#X obj 215 14 r P1;
#X obj 215 70 unpack f f;
#X obj 215 90 * 100;
#X obj 272 92 * 100;
#X obj 78 163 pofrotate;
#X floatatom 434 81 5 0 0 0 - - -;
#X obj 78 205 poftranslate;
#X floatatom 157 180 5 0 0 0 - - -;
#X floatatom 322 62 5 0 0 0 - - -;
#X floatatom 388 79 5 0 0 0 - - -;
#X obj 349 171 * 1;
#X obj 379 143 t b f;
#X obj 379 109 / 100;
#X obj 322 112 t f f;
#X obj 207 161 -;
#X obj 322 87 f;
#X obj 208 182 * 0.2;
#N canvas 40 509 515 518 filter 0;
#X obj 89 115 inlet;
#X obj 74 445 outlet;
#X obj 89 136 unpack f f;
#X obj 74 12 loadbang;
#X obj 74 33 tgl 15 0 empty empty empty 17 7 0 10 -262144 -1 -1 1 1
;
#X obj 74 54 metro 20;
#X obj 74 162 f;
#X obj 131 162 f;
#X obj 74 90 t b b, f 10;
#X obj 74 183 * 0.1;
#X obj 131 183 * 0.1;
#X obj 74 204 +;
#X obj 100 205 * 0.9;
#X obj 139 205 +;
#X obj 165 206 * 0.9;
#X obj 74 225 pack f f, f 11;
#X floatatom 269 65 5 0 0 0 - - -;
#X obj 223 119 / 1000;
#X obj 223 140 * -1;
#X obj 223 161 + 1;
#X obj 269 87 f;
#X msg 272 166 0;
#X floatatom 19 210 5 0 0 0 - - -;
#X obj 269 20 loadbang;
#X obj 74 353 * 0.1;
#X obj 131 353 * 0.1;
#X obj 74 374 +;
#X obj 100 375 * 0.9;
#X obj 139 375 +;
#X obj 165 376 * 0.9;
#X obj 74 395 pack f f, f 11;
#X obj 223 289 / 1000;
#X obj 223 310 * -1;
#X obj 223 331 + 1;
#X obj 74 318 unpack f f;
#X msg 269 41 6;
#X connect 0 0 2 0;
#X connect 2 0 6 1;
#X connect 2 1 7 1;
#X connect 3 0 4 0;
#X connect 4 0 5 0;
#X connect 5 0 8 0;
#X connect 6 0 9 0;
#X connect 7 0 10 0;
#X connect 8 0 6 0;
#X connect 8 1 7 0;
#X connect 9 0 11 0;
#X connect 10 0 13 0;
#X connect 11 0 12 0;
#X connect 11 0 15 0;
#X connect 12 0 11 1;
#X connect 13 0 14 0;
#X connect 13 0 15 1;
#X connect 14 0 13 1;
#X connect 15 0 34 0;
#X connect 16 0 20 0;
#X connect 17 0 18 0;
#X connect 17 0 10 1;
#X connect 17 0 9 1;
#X connect 18 0 19 0;
#X connect 19 0 14 1;
#X connect 19 0 12 1;
#X connect 20 0 17 0;
#X connect 20 0 31 0;
#X connect 21 0 13 1;
#X connect 21 0 11 1;
#X connect 21 0 26 1;
#X connect 21 0 28 1;
#X connect 23 0 35 0;
#X connect 24 0 26 0;
#X connect 25 0 28 0;
#X connect 26 0 27 0;
#X connect 26 0 30 0;
#X connect 27 0 26 1;
#X connect 28 0 29 0;
#X connect 28 0 30 1;
#X connect 29 0 28 1;
#X connect 30 0 1 0;
#X connect 31 0 32 0;
#X connect 31 0 25 1;
#X connect 31 0 24 1;
#X connect 32 0 33 0;
#X connect 33 0 29 1;
#X connect 33 0 27 1;
#X connect 34 0 24 0;
#X connect 34 1 25 0;
#X connect 35 0 16 0;
#X restore 215 42 pd filter;
#X obj 105 281 pofcolor 0 0 0 0.98;
#X obj 78 381 pofvisible;
#X obj 99 339 r showDebug;
#X obj 78 235 t a a;
#X obj 78 425 poffill 0;
#X obj 78 446 pofcirc 50 50 50;
#X obj 105 312 pofimage pointflouLarge.png 50;
#X obj 78 402 pofcolor 1 0.5 0 1;
#X msg 13 356 linewidth 10;
#X obj 13 334 loadbang;
#X obj 181 347 * 0.55;
#X obj 226 350 * 0.55;
#X obj 422 222 r cache;
#X obj 422 243 route alpha size stretch angle;
#X obj 117 359 tgl 15 0 empty empty empty 17 7 0 10 -262144 -1 -1 0
1;
#X obj 105 259 pofvisible 1;
#X connect 0 0 9 0;
#X connect 1 0 29 1;
#X connect 1 0 33 0;
#X connect 2 0 0 0;
#X connect 3 0 38 0;
#X connect 4 0 29 2;
#X connect 4 0 34 0;
#X connect 5 0 22 0;
#X connect 6 0 7 0;
#X connect 6 1 8 0;
#X connect 7 0 0 1;
#X connect 8 0 0 2;
#X connect 9 0 11 0;
#X connect 10 0 9 1;
#X connect 11 0 26 0;
#X connect 12 0 11 2;
#X connect 13 0 20 0;
#X connect 14 0 17 0;
#X connect 15 0 4 0;
#X connect 15 0 19 1;
#X connect 16 0 20 0;
#X connect 16 1 15 1;
#X connect 17 0 16 0;
#X connect 18 0 1 0;
#X connect 18 0 19 0;
#X connect 18 1 15 0;
#X connect 19 0 21 0;
#X connect 20 0 18 0;
#X connect 21 0 12 0;
#X connect 22 0 6 0;
#X connect 23 0 29 0;
#X connect 24 0 30 0;
#X connect 25 0 24 0;
#X connect 26 0 24 0;
#X connect 26 1 38 0;
#X connect 27 0 28 0;
#X connect 30 0 27 0;
#X connect 31 0 27 0;
#X connect 32 0 31 0;
#X connect 33 0 28 1;
#X connect 34 0 28 2;
#X connect 35 0 36 0;
#X connect 36 0 23 4;
#X connect 36 1 13 0;
#X connect 36 2 14 0;
#X connect 36 3 10 0;
#X connect 37 0 24 0;
#X connect 38 0 23 0;
#X restore 713 292 pd cache;
#X obj 747 136 pofcolor 1 1 1 0, f 17;
#X obj 258 271 pack f f f;
#X obj 347 376 pack f f;
#X msg 347 399 0 \$1 \$2;
#X obj 341 349 t b f;
#X floatatom 345 315 5 0 0 0 - - -;
#X obj 445 396 pack f f;
#X obj 504 499 t b f;
#X msg 445 418 1 \$1 \$2;
#X floatatom 526 475 5 0 0 0 - - -;
#X msg 347 438 attract \$1 \$2 \$3;
#X msg 509 404 2 \$1 0 \, 3 \$1 0 \, 4 \$1 0;
#X obj 383 353 route attract1 repuls1 repuls234 repuls1rad;
#X obj 574 430 / 100;
#X obj 584 544 route size;
#X obj 574 473 * 1;
#X obj 601 472 t b f;
#X obj 551 444 bng 15 250 50 0 empty empty empty 17 7 0 10 -262144
-1 -1;
#X floatatom 584 586 5 0 0 0 - - -;
#X obj 584 523 r cache;
#X obj 584 565 / 700;
#N canvas 1 82 449 373 décal_repuls 0;
#X obj 215 21 r cache;
#X obj 260 81 / 100;
#X obj 258 100 t b f;
#X obj 260 61 - 100;
#X obj 215 42 route size stretch angle;
#X obj 215 152 pack f f, f 17;
#X obj 309 118 t b f;
#X obj 242 194 unpack f f;
#X obj 299 236 / 180;
#X obj 299 257 * 3.14159;
#X obj 299 278 cos;
#X obj 57 215 inlet pos;
#X obj 57 334 outlet decal_pos;
#X obj 57 269 unpack f f;
#X obj 57 242 pack f f;
#X obj 215 173 t b a;
#X obj 242 310 *;
#X obj 273 310 *;
#X obj 325 278 sin;
#X obj 57 290 +;
#X obj 114 291 +;
#X obj 57 311 pack f f, f 10;
#X floatatom 243 335 5 0 0 0 - - -;
#X floatatom 287 335 5 0 0 0 - - -;
#X floatatom 351 211 5 0 0 0 - - -;
#X obj 299 215 - 90;
#X obj 215 61 / 300;
#X obj 215 82 * 0;
#X obj 215 105 + 0.4;
#X msg 215 131 0.4;
#X connect 0 0 4 0;
#X connect 1 0 2 0;
#X connect 3 0 1 0;
#X connect 4 0 26 0;
#X connect 4 1 3 0;
#X connect 4 2 6 0;
#X connect 5 0 15 0;
#X connect 6 0 29 0;
#X connect 6 1 5 1;
#X connect 7 0 16 0;
#X connect 7 0 17 0;
#X connect 7 1 25 0;
#X connect 8 0 9 0;
#X connect 9 0 10 0;
#X connect 9 0 18 0;
#X connect 10 0 16 1;
#X connect 11 0 14 0;
#X connect 13 0 19 0;
#X connect 13 1 20 0;
#X connect 14 0 13 0;
#X connect 15 0 14 0;
#X connect 15 1 7 0;
#X connect 16 0 19 1;
#X connect 16 0 22 0;
#X connect 17 0 20 1;
#X connect 17 0 23 0;
#X connect 18 0 17 1;
#X connect 19 0 21 0;
#X connect 20 0 21 1;
#X connect 21 0 12 0;
#X connect 25 0 8 0;
#X connect 26 0 27 0;
#X connect 27 0 28 0;
#X connect 29 0 5 0;
#X restore 184 286 pd décal_repuls;
#X connect 0 0 2 0;
#X connect 1 0 85 0;
#X connect 2 0 7 0;
#X connect 2 0 85 0;
#X connect 3 0 12 0;
#X connect 4 0 12 1;
#X connect 6 0 3 0;
#X connect 6 1 4 0;
#X connect 7 0 6 0;
#X connect 8 0 7 1;
#X connect 10 0 9 0;
#X connect 11 0 9 0;
#X connect 12 0 55 0;
#X connect 12 0 87 0;
#X connect 16 0 15 0;
#X connect 17 0 15 0;
#X connect 18 0 15 0;
#X connect 22 0 85 0;
#X connect 23 0 2 1;
#X connect 24 0 26 0;
#X connect 24 1 26 1;
#X connect 26 0 25 0;
#X connect 27 0 99 0;
#X connect 28 0 104 0;
#X connect 29 0 105 0;
#X connect 30 0 19 0;
#X connect 32 0 33 0;
#X connect 33 0 34 0;
#X connect 34 0 18 0;
#X connect 35 0 64 0;
#X connect 36 0 39 0;
#X connect 37 0 39 0;
#X connect 38 0 39 0;
#X connect 43 0 12 0;
#X connect 44 0 66 0;
#X connect 46 0 47 0;
#X connect 46 0 63 0;
#X connect 47 0 45 0;
#X connect 49 0 50 0;
#X connect 49 0 62 0;
#X connect 50 0 48 0;
#X connect 51 0 52 0;
#X connect 52 0 53 0;
#X connect 54 0 0 0;
#X connect 56 0 39 0;
#X connect 57 0 39 0;
#X connect 58 0 59 0;
#X connect 59 0 60 0;
#X connect 60 0 61 0;
#X connect 64 0 72 0;
#X connect 65 0 91 0;
#X connect 69 0 70 0;
#X connect 70 0 71 0;
#X connect 72 0 70 0;
#X connect 72 1 65 0;
#X connect 74 0 75 0;
#X connect 75 0 76 0;
#X connect 76 0 86 4;
#X connect 76 0 86 3;
#X connect 76 0 86 2;
#X connect 76 0 86 1;
#X connect 77 0 79 0;
#X connect 79 0 67 0;
#X connect 79 1 82 0;
#X connect 80 0 83 0;
#X connect 82 0 78 0;
#X connect 83 0 77 0;
#X connect 85 0 14 0;
#X connect 86 0 81 0;
#X connect 87 0 90 0;
#X connect 87 1 114 0;
#X connect 88 0 94 0;
#X connect 89 0 5 0;
#X connect 90 0 5 0;
#X connect 91 0 68 0;
#X connect 91 1 92 0;
#X connect 91 2 86 0;
#X connect 91 3 93 0;
#X connect 93 0 77 0;
#X connect 95 0 96 0;
#X connect 96 0 103 0;
#X connect 97 0 95 0;
#X connect 97 1 95 1;
#X connect 98 0 97 0;
#X connect 99 0 101 0;
#X connect 100 0 99 0;
#X connect 100 1 99 1;
#X connect 101 0 103 0;
#X connect 102 0 100 0;
#X connect 103 0 31 0;
#X connect 104 0 103 0;
#X connect 105 0 95 0;
#X connect 105 1 27 0;
#X connect 105 2 28 0;
#X connect 105 3 106 0;
#X connect 106 0 108 0;
#X connect 107 0 113 0;
#X connect 108 0 100 0;
#X connect 109 0 108 0;
#X connect 109 1 108 1;
#X connect 110 0 106 0;
#X connect 112 0 107 0;
#X connect 113 0 109 0;
#X connect 113 0 111 0;
#X connect 114 0 89 0;
#X restore 247 62 pd guts;
#X obj 36 20 bng 15 250 50 0 showPerpective showPerpective perpectiveSettings
17 7 0 10 -257985 -1 -1;
#N canvas 378 97 523 714 boids_params 0;
#X text 231 20 maximum speed of speed range;
#X text 237 55 minimum speed of speed range;
#X text 233 89 strength of centering instinct;
#X text 227 297 overall speed;
#X text 225 368 speed of acceleration;
#X text 243 403 preferred distance from neighbors;
#X text 230 228 strength of neighbor speed matching instinct;
#X text 228 265 strength of neighbor avoidance instinct;
#X text 251 127 strength of attraction to 'attractpt';
#X text 236 333 willingness to keep speed and direction;
#X obj 19 595 hsl 128 15 0 1 0 0 empty empty empty -2 -8 0 10 -262144
-1 -1 0 1;
#X obj 16 686 s boids-pattern-snd;
#X obj 16 638 list prepend _all_;
#X obj 16 659 list trim;
#X obj 16 617 presetfadelin boids 0 1 2 3 4 5;
#X obj 16 574 r boids-pattern;
#X obj 9 83 param boidParam center boids 0 50 2;
#X obj 10 117 param boidParamI attract1 boids 0 150 2;
#X obj 10 152 param boidParamI repuls1 boids 0 150 2;
#X obj 11 221 param boidParam match boids 0 150 2;
#X obj 11 257 param boidParam avoid boids 0 150 2;
#X obj 10 289 param boidParam speed boids 0 20 1;
#X obj 10 324 param boidParam inertia boids 0 30 2;
#X obj 8 14 param boidParam maxspeed boids 0 2 1;
#X obj 9 48 param boidParam minspeed boids 0 2 1;
#X obj 13 396 param boidParam prefdist boids 0 50 1;
#X obj 10 187 param boidParamI repuls1rad boids 0 1500 1;
#X obj 13 361 param boidParam accel boids 0 1 1;
#X obj 15 491 presetMaster boids;
#X obj 13 435 param boidSetting size boids 0.01 150 1;
#X obj 265 437 param boidSetting alpha boids0 0 1 1;
#X connect 10 0 14 0;
#X connect 12 0 13 0;
#X connect 13 0 11 0;
#X connect 14 0 12 0;
#X connect 15 0 10 0;
#X restore 35 43 pd boids_params;
#N canvas 916 110 389 690 fluid_params 0;
#X obj 14 600 presetMaster fluid;
#X obj 8 14 param fluidParam speed fluid 0 100 1;
#X obj 9 49 param fluidParam cell\ size fluid 0.1 2 1;
#X obj 10 84 param fluidParam viscosity fluid 0 2 1;
#X obj 10 119 param fluidParam vorticity fluid 0 2 1;
#X obj 10 154 param fluidParam dissipation fluid 0.0001 0.1 2;
#X obj 11 188 param fluidParam densityOffset fluid -0.01 0.01;
#X obj 11 223 param fluidParam velocityOffset fluid -0.01 0.02;
#X obj 11 257 param fluidParam density\ from\ pressure fluid -0.1 0.1
;
#X obj 12 292 param fluidParam density\ from\ vorticity fluid -0.5
0.5;
#X obj 12 326 param fluidParam maxForce fluid 0 0.2;
#X obj 12 360 param fluidParam maxDensity fluid 0 5 1;
#X obj 12 395 param fluidParam maxVelocity fluid 0.01 10 2;
#X obj 292 52 s fluidParam;
#X msg 292 32 reset 1;
#X obj 12 445 param fluidSetting boidsDensity fluid 0 1 2;
#X obj 11 479 param fluidSetting circDensity fluid 0 1 2;
#X obj 11 513 param fluidSetting boidsVelecity fluid 0 1 1;
#X obj 146 561 param fluidSetting alpha fluid0 0 1 1;
#X connect 14 0 13 0;
#X restore 35 65 pd fluid_params;
#X obj 39 217 hsl 128 15 0 1 0 0 empty empty empty -2 -8 0 10 -262144
-1 -1 0 1;
#X obj 36 260 list prepend _all_;
#X obj 36 281 list trim;
#X obj 36 308 s global-pattern-snd;
#X obj 36 196 r global-pattern;
#X obj 35 117 presetMaster global;
#X obj 246 43 declare -path ../;
#X obj 36 239 presetfadelin global 0 1 2 3 4 5;
#N canvas 1328 111 513 297 other_params 0;
#X obj 33 51 param cache alpha cache 0 1 1;
#X obj 229 51 param cache size cache 0 2000 1 2;
#X obj 229 86 param cache stretch cache 100 300 0 2;
#X obj 229 120 param cache angle cache -180 180 0 2;
#X restore 36 87 pd other_params;
#X connect 4 0 11 0;
#X connect 5 0 6 0;
#X connect 6 0 7 0;
#X connect 8 0 4 0;
#X connect 11 0 5 0;
