#N canvas 35 81 1244 918 10;
#X declare -path Fraise -stdpath Fraise;
#X obj 22 207 fruit/receive fruit1;
#X obj 19 141 fruit/fruit 1 fruit1 10 example1;
#X msg 374 159 L\$1;
#X obj 374 136 tgl 15 0 empty empty set_LED 18 7 0 10 -4034 -1 -1 0
1;
#X obj 21 38 pied/pied 0 41424;
#X obj 21 16 declare -path Fraise -stdpath Fraise;
#X msg 396 218 I0;
#X obj 364 82 metro 150;
#X obj 364 55 tgl 15 0 empty empty empty 17 7 0 10 -262144 -1 -1 0
1;
#X obj 269 185 fruit/send2 fruit1;
#X obj 265 494 print;
#X obj 265 469 spigot;
#X obj 298 445 tgl 15 0 empty empty empty 17 7 0 10 -262144 -1 -1 0
1;
#X obj 1090 292 * 256;
#X obj 1048 314 +, f 7;
#X obj 1048 335 change;
#X floatatom 1048 356 5 0 0 3 x - -;
#X text 253 21 Red - VCC+ Yellow - SDA : K7 Green - SCL : K5 Black
- GND;
#X msg 458 174 R\$1;
#X obj 459 151 tgl 15 0 empty empty empty 17 7 0 10 -262144 -1 -1 1
1;
#X obj 1048 252 list split 5, f 32;
#X obj 1048 272 unpack f f f f f, f 29;
#X obj 1175 292 * 256;
#X obj 1133 314 +, f 7;
#X obj 1133 335 change;
#X floatatom 1133 356 5 0 0 3 y - -;
#X floatatom 1219 354 5 0 0 3 size - -;
#X obj 1315 291 * 256;
#X obj 1273 313 +, f 7;
#X obj 1273 334 change;
#X floatatom 1273 355 5 0 0 3 x - -;
#X obj 1273 251 list split 5, f 32;
#X obj 1273 271 unpack f f f f f, f 29;
#X obj 1400 291 * 256;
#X obj 1358 313 +, f 7;
#X obj 1358 334 change;
#X floatatom 1358 355 5 0 0 3 y - -;
#X floatatom 1444 353 5 0 0 3 size - -;
#X obj 1535 289 * 256;
#X obj 1493 311 +, f 7;
#X obj 1493 332 change;
#X floatatom 1493 353 5 0 0 3 x - -;
#X obj 1493 249 list split 5, f 32;
#X obj 1493 269 unpack f f f f f, f 29;
#X obj 1620 289 * 256;
#X obj 1578 311 +, f 7;
#X obj 1578 332 change;
#X floatatom 1578 353 5 0 0 3 y - -;
#X floatatom 1664 351 5 0 0 3 size - -;
#X obj 1760 288 * 256;
#X obj 1718 310 +, f 7;
#X obj 1718 331 change;
#X floatatom 1718 352 5 0 0 3 x - -;
#X obj 1718 248 list split 5, f 32;
#X obj 1718 268 unpack f f f f f, f 29;
#X obj 1845 288 * 256;
#X obj 1803 310 +, f 7;
#X obj 1803 331 change;
#X floatatom 1803 352 5 0 0 3 y - -;
#X floatatom 1889 350 5 0 0 3 size - -;
#X floatatom 1946 270 5 0 0 0 - - -;
#X obj 1889 309 change;
#X obj 1946 248 change;
#X obj 1664 310 change;
#X obj 1444 312 change;
#X obj 1219 313 change;
#X obj 118 592 clip 0 1;
#X obj 118 571 / 760;
#X obj 49 634 clip 0 1;
#X obj 297 731 change;
#X obj 49 676 + 10;
#X obj 49 697 mtof;
#X obj 49 612 / 1023;
#X obj 239 617 mtof;
#X obj 239 575 * 80;
#X obj 239 596 + 40;
#X obj 119 675 line~;
#X obj 49 738 line~;
#X msg 49 717 \$1 10;
#X msg 119 654 \$1 10;
#X obj 48 828 *~ 0.3;
#X obj 43 862 dac~;
#X obj 297 776 line~;
#X msg 297 755 \$1 10;
#X obj 48 801 *~, f 42;
#X msg 68 427 1;
#X obj 21 426 del 30;
#X msg 21 447 0;
#X obj 21 476 pack f f f;
#X obj 49 538 unpack f f f;
#X obj 595 578 clip 0 1;
#X obj 595 557 / 760;
#X obj 508 561 clip 0 1;
#X obj 756 658 change;
#X obj 508 582 * 120;
#X obj 508 603 + 10;
#X obj 508 624 mtof;
#X obj 507 686 moonlib/ssaw~;
#X obj 508 539 / 1023;
#X obj 595 640 mtof;
#X obj 595 598 * 80;
#X obj 595 619 + 40;
#X obj 595 682 line~;
#X obj 508 665 line~;
#X msg 508 644 \$1 10;
#X msg 595 661 \$1 10;
#X obj 507 707 bob~, f 29;
#X obj 507 755 *~ 0.3;
#X obj 502 789 dac~;
#X obj 756 703 line~;
#X msg 756 682 \$1 10;
#X obj 507 728 *~, f 42;
#X floatatom 458 537 5 0 0 0 - - -;
#X obj 508 516 unpack f f f, f 21;
#X obj 677 679 sig~ 3.5;
#X obj 49 772 osc~;
#X obj 118 613 pow 2;
#X obj 118 634 * 20;
#X obj 119 695 osc~;
#X obj 49 655 * 90;
#X obj 120 718 *~ 1000;
#X msg 299 691 0;
#X msg 20 499 \$2 \$3 \$1;
#X obj 32 393 t b a, f 13;
#X obj 107 422 unpack f f;
#X obj 204 352 bng 15 250 50 0 empty empty empty 17 7 0 10 -262144
-1 -1;
#X obj 22 260 senpoint \$0 0;
#X obj 22 281 senpoint \$0 1;
#X obj 22 321 senpoint \$0 3;
#X obj 22 301 senpoint \$0 2;
#X obj 322 386 unpack f f f;
#X floatatom 317 428 5 0 0 0 - - -;
#X floatatom 355 429 5 0 0 0 - - -;
#X floatatom 400 429 5 0 0 0 - - -;
#X obj 693 587 > 128;
#X msg 262 154 c 100 i \$1;
#X floatatom 258 124 5 0 5000 0 - - -;
#X obj 225 75 vsl 15 128 21 2100 1 0 empty empty empty 0 -9 0 10 -262144
-1 -1 0 1;
#X obj 319 407 change;
#X obj 355 407 change;
#X obj 399 408 change;
#X obj 454 392 unpack f f f;
#X floatatom 449 434 5 0 0 0 - - -;
#X floatatom 487 435 5 0 0 0 - - -;
#X floatatom 530 437 5 0 0 0 - - -;
#X obj 451 413 change;
#X obj 487 413 change;
#X obj 531 414 change;
#X obj 383 516 vsl 15 128 0 255 0 0 empty empty empty 0 -9 0 10 -262144
-1 -1 0 1;
#X obj 125 272 senpoint \$0-IN 1;
#X obj 125 251 senpoint \$0-IN 0;
#X obj 125 292 senpoint \$0-IN 2;
#X obj 125 312 senpoint \$0-IN 3;
#X obj 871 389 route 0 1 2 3, f 29;
#X obj 868 436 unpack f f f;
#X floatatom 863 478 5 0 0 0 - - -;
#X floatatom 901 479 5 0 0 0 - - -;
#X floatatom 945 478 5 0 0 0 - - -;
#X obj 865 457 change;
#X obj 901 457 change;
#X obj 945 458 change;
#X obj 871 362 r senpoint-\$0-IN;
#X obj 22 229 route 1 2, f 27;
#X obj 990 438 unpack f f f;
#X floatatom 985 480 5 0 0 0 - - -;
#X floatatom 1023 481 5 0 0 0 - - -;
#X floatatom 1067 480 5 0 0 0 - - -;
#X obj 987 459 change;
#X obj 1023 459 change;
#X obj 1067 460 change;
#X obj 331 358 route 0 1 2 3, f 71;
#X obj 586 394 unpack f f f;
#X floatatom 581 436 5 0 0 0 - - -;
#X floatatom 619 437 5 0 0 0 - - -;
#X floatatom 664 437 5 0 0 0 - - -;
#X obj 583 415 change;
#X obj 619 415 change;
#X obj 663 416 change;
#X obj 718 400 unpack f f f;
#X floatatom 713 442 5 0 0 0 - - -;
#X floatatom 751 443 5 0 0 0 - - -;
#X floatatom 794 445 5 0 0 0 - - -;
#X obj 715 421 change;
#X obj 751 421 change;
#X obj 795 422 change;
#X obj 495 67 showPoints \$0;
#X obj 291 265 r senpoint-\$0;
#X obj 311 311 spigot;
#X obj 350 292 tgl 15 0 empty empty empty 17 7 0 10 -262144 -1 -1 0
1;
#N canvas 57 544 1184 437 sensitivity 1;
#X obj 158 381 outlet;
#N canvas 1 81 450 300 convert_chars_to_fraise 0;
#X obj 105 58 inlet;
#X obj 124 109 list split 1;
#X obj 124 152 list prepend c;
#X obj 105 79 t b a b;
#X obj 158 132 t a;
#X obj 105 229 list;
#X obj 124 194 t a a;
#X msg 225 110 list;
#X obj 105 250 outlet;
#X obj 124 173 list append;
#X connect 0 0 3 0;
#X connect 1 0 2 0;
#X connect 1 1 4 0;
#X connect 2 0 9 0;
#X connect 3 0 5 0;
#X connect 3 1 1 0;
#X connect 3 2 7 0;
#X connect 4 0 1 0;
#X connect 5 0 8 0;
#X connect 6 0 5 1;
#X connect 6 1 9 1;
#X connect 7 0 6 0;
#X connect 9 0 6 0;
#X restore 158 314 pd convert_chars_to_fraise;
#X msg 118 189 101 0 1 2 3;
#X msg 214 187 101 0 0 0 0 0 0 255 0 12 0 0;
#X text 463 19 Level 1: p0 = 0x72 \, p1 = 0x20 \, p2 = 0x1F \, p3 =
0x03 Level 2: p0 = 0xC8 \, p1 = 0x36 \, p2 = 0x35 \, p3 = 0x03 Level
3: p0 = 0xAA \, p1 = 0x64 \, p2 = 0x63 \, p3 = 0x03 Level 4: p0 = 0x96
\, p1 = 0xB4 \, p2 = 0xB3 \, p3 = 0x04 Level 5: p0 = 0x96 \, p1 = 0xFE
\, p2 = 0xFE \, p3 = 0x05, f 52;
#X text 125 43 0x00 \, 0x02 \, 0x00 \, 0x00 \, 0x71 \, 0x01 \, 0x00
\, p0 0x07 \, 0x00 \, p1 0x1A \, p2 \, p3, f 46;
#X text 118 105 2 \, 0 \, 0 \, 113 \, 1 \, 0 \, p0 \, 0 \, p1 \, p2
\, p3, f 46;
#X msg 472 249 101 2 0 0 113 1 0 \$1 0 \$2 \$3 \$4;
#X text 456 85 Level 1: p0 = 114 \, p1 = 32 \, p2 = 31 \, p3 = 3 Level
2: p0 = 200 \, p1 = 54 \, p2 = 53 \, p3 = 3 Level 3: p0 = 170 \, p1
= 100 \, p2 = 99 \, p3 = 3 Level 4: p0 = 150 \, p1 = 180 \, p2 = 179
\, p3 = 4 Level 5: p0 = 150 \, p1 = 254 \, p2 = 254 \, p3 = 5, f 48
;
#X msg 428 185 114 32 31 3;
#X msg 511 186 200 54 53 3;
#X msg 596 184 170 100 99 3;
#X msg 688 188 150 180 179 4;
#X msg 783 190 150 254 254 5;
#X text 23 3 https://makezine.com/2008/11/22/hacking-the-wiimote-ir-ca/
;
#X text 798 306 p1: GAIN: Sensor Gain. Smaller values = higher gain
;
#X text 798 326 p2: GAINLIMIT: Sensor Gain Limit. Must be less than
GAIN for camera to function. No other effect?;
#X text 798 356 p3: MINSIZE: Minimum blob size. Wii uses values from
3 to 5;
#X text 798 280 p0: MAXSIZE: Maximum blob size. Wii uses values from
0x62 to 0xc8 (98 to 200);
#X msg 420 162 20 15 0 1;
#X connect 1 0 0 0;
#X connect 2 0 1 0;
#X connect 3 0 1 0;
#X connect 7 0 1 0;
#X connect 9 0 7 0;
#X connect 10 0 7 0;
#X connect 11 0 7 0;
#X connect 12 0 7 0;
#X connect 13 0 7 0;
#X connect 19 0 7 0;
#X restore 267 77 pd sensitivity;
#X connect 0 0 162 0;
#X connect 2 0 9 1;
#X connect 3 0 2 0;
#X connect 6 0 9 1;
#X connect 7 0 3 0;
#X connect 8 0 7 0;
#X connect 11 0 10 0;
#X connect 12 0 11 1;
#X connect 13 0 14 1;
#X connect 14 0 15 0;
#X connect 15 0 16 0;
#X connect 18 0 9 1;
#X connect 19 0 18 0;
#X connect 20 0 21 0;
#X connect 20 1 31 0;
#X connect 21 0 14 0;
#X connect 21 1 13 0;
#X connect 21 2 23 0;
#X connect 21 3 22 0;
#X connect 21 4 65 0;
#X connect 22 0 23 1;
#X connect 23 0 24 0;
#X connect 24 0 25 0;
#X connect 27 0 28 1;
#X connect 28 0 29 0;
#X connect 29 0 30 0;
#X connect 31 0 32 0;
#X connect 31 1 42 0;
#X connect 32 0 28 0;
#X connect 32 1 27 0;
#X connect 32 2 34 0;
#X connect 32 3 33 0;
#X connect 32 4 64 0;
#X connect 33 0 34 1;
#X connect 34 0 35 0;
#X connect 35 0 36 0;
#X connect 38 0 39 1;
#X connect 39 0 40 0;
#X connect 40 0 41 0;
#X connect 42 0 43 0;
#X connect 42 1 53 0;
#X connect 43 0 39 0;
#X connect 43 1 38 0;
#X connect 43 2 45 0;
#X connect 43 3 44 0;
#X connect 43 4 63 0;
#X connect 44 0 45 1;
#X connect 45 0 46 0;
#X connect 46 0 47 0;
#X connect 49 0 50 1;
#X connect 50 0 51 0;
#X connect 51 0 52 0;
#X connect 53 0 54 0;
#X connect 53 1 62 0;
#X connect 54 0 50 0;
#X connect 54 1 49 0;
#X connect 54 2 56 0;
#X connect 54 3 55 0;
#X connect 54 4 61 0;
#X connect 55 0 56 1;
#X connect 56 0 57 0;
#X connect 57 0 58 0;
#X connect 61 0 59 0;
#X connect 62 0 60 0;
#X connect 63 0 48 0;
#X connect 64 0 37 0;
#X connect 65 0 26 0;
#X connect 66 0 116 0;
#X connect 67 0 66 0;
#X connect 68 0 119 0;
#X connect 69 0 83 0;
#X connect 70 0 71 0;
#X connect 71 0 78 0;
#X connect 72 0 68 0;
#X connect 74 0 75 0;
#X connect 75 0 73 0;
#X connect 76 0 118 0;
#X connect 77 0 115 0;
#X connect 78 0 77 0;
#X connect 79 0 76 0;
#X connect 80 0 81 0;
#X connect 80 0 81 1;
#X connect 82 0 84 1;
#X connect 83 0 82 0;
#X connect 84 0 80 0;
#X connect 85 0 88 0;
#X connect 86 0 87 0;
#X connect 87 0 88 0;
#X connect 88 0 122 0;
#X connect 89 0 72 0;
#X connect 89 1 67 0;
#X connect 89 2 69 0;
#X connect 90 0 100 0;
#X connect 91 0 90 0;
#X connect 92 0 94 0;
#X connect 93 0 110 0;
#X connect 94 0 95 0;
#X connect 95 0 96 0;
#X connect 96 0 104 0;
#X connect 97 0 106 0;
#X connect 98 0 92 0;
#X connect 99 0 105 0;
#X connect 100 0 101 0;
#X connect 101 0 99 0;
#X connect 102 0 106 1;
#X connect 103 0 97 0;
#X connect 104 0 103 0;
#X connect 105 0 102 0;
#X connect 106 0 111 0;
#X connect 107 0 108 0;
#X connect 107 0 108 1;
#X connect 109 0 111 1;
#X connect 110 0 109 0;
#X connect 111 0 107 0;
#X connect 113 0 98 0;
#X connect 113 0 112 0;
#X connect 113 1 91 0;
#X connect 113 2 134 0;
#X connect 114 0 106 2;
#X connect 115 0 84 0;
#X connect 116 0 117 0;
#X connect 117 0 79 0;
#X connect 118 0 120 0;
#X connect 119 0 70 0;
#X connect 120 0 115 0;
#X connect 121 0 69 0;
#X connect 123 0 86 0;
#X connect 123 0 85 0;
#X connect 123 1 124 0;
#X connect 124 0 88 1;
#X connect 124 1 88 2;
#X connect 126 0 127 0;
#X connect 127 0 129 0;
#X connect 129 0 128 0;
#X connect 130 0 138 0;
#X connect 130 1 139 0;
#X connect 130 2 140 0;
#X connect 134 0 93 0;
#X connect 135 0 9 0;
#X connect 136 0 135 0;
#X connect 137 0 136 0;
#X connect 138 0 131 0;
#X connect 139 0 132 0;
#X connect 140 0 133 0;
#X connect 141 0 145 0;
#X connect 141 1 146 0;
#X connect 141 2 147 0;
#X connect 145 0 142 0;
#X connect 146 0 143 0;
#X connect 147 0 144 0;
#X connect 149 0 151 0;
#X connect 150 0 149 0;
#X connect 151 0 152 0;
#X connect 153 0 154 0;
#X connect 153 1 163 0;
#X connect 154 0 158 0;
#X connect 154 1 159 0;
#X connect 154 2 160 0;
#X connect 158 0 155 0;
#X connect 159 0 156 0;
#X connect 160 0 157 0;
#X connect 162 0 126 0;
#X connect 162 1 150 0;
#X connect 163 0 167 0;
#X connect 163 1 168 0;
#X connect 163 2 169 0;
#X connect 167 0 164 0;
#X connect 168 0 165 0;
#X connect 169 0 166 0;
#X connect 170 0 130 0;
#X connect 170 0 113 0;
#X connect 170 1 141 0;
#X connect 170 2 171 0;
#X connect 170 3 178 0;
#X connect 171 0 175 0;
#X connect 171 1 176 0;
#X connect 171 2 177 0;
#X connect 175 0 172 0;
#X connect 176 0 173 0;
#X connect 177 0 174 0;
#X connect 178 0 182 0;
#X connect 178 1 183 0;
#X connect 178 2 184 0;
#X connect 182 0 179 0;
#X connect 183 0 180 0;
#X connect 184 0 181 0;
#X connect 186 0 11 0;
#X connect 186 0 187 0;
#X connect 187 0 170 0;
#X connect 188 0 187 1;
#X connect 189 0 9 0;
