#N canvas 101 442 669 300 12;
#X obj 85 84 fudiparse;
#X obj 85 60 netreceive -u -b 8765;
#X obj 85 108 route 0 1;
#X obj 85 136 route 0;
#X obj 85 160 unpack f f;
#X floatatom 85 184 5 0 0 0 - - -;
#X floatatom 152 183 5 0 0 0 - - -;
#X obj 205 162 unpack f f;
#X floatatom 205 186 5 0 0 0 - - -;
#X floatatom 272 185 5 0 0 0 - - -;
#X obj 205 138 route 0 1 2, f 38;
#X obj 317 163 unpack f f;
#X floatatom 317 187 5 0 0 0 - - -;
#X floatatom 384 186 5 0 0 0 - - -;
#X obj 432 165 unpack f f;
#X floatatom 432 189 5 0 0 0 - - -;
#X floatatom 499 188 5 0 0 0 - - -;
#X connect 0 0 2 0;
#X connect 1 0 0 0;
#X connect 2 0 3 0;
#X connect 2 1 10 0;
#X connect 3 0 4 0;
#X connect 4 0 5 0;
#X connect 4 1 6 0;
#X connect 7 0 8 0;
#X connect 7 1 9 0;
#X connect 10 0 7 0;
#X connect 10 1 11 0;
#X connect 10 2 14 0;
#X connect 11 0 12 0;
#X connect 11 1 13 0;
#X connect 14 0 15 0;
#X connect 14 1 16 0;
