#N canvas 59 145 1149 662 10;
#X declare -path moonlib;
#X obj 81 85 unpack f f f, f 28;
#X floatatom 81 106 5 0 0 0 - - -;
#X floatatom 160 105 5 0 0 0 - - -;
#X obj 81 20 r euler\$2;
#X obj 279 148 + 30;
#X obj 279 169 max 0;
#X obj 279 191 / 60;
#X obj 279 212 min 1;
#X obj 281 232 pow 2;
#X obj 81 52 spigot;
#X obj 151 19 r \$1-on-snd;
#X obj 61 150 t f f f, f 8;
#X obj 86 174 -;
#X obj 86 237 +;
#X obj 61 266 +;
#X floatatom 61 298 5 0 0 0 - - -;
#X msg 86 216 2;
#X msg 206 214 -2;
#X obj 64 324 hsl 128 15 -18 16 0 0 empty empty empty -2 -8 0 10 -262144
-1 -1 2503 1;
#X msg 179 237 0;
#X obj 86 195 moses -1.5;
#X obj 155 195 moses 1.5;
#X obj 310 284 hsl 128 15 0 1 0 0 empty empty empty -2 -8 0 10 -262144
-1 -1 0 1;
#X obj 115 237 f;
#X obj 101 354 r /G\$1-notes;
#N canvas 831 210 490 523 adjust_note 0;
#X obj 26 18 inlet;
#X obj 26 76 t f f, f 7;
#X obj 67 97 fmod;
#X obj 116 50 list length;
#X obj 26 98 /;
#X obj 26 119 i;
#X obj 26 140 * 12;
#X obj 67 139 t f f;
#X obj 94 159 fmod 1;
#X obj 67 182 -, f 5;
#X obj 67 118 adjust 0, f 42;
#X obj 67 203 i;
#X obj 67 224 t f f, f 13;
#X obj 142 247 + 1;
#X obj 142 293 mod;
#X obj 142 314 t b f, f 10;
#X obj 142 335 list;
#X obj 142 356 list split;
#X obj 67 313 t b f, f 10;
#X obj 67 334 list;
#X obj 67 355 list split;
#X obj 95 400 *;
#X obj 170 424 *;
#X obj 198 212 t f f;
#X msg 198 234 1 \$1;
#X obj 198 255 -;
#X obj 95 445 +, f 13;
#X obj 26 469 +, f 12;
#X obj 26 490 outlet;
#X obj 95 376 unpack f;
#X obj 170 377 unpack f;
#X obj 195 14 inlet gamme-notes;
#X obj 316 17 inlet adjust;
#X obj 142 270 t f f;
#X obj 177 291 div;
#X obj 170 400 +;
#X obj 234 377 * 12;
#X connect 0 0 1 0;
#X connect 1 0 4 0;
#X connect 1 1 2 0;
#X connect 2 0 10 0;
#X connect 3 0 2 1;
#X connect 3 0 4 1;
#X connect 3 0 14 1;
#X connect 3 0 34 1;
#X connect 4 0 5 0;
#X connect 5 0 6 0;
#X connect 6 0 27 0;
#X connect 7 0 9 0;
#X connect 7 1 8 0;
#X connect 8 0 9 1;
#X connect 8 0 23 0;
#X connect 9 0 11 0;
#X connect 10 0 7 0;
#X connect 11 0 12 0;
#X connect 12 0 18 0;
#X connect 12 1 13 0;
#X connect 13 0 33 0;
#X connect 14 0 15 0;
#X connect 15 0 16 0;
#X connect 15 1 17 1;
#X connect 16 0 17 0;
#X connect 17 1 30 0;
#X connect 18 0 19 0;
#X connect 18 1 20 1;
#X connect 19 0 20 0;
#X connect 20 1 29 0;
#X connect 21 0 26 0;
#X connect 22 0 26 1;
#X connect 23 0 24 0;
#X connect 23 1 22 1;
#X connect 24 0 25 0;
#X connect 25 0 21 1;
#X connect 26 0 27 1;
#X connect 27 0 28 0;
#X connect 29 0 21 0;
#X connect 30 0 35 0;
#X connect 31 0 3 0;
#X connect 31 0 16 1;
#X connect 31 0 19 1;
#X connect 32 0 10 1;
#X connect 33 0 14 0;
#X connect 33 1 34 0;
#X connect 34 0 36 0;
#X connect 35 0 22 0;
#X connect 36 0 35 1;
#X restore 61 382 pd adjust_note;
#X floatatom 1 429 5 0 0 0 - - -;
#X msg 102 293 0;
#X floatatom 190 356 5 0 0 0 - - -;
#X msg 186 276 10;
#X obj 62 596 *~;
#X obj 256 312 pack f 20;
#X obj 256 333 line~;
#X obj 61 439 line~;
#X obj 256 290 * 0.2;
#X obj 325 77 r \$1-resetCenter-snd;
#X obj 368 140 r \$1-adjust-snd;
#X obj 257 12 r sensor\$2;
#X obj 257 33 sel 0;
#X msg 257 54 0;
#X obj 62 466 mtof~;
#X obj 248 503 osc~ 5;
#X obj 248 394 + 90;
#X obj 248 414 abs;
#X obj 248 435 / 30;
#X obj 248 459 * 4;
#X obj 248 480 + 2;
#X obj 247 528 *~;
#X obj 303 486 pack f 20;
#X obj 303 507 line~;
#X obj 385 13 declare -path moonlib;
#X obj 62 570 lop~ 2000;
#X obj 376 494 hradio 15 1 0 6 empty empty empty 0 -8 0 10 -262144
-1 -1 2;
#X obj 376 556 mtof;
#X floatatom 376 577 5 0 0 0 - - -;
#X obj 62 545 bp~ 700 10;
#X obj 376 535 + 80;
#X obj 376 449 loadbang;
#X obj 376 514 * 4;
#X obj 376 470 f \$2;
#X obj 62 624 throw~ \$1-out;
#X obj 61 129 / -180;
#X obj 61 353 * 4;
#X obj 8 548 lop~ 400;
#X obj 416 535 t b f;
#X obj 445 442 r \$1-filterOffset-snd;
#X obj 445 462 + 80;
#X obj 157 540 hip~ 2000;
#X obj 157 561 lop~ 5000;
#X obj 439 167 r accel\$2;
#X obj 441 218 unpack f f f;
#X obj 441 189 spigot;
#X obj 511 156 r \$1-on-snd;
#X obj 813 47 vsl 15 128 -1 1 0 0 empty empty empty 0 -9 0 10 -262144
-1 -1 0 1;
#X obj 658 280 / 1000;
#X obj 658 338 +;
#X floatatom 658 358 5 0 0 0 - - -;
#X obj 658 403 vsl 15 128 -1 1 0 0 empty empty empty 0 -9 0 10 -262144
-1 -1 6463 1;
#X msg 732 304 0;
#X obj 680 44 unpack f f f;
#X obj 681 64 abs;
#X obj 714 65 abs;
#X obj 749 65 abs;
#X obj 681 85 +;
#X obj 714 84 +;
#X obj 681 127 change;
#X obj 681 148 sel 0 1;
#X obj 700 186 del 200;
#X msg 674 168 stop;
#X obj 701 214 bng 15 250 50 0 empty empty empty 17 7 0 10 -262144
-1 -1;
#X obj 681 106 < 200;
#X obj 795 297 / 1000;
#X obj 795 338 +;
#X floatatom 795 358 5 0 0 0 - - -;
#X obj 795 403 vsl 15 128 -1 1 0 0 empty empty empty 0 -9 0 10 -262144
-1 -1 6394 1;
#X obj 823 337 * 0.99;
#X msg 823 317 0;
#X obj 795 378 / 5;
#X obj 580 297 / 1000;
#X obj 580 338 +;
#X floatatom 580 358 5 0 0 0 - - -;
#X obj 580 403 vsl 15 128 -1 1 0 0 empty empty empty 0 -9 0 10 -262144
-1 -1 6363 1;
#X obj 608 337 * 0.99;
#X msg 608 317 0;
#X obj 580 378 / 5;
#X msg 950 442 -1;
#X msg 1012 445 0;
#X msg 1051 444 1;
#X obj 950 421 moses -1;
#X obj 1012 424 moses 1;
#X obj 1004 476 change;
#X floatatom 1004 497 5 0 0 0 - - -;
#X floatatom 1067 491 5 0 0 0 - - -;
#X floatatom 931 491 5 0 0 0 - - -;
#X obj 658 541 t f f;
#X obj 685 561 abs;
#X obj 685 582 - 0.1;
#X floatatom 685 627 5 0 0 0 - - -;
#X obj 685 604 clip 0 1;
#X obj 255 358 *~;
#X obj 750 582 pack f 20;
#X obj 750 603 line~;
#X obj 686 337 * 0.99;
#X obj 61 418 pack f 50;
#X obj 62 494 osc~;
#X obj 639 586 + 70;
#X obj 639 565 * 30;
#X obj 764 496 r \$1-center-snd;
#X obj 732 339 clip -5 5;
#X obj 658 378 / 5;
#X connect 0 0 1 0;
#X connect 0 0 61 0;
#X connect 0 1 2 0;
#X connect 0 1 42 0;
#X connect 0 2 4 0;
#X connect 3 0 9 0;
#X connect 4 0 5 0;
#X connect 5 0 6 0;
#X connect 6 0 7 0;
#X connect 7 0 8 0;
#X connect 8 0 22 0;
#X connect 8 0 34 0;
#X connect 9 0 0 0;
#X connect 10 0 9 1;
#X connect 11 0 14 0;
#X connect 11 1 12 1;
#X connect 11 2 12 0;
#X connect 12 0 20 0;
#X connect 13 0 23 0;
#X connect 14 0 15 0;
#X connect 15 0 18 0;
#X connect 16 0 13 0;
#X connect 17 0 13 0;
#X connect 18 0 62 0;
#X connect 19 0 23 0;
#X connect 20 0 16 0;
#X connect 20 1 21 0;
#X connect 21 1 17 0;
#X connect 23 0 13 1;
#X connect 23 0 14 1;
#X connect 24 0 25 1;
#X connect 27 0 15 0;
#X connect 28 0 25 2;
#X connect 29 0 23 0;
#X connect 30 0 60 0;
#X connect 31 0 32 0;
#X connect 32 0 119 0;
#X connect 33 0 40 0;
#X connect 34 0 31 0;
#X connect 35 0 23 0;
#X connect 36 0 28 0;
#X connect 37 0 38 0;
#X connect 38 0 39 0;
#X connect 39 0 34 0;
#X connect 40 0 124 0;
#X connect 41 0 47 0;
#X connect 42 0 43 0;
#X connect 43 0 44 0;
#X connect 44 0 48 0;
#X connect 44 0 45 0;
#X connect 45 0 46 0;
#X connect 46 0 41 0;
#X connect 47 0 40 0;
#X connect 48 0 49 0;
#X connect 51 0 30 0;
#X connect 52 0 58 0;
#X connect 53 0 54 0;
#X connect 54 0 55 1;
#X connect 55 0 51 0;
#X connect 56 0 53 0;
#X connect 57 0 59 0;
#X connect 58 0 56 0;
#X connect 59 0 52 0;
#X connect 61 0 11 0;
#X connect 62 0 25 0;
#X connect 63 0 51 0;
#X connect 64 0 56 0;
#X connect 64 1 56 1;
#X connect 65 0 66 0;
#X connect 66 0 64 0;
#X connect 67 0 68 0;
#X connect 68 0 30 0;
#X connect 69 0 71 0;
#X connect 70 0 98 0;
#X connect 70 1 74 0;
#X connect 70 2 91 0;
#X connect 71 0 70 0;
#X connect 71 0 79 0;
#X connect 72 0 71 1;
#X connect 74 0 75 0;
#X connect 75 0 76 0;
#X connect 75 0 122 0;
#X connect 76 0 108 0;
#X connect 76 0 129 0;
#X connect 77 0 114 0;
#X connect 78 0 128 0;
#X connect 79 0 80 0;
#X connect 79 1 81 0;
#X connect 79 2 82 0;
#X connect 80 0 83 0;
#X connect 81 0 84 0;
#X connect 82 0 84 1;
#X connect 83 0 90 0;
#X connect 84 0 83 1;
#X connect 85 0 86 0;
#X connect 86 0 88 0;
#X connect 86 1 87 0;
#X connect 87 0 89 0;
#X connect 88 0 87 0;
#X connect 89 0 78 0;
#X connect 89 0 103 0;
#X connect 89 0 96 0;
#X connect 90 0 85 0;
#X connect 91 0 92 0;
#X connect 92 0 93 0;
#X connect 92 0 95 0;
#X connect 93 0 97 0;
#X connect 95 0 92 1;
#X connect 96 0 95 0;
#X connect 97 0 94 0;
#X connect 98 0 99 0;
#X connect 99 0 100 0;
#X connect 99 0 102 0;
#X connect 100 0 104 0;
#X connect 102 0 99 1;
#X connect 103 0 102 0;
#X connect 104 0 101 0;
#X connect 105 0 110 0;
#X connect 106 0 110 0;
#X connect 107 0 110 0;
#X connect 108 0 105 0;
#X connect 108 0 113 0;
#X connect 108 1 109 0;
#X connect 109 0 106 0;
#X connect 109 1 107 0;
#X connect 109 1 112 0;
#X connect 110 0 111 0;
#X connect 114 0 126 0;
#X connect 114 1 115 0;
#X connect 115 0 116 0;
#X connect 116 0 118 0;
#X connect 118 0 117 0;
#X connect 118 0 120 0;
#X connect 120 0 121 0;
#X connect 121 0 30 1;
#X connect 122 0 128 0;
#X connect 123 0 33 0;
#X connect 124 0 55 0;
#X connect 124 0 63 0;
#X connect 124 0 67 0;
#X connect 125 0 123 0;
#X connect 126 0 125 0;
#X connect 127 0 125 1;
#X connect 128 0 75 1;
#X connect 129 0 77 0;
