#N canvas 162 128 791 610 10;
#X declare -path .. -path ../.. -path ../../../tools/gammabs;
#X obj 103 116 on \$1;
#X obj 81 220 r \$1-on-snd;
#X obj 81 243 tgl 15 0 empty empty empty 17 7 0 10 -262144 -1 -1 0
1;
#X obj 168 229 chan \$1 1;
#X obj 168 248 chan \$1 2;
#X obj 168 267 chan \$1 3;
#X obj 168 286 chan \$1 4;
#X obj 168 305 chan \$1 5;
#X obj 168 324 chan \$1 6;
#X obj 286 147 GAMMEKB /G\$1;
#X obj 556 192 r /G\$1;
#X floatatom 556 213 5 0 0 0 - - -;
#X obj 546 292 gammeNotes /G\$1;
#X obj 546 314 s /G\$1-notes;
#X obj 220 31 declare -path .. -path ../.. -path ../../../tools/gammabs
;
#X obj 81 263 switch~;
#X obj 310 266 bng 15 250 50 0 empty empty 5 17 7 0 10 -262144 -1 -1
;
#X obj 106 158 nbx 3 20 0 100 0 0 \$1-adjust-snd \$1-adjust-rcv adjust
0 -8 0 14 -262144 -1 -1 0 256;
#X obj 486 175 loadbang;
#X msg 486 196 677;
#X obj 486 217 s /G\$1;
#X obj 99 402 catch~ \$1-out;
#X obj 108 182 hsl 128 15 0 1 0 1 empty empty empty -2 -8 0 10 -258113
-1 -1 3500 1;
#X obj 114 330 pow 2;
#X obj 114 351 pack f 10;
#X obj 114 372 line~;
#X obj 99 423 *~;
#X obj 99 574 throw~ outL;
#X obj 132 454 delwrite~ \$0-d 1000;
#X obj 132 517 rev1~;
#X msg 337 267 5, f 2;
#X obj 321 122 nbx 3 20 -50 50 0 0 \$1-filterOffset-snd \$1-filterOffset-rcv
filter 0 -8 0 14 -262144 -1 -1 0 256;
#X obj 149 496 nbx 5 14 0 100 0 1 empty empty empty 0 -8 0 10 -262144
-1 -1 0 256;
#X obj 191 149 nbx 5 20 -1e+37 1e+37 0 0 empty empty center 0 -8 0
14 -262144 -1 -1 70 256;
#X obj 131 539 *~ 0.5;
#X obj 132 476 delread~ \$0-d 50;
#X obj 191 74 loadbang;
#X obj 252 233 s \$1-center-snd;
#X msg 191 95 70;
#X connect 1 0 2 0;
#X connect 2 0 15 0;
#X connect 10 0 11 0;
#X connect 12 0 13 0;
#X connect 16 0 30 0;
#X connect 18 0 19 0;
#X connect 19 0 20 0;
#X connect 21 0 26 0;
#X connect 22 0 23 0;
#X connect 23 0 24 0;
#X connect 24 0 25 0;
#X connect 25 0 26 1;
#X connect 26 0 27 0;
#X connect 26 0 28 0;
#X connect 29 0 34 0;
#X connect 30 0 33 0;
#X connect 32 0 29 1;
#X connect 33 0 37 0;
#X connect 34 0 27 0;
#X connect 35 0 29 0;
#X connect 36 0 38 0;
#X connect 38 0 33 0;
#X coords 0 -1 1 1 300 100 1 100 100;
