#N canvas 765 256 640 467 10;
#X obj 88 96 pofrect 1023 760;
#X obj 71 123 poftranslate -512 -380;
#X obj 88 75 pofcolor 1 1 1 0.3;
#X obj 165 275 route down move;
#X obj 165 297 unpack f f;
#X obj 165 318 + 512;
#X obj 165 339 pack f f, f 10;
#X obj 37 28 inlet;
#X obj 184 166 s \$1-q2qP\$2;
#X obj 73 169 s \$1-q2qP\$2-M;
#X obj 31 394 clone q2qP 4 \$1-q2qP\$2 \$0;
#X obj 222 317 + 380;
#X obj 165 360 s \$0-touch;
#X obj 189 394 clone q2qP 4 \$1-q2qP\$2-M \$0;
#X obj 54 255 poftouch 1023 760 1;
#X obj 73 144 t a a, f 19;
#X obj 264 35 inlet;
#X obj 264 56 route colorP colorM title;
#X obj 37 51 t a a a a;
#X obj 37 309 pofcolor 1 1 1 0.2;
#X obj 362 80 list prepend text;
#X obj 362 101 list trim;
#X obj 37 330 poftexts bold 150;
#X obj 385 289 s \$1-q2qP\$2-props;
#X obj 365 348 s \$1-q2qP\$2-M-props;
#X msg 365 325 -1 color 1 1 0 1;
#X obj 365 222 loadbang;
#X msg 385 266 -1 color 1 0 0 1 \, -1 size 100;
#X connect 1 0 15 0;
#X connect 2 0 0 0;
#X connect 3 0 4 0;
#X connect 3 1 4 0;
#X connect 4 0 5 0;
#X connect 4 1 11 0;
#X connect 5 0 6 0;
#X connect 6 0 12 0;
#X connect 7 0 18 0;
#X connect 11 0 6 1;
#X connect 14 1 3 0;
#X connect 15 0 9 0;
#X connect 15 1 8 0;
#X connect 16 0 17 0;
#X connect 17 2 20 0;
#X connect 18 0 19 0;
#X connect 18 1 14 0;
#X connect 18 2 1 0;
#X connect 18 3 2 0;
#X connect 19 0 22 0;
#X connect 20 0 21 0;
#X connect 21 0 22 0;
#X connect 25 0 24 0;
#X connect 26 0 27 0;
#X connect 26 0 25 0;
#X connect 27 0 23 0;
