#N canvas 538 461 545 380 10;
#X obj 25 9 r \$2;
#X obj 85 117 poftranslate;
#X obj 126 14 r \$2-coords;
#X obj 126 56 unpack f f;
#X obj 126 35 route \$1;
#X obj 112 189 poftouch 50 50;
#X obj 290 164 loadbang;
#X obj 256 231 route down up;
#X obj 85 145 t a a;
#X obj 16 169 loadbang;
#X obj 16 190 f \$1;
#X msg 16 235 text \$1;
#X obj 22 113 bng 15 250 50 0 empty empty empty 17 7 0 10 -262144 -1
-1;
#X obj 68 247 pofcolor 0 0 0 1;
#X obj 68 268 poftexts bold 60;
#X obj 16 212 + 1;
#X floatatom 242 47 5 0 0 0 - - -;
#X obj 183 76 clip 0 760;
#X obj 108 92 clip 0 1023;
#X msg 256 252 1;
#X msg 293 251 0;
#X obj 183 262 r \$3-touch;
#X obj 183 306 spigot, f 12;
#X obj 183 346 s \$2-coords;
#X obj 183 326 list prepend \$1;
#X obj 327 35 r \$2-props;
#X obj 327 56 route \$1 -1;
#X obj 112 166 pofcolor 1 1 1 1;
#X obj 291 141 f;
#X msg 290 186 shape ellipse \, draw 1;
#X obj 386 349 s \$2-clicked;
#X obj 386 307 b;
#X obj 386 328 f \$1;
#X obj 25 40 pofvisible 1;
#X obj 135 145 unpack f f f f;
#X obj 256 282 ||;
#X obj 284 283 t b f;
#X obj 327 77 route color size show forcetouch;
#X connect 0 0 33 0;
#X connect 1 0 8 0;
#X connect 2 0 4 0;
#X connect 3 0 18 0;
#X connect 3 1 16 0;
#X connect 3 1 17 0;
#X connect 4 0 3 0;
#X connect 5 1 7 0;
#X connect 6 0 29 0;
#X connect 7 0 19 0;
#X connect 7 0 31 0;
#X connect 7 1 20 0;
#X connect 8 0 13 0;
#X connect 8 1 27 0;
#X connect 9 0 10 0;
#X connect 10 0 15 0;
#X connect 11 0 14 0;
#X connect 12 0 10 0;
#X connect 13 0 14 0;
#X connect 15 0 11 0;
#X connect 17 0 1 2;
#X connect 18 0 1 1;
#X connect 19 0 35 0;
#X connect 20 0 35 0;
#X connect 21 0 22 0;
#X connect 22 0 24 0;
#X connect 24 0 23 0;
#X connect 25 0 26 0;
#X connect 26 0 37 0;
#X connect 26 1 37 0;
#X connect 27 0 5 0;
#X connect 28 0 5 1;
#X connect 28 0 5 2;
#X connect 29 0 5 0;
#X connect 31 0 32 0;
#X connect 32 0 30 0;
#X connect 33 0 1 0;
#X connect 34 0 27 1;
#X connect 34 1 27 2;
#X connect 34 2 27 3;
#X connect 34 3 27 4;
#X connect 35 0 22 1;
#X connect 36 0 35 0;
#X connect 36 1 35 1;
#X connect 37 0 34 0;
#X connect 37 1 28 0;
#X connect 37 2 33 0;
#X connect 37 3 36 0;
