#N canvas 578 205 700 305 12;
#X obj 64 137 quad2quad;
#X obj 64 38 bng 15 250 50 0 empty empty update 17 7 0 10 -262144 -1
-1;
#X msg 133 96 source 0 2 2;
#X msg 312 94 destination 0 2 2;
#X msg 313 69 destination 1 2 1 4 3 4 3 2;
#X obj 134 5 loadbang;
#X msg 134 71 source 0 0 0 1 1 1 1 0;
#X msg 30 59 0 1;
#X obj 64 176 unpack f f;
#X floatatom 64 200 5 0 0 0 - - -;
#X floatatom 131 202 5 0 0 0 - - -;
#X obj 134 38 t b b;
#X msg 65 71 1 1;
#X msg 5 80 0 0;
#X msg 96 72 1 0;
#X msg 6 115 0.5 0.5;
#X connect 0 0 8 0;
#X connect 1 0 0 0;
#X connect 2 0 0 0;
#X connect 3 0 0 0;
#X connect 4 0 0 0;
#X connect 5 0 11 0;
#X connect 6 0 0 0;
#X connect 7 0 0 0;
#X connect 8 0 9 0;
#X connect 8 1 10 0;
#X connect 11 0 1 0;
#X connect 11 1 6 0;
#X connect 11 1 4 0;
#X connect 12 0 0 0;
#X connect 13 0 0 0;
#X connect 14 0 0 0;
#X connect 15 0 0 0;
