#N canvas 518 237 737 617 10;
#X declare -lib pof;
#X obj 28 24 declare -lib pof;
#X obj 25 59 pofhead;
#X obj 25 101 t a a, f 54;
#X obj 52 191 pofrect 1023 760;
#X obj 25 150 t a a;
#X obj 25 475 s \$0-q2qP1;
#X obj 25 505 clone q2qP 4 \$0-q2qP1;
#X obj 25 423 poftranslate -512 -380;
#X obj 373 190 pofrect 1023 760;
#X obj 346 150 t a a;
#X obj 346 423 poftranslate -512 -380;
#X obj 25 449 pofcolor 1 0 0 1;
#X obj 449 444 pofcolor 0 1 0 1;
#X obj 52 170 pofcolor 1 1 1 0.3;
#X obj 373 170 pofcolor 1 1 1 0.3;
#X obj 145 451 pofcolor 1 1 0 1;
#X obj 52 211 poftouch 1023 760;
#X obj 151 231 route down move;
#X obj 151 253 unpack f f;
#X obj 151 274 + 512;
#X obj 208 273 + 380;
#X obj 151 295 pack f f, f 10;
#X obj 151 378 list prepend 0;
#X obj 151 315 list prepend 0;
#X obj 190 357 s \$0-q2qP1-coords;
#X obj 145 475 s \$0-q2qP1-M;
#X obj 151 399 s \$0-q2qP1-M-coords;
#X obj 162 502 q2qP 0 \$0-q2qP1-M;
#X obj 232 294 hradio 15 1 0 5 empty empty empty 0 -8 0 10 -262144
-1 -1 4;
#X obj 151 336 route 4;
#X obj 610 92 r \$0-q2qP1-M-coords;
#X obj 610 113 route 0;
#N canvas 691 135 748 380 quad2quad 0;
#X obj 34 34 inlet;
#X text 49 6 https://blog.mbedded.ninja/mathematics/geometry/projective-transformations/
, f 76;
#X obj 34 334 outlet;
#X obj 139 74 r \$0-q2qP1-coords;
#X obj 472 231 s \$0-q2qP1-coords;
#X obj 466 57 loadbang;
#X obj 34 173 quad2quad;
#X obj 475 266 r \$0-q2qP1-coords;
#X obj 475 308 print;
#X msg 472 206 0 20 56 \, 1 684 304 \, 2 572 536 \, 3 108 680;
#X obj 139 103 list prepend source;
#X obj 139 124 list trim;
#X obj 268 103 list prepend destination;
#X obj 268 124 list trim;
#X obj 82 103 b;
#X obj 82 124 del 50;
#X obj 475 287 spigot;
#X obj 521 288 tgl 15 0 empty empty empty 17 7 0 10 -262144 -1 -1 0
1;
#X obj 58 225 unpack f f;
#X floatatom 58 246 5 0 0 0 - - -;
#X floatatom 115 249 5 0 0 0 - - -;
#X obj 96 75 bng 15 250 50 0 empty empty empty 17 7 0 10 -262144 -1
-1;
#X msg 244 185 20 56 684 304 572 536 108 680;
#X obj 268 76 r \$0-q2qP2-coords;
#X obj 466 102 s \$0-q2qP2-coords;
#X msg 466 78 0 0 0 \, 1 1023 0 \, 2 1023 760 \, 3 0 760;
#X connect 0 0 6 0;
#X connect 3 0 14 0;
#X connect 3 0 10 0;
#X connect 5 0 25 0;
#X connect 5 0 9 0;
#X connect 6 0 2 0;
#X connect 6 0 18 0;
#X connect 7 0 16 0;
#X connect 9 0 4 0;
#X connect 10 0 11 0;
#X connect 11 0 6 0;
#X connect 12 0 13 0;
#X connect 13 0 6 0;
#X connect 14 0 15 0;
#X connect 15 0 6 0;
#X connect 16 0 8 0;
#X connect 17 0 16 1;
#X connect 18 0 19 0;
#X connect 18 1 20 0;
#X connect 21 0 14 0;
#X connect 22 0 10 0;
#X connect 23 0 12 0;
#X connect 23 0 14 0;
#X connect 25 0 24 0;
#X restore 610 133 pd quad2quad;
#X obj 610 154 list prepend 0;
#X obj 275 243 loadbang;
#X msg 275 264 4;
#X obj 471 71 pofwin;
#X obj 469 42 tgl 15 0 empty empty empty 17 7 0 10 -262144 -1 -1 0
1;
#X obj 489 3 loadbang;
#X obj 252 205 r \$0-q2qP1-touch;
#X floatatom 252 226 5 0 0 0 - - -;
#X obj 449 468 s \$0-q2qP2-M;
#X obj 445 495 q2qP 0 \$0-q2qP2-M;
#X obj 610 175 s \$0-q2qP2-M-coords;
#X obj 346 472 s \$0-q2qP2;
#X obj 346 448 pofcolor 0 0 1 1;
#X obj 344 517 clone q2qP 4 \$0-q2qP2;
#X obj 373 211 poftouch 1023 760;
#X obj 472 231 route down move;
#X obj 472 253 unpack f f;
#X obj 472 274 + 512;
#X obj 529 273 + 380;
#X obj 472 295 pack f f, f 10;
#X obj 472 378 list prepend 0;
#X obj 472 315 list prepend 0;
#X obj 553 294 hradio 15 1 0 5 empty empty empty 0 -8 0 10 -262144
-1 -1 4;
#X obj 472 336 route 4;
#X obj 596 243 loadbang;
#X msg 596 264 4;
#X floatatom 573 226 5 0 0 0 - - -;
#X obj 573 205 r \$0-q2qP2-touch;
#X obj 511 357 s \$0-q2qP2-coords;
#X obj 472 399 s \$0-q2qP2-M-coords;
#X obj 156 27 poffonts bold Quicksand-Bold.ttf;
#X obj 25 80 pofscale 0.35 0.35 1;
#X obj 25 127 poftranslate 0 -400;
#X obj 346 123 poftranslate 0 400;
#X obj 471 92 route window;
#X obj 471 113 unpack f f;
#X floatatom 470 136 5 0 0 0 - - -;
#X floatatom 528 144 5 0 0 0 - - -;
#X msg 489 41 open \, window 385 575;
#X obj 489 22 del 1000;
#X connect 1 0 64 0;
#X connect 2 0 65 0;
#X connect 2 1 66 0;
#X connect 3 0 16 0;
#X connect 4 0 7 0;
#X connect 4 1 13 0;
#X connect 7 0 11 0;
#X connect 7 0 15 0;
#X connect 8 0 47 0;
#X connect 9 0 10 0;
#X connect 9 1 14 0;
#X connect 10 0 12 0;
#X connect 10 0 45 0;
#X connect 11 0 5 0;
#X connect 12 0 41 0;
#X connect 13 0 3 0;
#X connect 14 0 8 0;
#X connect 15 0 25 0;
#X connect 16 1 17 0;
#X connect 17 0 18 0;
#X connect 17 1 18 0;
#X connect 18 0 19 0;
#X connect 18 1 20 0;
#X connect 19 0 21 0;
#X connect 20 0 21 1;
#X connect 21 0 23 0;
#X connect 22 0 26 0;
#X connect 23 0 29 0;
#X connect 28 0 23 1;
#X connect 29 0 22 0;
#X connect 29 1 24 0;
#X connect 30 0 31 0;
#X connect 31 0 32 0;
#X connect 32 0 33 0;
#X connect 33 0 43 0;
#X connect 34 0 35 0;
#X connect 35 0 28 0;
#X connect 36 0 67 0;
#X connect 37 0 36 0;
#X connect 38 0 72 0;
#X connect 39 0 40 0;
#X connect 40 0 28 0;
#X connect 45 0 44 0;
#X connect 47 1 48 0;
#X connect 48 0 49 0;
#X connect 48 1 49 0;
#X connect 49 0 50 0;
#X connect 49 1 51 0;
#X connect 50 0 52 0;
#X connect 51 0 52 1;
#X connect 52 0 54 0;
#X connect 53 0 62 0;
#X connect 54 0 56 0;
#X connect 55 0 54 1;
#X connect 56 0 53 0;
#X connect 56 1 61 0;
#X connect 57 0 58 0;
#X connect 58 0 55 0;
#X connect 59 0 55 0;
#X connect 60 0 59 0;
#X connect 64 0 2 0;
#X connect 65 0 4 0;
#X connect 66 0 9 0;
#X connect 67 0 68 0;
#X connect 68 0 69 0;
#X connect 68 1 70 0;
#X connect 71 0 36 0;
#X connect 72 0 71 0;
