#N canvas 461 81 904 662 10;
#X declare -path moonlib -path ggee -path iemlib;
#X obj 22 84 unpack f f f, f 28;
#X floatatom 152 115 5 0 0 0 - - -;
#X obj 385 167 max 0;
#X obj 385 189 / 60;
#X obj 385 210 min 1;
#X obj 387 230 pow 2;
#X obj 22 51 spigot;
#X obj 69 50 r \$1-on-snd;
#X floatatom 608 255 5 0 0 0 - - -;
#X obj 611 281 hsl 128 15 -18 16 0 0 empty empty empty -2 -8 0 10 -262144
-1 -1 0 1;
#X obj 441 261 hsl 128 15 0 1 0 0 empty empty empty -2 -8 0 10 -262144
-1 -1 2205 1;
#X obj 648 311 r /G\$1-notes;
#N canvas 831 210 490 523 adjust_note 0;
#X obj 26 18 inlet;
#X obj 26 76 t f f, f 7;
#X obj 67 97 fmod;
#X obj 116 50 list length;
#X obj 26 98 /;
#X obj 26 119 i;
#X obj 26 140 * 12;
#X obj 67 139 t f f;
#X obj 94 159 fmod 1;
#X obj 67 182 -, f 5;
#X obj 67 118 adjust 0, f 42;
#X obj 67 203 i;
#X obj 67 224 t f f, f 13;
#X obj 142 247 + 1;
#X obj 142 293 mod;
#X obj 142 314 t b f, f 10;
#X obj 142 335 list;
#X obj 142 356 list split;
#X obj 67 313 t b f, f 10;
#X obj 67 334 list;
#X obj 67 355 list split;
#X obj 95 400 *;
#X obj 170 424 *;
#X obj 198 212 t f f;
#X msg 198 234 1 \$1;
#X obj 198 255 -;
#X obj 95 445 +, f 13;
#X obj 26 469 +, f 12;
#X obj 26 490 outlet;
#X obj 95 376 unpack f;
#X obj 170 377 unpack f;
#X obj 195 14 inlet gamme-notes;
#X obj 316 17 inlet adjust;
#X obj 142 270 t f f;
#X obj 177 291 div;
#X obj 170 400 +;
#X obj 234 377 * 12;
#X connect 0 0 1 0;
#X connect 1 0 4 0;
#X connect 1 1 2 0;
#X connect 2 0 10 0;
#X connect 3 0 2 1;
#X connect 3 0 4 1;
#X connect 3 0 14 1;
#X connect 3 0 34 1;
#X connect 4 0 5 0;
#X connect 5 0 6 0;
#X connect 6 0 27 0;
#X connect 7 0 9 0;
#X connect 7 1 8 0;
#X connect 8 0 9 1;
#X connect 8 0 23 0;
#X connect 9 0 11 0;
#X connect 10 0 7 0;
#X connect 11 0 12 0;
#X connect 12 0 18 0;
#X connect 12 1 13 0;
#X connect 13 0 33 0;
#X connect 14 0 15 0;
#X connect 15 0 16 0;
#X connect 15 1 17 1;
#X connect 16 0 17 0;
#X connect 17 1 30 0;
#X connect 18 0 19 0;
#X connect 18 1 20 1;
#X connect 19 0 20 0;
#X connect 20 1 29 0;
#X connect 21 0 26 0;
#X connect 22 0 26 1;
#X connect 23 0 24 0;
#X connect 23 1 22 1;
#X connect 24 0 25 0;
#X connect 25 0 21 1;
#X connect 26 0 27 1;
#X connect 27 0 28 0;
#X connect 29 0 21 0;
#X connect 30 0 35 0;
#X connect 31 0 3 0;
#X connect 31 0 16 1;
#X connect 31 0 19 1;
#X connect 32 0 10 1;
#X connect 33 0 14 0;
#X connect 33 1 34 0;
#X connect 34 0 36 0;
#X connect 35 0 22 0;
#X connect 36 0 35 1;
#X restore 608 339 pd adjust_note;
#X msg 649 250 0;
#X floatatom 704 245 5 0 0 0 - - -;
#X obj 387 294 pack f 20;
#X obj 387 315 line~;
#X obj 22 302 pack f 20;
#X obj 22 323 line~;
#X obj 387 267 * 0.2;
#X obj 466 113 r sensor\$2;
#X obj 466 134 sel 0;
#X msg 466 155 0;
#X obj 23 382 mtof~;
#X obj 147 313 osc~ 5;
#X obj 147 204 + 90;
#X obj 147 224 abs;
#X obj 147 245 / 30;
#X obj 147 269 * 4;
#X obj 147 290 + 2;
#X obj 146 338 *~;
#X obj 202 296 pack f 20;
#X obj 202 317 line~;
#X obj 22 176 / -180;
#X obj 608 310 * 4;
#X obj 702 225 r \$1-adjust-snd;
#X obj 212 253 t b f;
#X obj 508 10 r \$1-props;
#X obj 508 28 route \$2 -1;
#X obj 508 49 t a;
#X obj 22 8 r EULER;
#X obj 22 29 route \$2;
#X obj 587 27 inlet;
#X obj 508 70 s \$0-props;
#X obj 81 9 r \$0-props;
#X obj 81 30 route sensor;
#X obj 95 154 r \$0-props;
#X obj 22 197 * 3.14159;
#X obj 22 147 -;
#X obj 37 118 f;
#X obj 89 121 bng 15 250 50 0 empty empty empty 17 7 0 10 -262144 -1
-1;
#X obj 22 217 sin;
#X obj 20 618 outlet~;
#X obj 22 413 ssaw~;
#X obj 21 476 *~;
#X obj 202 614 outlet;
#X obj 202 570 * -1;
#X floatatom 72 482 5 0 0 0 - - -;
#X obj 202 591 - 90;
#X obj 22 273 + \$3;
#X obj 202 274 * 0;
#X obj 21 504 hip~ 30;
#X obj 21 525 lop~ 6000;
#X obj 78 413 ssaw~;
#X obj 285 282 noise~;
#X obj 285 303 lop~ 1;
#X obj 95 175 route gainRot center lfoAmp resetAngle gainLFO;
#X obj 285 324 *~ 60;
#X obj 22 244 * 0.5;
#X obj 20 595 *~;
#X obj 21 551 hip~ 5;
#X obj 21 572 lop~ 2000;
#X obj 45 592 r~ \$1-vol;
#X obj 480 366 table \$0-wavform;
#X obj 481 534 soundfiler;
#X obj 481 428 loadbang;
#X floatatom 481 561 8 0 0 0 - - -;
#X obj 481 460 getdir;
#X obj 481 492 list append \$4 \$0-wavform;
#X msg 481 513 read -resize \$1/wavs/\$2.wav \$3 \; \$3 normalize;
#X obj 527 460 bng 15 250 50 0 empty empty empty 17 7 0 10 -262144
-1 -1;
#X obj 6 437 tabosc4~ \$0-wavform;
#X obj 136 439 tabosc4~ \$0-wavform;
#X floatatom 315 140 5 0 0 0 - - -;
#X obj 385 146 + 0;
#X text 397 122 30;
#X floatatom 466 225 5 0 0 0 - - -;
#X obj 212 15 declare -path moonlib -path ggee -path iemlib;
#X obj 296 465 noise~;
#X floatatom 338 516 5 0 0 0 - - -;
#X floatatom 350 440 5 0 0 0 - - -;
#X obj 297 507 *~ 2;
#X obj 296 486 lp2_butt~ 800;
#X obj 453 290 noise~;
#X floatatom 494 339 5 0 0 0 - - -;
#X obj 387 336 *~;
#X obj 453 351 +~ 1;
#X obj 453 311 lp2_butt~ 20;
#X obj 453 330 *~ 8;
#X connect 0 0 48 0;
#X connect 0 0 49 1;
#X connect 0 1 25 0;
#X connect 0 1 56 0;
#X connect 0 2 84 0;
#X connect 2 0 3 0;
#X connect 3 0 4 0;
#X connect 4 0 5 0;
#X connect 5 0 10 0;
#X connect 5 0 19 0;
#X connect 6 0 0 0;
#X connect 7 0 6 1;
#X connect 8 0 9 0;
#X connect 9 0 34 0;
#X connect 11 0 12 1;
#X connect 13 0 8 0;
#X connect 14 0 12 2;
#X connect 15 0 16 0;
#X connect 16 0 95 0;
#X connect 17 0 18 0;
#X connect 18 0 23 0;
#X connect 19 0 15 0;
#X connect 20 0 21 0;
#X connect 21 0 22 0;
#X connect 22 0 19 0;
#X connect 23 0 53 0;
#X connect 23 0 63 0;
#X connect 23 0 81 0;
#X connect 23 0 82 0;
#X connect 24 0 30 0;
#X connect 25 0 26 0;
#X connect 26 0 27 0;
#X connect 27 0 28 0;
#X connect 27 0 60 0;
#X connect 28 0 29 0;
#X connect 29 0 24 0;
#X connect 30 0 23 0;
#X connect 31 0 32 0;
#X connect 32 0 30 1;
#X connect 33 0 47 0;
#X connect 34 0 12 0;
#X connect 35 0 14 0;
#X connect 36 0 60 0;
#X connect 36 1 60 1;
#X connect 37 0 38 0;
#X connect 38 0 39 0;
#X connect 38 1 39 0;
#X connect 39 0 43 0;
#X connect 40 0 41 0;
#X connect 41 0 6 0;
#X connect 42 0 39 0;
#X connect 44 0 45 0;
#X connect 45 0 41 1;
#X connect 46 0 66 0;
#X connect 47 0 51 0;
#X connect 48 0 33 0;
#X connect 50 0 49 0;
#X connect 51 0 68 0;
#X connect 54 0 61 0;
#X connect 56 0 58 0;
#X connect 58 0 55 0;
#X connect 59 0 17 0;
#X connect 60 0 31 0;
#X connect 61 0 62 0;
#X connect 62 0 70 0;
#X connect 64 0 65 0;
#X connect 65 0 67 0;
#X connect 66 0 68 1;
#X connect 66 1 59 1;
#X connect 66 2 36 0;
#X connect 66 3 50 0;
#X connect 66 3 48 1;
#X connect 66 4 67 1;
#X connect 67 0 63 0;
#X connect 67 0 82 0;
#X connect 68 0 59 0;
#X connect 69 0 52 0;
#X connect 70 0 71 0;
#X connect 71 0 69 0;
#X connect 72 0 69 1;
#X connect 74 0 76 0;
#X connect 75 0 77 0;
#X connect 77 0 78 0;
#X connect 78 0 79 0;
#X connect 79 0 74 0;
#X connect 80 0 77 0;
#X connect 81 0 54 0;
#X connect 82 0 54 0;
#X connect 84 0 2 0;
#X connect 84 0 83 0;
#X connect 86 0 84 0;
#X connect 88 0 92 0;
#X connect 89 0 91 1;
#X connect 90 0 92 1;
#X connect 92 0 91 0;
#X connect 93 0 97 0;
#X connect 94 0 98 1;
#X connect 95 0 54 1;
#X connect 96 0 95 1;
#X connect 97 0 98 0;
#X connect 98 0 96 0;
