#N canvas 301 81 916 662 10;
#X declare -path moonlib;
#X obj 22 84 unpack f f f, f 28;
#X floatatom 152 115 5 0 0 0 - - -;
#X obj 335 150 + 30;
#X obj 335 171 max 0;
#X obj 335 193 / 60;
#X obj 335 214 min 1;
#X obj 337 234 pow 2;
#X obj 22 51 spigot;
#X obj 69 50 r \$1-on-snd;
#X floatatom 608 255 5 0 0 0 - - -;
#X obj 611 281 hsl 128 15 -18 16 0 0 empty empty empty -2 -8 0 10 -262144
-1 -1 0 1;
#X obj 391 265 hsl 128 15 0 1 0 0 empty empty empty -2 -8 0 10 -262144
-1 -1 1533 1;
#X obj 648 311 r /G\$1-notes;
#N canvas 831 210 490 523 adjust_note 0;
#X obj 26 18 inlet;
#X obj 26 76 t f f, f 7;
#X obj 67 97 fmod;
#X obj 116 50 list length;
#X obj 26 98 /;
#X obj 26 119 i;
#X obj 26 140 * 12;
#X obj 67 139 t f f;
#X obj 94 159 fmod 1;
#X obj 67 182 -, f 5;
#X obj 67 118 adjust 0, f 42;
#X obj 67 203 i;
#X obj 67 224 t f f, f 13;
#X obj 142 247 + 1;
#X obj 142 293 mod;
#X obj 142 314 t b f, f 10;
#X obj 142 335 list;
#X obj 142 356 list split;
#X obj 67 313 t b f, f 10;
#X obj 67 334 list;
#X obj 67 355 list split;
#X obj 95 400 *;
#X obj 170 424 *;
#X obj 198 212 t f f;
#X msg 198 234 1 \$1;
#X obj 198 255 -;
#X obj 95 445 +, f 13;
#X obj 26 469 +, f 12;
#X obj 26 490 outlet;
#X obj 95 376 unpack f;
#X obj 170 377 unpack f;
#X obj 195 14 inlet gamme-notes;
#X obj 316 17 inlet adjust;
#X obj 142 270 t f f;
#X obj 177 291 div;
#X obj 170 400 +;
#X obj 234 377 * 12;
#X connect 0 0 1 0;
#X connect 1 0 4 0;
#X connect 1 1 2 0;
#X connect 2 0 10 0;
#X connect 3 0 2 1;
#X connect 3 0 4 1;
#X connect 3 0 14 1;
#X connect 3 0 34 1;
#X connect 4 0 5 0;
#X connect 5 0 6 0;
#X connect 6 0 27 0;
#X connect 7 0 9 0;
#X connect 7 1 8 0;
#X connect 8 0 9 1;
#X connect 8 0 23 0;
#X connect 9 0 11 0;
#X connect 10 0 7 0;
#X connect 11 0 12 0;
#X connect 12 0 18 0;
#X connect 12 1 13 0;
#X connect 13 0 33 0;
#X connect 14 0 15 0;
#X connect 15 0 16 0;
#X connect 15 1 17 1;
#X connect 16 0 17 0;
#X connect 17 1 30 0;
#X connect 18 0 19 0;
#X connect 18 1 20 1;
#X connect 19 0 20 0;
#X connect 20 1 29 0;
#X connect 21 0 26 0;
#X connect 22 0 26 1;
#X connect 23 0 24 0;
#X connect 23 1 22 1;
#X connect 24 0 25 0;
#X connect 25 0 21 1;
#X connect 26 0 27 1;
#X connect 27 0 28 0;
#X connect 29 0 21 0;
#X connect 30 0 35 0;
#X connect 31 0 3 0;
#X connect 31 0 16 1;
#X connect 31 0 19 1;
#X connect 32 0 10 1;
#X connect 33 0 14 0;
#X connect 33 1 34 0;
#X connect 34 0 36 0;
#X connect 35 0 22 0;
#X connect 36 0 35 1;
#X restore 608 339 pd adjust_note;
#X msg 649 250 0;
#X floatatom 704 245 5 0 0 0 - - -;
#X obj 337 298 pack f 20;
#X obj 337 319 line~;
#X obj 22 302 pack f 20;
#X obj 22 323 line~;
#X obj 337 271 * 0.2;
#X obj 416 117 r sensor\$2;
#X obj 416 138 sel 0;
#X msg 416 159 0;
#X obj 23 382 mtof~;
#X obj 147 313 osc~ 5;
#X obj 147 204 + 90;
#X obj 147 224 abs;
#X obj 147 245 / 30;
#X obj 147 269 * 4;
#X obj 147 290 + 2;
#X obj 146 338 *~;
#X obj 202 296 pack f 20;
#X obj 202 317 line~;
#X obj 326 12 declare -path moonlib;
#X obj 22 176 / -180;
#X obj 608 310 * 4;
#X obj 702 225 r \$1-adjust-snd;
#X obj 212 253 t b f;
#X obj 508 10 r \$1-props;
#X obj 508 28 route \$2 -1;
#X obj 508 49 t a;
#X obj 22 8 r EULER;
#X obj 22 29 route \$2;
#X obj 587 27 inlet;
#X obj 508 70 s \$0-props;
#X obj 81 9 r \$0-props;
#X obj 81 30 route sensor;
#X obj 95 154 r \$0-props;
#X obj 22 197 * 3.14159;
#X obj 22 147 -;
#X obj 37 118 f;
#X obj 89 121 bng 15 250 50 0 empty empty empty 17 7 0 10 -262144 -1
-1;
#X obj 22 217 sin;
#X obj 95 175 route gainRot center lfoAmp resetAngle;
#X obj 22 619 outlet~;
#X obj 22 413 ssaw~;
#X obj 21 439 *~;
#X obj 169 618 outlet;
#X obj 134 446 * -1;
#X floatatom 72 507 5 0 0 0 - - -;
#X obj 134 467 - 90;
#X obj 22 259 + \$3;
#X obj 22 238 * 2;
#X obj 202 274 * 0;
#X obj 21 529 hip~ 30;
#X obj 21 574 lop~ 6000;
#X connect 0 0 50 0;
#X connect 0 0 51 1;
#X connect 0 1 26 0;
#X connect 0 1 59 0;
#X connect 0 2 2 0;
#X connect 2 0 3 0;
#X connect 3 0 4 0;
#X connect 4 0 5 0;
#X connect 5 0 6 0;
#X connect 6 0 11 0;
#X connect 6 0 20 0;
#X connect 7 0 0 0;
#X connect 8 0 7 1;
#X connect 9 0 10 0;
#X connect 10 0 36 0;
#X connect 12 0 13 1;
#X connect 14 0 9 0;
#X connect 15 0 13 2;
#X connect 16 0 17 0;
#X connect 17 0 57 1;
#X connect 18 0 19 0;
#X connect 19 0 24 0;
#X connect 20 0 16 0;
#X connect 21 0 22 0;
#X connect 22 0 23 0;
#X connect 23 0 20 0;
#X connect 24 0 56 0;
#X connect 25 0 31 0;
#X connect 26 0 27 0;
#X connect 27 0 28 0;
#X connect 28 0 29 0;
#X connect 28 0 64 0;
#X connect 29 0 30 0;
#X connect 30 0 25 0;
#X connect 31 0 24 0;
#X connect 32 0 33 0;
#X connect 33 0 31 1;
#X connect 35 0 49 0;
#X connect 36 0 13 0;
#X connect 37 0 15 0;
#X connect 38 0 64 0;
#X connect 38 1 64 1;
#X connect 39 0 40 0;
#X connect 40 0 41 0;
#X connect 40 1 41 0;
#X connect 41 0 45 0;
#X connect 42 0 43 0;
#X connect 43 0 7 0;
#X connect 44 0 41 0;
#X connect 46 0 47 0;
#X connect 47 0 43 1;
#X connect 48 0 54 0;
#X connect 49 0 53 0;
#X connect 50 0 35 0;
#X connect 52 0 51 0;
#X connect 53 0 63 0;
#X connect 54 0 63 1;
#X connect 54 1 62 1;
#X connect 54 2 38 0;
#X connect 54 3 52 0;
#X connect 54 3 50 1;
#X connect 56 0 57 0;
#X connect 57 0 65 0;
#X connect 59 0 61 0;
#X connect 61 0 58 0;
#X connect 62 0 18 0;
#X connect 63 0 62 0;
#X connect 64 0 32 0;
#X connect 65 0 66 0;
#X connect 66 0 55 0;
