#N canvas 277 94 1199 909 10;
#X declare -path .. -path ../.. -path ../../../tools/gammabs;
#X obj 103 116 on \$1;
#X obj 440 101 r \$1-on-snd;
#X obj 440 124 tgl 15 0 empty empty empty 17 7 0 10 #fcfcfc #000000
#000000 0 1;
#X obj 514 145 GAMMEKB /G\$1;
#X obj 681 126 r /G\$1;
#X floatatom 681 147 5 0 0 0 - - - 0;
#X obj 604 284 gammeNotes /G\$1;
#X obj 604 306 s /G\$1-notes;
#X obj 220 31 declare -path .. -path ../.. -path ../../../tools/gammabs
;
#X obj 440 144 switch~;
#X obj 682 190 bng 15 250 50 0 empty empty 5 17 7 0 10 #fcfcfc #000000
#000000;
#X obj 531 110 nbx 3 20 0 100 0 0 \$1-adjust-snd \$1-adjust-rcv adjust
0 -8 0 14 #fcfcfc #000000 #000000 0 256;
#X obj 611 109 loadbang;
#X msg 611 130 677;
#X obj 611 151 s /G\$1;
#X obj 625 251 s \$1-resetCenter-snd;
#X obj 148 119 hsl 128 15 0 1 0 1 empty empty volume:0 10 8 0 12 #fc0400
#000000 #faff00 0 1;
#X obj 91 218 pow 2;
#X obj 91 239 pack f 10;
#X obj 91 260 line~;
#X obj 182 594 throw~ outL;
#X obj 366 508 delwrite~ \$0-d 1000;
#X msg 683 208 5, f 2;
#X obj 762 82 nbx 3 20 -50 50 0 0 \$1-filterOffset-snd \$1-filterOffset-rcv
filter 0 -8 0 14 #fcfcfc #000000 #000000 0 256;
#X obj 792 414 nbx 5 14 0 100 0 1 empty empty empty 0 -8 0 10 #fcfcfc
#000000 #000000 17 256;
#X obj 683 230 nbx 5 14 -1e+37 1e+37 0 0 empty empty empty 0 -8 0 10
#fcfcfc #000000 #000000 0 256;
#X obj 709 191 bng 15 250 50 0 empty empty 5 17 7 0 10 #fcfcfc #000000
#000000;
#X msg 710 209 5, f 2;
#X obj 749 230 nbx 5 14 0 1000 0 0 \$1-gainRot-snd \$1-gainRot-rcv
gainRot 0 -8 0 10 #fcfcfc #000000 #000000 0 256;
#X obj 748 184 bng 15 250 50 0 empty empty 0 17 7 0 10 #fcfcfc #000000
#000000;
#X obj 775 185 bng 15 250 50 0 empty empty 5 17 7 0 10 #fcfcfc #000000
#000000;
#X msg 776 203 4, f 2;
#X obj 598 209 t f f;
#X msg 625 229 -1 \$1;
#X msg 749 202 2, f 2;
#X obj 309 337 s \$1-props;
#X obj 331 235 bng 15 250 50 0 empty empty la 17 7 0 10 #fcfcfc #000000
#000000;
#X obj 150 204 hsl 80 10 0 1 0 1 empty empty lfo -2 -8 0 10 #f8fc00
#000000 #000000 500 1;
#X msg 254 298 -1 lfoAmp \$1;
#X obj 489 192 bng 15 250 50 0 empty empty sub 17 7 0 10 #fcfcfc #000000
#000000;
#X msg 350 304 -1 center 14 \, -1 gainRot 2 \, 4 center 21;
#X obj 353 215 bng 15 250 50 0 empty empty norm 17 7 0 10 #fcfcfc #000000
#000000;
#X msg 397 213 -1 center 8 \, -1 gainRot 4;
#X obj 269 246 tgl 15 0 empty empty continu 17 7 0 10 #fcfcfc #000000
#000000 0 1;
#X msg 268 265 -1 continue \$1;
#X msg 393 262 -1 center \$1 \, -1 gainRot 16;
#X msg 392 241 0.5;
#X msg 423 241 -0.4;
#X msg 774 494 1;
#X obj 786 442 bng 15 250 50 0 empty empty empty 17 7 0 10 #fcfcfc
#000000 #000000;
#X msg 465 240 -0.8;
#X obj 729 113 rem chan \$1 1;
#X obj 732 154 rem chan \$1 6;
#X obj 732 135 rem chan \$1 5;
#N canvas 21 130 473 431 filter 0;
#X obj 50 40 inlet~;
#X obj 49 269 outlet~;
#X obj 245 3 inlet;
#X obj 327 115 interpol 4500 5400;
#X obj 191 115 interpol 2200 1600;
#X obj 77 114 interpol 520 630;
#X text 282 293 1 2 3 4 5 6 7 8;
#X text 254 317 0.5 1 1.5;
#X obj 49 169 bp~ 400 10;
#X obj 119 169 bp~ 1800 10;
#X obj 198 168 bp~ 4900 10;
#X obj 197 192 *~ 1;
#X obj 119 195 *~ 1;
#X obj 244 73 / -45;
#X obj 245 45 line;
#X msg 245 24 \$1 350;
#X connect 0 0 8 0;
#X connect 0 0 9 0;
#X connect 0 0 10 0;
#X connect 2 0 15 0;
#X connect 3 0 10 1;
#X connect 4 0 9 1;
#X connect 5 0 8 1;
#X connect 8 0 1 0;
#X connect 9 0 12 0;
#X connect 10 0 11 0;
#X connect 11 0 1 0;
#X connect 12 0 1 0;
#X connect 13 0 3 0;
#X connect 13 0 4 0;
#X connect 13 0 5 0;
#X connect 14 0 13 0;
#X connect 15 0 14 0;
#X restore 183 475 pd filter;
#N canvas 688 125 532 431 filter 0;
#X obj 50 70 inlet~;
#X obj 49 269 outlet~;
#X obj 244 6 inlet;
#X obj 244 73 / -90;
#X obj 356 106 interpol 5300 6400;
#X obj 111 106 interpol 320 380;
#X obj 221 104 interpol 2600 3800;
#X obj 84 219 *~ 1;
#X obj 198 207 *~ 1;
#X obj 49 169 bp~ 400 10;
#X obj 119 169 bp~ 1800 10;
#X obj 198 168 bp~ 4900 10;
#X floatatom 314 185 5 0 0 0 - - - 0;
#X obj 244 51 line;
#X msg 244 30 \$1 350;
#X connect 0 0 9 0;
#X connect 0 0 10 0;
#X connect 0 0 11 0;
#X connect 2 0 14 0;
#X connect 3 0 4 0;
#X connect 3 0 5 0;
#X connect 3 0 6 0;
#X connect 4 0 11 1;
#X connect 5 0 9 1;
#X connect 6 0 10 1;
#X connect 7 0 1 0;
#X connect 8 0 1 0;
#X connect 9 0 1 0;
#X connect 10 0 7 0;
#X connect 11 0 8 0;
#X connect 13 0 3 0;
#X connect 14 0 13 0;
#X restore 351 472 pd filter;
#N canvas 190 168 532 431 filter 0;
#X obj 50 70 inlet~;
#X obj 49 269 outlet~;
#X obj 244 6 inlet;
#X obj 244 73 / -90;
#X obj 111 106 interpol 220 340;
#X obj 356 106 interpol 7200 6400;
#X obj 221 104 interpol 1200 730;
#X obj 118 204 *~ 1;
#X obj 198 208 *~ 1;
#X obj 49 169 bp~ 400 10;
#X obj 119 169 bp~ 1800 10;
#X obj 198 167 bp~ 4900 10;
#X obj 244 49 line;
#X msg 244 28 \$1 350;
#X connect 0 0 9 0;
#X connect 0 0 10 0;
#X connect 0 0 11 0;
#X connect 2 0 13 0;
#X connect 3 0 4 0;
#X connect 3 0 5 0;
#X connect 3 0 6 0;
#X connect 4 0 9 1;
#X connect 5 0 11 1;
#X connect 6 0 10 1;
#X connect 7 0 1 0;
#X connect 8 0 1 0;
#X connect 9 0 1 0;
#X connect 10 0 7 0;
#X connect 11 0 8 0;
#X connect 12 0 3 0;
#X connect 13 0 12 0;
#X restore 511 470 pd filter;
#X obj 217 181 bng 15 250 50 0 empty empty resetAngle 17 7 0 10 #fcfcfc
#000000 #000000;
#X obj 319 102 r EULER;
#X obj 319 123 route 2 3 4;
#X obj 304 170 f;
#X obj 319 148 unpack f;
#X msg 235 218 -1 resetAngle \$1;
#X floatatom 336 172 5 0 0 0 - - - 0;
#X msg 196 335 -1 gainLFO \$1;
#X floatatom 192 307 5 0 0 0 - - - 0;
#X obj 91 280 s~ \$1-vol;
#X obj 351 593 throw~ outC;
#X obj 511 597 throw~ outR;
#X obj 183 449 chan \$1 2 56 fra;
#X obj 352 445 chan \$1 3 45 mitch;
#X obj 511 444 chan \$1 4 58 souki;
#X obj 656 426 delread~ \$0-d 300;
#X obj 656 467 rev3~ 100 93 2000 20;
#X obj 655 489 *~ 0.5;
#X obj 92 196 * 1;
#X obj 182 381 r Assign2;
#X obj 182 403 + 1;
#X obj 351 392 + 1;
#X obj 351 370 r Assign3;
#X obj 509 395 + 1;
#X obj 509 373 r Assign4;
#X msg 182 426 sensor \$1;
#X msg 351 421 sensor \$1;
#X msg 510 418 sensor \$1;
#X obj 113 16 * 100;
#X obj 113 38 i;
#X obj 113 60 change;
#X msg 113 81 label volume:\$1;
#X connect 1 0 2 0;
#X connect 2 0 9 0;
#X connect 4 0 5 0;
#X connect 6 0 7 0;
#X connect 10 0 22 0;
#X connect 12 0 13 0;
#X connect 13 0 14 0;
#X connect 16 0 75 0;
#X connect 16 0 85 0;
#X connect 17 0 18 0;
#X connect 18 0 19 0;
#X connect 19 0 66 0;
#X connect 22 0 25 0;
#X connect 25 0 32 0;
#X connect 26 0 27 0;
#X connect 27 0 25 0;
#X connect 29 0 34 0;
#X connect 30 0 31 0;
#X connect 31 0 28 0;
#X connect 32 1 33 0;
#X connect 33 0 15 0;
#X connect 34 0 28 0;
#X connect 36 0 40 0;
#X connect 37 0 38 0;
#X connect 38 0 35 0;
#X connect 39 0 50 0;
#X connect 40 0 35 0;
#X connect 41 0 42 0;
#X connect 42 0 35 0;
#X connect 43 0 44 0;
#X connect 44 0 35 0;
#X connect 45 0 35 0;
#X connect 46 0 45 0;
#X connect 47 0 45 0;
#X connect 49 0 24 0;
#X connect 50 0 45 0;
#X connect 54 0 20 0;
#X connect 54 0 21 0;
#X connect 55 0 67 0;
#X connect 55 0 21 0;
#X connect 56 0 68 0;
#X connect 56 0 21 0;
#X connect 57 0 60 0;
#X connect 58 0 59 0;
#X connect 59 0 61 0;
#X connect 60 0 62 0;
#X connect 61 0 60 1;
#X connect 62 0 35 0;
#X connect 64 0 35 0;
#X connect 65 0 64 0;
#X connect 69 0 54 0;
#X connect 69 1 54 1;
#X connect 70 0 55 0;
#X connect 70 1 55 1;
#X connect 71 0 56 0;
#X connect 71 1 56 1;
#X connect 72 0 73 0;
#X connect 73 0 74 0;
#X connect 74 0 20 0;
#X connect 74 0 67 0;
#X connect 74 0 68 0;
#X connect 75 0 17 0;
#X connect 76 0 77 0;
#X connect 77 0 82 0;
#X connect 78 0 83 0;
#X connect 79 0 78 0;
#X connect 80 0 84 0;
#X connect 81 0 80 0;
#X connect 82 0 69 0;
#X connect 83 0 70 0;
#X connect 84 0 71 0;
#X connect 85 0 86 0;
#X connect 86 0 87 0;
#X connect 87 0 88 0;
#X connect 88 0 16 0;
#X coords 0 -1 1 1 200 70 1 100 100;
