#N canvas 358 124 853 610 10;
#X declare -path .. -path ../.. -path ../../../tools/gammabs;
#X obj 103 116 on \$1;
#X obj 440 101 r \$1-on-snd;
#X obj 440 124 tgl 15 0 empty empty empty 17 7 0 10 -262144 -1 -1 1
1;
#X obj 514 145 GAMMEKB /G\$1;
#X obj 681 126 r /G\$1;
#X floatatom 681 147 5 0 0 0 - - -;
#X obj 604 284 gammeNotes /G\$1;
#X obj 604 306 s /G\$1-notes;
#X obj 220 31 declare -path .. -path ../.. -path ../../../tools/gammabs
;
#X obj 440 144 switch~;
#X obj 682 190 bng 15 250 50 0 empty empty 5 17 7 0 10 -262144 -1 -1
;
#X obj 531 110 nbx 3 20 0 100 0 0 \$1-adjust-snd \$1-adjust-rcv adjust
0 -8 0 14 -262144 -1 -1 0 256;
#X obj 611 109 loadbang;
#X msg 611 130 677;
#X obj 611 151 s /G\$1;
#X obj 625 251 s \$1-resetCenter-snd;
#X obj 76 292 catch~ \$1-out;
#X obj 148 119 hsl 128 15 0 1 0 1 empty empty empty -2 -8 0 10 -258113
-1 -1 3100 1;
#X obj 91 218 pow 2;
#X obj 91 239 pack f 10;
#X obj 91 260 line~;
#X obj 76 389 *~;
#X obj 76 540 throw~ outL;
#X obj 109 420 delwrite~ \$0-d 1000;
#X obj 109 442 delread~ \$0-d 200;
#X obj 109 483 rev1~;
#X obj 108 505 *~ 0.2;
#X msg 683 208 5, f 2;
#X obj 762 82 nbx 3 20 -50 50 0 0 \$1-filterOffset-snd \$1-filterOffset-rcv
filter 0 -8 0 14 -262144 -1 -1 0 256;
#X obj 126 462 nbx 5 14 0 100 0 1 empty empty empty 0 -8 0 10 -262144
-1 -1 17 256;
#X obj 683 230 nbx 5 14 -1e+37 1e+37 0 0 empty empty empty 0 -8 0 10
-262144 -1 -1 0 256;
#X obj 76 316 hip~ 5;
#X obj 76 352 lop~ 2000;
#X obj 709 191 bng 15 250 50 0 empty empty 5 17 7 0 10 -262144 -1 -1
;
#X msg 710 209 5, f 2;
#X obj 749 230 nbx 5 14 0 1000 0 0 \$1-gainRot-snd \$1-gainRot-rcv
gainRot 0 -8 0 10 -262144 -1 -1 0 256;
#X obj 748 184 bng 15 250 50 0 empty empty 0 17 7 0 10 -262144 -1 -1
;
#X obj 775 185 bng 15 250 50 0 empty empty 5 17 7 0 10 -262144 -1 -1
;
#X msg 776 203 4, f 2;
#X obj 598 209 t f f;
#X msg 625 229 -1 \$1;
#X msg 749 202 2, f 2;
#X obj 309 337 s \$1-props;
#X obj 331 235 bng 15 250 50 0 empty empty la 17 7 0 10 -262144 -1
-1;
#X obj 109 153 hsl 80 10 0 1 0 1 empty empty lfo -2 -8 0 10 -257985
-1 -1 0 1;
#X msg 254 298 -1 lfoAmp \$1;
#X obj 489 192 bng 15 250 50 0 empty empty sub 17 7 0 10 -262144 -1
-1;
#X msg 350 304 -1 center 14 \, -1 gainRot 2 \, 4 center 21;
#X obj 353 215 bng 15 250 50 0 empty empty norm 17 7 0 10 -262144 -1
-1;
#X msg 397 213 -1 center 8 \, -1 gainRot 4;
#X obj 269 246 tgl 15 0 empty empty continu 17 7 0 10 -262144 -1 -1
0 1;
#X msg 268 265 -1 continue \$1;
#X msg 393 262 -1 center \$1 \, -1 gainRot 16;
#X msg 392 241 0.5;
#X msg 423 241 -0.4;
#X msg 169 485 1;
#X obj 193 467 bng 15 250 50 0 empty empty empty 17 7 0 10 -262144
-1 -1;
#X msg 465 240 -0.8;
#X obj 729 113 rem chan \$1 1;
#X obj 732 154 rem chan \$1 6;
#X obj 732 135 rem chan \$1 5;
#X msg 299 430 sensor \$1;
#X obj 299 390 hradio 15 1 0 3 empty empty empty 0 -8 0 10 -262144
-1 -1 0;
#X obj 299 410 + 2;
#X msg 401 429 sensor \$1;
#X obj 401 389 hradio 15 1 0 3 empty empty empty 0 -8 0 10 -262144
-1 -1 0;
#X obj 401 408 + 2;
#X msg 511 436 sensor \$1;
#X obj 511 396 hradio 15 1 0 3 empty empty empty 0 -8 0 10 -262144
-1 -1 0;
#X obj 511 416 + 2;
#X obj 298 524 throw~ \$1-out;
#N canvas 21 130 473 431 filter 0;
#X obj 50 40 inlet~;
#X obj 49 269 outlet~;
#X obj 244 44 inlet;
#X obj 327 115 interpol 4500 5400;
#X obj 191 115 interpol 2200 1600;
#X obj 77 114 interpol 520 630;
#X text 282 293 1 2 3 4 5 6 7 8;
#X text 254 317 0.5 1 1.5;
#X obj 49 169 bp~ 400 10;
#X obj 119 169 bp~ 1800 10;
#X obj 198 168 bp~ 4900 10;
#X obj 197 192 *~ 1;
#X obj 119 195 *~ 1;
#X obj 244 73 / -45;
#X connect 0 0 8 0;
#X connect 0 0 9 0;
#X connect 0 0 10 0;
#X connect 2 0 13 0;
#X connect 3 0 10 1;
#X connect 4 0 9 1;
#X connect 5 0 8 1;
#X connect 8 0 1 0;
#X connect 9 0 12 0;
#X connect 10 0 11 0;
#X connect 11 0 1 0;
#X connect 12 0 1 0;
#X connect 13 0 3 0;
#X connect 13 0 4 0;
#X connect 13 0 5 0;
#X restore 299 488 pd filter;
#N canvas 688 125 532 431 filter 0;
#X obj 50 70 inlet~;
#X obj 49 269 outlet~;
#X obj 244 44 inlet;
#X obj 244 73 / -90;
#X obj 356 106 interpol 5300 6400;
#X obj 111 106 interpol 320 380;
#X obj 221 104 interpol 2600 3800;
#X obj 84 219 *~ 1;
#X obj 198 207 *~ 1;
#X obj 49 169 bp~ 400 10;
#X obj 119 169 bp~ 1800 10;
#X obj 198 168 bp~ 4900 10;
#X floatatom 314 185 5 0 0 0 - - -;
#X connect 0 0 9 0;
#X connect 0 0 10 0;
#X connect 0 0 11 0;
#X connect 2 0 3 0;
#X connect 3 0 4 0;
#X connect 3 0 5 0;
#X connect 3 0 6 0;
#X connect 4 0 11 1;
#X connect 5 0 9 1;
#X connect 6 0 10 1;
#X connect 7 0 1 0;
#X connect 8 0 1 0;
#X connect 9 0 1 0;
#X connect 10 0 7 0;
#X connect 11 0 8 0;
#X restore 399 486 pd filter;
#N canvas 190 168 532 431 filter 0;
#X obj 50 70 inlet~;
#X obj 49 269 outlet~;
#X obj 244 44 inlet;
#X obj 244 73 / -90;
#X obj 111 106 interpol 220 340;
#X obj 356 106 interpol 7200 6400;
#X obj 221 104 interpol 1200 730;
#X obj 118 204 *~ 1;
#X obj 198 208 *~ 1;
#X obj 49 169 bp~ 400 10;
#X obj 119 169 bp~ 1800 10;
#X obj 198 167 bp~ 4900 10;
#X connect 0 0 9 0;
#X connect 0 0 10 0;
#X connect 0 0 11 0;
#X connect 2 0 3 0;
#X connect 3 0 4 0;
#X connect 3 0 5 0;
#X connect 3 0 6 0;
#X connect 4 0 9 1;
#X connect 5 0 11 1;
#X connect 6 0 10 1;
#X connect 7 0 1 0;
#X connect 8 0 1 0;
#X connect 9 0 1 0;
#X connect 10 0 7 0;
#X connect 11 0 8 0;
#X restore 511 484 pd filter;
#X obj 401 449 chan \$1 3 45;
#X obj 199 150 bng 15 250 50 0 empty empty resetAngle 17 7 0 10 -262144
-1 -1;
#X obj 92 196 * 3;
#X obj 646 383 r EULER;
#X obj 646 404 route 2 3 4;
#X obj 631 451 f;
#X obj 646 429 unpack f;
#X msg 235 218 -1 resetAngle \$1;
#X floatatom 651 471 5 0 0 0 - - -;
#X msg 196 335 -1 gainLFO \$1;
#X floatatom 192 307 5 0 0 0 - - -;
#X obj 511 455 chan \$1 4 58;
#X floatatom 416 539 5 0 0 0 - - -;
#X obj 299 450 chan \$1 2 56;
#X connect 1 0 2 0;
#X connect 2 0 9 0;
#X connect 4 0 5 0;
#X connect 6 0 7 0;
#X connect 10 0 27 0;
#X connect 12 0 13 0;
#X connect 13 0 14 0;
#X connect 16 0 31 0;
#X connect 17 0 76 0;
#X connect 18 0 19 0;
#X connect 19 0 20 0;
#X connect 20 0 21 1;
#X connect 21 0 22 0;
#X connect 21 0 23 0;
#X connect 24 0 25 0;
#X connect 25 0 26 0;
#X connect 26 0 22 0;
#X connect 27 0 30 0;
#X connect 29 0 25 1;
#X connect 30 0 39 0;
#X connect 31 0 32 0;
#X connect 32 0 21 0;
#X connect 33 0 34 0;
#X connect 34 0 30 0;
#X connect 36 0 41 0;
#X connect 37 0 38 0;
#X connect 38 0 35 0;
#X connect 39 1 40 0;
#X connect 40 0 15 0;
#X connect 41 0 35 0;
#X connect 43 0 47 0;
#X connect 44 0 45 0;
#X connect 45 0 42 0;
#X connect 46 0 57 0;
#X connect 47 0 42 0;
#X connect 48 0 49 0;
#X connect 49 0 42 0;
#X connect 50 0 51 0;
#X connect 51 0 42 0;
#X connect 52 0 42 0;
#X connect 53 0 52 0;
#X connect 54 0 52 0;
#X connect 55 0 25 1;
#X connect 56 0 29 0;
#X connect 57 0 52 0;
#X connect 61 0 87 0;
#X connect 62 0 63 0;
#X connect 63 0 61 0;
#X connect 64 0 74 0;
#X connect 65 0 66 0;
#X connect 66 0 64 0;
#X connect 67 0 85 0;
#X connect 68 0 69 0;
#X connect 69 0 67 0;
#X connect 71 0 70 0;
#X connect 72 0 70 0;
#X connect 73 0 70 0;
#X connect 74 0 72 0;
#X connect 74 1 72 1;
#X connect 75 0 79 0;
#X connect 76 0 18 0;
#X connect 77 0 78 0;
#X connect 78 0 80 0;
#X connect 79 0 81 0;
#X connect 80 0 79 1;
#X connect 80 0 82 0;
#X connect 81 0 42 0;
#X connect 83 0 42 0;
#X connect 84 0 83 0;
#X connect 85 0 73 0;
#X connect 85 1 73 1;
#X connect 87 0 71 0;
#X connect 87 1 71 1;
#X coords 0 -1 1 1 200 70 1 100 100;
