#N canvas 1629 703 368 313 10;
#X declare -path Fraise -stdpath Fraise;
#X obj 21 38 pied/pied 0 41424;
#X obj 21 16 declare -path Fraise -stdpath Fraise;
#X obj 19 141 fruit/fruit 1 masterRF 10 masterRF;
#N canvas 1079 105 1154 625 tests-master 1;
#X msg 126 51 L\$1;
#X obj 126 28 tgl 15 0 empty empty set_LED 18 7 0 10 -4034 -1 -1 1
1;
#X floatatom 33 302 5 0 0 3 radioOK - -;
#X obj 33 339 bng 15 250 50 0 empty empty empty 17 7 0 10 -262144 -1
-1;
#X obj 106 194 spigot;
#X obj 139 176 tgl 15 0 empty empty empty 17 7 0 10 -262144 -1 -1 1
1;
#X obj 33 279 unpack f f;
#X floatatom 90 300 5 0 0 3 available - -;
#X text 158 40 reset radio;
#X obj 32 93 fruit/send2 masterRF;
#X obj 33 125 fruit/receive masterRF;
#X obj 106 224 print masterRF Rcvd;
#X obj 72 253 print masterRF_radio;
#X obj 33 146 route R r, f 25;
#X obj 316 24 route 30;
#X floatatom 314 206 8 0 0 0 - - -;
#X obj 316 145 +, f 10;
#X obj 276 231 t b b;
#X obj 276 252 timer;
#X floatatom 213 282 5 0 0 0 - - -;
#X obj 367 206 mod 1000;
#X obj 367 236 / 1000;
#X obj 367 257 * 50;
#X obj 367 278 + 50;
#X obj 367 299 mtof;
#X obj 367 320 osc~;
#X obj 367 362 dac~;
#X obj 419 291 tgl 15 0 empty empty empty 17 7 0 10 -262144 -1 -1 0
1;
#X obj 366 341 *~ 0;
#X obj 419 311 * 0.2;
#X obj 276 318 max;
#X obj 276 339 f;
#X floatatom 276 381 5 0 0 0 - - -;
#X msg 244 320 0;
#X obj 316 81 route 1 0, f 51;
#X obj 316 105 unpack f f;
#X obj 316 125 * 256;
#X obj 467 142 +, f 10;
#X obj 467 102 unpack f f;
#X obj 467 122 * 256;
#X obj 467 183 * 4.096;
#X floatatom 467 207 7 0 0 1 V(batt) - -;
#X obj 467 162 / 32768;
#X obj 467 230 bng 15 250 50 0 empty empty empty 17 7 0 10 -262144
-1 -1;
#X obj 491 271 f;
#X obj 524 226 bng 15 250 50 0 empty empty empty 17 7 0 10 -262144
-1 -1;
#X obj 522 271 date, f 11;
#X obj 597 270 time, f 11;
#X obj 491 246 t a a a, f 14;
#X obj 491 298 pack f f f f f f;
#X msg 491 340 set \$1;
#X msg 491 361 3.53988V@2020_6_2::17h_32mn;
#X msg 491 319 symbol \$1V@\$2_\$3_\$4::\$5h_\$6mn;
#X msg 486 403 3.86V@2020_6_1::18h_54mn;
#X floatatom 427 164 5 0 0 0 - - -;
#X text 662 402 -0.01 en 4mn;
#X text 663 417 -0.1 en 40mn;
#X text 664 430 -0.6 en 4h;
#X msg 485 426 3.849V@2020_6_1::18h_58mn;
#X obj 131 345 mavg 100;
#X obj 131 372 max;
#X obj 131 393 f;
#X floatatom 131 436 5 0 0 0 - - -;
#X msg 99 374 0;
#X obj 276 360 change;
#X obj 131 414 change;
#X obj 199 378 max;
#X obj 199 399 f;
#X floatatom 199 442 5 0 0 0 - - -;
#X msg 167 380 0;
#X obj 199 420 change;
#X obj 199 351 mavg 5;
#X msg 484 449 3.84V@2020_6_1::19h_6mn;
#X obj 314 188 spigot;
#X obj 350 171 tgl 15 0 empty empty empty 17 7 0 10 -262144 -1 -1 1
1;
#X obj 852 179 +, f 10;
#X obj 852 139 unpack f f;
#X obj 852 159 * 256;
#X obj 852 220 * 4.096;
#X floatatom 852 244 7 0 0 1 V(batt) - -;
#X obj 852 199 / 32768;
#X floatatom 812 201 5 0 0 0 - - -;
#X msg 484 471 3.80788V@2020_6_1::19h_34mn;
#X text 663 471 -0.052 en 38mn -> -0.6 en 7h20;
#X obj 850 265 bng 15 250 50 0 empty empty empty 17 7 0 10 -262144
-1 -1;
#X msg 483 505 3.804V@2020_6_2::12h_9mn;
#X msg 484 525 3.71988V@2020_6_2::13h_35mn;
#X text 662 525 -0.14 en 124mn -> -0.6 en 8h50mn;
#X obj 701 85 route 2;
#X obj 701 118 route 2 0, f 51;
#N canvas 1 81 415 249 axl 0;
#X obj 64 41 inlet;
#X obj 64 62 unpack f f f f f f, f 33;
#X obj 64 112 +, f 7;
#X obj 64 93 * 256;
#X obj 64 135 moses 32768;
#X obj 64 188 outlet;
#X obj 142 111 +, f 7;
#X obj 142 92 * 256;
#X obj 142 134 moses 32768;
#X obj 142 187 outlet;
#X obj 220 110 +, f 7;
#X obj 220 91 * 256;
#X obj 220 133 moses 32768;
#X obj 220 186 outlet;
#X obj 85 159 - 65536;
#X obj 163 159 - 65536;
#X obj 241 158 - 65536;
#X connect 0 0 1 0;
#X connect 1 0 3 0;
#X connect 1 1 2 1;
#X connect 1 2 7 0;
#X connect 1 3 6 1;
#X connect 1 4 11 0;
#X connect 1 5 10 1;
#X connect 2 0 4 0;
#X connect 3 0 2 0;
#X connect 4 0 5 0;
#X connect 4 1 14 0;
#X connect 6 0 8 0;
#X connect 7 0 6 0;
#X connect 8 0 9 0;
#X connect 8 1 15 0;
#X connect 10 0 12 0;
#X connect 11 0 10 0;
#X connect 12 0 13 0;
#X connect 12 1 16 0;
#X connect 14 0 5 0;
#X connect 15 0 9 0;
#X connect 16 0 13 0;
#X restore 834 286 pd axl;
#X f 14;
#X obj 844 376 mtof;
#X obj 844 440 osc~;
#X obj 895 500 dac~;
#X obj 1058 422 tgl 15 0 empty empty empty 17 7 0 10 -262144 -1 -1
0 1;
#X obj 894 479 *~ 0;
#X obj 844 313 / 256;
#X obj 844 355 + 80;
#X msg 844 397 \$1 20;
#X obj 844 418 line~;
#X obj 844 334 * 15;
#X obj 1058 442 * 0.1;
#X obj 888 373 mtof;
#X obj 888 437 osc~;
#X obj 888 310 / 256;
#X obj 888 352 + 80;
#X msg 888 394 \$1 20;
#X obj 888 415 line~;
#X obj 888 331 * 15;
#X obj 935 376 mtof;
#X obj 935 440 osc~;
#X obj 935 313 / 256;
#X obj 935 355 + 80;
#X msg 935 397 \$1 20;
#X obj 935 418 line~;
#X obj 935 334 * 15;
#X msg 485 544 3.688V@2020_6_2::14h_9mn;
#X msg 485 563 3.61188V@2020_6_2::15h_45mn;
#X msg 485 582 3.53988V@2020_6_2::17h_32mn;
#X obj 202 187 bng 15 250 50 0 empty empty empty 17 7 0 10 -262144
-1 -1;
#X obj 33 167 route C err;
#X obj 63 433 bng 15 50 20 0 empty empty empty 17 7 0 10 -262144 -1
-1;
#X obj 73 461 t b b;
#X obj 73 482 timer;
#X floatatom 73 525 5 0 0 0 - - -;
#X obj 12 410 t b b;
#X obj 12 431 timer;
#X floatatom 12 474 5 0 0 0 - - -;
#X obj 130 499 unpack f f f;
#X floatatom 130 548 5 0 0 0 - - -;
#X floatatom 174 549 5 0 0 0 - - -;
#X floatatom 218 549 5 0 0 0 - - -;
#X obj 130 523 change;
#X obj 169 524 change;
#X obj 208 524 change;
#X msg 248 470 set -1;
#X msg 157 55 R;
#X msg 49 45 O\$1;
#X obj 50 23 tgl 15 0 empty empty empty 17 7 0 10 -262144 -1 -1 1 1
;
#X msg 13 41 C;
#X obj 97 9 metro 150;
#X obj 74 10 tgl 15 0 empty empty empty 17 7 0 10 -262144 -1 -1 0 1
;
#N canvas 527 516 1303 534 tests 1;
#X obj 52 199 outlet;
#X msg 52 71 P\$1;
#X obj 56 43 tgl 15 0 empty empty empty 17 7 0 10 -262144 -1 -1 1 1
;
#X msg 116 173 r\$1;
#X msg 84 116 0;
#X msg 127 117 1;
#X msg 156 117 2;
#X msg 186 115 3;
#X msg 224 114 4;
#X obj 297 38 fruit/receive masterRF;
#X msg 175 211 M;
#X obj 297 83 list prepend set;
#X obj 297 104 list trim;
#X text 915 251 O=1 \, non;
#X text 909 284 O=1 \, oui!;
#X msg 301 312 14 63 3 3 95 76 7 14 0 0 231 16 195 196 197 198 231
0 32 0 0 0 0 17 0 0 0 0 63, f 83;
#X text 913 311 O=0 \, oui;
#X msg 301 287 15 63 2 3 95 76 7 66 0 0 231 16 195 196 197 198 231
0 32 0 0 0 0 16 0 0 0 0 63, f 94;
#X msg 297 168 14 63 3 3 95 76 7 14 0 0 231 16 195 196 197 198 231
0 32 0 0 0 0 17 0 0 0 0 63, f 83;
#X msg 296 191 14 63 19 3 95 76 215 14 0 0 150 16 35 228 255 231 175
0 32 41 34 24 36 17 0 0 0 0 63, f 83;
#X msg 300 269 15 63 2 3 95 76 87 14 0 0 231 16 203 142 255 103 231
17 32 15 34 26 0 17 0 0 0 0 63, f 83;
#X msg 251 427 15 63 2 3 95 76 6 14 0 0 231 16 203 142 255 103 231
17 32 15 34 26 0 17 0 0 0 0 63, f 83;
#X text 859 445 O=1 \, oui!;
#X msg 251 448 15 63 2 3 95 76 7 66 0 0 231 16 195 196 197 198 231
0 32 0 0 0 0 16 0 0 0 0 63, f 94;
#X msg 297 125 15 63 50 3 95 76 6 14 0 0 150 16 35 228 255 103 175
0 32 43 34 26 38 17 0 0 0 0 63, f 83;
#X obj 281 134 bng 15 250 50 0 empty empty empty 17 7 0 10 -262144
-1 -1;
#X msg 230 372 15 63 2 3 95 76 6 66 0 0 226 16 195 196 101 70 103 16
32 0 0 8 0 16 0 0 0 0 63, f 83;
#X text 740 372 OK;
#X msg 230 391 15 63 2 3 95 76 6 14 0 0 231 16 223 142 255 103 231
17 32 11 34 26 42 17 0 0 0 0 63, f 83;
#X msg 83 13 0;
#X msg 112 12 0 \, 3 \, 1 \, 2 \, 4;
#X msg 205 11 1;
#X obj 262 244 list split 1;
#X floatatom 262 265 5 0 0 0 - - -;
#X obj 228 223 list split 8;
#X text 66 101 closeRX;
#X text 127 99 AW5;
#X text 154 99 CH76;
#X text 181 97 toggle;
#X text 228 98 1Mb;
#X msg 175 236 A;
#X obj 297 59 route 31 32, f 38;
#X obj 818 110 list prepend set;
#X obj 818 131 list trim;
#X obj 818 64 list split 5, f 38;
#X msg 818 152 150 229 231 123 247, f 20;
#X obj 952 110 list prepend set;
#X obj 952 131 list trim;
#X msg 952 152 16 10 153 152 151, f 21;
#X obj 952 87 list split 5;
#X msg 252 475 15 63 2 3 95 76 6 66 0 0 231 16 195 196 197 198 231
0 32 0 0 0 0 16 0 0 0 0 63, f 83;
#X obj 809 182 bng 15 250 50 0 empty empty empty 17 7 0 10 -262144
-1 -1;
#X msg 822 171 231 231 231 231 231, f 20;
#X msg 955 174 194 194 194 194 194, f 21;
#X obj 1097 110 list prepend set;
#X obj 1097 131 list trim;
#X msg 1097 152 35 228 255 103;
#X msg 1101 175 195 196 197 198;
#X msg 251 493 15 63 2 3 95 76 6 14 0 1 231 16 195 196 197 198 231
0 32 0 0 0 0 17 0 0 0 0 0, f 83;
#X msg 196 171 5;
#X text 194 155 flush;
#X msg 297 143 11 63 2 3 3 2 15 14 0 0 231 16 195 196 197 198 231 0
32 0 0 0 0 17 0 0 0 0 63, f 83;
#X msg 250 515 15 63 50 3 95 76 6 14 0 0 150 16 35 228 255 103 175
0 32 43 34 26 38 17 0 0 0 0 63, f 83;
#X text 768 517 non;
#X connect 1 0 0 0;
#X connect 2 0 1 0;
#X connect 3 0 0 0;
#X connect 4 0 3 0;
#X connect 5 0 3 0;
#X connect 6 0 3 0;
#X connect 7 0 3 0;
#X connect 8 0 3 0;
#X connect 9 0 41 0;
#X connect 10 0 0 0;
#X connect 11 0 12 0;
#X connect 12 0 24 0;
#X connect 12 0 25 0;
#X connect 29 0 2 0;
#X connect 30 0 3 0;
#X connect 31 0 2 0;
#X connect 32 0 33 0;
#X connect 34 1 32 0;
#X connect 40 0 0 0;
#X connect 41 0 11 0;
#X connect 41 0 34 0;
#X connect 41 1 44 0;
#X connect 42 0 43 0;
#X connect 43 0 45 0;
#X connect 44 0 42 0;
#X connect 44 0 51 0;
#X connect 44 1 49 0;
#X connect 46 0 47 0;
#X connect 47 0 48 0;
#X connect 49 0 46 0;
#X connect 49 1 54 0;
#X connect 54 0 55 0;
#X connect 55 0 56 0;
#X connect 59 0 3 0;
#X restore 167 79 pd tests;
#X obj 316 52 route 1 1, f 129;
#X obj 233 152 print mRF30;
#X obj 394 22 print mRF;
#X connect 0 0 9 1;
#X connect 1 0 0 0;
#X connect 2 0 3 0;
#X connect 3 0 125 0;
#X connect 4 0 11 0;
#X connect 5 0 4 1;
#X connect 6 0 2 0;
#X connect 6 1 7 0;
#X connect 10 0 13 0;
#X connect 13 0 120 0;
#X connect 13 1 4 0;
#X connect 13 2 14 0;
#X connect 14 0 143 0;
#X connect 14 0 144 0;
#X connect 14 1 145 0;
#X connect 16 0 20 0;
#X connect 16 0 17 0;
#X connect 16 0 73 0;
#X connect 17 0 18 0;
#X connect 17 1 18 1;
#X connect 18 0 30 0;
#X connect 18 0 59 0;
#X connect 18 0 71 0;
#X connect 20 0 21 0;
#X connect 21 0 22 0;
#X connect 22 0 23 0;
#X connect 23 0 24 0;
#X connect 24 0 25 0;
#X connect 25 0 28 0;
#X connect 27 0 29 0;
#X connect 28 0 26 0;
#X connect 28 0 26 1;
#X connect 29 0 28 1;
#X connect 30 0 31 0;
#X connect 31 0 30 1;
#X connect 31 0 64 0;
#X connect 33 0 31 0;
#X connect 34 0 35 0;
#X connect 34 1 38 0;
#X connect 35 0 36 0;
#X connect 35 1 16 1;
#X connect 36 0 16 0;
#X connect 37 0 42 0;
#X connect 37 0 54 0;
#X connect 38 0 39 0;
#X connect 38 1 37 1;
#X connect 39 0 37 0;
#X connect 40 0 41 0;
#X connect 41 0 43 0;
#X connect 41 0 44 1;
#X connect 42 0 40 0;
#X connect 44 0 49 0;
#X connect 45 0 48 0;
#X connect 46 0 49 1;
#X connect 46 1 49 2;
#X connect 46 2 49 3;
#X connect 47 0 49 4;
#X connect 47 1 49 5;
#X connect 48 0 44 0;
#X connect 48 1 46 0;
#X connect 48 2 47 0;
#X connect 49 0 52 0;
#X connect 50 0 51 0;
#X connect 52 0 50 0;
#X connect 59 0 60 0;
#X connect 60 0 61 0;
#X connect 61 0 60 1;
#X connect 61 0 65 0;
#X connect 63 0 61 0;
#X connect 64 0 32 0;
#X connect 65 0 62 0;
#X connect 66 0 67 0;
#X connect 67 0 66 1;
#X connect 67 0 70 0;
#X connect 69 0 67 0;
#X connect 70 0 68 0;
#X connect 71 0 66 0;
#X connect 73 0 15 0;
#X connect 74 0 73 1;
#X connect 75 0 80 0;
#X connect 75 0 81 0;
#X connect 76 0 77 0;
#X connect 76 1 75 1;
#X connect 77 0 75 0;
#X connect 78 0 79 0;
#X connect 79 0 84 0;
#X connect 80 0 78 0;
#X connect 88 0 89 0;
#X connect 89 0 90 0;
#X connect 89 1 76 0;
#X connect 90 0 96 0;
#X connect 90 1 104 0;
#X connect 90 2 111 0;
#X connect 91 0 98 0;
#X connect 92 0 95 0;
#X connect 94 0 101 0;
#X connect 95 0 93 0;
#X connect 95 0 93 1;
#X connect 96 0 100 0;
#X connect 97 0 91 0;
#X connect 98 0 99 0;
#X connect 99 0 92 0;
#X connect 100 0 97 0;
#X connect 101 0 95 1;
#X connect 102 0 106 0;
#X connect 103 0 95 0;
#X connect 104 0 108 0;
#X connect 105 0 102 0;
#X connect 106 0 107 0;
#X connect 107 0 103 0;
#X connect 108 0 105 0;
#X connect 109 0 113 0;
#X connect 110 0 95 0;
#X connect 111 0 115 0;
#X connect 112 0 109 0;
#X connect 113 0 114 0;
#X connect 114 0 110 0;
#X connect 115 0 112 0;
#X connect 120 0 6 0;
#X connect 120 1 121 0;
#X connect 120 1 128 0;
#X connect 120 2 12 0;
#X connect 121 0 122 0;
#X connect 122 0 123 0;
#X connect 122 1 123 1;
#X connect 123 0 124 0;
#X connect 125 0 126 0;
#X connect 125 1 126 1;
#X connect 126 0 127 0;
#X connect 128 0 132 0;
#X connect 128 1 133 0;
#X connect 128 2 134 0;
#X connect 132 0 129 0;
#X connect 133 0 130 0;
#X connect 134 0 131 0;
#X connect 135 0 132 0;
#X connect 135 0 134 0;
#X connect 135 0 133 0;
#X connect 136 0 9 1;
#X connect 137 0 9 1;
#X connect 138 0 137 0;
#X connect 139 0 9 1;
#X connect 140 0 1 0;
#X connect 141 0 140 0;
#X connect 142 0 9 1;
#X connect 143 0 34 0;
#X connect 143 1 88 0;
#X restore 252 168 pd tests-master;
#X obj 18 194 fruit/fruit 1 cameraRF 11 cameraRF;
#N canvas 659 511 388 544 tests-camera 1;
#X msg 183 125 L\$1;
#X obj 183 102 tgl 15 0 empty empty set_LED 18 7 0 10 -4034 -1 -1 0
1;
#X obj 183 77 metro 150;
#X obj 183 50 tgl 15 0 empty empty empty 17 7 0 10 -262144 -1 -1 0
1;
#X obj 38 272 route C;
#X floatatom 38 407 5 0 0 3 radioOK - -;
#X obj 34 456 bng 15 250 50 0 empty empty empty 17 7 0 10 -262144 -1
-1;
#X obj 111 299 spigot;
#X obj 144 281 tgl 15 0 empty empty empty 17 7 0 10 -262144 -1 -1 0
1;
#X msg 184 154 R;
#X obj 56 385 unpack f f;
#X floatatom 95 405 5 0 0 3 available - -;
#X text 209 153 reset radio;
#X obj 38 251 route R r, f 25;
#X obj 40 187 fruit/send2 cameraRF;
#X obj 38 230 fruit/receive cameraRF;
#X obj 111 329 print cameraRF Rcvd;
#X obj 77 358 print cameraRF;
#X obj 86 473 t b b;
#X obj 86 494 timer;
#X floatatom 86 515 5 0 0 0 - - -;
#X connect 0 0 14 1;
#X connect 1 0 0 0;
#X connect 2 0 1 0;
#X connect 3 0 2 0;
#X connect 4 0 5 0;
#X connect 4 1 17 0;
#X connect 5 0 6 0;
#X connect 6 0 18 0;
#X connect 7 0 16 0;
#X connect 8 0 7 1;
#X connect 9 0 14 1;
#X connect 10 1 11 0;
#X connect 13 0 4 0;
#X connect 13 1 7 0;
#X connect 15 0 13 0;
#X connect 18 0 19 0;
#X connect 18 1 19 1;
#X connect 19 0 20 0;
#X restore 253 196 pd tests-camera;
#X obj 18 244 fruit/fruit 1 axlA 12 axlRF;
#N canvas 265 511 349 544 tests-axlA 1;
#X msg 183 125 L\$1;
#X obj 183 102 tgl 15 0 empty empty set_LED 18 7 0 10 -4034 -1 -1 0
1;
#X obj 183 77 metro 150;
#X obj 183 50 tgl 15 0 empty empty empty 17 7 0 10 -262144 -1 -1 0
1;
#X obj 38 272 route C;
#X floatatom 38 407 5 0 0 3 radioOK - -;
#X obj 38 448 bng 15 250 50 0 empty empty empty 17 7 0 10 -262144 -1
-1;
#X obj 111 299 spigot;
#X obj 144 281 tgl 15 0 empty empty empty 17 7 0 10 -262144 -1 -1 0
1;
#X msg 184 154 R;
#X obj 56 385 unpack f f;
#X floatatom 95 405 5 0 0 3 available - -;
#X text 209 153 reset radio;
#X obj 38 251 route R r, f 25;
#X obj 61 474 t b b;
#X obj 61 495 timer;
#X floatatom 61 516 5 0 0 0 - - -;
#X obj 40 187 fruit/send2 axlA;
#X obj 38 230 fruit/receive axlA;
#X obj 111 329 print axlA Rcvd;
#X obj 77 358 print axlA;
#X obj 224 252 route 30;
#X obj 234 297 bng 15 250 50 0 empty empty empty 17 7 0 10 -262144
-1 -1;
#X obj 216 435 t b b;
#X obj 216 456 timer;
#X floatatom 216 477 5 0 0 0 - - -;
#X obj 262 293 print axlA;
#X connect 0 0 17 1;
#X connect 1 0 0 0;
#X connect 2 0 1 0;
#X connect 3 0 2 0;
#X connect 4 0 5 0;
#X connect 4 1 20 0;
#X connect 5 0 6 0;
#X connect 6 0 14 0;
#X connect 7 0 19 0;
#X connect 8 0 7 1;
#X connect 9 0 17 1;
#X connect 10 1 11 0;
#X connect 13 0 4 0;
#X connect 13 1 7 0;
#X connect 13 2 21 0;
#X connect 14 0 15 0;
#X connect 14 1 15 1;
#X connect 15 0 16 0;
#X connect 18 0 13 0;
#X connect 21 0 22 0;
#X connect 21 0 23 0;
#X connect 21 1 26 0;
#X connect 23 0 24 0;
#X connect 23 1 24 1;
#X connect 24 0 25 0;
#X restore 251 261 pd tests-axlA;
