#N canvas 1351 201 450 569 10;
#X obj 52 31 inlet;
#X obj 146 223 outlet;
#X obj 94 94 * 256;
#X obj 52 116 +, f 7;
#X obj 179 94 * 256;
#X obj 137 116 +, f 7;
#X obj 301 320 spigot, f 30;
#X obj 298 165 moses 1;
#X obj 349 164 moses 15;
#X msg 349 185 1;
#X msg 298 186 0;
#X msg 394 185 0;
#X obj 298 260 list prepend 0;
#X floatatom 279 48 5 0 0 0 - - -;
#X obj 52 146 sel 4095;
#X msg 160 286 1;
#X obj 113 285 del 30;
#X msg 113 306 0;
#X msg 180 345 \$2 \$3 \$1;
#X obj 112 249 t b a, f 13;
#X obj 52 393 list prepend \$2;
#X obj 52 423 s senpoint-\$1;
#X obj 52 54 list split 5, f 32;
#X obj 52 74 unpack f f f f f, f 29;
#X obj 52 176 pack f f f, f 14;
#X obj 113 335 list append, f 13;
#X connect 0 0 22 0;
#X connect 2 0 3 1;
#X connect 3 0 14 0;
#X connect 4 0 5 1;
#X connect 5 0 24 1;
#X connect 7 0 10 0;
#X connect 7 1 8 0;
#X connect 8 0 9 0;
#X connect 8 1 11 0;
#X connect 9 0 12 1;
#X connect 9 0 6 1;
#X connect 10 0 12 1;
#X connect 10 0 6 1;
#X connect 11 0 12 1;
#X connect 11 0 6 1;
#X connect 14 1 24 0;
#X connect 15 0 25 0;
#X connect 16 0 17 0;
#X connect 17 0 25 0;
#X connect 19 0 16 0;
#X connect 19 0 15 0;
#X connect 19 1 25 1;
#X connect 20 0 21 0;
#X connect 22 0 23 0;
#X connect 22 1 1 0;
#X connect 23 0 3 0;
#X connect 23 1 2 0;
#X connect 23 2 5 0;
#X connect 23 3 4 0;
#X connect 23 4 24 2;
#X connect 24 0 20 0;
