#N canvas 1155 94 646 224 12;
#X obj 18 90 RF/masterRF;
#X obj 18 65 Audio/RoueAudio;
#X obj 18 115 pofGUI;
#X obj 17 12 cnv 15 200 40 empty empty La_Roue 20 20 2 40 -233017 -66577
0;
#N canvas 371 159 451 311 run-boids_window 0;
#X obj 29 231 pd~ -fifo 30;
#X msg 74 203 pd~ stop;
#X msg 74 178 pd~ start pd-boids/Roue-boids-pof.pd;
#X obj 29 257 route running;
#X obj 29 284 s reconnect_boidsOSC;
#X msg 73 144 pd~ start -nogui pd-boids/Roue-boids-pof.pd;
#X obj 73 97 loadbang;
#X obj 73 121 del 2000;
#X obj 109 43 bng 15 250 50 0 empty empty stop 17 7 0 10 -128992 -1
-1;
#X obj 163 42 bng 15 250 50 0 empty empty run 17 7 0 10 -4034 -1 -1
;
#X obj 211 42 bng 15 250 50 0 empty empty edit 17 7 0 10 -260097 -1
-1;
#X connect 0 0 3 0;
#X connect 1 0 0 0;
#X connect 2 0 0 0;
#X connect 3 0 4 0;
#X connect 5 0 0 0;
#X connect 6 0 7 0;
#X connect 7 0 5 0;
#X connect 8 0 1 0;
#X connect 9 0 5 0;
#X connect 10 0 2 0;
#X coords 0 -1 1 1 170 40 1 100 20;
#X restore 18 139 pd run-boids_window;
#X obj 236 30 nbx 5 25 -1e+37 1e+37 0 0 empty axlBatt axlBatt 0 -8
0 14 -262144 -1 -1 0 256;
#X obj 236 60 bng 15 250 50 0 empty empty empty 17 7 0 10 -262144 -1
-1;
#X text 247 106 1: tuyau-harmo_contrebasse : "oiseaux";
#X text 246 136 2: trilles harmoniques + contre-multipho +cloches;
#X text 246 165 3: helene souffle;
#X obj 385 26 tgl 40 0 ALL_WHITE-snd ALL_WHITE-rcv ALL_WHITE 0 -10
0 10 -262144 -1 -1 0 1;
#X connect 5 0 6 0;
