#N canvas 162 353 515 438 12;
#X declare -path zexy -lib zexy;
#X obj 110 162 sampleur 1;
#N canvas 1 81 594 404 guts 0;
#X obj 30 267 bang~;
#X obj 30 291 i;
#X obj 30 315 + 1;
#X obj 30 363 s buffer-index;
#X obj 30 339 mod 82688;
#X obj 29 24 loadbang;
#X msg 29 48 120;
#X obj 29 72 s buffer-time;
#X obj 29 110 r buffer-time;
#X obj 29 134 * 44100;
#X obj 29 158 / 64;
#X obj 29 182 i;
#X obj 29 206 + 1;
#X obj 29 230 s buffer-length;
#X obj 90 314 r buffer-length;
#X connect 0 0 1 0;
#X connect 1 0 2 0;
#X connect 2 0 4 0;
#X connect 4 0 1 1;
#X connect 4 0 3 0;
#X connect 5 0 6 0;
#X connect 6 0 7 0;
#X connect 8 0 9 0;
#X connect 9 0 10 0;
#X connect 10 0 11 0;
#X connect 11 0 12 0;
#X connect 12 0 13 0;
#X connect 14 0 4 1;
#X restore 332 99 pd guts;
#X obj 107 83 noise~;
#X obj 107 107 lop~;
#X floatatom 175 69 5 0 0 0 - - -;
#X obj 294 48 declare -path zexy -lib zexy;
#X connect 2 0 3 0;
#X connect 3 0 0 0;
#X connect 4 0 3 1;
