#N canvas 747 184 376 211 12;
#X obj 38 55 RF/masterRF;
#X obj 38 89 particles/blenderOSCctl;
#X obj 38 25 Audio/RoueAudio;
#X obj 39 122 geometryConverter;
#X obj 247 25 r axlBatt;
#X floatatom 247 49 5 0 0 0 - - -;
#X obj 247 74 bng 15 250 50 0 empty empty empty 17 7 0 10 -262144 -1
-1;
#N canvas 637 388 352 246 receive-pythontracker 1;
#X obj 85 60 fudiparse;
#X obj 85 36 netreceive -u -b 8765;
#X obj 85 86 route 0 1;
#X obj 115 110 unpack f f f;
#X obj 115 154 pack f f f;
#X obj 115 132 + 1;
#X obj 85 198 s fromPythonTracker;
#X connect 0 0 2 0;
#X connect 1 0 0 0;
#X connect 2 0 6 0;
#X connect 2 1 3 0;
#X connect 3 0 5 0;
#X connect 3 1 4 1;
#X connect 3 2 4 2;
#X connect 4 0 6 0;
#X connect 5 0 4 0;
#X restore 39 166 pd receive-pythontracker;
#X connect 4 0 5 0;
#X connect 5 0 6 0;
