#N canvas 1180 117 642 219 10;
#X declare -lib pof;
#X declare -path quad2quad;
#X declare -path ../tools/AutoPreset;
#X obj 14 6 declare -lib pof;
#X obj 16 46 poffonts bold quad2quad/Quicksand-Bold.ttf;
#X obj 15 27 declare -path quad2quad;
#N canvas 900 102 450 566 save/load 0;
#X obj 335 32 loadbang;
#X obj 148 47 r \$0-q2qP2-coords;
#X obj 37 47 r \$0-q2qP1-coords;
#X obj 148 68 list split 1;
#X obj 148 89 * 2;
#X obj 148 110 + 8;
#X obj 148 131 list append;
#X obj 148 152 s \$0-coords;
#X obj 37 66 list split 1;
#X obj 37 87 * 2;
#X obj 37 129 list append;
#X obj 37 150 s \$0-coords;
#X obj 37 108 + 0;
#X obj 191 208 r \$0-save;
#X obj 38 186 r \$0-load;
#X msg 65 227 read q2q_coords.txt;
#X obj 65 258 s \$0-coords;
#X msg 191 229 write q2q_coords.txt;
#X obj 36 21 table \$0-coords 16;
#X obj 335 54 s \$0-load;
#X obj 38 204 t b b;
#X msg 38 310 0 \, 1 \, 2 \, 3;
#X obj 65 374 t f f, f 8;
#X obj 65 353 * 2;
#X obj 110 395 + 1;
#X obj 110 415 tabread \$0-coords;
#X obj 65 438 tabread \$0-coords;
#X obj 38 331 t f f;
#X obj 65 459 pack f f;
#X obj 38 482 list append;
#X obj 38 503 s \$0-q2qP1-coords;
#X obj 245 394 t f f, f 8;
#X obj 245 353 * 2;
#X obj 290 415 + 1;
#X obj 290 435 tabread \$0-coords;
#X obj 245 458 tabread \$0-coords;
#X obj 218 331 t f f;
#X obj 245 479 pack f f;
#X obj 218 502 list append;
#X obj 245 373 + 8;
#X obj 218 523 s \$0-q2qP2-coords;
#X obj 311 34 bng 15 250 50 0 empty empty empty 17 7 0 10 -262144 -1
-1;
#X connect 0 0 19 0;
#X connect 1 0 3 0;
#X connect 2 0 8 0;
#X connect 3 0 4 0;
#X connect 3 1 6 1;
#X connect 4 0 5 0;
#X connect 5 0 6 0;
#X connect 6 0 7 0;
#X connect 8 0 9 0;
#X connect 8 1 10 1;
#X connect 9 0 12 0;
#X connect 10 0 11 0;
#X connect 12 0 10 0;
#X connect 13 0 17 0;
#X connect 14 0 20 0;
#X connect 15 0 16 0;
#X connect 17 0 16 0;
#X connect 20 0 21 0;
#X connect 20 1 15 0;
#X connect 21 0 27 0;
#X connect 21 0 36 0;
#X connect 22 0 26 0;
#X connect 22 1 24 0;
#X connect 23 0 22 0;
#X connect 24 0 25 0;
#X connect 25 0 28 1;
#X connect 26 0 28 0;
#X connect 27 0 29 0;
#X connect 27 1 23 0;
#X connect 28 0 29 1;
#X connect 29 0 30 0;
#X connect 31 0 35 0;
#X connect 31 1 33 0;
#X connect 32 0 39 0;
#X connect 33 0 34 0;
#X connect 34 0 37 1;
#X connect 35 0 37 0;
#X connect 36 0 38 0;
#X connect 36 1 32 0;
#X connect 37 0 38 1;
#X connect 38 0 40 0;
#X connect 39 0 31 0;
#X connect 41 0 19 0;
#X restore 279 24 pd save/load;
#N canvas 1 81 652 462 (old)tracking 0;
#X obj 31 70 r fromCamera;
#X obj 65 200 * 1023;
#X obj 112 199 * 760;
#X obj 31 91 list split 2;
#X obj 31 112 list prepend 0;
#X obj 124 91 list split 2;
#X obj 217 91 list split 2;
#X obj 310 91 list split 2;
#X obj 124 112 list prepend 1;
#X obj 217 112 list prepend 2;
#X obj 310 112 list prepend 3;
#X obj 31 135 unpack f f f;
#X obj 31 221 pack f f f, f 12;
#X obj 31 243 s \$0-q2qP1-M-coords;
#X obj 229 157 r \$0-q2qP2-M-clicked;
#X obj 217 138 r \$0-q2qP1-M-clicked;
#X obj 219 176 f;
#X obj 219 234 s \$0-q2qP1-M-props;
#X obj 337 233 s \$0-q2qP2-M-props;
#X obj 194 258 s \$0-firstpoint;
#X msg 219 199 -1 color 1 1 0 \, -1 size 80 \, \$1 color 0.5 1 0 \,
\$1 size 50;
#X obj 112 158 * -1;
#X obj 112 179 + 1;
#X obj 419 60 print;
#X msg 379 154 -1 color 1 1 0 \, -1 size 80 \, 0 color 0.5 1 0;
#X obj 404 120 loadbang;
#X obj 32 288 unpack f f f;
#X obj 32 374 pack f f f, f 12;
#X obj 32 396 s \$0-q2qP1-M-coords;
#X obj 32 268 r fromPythonTracker;
#X obj 113 311 * 1;
#X obj 113 332 + 0;
#X obj 114 352 * 1;
#X obj 66 353 * 1;
#X connect 0 0 3 0;
#X connect 1 0 12 1;
#X connect 2 0 12 2;
#X connect 3 0 4 0;
#X connect 3 1 5 0;
#X connect 4 0 11 0;
#X connect 5 0 8 0;
#X connect 5 1 6 0;
#X connect 6 0 9 0;
#X connect 6 1 7 0;
#X connect 7 0 10 0;
#X connect 8 0 11 0;
#X connect 9 0 11 0;
#X connect 10 0 11 0;
#X connect 11 0 12 0;
#X connect 11 1 1 0;
#X connect 11 2 21 0;
#X connect 12 0 13 0;
#X connect 16 0 20 0;
#X connect 16 0 19 0;
#X connect 20 0 17 0;
#X connect 20 0 18 0;
#X connect 21 0 22 0;
#X connect 22 0 2 0;
#X connect 24 0 17 0;
#X connect 24 0 18 0;
#X connect 26 0 27 0;
#X connect 26 1 33 0;
#X connect 26 2 30 0;
#X connect 27 0 28 0;
#X connect 29 0 26 0;
#X connect 30 0 31 0;
#X connect 31 0 32 0;
#X connect 32 0 27 2;
#X connect 33 0 27 1;
#X restore 522 16 pd (old)tracking;
#N canvas 1 81 450 300 2video 0;
#X obj 34 77 list split 1;
#X obj 34 54 r \$0-q2qP2-coords;
#X obj 68 184 s 2video;
#X obj 68 99 unpack f f;
#X obj 68 120 / 1023;
#X obj 68 141 pack f f;
#X obj 125 120 / 760;
#X msg 68 163 p 2 \$1 \$2;
#X obj 195 22 r \$0-q2qP2-M-coords;
#X obj 195 98 unpack f f f;
#X obj 195 146 pack f f f;
#X obj 229 122 / 1023;
#X obj 277 121 / 760;
#X obj 195 191 s 2video;
#X msg 195 170 p \$1 \$2 \$3;
#X obj 195 122 + 1;
#N canvas 1 81 450 300 firstpoint 0;
#X obj 37 37 inlet;
#X obj 37 255 outlet;
#X obj 37 78 list split 1, f 47;
#X obj 70 98 r \$0-firstpoint;
#X obj 37 128 sel 0, f 6;
#X obj 70 148 sel 0;
#X msg 37 149 0;
#X obj 70 169 f 0, f 9;
#X obj 37 228 list append, f 23;
#X obj 37 202 f;
#X connect 0 0 2 0;
#X connect 2 0 4 0;
#X connect 2 1 8 1;
#X connect 3 0 4 1;
#X connect 3 0 7 1;
#X connect 4 0 6 0;
#X connect 4 1 5 0;
#X connect 5 0 7 0;
#X connect 5 1 9 0;
#X connect 6 0 9 0;
#X connect 7 0 9 0;
#X connect 8 0 1 0;
#X connect 9 0 8 0;
#X restore 209 48 pd firstpoint;
#N canvas 218 156 450 300 allfirst 0;
#X obj 84 15 inlet;
#X msg 84 36 0 \$2 \$3;
#X obj 84 57 outlet;
#X connect 0 0 1 0;
#X connect 1 0 2 0;
#X restore 277 66 pd allfirst;
#X obj 308 97 print;
#X connect 0 1 3 0;
#X connect 1 0 0 0;
#X connect 3 0 4 0;
#X connect 3 1 6 0;
#X connect 4 0 5 0;
#X connect 5 0 7 0;
#X connect 6 0 5 1;
#X connect 7 0 2 0;
#X connect 8 0 9 0;
#X connect 9 0 15 0;
#X connect 9 1 11 0;
#X connect 9 2 12 0;
#X connect 10 0 14 0;
#X connect 11 0 10 1;
#X connect 12 0 10 2;
#X connect 14 0 13 0;
#X connect 15 0 10 0;
#X connect 17 0 9 0;
#X restore 365 45 pd 2video;
#X obj 32 93 pofhead;
#X floatatom 124 81 5 0 0 0 - - -;
#N canvas 1129 245 722 677 controls 0;
#X obj 26 20 inlet;
#N canvas 603 265 1162 579 proj_settings 0;
#X obj 31 25 inlet;
#X obj 77 267 loadbang;
#X msg 77 288 draw 1;
#X obj 31 224 t a a;
#X obj 58 244 pofcolor 1 0 0 1;
#X obj 31 455 pofcolor 0 0 0 1;
#X obj 31 518 poftexts bold 30;
#X obj 55 477 loadbang;
#X msg 55 498 text SAVE;
#X obj 139 334 route down up, f 18;
#X msg 123 389 1;
#X obj 139 355 b;
#X msg 152 410 0;
#X obj 123 410 f;
#X obj 152 389 del 250;
#X obj 58 312 poftouch 80 40;
#X obj 207 390 s \$0-save;
#X obj 317 211 loadbang;
#X msg 317 232 draw 1;
#X obj 271 168 t a a;
#X obj 271 408 pofcolor 0 0 0 1;
#X obj 271 509 poftexts bold 30;
#X obj 343 442 loadbang;
#X obj 385 279 route down up, f 18;
#X msg 369 334 1;
#X obj 385 300 b;
#X msg 398 355 0;
#X obj 369 355 f;
#X obj 398 334 del 250;
#X obj 463 305 r proj-manual;
#X obj 448 375 s proj-manual;
#X obj 448 330 f;
#X obj 448 351 == 0;
#X floatatom 300 111 5 0 0 0 - - -;
#X obj 400 399 r proj-manual;
#X obj 400 420 sel 0 1;
#X msg 419 445 text Proj: manual;
#X msg 400 463 text Proj: auto;
#X floatatom 55 179 5 0 0 0 - - -;
#X obj 31 205 poftranslate 185;
#X obj 298 256 poftouch 170 40;
#X obj 298 188 pofcolor 0.2 0.7 0.2 1;
#X obj 594 218 loadbang;
#X msg 594 239 draw 1;
#X obj 548 175 t a a;
#X obj 548 415 pofcolor 0 0 0 1;
#X obj 548 516 poftexts bold 30;
#X obj 620 449 loadbang;
#X obj 662 286 route down up, f 18;
#X msg 646 341 1;
#X obj 662 307 b;
#X msg 675 362 0;
#X obj 646 362 f;
#X obj 675 341 del 250;
#X obj 725 337 f;
#X obj 725 358 == 0;
#X obj 677 427 sel 0 1;
#X obj 575 263 poftouch 170 40;
#X obj 575 195 pofcolor 0.2 0.7 0.2 1;
#X msg 696 452 text Hide debug;
#X floatatom 581 118 5 0 0 0 - - -;
#X obj 740 312 r proj-debug;
#X obj 725 381 s proj-debug;
#X obj 768 360 s 2video;
#X msg 768 338 debug \$1;
#X obj 677 406 r proj-debug;
#X obj 655 84 r proj-debug;
#X obj 655 105 sel 0 1;
#X obj 627 171 unpack f f f;
#X msg 652 145 0.3 0.3 0;
#X msg 721 146 1 1 0;
#X obj 271 148 poftranslate -140;
#X obj 548 148 poftranslate 45;
#X obj 767 229 loadbang;
#X msg 767 250 0;
#X msg 677 470 text Proj settings;
#X obj 57 138 r proj-debug;
#X obj 31 157 pofvisible;
#X obj 119 23 nbx 5 14 -1e+37 1e+37 0 1 empty empty empty 0 -8 0 10
-262144 -1 -1 350 256;
#X obj 31 54 poftranslate 0 340;
#X obj 890 209 loadbang;
#X msg 890 230 draw 1;
#X obj 844 166 t a a;
#X obj 844 406 pofcolor 0 0 0 1;
#X obj 873 450 loadbang;
#X obj 958 277 route down up, f 18;
#X msg 942 332 1;
#X obj 958 298 b;
#X msg 971 353 0;
#X obj 942 353 f;
#X obj 971 332 del 250;
#X floatatom 873 109 5 0 0 0 - - -;
#X obj 871 186 pofcolor 0.2 0.7 0.2 1;
#X msg 873 470 text Reconnect Camera;
#X obj 844 506 poftexts bold 30 0 0 -2;
#X obj 871 254 poftouch 225 40;
#X obj 1021 373 s camera-reconnect;
#X obj 844 146 poftranslate -538;
#X connect 0 0 79 0;
#X connect 1 0 2 0;
#X connect 2 0 15 0;
#X connect 3 0 5 0;
#X connect 3 1 4 0;
#X connect 4 0 15 0;
#X connect 5 0 6 0;
#X connect 7 0 8 0;
#X connect 8 0 6 0;
#X connect 9 0 11 0;
#X connect 10 0 13 0;
#X connect 11 0 10 0;
#X connect 11 0 14 0;
#X connect 11 0 16 0;
#X connect 12 0 13 0;
#X connect 13 0 5 1;
#X connect 13 0 5 2;
#X connect 13 0 5 3;
#X connect 14 0 12 0;
#X connect 15 1 9 0;
#X connect 17 0 18 0;
#X connect 18 0 40 0;
#X connect 19 0 20 0;
#X connect 19 1 41 0;
#X connect 20 0 21 0;
#X connect 22 0 37 0;
#X connect 23 0 25 0;
#X connect 24 0 27 0;
#X connect 25 0 24 0;
#X connect 25 0 28 0;
#X connect 25 0 31 0;
#X connect 26 0 27 0;
#X connect 27 0 20 1;
#X connect 27 0 20 2;
#X connect 27 0 20 3;
#X connect 28 0 26 0;
#X connect 29 0 31 1;
#X connect 31 0 32 0;
#X connect 32 0 30 0;
#X connect 33 0 71 1;
#X connect 34 0 35 0;
#X connect 35 0 37 0;
#X connect 35 1 36 0;
#X connect 36 0 21 0;
#X connect 37 0 21 0;
#X connect 38 0 39 1;
#X connect 39 0 3 0;
#X connect 40 1 23 0;
#X connect 41 0 40 0;
#X connect 42 0 43 0;
#X connect 43 0 57 0;
#X connect 44 0 45 0;
#X connect 44 1 58 0;
#X connect 45 0 46 0;
#X connect 47 0 75 0;
#X connect 48 0 50 0;
#X connect 49 0 52 0;
#X connect 50 0 49 0;
#X connect 50 0 53 0;
#X connect 50 0 54 0;
#X connect 51 0 52 0;
#X connect 52 0 45 1;
#X connect 52 0 45 2;
#X connect 52 0 45 3;
#X connect 53 0 51 0;
#X connect 54 0 55 0;
#X connect 55 0 62 0;
#X connect 56 0 75 0;
#X connect 56 1 59 0;
#X connect 57 1 48 0;
#X connect 58 0 57 0;
#X connect 59 0 46 0;
#X connect 60 0 72 1;
#X connect 61 0 54 1;
#X connect 61 0 64 0;
#X connect 64 0 63 0;
#X connect 66 0 67 0;
#X connect 67 0 69 0;
#X connect 67 1 70 0;
#X connect 68 0 58 1;
#X connect 68 1 58 2;
#X connect 68 2 58 3;
#X connect 69 0 68 0;
#X connect 70 0 68 0;
#X connect 71 0 19 0;
#X connect 72 0 44 0;
#X connect 73 0 74 0;
#X connect 74 0 62 0;
#X connect 75 0 46 0;
#X connect 76 0 77 0;
#X connect 77 0 39 0;
#X connect 78 0 79 2;
#X connect 79 0 77 0;
#X connect 79 0 72 0;
#X connect 79 0 97 0;
#X connect 80 0 81 0;
#X connect 81 0 95 0;
#X connect 82 0 83 0;
#X connect 82 1 92 0;
#X connect 83 0 94 0;
#X connect 84 0 93 0;
#X connect 85 0 87 0;
#X connect 86 0 89 0;
#X connect 87 0 86 0;
#X connect 87 0 90 0;
#X connect 87 0 96 0;
#X connect 88 0 89 0;
#X connect 89 0 83 1;
#X connect 89 0 83 2;
#X connect 89 0 83 3;
#X connect 90 0 88 0;
#X connect 91 0 97 1;
#X connect 92 0 95 0;
#X connect 93 0 94 0;
#X connect 95 1 85 0;
#X connect 97 0 82 0;
#X restore 26 71 pd proj_settings;
#X obj 297 7 declare -path ../tools/AutoPreset;
#X obj 371 49 apmaster MIDI;
#X obj 297 28 loadbang;
#X obj 297 50 bng 15 250 50 0 empty empty empty 17 7 0 10 -4034 -1
-1;
#X obj 498 49 bng 15 250 50 0 empty empty empty 17 7 0 10 -258113 -1
-1;
#X obj 297 69 apmasterfile MIDI midisettings.txt;
#X obj 498 9 r MIDI-save;
#X obj 564 33 ctlin, f 10;
#X obj 564 55 pack f f f;
#X obj 564 76 s MIDICTL_IN;
#X text 632 34 val-ctl-chan;
#X obj 498 29 del 1000;
#N canvas 1282 264 450 300 translate 0;
#X obj 89 50 poftranslate, f 29;
#X obj 155 25 nbx 5 14 -1e+37 1e+37 0 1 empty empty empty 0 -8 0 10
-262144 -1 -1 480 256;
#X obj 212 25 nbx 5 14 -1e+37 1e+37 0 1 empty empty empty 0 -8 0 10
-262144 -1 -1 252 256;
#X obj 89 72 outlet;
#X obj 35 20 r controlershead;
#X connect 0 0 3 0;
#X connect 1 0 0 1;
#X connect 2 0 0 2;
#X connect 4 0 0 0;
#X coords 0 -1 1 1 120 32 1 150 10;
#X restore 290 101 pd translate;
#X obj 145 72 s controlershead;
#X obj 145 50 pofvisible 1;
#N canvas 1282 264 450 300 translate 0;
#X obj 89 50 poftranslate, f 29;
#X obj 155 25 nbx 5 14 -1e+37 1e+37 0 1 empty empty empty 0 -8 0 10
-262144 -1 -1 480 256;
#X obj 212 25 nbx 5 14 -1e+37 1e+37 0 1 empty empty empty 0 -8 0 10
-262144 -1 -1 -342 256;
#X obj 89 72 outlet;
#X obj 35 20 r controlershead;
#X connect 0 0 3 0;
#X connect 1 0 0 1;
#X connect 2 0 0 2;
#X connect 4 0 0 0;
#X coords 0 -1 1 1 120 32 1 150 10;
#X restore 21 102 pd translate;
#X obj 168 8 r proj-debug;
#X obj 168 29 == 0;
#N canvas 1282 264 450 300 translate 0;
#X obj 89 50 poftranslate, f 29;
#X obj 155 25 nbx 5 14 -1e+37 1e+37 0 1 empty empty empty 0 -8 0 10
-262144 -1 -1 480 256;
#X obj 212 25 nbx 5 14 -1e+37 1e+37 0 1 empty empty empty 0 -8 0 10
-262144 -1 -1 -272 256;
#X obj 89 72 outlet;
#X obj 35 20 r controlershead;
#X connect 0 0 3 0;
#X connect 1 0 0 1;
#X connect 2 0 0 2;
#X connect 4 0 0 0;
#X coords 0 -1 1 1 120 32 1 150 10;
#X restore 21 234 pd translate;
#N canvas 1282 264 450 300 translate 0;
#X obj 89 50 poftranslate, f 29;
#X obj 155 25 nbx 5 14 -1e+37 1e+37 0 1 empty empty empty 0 -8 0 10
-262144 -1 -1 480 256;
#X obj 212 25 nbx 5 14 -1e+37 1e+37 0 1 empty empty empty 0 -8 0 10
-262144 -1 -1 -202 256;
#X obj 89 72 outlet;
#X obj 35 20 r controlershead;
#X connect 0 0 3 0;
#X connect 1 0 0 1;
#X connect 2 0 0 2;
#X connect 4 0 0 0;
#X coords 0 -1 1 1 120 32 1 150 10;
#X restore 22 355 pd translate;
#N canvas 1282 264 450 300 translate 0;
#X obj 89 50 poftranslate, f 29;
#X obj 155 25 nbx 5 14 -1e+37 1e+37 0 1 empty empty empty 0 -8 0 10
-262144 -1 -1 480 256;
#X obj 212 25 nbx 5 14 -1e+37 1e+37 0 1 empty empty empty 0 -8 0 10
-262144 -1 -1 118 256;
#X obj 89 72 outlet;
#X obj 35 20 r controlershead;
#X connect 0 0 3 0;
#X connect 1 0 0 1;
#X connect 2 0 0 2;
#X connect 4 0 0 0;
#X coords 0 -1 1 1 120 32 1 150 10;
#X restore 22 476 pd translate;
#X obj 22 513 midislider MasterAudio;
#X obj 567 177 s MIDICTL_IN;
#X obj 572 123 hsl 128 15 0 127 0 0 empty empty empty -2 -8 0 10 -262144
-1 -1 6100 1;
#X obj 21 141 midislider invol-1 BasseMic;
#X msg 567 143 \$1 4 10;
#X obj 21 202 pofvu inenv-1;
#X obj 21 329 pofvu inenv-2;
#X obj 22 451 pofvu inenv-3;
#X obj 21 271 midislider invol-2 AltoMic;
#X obj 22 391 midislider invol-3 PercuMic;
#X obj 22 575 pofvu outenv-0;
#X obj 22 595 pofvu outenv-1;
#X obj 22 615 pofvu outenv-2;
#X obj 22 635 pofvu outenv-3;
#X obj 290 139 midislider BoidsPattern;
#N canvas 1282 264 450 300 translate 0;
#X obj 89 50 poftranslate, f 29;
#X obj 155 25 nbx 5 14 -1e+37 1e+37 0 1 empty empty empty 0 -8 0 10
-262144 -1 -1 380 256;
#X obj 212 25 nbx 5 14 -1e+37 1e+37 0 1 empty empty empty 0 -8 0 10
-262144 -1 -1 -131 256;
#X obj 89 72 outlet;
#X obj 35 20 r controlershead;
#X connect 0 0 3 0;
#X connect 1 0 0 1;
#X connect 2 0 0 2;
#X connect 4 0 0 0;
#X coords 0 -1 1 1 120 32 1 150 10;
#X restore 287 217 pd translate;
#N canvas 1 81 430 228 label 0;
#X obj 37 37 inlet;
#X obj 37 58 t a a, f 20;
#X obj 37 79 poftranslate 0 30;
#X obj 37 100 outlet;
#X obj 154 110 poftexts bold 40;
#X obj 278 64 loadbang;
#X msg 278 85 text Audio Pattern;
#X floatatom 191 58 5 0 0 0 - - -;
#X floatatom 228 59 5 0 0 0 - - -;
#X obj 154 84 poftranslate 70 -15;
#X connect 0 0 1 0;
#X connect 1 0 2 0;
#X connect 1 1 9 0;
#X connect 2 0 3 0;
#X connect 5 0 6 0;
#X connect 6 0 4 0;
#X connect 7 0 9 1;
#X connect 8 0 9 2;
#X connect 9 0 4 0;
#X restore 287 254 pd label;
#N canvas 1282 264 450 300 translate 0;
#X obj 89 50 poftranslate, f 29;
#X obj 155 25 nbx 5 14 -1e+37 1e+37 0 1 empty empty empty 0 -8 0 10
-262144 -1 -1 369 256;
#X obj 212 25 nbx 5 14 -1e+37 1e+37 0 1 empty empty empty 0 -8 0 10
-262144 -1 -1 344 256;
#X obj 89 72 outlet;
#X obj 35 20 r controlershead;
#X connect 0 0 3 0;
#X connect 1 0 0 1;
#X connect 2 0 0 2;
#X connect 4 0 0 0;
#X coords 0 -1 1 1 120 32 1 150 10;
#X restore 292 567 pd translate;
#N canvas 34 321 681 314 midilock 0;
#X obj 37 37 inlet;
#X obj 37 58 t a a, f 20;
#X obj 37 79 poftranslate 0 30;
#X obj 37 100 outlet;
#X obj 154 185 poftexts bold 40;
#X obj 278 32 loadbang;
#X floatatom 191 58 5 0 0 0 - - -;
#X floatatom 228 59 5 0 0 0 - - -;
#X obj 154 84 poftranslate 70 -15;
#X msg 278 70 text MIDI unlock;
#X obj 154 106 t a a, f 20;
#X obj 271 143 pofcolor 0.2 0.2 0.2 1;
#X obj 271 164 pofrect 220 50;
#X obj 388 20 r MIDI-UNLOCK;
#X obj 271 185 poftouch 220 50;
#X obj 154 141 pofcolor 0 0 0 1;
#X obj 388 112 max 0.2;
#X obj 358 206 route down;
#X obj 358 227 b;
#X obj 358 248 f;
#X obj 358 269 == 0;
#X obj 385 226 r MIDI-UNLOCK;
#X obj 358 290 s MIDI-UNLOCK;
#X obj 388 41 sel 0 1;
#X msg 292 90 text MIDI lock;
#X obj 517 169 loadbang;
#X msg 517 190 0;
#X connect 0 0 1 0;
#X connect 1 0 2 0;
#X connect 1 1 8 0;
#X connect 2 0 3 0;
#X connect 5 0 9 0;
#X connect 6 0 8 1;
#X connect 7 0 8 2;
#X connect 8 0 10 0;
#X connect 9 0 4 0;
#X connect 10 0 15 0;
#X connect 10 1 11 0;
#X connect 11 0 12 0;
#X connect 12 0 14 0;
#X connect 13 0 16 0;
#X connect 13 0 23 0;
#X connect 14 1 17 0;
#X connect 15 0 4 0;
#X connect 16 0 11 1;
#X connect 16 0 11 2;
#X connect 16 0 11 3;
#X connect 17 0 18 0;
#X connect 18 0 19 0;
#X connect 19 0 20 0;
#X connect 20 0 22 0;
#X connect 21 0 19 1;
#X connect 23 0 9 0;
#X connect 23 1 24 0;
#X connect 24 0 4 0;
#X connect 25 0 26 0;
#X connect 26 0 22 0;
#X restore 292 608 pd midilock;
#X obj 287 280 midiradio audiopattern 1;
#X obj 287 343 midiradio audiopattern 2;
#X obj 287 402 midiradio audiopattern 3;
#X obj 287 461 midiradio audiopattern 4;
#X obj 469 461 midiradio audiopattern 8;
#X obj 469 402 midiradio audiopattern 7;
#X obj 469 341 midiradio audiopattern 6;
#X obj 469 280 midiradio audiopattern 5;
#X connect 0 0 1 0;
#X connect 0 0 16 0;
#X connect 4 0 5 0;
#X connect 5 0 7 0;
#X connect 6 0 7 1;
#X connect 8 0 13 0;
#X connect 9 0 10 0;
#X connect 9 1 10 1;
#X connect 9 2 10 2;
#X connect 10 0 11 0;
#X connect 13 0 6 0;
#X connect 14 0 37 0;
#X connect 16 0 15 0;
#X connect 17 0 26 0;
#X connect 18 0 19 0;
#X connect 19 0 16 0;
#X connect 20 0 31 0;
#X connect 21 0 32 0;
#X connect 22 0 23 0;
#X connect 23 0 33 0;
#X connect 25 0 27 0;
#X connect 26 0 28 0;
#X connect 27 0 24 0;
#X connect 31 0 29 0;
#X connect 32 0 30 0;
#X connect 33 0 34 0;
#X connect 34 0 35 0;
#X connect 35 0 36 0;
#X connect 38 0 39 0;
#X connect 39 0 42 0;
#X connect 40 0 41 0;
#X connect 42 0 43 0;
#X connect 42 1 49 0;
#X connect 43 0 44 0;
#X connect 44 0 45 0;
#X connect 47 0 46 0;
#X connect 48 0 47 0;
#X connect 49 0 48 0;
#X restore 174 180 pd controls;
#N canvas 966 243 386 257 autoscale 0;
#X obj 63 8 inlet;
#X obj 200 89 pofwin;
#X obj 198 60 tgl 15 0 empty empty empty 17 7 0 10 -262144 -1 -1 0
1;
#X obj 218 21 loadbang;
#X obj 200 110 route window;
#X obj 200 131 unpack f f;
#X floatatom 200 160 5 0 0 0 - - -;
#X floatatom 257 162 5 0 0 0 - - -;
#X obj 218 40 del 1000;
#X obj 63 149 pofscale 1 1 1;
#X obj 115 122 f;
#X obj 200 203 min;
#X obj 63 200 outlet;
#X obj 257 185 / 745;
#X obj 200 182 / 1305;
#X msg 218 59 open \, window 1100 630;
#X connect 0 0 9 0;
#X connect 1 0 4 0;
#X connect 2 0 1 0;
#X connect 3 0 8 0;
#X connect 4 0 5 0;
#X connect 5 0 6 0;
#X connect 5 1 7 0;
#X connect 6 0 14 0;
#X connect 7 0 13 0;
#X connect 8 0 15 0;
#X connect 9 0 12 0;
#X connect 10 0 9 1;
#X connect 10 0 9 2;
#X connect 11 0 10 0;
#X connect 13 0 11 1;
#X connect 14 0 11 0;
#X connect 15 0 1 0;
#X restore 32 120 pd autoscale;
#N canvas 1 108 257 244 cam->proj 0;
#X obj 39 49 r \$0-q2qP1-M-coords;
#N canvas 681 125 748 587 quad2quad 0;
#X obj 34 34 inlet;
#X text 49 6 https://blog.mbedded.ninja/mathematics/geometry/projective-transformations/
, f 76;
#X obj 34 334 outlet;
#X obj 139 74 r \$0-q2qP1-coords;
#X obj 472 231 s \$0-q2qP1-coords;
#X obj 34 173 quad2quad;
#X obj 475 266 r \$0-q2qP1-coords;
#X obj 475 308 print;
#X msg 472 206 0 20 56 \, 1 684 304 \, 2 572 536 \, 3 108 680;
#X obj 139 103 list prepend source;
#X obj 139 124 list trim;
#X obj 268 103 list prepend destination;
#X obj 268 124 list trim;
#X obj 82 103 b;
#X obj 82 124 del 50;
#X obj 475 287 spigot;
#X obj 521 288 tgl 15 0 empty empty empty 17 7 0 10 -262144 -1 -1 0
1;
#X obj 58 225 unpack f f;
#X floatatom 58 246 5 0 0 0 - - -;
#X floatatom 115 249 5 0 0 0 - - -;
#X obj 96 75 bng 15 250 50 0 empty empty empty 17 7 0 10 -262144 -1
-1;
#X msg 244 185 20 56 684 304 572 536 108 680;
#X obj 268 76 r \$0-q2qP2-coords;
#X obj 476 160 s \$0-q2qP2-coords;
#X msg 476 136 0 0 0 \, 1 1023 0 \, 2 1023 760 \, 3 0 760;
#X obj 195 229 print;
#X connect 0 0 5 0;
#X connect 3 0 13 0;
#X connect 3 0 9 0;
#X connect 5 0 2 0;
#X connect 5 0 17 0;
#X connect 6 0 15 0;
#X connect 8 0 4 0;
#X connect 9 0 10 0;
#X connect 10 0 5 0;
#X connect 11 0 12 0;
#X connect 12 0 5 0;
#X connect 13 0 14 0;
#X connect 14 0 5 0;
#X connect 15 0 7 0;
#X connect 16 0 15 1;
#X connect 17 0 18 0;
#X connect 17 1 19 0;
#X connect 20 0 13 0;
#X connect 21 0 9 0;
#X connect 22 0 11 0;
#X connect 22 0 13 0;
#X connect 24 0 23 0;
#X restore 73 124 pd quad2quad;
#X obj 39 169 s \$0-q2qP2-M-coords;
#X obj 39 102 list split 1;
#X obj 39 148 list append;
#X obj 123 68 r proj-manual;
#X obj 39 79 spigot 1;
#X obj 123 89 == 0;
#X connect 0 0 6 0;
#X connect 1 0 4 1;
#X connect 3 0 4 0;
#X connect 3 1 1 0;
#X connect 4 0 2 0;
#X connect 5 0 7 0;
#X connect 6 0 3 0;
#X connect 7 0 6 1;
#X restore 364 26 pd cam->proj;
#N canvas 1090 174 587 441 camera 0;
#X obj 25 195 pofscale 0.44 0.44 1;
#X obj 25 142 poftranslate 0 -390;
#X obj 25 274 q2qCanvas \$0 1;
#X msg 106 250 title CAMERA;
#X obj 106 227 loadbang;
#X obj 25 369 pofipcam 1023 760;
#X msg 146 304 connect http://rouewifi.local:8080/?action=stream;
#X obj 146 281 loadbang;
#X msg 147 327 disconnect;
#X obj 25 77 inlet;
#X floatatom 81 169 5 0 0 0 - - -;
#X floatatom 62 117 5 0 0 0 - - -;
#X floatatom 104 115 5 0 0 0 - - -;
#X obj 152 8 r proj-debug;
#X obj 152 29 sel 0 1;
#X obj 105 82 unpack f f f;
#X msg 247 57 0.63 -325 -45;
#X obj 195 185 r proj-debug;
#X obj 195 207 sel 1 0;
#X msg 192 250 title;
#X obj 331 136 r proj-debug;
#X msg 331 174 -1 show \$1;
#X obj 303 145 tgl 15 0 empty empty empty 17 7 0 10 -262144 -1 -1 0
1;
#X obj 331 199 s \$0-q2qP1-props;
#X obj 441 175 == 0;
#X msg 441 196 0 forcetouch \$1;
#X obj 441 216 s \$0-q2qP1-M-props;
#X msg 152 55 0.92 -180 -20;
#X obj 124 391 route connected;
#X obj 124 412 tgl 15 0 empty empty empty 17 7 0 10 -262144 -1 -1 1
1;
#X msg 199 346 connect http://rouewifiiii.local:8080/?action=stream
;
#X obj 217 279 r camera-reconnect;
#X connect 0 0 2 0;
#X connect 1 0 0 0;
#X connect 2 0 5 0;
#X connect 3 0 2 1;
#X connect 5 1 28 0;
#X connect 6 0 5 0;
#X connect 7 0 6 0;
#X connect 8 0 5 0;
#X connect 9 0 1 0;
#X connect 10 0 0 1;
#X connect 10 0 0 2;
#X connect 11 0 1 1;
#X connect 12 0 1 2;
#X connect 13 0 14 0;
#X connect 14 0 27 0;
#X connect 14 1 16 0;
#X connect 15 0 10 0;
#X connect 15 1 11 0;
#X connect 15 2 12 0;
#X connect 16 0 15 0;
#X connect 17 0 18 0;
#X connect 18 0 3 0;
#X connect 18 1 19 0;
#X connect 19 0 2 1;
#X connect 20 0 21 0;
#X connect 20 0 24 0;
#X connect 21 0 23 0;
#X connect 22 0 21 0;
#X connect 24 0 25 0;
#X connect 25 0 26 0;
#X connect 27 0 15 0;
#X connect 28 0 29 0;
#X connect 30 0 5 0;
#X connect 31 0 6 0;
#X restore 32 182 pd camera;
#N canvas 230 122 450 300 projector 0;
#X obj 90 9 inlet;
#X floatatom 164 122 5 0 0 0 - - -;
#X floatatom 127 66 5 0 0 0 - - -;
#X floatatom 169 64 5 0 0 0 - - -;
#X obj 90 172 q2qCanvas \$0 2;
#X msg 225 158 title PROJECTOR;
#N canvas 1 81 447 300 debug-square 0;
#X obj 96 122 poffill 0;
#X floatatom 174 101 5 0 0 0 - - -;
#X floatatom 217 101 5 0 0 0 - - -;
#X obj 96 147 pofrect 340 250;
#X obj 96 76 inlet;
#X connect 0 0 3 0;
#X connect 1 0 3 1;
#X connect 2 0 3 2;
#X connect 4 0 0 0;
#X restore 90 193 pd debug-square;
#X obj 225 135 loadbang;
#X obj 146 10 r proj-debug;
#X obj 90 42 pofvisible;
#X obj 90 148 pofscale 0.63 0.63 1;
#X obj 90 91 poftranslate 325 -45;
#X connect 0 0 9 0;
#X connect 1 0 10 1;
#X connect 1 0 10 2;
#X connect 2 0 11 1;
#X connect 3 0 11 2;
#X connect 4 0 6 0;
#X connect 5 0 4 1;
#X connect 7 0 5 0;
#X connect 8 0 9 0;
#X connect 9 0 11 0;
#X connect 10 0 4 0;
#X connect 11 0 10 0;
#X restore 93 181 pd projector;
#X obj 32 142 t a a a a, f 31;
#N canvas 1 81 450 300 frame 0;
#X obj 109 10 inlet;
#X obj 109 31 poffill 0;
#X obj 109 52 pofcolor 1 1 1 0.2;
#X floatatom 150 94 5 0 0 0 - - -;
#X floatatom 200 93 5 0 0 0 - - -;
#X obj 109 114 pofrect 1300 740;
#X connect 0 0 1 0;
#X connect 1 0 2 0;
#X connect 2 0 5 0;
#X connect 3 0 5 1;
#X connect 4 0 5 2;
#X restore 258 179 pd frame;
#X connect 6 0 9 0;
#X connect 9 0 13 0;
#X connect 13 0 11 0;
#X connect 13 1 12 0;
#X connect 13 2 8 0;
#X connect 13 3 14 0;
