#N canvas 586 79 568 505 10;
#X declare -lib pof;
#X declare -path quad2quad;
#X obj 14 6 declare -lib pof;
#X obj 19 110 r \$0-q2qP1-M-coords;
#N canvas 681 125 748 587 quad2quad 0;
#X obj 34 34 inlet;
#X text 49 6 https://blog.mbedded.ninja/mathematics/geometry/projective-transformations/
, f 76;
#X obj 34 334 outlet;
#X obj 139 74 r \$0-q2qP1-coords;
#X obj 472 231 s \$0-q2qP1-coords;
#X obj 34 173 quad2quad;
#X obj 475 266 r \$0-q2qP1-coords;
#X obj 475 308 print;
#X msg 472 206 0 20 56 \, 1 684 304 \, 2 572 536 \, 3 108 680;
#X obj 139 103 list prepend source;
#X obj 139 124 list trim;
#X obj 268 103 list prepend destination;
#X obj 268 124 list trim;
#X obj 82 103 b;
#X obj 82 124 del 50;
#X obj 475 287 spigot;
#X obj 521 288 tgl 15 0 empty empty empty 17 7 0 10 -262144 -1 -1 0
1;
#X obj 58 225 unpack f f;
#X floatatom 58 246 5 0 0 0 - - -;
#X floatatom 115 249 5 0 0 0 - - -;
#X obj 96 75 bng 15 250 50 0 empty empty empty 17 7 0 10 -262144 -1
-1;
#X msg 244 185 20 56 684 304 572 536 108 680;
#X obj 268 76 r \$0-q2qP2-coords;
#X obj 476 160 s \$0-q2qP2-coords;
#X msg 476 136 0 0 0 \, 1 1023 0 \, 2 1023 760 \, 3 0 760;
#X obj 195 229 print;
#X connect 0 0 5 0;
#X connect 3 0 13 0;
#X connect 3 0 9 0;
#X connect 5 0 2 0;
#X connect 5 0 17 0;
#X connect 6 0 15 0;
#X connect 8 0 4 0;
#X connect 9 0 10 0;
#X connect 10 0 5 0;
#X connect 11 0 12 0;
#X connect 12 0 5 0;
#X connect 13 0 14 0;
#X connect 14 0 5 0;
#X connect 15 0 7 0;
#X connect 16 0 15 1;
#X connect 17 0 18 0;
#X connect 17 1 19 0;
#X connect 20 0 13 0;
#X connect 21 0 9 0;
#X connect 22 0 11 0;
#X connect 22 0 13 0;
#X connect 24 0 23 0;
#X restore 53 185 pd quad2quad;
#X obj 19 230 s \$0-q2qP2-M-coords;
#X obj 16 46 poffonts bold quad2quad/Quicksand-Bold.ttf;
#X obj 15 27 declare -path quad2quad;
#N canvas 590 299 504 303 pof-visu 0;
#X obj 25 19 pofhead;
#X obj 25 137 t a a, f 21;
#X obj 351 85 pofwin;
#X obj 349 56 tgl 15 0 empty empty empty 17 7 0 10 -262144 -1 -1 0
1;
#X obj 369 17 loadbang;
#X obj 351 106 route window;
#X obj 351 127 unpack f f;
#X floatatom 351 156 5 0 0 0 - - -;
#X floatatom 408 158 5 0 0 0 - - -;
#X obj 369 36 del 1000;
#X floatatom 117 7 5 0 0 0 - - -;
#X obj 25 76 t a a, f 31;
#X obj 25 116 pofscale 0.44 0.44 1;
#X msg 369 55 open \, window 460 750;
#X obj 25 159 poftranslate 0 -390;
#X obj 148 159 poftranslate 0 390;
#X obj 25 96 poftranslate 0 -30;
#X obj 25 182 q2qCanvas \$0 1;
#X obj 148 181 q2qCanvas \$0 2;
#X msg 59 236 title CAMERA;
#X msg 185 232 title PROJECTOR;
#X obj 133 211 loadbang;
#N canvas 581 295 858 494 controls 0;
#X obj 26 20 inlet;
#X obj 72 153 loadbang;
#X msg 72 174 draw 1;
#X obj 114 10 nbx 5 14 -1e+37 1e+37 0 0 empty empty empty 0 -8 0 10
-262144 -1 -1 0 256;
#X obj 26 110 t a a;
#X obj 53 130 pofcolor 1 0 0 1;
#X obj 26 341 pofcolor 0 0 0 1;
#X obj 26 404 poftexts bold 30;
#X obj 50 363 loadbang;
#X msg 50 384 text SAVE;
#X obj 134 220 route down up, f 18;
#X msg 118 275 1;
#X obj 134 241 b;
#X msg 147 296 0;
#X obj 118 296 f;
#X obj 147 275 del 250;
#X obj 53 198 poftouch 80 40;
#X obj 26 41 poftranslate 0 340, f 26;
#X obj 202 276 s \$0-save;
#X obj 312 142 loadbang;
#X msg 312 163 draw 1;
#X obj 266 99 t a a;
#X obj 266 339 pofcolor 0 0 0 1;
#X obj 266 440 poftexts bold 30;
#X obj 338 373 loadbang;
#X obj 380 210 route down up, f 18;
#X msg 364 265 1;
#X obj 380 231 b;
#X msg 393 286 0;
#X obj 364 286 f;
#X obj 393 265 del 250;
#X obj 458 236 r proj-manual;
#X obj 443 306 s proj-manual;
#X obj 443 261 f;
#X obj 443 282 == 0;
#X floatatom 295 42 5 0 0 0 - - -;
#X obj 395 330 r proj-manual;
#X obj 395 351 sel 0 1;
#X msg 414 376 text Proj: manual;
#X msg 395 394 text Proj: auto;
#X floatatom 50 65 5 0 0 0 - - -;
#X obj 26 91 poftranslate 185;
#X obj 293 187 poftouch 170 40;
#X obj 293 119 pofcolor 0.2 0.7 0.2 1;
#X obj 589 149 loadbang;
#X msg 589 170 draw 1;
#X obj 543 106 t a a;
#X obj 543 346 pofcolor 0 0 0 1;
#X obj 543 447 poftexts bold 30;
#X obj 615 380 loadbang;
#X obj 657 217 route down up, f 18;
#X msg 641 272 1;
#X obj 657 238 b;
#X msg 670 293 0;
#X obj 641 293 f;
#X obj 670 272 del 250;
#X obj 720 268 f;
#X obj 720 289 == 0;
#X obj 672 358 sel 0 1;
#X obj 570 194 poftouch 170 40;
#X obj 570 126 pofcolor 0.2 0.7 0.2 1;
#X msg 691 383 text Hide debug;
#X floatatom 576 49 5 0 0 0 - - -;
#X msg 672 401 text Show debug;
#X obj 735 243 r proj-debug;
#X obj 720 312 s proj-debug;
#X obj 763 291 s 2video;
#X msg 763 269 debug \$1;
#X obj 672 337 r proj-debug;
#X obj 650 15 r proj-debug;
#X obj 650 36 sel 0 1;
#X obj 622 102 unpack f f f;
#X msg 647 76 0.3 0.3 0;
#X msg 716 77 1 1 0;
#X obj 266 79 poftranslate -140;
#X obj 543 79 poftranslate 45;
#X connect 0 0 17 0;
#X connect 1 0 2 0;
#X connect 2 0 16 0;
#X connect 3 0 17 2;
#X connect 4 0 6 0;
#X connect 4 1 5 0;
#X connect 5 0 16 0;
#X connect 6 0 7 0;
#X connect 8 0 9 0;
#X connect 9 0 7 0;
#X connect 10 0 12 0;
#X connect 11 0 14 0;
#X connect 12 0 11 0;
#X connect 12 0 15 0;
#X connect 12 0 18 0;
#X connect 13 0 14 0;
#X connect 14 0 6 1;
#X connect 14 0 6 2;
#X connect 14 0 6 3;
#X connect 15 0 13 0;
#X connect 16 1 10 0;
#X connect 17 0 41 0;
#X connect 17 0 74 0;
#X connect 17 0 75 0;
#X connect 19 0 20 0;
#X connect 20 0 42 0;
#X connect 21 0 22 0;
#X connect 21 1 43 0;
#X connect 22 0 23 0;
#X connect 24 0 39 0;
#X connect 25 0 27 0;
#X connect 26 0 29 0;
#X connect 27 0 26 0;
#X connect 27 0 30 0;
#X connect 27 0 33 0;
#X connect 28 0 29 0;
#X connect 29 0 22 1;
#X connect 29 0 22 2;
#X connect 29 0 22 3;
#X connect 30 0 28 0;
#X connect 31 0 33 1;
#X connect 33 0 34 0;
#X connect 34 0 32 0;
#X connect 35 0 74 1;
#X connect 36 0 37 0;
#X connect 37 0 39 0;
#X connect 37 1 38 0;
#X connect 38 0 23 0;
#X connect 39 0 23 0;
#X connect 40 0 41 1;
#X connect 41 0 4 0;
#X connect 42 1 25 0;
#X connect 43 0 42 0;
#X connect 44 0 45 0;
#X connect 45 0 59 0;
#X connect 46 0 47 0;
#X connect 46 1 60 0;
#X connect 47 0 48 0;
#X connect 49 0 63 0;
#X connect 50 0 52 0;
#X connect 51 0 54 0;
#X connect 52 0 51 0;
#X connect 52 0 55 0;
#X connect 52 0 56 0;
#X connect 53 0 54 0;
#X connect 54 0 47 1;
#X connect 54 0 47 2;
#X connect 54 0 47 3;
#X connect 55 0 53 0;
#X connect 56 0 57 0;
#X connect 57 0 65 0;
#X connect 58 0 63 0;
#X connect 58 1 61 0;
#X connect 59 1 50 0;
#X connect 60 0 59 0;
#X connect 61 0 48 0;
#X connect 62 0 75 1;
#X connect 63 0 48 0;
#X connect 64 0 56 1;
#X connect 64 0 67 0;
#X connect 67 0 66 0;
#X connect 68 0 58 0;
#X connect 69 0 70 0;
#X connect 70 0 72 0;
#X connect 70 1 73 0;
#X connect 71 0 60 1;
#X connect 71 1 60 2;
#X connect 71 2 60 3;
#X connect 72 0 71 0;
#X connect 73 0 71 0;
#X connect 74 0 21 0;
#X connect 75 0 46 0;
#X restore 208 107 pd controls;
#X obj 25 48 pofscale 1 1 1;
#X obj 408 181 / 750;
#X obj 77 21 f;
#X obj 351 178 / 460;
#X obj 351 199 min;
#X connect 0 0 23 0;
#X connect 1 0 14 0;
#X connect 1 1 15 0;
#X connect 2 0 5 0;
#X connect 3 0 2 0;
#X connect 4 0 9 0;
#X connect 5 0 6 0;
#X connect 6 0 7 0;
#X connect 6 1 8 0;
#X connect 7 0 26 0;
#X connect 8 0 24 0;
#X connect 9 0 13 0;
#X connect 10 0 12 1;
#X connect 10 0 12 2;
#X connect 11 0 16 0;
#X connect 11 1 22 0;
#X connect 12 0 1 0;
#X connect 13 0 2 0;
#X connect 14 0 17 0;
#X connect 15 0 18 0;
#X connect 16 0 12 0;
#X connect 19 0 17 1;
#X connect 20 0 18 1;
#X connect 21 0 19 0;
#X connect 21 0 20 0;
#X connect 23 0 11 0;
#X connect 24 0 27 1;
#X connect 25 0 23 1;
#X connect 25 0 23 2;
#X connect 26 0 27 0;
#X connect 27 0 25 0;
#X restore 15 70 pd pof-visu;
#X obj 235 142 list split 1;
#X obj 235 119 r \$0-q2qP2-coords;
#X obj 269 249 s 2video;
#X obj 269 164 unpack f f;
#X obj 269 185 / 1023;
#X obj 269 206 pack f f;
#X obj 326 185 / 760;
#X msg 269 228 p 2 \$1 \$2;
#N canvas 979 309 450 566 save/load 0;
#X obj 335 32 loadbang;
#X obj 148 47 r \$0-q2qP2-coords;
#X obj 37 47 r \$0-q2qP1-coords;
#X obj 148 68 list split 1;
#X obj 148 89 * 2;
#X obj 148 110 + 8;
#X obj 148 131 list append;
#X obj 148 152 s \$0-coords;
#X obj 37 66 list split 1;
#X obj 37 87 * 2;
#X obj 37 129 list append;
#X obj 37 150 s \$0-coords;
#X obj 37 108 + 0;
#X obj 191 208 r \$0-save;
#X obj 38 186 r \$0-load;
#X msg 65 227 read q2q_coords.txt;
#X obj 65 258 s \$0-coords;
#X msg 191 229 write q2q_coords.txt;
#X obj 36 21 table \$0-coords 16;
#X obj 335 54 s \$0-load;
#X obj 38 204 t b b;
#X msg 38 310 0 \, 1 \, 2 \, 3;
#X obj 65 374 t f f, f 8;
#X obj 65 353 * 2;
#X obj 110 395 + 1;
#X obj 110 415 tabread \$0-coords;
#X obj 65 438 tabread \$0-coords;
#X obj 38 331 t f f;
#X obj 65 459 pack f f;
#X obj 38 482 list append;
#X obj 38 503 s \$0-q2qP1-coords;
#X obj 245 394 t f f, f 8;
#X obj 245 353 * 2;
#X obj 290 415 + 1;
#X obj 290 435 tabread \$0-coords;
#X obj 245 458 tabread \$0-coords;
#X obj 218 331 t f f;
#X obj 245 479 pack f f;
#X obj 218 502 list append;
#X obj 245 373 + 8;
#X obj 218 523 s \$0-q2qP2-coords;
#X obj 311 34 bng 15 250 50 0 empty empty empty 17 7 0 10 -262144 -1
-1;
#X connect 0 0 19 0;
#X connect 1 0 3 0;
#X connect 2 0 8 0;
#X connect 3 0 4 0;
#X connect 3 1 6 1;
#X connect 4 0 5 0;
#X connect 5 0 6 0;
#X connect 6 0 7 0;
#X connect 8 0 9 0;
#X connect 8 1 10 1;
#X connect 9 0 12 0;
#X connect 10 0 11 0;
#X connect 12 0 10 0;
#X connect 13 0 17 0;
#X connect 14 0 20 0;
#X connect 15 0 16 0;
#X connect 17 0 16 0;
#X connect 20 0 21 0;
#X connect 20 1 15 0;
#X connect 21 0 27 0;
#X connect 21 0 36 0;
#X connect 22 0 26 0;
#X connect 22 1 24 0;
#X connect 23 0 22 0;
#X connect 24 0 25 0;
#X connect 25 0 28 1;
#X connect 26 0 28 0;
#X connect 27 0 29 0;
#X connect 27 1 23 0;
#X connect 28 0 29 1;
#X connect 29 0 30 0;
#X connect 31 0 35 0;
#X connect 31 1 33 0;
#X connect 32 0 39 0;
#X connect 33 0 34 0;
#X connect 34 0 37 1;
#X connect 35 0 37 0;
#X connect 36 0 38 0;
#X connect 36 1 32 0;
#X connect 37 0 38 1;
#X connect 38 0 40 0;
#X connect 39 0 31 0;
#X connect 41 0 19 0;
#X restore 109 71 pd save/load;
#X obj 19 163 list split 1;
#X obj 19 209 list append;
#X obj 103 129 r proj-manual;
#X obj 397 70 r \$0-q2qP2-M-coords;
#X obj 397 146 unpack f f f;
#X obj 397 194 pack f f f;
#X obj 431 170 / 1023;
#X obj 479 169 / 760;
#X obj 397 239 s 2video;
#X msg 397 218 p \$1 \$2 \$3;
#X obj 19 140 spigot 1;
#X obj 103 150 == 0;
#X obj 397 170 + 1;
#X obj 29 284 r fromCamera;
#X obj 63 414 * 1023;
#X obj 110 413 * 760;
#X obj 29 305 list split 2;
#X obj 29 326 list prepend 0;
#X obj 122 305 list split 2;
#X obj 215 305 list split 2;
#X obj 308 305 list split 2;
#X obj 122 326 list prepend 1;
#X obj 215 326 list prepend 2;
#X obj 308 326 list prepend 3;
#X obj 29 349 unpack f f f;
#X obj 29 435 pack f f f, f 12;
#X obj 29 457 s \$0-q2qP1-M-coords;
#X obj 259 386 r \$0-q2qP2-M-clicked;
#X obj 217 363 r \$0-q2qP1-M-clicked;
#X obj 217 384 f;
#X obj 217 448 s \$0-q2qP1-M-props;
#X obj 335 447 s \$0-q2qP2-M-props;
#N canvas 1 81 450 300 firstpoint 0;
#X obj 37 37 inlet;
#X obj 37 255 outlet;
#X obj 37 78 list split 1, f 47;
#X obj 70 98 r \$0-firstpoint;
#X obj 37 128 sel 0, f 6;
#X obj 70 148 sel 0;
#X msg 37 149 0;
#X obj 70 169 f 0, f 9;
#X obj 37 228 list append, f 23;
#X obj 37 202 f;
#X connect 0 0 2 0;
#X connect 2 0 4 0;
#X connect 2 1 8 1;
#X connect 3 0 4 1;
#X connect 3 0 7 1;
#X connect 4 0 6 0;
#X connect 4 1 5 0;
#X connect 5 0 7 0;
#X connect 5 1 9 0;
#X connect 6 0 9 0;
#X connect 7 0 9 0;
#X connect 8 0 1 0;
#X connect 9 0 8 0;
#X restore 411 96 pd firstpoint;
#X obj 192 472 s \$0-firstpoint;
#X msg 217 413 -1 color 1 1 0 \, -1 size 80 \, \$1 color 0.5 1 0 \,
\$1 size 50;
#X obj 110 372 * -1;
#X obj 110 393 + 1;
#N canvas 218 156 450 300 allfirst 0;
#X obj 84 15 inlet;
#X msg 84 36 0 \$2 \$3;
#X obj 84 57 outlet;
#X connect 0 0 1 0;
#X connect 1 0 2 0;
#X restore 479 114 pd allfirst;
#X obj 510 145 print;
#X obj 417 274 print;
#X connect 1 0 26 0;
#X connect 2 0 17 1;
#X connect 7 1 10 0;
#X connect 8 0 7 0;
#X connect 10 0 11 0;
#X connect 10 1 13 0;
#X connect 11 0 12 0;
#X connect 12 0 14 0;
#X connect 13 0 12 1;
#X connect 14 0 9 0;
#X connect 16 0 17 0;
#X connect 16 1 2 0;
#X connect 17 0 3 0;
#X connect 18 0 27 0;
#X connect 19 0 20 0;
#X connect 20 0 28 0;
#X connect 20 1 22 0;
#X connect 20 2 23 0;
#X connect 21 0 25 0;
#X connect 22 0 21 1;
#X connect 23 0 21 2;
#X connect 25 0 24 0;
#X connect 26 0 16 0;
#X connect 27 0 26 1;
#X connect 28 0 21 0;
#X connect 29 0 32 0;
#X connect 30 0 41 1;
#X connect 31 0 41 2;
#X connect 32 0 33 0;
#X connect 32 1 34 0;
#X connect 33 0 40 0;
#X connect 34 0 37 0;
#X connect 34 1 35 0;
#X connect 35 0 38 0;
#X connect 35 1 36 0;
#X connect 36 0 39 0;
#X connect 37 0 40 0;
#X connect 38 0 40 0;
#X connect 39 0 40 0;
#X connect 40 0 41 0;
#X connect 40 1 30 0;
#X connect 40 2 51 0;
#X connect 41 0 42 0;
#X connect 43 0 45 0;
#X connect 44 0 45 0;
#X connect 45 0 50 0;
#X connect 45 0 49 0;
#X connect 50 0 46 0;
#X connect 50 0 47 0;
#X connect 51 0 52 0;
#X connect 52 0 31 0;
#X connect 53 0 20 0;
