#N canvas 247 149 926 648 10;
#X obj 13 37 inlet;
#X obj 282 10 r MIDICTL_IN;
#X text 364 9 val-ctl-chan;
#X obj 282 34 spigot, f 29;
#X obj 453 11 r \$0-learn;
#X obj 562 8 r midi-learn-reset;
#X obj 562 49 s \$0-learn;
#X msg 562 29 0;
#X obj 282 58 t b a, f 13;
#X obj 357 79 unpack f f f;
#X obj 282 79 s MIDI-save;
#X obj 109 73 hsl 128 18 0 1 0 0 \$1---- \$1---- empty -2 -8 0 10 -262144
-262144 -1 0 1;
#X obj 134 47 nbx 2 14 0 128 0 0 \$1-\$2-chan-snd \$1-\$2-chan-rcv
chan -25 7 0 10 -262144 -1 -1 1 256;
#X obj 197 47 nbx 3 14 0 128 0 0 \$1-\$2-ctl-snd \$1-\$2-ctl-rcv ctl
-20 7 0 10 -262144 -1 -1 32 256;
#X obj 699 72 r MIDICTL_IN;
#X msg 699 93 \$3 \$2 \$1;
#X obj 699 115 route -1, f 11;
#X obj 699 137 route -1, f 11;
#X obj 244 46 bng 15 250 50 0 \$0-learnb-snd \$0-learnb-rcv learn -3
-7 0 8 -258699 -1 -1;
#X obj 568 100 r \$0-learnb-snd;
#X obj 568 203 s \$0-learn;
#X obj 583 118 r \$0-learn;
#X obj 568 138 f;
#X obj 568 158 == 0;
#X obj 452 171 r \$0-learn;
#X obj 452 192 sel 0 1;
#X msg 452 215 color 0 22 22;
#X msg 472 236 color 13 22 22;
#X obj 452 262 s \$0-learnb-rcv;
#X obj 568 180 t f f, f 13;
#X obj 643 202 sel 1;
#X obj 643 222 s midi-learn-reset;
#X obj 249 294 poftouch 45 45;
#X obj 384 268 loadbang;
#X msg 342 293 draw 1;
#X obj 222 253 t a a;
#X obj 222 334 pofcolor 0 0 0 1;
#X obj 222 354 poftexts bold 20 0 0 -0.8;
#X obj 344 213 r \$0-learn;
#X obj 30 178 poftranslate -25;
#X obj 30 525 pofcolor 0 0 0 1;
#X msg 49 501 text \$1;
#X obj 562 329 route down;
#X obj 562 350 b;
#X obj 562 371 s \$0-learnb-snd;
#X obj 30 550 poftexts bold 40 0 0 -0.8;
#X obj 30 202 t a a a;
#X obj 178 134 pofcolor 0.5 0.5 0.5 1;
#X msg 331 333 text MIDI Learn \, width 40 \, center 1;
#X obj 481 51 tgl 15 0 empty empty empty 17 7 0 10 -262144 -1 -1 1
1;
#X obj 250 105 s \$0-learn;
#X msg 250 83 0;
#X floatatom 377 163 5 0 0 0 - - -;
#X obj 49 417 loadbang;
#X obj 112 419 bng 15 250 50 0 empty empty empty 17 7 0 10 -262144
-1 -1;
#X obj 49 459 route 0;
#X obj 49 438 list prepend \$2 \$1;
#X obj 49 481 list;
#X obj 13 66 t a a a a;
#X obj 13 618 outlet;
#X obj 178 155 pofrect 100 50;
#X obj 222 232 poftranslate 25;
#X obj 168 385 route down down, f 20;
#X obj 107 26 bng 15 250 50 0 \$1-\$2-snd \$1-\$2-rcv empty 17 7 0
10 -262144 -1 -1;
#X obj 230 470 bng 15 250 50 0 empty empty empty 17 7 0 10 -262144
-1 -1;
#X obj 455 452 r \$1-num;
#X obj 455 473 == \$2;
#X obj 455 494 sel 0 1;
#X msg 455 520 color 0 22 22;
#X msg 475 541 color 15 22 22;
#X obj 455 567 s \$1-\$2-rcv;
#X obj 271 453 r \$1-\$2-snd;
#X obj 271 474 f \$2;
#X obj 271 495 s \$1-num;
#X obj 13 593 poftranslate 0 52;
#X obj 127 619 outlet;
#X obj 127 594 poftranslate 102;
#X obj 13 570 t a a, f 20;
#X obj 168 406 b;
#X msg 92 268 draw \$1;
#X obj 699 158 sel 0;
#X obj 168 426 s \$1-\$2-rcv;
#X obj 699 179 b;
#X obj 699 199 s \$1-\$2-rcv;
#N canvas 455 219 450 300 midilock 1;
#X obj 59 13 inlet;
#X obj 59 219 outlet;
#X obj 59 138 poftouchable;
#X obj 59 159 pofcolor 0.2 0.2 0.2 1;
#X obj 123 57 r MIDI-UNLOCK;
#X obj 241 140 sel 0;
#X msg 241 161 0;
#X obj 241 184 s \$0-learn;
#X obj 123 78 max 0;
#X connect 0 0 2 0;
#X connect 2 0 3 0;
#X connect 3 0 1 0;
#X connect 4 0 2 0;
#X connect 4 0 5 0;
#X connect 4 0 8 0;
#X connect 5 0 6 0;
#X connect 6 0 7 0;
#X connect 8 0 3 1;
#X connect 8 0 3 2;
#X connect 8 0 3 3;
#X restore 222 210 pd midilock;
#X obj 853 205 print;
#X obj 427 101 s \$1-\$2-chan-rcv;
#X obj 391 124 s \$1-\$2-ctl-rcv;
#X obj 762 95 r \$1-\$2-chan-snd;
#X obj 775 115 r \$1-\$2-ctl-snd;
#X obj 701 10 apf MIDI \$1-\$2-chan \$1-\$2-chan 2;
#X obj 701 30 apf MIDI \$1-\$2-ctl \$1-\$2-ctl 2;
#X obj 249 273 pofcolor 1 1 1 1;
#X obj 349 243 max 0.65;
#X obj 69 226 poftranslate 25;
#X obj 69 294 poftouch 100 50, f 17;
#X connect 0 0 58 0;
#X connect 1 0 3 0;
#X connect 3 0 8 0;
#X connect 4 0 3 1;
#X connect 4 0 49 0;
#X connect 5 0 7 0;
#X connect 7 0 6 0;
#X connect 8 0 10 0;
#X connect 8 0 51 0;
#X connect 8 1 9 0;
#X connect 9 1 52 0;
#X connect 9 1 87 0;
#X connect 9 2 86 0;
#X connect 14 0 15 0;
#X connect 15 0 16 0;
#X connect 16 0 17 0;
#X connect 17 0 80 0;
#X connect 19 0 22 0;
#X connect 21 0 22 1;
#X connect 22 0 23 0;
#X connect 23 0 29 0;
#X connect 24 0 25 0;
#X connect 25 0 26 0;
#X connect 25 1 27 0;
#X connect 26 0 28 0;
#X connect 27 0 28 0;
#X connect 29 0 20 0;
#X connect 29 1 30 0;
#X connect 30 0 31 0;
#X connect 32 1 42 0;
#X connect 33 0 34 0;
#X connect 33 0 48 0;
#X connect 34 0 32 0;
#X connect 35 0 36 0;
#X connect 35 1 92 0;
#X connect 36 0 37 0;
#X connect 38 0 36 1;
#X connect 38 0 93 0;
#X connect 39 0 46 0;
#X connect 40 0 45 0;
#X connect 41 0 45 0;
#X connect 42 0 43 0;
#X connect 43 0 44 0;
#X connect 46 0 40 0;
#X connect 46 2 94 0;
#X connect 47 0 60 0;
#X connect 48 0 37 0;
#X connect 51 0 50 0;
#X connect 53 0 56 0;
#X connect 54 0 56 0;
#X connect 55 0 57 0;
#X connect 55 1 57 0;
#X connect 56 0 55 0;
#X connect 57 0 41 0;
#X connect 58 0 77 0;
#X connect 58 1 84 0;
#X connect 58 2 39 0;
#X connect 58 3 47 0;
#X connect 61 0 35 0;
#X connect 62 0 78 0;
#X connect 65 0 66 0;
#X connect 66 0 67 0;
#X connect 66 0 79 0;
#X connect 67 0 68 0;
#X connect 67 1 69 0;
#X connect 68 0 70 0;
#X connect 69 0 70 0;
#X connect 71 0 72 0;
#X connect 72 0 73 0;
#X connect 74 0 59 0;
#X connect 76 0 75 0;
#X connect 77 0 74 0;
#X connect 77 1 76 0;
#X connect 78 0 81 0;
#X connect 79 0 95 0;
#X connect 80 0 82 0;
#X connect 82 0 83 0;
#X connect 84 0 61 0;
#X connect 88 0 16 1;
#X connect 89 0 17 1;
#X connect 92 0 32 0;
#X connect 93 0 92 1;
#X connect 93 0 92 2;
#X connect 93 0 92 3;
#X connect 94 0 95 0;
#X connect 95 1 62 0;
#X coords 0 -1 1 1 170 55 1 100 10;
