#N canvas 983 158 926 648 10;
#X obj 30 43 inlet;
#X obj 106 27 hsl 128 15 0 1 0 0 \$1-snd \$1-rcv empty -2 -8 0 10 -262144
-1 -1 8420 1;
#X obj 701 10 apf MIDI \$1-chan \$1-chan 2;
#X obj 282 10 r MIDICTL_IN;
#X text 364 9 val-ctl-chan;
#X obj 701 30 apf MIDI \$1-ctl \$1-ctl 2;
#X obj 282 34 spigot, f 29;
#X obj 453 11 r \$0-learn;
#X obj 562 8 r midi-learn-reset;
#X obj 562 49 s \$0-learn;
#X msg 562 29 0;
#X obj 282 58 t b a, f 13;
#X obj 357 79 unpack f f f;
#X obj 426 101 s \$0-chan-rcv;
#X obj 391 124 s \$0-ctl-rcv;
#X obj 282 79 s MIDI-save;
#X obj 106 44 hsl 128 18 0 1 0 0 \$1---- \$1---- empty -2 -8 0 10 -262144
-262144 -1 700 1;
#X obj 129 46 nbx 2 14 0 16 0 0 \$1-chan-snd \$1-chan-rcv chan -25
7 0 10 -262144 -1 -1 0 256;
#X obj 199 46 nbx 3 14 0 128 0 0 \$1-ctl-snd \$1-ctl-rcv ctl -20 7
0 10 -262144 -1 -1 0 256;
#X obj 699 72 r MIDICTL_IN;
#X msg 699 93 \$3 \$2 \$1;
#X obj 699 115 route -1, f 11;
#X obj 699 137 route -1, f 11;
#X obj 762 95 r \$0-chan-snd;
#X obj 775 115 r \$0-ctl-snd;
#X obj 699 158 / 127;
#X obj 699 179 s \$1-rcv;
#X obj 244 46 bng 15 250 50 0 \$0-learnb-snd \$0-learnb-rcv learn -3
-7 0 8 -262144 -1 -1;
#X obj 568 100 r \$0-learnb-snd;
#X obj 568 203 s \$0-learn;
#X obj 583 118 r \$0-learn;
#X obj 568 138 f;
#X obj 568 158 == 0;
#X obj 452 171 r \$0-learn;
#X obj 452 192 sel 0 1;
#X msg 452 215 color 0 22 22;
#X msg 472 236 color 13 22 22;
#X obj 452 262 s \$0-learnb-rcv;
#X obj 568 180 t f f, f 13;
#X obj 643 202 sel 1;
#X obj 643 222 s midi-learn-reset;
#X obj 178 155 pofrect 300 50;
#X obj 249 294 poftouch 45 45;
#X obj 222 232 poftranslate 125;
#X obj 384 268 loadbang;
#X msg 342 293 draw 1;
#X obj 222 253 t a a;
#X obj 222 334 pofcolor 0 0 0 1;
#X obj 222 354 poftexts bold 20 0 0 -0.8;
#X obj 344 213 r \$0-learn;
#X obj 30 178 poftranslate -25;
#X obj 49 375 pofcolor 1 1 1 1;
#X obj 49 396 pofrect 10 45;
#X obj 249 273 pofcolor 1 1 1 0.5;
#X obj 349 243 max 0.5;
#X obj 84 262 poftouch 275 50;
#X floatatom 115 326 5 0 0 0 - - -;
#X obj 171 385 route move down;
#X obj 228 407 unpack f;
#X obj 171 407 unpack f;
#X obj 171 428 -, f 10;
#X obj 313 407 r \$1-snd;
#X obj 285 431 f;
#X obj 285 407 b;
#X obj 171 470 +, f 13;
#X obj 171 491 clip 0 1;
#X obj 171 512 s \$1-rcv;
#X obj 66 284 r \$1-snd;
#X obj 66 305 - 0.5;
#X obj 171 449 / 270;
#X obj 66 326 * 240;
#X obj 152 543 loadbang;
#X obj 30 585 pofcolor 0 0 0 1;
#X obj 152 564 symbol \$1;
#X msg 152 584 text \$1;
#X obj 290 530 bng 15 250 50 0 empty empty empty 17 7 0 10 -262144
-1 -1;
#X obj 562 329 route down;
#X obj 562 350 b;
#X obj 562 371 s \$0-learnb-snd;
#X obj 30 610 poftexts bold 40 0 0 -0.8;
#X obj 30 72 t a a a;
#X obj 30 202 t a a a;
#X obj 178 134 pofcolor 0.5 0.5 0.5 1;
#X obj 49 353 poftranslate -120;
#X msg 469 523 text midi learn \, width 40 \, center 1;
#X msg 469 496 text MIDI Learn \, width 40 \, center 1;
#X msg 331 331 text MIDI Learn \, width 40 \, center 1;
#X connect 0 0 80 0;
#X connect 3 0 6 0;
#X connect 6 0 11 0;
#X connect 7 0 6 1;
#X connect 8 0 10 0;
#X connect 10 0 9 0;
#X connect 11 0 15 0;
#X connect 11 1 12 0;
#X connect 12 1 14 0;
#X connect 12 2 13 0;
#X connect 19 0 20 0;
#X connect 20 0 21 0;
#X connect 21 0 22 0;
#X connect 22 0 25 0;
#X connect 23 0 21 1;
#X connect 24 0 22 1;
#X connect 25 0 26 0;
#X connect 28 0 31 0;
#X connect 30 0 31 1;
#X connect 31 0 32 0;
#X connect 32 0 38 0;
#X connect 33 0 34 0;
#X connect 34 0 35 0;
#X connect 34 1 36 0;
#X connect 35 0 37 0;
#X connect 36 0 37 0;
#X connect 38 0 29 0;
#X connect 38 1 39 0;
#X connect 39 0 40 0;
#X connect 42 1 76 0;
#X connect 43 0 46 0;
#X connect 44 0 45 0;
#X connect 44 0 86 0;
#X connect 45 0 42 0;
#X connect 46 0 47 0;
#X connect 46 1 53 0;
#X connect 47 0 48 0;
#X connect 49 0 47 1;
#X connect 49 0 54 0;
#X connect 50 0 81 0;
#X connect 51 0 52 0;
#X connect 53 0 42 0;
#X connect 54 0 53 4;
#X connect 55 1 57 0;
#X connect 56 0 83 1;
#X connect 57 0 59 0;
#X connect 57 1 58 0;
#X connect 58 0 60 1;
#X connect 58 0 63 0;
#X connect 59 0 60 0;
#X connect 60 0 69 0;
#X connect 61 0 62 1;
#X connect 62 0 64 1;
#X connect 63 0 62 0;
#X connect 64 0 65 0;
#X connect 65 0 66 0;
#X connect 67 0 68 0;
#X connect 68 0 70 0;
#X connect 69 0 64 0;
#X connect 70 0 83 1;
#X connect 71 0 73 0;
#X connect 72 0 79 0;
#X connect 73 0 74 0;
#X connect 74 0 79 0;
#X connect 75 0 73 0;
#X connect 76 0 77 0;
#X connect 77 0 78 0;
#X connect 80 0 50 0;
#X connect 80 1 43 0;
#X connect 80 2 82 0;
#X connect 81 0 72 0;
#X connect 81 1 83 0;
#X connect 81 2 55 0;
#X connect 82 0 41 0;
#X connect 83 0 51 0;
#X connect 85 0 48 0;
#X connect 86 0 48 0;
#X coords 0 -1 1 1 170 55 1 100 10;
