#N canvas 983 331 926 648 10;
#X obj 13 37 inlet;
#X obj 106 27 hsl 128 15 0 1 0 0 \$1-snd \$1-rcv empty -2 -8 0 10 -262144
-1 -1 0 1;
#X obj 701 10 apf MIDI \$1-chan \$1-chan 2;
#X obj 282 10 r MIDICTL_IN;
#X text 364 9 val-ctl-chan;
#X obj 701 30 apf MIDI \$1-ctl \$1-ctl 2;
#X obj 282 34 spigot, f 29;
#X obj 453 11 r \$0-learn;
#X obj 562 8 r midi-learn-reset;
#X obj 562 49 s \$0-learn;
#X msg 562 29 0;
#X obj 282 58 t b a, f 13;
#X obj 357 79 unpack f f f;
#X obj 282 79 s MIDI-save;
#X obj 106 45 hsl 128 18 0 1 0 0 \$1---- \$1---- empty -2 -8 0 10 -262144
-262144 -1 0 1;
#X obj 134 47 nbx 2 14 0 128 0 0 \$1-chan-snd \$1-chan-rcv chan -25
7 0 10 -262144 -1 -1 0 256;
#X obj 197 47 nbx 3 14 0 128 0 0 \$1-ctl-snd \$1-ctl-rcv ctl -20 7
0 10 -262144 -1 -1 0 256;
#X obj 699 72 r MIDICTL_IN;
#X msg 699 93 \$3 \$2 \$1;
#X obj 699 115 route -1, f 11;
#X obj 699 137 route -1, f 11;
#X obj 699 158 / 127;
#X obj 699 179 s \$1-rcv;
#X obj 244 46 bng 15 250 50 0 \$0-learnb-snd \$0-learnb-rcv learn -3
-7 0 8 -262144 -1 -1;
#X obj 568 100 r \$0-learnb-snd;
#X obj 568 203 s \$0-learn;
#X obj 583 118 r \$0-learn;
#X obj 568 138 f;
#X obj 568 158 == 0;
#X obj 452 171 r \$0-learn;
#X obj 452 192 sel 0 1;
#X msg 452 215 color 0 22 22;
#X msg 472 236 color 13 22 22;
#X obj 452 262 s \$0-learnb-rcv;
#X obj 568 180 t f f, f 13;
#X obj 643 202 sel 1;
#X obj 643 222 s midi-learn-reset;
#X obj 178 155 pofrect 300 50;
#X obj 249 294 poftouch 45 45;
#X obj 222 232 poftranslate 125;
#X obj 384 268 loadbang;
#X msg 342 293 draw 1;
#X obj 222 253 t a a;
#X obj 222 334 pofcolor 0 0 0 1;
#X obj 222 354 poftexts bold 20 0 0 -0.8;
#X obj 344 213 r \$0-learn;
#X obj 30 178 poftranslate -25;
#X obj 49 345 pofcolor 1 1 1 1;
#X obj 49 366 pofrect 10 45;
#X obj 249 273 pofcolor 1 1 1 0.5;
#X obj 349 243 max 0.5;
#X obj 69 224 poftouch 275 50, f 17;
#X floatatom 115 296 5 0 0 0 - - -;
#X obj 168 385 route move down, f 20;
#X obj 225 407 unpack f;
#X obj 168 407 unpack f;
#X obj 168 428 -, f 10;
#X obj 270 429 r \$1-snd;
#X obj 243 450 f, f 5;
#X obj 243 429 b;
#X obj 168 470 +, f 13;
#X obj 168 491 clip 0 1;
#X obj 168 512 s \$1-rcv;
#X obj 66 254 r \$1-snd;
#X obj 66 275 - 0.5;
#X obj 168 449 / 270;
#X obj 66 296 * 240;
#X obj 30 525 pofcolor 0 0 0 1;
#X msg 49 501 text \$1;
#X obj 562 329 route down;
#X obj 562 350 b;
#X obj 562 371 s \$0-learnb-snd;
#X obj 30 202 t a a a;
#X obj 178 134 pofcolor 0.5 0.5 0.5 1;
#X obj 49 323 poftranslate -120;
#X msg 331 333 text MIDI Learn \, width 40 \, center 1;
#X obj 481 51 tgl 15 0 empty empty empty 17 7 0 10 -262144 -1 -1 0
1;
#X obj 250 105 s \$0-learn;
#X msg 250 83 0;
#X floatatom 377 163 5 0 0 0 - - -;
#X obj 427 101 s \$1-chan-rcv;
#X obj 391 124 s \$1-ctl-rcv;
#X obj 762 95 r \$1-chan-snd;
#X obj 775 115 r \$1-ctl-snd;
#X obj 49 417 loadbang;
#X obj 112 419 bng 15 250 50 0 empty empty empty 17 7 0 10 -262144
-1 -1;
#X obj 49 459 route 0;
#X obj 49 438 list prepend \$2 \$1;
#X obj 49 481 list;
#X obj 13 66 t a a a a;
#X obj 13 618 outlet;
#X obj 13 586 poftranslate 0 32;
#N canvas 1 81 450 300 midilock 0;
#X obj 59 13 inlet;
#X obj 59 219 outlet;
#X obj 59 138 poftouchable;
#X obj 59 159 pofcolor 0.2 0.2 0.2 1;
#X obj 123 57 r MIDI-UNLOCK;
#X obj 123 78 max 0.2;
#X obj 241 140 sel 0;
#X msg 241 161 0;
#X obj 241 184 s \$0-learn;
#X connect 0 0 2 0;
#X connect 2 0 3 0;
#X connect 3 0 1 0;
#X connect 4 0 2 0;
#X connect 4 0 5 0;
#X connect 4 0 6 0;
#X connect 5 0 3 1;
#X connect 5 0 3 2;
#X connect 5 0 3 3;
#X connect 6 0 7 0;
#X connect 7 0 8 0;
#X restore 221 208 pd midilock;
#X obj 30 550 poftexts bold 40 -1 0 -0.8;
#X obj 30 393 poftranslate -100;
#X connect 0 0 89 0;
#X connect 3 0 6 0;
#X connect 6 0 11 0;
#X connect 7 0 6 1;
#X connect 7 0 76 0;
#X connect 8 0 10 0;
#X connect 10 0 9 0;
#X connect 11 0 13 0;
#X connect 11 0 78 0;
#X connect 11 1 12 0;
#X connect 12 1 79 0;
#X connect 12 1 81 0;
#X connect 12 2 80 0;
#X connect 17 0 18 0;
#X connect 18 0 19 0;
#X connect 19 0 20 0;
#X connect 20 0 21 0;
#X connect 21 0 22 0;
#X connect 24 0 27 0;
#X connect 26 0 27 1;
#X connect 27 0 28 0;
#X connect 28 0 34 0;
#X connect 29 0 30 0;
#X connect 30 0 31 0;
#X connect 30 1 32 0;
#X connect 31 0 33 0;
#X connect 32 0 33 0;
#X connect 34 0 25 0;
#X connect 34 1 35 0;
#X connect 35 0 36 0;
#X connect 38 1 69 0;
#X connect 39 0 42 0;
#X connect 40 0 41 0;
#X connect 40 0 75 0;
#X connect 41 0 38 0;
#X connect 42 0 43 0;
#X connect 42 1 49 0;
#X connect 43 0 44 0;
#X connect 45 0 43 1;
#X connect 45 0 50 0;
#X connect 46 0 72 0;
#X connect 47 0 48 0;
#X connect 49 0 38 0;
#X connect 50 0 49 4;
#X connect 51 1 53 0;
#X connect 52 0 74 1;
#X connect 53 0 55 0;
#X connect 53 1 54 0;
#X connect 54 0 56 1;
#X connect 54 0 59 0;
#X connect 55 0 56 0;
#X connect 56 0 65 0;
#X connect 57 0 58 1;
#X connect 58 0 60 1;
#X connect 59 0 58 0;
#X connect 60 0 61 0;
#X connect 61 0 62 0;
#X connect 63 0 64 0;
#X connect 64 0 66 0;
#X connect 65 0 60 0;
#X connect 66 0 74 1;
#X connect 67 0 93 0;
#X connect 68 0 93 0;
#X connect 69 0 70 0;
#X connect 70 0 71 0;
#X connect 72 0 94 0;
#X connect 72 1 74 0;
#X connect 72 2 51 0;
#X connect 73 0 37 0;
#X connect 74 0 47 0;
#X connect 75 0 44 0;
#X connect 78 0 77 0;
#X connect 82 0 19 1;
#X connect 83 0 20 1;
#X connect 84 0 87 0;
#X connect 85 0 87 0;
#X connect 86 0 88 0;
#X connect 86 1 88 0;
#X connect 87 0 86 0;
#X connect 88 0 68 0;
#X connect 89 0 91 0;
#X connect 89 1 46 0;
#X connect 89 2 92 0;
#X connect 89 3 73 0;
#X connect 91 0 90 0;
#X connect 92 0 39 0;
#X connect 94 0 67 0;
#X coords 0 -1 1 1 170 55 1 100 10;
