#N canvas 649 89 557 440 12;
#X obj 150 350 outlet~;
#X obj 209 205 symbol \$1;
#X msg 209 229 0 \, open wavs/\$1.wav;
#X obj 149 178 t b b, f 9;
#X obj 149 203 del 100;
#X msg 149 227 1;
#X msg 112 229 0;
#X obj 104 123 bng 15 250 50 0 empty empty play 17 7 0 10 -4034 -1
-1;
#X obj 104 141 bng 15 250 50 0 empty empty stop 17 7 0 10 -258113 -1
-1;
#X obj 154 123 tgl 15 0 empty empty loop 17 7 0 10 -257985 -1 -1 1
1;
#X obj 195 295 spigot;
#X obj 149 269 readsf~ 1 500000;
#X connect 1 0 2 0;
#X connect 2 0 11 0;
#X connect 3 0 4 0;
#X connect 3 1 1 0;
#X connect 4 0 5 0;
#X connect 5 0 11 0;
#X connect 6 0 11 0;
#X connect 7 0 3 0;
#X connect 8 0 6 0;
#X connect 9 0 10 1;
#X connect 10 0 7 0;
#X connect 11 0 0 0;
#X connect 11 1 10 0;
#X coords 0 -1 1 1 100 60 1 100 100;
