#N canvas 360 108 659 210 10;
#X declare -lib pof;
#X declare -path quad2quad;
#X declare -path ../../tools/AutoPreset -path ggee -path iemlib -lib
iemlib;
#X declare -path ../tools/AutoPreset;
#X obj 14 6 declare -lib pof;
#X obj 16 46 poffonts bold quad2quad/Quicksand-Bold.ttf;
#X obj 15 27 declare -path quad2quad;
#N canvas 1166 319 753 566 save/load 0;
#X obj 335 32 loadbang;
#X obj 148 47 r \$0-q2qP2-coords;
#X obj 37 47 r \$0-q2qP1-coords;
#X obj 148 68 list split 1;
#X obj 148 89 * 2;
#X obj 148 110 + 8;
#X obj 148 131 list append;
#X obj 148 152 s \$0-coords;
#X obj 37 66 list split 1;
#X obj 37 87 * 2;
#X obj 37 129 list append;
#X obj 37 150 s \$0-coords;
#X obj 37 108 + 0;
#X obj 191 208 r \$0-save;
#X obj 38 186 r \$0-load;
#X msg 65 227 read q2q_coords.txt;
#X obj 65 258 s \$0-coords;
#X msg 191 229 write q2q_coords.txt;
#X obj 36 21 table \$0-coords 16;
#X obj 335 54 s \$0-load;
#X obj 38 204 t b b;
#X msg 38 310 0 \, 1 \, 2 \, 3;
#X obj 65 374 t f f, f 8;
#X obj 65 353 * 2;
#X obj 110 395 + 1;
#X obj 110 415 tabread \$0-coords;
#X obj 65 438 tabread \$0-coords;
#X obj 38 331 t f f;
#X obj 65 459 pack f f;
#X obj 38 482 list append;
#X obj 38 503 s \$0-q2qP1-coords;
#X obj 245 394 t f f, f 8;
#X obj 245 353 * 2;
#X obj 290 415 + 1;
#X obj 290 435 tabread \$0-coords;
#X obj 245 458 tabread \$0-coords;
#X obj 218 331 t f f;
#X obj 245 479 pack f f;
#X obj 218 502 list append;
#X obj 245 373 + 8;
#X obj 218 523 s \$0-q2qP2-coords;
#X obj 311 34 bng 15 250 50 0 empty empty empty 17 7 0 10 -262144 -1
-1;
#X obj 371 158 loadbang;
#X obj 371 186 bng 15 250 50 0 empty empty empty 17 7 0 10 -4034 -1
-1;
#X obj 607 187 bng 15 250 50 0 empty empty empty 17 7 0 10 -258113
-1 -1;
#X obj 370 80 declare -path ../../tools/AutoPreset -path ggee -path
iemlib -lib iemlib;
#X obj 369 133 apmaster MAPPING;
#X obj 372 209 apmasterfile MAPPING MAPPING_presets.txt;
#X obj 624 220 r MAPPING-save;
#X obj 607 152 r \$0-save;
#X connect 0 0 19 0;
#X connect 1 0 3 0;
#X connect 2 0 8 0;
#X connect 3 0 4 0;
#X connect 3 1 6 1;
#X connect 4 0 5 0;
#X connect 5 0 6 0;
#X connect 6 0 7 0;
#X connect 8 0 9 0;
#X connect 8 1 10 1;
#X connect 9 0 12 0;
#X connect 10 0 11 0;
#X connect 12 0 10 0;
#X connect 13 0 17 0;
#X connect 14 0 20 0;
#X connect 15 0 16 0;
#X connect 17 0 16 0;
#X connect 20 0 21 0;
#X connect 20 1 15 0;
#X connect 21 0 27 0;
#X connect 21 0 36 0;
#X connect 22 0 26 0;
#X connect 22 1 24 0;
#X connect 23 0 22 0;
#X connect 24 0 25 0;
#X connect 25 0 28 1;
#X connect 26 0 28 0;
#X connect 27 0 29 0;
#X connect 27 1 23 0;
#X connect 28 0 29 1;
#X connect 29 0 30 0;
#X connect 31 0 35 0;
#X connect 31 1 33 0;
#X connect 32 0 39 0;
#X connect 33 0 34 0;
#X connect 34 0 37 1;
#X connect 35 0 37 0;
#X connect 36 0 38 0;
#X connect 36 1 32 0;
#X connect 37 0 38 1;
#X connect 38 0 40 0;
#X connect 39 0 31 0;
#X connect 41 0 19 0;
#X connect 42 0 43 0;
#X connect 43 0 47 0;
#X connect 44 0 47 1;
#X connect 49 0 44 0;
#X restore 279 24 pd save/load;
#N canvas 1 82 652 462 (old)tracking 0;
#X obj 31 70 r fromCamera;
#X obj 65 200 * 1023;
#X obj 112 199 * 760;
#X obj 31 91 list split 2;
#X obj 31 112 list prepend 0;
#X obj 124 91 list split 2;
#X obj 217 91 list split 2;
#X obj 310 91 list split 2;
#X obj 124 112 list prepend 1;
#X obj 217 112 list prepend 2;
#X obj 310 112 list prepend 3;
#X obj 31 135 unpack f f f;
#X obj 31 221 pack f f f, f 12;
#X obj 31 243 s \$0-q2qP1-M-coords;
#X obj 229 157 r \$0-q2qP2-M-clicked;
#X obj 217 138 r \$0-q2qP1-M-clicked;
#X obj 219 176 f;
#X obj 219 234 s \$0-q2qP1-M-props;
#X obj 337 233 s \$0-q2qP2-M-props;
#X obj 194 258 s \$0-firstpoint;
#X msg 219 199 -1 color 1 1 0 \, -1 size 80 \, \$1 color 0.5 1 0 \,
\$1 size 50;
#X obj 112 158 * -1;
#X obj 112 179 + 1;
#X obj 419 60 print;
#X msg 379 154 -1 color 1 1 0 \, -1 size 80 \, 0 color 0.5 1 0;
#X obj 404 120 loadbang;
#X obj 32 288 unpack f f f;
#X obj 32 374 pack f f f, f 12;
#X obj 32 396 s \$0-q2qP1-M-coords;
#X obj 32 268 r fromPythonTracker;
#X obj 113 311 * 1;
#X obj 113 332 + 0;
#X obj 114 352 * 1;
#X obj 66 353 * 1;
#X connect 0 0 3 0;
#X connect 1 0 12 1;
#X connect 2 0 12 2;
#X connect 3 0 4 0;
#X connect 3 1 5 0;
#X connect 4 0 11 0;
#X connect 5 0 8 0;
#X connect 5 1 6 0;
#X connect 6 0 9 0;
#X connect 6 1 7 0;
#X connect 7 0 10 0;
#X connect 8 0 11 0;
#X connect 9 0 11 0;
#X connect 10 0 11 0;
#X connect 11 0 12 0;
#X connect 11 1 1 0;
#X connect 11 2 21 0;
#X connect 12 0 13 0;
#X connect 16 0 20 0;
#X connect 16 0 19 0;
#X connect 20 0 17 0;
#X connect 20 0 18 0;
#X connect 21 0 22 0;
#X connect 22 0 2 0;
#X connect 24 0 17 0;
#X connect 24 0 18 0;
#X connect 26 0 27 0;
#X connect 26 1 33 0;
#X connect 26 2 30 0;
#X connect 27 0 28 0;
#X connect 29 0 26 0;
#X connect 30 0 31 0;
#X connect 31 0 32 0;
#X connect 32 0 27 2;
#X connect 33 0 27 1;
#X restore 458 13 pd (old)tracking;
#N canvas 1 82 450 300 2video 0;
#X obj 34 77 list split 1;
#X obj 34 54 r \$0-q2qP2-coords;
#X obj 68 184 s 2video;
#X obj 68 99 unpack f f;
#X obj 68 120 / 1023;
#X obj 68 141 pack f f;
#X obj 125 120 / 760;
#X msg 68 163 p 2 \$1 \$2;
#X obj 195 22 r \$0-q2qP2-M-coords;
#X obj 195 98 unpack f f f;
#X obj 195 146 pack f f f;
#X obj 229 122 / 1023;
#X obj 277 121 / 760;
#X obj 195 191 s 2video;
#X msg 195 170 p \$1 \$2 \$3;
#X obj 195 122 + 1;
#N canvas 1 81 450 300 firstpoint 0;
#X obj 37 37 inlet;
#X obj 37 255 outlet;
#X obj 37 78 list split 1, f 47;
#X obj 70 98 r \$0-firstpoint;
#X obj 37 128 sel 0, f 6;
#X obj 70 148 sel 0;
#X msg 37 149 0;
#X obj 70 169 f 0, f 9;
#X obj 37 228 list append, f 23;
#X obj 37 202 f;
#X connect 0 0 2 0;
#X connect 2 0 4 0;
#X connect 2 1 8 1;
#X connect 3 0 4 1;
#X connect 3 0 7 1;
#X connect 4 0 6 0;
#X connect 4 1 5 0;
#X connect 5 0 7 0;
#X connect 5 1 9 0;
#X connect 6 0 9 0;
#X connect 7 0 9 0;
#X connect 8 0 1 0;
#X connect 9 0 8 0;
#X restore 209 48 pd firstpoint;
#N canvas 218 156 450 300 allfirst 0;
#X obj 84 15 inlet;
#X msg 84 36 0 \$2 \$3;
#X obj 84 57 outlet;
#X connect 0 0 1 0;
#X connect 1 0 2 0;
#X restore 277 66 pd allfirst;
#X obj 308 97 print;
#X connect 0 1 3 0;
#X connect 1 0 0 0;
#X connect 3 0 4 0;
#X connect 3 1 6 0;
#X connect 4 0 5 0;
#X connect 5 0 7 0;
#X connect 6 0 5 1;
#X connect 7 0 2 0;
#X connect 8 0 9 0;
#X connect 9 0 15 0;
#X connect 9 1 11 0;
#X connect 9 2 12 0;
#X connect 10 0 14 0;
#X connect 11 0 10 1;
#X connect 12 0 10 2;
#X connect 14 0 13 0;
#X connect 15 0 10 0;
#X connect 17 0 9 0;
#X restore 365 45 pd 2video;
#X obj 32 93 pofhead;
#X floatatom 124 81 5 0 0 0 - - -;
#N canvas 1 246 921 809 controls 0;
#X obj 26 20 inlet;
#N canvas 791 129 1162 579 proj_settings 0;
#X obj 31 25 inlet;
#X obj 77 267 loadbang;
#X msg 77 288 draw 1;
#X obj 31 224 t a a;
#X obj 58 244 pofcolor 1 0 0 1;
#X obj 31 455 pofcolor 0 0 0 1;
#X obj 31 518 poftexts bold 30;
#X obj 55 477 loadbang;
#X msg 55 498 text SAVE;
#X obj 139 334 route down up, f 18;
#X msg 123 389 1;
#X obj 139 355 b;
#X msg 152 410 0;
#X obj 123 410 f;
#X obj 152 389 del 250;
#X obj 58 312 poftouch 80 40;
#X obj 207 390 s \$0-save;
#X obj 972 179 loadbang;
#X msg 972 200 draw 1;
#X obj 926 136 t a a;
#X obj 926 376 pofcolor 0 0 0 1;
#X obj 926 477 poftexts bold 30;
#X obj 998 410 loadbang;
#X obj 1040 247 route down up, f 18;
#X msg 1024 302 1;
#X obj 1040 268 b;
#X msg 1053 323 0;
#X obj 1024 323 f;
#X obj 1053 302 del 250;
#X obj 1118 273 r proj-manual;
#X obj 1103 343 s proj-manual;
#X obj 1103 298 f;
#X obj 1103 319 == 0;
#X floatatom 955 79 5 0 0 0 - - -;
#X obj 1055 367 r proj-manual;
#X obj 1055 388 sel 0 1;
#X msg 1074 413 text Proj: manual;
#X msg 1055 431 text Proj: auto;
#X floatatom 55 179 5 0 0 0 - - -;
#X obj 953 224 poftouch 170 40;
#X obj 953 156 pofcolor 0.2 0.7 0.2 1;
#X obj 926 116 poftranslate -140;
#X obj 31 157 pofvisible;
#X obj 119 23 nbx 5 14 -1e+37 1e+37 0 1 empty empty empty 0 -8 0 10
-262144 -1 -1 350 256;
#X obj 31 54 poftranslate 0 340;
#X obj 326 200 loadbang;
#X msg 326 221 draw 1;
#X obj 280 157 t a a;
#X obj 280 397 pofcolor 0 0 0 1;
#X obj 309 441 loadbang;
#X obj 394 268 route down up, f 18;
#X msg 378 323 1;
#X obj 394 289 b;
#X msg 407 344 0;
#X obj 378 344 f;
#X obj 407 323 del 250;
#X floatatom 313 115 5 0 0 0 - - -;
#X obj 307 177 pofcolor 0.2 0.7 0.2 1;
#X msg 309 461 text Reconnect Camera;
#X obj 280 497 poftexts bold 30 0 0 -2;
#X obj 307 245 poftouch 225 40;
#X obj 457 364 s camera-reconnect;
#X obj 280 137 poftranslate -538;
#X obj 49 113 r screen_mode;
#X obj 50 134 == 2;
#X obj 280 91 pofvisible;
#X obj 293 36 r screen_mode;
#X obj 293 57 != 1;
#X obj 643 172 loadbang;
#X msg 643 193 draw 1;
#X obj 597 129 t a a;
#X obj 597 369 pofcolor 0 0 0 1;
#X obj 597 470 poftexts bold 30;
#X obj 669 403 loadbang;
#X obj 711 240 route down up, f 18;
#X msg 695 295 1;
#X obj 711 261 b;
#X msg 724 316 0;
#X obj 695 316 f;
#X obj 724 295 del 250;
#X floatatom 626 72 5 0 0 0 - - -;
#X obj 624 149 pofcolor 0.2 0.7 0.2 1;
#X msg 669 428 text Edit Mapping;
#X msg 779 391 \; pd-MAPPING_SETTINGS vis 1;
#X obj 624 217 poftouch 200 40;
#X obj 31 205 poftranslate 300;
#X obj 597 109 poftranslate 150;
#X connect 0 0 44 0;
#X connect 1 0 2 0;
#X connect 2 0 15 0;
#X connect 3 0 5 0;
#X connect 3 1 4 0;
#X connect 4 0 15 0;
#X connect 5 0 6 0;
#X connect 7 0 8 0;
#X connect 8 0 6 0;
#X connect 9 0 11 0;
#X connect 10 0 13 0;
#X connect 11 0 10 0;
#X connect 11 0 14 0;
#X connect 11 0 16 0;
#X connect 12 0 13 0;
#X connect 13 0 5 1;
#X connect 13 0 5 2;
#X connect 13 0 5 3;
#X connect 14 0 12 0;
#X connect 15 1 9 0;
#X connect 17 0 18 0;
#X connect 18 0 39 0;
#X connect 19 0 20 0;
#X connect 19 1 40 0;
#X connect 20 0 21 0;
#X connect 22 0 37 0;
#X connect 23 0 25 0;
#X connect 24 0 27 0;
#X connect 25 0 24 0;
#X connect 25 0 28 0;
#X connect 25 0 31 0;
#X connect 26 0 27 0;
#X connect 27 0 20 1;
#X connect 27 0 20 2;
#X connect 27 0 20 3;
#X connect 28 0 26 0;
#X connect 29 0 31 1;
#X connect 31 0 32 0;
#X connect 32 0 30 0;
#X connect 33 0 41 1;
#X connect 34 0 35 0;
#X connect 35 0 37 0;
#X connect 35 1 36 0;
#X connect 36 0 21 0;
#X connect 37 0 21 0;
#X connect 38 0 85 1;
#X connect 39 1 23 0;
#X connect 40 0 39 0;
#X connect 41 0 19 0;
#X connect 42 0 85 0;
#X connect 42 0 86 0;
#X connect 43 0 44 2;
#X connect 44 0 42 0;
#X connect 44 0 65 0;
#X connect 45 0 46 0;
#X connect 46 0 60 0;
#X connect 47 0 48 0;
#X connect 47 1 57 0;
#X connect 48 0 59 0;
#X connect 49 0 58 0;
#X connect 50 0 52 0;
#X connect 51 0 54 0;
#X connect 52 0 51 0;
#X connect 52 0 55 0;
#X connect 52 0 61 0;
#X connect 53 0 54 0;
#X connect 54 0 48 1;
#X connect 54 0 48 2;
#X connect 54 0 48 3;
#X connect 55 0 53 0;
#X connect 56 0 62 1;
#X connect 57 0 60 0;
#X connect 58 0 59 0;
#X connect 60 1 50 0;
#X connect 62 0 47 0;
#X connect 63 0 64 0;
#X connect 64 0 42 0;
#X connect 65 0 62 0;
#X connect 66 0 67 0;
#X connect 67 0 65 0;
#X connect 68 0 69 0;
#X connect 69 0 84 0;
#X connect 70 0 71 0;
#X connect 70 1 81 0;
#X connect 71 0 72 0;
#X connect 73 0 82 0;
#X connect 74 0 76 0;
#X connect 75 0 78 0;
#X connect 76 0 75 0;
#X connect 76 0 79 0;
#X connect 76 0 83 0;
#X connect 77 0 78 0;
#X connect 78 0 71 1;
#X connect 78 0 71 2;
#X connect 78 0 71 3;
#X connect 79 0 77 0;
#X connect 80 0 86 1;
#X connect 81 0 84 0;
#X connect 82 0 72 0;
#X connect 84 1 74 0;
#X connect 85 0 3 0;
#X connect 86 0 70 0;
#X restore 26 71 pd proj_settings;
#X obj 297 7 declare -path ../tools/AutoPreset;
#X obj 371 49 apmaster MIDI;
#X obj 297 28 loadbang;
#X obj 297 50 bng 15 250 50 0 empty empty empty 17 7 0 10 -4034 -1
-1;
#X obj 498 49 bng 15 250 50 0 empty empty empty 17 7 0 10 -258113 -1
-1;
#X obj 297 69 apmasterfile MIDI midisettings.txt;
#X obj 498 9 r MIDI-save;
#X obj 564 33 ctlin, f 10;
#X obj 564 55 pack f f f;
#X obj 564 76 s MIDICTL_IN;
#X text 632 34 val-ctl-chan;
#X obj 498 29 del 1000;
#N canvas 1282 264 450 300 translate 0;
#X obj 89 50 poftranslate, f 29;
#X obj 155 25 nbx 5 14 -1e+37 1e+37 0 1 empty empty empty 0 -8 0 10
-262144 -1 -1 480 256;
#X obj 212 25 nbx 5 14 -1e+37 1e+37 0 1 empty empty empty 0 -8 0 10
-262144 -1 -1 232 256;
#X obj 89 72 outlet;
#X obj 35 20 r controlershead;
#X connect 0 0 3 0;
#X connect 1 0 0 1;
#X connect 2 0 0 2;
#X connect 4 0 0 0;
#X coords 0 -1 1 1 120 32 1 150 10;
#X restore 290 101 pd translate;
#X obj 145 72 s controlershead;
#X obj 145 50 pofvisible 1;
#N canvas 1282 264 450 300 translate 0;
#X obj 89 50 poftranslate, f 29;
#X obj 155 25 nbx 5 14 -1e+37 1e+37 0 1 empty empty empty 0 -8 0 10
-262144 -1 -1 480 256;
#X obj 212 25 nbx 5 14 -1e+37 1e+37 0 1 empty empty empty 0 -8 0 10
-262144 -1 -1 -342 256;
#X obj 89 72 outlet;
#X obj 35 20 r controlershead;
#X connect 0 0 3 0;
#X connect 1 0 0 1;
#X connect 2 0 0 2;
#X connect 4 0 0 0;
#X coords 0 -1 1 1 120 32 1 150 10;
#X restore 25 166 pd translate;
#N canvas 1282 264 450 300 translate 0;
#X obj 89 50 poftranslate, f 29;
#X obj 155 25 nbx 5 14 -1e+37 1e+37 0 1 empty empty empty 0 -8 0 10
-262144 -1 -1 480 256;
#X obj 212 25 nbx 5 14 -1e+37 1e+37 0 1 empty empty empty 0 -8 0 10
-262144 -1 -1 -272 256;
#X obj 89 72 outlet;
#X obj 35 20 r controlershead;
#X connect 0 0 3 0;
#X connect 1 0 0 1;
#X connect 2 0 0 2;
#X connect 4 0 0 0;
#X coords 0 -1 1 1 120 32 1 150 10;
#X restore 25 298 pd translate;
#N canvas 1282 264 450 300 translate 0;
#X obj 89 50 poftranslate, f 29;
#X obj 155 25 nbx 5 14 -1e+37 1e+37 0 1 empty empty empty 0 -8 0 10
-262144 -1 -1 480 256;
#X obj 212 25 nbx 5 14 -1e+37 1e+37 0 1 empty empty empty 0 -8 0 10
-262144 -1 -1 -202 256;
#X obj 89 72 outlet;
#X obj 35 20 r controlershead;
#X connect 0 0 3 0;
#X connect 1 0 0 1;
#X connect 2 0 0 2;
#X connect 4 0 0 0;
#X coords 0 -1 1 1 120 32 1 150 10;
#X restore 26 419 pd translate;
#N canvas 1282 264 450 300 translate 0;
#X obj 89 50 poftranslate, f 29;
#X obj 155 25 nbx 5 14 -1e+37 1e+37 0 1 empty empty empty 0 -8 0 10
-262144 -1 -1 480 256;
#X obj 212 25 nbx 5 14 -1e+37 1e+37 0 1 empty empty empty 0 -8 0 10
-262144 -1 -1 -34 256;
#X obj 89 72 outlet;
#X obj 35 20 r controlershead;
#X connect 0 0 3 0;
#X connect 1 0 0 1;
#X connect 2 0 0 2;
#X connect 4 0 0 0;
#X coords 0 -1 1 1 120 32 1 150 10;
#X restore 26 540 pd translate;
#X obj 26 577 midislider MasterAudio;
#X obj 567 177 s MIDICTL_IN;
#X obj 572 123 hsl 128 15 0 127 0 0 empty empty empty -2 -8 0 10 -262144
-1 -1 0 1;
#X msg 567 143 \$1 4 10;
#X obj 25 266 pofvu inenv-1;
#X obj 25 393 pofvu inenv-2;
#X obj 26 515 pofvu inenv-3;
#X obj 26 639 pofvu outenv-0;
#X obj 26 659 pofvu outenv-1;
#X obj 26 679 pofvu outenv-2;
#X obj 26 699 pofvu outenv-3;
#N canvas 1282 264 450 300 translate 0;
#X obj 89 50 poftranslate, f 29;
#X obj 155 25 nbx 5 14 -1e+37 1e+37 0 1 empty empty empty 0 -8 0 10
-262144 -1 -1 380 256;
#X obj 212 25 nbx 5 14 -1e+37 1e+37 0 1 empty empty empty 0 -8 0 10
-262144 -1 -1 -131 256;
#X obj 89 72 outlet;
#X obj 35 20 r controlershead;
#X connect 0 0 3 0;
#X connect 1 0 0 1;
#X connect 2 0 0 2;
#X connect 4 0 0 0;
#X coords 0 -1 1 1 120 32 1 150 10;
#X restore 287 292 pd translate;
#N canvas 1 81 430 228 label 0;
#X obj 37 37 inlet;
#X obj 37 58 t a a, f 20;
#X obj 37 79 poftranslate 0 30;
#X obj 37 100 outlet;
#X obj 154 110 poftexts bold 40;
#X obj 278 64 loadbang;
#X msg 278 85 text Audio Pattern;
#X floatatom 191 58 5 0 0 0 - - -;
#X floatatom 228 59 5 0 0 0 - - -;
#X obj 154 84 poftranslate 70 -15;
#X connect 0 0 1 0;
#X connect 1 0 2 0;
#X connect 1 1 9 0;
#X connect 2 0 3 0;
#X connect 5 0 6 0;
#X connect 6 0 4 0;
#X connect 7 0 9 1;
#X connect 8 0 9 2;
#X connect 9 0 4 0;
#X restore 287 329 pd label;
#N canvas 1282 264 450 300 translate 0;
#X obj 89 50 poftranslate, f 29;
#X obj 155 25 nbx 5 14 -1e+37 1e+37 0 1 empty empty empty 0 -8 0 10
-262144 -1 -1 369 256;
#X obj 212 25 nbx 5 14 -1e+37 1e+37 0 1 empty empty empty 0 -8 0 10
-262144 -1 -1 363 256;
#X obj 89 72 outlet;
#X obj 35 20 r controlershead;
#X connect 0 0 3 0;
#X connect 1 0 0 1;
#X connect 2 0 0 2;
#X connect 4 0 0 0;
#X coords 0 -1 1 1 120 32 1 150 10;
#X restore 292 612 pd translate;
#N canvas 34 321 681 314 midilock 0;
#X obj 37 37 inlet;
#X obj 37 58 t a a, f 20;
#X obj 37 79 poftranslate 0 30;
#X obj 37 100 outlet;
#X obj 154 185 poftexts bold 40;
#X obj 278 32 loadbang;
#X floatatom 191 58 5 0 0 0 - - -;
#X floatatom 228 59 5 0 0 0 - - -;
#X obj 154 84 poftranslate 70 -15;
#X msg 278 70 text MIDI unlock;
#X obj 154 106 t a a, f 20;
#X obj 271 143 pofcolor 0.2 0.2 0.2 1;
#X obj 271 164 pofrect 220 50;
#X obj 388 20 r MIDI-UNLOCK;
#X obj 271 185 poftouch 220 50;
#X obj 154 141 pofcolor 0 0 0 1;
#X obj 388 112 max 0.2;
#X obj 358 206 route down;
#X obj 358 227 b;
#X obj 358 248 f;
#X obj 358 269 == 0;
#X obj 385 226 r MIDI-UNLOCK;
#X obj 358 290 s MIDI-UNLOCK;
#X obj 388 41 sel 0 1;
#X msg 292 90 text MIDI lock;
#X obj 517 169 loadbang;
#X msg 517 190 0;
#X connect 0 0 1 0;
#X connect 1 0 2 0;
#X connect 1 1 8 0;
#X connect 2 0 3 0;
#X connect 5 0 9 0;
#X connect 6 0 8 1;
#X connect 7 0 8 2;
#X connect 8 0 10 0;
#X connect 9 0 4 0;
#X connect 10 0 15 0;
#X connect 10 1 11 0;
#X connect 11 0 12 0;
#X connect 12 0 14 0;
#X connect 13 0 16 0;
#X connect 13 0 23 0;
#X connect 14 1 17 0;
#X connect 15 0 4 0;
#X connect 16 0 11 1;
#X connect 16 0 11 2;
#X connect 16 0 11 3;
#X connect 17 0 18 0;
#X connect 18 0 19 0;
#X connect 19 0 20 0;
#X connect 20 0 22 0;
#X connect 21 0 19 1;
#X connect 23 0 9 0;
#X connect 23 1 24 0;
#X connect 24 0 4 0;
#X connect 25 0 26 0;
#X connect 26 0 22 0;
#X restore 292 653 pd midilock;
#X obj 287 355 midiradio audiopattern 1;
#X obj 287 418 midiradio audiopattern 2;
#X obj 287 477 midiradio audiopattern 3;
#X obj 168 8 r screen_mode;
#X obj 168 29 < 2;
#N canvas 626 328 450 300 translate 0;
#X obj 89 50 poftranslate, f 29;
#X obj 155 25 nbx 5 14 -1e+37 1e+37 0 1 empty empty empty 0 -8 0 10
-262144 -1 -1 -305 256;
#X obj 212 25 nbx 5 14 -1e+37 1e+37 0 1 empty empty empty 0 -8 0 10
-262144 -1 -1 351 256;
#X obj 89 72 outlet;
#X obj 35 20 inlet;
#X connect 0 0 3 0;
#X connect 1 0 0 1;
#X connect 2 0 0 2;
#X connect 4 0 0 0;
#X coords 0 -1 1 1 120 32 1 150 10;
#X restore 86 101 pd translate;
#N canvas 955 139 896 666 screen_mode 0;
#X obj 38 34 inlet;
#X obj 84 219 loadbang;
#X msg 84 240 draw 1;
#X obj 38 176 t a a;
#X obj 38 406 pofcolor 0 0 0 1;
#X obj 38 470 poftexts bold 30;
#X obj 52 427 loadbang;
#X obj 152 287 route down up, f 18;
#X msg 61 346 1;
#X obj 152 308 b;
#X msg 90 367 0;
#X obj 61 367 f;
#X obj 90 346 del 250;
#X obj 65 196 pofcolor 0.2 0.7 0.2 1;
#X obj 36 633 s 2video;
#X msg 36 611 debug \$1;
#X obj 142 124 sel 0 1;
#X obj 117 172 unpack f f f;
#X msg 142 146 0.3 0.3 0;
#X msg 211 147 1 1 0;
#X obj 198 235 loadbang;
#X msg 198 256 0;
#X obj 36 567 r screen_mode;
#X obj 152 376 s screen_mode;
#X obj 142 79 r screen_mode;
#X obj 142 101 == 0;
#X obj 36 588 == 2;
#X msg 152 345 0;
#X msg 52 447 text Camera;
#X obj 65 264 poftouch 120 40;
#X obj 348 229 loadbang;
#X msg 348 250 draw 1;
#X obj 302 186 t a a;
#X obj 302 416 pofcolor 0 0 0 1;
#X obj 316 437 loadbang;
#X obj 416 297 route down up, f 18;
#X msg 325 356 1;
#X obj 416 318 b;
#X msg 354 377 0;
#X obj 325 377 f;
#X obj 354 356 del 250;
#X obj 329 206 pofcolor 0.2 0.7 0.2 1;
#X obj 406 134 sel 0 1;
#X obj 381 182 unpack f f f;
#X msg 406 156 0.3 0.3 0;
#X msg 475 157 1 1 0;
#X obj 416 386 s screen_mode;
#X obj 406 89 r screen_mode;
#X obj 329 274 poftouch 120 40;
#X obj 302 37 poftranslate 122;
#X obj 38 56 t a a, f 37;
#X obj 302 59 t a a, f 38;
#X msg 316 457 text Projector;
#X msg 416 356 1;
#X obj 406 111 == 1;
#X obj 302 480 poftexts bold 30 0 0 -1;
#X obj 615 233 loadbang;
#X msg 615 254 draw 1;
#X obj 569 190 t a a;
#X obj 569 420 pofcolor 0 0 0 1;
#X obj 583 441 loadbang;
#X obj 683 301 route down up, f 18;
#X msg 592 360 1;
#X obj 683 322 b;
#X msg 621 381 0;
#X obj 592 381 f;
#X obj 621 360 del 250;
#X obj 596 210 pofcolor 0.2 0.7 0.2 1;
#X obj 673 138 sel 0 1, f 16;
#X obj 648 186 unpack f f f;
#X msg 673 160 0.3 0.3 0;
#X msg 742 161 1 1 0;
#X obj 683 390 s screen_mode;
#X obj 673 93 r screen_mode;
#X obj 596 278 poftouch 120 40;
#X obj 569 58 poftranslate 122;
#X obj 569 80 t a a;
#X obj 569 484 poftexts bold 30 0 0 -1;
#X msg 583 461 text Settings;
#X obj 673 115 == 2;
#X msg 683 360 2;
#X obj 167 407 r screen_mode;
#X floatatom 167 428 5 0 0 0 - - -;
#X obj 103 622 tgl 15 0 empty empty empty 17 7 0 10 -262144 -1 -1 1
1;
#X connect 0 0 50 0;
#X connect 1 0 2 0;
#X connect 2 0 29 0;
#X connect 3 0 4 0;
#X connect 3 1 13 0;
#X connect 4 0 5 0;
#X connect 6 0 28 0;
#X connect 7 0 9 0;
#X connect 8 0 11 0;
#X connect 9 0 8 0;
#X connect 9 0 12 0;
#X connect 9 0 27 0;
#X connect 10 0 11 0;
#X connect 11 0 4 1;
#X connect 11 0 4 2;
#X connect 11 0 4 3;
#X connect 12 0 10 0;
#X connect 13 0 29 0;
#X connect 15 0 14 0;
#X connect 16 0 18 0;
#X connect 16 1 19 0;
#X connect 17 0 13 1;
#X connect 17 1 13 2;
#X connect 17 2 13 3;
#X connect 18 0 17 0;
#X connect 19 0 17 0;
#X connect 20 0 21 0;
#X connect 21 0 23 0;
#X connect 22 0 26 0;
#X connect 24 0 25 0;
#X connect 25 0 16 0;
#X connect 26 0 15 0;
#X connect 26 0 83 0;
#X connect 27 0 23 0;
#X connect 28 0 5 0;
#X connect 29 1 7 0;
#X connect 30 0 31 0;
#X connect 31 0 48 0;
#X connect 32 0 33 0;
#X connect 32 1 41 0;
#X connect 33 0 55 0;
#X connect 34 0 52 0;
#X connect 35 0 37 0;
#X connect 36 0 39 0;
#X connect 37 0 36 0;
#X connect 37 0 40 0;
#X connect 37 0 53 0;
#X connect 38 0 39 0;
#X connect 39 0 33 1;
#X connect 39 0 33 2;
#X connect 39 0 33 3;
#X connect 40 0 38 0;
#X connect 41 0 48 0;
#X connect 42 0 44 0;
#X connect 42 1 45 0;
#X connect 43 0 41 1;
#X connect 43 1 41 2;
#X connect 43 2 41 3;
#X connect 44 0 43 0;
#X connect 45 0 43 0;
#X connect 47 0 54 0;
#X connect 48 1 35 0;
#X connect 49 0 51 0;
#X connect 50 0 3 0;
#X connect 50 1 49 0;
#X connect 51 0 32 0;
#X connect 51 1 75 0;
#X connect 52 0 55 0;
#X connect 53 0 46 0;
#X connect 54 0 42 0;
#X connect 56 0 57 0;
#X connect 57 0 74 0;
#X connect 58 0 59 0;
#X connect 58 1 67 0;
#X connect 59 0 77 0;
#X connect 60 0 78 0;
#X connect 61 0 63 0;
#X connect 62 0 65 0;
#X connect 63 0 62 0;
#X connect 63 0 66 0;
#X connect 63 0 80 0;
#X connect 64 0 65 0;
#X connect 65 0 59 1;
#X connect 65 0 59 2;
#X connect 65 0 59 3;
#X connect 66 0 64 0;
#X connect 67 0 74 0;
#X connect 68 0 70 0;
#X connect 68 1 71 0;
#X connect 69 0 67 1;
#X connect 69 1 67 2;
#X connect 69 2 67 3;
#X connect 70 0 69 0;
#X connect 71 0 69 0;
#X connect 73 0 79 0;
#X connect 74 1 61 0;
#X connect 75 0 76 0;
#X connect 76 0 58 0;
#X connect 78 0 77 0;
#X connect 79 0 68 0;
#X connect 80 0 72 0;
#X connect 81 0 82 0;
#X restore 86 138 pd screen_mode;
#X obj 333 697 r MasterAudio-snd;
#N canvas 1282 264 450 300 translate 0;
#X obj 89 50 poftranslate, f 29;
#X obj 155 25 nbx 5 14 -1e+37 1e+37 0 1 empty empty empty 0 -8 0 10
-262144 -1 -1 112 256;
#X obj 212 25 nbx 5 14 -1e+37 1e+37 0 1 empty empty empty 0 -8 0 10
-262144 -1 -1 366 256;
#X obj 89 72 outlet;
#X obj 35 20 r controlershead;
#X connect 0 0 3 0;
#X connect 1 0 0 1;
#X connect 2 0 0 2;
#X connect 4 0 0 0;
#X coords 0 -1 1 1 120 32 1 150 10;
#X restore 418 612 pd translate;
#N canvas 99 595 681 350 axlBatt 0;
#X obj 37 37 inlet;
#X obj 37 58 t a a, f 20;
#X obj 37 79 poftranslate 0 30;
#X obj 37 100 outlet;
#X obj 278 32 loadbang;
#X floatatom 191 58 5 0 0 0 - - -;
#X floatatom 228 59 5 0 0 0 - - -;
#X obj 154 84 poftranslate 70 -15;
#X obj 154 106 t a a, f 20;
#X obj 308 286 pofcolor 0.2 0.2 0.2 1;
#X obj 154 174 pofcolor 0 0 0 1;
#X obj 424 23 r axlBatt;
#X obj 308 312 pofrect 220 40;
#X obj 503 61 hsl 128 15 3.2 4.2 0 0 empty empty empty -2 -8 0 10 -262144
-1 -1 0 1;
#X msg 379 92 text axlBatt : \$1;
#X obj 154 218 poftexts bold 30 -1;
#X floatatom 180 133 5 0 0 0 - - -;
#X obj 154 153 poftranslate -100;
#X msg 278 70 text axlBatt :;
#X obj 347 163 tgl 15 0 empty empty empty 17 7 0 10 -262144 -1 -1 0
1;
#X obj 387 211 max 0.6;
#X obj 387 147 del 100;
#X msg 387 168 0;
#X obj 387 189 change;
#X msg 433 169 1;
#X obj 500 87 s axlBatt;
#X obj 387 126 t b f, f 13;
#X obj 414 260 *;
#X obj 335 254 *;
#X obj 474 193 + 1;
#X obj 530 173 * 6;
#X obj 474 170 * -10;
#X obj 474 146 - 3.7;
#X obj 530 194 + 2;
#X obj 530 216 clip 0 1;
#X obj 474 215 clip 0 1;
#X connect 0 0 1 0;
#X connect 1 0 2 0;
#X connect 1 1 7 0;
#X connect 2 0 3 0;
#X connect 4 0 18 0;
#X connect 5 0 7 1;
#X connect 6 0 7 2;
#X connect 7 0 8 0;
#X connect 8 0 17 0;
#X connect 8 1 9 0;
#X connect 9 0 12 0;
#X connect 10 0 15 0;
#X connect 11 0 14 0;
#X connect 11 0 26 0;
#X connect 13 0 25 0;
#X connect 14 0 15 0;
#X connect 16 0 17 1;
#X connect 17 0 10 0;
#X connect 18 0 15 0;
#X connect 19 0 20 0;
#X connect 20 0 27 0;
#X connect 20 0 28 0;
#X connect 21 0 22 0;
#X connect 22 0 23 0;
#X connect 23 0 20 0;
#X connect 24 0 23 0;
#X connect 26 0 21 0;
#X connect 26 0 24 0;
#X connect 26 1 32 0;
#X connect 27 0 9 2;
#X connect 28 0 9 1;
#X connect 29 0 35 0;
#X connect 30 0 33 0;
#X connect 31 0 29 0;
#X connect 32 0 30 0;
#X connect 32 0 31 0;
#X connect 33 0 34 0;
#X connect 34 0 27 1;
#X connect 35 0 28 1;
#X restore 418 652 pd axlBatt;
#X obj 25 205 midislider invol-1 Mic1:Basse;
#X obj 25 335 midislider invol-2 Mic2:Alto;
#X obj 26 455 midislider invol-3 Mic3:Percu;
#X obj 314 200 poftranslate 0 20;
#X obj 290 229 midislider BoidsFade;
#N canvas 1282 264 450 300 translate 0;
#X obj 89 50 poftranslate, f 29;
#X obj 155 25 nbx 5 14 -1e+37 1e+37 0 1 empty empty empty 0 -8 0 10
-262144 -1 -1 380 256;
#X obj 212 25 nbx 5 14 -1e+37 1e+37 0 1 empty empty empty 0 -8 0 10
-262144 -1 -1 140 256;
#X obj 89 72 outlet;
#X obj 35 20 r controlershead;
#X connect 0 0 3 0;
#X connect 1 0 0 1;
#X connect 2 0 0 2;
#X connect 4 0 0 0;
#X coords 0 -1 1 1 120 32 1 150 10;
#X restore 550 203 pd translate;
#N canvas 1 82 579 228 label 0;
#X obj 37 37 inlet;
#X obj 37 58 t a a, f 20;
#X obj 37 100 outlet;
#X floatatom 193 58 5 0 0 0 - - -;
#X floatatom 232 59 5 0 0 0 - - -;
#X floatatom 105 155 5 0 0 0 - - -;
#X msg 280 85 text Video Pattern \$1;
#X obj 154 110 poftexts bold 40 -1;
#X floatatom 313 56 5 0 0 0 - - -;
#X obj 154 84 poftranslate -50 -15;
#X obj 37 79 poftranslate 25 30;
#X obj 280 41 + 1;
#X obj 280 20 r BoidsPattern-snd;
#X msg 351 58 1;
#X obj 351 38 loadbang;
#X connect 0 0 1 0;
#X connect 1 0 10 0;
#X connect 1 1 9 0;
#X connect 3 0 9 1;
#X connect 4 0 9 2;
#X connect 5 0 10 1;
#X connect 6 0 7 0;
#X connect 8 0 6 0;
#X connect 9 0 7 0;
#X connect 10 0 2 0;
#X connect 11 0 6 0;
#X connect 12 0 11 0;
#X connect 13 0 6 0;
#X connect 14 0 13 0;
#X restore 550 240 pd label;
#X obj 725 260 midibang pattNext Next;
#X obj 763 133 r pattNext-snd;
#X obj 550 260 midibang pattPrev Prev;
#X msg 763 154 1;
#X obj 730 114 r pattPrev-snd;
#X msg 730 135 -1;
#X obj 730 181 +;
#X obj 730 202 clip 0 15;
#X obj 756 181 r BoidsPattern-snd;
#X obj 730 223 s BoidsPattern-snd;
#X obj 314 138 midislider BoidsPattern--;
#X obj 607 344 midiradio audiopattern-- 4;
#X obj 607 401 midiradio audiopattern-- 5;
#X obj 607 462 midiradio audiopattern-- 6;
#X obj 607 523 midiradio audiopattern-- 7;
#X obj 607 582 midiradio audiopattern-- 8;
#X connect 0 0 1 0;
#X connect 0 0 16 0;
#X connect 0 0 41 0;
#X connect 4 0 5 0;
#X connect 5 0 7 0;
#X connect 6 0 7 1;
#X connect 8 0 13 0;
#X connect 9 0 10 0;
#X connect 9 1 10 1;
#X connect 9 2 10 2;
#X connect 10 0 11 0;
#X connect 13 0 6 0;
#X connect 14 0 50 0;
#X connect 16 0 15 0;
#X connect 17 0 46 0;
#X connect 18 0 47 0;
#X connect 19 0 48 0;
#X connect 20 0 21 0;
#X connect 21 0 28 0;
#X connect 23 0 24 0;
#X connect 24 0 22 0;
#X connect 28 0 29 0;
#X connect 29 0 30 0;
#X connect 30 0 31 0;
#X connect 32 0 33 0;
#X connect 33 0 36 0;
#X connect 34 0 35 0;
#X connect 36 1 37 0;
#X connect 37 1 38 0;
#X connect 39 0 40 0;
#X connect 40 0 16 0;
#X connect 41 0 42 0;
#X connect 44 0 45 0;
#X connect 46 0 25 0;
#X connect 47 0 26 0;
#X connect 48 0 27 0;
#X connect 51 0 52 0;
#X connect 52 0 55 0;
#X connect 54 0 56 0;
#X connect 55 1 53 0;
#X connect 56 0 59 0;
#X connect 57 0 58 0;
#X connect 58 0 59 0;
#X connect 59 0 60 0;
#X connect 60 0 62 0;
#X connect 61 0 59 1;
#X connect 63 0 49 0;
#X connect 65 0 66 0;
#X connect 66 0 67 0;
#X connect 67 0 68 0;
#X restore 174 180 pd controls;
#N canvas 597 314 386 257 autoscale 0;
#X obj 63 8 inlet;
#X obj 200 89 pofwin;
#X obj 198 60 tgl 15 0 empty empty empty 17 7 0 10 -262144 -1 -1 0
1;
#X obj 218 21 loadbang;
#X obj 200 110 route window;
#X obj 200 131 unpack f f;
#X floatatom 200 160 5 0 0 0 - - -;
#X floatatom 257 162 5 0 0 0 - - -;
#X obj 218 40 del 1000;
#X obj 63 149 pofscale 1 1 1;
#X obj 115 122 f;
#X obj 200 203 min;
#X obj 63 200 outlet;
#X obj 257 185 / 745;
#X obj 200 182 / 1305;
#X msg 218 59 open \, window 1100 630;
#X connect 0 0 9 0;
#X connect 1 0 4 0;
#X connect 2 0 1 0;
#X connect 3 0 8 0;
#X connect 4 0 5 0;
#X connect 5 0 6 0;
#X connect 5 1 7 0;
#X connect 6 0 14 0;
#X connect 7 0 13 0;
#X connect 8 0 15 0;
#X connect 9 0 12 0;
#X connect 10 0 9 1;
#X connect 10 0 9 2;
#X connect 11 0 10 0;
#X connect 13 0 11 1;
#X connect 14 0 11 0;
#X connect 15 0 1 0;
#X restore 32 120 pd autoscale;
#N canvas 1 191 257 244 cam->proj 0;
#X obj 39 49 r \$0-q2qP1-M-coords;
#N canvas 681 125 748 587 quad2quad 0;
#X obj 34 34 inlet;
#X text 49 6 https://blog.mbedded.ninja/mathematics/geometry/projective-transformations/
, f 76;
#X obj 34 334 outlet;
#X obj 139 74 r \$0-q2qP1-coords;
#X obj 472 231 s \$0-q2qP1-coords;
#X obj 34 173 quad2quad;
#X obj 475 266 r \$0-q2qP1-coords;
#X obj 475 308 print;
#X msg 472 206 0 20 56 \, 1 684 304 \, 2 572 536 \, 3 108 680;
#X obj 139 103 list prepend source;
#X obj 139 124 list trim;
#X obj 268 103 list prepend destination;
#X obj 268 124 list trim;
#X obj 82 103 b;
#X obj 82 124 del 50;
#X obj 475 287 spigot;
#X obj 521 288 tgl 15 0 empty empty empty 17 7 0 10 -262144 -1 -1 0
1;
#X obj 58 225 unpack f f;
#X floatatom 58 246 5 0 0 0 - - -;
#X floatatom 115 249 5 0 0 0 - - -;
#X obj 96 75 bng 15 250 50 0 empty empty empty 17 7 0 10 -262144 -1
-1;
#X msg 244 185 20 56 684 304 572 536 108 680;
#X obj 268 76 r \$0-q2qP2-coords;
#X obj 476 160 s \$0-q2qP2-coords;
#X msg 476 136 0 0 0 \, 1 1023 0 \, 2 1023 760 \, 3 0 760;
#X obj 195 229 print;
#X connect 0 0 5 0;
#X connect 3 0 13 0;
#X connect 3 0 9 0;
#X connect 5 0 2 0;
#X connect 5 0 17 0;
#X connect 6 0 15 0;
#X connect 8 0 4 0;
#X connect 9 0 10 0;
#X connect 10 0 5 0;
#X connect 11 0 12 0;
#X connect 12 0 5 0;
#X connect 13 0 14 0;
#X connect 14 0 5 0;
#X connect 15 0 7 0;
#X connect 16 0 15 1;
#X connect 17 0 18 0;
#X connect 17 1 19 0;
#X connect 20 0 13 0;
#X connect 21 0 9 0;
#X connect 22 0 11 0;
#X connect 22 0 13 0;
#X connect 24 0 23 0;
#X restore 73 124 pd quad2quad;
#X obj 39 169 s \$0-q2qP2-M-coords;
#X obj 39 102 list split 1;
#X obj 39 148 list append;
#X obj 123 68 r proj-manual;
#X obj 39 79 spigot 1;
#X obj 123 89 == 0;
#X connect 0 0 6 0;
#X connect 1 0 4 1;
#X connect 3 0 4 0;
#X connect 3 1 1 0;
#X connect 4 0 2 0;
#X connect 5 0 7 0;
#X connect 6 0 3 0;
#X connect 7 0 6 1;
#X restore 364 26 pd cam->proj;
#N canvas 791 133 652 441 camera 0;
#X obj 25 195 pofscale 0.44 0.44 1;
#X obj 25 142 poftranslate 0 -390;
#X obj 25 274 q2qCanvas \$0 1;
#X msg 106 250 title CAMERA;
#X obj 106 227 loadbang;
#X obj 25 369 pofipcam 1023 760;
#X msg 146 304 connect http://rouewifi.local:8080/?action=stream;
#X obj 146 281 loadbang;
#X msg 147 327 disconnect;
#X obj 25 7 inlet;
#X floatatom 81 169 5 0 0 0 - - -;
#X floatatom 62 117 5 0 0 0 - - -;
#X floatatom 104 115 5 0 0 0 - - -;
#X obj 105 82 unpack f f f;
#X msg 152 54 0.63 -325 -45;
#X obj 195 207 sel 1 0;
#X msg 192 250 title;
#X msg 331 192 -1 show \$1;
#X obj 303 145 tgl 15 0 empty empty empty 17 7 0 10 -262144 -1 -1 0
1;
#X obj 331 217 s \$0-q2qP1-props;
#X msg 441 196 0 forcetouch \$1;
#X obj 441 216 s \$0-q2qP1-M-props;
#X msg 245 54 0.92 -180 -20;
#X obj 124 391 route connected;
#X obj 124 412 tgl 15 0 empty empty empty 17 7 0 10 -262144 -1 -1 1
1;
#X msg 199 346 connect http://rouewifiiii.local:8080/?action=stream
;
#X obj 217 279 r camera-reconnect;
#X obj 194 173 r screen_mode;
#X obj 331 136 r screen_mode;
#X obj 331 164 == 2;
#X obj 441 175 != 2;
#X obj 152 8 r screen_mode;
#X obj 152 29 sel 2;
#X obj 25 74 pofvisible;
#X obj 48 29 r screen_mode;
#X obj 48 51 != 1;
#X obj 351 240 s \$0-q2qP2-props;
#X obj 461 239 s \$0-q2qP2-M-props;
#X obj 53 327 tgl 15 0 empty empty empty 17 7 0 10 -262144 -1 -1 0
1;
#X obj 25 297 pofvisible 1;
#X connect 0 0 2 0;
#X connect 1 0 0 0;
#X connect 2 0 39 0;
#X connect 3 0 2 1;
#X connect 4 0 3 0;
#X connect 5 1 23 0;
#X connect 6 0 5 0;
#X connect 7 0 6 0;
#X connect 8 0 5 0;
#X connect 9 0 33 0;
#X connect 10 0 0 1;
#X connect 10 0 0 2;
#X connect 11 0 1 1;
#X connect 12 0 1 2;
#X connect 13 0 10 0;
#X connect 13 1 11 0;
#X connect 13 2 12 0;
#X connect 14 0 13 0;
#X connect 15 0 3 0;
#X connect 15 1 16 0;
#X connect 16 0 2 1;
#X connect 17 0 19 0;
#X connect 17 0 36 0;
#X connect 18 0 17 0;
#X connect 20 0 21 0;
#X connect 20 0 37 0;
#X connect 22 0 13 0;
#X connect 23 0 24 0;
#X connect 25 0 5 0;
#X connect 26 0 6 0;
#X connect 28 0 29 0;
#X connect 28 0 30 0;
#X connect 29 0 17 0;
#X connect 30 0 20 0;
#X connect 31 0 32 0;
#X connect 32 0 14 0;
#X connect 32 1 22 0;
#X connect 33 0 1 0;
#X connect 34 0 35 0;
#X connect 35 0 33 0;
#X connect 38 0 39 0;
#X connect 39 0 5 0;
#X restore 32 182 pd camera;
#N canvas 843 714 490 300 projector 0;
#X obj 43 34 inlet;
#X floatatom 117 187 5 0 0 0 - - -;
#X floatatom 80 131 5 0 0 0 - - -;
#X floatatom 120 137 5 0 0 0 - - -;
#X obj 43 237 q2qCanvas \$0 2;
#X msg 178 223 title PROJECTOR;
#N canvas 1 81 447 300 debug-square 0;
#X obj 96 122 poffill 0;
#X floatatom 174 101 5 0 0 0 - - -;
#X floatatom 217 101 5 0 0 0 - - -;
#X obj 96 147 pofrect 340 250;
#X obj 96 76 inlet;
#X connect 0 0 3 0;
#X connect 1 0 3 1;
#X connect 2 0 3 2;
#X connect 4 0 0 0;
#X restore 43 258 pd debug-square;
#X obj 178 200 loadbang;
#X obj 43 107 pofvisible;
#X obj 43 213 pofscale 0.63 0.63 1;
#X obj 43 156 poftranslate 325 -45;
#X obj 71 59 r screen_mode;
#X obj 186 101 unpack f f f;
#X msg 233 71 0.92 -180 -20;
#X obj 233 27 r screen_mode;
#X obj 233 48 sel 1;
#X msg 323 70 0.63 325 -45;
#X obj 71 81 != 0;
#X connect 0 0 8 0;
#X connect 1 0 9 1;
#X connect 1 0 9 2;
#X connect 2 0 10 1;
#X connect 3 0 10 2;
#X connect 4 0 6 0;
#X connect 5 0 4 1;
#X connect 7 0 5 0;
#X connect 8 0 10 0;
#X connect 9 0 4 0;
#X connect 10 0 9 0;
#X connect 11 0 17 0;
#X connect 12 0 1 0;
#X connect 12 1 2 0;
#X connect 12 2 3 0;
#X connect 13 0 12 0;
#X connect 14 0 15 0;
#X connect 15 0 13 0;
#X connect 15 1 16 0;
#X connect 16 0 12 0;
#X connect 17 0 8 0;
#X restore 93 181 pd projector;
#X obj 32 142 t a a a a, f 31;
#N canvas 1 81 450 300 frame 0;
#X obj 109 10 inlet;
#X obj 109 31 poffill 0;
#X obj 109 52 pofcolor 1 1 1 0.2;
#X floatatom 150 94 5 0 0 0 - - -;
#X floatatom 200 93 5 0 0 0 - - -;
#X obj 109 114 pofrect 1300 740;
#X connect 0 0 1 0;
#X connect 1 0 2 0;
#X connect 2 0 5 0;
#X connect 3 0 5 1;
#X connect 4 0 5 2;
#X restore 258 179 pd frame;
#X obj 365 64 particles/blenderOSCctl;
#N canvas 1157 362 352 246 (old)receive-pythontracker 0;
#X obj 85 60 fudiparse;
#X obj 85 36 netreceive -u -b 8765;
#X obj 85 86 route 0 1;
#X obj 115 110 unpack f f f;
#X obj 115 154 pack f f f;
#X obj 115 132 + 1;
#X obj 85 198 s fromPythonTracker;
#X connect 0 0 2 0;
#X connect 1 0 0 0;
#X connect 2 0 6 0;
#X connect 2 1 3 0;
#X connect 3 0 5 0;
#X connect 3 1 4 1;
#X connect 3 2 4 2;
#X connect 4 0 6 0;
#X connect 5 0 4 0;
#X restore 458 34 pd (old)receive-pythontracker;
#X connect 6 0 9 0;
#X connect 9 0 13 0;
#X connect 13 0 11 0;
#X connect 13 1 12 0;
#X connect 13 2 8 0;
#X connect 13 3 14 0;
