#N canvas 959 629 395 398 12;
#X obj 32 3 inlet;
#X obj 64 254 pofrect 300 10, f 19;
#X obj 64 224 pofcolor 1 1 0 1;
#X obj 158 169 * 300;
#X obj 91 176 - 150;
#X obj 91 152 * 150;
#X obj 158 91 r \$1;
#X obj 158 118 / 100;
#X obj 158 143 pow 2;
#X obj 32 284 poftranslate 0 12;
#X obj 32 308 outlet;
#X obj 229 110 pofrect 300 10, f 19;
#X obj 32 29 t a a;
#X obj 64 56 t a a, f 24;
#X obj 64 200 poftranslate;
#X obj 229 85 pofcolor 0.3 0.3 0 1;
#X connect 0 0 12 0;
#X connect 2 0 1 0;
#X connect 3 0 1 1;
#X connect 4 0 14 1;
#X connect 5 0 4 0;
#X connect 6 0 7 0;
#X connect 7 0 8 0;
#X connect 8 0 3 0;
#X connect 8 0 5 0;
#X connect 9 0 10 0;
#X connect 12 0 9 0;
#X connect 12 1 13 0;
#X connect 13 0 14 0;
#X connect 13 1 15 0;
#X connect 14 0 2 0;
#X connect 15 0 11 0;
