#N canvas 1064 442 683 435 12;
#X declare -path AutoPreset;
#X obj 103 130 hradio 15 1 0 16 empty empty 1..2..3.4..5..6.7.8..9.10.11.2.3.14.15.6
0 -8 0 10 -4034 -1 -1 0;
#X obj 103 151 hradio 15 1 0 16 empty empty empty 0 -8 0 10 -258113
-1 -1 5;
#X msg 102 177 _all_ load \$1;
#X msg 211 178 _all_ store \$1;
#X obj 352 136 bng 30 250 50 0 \$1-save \$1-save \$1-save 0 -8 0 10
-258113 -1 -1;
#X obj 34 270 loadbang;
#X obj 401 150 bng 15 250 50 0 empty empty reload 0 -7 0 10 -4034 -1
-1;
#X obj 247 329 bng 15 250 50 0 empty empty save 17 7 0 10 -258113 -1
-1;
#X obj 27 19 declare -path AutoPreset;
#X obj 102 210 s \$1-pattern-snd;
#X obj 102 330 apmaster \$1;
#X obj 246 307 r \$1-save;
#X obj 34 351 apmasterfile \$1 \$1_presets.txt;
#X obj 34 294 del 2000;
#X connect 0 0 2 0;
#X connect 1 0 3 0;
#X connect 2 0 9 0;
#X connect 3 0 9 0;
#X connect 5 0 13 0;
#X connect 6 0 12 0;
#X connect 7 0 12 1;
#X connect 11 0 7 0;
#X connect 13 0 6 0;
#X coords 0 -1 1 1 350 70 1 100 100;
