#N canvas 453 567 630 328 12;
#X obj 48 13 inlet~;
#X obj 55 249 table buffer-spectrum-\$1;
#X obj 48 82 delwrite~ buffer-\$1 120000;
#X obj 270 216 r buffer-index;
#X obj 55 175 r buffer-length;
#X msg 55 199 resize \$1;
#X obj 55 223 s buffer-spectrum-\$1;
#X obj 270 264 s buffer-spectrum-\$1;
#X obj 270 240 list append 0, f 16;
#X obj 379 67 +~;
#X obj 379 114 iemlib/hp8_butt~ 400;
#X obj 379 162 -, f 14;
#X obj 379 212 dbtorms;
#X obj 379 187 + 100;
#X obj 379 138 env~ 8192 64;
#X obj 474 139 env~ 8192 64;
#X connect 0 0 2 0;
#X connect 0 0 9 0;
#X connect 3 0 8 0;
#X connect 4 0 5 0;
#X connect 5 0 6 0;
#X connect 8 0 7 0;
#X connect 9 0 10 0;
#X connect 9 0 15 0;
#X connect 10 0 14 0;
#X connect 11 0 13 0;
#X connect 12 0 8 1;
#X connect 13 0 12 0;
#X connect 14 0 11 0;
#X connect 15 0 11 1;
