#N canvas 520 233 765 499 12;
#X obj 48 13 inlet~;
#X obj 64 338 table buffer-spectrum-\$1;
#X obj 48 82 delwrite~ buffer-\$1 120000;
#X obj 270 216 r buffer-index;
#X obj 85 238 r buffer-length;
#X msg 51 287 resize \$1;
#X obj 51 311 s buffer-spectrum-\$1;
#X obj 270 264 s buffer-spectrum-\$1;
#X obj 270 240 list append 0, f 16;
#X obj 378 28 +~;
#X obj 379 162 -, f 14;
#X obj 443 214 dbtorms;
#X obj 443 189 + 100;
#X obj 379 138 env~ 8192 64;
#X obj 474 139 env~ 8192 64;
#X obj 51 373 s buffer-env-\$1;
#X obj 65 407 table buffer-env-\$1;
#X obj 505 240 r buffer-index;
#X obj 505 264 list append 0, f 16;
#X obj 505 288 s buffer-env-\$1;
#X obj 614 236 / 100;
#X floatatom 442 30 5 0 0 0 - - -;
#X obj 570 137 env~ 8192 64;
#X obj 379 186 / 100;
#X floatatom 316 161 5 0 0 0 - - -;
#X obj 378 75 iemlib/hp4_butt~ 400;
#X obj 474 113 iemlib/lp4_butt~ 400;
#X obj 51 166 * 44100;
#X obj 51 190 / 64;
#X obj 51 214 i;
#X obj 51 238 + 1;
#X obj 51 119 loadbang;
#X msg 51 143 120;
#X obj 51 262 f;
#X connect 0 0 2 0;
#X connect 0 0 9 0;
#X connect 3 0 8 0;
#X connect 4 0 33 0;
#X connect 5 0 6 0;
#X connect 5 0 15 0;
#X connect 8 0 7 0;
#X connect 9 0 22 0;
#X connect 9 0 25 0;
#X connect 9 0 26 0;
#X connect 10 0 23 0;
#X connect 11 0 8 1;
#X connect 12 0 11 0;
#X connect 13 0 10 0;
#X connect 14 0 10 1;
#X connect 17 0 18 0;
#X connect 18 0 19 0;
#X connect 20 0 18 1;
#X connect 21 0 25 1;
#X connect 21 0 26 1;
#X connect 22 0 20 0;
#X connect 23 0 8 1;
#X connect 25 0 13 0;
#X connect 26 0 14 0;
#X connect 27 0 28 0;
#X connect 28 0 29 0;
#X connect 29 0 30 0;
#X connect 30 0 33 0;
#X connect 31 0 32 0;
#X connect 32 0 27 0;
#X connect 33 0 5 0;
