#N canvas 14 81 1204 662 10;
#X obj 48 43 route \$1;
#X obj 48 67 t b a, f 6;
#X obj 48 143 list split 1;
#X obj 48 117 list, f 6;
#X msg 48 200 set source-\$1;
#X obj 903 166 r buffer-index;
#X obj 244 276 vline~;
#X obj 244 300 *~;
#X obj 88 168 list split 1, f 23;
#X obj 48 19 r vox_play_n-\$2;
#X obj 88 460 vd~ buffer-\$2;
#X text 99 64 source start(ms_before) pitch(semis:0=same) len(ms);
#X obj 167 196 mtof;
#X msg 167 223 8.1758 \$1;
#X obj 167 247 /;
#X obj 167 271 - 1;
#X obj 88 321 pack f f, f 11;
#X obj 88 345 expr $f1 \; $f1 + $f2;
#X obj 88 383 pack f f, f 9;
#X msg 88 407 \$1 \, \$2 1000;
#X obj 88 433 line~;
#X obj 167 295 * 1000;
#X obj 244 223 pack f f f, f 14;
#X obj 244 168 expr $f1/3 \; $f1*2/3 + $f2 \; $f2;
#X obj 419 18 r vox_ctl-\$2;
#X obj 419 44 list trim;
#X obj 419 67 s \$0-ctl;
#X obj 613 395 r \$0-ctl;
#X obj 529 8 r \$0-ctl;
#X obj 529 55 t f f, f 10;
#X obj 529 78 sel 1;
#X obj 654 57 pow 2;
#X obj 654 105 + 10;
#X obj 654 82 * 1000;
#X obj 610 57 pow 2;
#X obj 610 82 * 1000;
#X obj 529 102 random 2e+06;
#X obj 529 126 / 1e+06;
#X obj 529 150 - 1;
#X obj 529 174 *, f 14;
#X obj 529 31 route auto len-rnd len proba, f 36;
#X obj 634 300 / 1e+06;
#X obj 634 276 random 1e+06;
#X obj 529 254 t a b, f 18;
#X obj 634 324 <;
#X obj 712 57 pow 3;
#X obj 529 350 spigot, f 15;
#X obj 490 108 bng 15 250 50 0 empty empty empty 17 7 0 10 -262144
-1 -1;
#X obj 529 199 + 10, f 20;
#X obj 557 282 del, f 4;
#X obj 557 306 spigot;
#X obj 667 438 pow 2;
#X obj 667 458 * 110000;
#X obj 667 479 + 1000;
#X obj 613 440 pow 2;
#X obj 613 461 * 110000;
#X obj 529 371 t b b b f, f 71;
#X obj 529 462 / 1e+06;
#X obj 529 442 random 1e+06;
#X obj 529 483 *, f 14;
#X obj 529 504 +, f 15;
#X obj 841 396 r \$0-ctl;
#X obj 841 441 pow 2;
#X obj 757 458 / 1e+06;
#X obj 757 499 *, f 14;
#X obj 757 520 +, f 15;
#X obj 613 418 route start-rnd start;
#X obj 841 419 route pitch-rnd pitch;
#X obj 902 441 - 0.5;
#X obj 902 461 * 20;
#X obj 757 438 random 2e+06;
#X obj 757 479 - 1;
#X obj 841 462 * 20;
#X obj 529 579 pack f f f, f 71;
#X obj 529 608 list prepend \$2;
#N canvas 252 172 607 476 env/spec 0;
#X obj 86 18 inlet start;
#X obj 86 440 outlet retrig;
#X obj 111 394 outlet start;
#X obj 164 79 r buffer-index;
#X obj 113 80 * -0.75;
#X obj 113 101 +, f 9;
#X floatatom 368 20 8 0 0 0 - - -;
#X obj 179 101 r buffer-length;
#X obj 113 122 mod 90000;
#X obj 113 172 tabread buffer-env-\$2;
#X obj 389 204 tabread buffer-spectrum-\$2;
#X obj 322 46 r \$0-ctl;
#X obj 322 68 route envmin spectrum;
#X obj 86 60 t f f;
#X obj 86 341 list prepend;
#X obj 86 362 route 0 1;
#X obj 86 413 b;
#X obj 322 89 * 2;
#X obj 339 115 - 1;
#X obj 339 136 clip 0 1;
#X obj 284 135 clip 0 1;
#X obj 113 198 t f f, f 12;
#X obj 181 225 >, f 10;
#X obj 113 225 <, f 10;
#X obj 113 248 &&, f 12;
#X obj 113 147 t f f, f 21;
#X obj 443 98 * 2;
#X obj 470 123 - 1;
#X obj 470 144 clip 0 1;
#X obj 405 144 clip 0 1;
#X obj 389 274 t f f, f 12;
#X obj 457 301 >, f 10;
#X obj 389 301 <, f 10;
#X obj 389 324 &&, f 12;
#X obj 113 276 &&, f 34;
#X obj 339 336 tgl 15 0 empty empty empty 17 7 0 10 -262144 -1 -1 0
1;
#X obj 482 334 tgl 15 0 empty empty empty 17 7 0 10 -262144 -1 -1 0
1;
#X obj 389 225 + 1;
#X obj 389 249 * 0.5;
#X connect 0 0 13 0;
#X connect 3 0 5 1;
#X connect 4 0 5 0;
#X connect 5 0 8 0;
#X connect 7 0 8 1;
#X connect 8 0 25 0;
#X connect 9 0 21 0;
#X connect 10 0 37 0;
#X connect 11 0 12 0;
#X connect 12 0 17 0;
#X connect 12 1 26 0;
#X connect 13 0 14 0;
#X connect 13 1 4 0;
#X connect 14 0 15 0;
#X connect 15 0 16 0;
#X connect 15 1 2 0;
#X connect 16 0 1 0;
#X connect 17 0 18 0;
#X connect 17 0 20 0;
#X connect 18 0 19 0;
#X connect 19 0 22 1;
#X connect 20 0 23 1;
#X connect 21 0 23 0;
#X connect 21 1 22 0;
#X connect 22 0 24 1;
#X connect 23 0 24 0;
#X connect 24 0 34 0;
#X connect 25 0 9 0;
#X connect 25 1 10 0;
#X connect 26 0 27 0;
#X connect 26 0 29 0;
#X connect 27 0 28 0;
#X connect 28 0 31 1;
#X connect 29 0 32 1;
#X connect 30 0 32 0;
#X connect 30 1 31 0;
#X connect 31 0 33 1;
#X connect 32 0 33 0;
#X connect 33 0 34 1;
#X connect 34 0 14 1;
#X connect 37 0 38 0;
#X connect 38 0 30 0;
#X restore 471 544 pd env/spec;
#X obj 471 569 del 2;
#X obj 110 520 delwrite~ \$0-d 50;
#X obj 293 604 delread~ \$0-d;
#X obj 131 594 delread~ \$0-d;
#X obj 344 323 r \$0-ctl;
#X obj 344 346 route pan-rnd pan;
#X obj 255 364 random 2e+06;
#X obj 255 384 / 1e+06;
#X obj 255 405 - 1;
#X obj 255 426 *;
#X obj 255 447 +;
#X obj 344 367 pow 2;
#X obj 255 469 clip 0 1;
#X obj 255 343 b;
#X obj 255 511 - 0.5;
#X obj 293 559 max 0;
#X obj 293 538 * -1;
#X obj 131 553 max 0;
#X obj 293 580 * 10;
#X obj 131 574 * 10;
#X obj 292 674 throw~ out1;
#X obj 131 672 throw~ out0;
#X obj 131 621 *~ 1;
#X obj 292 624 *~ 1;
#X obj 378 570 + 1;
#X msg 378 591 1 \$1;
#X obj 378 612 /;
#X obj 378 549 * 10;
#X obj 225 566 + 1;
#X msg 225 587 1 \$1;
#X obj 225 608 /;
#X obj 225 545 * 10;
#X msg 244 249 0 2 \, 1 \$1 \$3 \, 0 \$1 \$2;
#X msg 244 144 \$4 3;
#X obj 425 219 print;
#X obj 529 226 max 10;
#X obj 81 630 print;
#X obj 48 91 del 2;
#X msg 184 393 clear;
#X obj 131 646 *~;
#X obj 292 649 *~;
#X obj 340 463 t f f;
#X obj 367 483 i;
#X obj 340 485 -;
#X obj 255 490 * 3;
#X msg 341 525 set out\$1;
#X msg 406 525 set out\$1;
#X obj 406 504 + 1;
#X floatatom 438 624 5 0 0 0 - - -;
#X floatatom 402 642 5 0 0 0 - - -;
#X obj 326 441 bng 15 250 50 0 empty empty empty 17 7 0 10 -262144
-1 -1;
#X floatatom 395 400 5 0 0 0 - - -;
#X obj 458 171 bng 15 250 50 0 empty empty empty 17 7 0 10 -262144
-1 -1;
#X obj 89 484 hip~ 20000;
#X obj 177 436 r \$0-ctl;
#X obj 177 459 route hip;
#X obj 177 480 * 130;
#X obj 177 501 mtof;
#X connect 0 0 1 0;
#X connect 1 0 113 0;
#X connect 1 1 3 1;
#X connect 1 1 109 0;
#X connect 2 0 4 0;
#X connect 2 1 8 0;
#X connect 3 0 2 0;
#X connect 6 0 7 0;
#X connect 6 0 7 1;
#X connect 7 0 115 1;
#X connect 7 0 116 1;
#X connect 8 0 16 0;
#X connect 8 1 12 0;
#X connect 9 0 0 0;
#X connect 10 0 129 0;
#X connect 12 0 13 0;
#X connect 13 0 14 0;
#X connect 14 0 15 0;
#X connect 15 0 21 0;
#X connect 16 0 17 0;
#X connect 17 0 18 0;
#X connect 17 1 18 1;
#X connect 18 0 19 0;
#X connect 19 0 20 0;
#X connect 20 0 10 0;
#X connect 21 0 16 1;
#X connect 22 0 108 0;
#X connect 23 0 22 0;
#X connect 23 1 22 1;
#X connect 23 2 22 2;
#X connect 24 0 25 0;
#X connect 25 0 26 0;
#X connect 27 0 66 0;
#X connect 28 0 40 0;
#X connect 29 0 30 0;
#X connect 29 1 50 1;
#X connect 30 0 36 0;
#X connect 31 0 33 0;
#X connect 32 0 48 1;
#X connect 33 0 32 0;
#X connect 34 0 35 0;
#X connect 35 0 39 1;
#X connect 36 0 37 0;
#X connect 37 0 38 0;
#X connect 38 0 39 0;
#X connect 39 0 48 0;
#X connect 40 0 29 0;
#X connect 40 1 34 0;
#X connect 40 2 31 0;
#X connect 40 3 45 0;
#X connect 41 0 44 0;
#X connect 42 0 41 0;
#X connect 43 0 46 0;
#X connect 43 0 49 0;
#X connect 43 1 42 0;
#X connect 44 0 46 1;
#X connect 45 0 44 1;
#X connect 46 0 56 0;
#X connect 47 0 36 0;
#X connect 48 0 111 0;
#X connect 49 0 50 0;
#X connect 50 0 36 0;
#X connect 51 0 52 0;
#X connect 52 0 53 0;
#X connect 53 0 60 1;
#X connect 54 0 55 0;
#X connect 55 0 59 1;
#X connect 56 0 58 0;
#X connect 56 1 70 0;
#X connect 56 3 73 2;
#X connect 57 0 59 0;
#X connect 58 0 57 0;
#X connect 59 0 60 0;
#X connect 60 0 75 0;
#X connect 61 0 67 0;
#X connect 62 0 72 0;
#X connect 63 0 71 0;
#X connect 64 0 65 0;
#X connect 65 0 73 1;
#X connect 66 0 54 0;
#X connect 66 1 51 0;
#X connect 67 0 62 0;
#X connect 67 1 68 0;
#X connect 68 0 69 0;
#X connect 69 0 65 1;
#X connect 70 0 63 0;
#X connect 71 0 64 0;
#X connect 72 0 64 1;
#X connect 73 0 74 0;
#X connect 74 0 1 0;
#X connect 75 0 76 0;
#X connect 75 1 73 0;
#X connect 76 0 50 0;
#X connect 78 0 99 0;
#X connect 79 0 98 0;
#X connect 80 0 81 0;
#X connect 81 0 87 0;
#X connect 81 1 86 1;
#X connect 82 0 83 0;
#X connect 83 0 84 0;
#X connect 84 0 85 0;
#X connect 85 0 86 0;
#X connect 86 0 88 0;
#X connect 87 0 85 1;
#X connect 88 0 120 0;
#X connect 89 0 82 0;
#X connect 90 0 92 0;
#X connect 90 0 93 0;
#X connect 91 0 94 0;
#X connect 91 0 103 0;
#X connect 92 0 91 0;
#X connect 93 0 95 0;
#X connect 93 0 107 0;
#X connect 94 0 78 0;
#X connect 95 0 79 0;
#X connect 98 0 115 0;
#X connect 99 0 116 0;
#X connect 100 0 101 0;
#X connect 101 0 102 0;
#X connect 102 0 99 1;
#X connect 103 0 100 0;
#X connect 104 0 105 0;
#X connect 105 0 106 0;
#X connect 106 0 98 1;
#X connect 107 0 104 0;
#X connect 108 0 6 0;
#X connect 109 0 23 0;
#X connect 111 0 43 0;
#X connect 113 0 3 0;
#X connect 113 0 89 0;
#X connect 113 0 114 0;
#X connect 114 0 77 0;
#X connect 115 0 97 0;
#X connect 116 0 96 0;
#X connect 117 0 119 0;
#X connect 117 1 118 0;
#X connect 118 0 119 1;
#X connect 118 0 121 0;
#X connect 118 0 123 0;
#X connect 118 0 125 0;
#X connect 119 0 90 0;
#X connect 120 0 117 0;
#X connect 121 0 97 0;
#X connect 122 0 96 0;
#X connect 123 0 122 0;
#X connect 123 0 124 0;
#X connect 129 0 77 0;
#X connect 130 0 131 0;
#X connect 131 0 132 0;
#X connect 132 0 133 0;
#X connect 133 0 129 1;
